<?xml version="1.0" encoding="UTF-8" standalone="yes"?><svg xmlns="http://www.w3.org/2000/svg" xmlns:xlink="http://www.w3.org/1999/xlink" height="340pt" style="width:155px;height:340px;" version="1.1" viewBox="0 0 155 340" width="155pt"><defs><filter height="300%" id="f1" width="300%" x="-1" y="-1"><feGaussianBlur result="blurOut" stdDeviation="2.0"/><feColorMatrix in="blurOut" result="blurOut2" type="matrix" values="0 0 0 0 0 0 0 0 0 0 0 0 0 0 0 0 0 0 .4 0"/><feOffset dx="4.0" dy="4.0" in="blurOut2" result="blurOut3"/><feBlend in="SourceGraphic" in2="blurOut3" mode="normal"/></filter></defs><g><polygon fill="#FFFFFF" filter="url(#f1)" points="22,24,107,24,114,43.6179,148,43.6179,148,333,22,333,22,24" style="stroke: #000000; stroke-width: 2.0;"/><line style="stroke: #000000; stroke-width: 2.0;" x1="22" x2="114" y1="43.6179" y2="43.6179"/><text fill="#000000" font-family="Arial" font-size="11" lengthAdjust="spacingAndGlyphs" textLength="79" x="25" y="37.4829">Terradue::Portal</text><a target="_top" xlink:href="../information/classes/class_terradue_1_1_portal_1_1_article.html" xlink:title="../information/classes/class_terradue_1_1_portal_1_1_article.html"><rect fill="#EEEBDC" filter="url(#f1)" height="134.6599" style="stroke: #919871; stroke-width: 1.5;" width="95" x="38" y="57.5"/><ellipse cx="67.85" cy="73.5" fill="#ADD1B2" rx="11" ry="11" style="stroke: #919871; stroke-width: 1.0;"/><path d="M70.1938,69.1719 C69.2563,68.7344 68.6625,68.5938 67.7875,68.5938 C65.1625,68.5938 63.1625,70.6719 63.1625,73.3906 L63.1625,74.5156 C63.1625,77.0938 65.2719,78.9844 68.1625,78.9844 C69.3813,78.9844 70.5375,78.6875 71.2875,78.1406 C71.8656,77.7344 72.1938,77.2813 72.1938,76.8906 C72.1938,76.4375 71.8031,76.0469 71.3344,76.0469 C71.1156,76.0469 70.9125,76.125 70.725,76.3125 C70.2719,76.7969 70.2719,76.7969 70.0844,76.8906 C69.6625,77.1563 68.975,77.2813 68.2094,77.2813 C66.1625,77.2813 64.8656,76.1875 64.8656,74.4844 L64.8656,73.3906 C64.8656,71.6094 66.1156,70.2969 67.85,70.2969 C68.4281,70.2969 69.0375,70.4531 69.5063,70.7031 C69.9906,70.9844 70.1625,71.2031 70.2563,71.6094 C70.3188,72.0156 70.35,72.1406 70.4906,72.2656 C70.6313,72.4063 70.8656,72.5156 71.0844,72.5156 C71.35,72.5156 71.6156,72.375 71.7875,72.1563 C71.8969,72 71.9281,71.8125 71.9281,71.3906 L71.9281,69.9688 C71.9281,69.5313 71.9125,69.4063 71.8188,69.25 C71.6625,68.9844 71.3813,68.8438 71.0844,68.8438 C70.7875,68.8438 70.5844,68.9375 70.3656,69.25 L70.1938,69.1719 Z "/><text fill="#000000" font-family="Arial" font-size="11" lengthAdjust="spacingAndGlyphs" textLength="30" x="85.15" y="77.174">Article</text><line style="stroke: #919871; stroke-width: 1.5;" x1="39" x2="132" y1="89.5" y2="89.5"/><ellipse cx="49" cy="100.69" fill="none" rx="3" ry="3" style="stroke: #038048; stroke-width: 1.0;"/><text fill="#000000" font-family="Arial" font-size="10" lengthAdjust="spacingAndGlyphs" textLength="47" x="58" y="103.03">Title:string</text><ellipse cx="49" cy="113.07" fill="none" rx="3" ry="3" style="stroke: #038048; stroke-width: 1.0;"/><text fill="#000000" font-family="Arial" font-size="10" lengthAdjust="spacingAndGlyphs" textLength="66" x="58" y="115.41">Abstract:string</text><ellipse cx="49" cy="125.45" fill="none" rx="3" ry="3" style="stroke: #038048; stroke-width: 1.0;"/><text fill="#000000" font-family="Arial" font-size="10" lengthAdjust="spacingAndGlyphs" textLength="65" x="58" y="127.79">Content:string</text><ellipse cx="49" cy="137.83" fill="none" rx="3" ry="3" style="stroke: #038048; stroke-width: 1.0;"/><text fill="#000000" font-family="Arial" font-size="10" lengthAdjust="spacingAndGlyphs" textLength="69" x="58" y="140.17">Time:DateTime</text><ellipse cx="49" cy="150.2099" fill="none" rx="3" ry="3" style="stroke: #038048; stroke-width: 1.0;"/><text fill="#000000" font-family="Arial" font-size="10" lengthAdjust="spacingAndGlyphs" textLength="40" x="58" y="152.5499">Url:string</text><ellipse cx="49" cy="162.5899" fill="none" rx="3" ry="3" style="stroke: #038048; stroke-width: 1.0;"/><text fill="#000000" font-family="Arial" font-size="10" lengthAdjust="spacingAndGlyphs" textLength="59" x="58" y="164.9299">Author:string</text><ellipse cx="49" cy="174.9699" fill="none" rx="3" ry="3" style="stroke: #038048; stroke-width: 1.0;"/><text fill="#000000" font-family="Arial" font-size="10" lengthAdjust="spacingAndGlyphs" textLength="51" x="58" y="177.3099">Tags:string</text><line style="stroke: #919871; stroke-width: 1.5;" x1="39" x2="132" y1="184.1599" y2="184.1599"/></a><rect fill="#EEEBDC" filter="url(#f1)" height="48" style="stroke: #919871; stroke-width: 1.5;" width="59" x="45" y="269"/><ellipse cx="60" cy="285" fill="#ADD1B2" rx="11" ry="11" style="stroke: #919871; stroke-width: 1.0;"/><path d="M62.3438,280.6719 C61.4063,280.2344 60.8125,280.0938 59.9375,280.0938 C57.3125,280.0938 55.3125,282.1719 55.3125,284.8906 L55.3125,286.0156 C55.3125,288.5938 57.4219,290.4844 60.3125,290.4844 C61.5313,290.4844 62.6875,290.1875 63.4375,289.6406 C64.0156,289.2344 64.3438,288.7813 64.3438,288.3906 C64.3438,287.9375 63.9531,287.5469 63.4844,287.5469 C63.2656,287.5469 63.0625,287.625 62.875,287.8125 C62.4219,288.2969 62.4219,288.2969 62.2344,288.3906 C61.8125,288.6563 61.125,288.7813 60.3594,288.7813 C58.3125,288.7813 57.0156,287.6875 57.0156,285.9844 L57.0156,284.8906 C57.0156,283.1094 58.2656,281.7969 60,281.7969 C60.5781,281.7969 61.1875,281.9531 61.6563,282.2031 C62.1406,282.4844 62.3125,282.7031 62.4063,283.1094 C62.4688,283.5156 62.5,283.6406 62.6406,283.7656 C62.7813,283.9063 63.0156,284.0156 63.2344,284.0156 C63.5,284.0156 63.7656,283.875 63.9375,283.6563 C64.0469,283.5 64.0781,283.3125 64.0781,282.8906 L64.0781,281.4688 C64.0781,281.0313 64.0625,280.9063 63.9688,280.75 C63.8125,280.4844 63.5313,280.3438 63.2344,280.3438 C62.9375,280.3438 62.7344,280.4375 62.5156,280.75 L62.3438,280.6719 Z "/><text fill="#000000" font-family="Arial" font-size="11" lengthAdjust="spacingAndGlyphs" textLength="27" x="74" y="288.674">Entity</text><line style="stroke: #919871; stroke-width: 1.5;" x1="46" x2="103" y1="301" y2="301"/><line style="stroke: #919871; stroke-width: 1.5;" x1="46" x2="103" y1="309" y2="309"/><path d="M80.5576,192.848 C79.3235,211.696 78.0156,231.671 76.8952,248.783 " fill="none" style="stroke: #000000; stroke-width: 1.0;"/><polygon fill="none" points="83.8661,249.4577,75.5742,268.9576,69.896,248.543,83.8661,249.4577" style="stroke: #000000; stroke-width: 1.0;"/><text fill="#000000" font-family="Arial" font-size="11" lengthAdjust="spacingAndGlyphs" textLength="55" x="79" y="234.4829">implements</text></g></svg>