<?xml version="1.0" encoding="UTF-8" standalone="yes"?><svg xmlns="http://www.w3.org/2000/svg" xmlns:xlink="http://www.w3.org/1999/xlink" height="166pt" style="width:237px;height:166px;" version="1.1" viewBox="0 0 237 166" width="237pt"><defs><filter height="300%" id="f1" width="300%" x="-1" y="-1"><feGaussianBlur result="blurOut" stdDeviation="2.0"/><feColorMatrix in="blurOut" result="blurOut2" type="matrix" values="0 0 0 0 0 0 0 0 0 0 0 0 0 0 0 0 0 0 .4 0"/><feOffset dx="4.0" dy="4.0" in="blurOut2" result="blurOut3"/><feBlend in="SourceGraphic" in2="blurOut3" mode="normal"/></filter></defs><g><polygon fill="#FFFFFF" filter="url(#f1)" points="22,24,107,24,114,43.6179,230,43.6179,230,159,22,159,22,24" style="stroke: #000000; stroke-width: 2.0;"/><line style="stroke: #000000; stroke-width: 2.0;" x1="22" x2="114" y1="43.6179" y2="43.6179"/><text fill="#000000" font-family="Arial" font-size="11" lengthAdjust="spacingAndGlyphs" textLength="79" x="25" y="37.4829">Terradue::Portal</text><a xlink:href="../information/classes/class_terradue_1_1_portal_1_1_catalogue.html" xlink:title="../information/classes/class_terradue_1_1_portal_1_1_catalogue.html"><rect fill="#EEEBDC" filter="url(#f1)" height="85.14" style="stroke: #919871; stroke-width: 1.5;" width="176" x="38" y="57.5"/><ellipse cx="97.25" cy="73.5" fill="#ADD1B2" rx="11" ry="11" style="stroke: #919871; stroke-width: 1.0;"/><path d="M99.5938,69.1719 C98.6563,68.7344 98.0625,68.5938 97.1875,68.5938 C94.5625,68.5938 92.5625,70.6719 92.5625,73.3906 L92.5625,74.5156 C92.5625,77.0938 94.6719,78.9844 97.5625,78.9844 C98.7813,78.9844 99.9375,78.6875 100.6875,78.1406 C101.2656,77.7344 101.5938,77.2813 101.5938,76.8906 C101.5938,76.4375 101.2031,76.0469 100.7344,76.0469 C100.5156,76.0469 100.3125,76.125 100.125,76.3125 C99.6719,76.7969 99.6719,76.7969 99.4844,76.8906 C99.0625,77.1563 98.375,77.2813 97.6094,77.2813 C95.5625,77.2813 94.2656,76.1875 94.2656,74.4844 L94.2656,73.3906 C94.2656,71.6094 95.5156,70.2969 97.25,70.2969 C97.8281,70.2969 98.4375,70.4531 98.9063,70.7031 C99.3906,70.9844 99.5625,71.2031 99.6563,71.6094 C99.7188,72.0156 99.75,72.1406 99.8906,72.2656 C100.0313,72.4063 100.2656,72.5156 100.4844,72.5156 C100.75,72.5156 101.0156,72.375 101.1875,72.1563 C101.2969,72 101.3281,71.8125 101.3281,71.3906 L101.3281,69.9688 C101.3281,69.5313 101.3125,69.4063 101.2188,69.25 C101.0625,68.9844 100.7813,68.8438 100.4844,68.8438 C100.1875,68.8438 99.9844,68.9375 99.7656,69.25 L99.5938,69.1719 Z "/><text fill="#000000" font-family="Arial" font-size="11" lengthAdjust="spacingAndGlyphs" textLength="49" x="117.75" y="77.174">Catalogue</text><line style="stroke: #919871; stroke-width: 1.5;" x1="39" x2="213" y1="89.5" y2="89.5"/><ellipse cx="49" cy="100.69" fill="none" rx="3" ry="3" style="stroke: #038048; stroke-width: 1.0;"/><text fill="#000000" font-family="Arial" font-size="10" lengthAdjust="spacingAndGlyphs" textLength="150" x="58" y="103.03">OpenSearchDescriptionUrl:string</text><ellipse cx="49" cy="113.07" fill="none" rx="3" ry="3" style="stroke: #038048; stroke-width: 1.0;"/><text fill="#000000" font-family="Arial" font-size="10" lengthAdjust="spacingAndGlyphs" textLength="64" x="58" y="115.41">BaseUrl:string</text><ellipse cx="49" cy="125.45" fill="none" rx="3" ry="3" style="stroke: #038048; stroke-width: 1.0;"/><text fill="#000000" font-family="Arial" font-size="10" lengthAdjust="spacingAndGlyphs" textLength="112" x="58" y="127.79">SeriesIngestionUrl:string</text><line style="stroke: #919871; stroke-width: 1.5;" x1="39" x2="213" y1="134.64" y2="134.64"/></a></g></svg>