<?xml version="1.0" encoding="UTF-8" standalone="yes"?><svg xmlns="http://www.w3.org/2000/svg" xmlns:xlink="http://www.w3.org/1999/xlink" height="290pt" style="width:273px;height:290px;" version="1.1" viewBox="0 0 273 290" width="273pt"><defs><filter height="300%" id="f1" width="300%" x="-1" y="-1"><feGaussianBlur result="blurOut" stdDeviation="2.0"/><feColorMatrix in="blurOut" result="blurOut2" type="matrix" values="0 0 0 0 0 0 0 0 0 0 0 0 0 0 0 0 0 0 .4 0"/><feOffset dx="4.0" dy="4.0" in="blurOut2" result="blurOut3"/><feBlend in="SourceGraphic" in2="blurOut3" mode="normal"/></filter></defs><g><polygon fill="#FFFFFF" filter="url(#f1)" points="22,24,107,24,114,43.6179,266,43.6179,266,283,22,283,22,24" style="stroke: #000000; stroke-width: 2.0;"/><line style="stroke: #000000; stroke-width: 2.0;" x1="22" x2="114" y1="43.6179" y2="43.6179"/><text fill="#000000" font-family="Arial" font-size="11" lengthAdjust="spacingAndGlyphs" textLength="79" x="25" y="37.4829">Terradue::Portal</text><a target="_top" xlink:href="../information/classes/class_terradue_1_1_portal_1_1_remote_resource_set.html" xlink:title="../information/classes/class_terradue_1_1_portal_1_1_remote_resource_set.html"><rect fill="#EEEBDC" filter="url(#f1)" height="85.14" style="stroke: #919871; stroke-width: 1.5;" width="213" x="38" y="57.5"/><ellipse cx="89.25" cy="73.5" fill="#ADD1B2" rx="11" ry="11" style="stroke: #919871; stroke-width: 1.0;"/><path d="M91.5938,69.1719 C90.6563,68.7344 90.0625,68.5938 89.1875,68.5938 C86.5625,68.5938 84.5625,70.6719 84.5625,73.3906 L84.5625,74.5156 C84.5625,77.0938 86.6719,78.9844 89.5625,78.9844 C90.7813,78.9844 91.9375,78.6875 92.6875,78.1406 C93.2656,77.7344 93.5938,77.2813 93.5938,76.8906 C93.5938,76.4375 93.2031,76.0469 92.7344,76.0469 C92.5156,76.0469 92.3125,76.125 92.125,76.3125 C91.6719,76.7969 91.6719,76.7969 91.4844,76.8906 C91.0625,77.1563 90.375,77.2813 89.6094,77.2813 C87.5625,77.2813 86.2656,76.1875 86.2656,74.4844 L86.2656,73.3906 C86.2656,71.6094 87.5156,70.2969 89.25,70.2969 C89.8281,70.2969 90.4375,70.4531 90.9063,70.7031 C91.3906,70.9844 91.5625,71.2031 91.6563,71.6094 C91.7188,72.0156 91.75,72.1406 91.8906,72.2656 C92.0313,72.4063 92.2656,72.5156 92.4844,72.5156 C92.75,72.5156 93.0156,72.375 93.1875,72.1563 C93.2969,72 93.3281,71.8125 93.3281,71.3906 L93.3281,69.9688 C93.3281,69.5313 93.3125,69.4063 93.2188,69.25 C93.0625,68.9844 92.7813,68.8438 92.4844,68.8438 C92.1875,68.8438 91.9844,68.9375 91.7656,69.25 L91.5938,69.1719 Z "/><text fill="#000000" font-family="Arial" font-size="11" lengthAdjust="spacingAndGlyphs" textLength="102" x="109.75" y="77.174">RemoteResourceSet</text><line style="stroke: #919871; stroke-width: 1.5;" x1="39" x2="250" y1="89.5" y2="89.5"/><ellipse cx="49" cy="100.69" fill="none" rx="3" ry="3" style="stroke: #038048; stroke-width: 1.0;"/><text fill="#000000" font-family="Arial" font-size="10" lengthAdjust="spacingAndGlyphs" textLength="79" x="58" y="103.03">AccessKey:string</text><ellipse cx="49" cy="113.07" fill="none" rx="3" ry="3" style="stroke: #038048; stroke-width: 1.0;"/><text fill="#000000" font-family="Arial" font-size="10" lengthAdjust="spacingAndGlyphs" textLength="100" x="58" y="115.41">Resources:EntityList&lt;</text><ellipse cx="49" cy="125.45" fill="none" rx="3" ry="3" style="stroke: #038048; stroke-width: 1.0;"/><text fill="#000000" font-family="Arial" font-size="10" lengthAdjust="spacingAndGlyphs" textLength="187" x="58" y="127.79">OpenSearchEngine:OpenSearchEngine</text><line style="stroke: #919871; stroke-width: 1.5;" x1="39" x2="250" y1="134.64" y2="134.64"/></a><rect fill="#EEEBDC" filter="url(#f1)" height="48" style="stroke: #919871; stroke-width: 1.5;" width="59" x="115" y="219"/><ellipse cx="130" cy="235" fill="#ADD1B2" rx="11" ry="11" style="stroke: #919871; stroke-width: 1.0;"/><path d="M132.3438,230.6719 C131.4063,230.2344 130.8125,230.0938 129.9375,230.0938 C127.3125,230.0938 125.3125,232.1719 125.3125,234.8906 L125.3125,236.0156 C125.3125,238.5938 127.4219,240.4844 130.3125,240.4844 C131.5313,240.4844 132.6875,240.1875 133.4375,239.6406 C134.0156,239.2344 134.3438,238.7813 134.3438,238.3906 C134.3438,237.9375 133.9531,237.5469 133.4844,237.5469 C133.2656,237.5469 133.0625,237.625 132.875,237.8125 C132.4219,238.2969 132.4219,238.2969 132.2344,238.3906 C131.8125,238.6563 131.125,238.7813 130.3594,238.7813 C128.3125,238.7813 127.0156,237.6875 127.0156,235.9844 L127.0156,234.8906 C127.0156,233.1094 128.2656,231.7969 130,231.7969 C130.5781,231.7969 131.1875,231.9531 131.6563,232.2031 C132.1406,232.4844 132.3125,232.7031 132.4063,233.1094 C132.4688,233.5156 132.5,233.6406 132.6406,233.7656 C132.7813,233.9063 133.0156,234.0156 133.2344,234.0156 C133.5,234.0156 133.7656,233.875 133.9375,233.6563 C134.0469,233.5 134.0781,233.3125 134.0781,232.8906 L134.0781,231.4688 C134.0781,231.0313 134.0625,230.9063 133.9688,230.75 C133.8125,230.4844 133.5313,230.3438 133.2344,230.3438 C132.9375,230.3438 132.7344,230.4375 132.5156,230.75 L132.3438,230.6719 Z "/><text fill="#000000" font-family="Arial" font-size="11" lengthAdjust="spacingAndGlyphs" textLength="27" x="144" y="238.674">Entity</text><line style="stroke: #919871; stroke-width: 1.5;" x1="116" x2="173" y1="251" y2="251"/><line style="stroke: #919871; stroke-width: 1.5;" x1="116" x2="173" y1="259" y2="259"/><path d="M144,142.518 C144,160.194 144,180.715 144,198.587 " fill="none" style="stroke: #000000; stroke-width: 1.0;"/><polygon fill="none" points="151,198.703,144,218.7028,137,198.703,151,198.703" style="stroke: #000000; stroke-width: 1.0;"/><text fill="#000000" font-family="Arial" font-size="11" lengthAdjust="spacingAndGlyphs" textLength="55" x="145" y="184.4829">implements</text></g></svg>