<?xml version="1.0" encoding="UTF-8" standalone="yes"?><svg xmlns="http://www.w3.org/2000/svg" xmlns:xlink="http://www.w3.org/1999/xlink" height="1254pt" style="width:996px;height:1254px;" version="1.1" viewBox="0 0 996 1254" width="996pt"><defs><filter height="300%" id="f1" width="300%" x="-1" y="-1"><feGaussianBlur result="blurOut" stdDeviation="2.0"/><feColorMatrix in="blurOut" result="blurOut2" type="matrix" values="0 0 0 0 0 0 0 0 0 0 0 0 0 0 0 0 0 0 .4 0"/><feOffset dx="4.0" dy="4.0" in="blurOut2" result="blurOut3"/><feBlend in="SourceGraphic" in2="blurOut3" mode="normal"/></filter></defs><g><rect fill="#FFFFFF" filter="url(#f1)" height="29.6211" style="stroke: #A80036; stroke-width: 1.0;" width="10" x="70" y="245.9082"/><rect fill="#FFFFFF" filter="url(#f1)" height="72.9316" style="stroke: #A80036; stroke-width: 1.0;" width="10" x="70" y="629.6348"/><rect fill="#FFFFFF" filter="url(#f1)" height="68.6211" style="stroke: #A80036; stroke-width: 1.0;" width="10" x="257" y="177.2871"/><rect fill="#FFFFFF" filter="url(#f1)" height="44.3105" style="stroke: #A80036; stroke-width: 1.0;" width="10" x="257" y="702.5664"/><rect fill="#FFFFFF" filter="url(#f1)" height="334.7266" style="stroke: #A80036; stroke-width: 1.0;" width="10" x="475" y="746.877"/><rect fill="#FFFFFF" filter="url(#f1)" height="29.3105" style="stroke: #A80036; stroke-width: 1.0;" width="10" x="828" y="275.5293"/><rect fill="#FFFFFF" filter="url(#f1)" height="71.6211" style="stroke: #A80036; stroke-width: 1.0;" width="10" x="828" y="334.1504"/><rect fill="#FFFFFF" filter="url(#f1)" height="29.3105" style="stroke: #A80036; stroke-width: 1.0;" width="10" x="828" y="513.7031"/><rect fill="#FFFFFF" filter="url(#f1)" height="293.1055" style="stroke: #000000; stroke-width: 2.0;" width="968" x="13" y="192.5977"/><rect fill="#FFFFFF" filter="url(#f1)" height="74.9316" style="stroke: #000000; stroke-width: 2.0;" width="227.5" x="410.5" y="878.7402"/><line style="stroke: #A80036; stroke-width: 1.0; stroke-dasharray: 5.0,5.0;" x1="75" x2="75" y1="102.9766" y2="1129.2246"/><line style="stroke: #A80036; stroke-width: 1.0; stroke-dasharray: 5.0,5.0;" x1="262" x2="262" y1="102.9766" y2="1129.2246"/><line style="stroke: #A80036; stroke-width: 1.0; stroke-dasharray: 5.0,5.0;" x1="479.5" x2="479.5" y1="102.9766" y2="1129.2246"/><line style="stroke: #A80036; stroke-width: 1.0; stroke-dasharray: 5.0,5.0;" x1="673.5" x2="673.5" y1="102.9766" y2="1129.2246"/><line style="stroke: #A80036; stroke-width: 1.0; stroke-dasharray: 5.0,5.0;" x1="832.5" x2="832.5" y1="102.9766" y2="1129.2246"/><text fill="#000000" font-family="sans-serif" font-size="14" lengthAdjust="spacingAndGlyphs" textLength="31" x="56.5" y="83.5352">User</text><text fill="#000000" font-family="sans-serif" font-size="14" lengthAdjust="spacingAndGlyphs" textLength="98" x="23" y="100.0234">(Web Browser)</text><ellipse cx="75" cy="13" fill="#FEFECE" filter="url(#f1)" rx="8" ry="8" style="stroke: #A80036; stroke-width: 2.0;"/><path d="M75,21 L75,48 M62,29 L88,29 M75,48 L62,63 M75,48 L88,63 " fill="#FEFECE" filter="url(#f1)" style="stroke: #A80036; stroke-width: 2.0;"/><text fill="#000000" font-family="sans-serif" font-size="14" lengthAdjust="spacingAndGlyphs" textLength="31" x="56.5" y="1141.7598">User</text><text fill="#000000" font-family="sans-serif" font-size="14" lengthAdjust="spacingAndGlyphs" textLength="98" x="23" y="1158.248">(Web Browser)</text><ellipse cx="75" cy="1171.2012" fill="#FEFECE" filter="url(#f1)" rx="8" ry="8" style="stroke: #A80036; stroke-width: 2.0;"/><path d="M75,1179.2012 L75,1206.2012 M62,1187.2012 L88,1187.2012 M75,1206.2012 L62,1221.2012 M75,1206.2012 L88,1221.2012 " fill="#FEFECE" filter="url(#f1)" style="stroke: #A80036; stroke-width: 2.0;"/><rect fill="#FEFECE" filter="url(#f1)" height="46.9766" style="stroke: #A80036; stroke-width: 1.5;" width="160" x="180" y="51"/><text fill="#000000" font-family="sans-serif" font-size="14" lengthAdjust="spacingAndGlyphs" textLength="76" x="222" y="71.5352">Web Server</text><text fill="#000000" font-family="sans-serif" font-size="14" lengthAdjust="spacingAndGlyphs" textLength="146" x="187" y="88.0234">(ngEO SP checkpoint)</text><rect fill="#FEFECE" filter="url(#f1)" height="46.9766" style="stroke: #A80036; stroke-width: 1.5;" width="160" x="180" y="1128.2246"/><text fill="#000000" font-family="sans-serif" font-size="14" lengthAdjust="spacingAndGlyphs" textLength="76" x="222" y="1148.7598">Web Server</text><text fill="#000000" font-family="sans-serif" font-size="14" lengthAdjust="spacingAndGlyphs" textLength="146" x="187" y="1165.248">(ngEO SP checkpoint)</text><rect fill="#FEFECE" filter="url(#f1)" height="46.9766" style="stroke: #A80036; stroke-width: 1.5;" width="115" x="420.5" y="51"/><text fill="#000000" font-family="sans-serif" font-size="14" lengthAdjust="spacingAndGlyphs" textLength="81" x="437.5" y="71.5352">Web Service</text><text fill="#000000" font-family="sans-serif" font-size="14" lengthAdjust="spacingAndGlyphs" textLength="101" x="427.5" y="88.0234">using :Context</text><rect fill="#FEFECE" filter="url(#f1)" height="46.9766" style="stroke: #A80036; stroke-width: 1.5;" width="115" x="420.5" y="1128.2246"/><text fill="#000000" font-family="sans-serif" font-size="14" lengthAdjust="spacingAndGlyphs" textLength="81" x="437.5" y="1148.7598">Web Service</text><text fill="#000000" font-family="sans-serif" font-size="14" lengthAdjust="spacingAndGlyphs" textLength="101" x="427.5" y="1165.248">using :Context</text><rect fill="#FEFECE" filter="url(#f1)" height="63.4648" style="stroke: #A80036; stroke-width: 1.5;" width="115" x="614.5" y="34.5117"/><text fill="#000000" font-family="sans-serif" font-size="14" lengthAdjust="spacingAndGlyphs" textLength="101" x="621.5" y="55.0469">Authentication</text><text fill="#000000" font-family="sans-serif" font-size="14" lengthAdjust="spacingAndGlyphs" textLength="96" x="624" y="71.5352">Configuration</text><text fill="#000000" font-family="sans-serif" font-size="14" lengthAdjust="spacingAndGlyphs" textLength="63" x="640.5" y="88.0234">Auth.xml</text><rect fill="#FEFECE" filter="url(#f1)" height="63.4648" style="stroke: #A80036; stroke-width: 1.5;" width="115" x="614.5" y="1128.2246"/><text fill="#000000" font-family="sans-serif" font-size="14" lengthAdjust="spacingAndGlyphs" textLength="101" x="621.5" y="1148.7598">Authentication</text><text fill="#000000" font-family="sans-serif" font-size="14" lengthAdjust="spacingAndGlyphs" textLength="96" x="624" y="1165.248">Configuration</text><text fill="#000000" font-family="sans-serif" font-size="14" lengthAdjust="spacingAndGlyphs" textLength="63" x="640.5" y="1181.7363">Auth.xml</text><text fill="#000000" font-family="sans-serif" font-size="14" lengthAdjust="spacingAndGlyphs" textLength="173" x="743.5" y="100.0234">UM-SSO Identity Provider</text><ellipse cx="833" cy="70.4883" fill="#FEFECE" filter="url(#f1)" rx="12" ry="12" style="stroke: #A80036; stroke-width: 2.0;"/><line style="stroke: #A80036; stroke-width: 2.0;" x1="821" x2="845" y1="84.4883" y2="84.4883"/><text fill="#000000" font-family="sans-serif" font-size="14" lengthAdjust="spacingAndGlyphs" textLength="173" x="743.5" y="1141.7598">UM-SSO Identity Provider</text><ellipse cx="833" cy="1160.7129" fill="#FEFECE" filter="url(#f1)" rx="12" ry="12" style="stroke: #A80036; stroke-width: 2.0;"/><line style="stroke: #A80036; stroke-width: 2.0;" x1="821" x2="845" y1="1174.7129" y2="1174.7129"/><rect fill="#FFFFFF" filter="url(#f1)" height="29.6211" style="stroke: #A80036; stroke-width: 1.0;" width="10" x="70" y="245.9082"/><rect fill="#FFFFFF" filter="url(#f1)" height="72.9316" style="stroke: #A80036; stroke-width: 1.0;" width="10" x="70" y="629.6348"/><rect fill="#FFFFFF" filter="url(#f1)" height="68.6211" style="stroke: #A80036; stroke-width: 1.0;" width="10" x="257" y="177.2871"/><rect fill="#FFFFFF" filter="url(#f1)" height="44.3105" style="stroke: #A80036; stroke-width: 1.0;" width="10" x="257" y="702.5664"/><rect fill="#FFFFFF" filter="url(#f1)" height="334.7266" style="stroke: #A80036; stroke-width: 1.0;" width="10" x="475" y="746.877"/><rect fill="#FFFFFF" filter="url(#f1)" height="29.3105" style="stroke: #A80036; stroke-width: 1.0;" width="10" x="828" y="275.5293"/><rect fill="#FFFFFF" filter="url(#f1)" height="71.6211" style="stroke: #A80036; stroke-width: 1.0;" width="10" x="828" y="334.1504"/><rect fill="#FFFFFF" filter="url(#f1)" height="29.3105" style="stroke: #A80036; stroke-width: 1.0;" width="10" x="828" y="513.7031"/><rect fill="#EEEEEE" filter="url(#f1)" height="3" style="stroke: #EEEEEE; stroke-width: 1.0;" width="988" x="3" y="133.6318"/><line style="stroke: #000000; stroke-width: 1.0;" x1="3" x2="991" y1="133.6318" y2="133.6318"/><line style="stroke: #000000; stroke-width: 1.0;" x1="3" x2="991" y1="136.6318" y2="136.6318"/><rect fill="#EEEEEE" filter="url(#f1)" height="23.3105" style="stroke: #000000; stroke-width: 2.0;" width="175" x="409.5" y="122.9766"/><text fill="#000000" font-family="sans-serif" font-size="13" font-weight="bold" lengthAdjust="spacingAndGlyphs" textLength="157" x="415.5" y="139.5449">UM-SSO authentication</text><line style="stroke: #A80036; stroke-width: 1.0;" x1="255" x2="245" y1="177.2871" y2="173.2871"/><line style="stroke: #A80036; stroke-width: 1.0;" x1="255" x2="245" y1="177.2871" y2="181.2871"/><line style="stroke: #A80036; stroke-width: 1.0;" x1="75" x2="256" y1="177.2871" y2="177.2871"/><text fill="#000000" font-family="sans-serif" font-size="13" font-weight="bold" lengthAdjust="spacingAndGlyphs" textLength="9" x="82" y="172.8555">1</text><text fill="#000000" font-family="sans-serif" font-size="13" lengthAdjust="spacingAndGlyphs" textLength="84" x="95" y="172.8555">HTTP request</text><rect fill="none" height="293.1055" style="stroke: #000000; stroke-width: 2.0;" width="968" x="13" y="192.5977"/><polygon fill="#EEEEEE" points="13,192.5977,75,192.5977,75,199.5977,65,209.5977,13,209.5977,13,192.5977" style="stroke: #000000; stroke-width: 2.0;"/><text fill="#000000" font-family="sans-serif" font-size="13" font-weight="bold" lengthAdjust="spacingAndGlyphs" textLength="17" x="28" y="206.166">alt</text><text fill="#000000" font-family="sans-serif" font-size="11" font-weight="bold" lengthAdjust="spacingAndGlyphs" textLength="210" x="90" y="205.2324">["user not authenticated on UM-SSO"]</text><line style="stroke: #A80036; stroke-width: 1.0;" x1="80" x2="90" y1="245.9082" y2="241.9082"/><line style="stroke: #A80036; stroke-width: 1.0;" x1="80" x2="90" y1="245.9082" y2="249.9082"/><line style="stroke: #A80036; stroke-width: 1.0; stroke-dasharray: 2.0,2.0;" x1="80" x2="261" y1="245.9082" y2="245.9082"/><text fill="#000000" font-family="sans-serif" font-size="13" font-weight="bold" lengthAdjust="spacingAndGlyphs" textLength="9" x="97" y="234.1318">2</text><text fill="#000000" font-family="sans-serif" font-size="13" lengthAdjust="spacingAndGlyphs" textLength="85" x="110" y="226.4766">HTTP redirect</text><text fill="#000000" font-family="sans-serif" font-size="13" lengthAdjust="spacingAndGlyphs" textLength="36" x="110" y="241.7871">to IdP</text><line style="stroke: #A80036; stroke-width: 1.0;" x1="826" x2="816" y1="275.5293" y2="271.5293"/><line style="stroke: #A80036; stroke-width: 1.0;" x1="826" x2="816" y1="275.5293" y2="279.5293"/><line style="stroke: #A80036; stroke-width: 1.0;" x1="75" x2="827" y1="275.5293" y2="275.5293"/><text fill="#000000" font-family="sans-serif" font-size="13" font-weight="bold" lengthAdjust="spacingAndGlyphs" textLength="9" x="82" y="271.0977">3</text><text fill="#000000" font-family="sans-serif" font-size="13" lengthAdjust="spacingAndGlyphs" textLength="94" x="95" y="271.0977">login form URL</text><line style="stroke: #A80036; stroke-width: 1.0;" x1="75" x2="85" y1="304.8398" y2="300.8398"/><line style="stroke: #A80036; stroke-width: 1.0;" x1="75" x2="85" y1="304.8398" y2="308.8398"/><line style="stroke: #A80036; stroke-width: 1.0; stroke-dasharray: 2.0,2.0;" x1="75" x2="832" y1="304.8398" y2="304.8398"/><text fill="#000000" font-family="sans-serif" font-size="13" font-weight="bold" lengthAdjust="spacingAndGlyphs" textLength="9" x="92" y="300.4082">4</text><text fill="#000000" font-family="sans-serif" font-size="13" lengthAdjust="spacingAndGlyphs" textLength="66" x="105" y="300.4082">login form</text><line style="stroke: #A80036; stroke-width: 1.0;" x1="826" x2="816" y1="334.1504" y2="330.1504"/><line style="stroke: #A80036; stroke-width: 1.0;" x1="826" x2="816" y1="334.1504" y2="338.1504"/><line style="stroke: #A80036; stroke-width: 1.0;" x1="75" x2="827" y1="334.1504" y2="334.1504"/><text fill="#000000" font-family="sans-serif" font-size="13" font-weight="bold" lengthAdjust="spacingAndGlyphs" textLength="9" x="82" y="329.7188">5</text><text fill="#000000" font-family="sans-serif" font-size="13" lengthAdjust="spacingAndGlyphs" textLength="138" x="95" y="329.7188">username &amp; password</text><line style="stroke: #A80036; stroke-width: 1.0;" x1="838" x2="880" y1="363.7715" y2="363.7715"/><line style="stroke: #A80036; stroke-width: 1.0;" x1="880" x2="880" y1="363.7715" y2="376.7715"/><line style="stroke: #A80036; stroke-width: 1.0;" x1="839" x2="880" y1="376.7715" y2="376.7715"/><polygon fill="#A80036" points="849,372.7715,839,376.7715,849,380.7715,845,376.7715" style="stroke: #A80036; stroke-width: 1.0;"/><text fill="#000000" font-family="sans-serif" font-size="13" font-weight="bold" lengthAdjust="spacingAndGlyphs" textLength="9" x="845" y="359.0293">6</text><text fill="#000000" font-family="sans-serif" font-size="13" lengthAdjust="spacingAndGlyphs" textLength="111" x="858" y="359.0293">Authenticate user</text><line style="stroke: #A80036; stroke-width: 1.0;" x1="75" x2="85" y1="405.7715" y2="401.7715"/><line style="stroke: #A80036; stroke-width: 1.0;" x1="75" x2="85" y1="405.7715" y2="409.7715"/><line style="stroke: #A80036; stroke-width: 1.0; stroke-dasharray: 2.0,2.0;" x1="75" x2="832" y1="405.7715" y2="405.7715"/><text fill="#000000" font-family="sans-serif" font-size="13" font-weight="bold" lengthAdjust="spacingAndGlyphs" textLength="9" x="92" y="401.3398">7</text><text fill="#000000" font-family="sans-serif" font-size="13" lengthAdjust="spacingAndGlyphs" textLength="410" x="105" y="401.3398">user credentials (cookie, SAML token, validity period, redirection)</text><line style="stroke: #A80036; stroke-width: 1.0;" x1="75" x2="117" y1="435.3926" y2="435.3926"/><line style="stroke: #A80036; stroke-width: 1.0;" x1="117" x2="117" y1="435.3926" y2="448.3926"/><line style="stroke: #A80036; stroke-width: 1.0;" x1="76" x2="117" y1="448.3926" y2="448.3926"/><polygon fill="#A80036" points="86,444.3926,76,448.3926,86,452.3926,82,448.3926" style="stroke: #A80036; stroke-width: 1.0;"/><text fill="#000000" font-family="sans-serif" font-size="13" font-weight="bold" lengthAdjust="spacingAndGlyphs" textLength="9" x="82" y="430.6504">8</text><text fill="#000000" font-family="sans-serif" font-size="13" lengthAdjust="spacingAndGlyphs" textLength="78" x="95" y="430.6504">Write cookie</text><line style="stroke: #A80036; stroke-width: 1.0;" x1="260" x2="250" y1="477.3926" y2="473.3926"/><line style="stroke: #A80036; stroke-width: 1.0;" x1="260" x2="250" y1="477.3926" y2="481.3926"/><line style="stroke: #A80036; stroke-width: 1.0;" x1="75" x2="261" y1="477.3926" y2="477.3926"/><text fill="#000000" font-family="sans-serif" font-size="13" font-weight="bold" lengthAdjust="spacingAndGlyphs" textLength="9" x="82" y="472.9609">9</text><text fill="#000000" font-family="sans-serif" font-size="13" lengthAdjust="spacingAndGlyphs" textLength="85" x="95" y="472.9609">HTTP redirect</text><line style="stroke: #A80036; stroke-width: 1.0;" x1="826" x2="816" y1="513.7031" y2="509.7031"/><line style="stroke: #A80036; stroke-width: 1.0;" x1="826" x2="816" y1="513.7031" y2="517.7031"/><line style="stroke: #A80036; stroke-width: 1.0;" x1="262" x2="827" y1="513.7031" y2="513.7031"/><text fill="#000000" font-family="sans-serif" font-size="13" font-weight="bold" lengthAdjust="spacingAndGlyphs" textLength="18" x="269" y="509.2715">10</text><text fill="#000000" font-family="sans-serif" font-size="13" lengthAdjust="spacingAndGlyphs" textLength="127" x="291" y="509.2715">check User attribute</text><line style="stroke: #A80036; stroke-width: 1.0;" x1="262" x2="272" y1="543.0137" y2="539.0137"/><line style="stroke: #A80036; stroke-width: 1.0;" x1="262" x2="272" y1="543.0137" y2="547.0137"/><line style="stroke: #A80036; stroke-width: 1.0; stroke-dasharray: 2.0,2.0;" x1="262" x2="832" y1="543.0137" y2="543.0137"/><text fill="#000000" font-family="sans-serif" font-size="13" font-weight="bold" lengthAdjust="spacingAndGlyphs" textLength="18" x="279" y="538.582">11</text><text fill="#000000" font-family="sans-serif" font-size="13" lengthAdjust="spacingAndGlyphs" textLength="167" x="301" y="538.582">Identity attributes in SAML</text><line style="stroke: #A80036; stroke-width: 1.0;" x1="262" x2="304" y1="572.6348" y2="572.6348"/><line style="stroke: #A80036; stroke-width: 1.0;" x1="304" x2="304" y1="572.6348" y2="585.6348"/><line style="stroke: #A80036; stroke-width: 1.0;" x1="263" x2="304" y1="585.6348" y2="585.6348"/><polygon fill="#A80036" points="273,581.6348,263,585.6348,273,589.6348,269,585.6348" style="stroke: #A80036; stroke-width: 1.0;"/><text fill="#000000" font-family="sans-serif" font-size="13" font-weight="bold" lengthAdjust="spacingAndGlyphs" textLength="18" x="269" y="567.8926">12</text><text fill="#000000" font-family="sans-serif" font-size="13" lengthAdjust="spacingAndGlyphs" textLength="157" x="291" y="567.8926">Create a security context</text><line style="stroke: #A80036; stroke-width: 1.0;" x1="80" x2="90" y1="629.6348" y2="625.6348"/><line style="stroke: #A80036; stroke-width: 1.0;" x1="80" x2="90" y1="629.6348" y2="633.6348"/><line style="stroke: #A80036; stroke-width: 1.0; stroke-dasharray: 2.0,2.0;" x1="80" x2="261" y1="629.6348" y2="629.6348"/><text fill="#000000" font-family="sans-serif" font-size="13" font-weight="bold" lengthAdjust="spacingAndGlyphs" textLength="18" x="97" y="617.8584">13</text><text fill="#000000" font-family="sans-serif" font-size="13" lengthAdjust="spacingAndGlyphs" textLength="105" x="119" y="610.2031">HTTP redirection</text><text fill="#000000" font-family="sans-serif" font-size="13" lengthAdjust="spacingAndGlyphs" textLength="130" x="119" y="625.5137">to original resources</text><rect fill="#EEEEEE" filter="url(#f1)" height="3" style="stroke: #EEEEEE; stroke-width: 1.0;" width="988" x="3" y="658.9111"/><line style="stroke: #000000; stroke-width: 1.0;" x1="3" x2="991" y1="658.9111" y2="658.9111"/><line style="stroke: #000000; stroke-width: 1.0;" x1="3" x2="991" y1="661.9111" y2="661.9111"/><rect fill="#EEEEEE" filter="url(#f1)" height="23.3105" style="stroke: #000000; stroke-width: 2.0;" width="196" x="399" y="648.2559"/><text fill="#000000" font-family="sans-serif" font-size="13" font-weight="bold" lengthAdjust="spacingAndGlyphs" textLength="178" x="405" y="664.8242">Web Server authentication</text><line style="stroke: #A80036; stroke-width: 1.0;" x1="255" x2="245" y1="702.5664" y2="698.5664"/><line style="stroke: #A80036; stroke-width: 1.0;" x1="255" x2="245" y1="702.5664" y2="706.5664"/><line style="stroke: #A80036; stroke-width: 1.0;" x1="75" x2="256" y1="702.5664" y2="702.5664"/><text fill="#000000" font-family="sans-serif" font-size="13" font-weight="bold" lengthAdjust="spacingAndGlyphs" textLength="18" x="82" y="698.1348">14</text><text fill="#000000" font-family="sans-serif" font-size="13" lengthAdjust="spacingAndGlyphs" textLength="136" x="104" y="698.1348">original HTTP request</text><polygon fill="#A80036" points="463,742.877,473,746.877,463,750.877,467,746.877" style="stroke: #A80036; stroke-width: 1.0;"/><line style="stroke: #A80036; stroke-width: 1.0;" x1="262" x2="469" y1="746.877" y2="746.877"/><text fill="#000000" font-family="sans-serif" font-size="13" font-weight="bold" lengthAdjust="spacingAndGlyphs" textLength="18" x="269" y="735.1006">15</text><text fill="#000000" font-family="sans-serif" font-size="13" lengthAdjust="spacingAndGlyphs" textLength="136" x="291" y="727.4453">original HTTP request</text><text fill="#000000" font-family="sans-serif" font-size="13" lengthAdjust="spacingAndGlyphs" textLength="167" x="291" y="742.7559">+ additional HTTP headers</text><polygon fill="#A80036" points="662,772.498,672,776.498,662,780.498,666,776.498" style="stroke: #A80036; stroke-width: 1.0;"/><line style="stroke: #A80036; stroke-width: 1.0;" x1="485" x2="668" y1="776.498" y2="776.498"/><text fill="#000000" font-family="sans-serif" font-size="13" font-weight="bold" lengthAdjust="spacingAndGlyphs" textLength="18" x="492" y="772.0664">16</text><text fill="#000000" font-family="sans-serif" font-size="13" lengthAdjust="spacingAndGlyphs" textLength="119" x="514" y="772.0664">Read configuration</text><polygon fill="#A80036" points="496,801.8086,486,805.8086,496,809.8086,492,805.8086" style="stroke: #A80036; stroke-width: 1.0;"/><line style="stroke: #A80036; stroke-width: 1.0; stroke-dasharray: 2.0,2.0;" x1="490" x2="673" y1="805.8086" y2="805.8086"/><text fill="#000000" font-family="sans-serif" font-size="13" font-weight="bold" lengthAdjust="spacingAndGlyphs" textLength="18" x="502" y="801.377">17</text><text fill="#000000" font-family="sans-serif" font-size="13" lengthAdjust="spacingAndGlyphs" textLength="143" x="524" y="801.377">Authentication RuleSet</text><line style="stroke: #A80036; stroke-width: 1.0;" x1="485" x2="527" y1="850.7402" y2="850.7402"/><line style="stroke: #A80036; stroke-width: 1.0;" x1="527" x2="527" y1="850.7402" y2="863.7402"/><line style="stroke: #A80036; stroke-width: 1.0;" x1="486" x2="527" y1="863.7402" y2="863.7402"/><polygon fill="#A80036" points="496,859.7402,486,863.7402,496,867.7402,492,863.7402" style="stroke: #A80036; stroke-width: 1.0;"/><text fill="#000000" font-family="sans-serif" font-size="13" font-weight="bold" lengthAdjust="spacingAndGlyphs" textLength="18" x="492" y="838.3428">18</text><text fill="#000000" font-family="sans-serif" font-size="13" lengthAdjust="spacingAndGlyphs" textLength="83" x="514" y="830.6875">Apply ruleset</text><text fill="#000000" font-family="sans-serif" font-size="13" lengthAdjust="spacingAndGlyphs" textLength="105" x="514" y="845.998">to HTTP Headers</text><rect fill="none" height="74.9316" style="stroke: #000000; stroke-width: 2.0;" width="227.5" x="410.5" y="878.7402"/><polygon fill="#EEEEEE" points="410.5,878.7402,472.5,878.7402,472.5,885.7402,462.5,895.7402,410.5,895.7402,410.5,878.7402" style="stroke: #000000; stroke-width: 2.0;"/><text fill="#000000" font-family="sans-serif" font-size="13" font-weight="bold" lengthAdjust="spacingAndGlyphs" textLength="17" x="425.5" y="892.3086">alt</text><text fill="#000000" font-family="sans-serif" font-size="11" font-weight="bold" lengthAdjust="spacingAndGlyphs" textLength="145" x="487.5" y="891.375">["User not present in DB"]</text><line style="stroke: #A80036; stroke-width: 1.0;" x1="485" x2="527" y1="932.6719" y2="932.6719"/><line style="stroke: #A80036; stroke-width: 1.0;" x1="527" x2="527" y1="932.6719" y2="945.6719"/><line style="stroke: #A80036; stroke-width: 1.0;" x1="486" x2="527" y1="945.6719" y2="945.6719"/><polygon fill="#A80036" points="496,941.6719,486,945.6719,496,949.6719,492,945.6719" style="stroke: #A80036; stroke-width: 1.0;"/><text fill="#000000" font-family="sans-serif" font-size="13" font-weight="bold" lengthAdjust="spacingAndGlyphs" textLength="18" x="492" y="920.2744">19</text><text fill="#000000" font-family="sans-serif" font-size="13" lengthAdjust="spacingAndGlyphs" textLength="112" x="514" y="912.6191">Register new User</text><text fill="#000000" font-family="sans-serif" font-size="13" lengthAdjust="spacingAndGlyphs" textLength="111" x="514" y="927.9297">(username, email)</text><line style="stroke: #A80036; stroke-width: 1.0;" x1="485" x2="527" y1="997.293" y2="997.293"/><line style="stroke: #A80036; stroke-width: 1.0;" x1="527" x2="527" y1="997.293" y2="1010.293"/><line style="stroke: #A80036; stroke-width: 1.0;" x1="486" x2="527" y1="1010.293" y2="1010.293"/><polygon fill="#A80036" points="496,1006.293,486,1010.293,496,1014.293,492,1010.293" style="stroke: #A80036; stroke-width: 1.0;"/><text fill="#000000" font-family="sans-serif" font-size="13" font-weight="bold" lengthAdjust="spacingAndGlyphs" textLength="18" x="492" y="984.8955">20</text><text fill="#000000" font-family="sans-serif" font-size="13" lengthAdjust="spacingAndGlyphs" textLength="145" x="514" y="977.2402">Initialize Local Context</text><text fill="#000000" font-family="sans-serif" font-size="13" lengthAdjust="spacingAndGlyphs" textLength="98" x="514" y="992.5508">with user space</text><line style="stroke: #A80036; stroke-width: 1.0;" x1="485" x2="527" y1="1039.6035" y2="1039.6035"/><line style="stroke: #A80036; stroke-width: 1.0;" x1="527" x2="527" y1="1039.6035" y2="1052.6035"/><line style="stroke: #A80036; stroke-width: 1.0;" x1="486" x2="527" y1="1052.6035" y2="1052.6035"/><polygon fill="#A80036" points="496,1048.6035,486,1052.6035,496,1056.6035,492,1052.6035" style="stroke: #A80036; stroke-width: 1.0;"/><text fill="#000000" font-family="sans-serif" font-size="13" font-weight="bold" lengthAdjust="spacingAndGlyphs" textLength="18" x="492" y="1034.8613">21</text><text fill="#000000" font-family="sans-serif" font-size="13" lengthAdjust="spacingAndGlyphs" textLength="100" x="514" y="1034.8613">Perform request</text><polygon fill="#A80036" points="273,1077.6035,263,1081.6035,273,1085.6035,269,1081.6035" style="stroke: #A80036; stroke-width: 1.0;"/><line style="stroke: #A80036; stroke-width: 1.0; stroke-dasharray: 2.0,2.0;" x1="267" x2="479" y1="1081.6035" y2="1081.6035"/><text fill="#000000" font-family="sans-serif" font-size="13" font-weight="bold" lengthAdjust="spacingAndGlyphs" textLength="18" x="279" y="1077.1719">22</text><text fill="#000000" font-family="sans-serif" font-size="13" lengthAdjust="spacingAndGlyphs" textLength="94" x="301" y="1077.1719">HTTP response</text><line style="stroke: #A80036; stroke-width: 1.0;" x1="75" x2="85" y1="1110.9141" y2="1106.9141"/><line style="stroke: #A80036; stroke-width: 1.0;" x1="75" x2="85" y1="1110.9141" y2="1114.9141"/><line style="stroke: #A80036; stroke-width: 1.0; stroke-dasharray: 2.0,2.0;" x1="75" x2="261" y1="1110.9141" y2="1110.9141"/><text fill="#000000" font-family="sans-serif" font-size="13" font-weight="bold" lengthAdjust="spacingAndGlyphs" textLength="18" x="92" y="1106.4824">23</text><text fill="#000000" font-family="sans-serif" font-size="13" lengthAdjust="spacingAndGlyphs" textLength="94" x="114" y="1106.4824">HTTP response</text><text fill="#888888" font-family="sans-serif" font-size="10" lengthAdjust="spacingAndGlyphs" textLength="267" x="363.5" y="1241.8691">DIAG_NAME version ${project.version} / ${buildNumber}</text><text fill="#888888" font-family="sans-serif" font-size="10" lengthAdjust="spacingAndGlyphs" textLength="192" x="401" y="1253.6465">(c) Terradue Srl ${project.inceptionYear}</text></g></svg>