<?xml version="1.0" encoding="UTF-8" standalone="yes"?><svg xmlns="http://www.w3.org/2000/svg" xmlns:xlink="http://www.w3.org/1999/xlink" height="166pt" style="width:283px;height:166px;" version="1.1" viewBox="0 0 283 166" width="283pt"><defs><filter height="300%" id="f1" width="300%" x="-1" y="-1"><feGaussianBlur result="blurOut" stdDeviation="2.0"/><feColorMatrix in="blurOut" result="blurOut2" type="matrix" values="0 0 0 0 0 0 0 0 0 0 0 0 0 0 0 0 0 0 .4 0"/><feOffset dx="4.0" dy="4.0" in="blurOut2" result="blurOut3"/><feBlend in="SourceGraphic" in2="blurOut3" mode="normal"/></filter></defs><g><polygon fill="#FFFFFF" filter="url(#f1)" points="22,24,107,24,114,43.6179,276,43.6179,276,159,22,159,22,24" style="stroke: #000000; stroke-width: 2.0;"/><line style="stroke: #000000; stroke-width: 2.0;" x1="22" x2="114" y1="43.6179" y2="43.6179"/><text fill="#000000" font-family="Arial" font-size="11" lengthAdjust="spacingAndGlyphs" textLength="79" x="25" y="37.4829">Terradue::Portal</text><a target="_top" xlink:href="../information/classes/class_terradue_1_1_portal_1_1_authentication_type.html" xlink:title="../information/classes/class_terradue_1_1_portal_1_1_authentication_type.html"><rect fill="#EEEBDC" filter="url(#f1)" height="85.14" style="stroke: #919871; stroke-width: 1.5;" width="222" x="38" y="57.5"/><ellipse cx="98.25" cy="73.5" fill="#ADD1B2" rx="11" ry="11" style="stroke: #919871; stroke-width: 1.0;"/><path d="M100.5938,69.1719 C99.6563,68.7344 99.0625,68.5938 98.1875,68.5938 C95.5625,68.5938 93.5625,70.6719 93.5625,73.3906 L93.5625,74.5156 C93.5625,77.0938 95.6719,78.9844 98.5625,78.9844 C99.7813,78.9844 100.9375,78.6875 101.6875,78.1406 C102.2656,77.7344 102.5938,77.2813 102.5938,76.8906 C102.5938,76.4375 102.2031,76.0469 101.7344,76.0469 C101.5156,76.0469 101.3125,76.125 101.125,76.3125 C100.6719,76.7969 100.6719,76.7969 100.4844,76.8906 C100.0625,77.1563 99.375,77.2813 98.6094,77.2813 C96.5625,77.2813 95.2656,76.1875 95.2656,74.4844 L95.2656,73.3906 C95.2656,71.6094 96.5156,70.2969 98.25,70.2969 C98.8281,70.2969 99.4375,70.4531 99.9063,70.7031 C100.3906,70.9844 100.5625,71.2031 100.6563,71.6094 C100.7188,72.0156 100.75,72.1406 100.8906,72.2656 C101.0313,72.4063 101.2656,72.5156 101.4844,72.5156 C101.75,72.5156 102.0156,72.375 102.1875,72.1563 C102.2969,72 102.3281,71.8125 102.3281,71.3906 L102.3281,69.9688 C102.3281,69.5313 102.3125,69.4063 102.2188,69.25 C102.0625,68.9844 101.7813,68.8438 101.4844,68.8438 C101.1875,68.8438 100.9844,68.9375 100.7656,69.25 L100.5938,69.1719 Z "/><text fill="#000000" font-family="Arial" font-size="11" lengthAdjust="spacingAndGlyphs" textLength="93" x="118.75" y="77.174">AuthenticationType</text><line style="stroke: #919871; stroke-width: 1.5;" x1="39" x2="259" y1="89.5" y2="89.5"/><ellipse cx="49" cy="100.69" fill="none" rx="3" ry="3" style="stroke: #038048; stroke-width: 1.0;"/><text fill="#000000" font-family="Arial" font-size="10" lengthAdjust="spacingAndGlyphs" textLength="189" x="58" y="103.03">NormalAccountRule:RuleApplicationType</text><ellipse cx="49" cy="113.07" fill="none" rx="3" ry="3" style="stroke: #038048; stroke-width: 1.0;"/><text fill="#000000" font-family="Arial" font-size="10" lengthAdjust="spacingAndGlyphs" textLength="155" x="58" y="115.41">ExternalSessionRefreshPeriod:int</text><ellipse cx="49" cy="125.45" fill="none" rx="3" ry="3" style="stroke: #038048; stroke-width: 1.0;"/><text fill="#000000" font-family="Arial" font-size="10" lengthAdjust="spacingAndGlyphs" textLength="196" x="58" y="127.79">UsesExternalIdentityProvider:abstract bool</text><line style="stroke: #919871; stroke-width: 1.5;" x1="39" x2="259" y1="134.64" y2="134.64"/></a></g></svg>