<?xml version="1.0" encoding="UTF-8" standalone="yes"?><svg xmlns="http://www.w3.org/2000/svg" xmlns:xlink="http://www.w3.org/1999/xlink" height="335pt" style="width:545px;height:335px;" version="1.1" viewBox="0 0 545 335" width="545pt"><defs><filter height="300%" id="f1" width="300%" x="-1" y="-1"><feGaussianBlur result="blurOut" stdDeviation="2.0"/><feColorMatrix in="blurOut" result="blurOut2" type="matrix" values="0 0 0 0 0 0 0 0 0 0 0 0 0 0 0 0 0 0 .4 0"/><feOffset dx="4.0" dy="4.0" in="blurOut2" result="blurOut3"/><feBlend in="SourceGraphic" in2="blurOut3" mode="normal"/></filter></defs><g><polygon fill="#FFFFFF" filter="url(#f1)" points="22,24,61,24,68,46.4883,538,46.4883,538,328,22,328,22,24" style="stroke: #000000; stroke-width: 2.0;"/><line style="stroke: #000000; stroke-width: 2.0;" x1="22" x2="68" y1="46.4883" y2="46.4883"/><text fill="#000000" font-family="sans-serif" font-size="14" font-weight="bold" lengthAdjust="spacingAndGlyphs" textLength="33" x="26" y="39.5352">Core</text><rect fill="#EEEBDC" filter="url(#f1)" height="42.6489" style="stroke: #919871; stroke-width: 1.5;" width="148" x="38" y="60.5"/><rect fill="#EEEBDC" height="10" style="stroke: #919871; stroke-width: 1.5;" width="15" x="166" y="65.5"/><rect fill="#EEEBDC" height="2" style="stroke: #919871; stroke-width: 1.5;" width="4" x="164" y="67.5"/><rect fill="#EEEBDC" height="2" style="stroke: #919871; stroke-width: 1.5;" width="4" x="164" y="71.5"/><text fill="#000000" font-family="Arial" font-size="11" lengthAdjust="spacingAndGlyphs" textLength="108" x="53" y="90.8179">group___authorisation</text><rect fill="#EEEBDC" filter="url(#f1)" height="42.6489" style="stroke: #919871; stroke-width: 1.5;" width="143" x="221.75" y="60.5"/><rect fill="#EEEBDC" height="10" style="stroke: #919871; stroke-width: 1.5;" width="15" x="344.75" y="65.5"/><rect fill="#EEEBDC" height="2" style="stroke: #919871; stroke-width: 1.5;" width="4" x="342.75" y="67.5"/><rect fill="#EEEBDC" height="2" style="stroke: #919871; stroke-width: 1.5;" width="4" x="342.75" y="71.5"/><text fill="#000000" font-family="Arial" font-size="11" lengthAdjust="spacingAndGlyphs" textLength="103" x="236.75" y="90.8179">group___persistence</text><rect fill="#EEEBDC" filter="url(#f1)" height="42.6489" style="stroke: #919871; stroke-width: 1.5;" width="122" x="400" y="60.5"/><rect fill="#EEEBDC" height="10" style="stroke: #919871; stroke-width: 1.5;" width="15" x="502" y="65.5"/><rect fill="#EEEBDC" height="2" style="stroke: #919871; stroke-width: 1.5;" width="4" x="500" y="67.5"/><rect fill="#EEEBDC" height="2" style="stroke: #919871; stroke-width: 1.5;" width="4" x="500" y="71.5"/><text fill="#000000" font-family="Arial" font-size="11" lengthAdjust="spacingAndGlyphs" textLength="82" x="415" y="90.8179">group___context</text><rect fill="#EEEBDC" filter="url(#f1)" height="42.6489" style="stroke: #919871; stroke-width: 1.5;" width="148" x="38" y="164.5"/><rect fill="#EEEBDC" height="10" style="stroke: #919871; stroke-width: 1.5;" width="15" x="166" y="169.5"/><rect fill="#EEEBDC" height="2" style="stroke: #919871; stroke-width: 1.5;" width="4" x="164" y="171.5"/><rect fill="#EEEBDC" height="2" style="stroke: #919871; stroke-width: 1.5;" width="4" x="164" y="175.5"/><text fill="#000000" font-family="Arial" font-size="11" lengthAdjust="spacingAndGlyphs" textLength="108" x="53" y="194.8179">group___web_context</text><rect fill="#EEEBDC" filter="url(#f1)" height="42.6489" style="stroke: #919871; stroke-width: 1.5;" width="116" x="235" y="164.5"/><rect fill="#EEEBDC" height="10" style="stroke: #919871; stroke-width: 1.5;" width="15" x="331" y="169.5"/><rect fill="#EEEBDC" height="2" style="stroke: #919871; stroke-width: 1.5;" width="4" x="329" y="171.5"/><rect fill="#EEEBDC" height="2" style="stroke: #919871; stroke-width: 1.5;" width="4" x="329" y="175.5"/><text fill="#000000" font-family="Arial" font-size="11" lengthAdjust="spacingAndGlyphs" textLength="76" x="250" y="194.8179">group___series</text><rect fill="#EEEBDC" filter="url(#f1)" height="42.6489" style="stroke: #919871; stroke-width: 1.5;" width="122" x="393" y="164.5"/><rect fill="#EEEBDC" height="10" style="stroke: #919871; stroke-width: 1.5;" width="15" x="495" y="169.5"/><rect fill="#EEEBDC" height="2" style="stroke: #919871; stroke-width: 1.5;" width="4" x="493" y="171.5"/><rect fill="#EEEBDC" height="2" style="stroke: #919871; stroke-width: 1.5;" width="4" x="493" y="175.5"/><text fill="#000000" font-family="Arial" font-size="11" lengthAdjust="spacingAndGlyphs" textLength="82" x="408" y="194.8179">group___service</text><rect fill="#EEEBDC" filter="url(#f1)" height="42.6489" style="stroke: #919871; stroke-width: 1.5;" width="148" x="38" y="268.5"/><rect fill="#EEEBDC" height="10" style="stroke: #919871; stroke-width: 1.5;" width="15" x="166" y="273.5"/><rect fill="#EEEBDC" height="2" style="stroke: #919871; stroke-width: 1.5;" width="4" x="164" y="275.5"/><rect fill="#EEEBDC" height="2" style="stroke: #919871; stroke-width: 1.5;" width="4" x="164" y="279.5"/><text fill="#000000" font-family="Arial" font-size="11" lengthAdjust="spacingAndGlyphs" textLength="108" x="53" y="298.8179">group___wps_service</text><rect fill="#EEEBDC" filter="url(#f1)" height="42.6489" style="stroke: #919871; stroke-width: 1.5;" width="152" x="295" y="268.5"/><rect fill="#EEEBDC" height="10" style="stroke: #919871; stroke-width: 1.5;" width="15" x="427" y="273.5"/><rect fill="#EEEBDC" height="2" style="stroke: #919871; stroke-width: 1.5;" width="4" x="425" y="275.5"/><rect fill="#EEEBDC" height="2" style="stroke: #919871; stroke-width: 1.5;" width="4" x="425" y="279.5"/><text fill="#000000" font-family="Arial" font-size="11" lengthAdjust="spacingAndGlyphs" textLength="112" x="310" y="298.8179">group___wps_provider</text></g></svg>