<?xml version="1.0" encoding="UTF-8" standalone="yes"?><svg xmlns="http://www.w3.org/2000/svg" xmlns:xlink="http://www.w3.org/1999/xlink" height="306pt" style="width:243px;height:306px;" version="1.1" viewBox="0 0 243 306" width="243pt"><defs><filter height="300%" id="f1" width="300%" x="-1" y="-1"><feGaussianBlur result="blurOut" stdDeviation="2.0"/><feColorMatrix in="blurOut" result="blurOut2" type="matrix" values="0 0 0 0 0 0 0 0 0 0 0 0 0 0 0 0 0 0 .4 0"/><feOffset dx="4.0" dy="4.0" in="blurOut2" result="blurOut3"/><feBlend in="SourceGraphic" in2="blurOut3" mode="normal"/></filter></defs><g><polygon fill="#FFFFFF" filter="url(#f1)" points="22,24,107,24,114,43.6179,236,43.6179,236,299,22,299,22,24" style="stroke: #000000; stroke-width: 2.0;"/><line style="stroke: #000000; stroke-width: 2.0;" x1="22" x2="114" y1="43.6179" y2="43.6179"/><text fill="#000000" font-family="Arial" font-size="11" lengthAdjust="spacingAndGlyphs" textLength="79" x="25" y="37.4829">Terradue::Portal</text><a xlink:href="../information/classes/class_terradue_1_1_portal_1_1_remote_resource.html" xlink:title="../information/classes/class_terradue_1_1_portal_1_1_remote_resource.html"><rect fill="#EEEBDC" filter="url(#f1)" height="60.38" style="stroke: #919871; stroke-width: 1.5;" width="118" x="71" y="57"/><ellipse cx="86" cy="73" fill="#ADD1B2" rx="11" ry="11" style="stroke: #919871; stroke-width: 1.0;"/><path d="M88.3438,68.6719 C87.4063,68.2344 86.8125,68.0938 85.9375,68.0938 C83.3125,68.0938 81.3125,70.1719 81.3125,72.8906 L81.3125,74.0156 C81.3125,76.5938 83.4219,78.4844 86.3125,78.4844 C87.5313,78.4844 88.6875,78.1875 89.4375,77.6406 C90.0156,77.2344 90.3438,76.7813 90.3438,76.3906 C90.3438,75.9375 89.9531,75.5469 89.4844,75.5469 C89.2656,75.5469 89.0625,75.625 88.875,75.8125 C88.4219,76.2969 88.4219,76.2969 88.2344,76.3906 C87.8125,76.6563 87.125,76.7813 86.3594,76.7813 C84.3125,76.7813 83.0156,75.6875 83.0156,73.9844 L83.0156,72.8906 C83.0156,71.1094 84.2656,69.7969 86,69.7969 C86.5781,69.7969 87.1875,69.9531 87.6563,70.2031 C88.1406,70.4844 88.3125,70.7031 88.4063,71.1094 C88.4688,71.5156 88.5,71.6406 88.6406,71.7656 C88.7813,71.9063 89.0156,72.0156 89.2344,72.0156 C89.5,72.0156 89.7656,71.875 89.9375,71.6563 C90.0469,71.5 90.0781,71.3125 90.0781,70.8906 L90.0781,69.4688 C90.0781,69.0313 90.0625,68.9063 89.9688,68.75 C89.8125,68.4844 89.5313,68.3438 89.2344,68.3438 C88.9375,68.3438 88.7344,68.4375 88.5156,68.75 L88.3438,68.6719 Z "/><text fill="#000000" font-family="Arial" font-size="11" lengthAdjust="spacingAndGlyphs" textLength="86" x="100" y="76.674">RemoteResource</text><line style="stroke: #919871; stroke-width: 1.5;" x1="72" x2="188" y1="89" y2="89"/><ellipse cx="82" cy="100.19" fill="none" rx="3" ry="3" style="stroke: #038048; stroke-width: 1.0;"/><text fill="#000000" font-family="Arial" font-size="10" lengthAdjust="spacingAndGlyphs" textLength="68" x="91" y="102.53">Location:string</text><line style="stroke: #919871; stroke-width: 1.5;" x1="72" x2="188" y1="109.38" y2="109.38"/></a><rect fill="#EEEBDC" filter="url(#f1)" height="48" style="stroke: #919871; stroke-width: 1.5;" width="134" x="63" y="215"/><ellipse cx="78" cy="231" fill="#ADD1B2" rx="11" ry="11" style="stroke: #919871; stroke-width: 1.0;"/><path d="M80.3438,226.6719 C79.4063,226.2344 78.8125,226.0938 77.9375,226.0938 C75.3125,226.0938 73.3125,228.1719 73.3125,230.8906 L73.3125,232.0156 C73.3125,234.5938 75.4219,236.4844 78.3125,236.4844 C79.5313,236.4844 80.6875,236.1875 81.4375,235.6406 C82.0156,235.2344 82.3438,234.7813 82.3438,234.3906 C82.3438,233.9375 81.9531,233.5469 81.4844,233.5469 C81.2656,233.5469 81.0625,233.625 80.875,233.8125 C80.4219,234.2969 80.4219,234.2969 80.2344,234.3906 C79.8125,234.6563 79.125,234.7813 78.3594,234.7813 C76.3125,234.7813 75.0156,233.6875 75.0156,231.9844 L75.0156,230.8906 C75.0156,229.1094 76.2656,227.7969 78,227.7969 C78.5781,227.7969 79.1875,227.9531 79.6563,228.2031 C80.1406,228.4844 80.3125,228.7031 80.4063,229.1094 C80.4688,229.5156 80.5,229.6406 80.6406,229.7656 C80.7813,229.9063 81.0156,230.0156 81.2344,230.0156 C81.5,230.0156 81.7656,229.875 81.9375,229.6563 C82.0469,229.5 82.0781,229.3125 82.0781,228.8906 L82.0781,227.4688 C82.0781,227.0313 82.0625,226.9063 81.9688,226.75 C81.8125,226.4844 81.5313,226.3438 81.2344,226.3438 C80.9375,226.3438 80.7344,226.4375 80.5156,226.75 L80.3438,226.6719 Z "/><text fill="#000000" font-family="Arial" font-size="11" lengthAdjust="spacingAndGlyphs" textLength="102" x="92" y="234.674">RemoteResourceSet</text><line style="stroke: #919871; stroke-width: 1.5;" x1="64" x2="196" y1="247" y2="247"/><line style="stroke: #919871; stroke-width: 1.5;" x1="64" x2="196" y1="255" y2="255"/><path d="M130,130.189 C130,157.511 130,191.834 130,214.544 " fill="none" style="stroke: #000000; stroke-width: 1.0;"/><polygon fill="#000000" points="130,117.03,126,123.03,130,129.03,134,123.03,130,117.03" style="stroke: #000000; stroke-width: 1.0;"/><text fill="#000000" font-family="Arial" font-size="11" lengthAdjust="spacingAndGlyphs" textLength="18" x="131" y="158.4829">has</text><text fill="#000000" font-family="Arial" font-size="11" lengthAdjust="spacingAndGlyphs" textLength="6" x="131.2965" y="203.8021">1</text></g></svg>