<?xml version="1.0" encoding="UTF-8" standalone="yes"?><svg xmlns="http://www.w3.org/2000/svg" xmlns:xlink="http://www.w3.org/1999/xlink" height="332pt" style="width:275px;height:332px;" version="1.1" viewBox="0 0 275 332" width="275pt"><defs><filter height="300%" id="f1" width="300%" x="-1" y="-1"><feGaussianBlur result="blurOut" stdDeviation="2.0"/><feColorMatrix in="blurOut" result="blurOut2" type="matrix" values="0 0 0 0 0 0 0 0 0 0 0 0 0 0 0 0 0 0 .4 0"/><feOffset dx="4.0" dy="4.0" in="blurOut2" result="blurOut3"/><feBlend in="SourceGraphic" in2="blurOut3" mode="normal"/></filter></defs><g><polygon fill="#FFFFFF" filter="url(#f1)" points="22,24,107,24,114,43.6179,268,43.6179,268,325,22,325,22,24" style="stroke: #000000; stroke-width: 2.0;"/><line style="stroke: #000000; stroke-width: 2.0;" x1="22" x2="114" y1="43.6179" y2="43.6179"/><text fill="#000000" font-family="Arial" font-size="11" lengthAdjust="spacingAndGlyphs" textLength="79" x="25" y="37.4829">Terradue::Portal</text><a target="_top" xlink:href="../information/classes/class_terradue_1_1_portal_1_1_scheduler.html" xlink:title="../information/classes/class_terradue_1_1_portal_1_1_scheduler.html"><rect fill="#EEEBDC" filter="url(#f1)" height="85.14" style="stroke: #919871; stroke-width: 1.5;" width="141" x="76" y="57.5"/><ellipse cx="118" cy="73.5" fill="#ADD1B2" rx="11" ry="11" style="stroke: #919871; stroke-width: 1.0;"/><path d="M120.3438,69.1719 C119.4063,68.7344 118.8125,68.5938 117.9375,68.5938 C115.3125,68.5938 113.3125,70.6719 113.3125,73.3906 L113.3125,74.5156 C113.3125,77.0938 115.4219,78.9844 118.3125,78.9844 C119.5313,78.9844 120.6875,78.6875 121.4375,78.1406 C122.0156,77.7344 122.3438,77.2813 122.3438,76.8906 C122.3438,76.4375 121.9531,76.0469 121.4844,76.0469 C121.2656,76.0469 121.0625,76.125 120.875,76.3125 C120.4219,76.7969 120.4219,76.7969 120.2344,76.8906 C119.8125,77.1563 119.125,77.2813 118.3594,77.2813 C116.3125,77.2813 115.0156,76.1875 115.0156,74.4844 L115.0156,73.3906 C115.0156,71.6094 116.2656,70.2969 118,70.2969 C118.5781,70.2969 119.1875,70.4531 119.6563,70.7031 C120.1406,70.9844 120.3125,71.2031 120.4063,71.6094 C120.4688,72.0156 120.5,72.1406 120.6406,72.2656 C120.7813,72.4063 121.0156,72.5156 121.2344,72.5156 C121.5,72.5156 121.7656,72.375 121.9375,72.1563 C122.0469,72 122.0781,71.8125 122.0781,71.3906 L122.0781,69.9688 C122.0781,69.5313 122.0625,69.4063 121.9688,69.25 C121.8125,68.9844 121.5313,68.8438 121.2344,68.8438 C120.9375,68.8438 120.7344,68.9375 120.5156,69.25 L120.3438,69.1719 Z "/><text fill="#000000" font-family="Arial" font-size="11" lengthAdjust="spacingAndGlyphs" textLength="49" x="138" y="77.174">Scheduler</text><line style="stroke: #919871; stroke-width: 1.5;" x1="77" x2="216" y1="89.5" y2="89.5"/><ellipse cx="87" cy="100.69" fill="none" rx="3" ry="3" style="stroke: #038048; stroke-width: 1.0;"/><text fill="#000000" font-family="Arial" font-size="10" lengthAdjust="spacingAndGlyphs" textLength="115" x="96" y="103.03">Status:SchedulingStatus</text><ellipse cx="87" cy="113.07" fill="none" rx="3" ry="3" style="stroke: #038048; stroke-width: 1.0;"/><text fill="#000000" font-family="Arial" font-size="10" lengthAdjust="spacingAndGlyphs" textLength="91" x="96" y="115.41">MaxSubmissions:int</text><ellipse cx="87" cy="125.45" fill="none" rx="3" ry="3" style="stroke: #038048; stroke-width: 1.0;"/><text fill="#000000" font-family="Arial" font-size="10" lengthAdjust="spacingAndGlyphs" textLength="54" x="96" y="127.79">Inputs:List&lt;</text><line style="stroke: #919871; stroke-width: 1.5;" x1="77" x2="216" y1="134.64" y2="134.64"/></a><rect fill="#EEEBDC" filter="url(#f1)" height="48" style="stroke: #919871; stroke-width: 1.5;" width="165" x="63" y="241"/><ellipse cx="78" cy="257" fill="#ADD1B2" rx="11" ry="11" style="stroke: #919871; stroke-width: 1.0;"/><path d="M80.3438,252.6719 C79.4063,252.2344 78.8125,252.0938 77.9375,252.0938 C75.3125,252.0938 73.3125,254.1719 73.3125,256.8906 L73.3125,258.0156 C73.3125,260.5938 75.4219,262.4844 78.3125,262.4844 C79.5313,262.4844 80.6875,262.1875 81.4375,261.6406 C82.0156,261.2344 82.3438,260.7813 82.3438,260.3906 C82.3438,259.9375 81.9531,259.5469 81.4844,259.5469 C81.2656,259.5469 81.0625,259.625 80.875,259.8125 C80.4219,260.2969 80.4219,260.2969 80.2344,260.3906 C79.8125,260.6563 79.125,260.7813 78.3594,260.7813 C76.3125,260.7813 75.0156,259.6875 75.0156,257.9844 L75.0156,256.8906 C75.0156,255.1094 76.2656,253.7969 78,253.7969 C78.5781,253.7969 79.1875,253.9531 79.6563,254.2031 C80.1406,254.4844 80.3125,254.7031 80.4063,255.1094 C80.4688,255.5156 80.5,255.6406 80.6406,255.7656 C80.7813,255.9063 81.0156,256.0156 81.2344,256.0156 C81.5,256.0156 81.7656,255.875 81.9375,255.6563 C82.0469,255.5 82.0781,255.3125 82.0781,254.8906 L82.0781,253.4688 C82.0781,253.0313 82.0625,252.9063 81.9688,252.75 C81.8125,252.4844 81.5313,252.3438 81.2344,252.3438 C80.9375,252.3438 80.7344,252.4375 80.5156,252.75 L80.3438,252.6719 Z "/><text fill="#000000" font-family="Arial" font-size="11" lengthAdjust="spacingAndGlyphs" textLength="133" x="92" y="260.674">SchedulerRunConfiguration</text><line style="stroke: #919871; stroke-width: 1.5;" x1="64" x2="227" y1="273" y2="273"/><line style="stroke: #919871; stroke-width: 1.5;" x1="64" x2="227" y1="281" y2="281"/><path d="M146,156.177 C146,184.969 146,218.539 146,240.697 " fill="none" style="stroke: #000000; stroke-width: 1.0;"/><polygon fill="#000000" points="146,142.921,142,148.921,146,154.921,150,148.921,146,142.921" style="stroke: #000000; stroke-width: 1.0;"/><text fill="#000000" font-family="Arial" font-size="11" lengthAdjust="spacingAndGlyphs" textLength="18" x="147" y="184.4829">has</text><text fill="#000000" font-family="Arial" font-size="11" lengthAdjust="spacingAndGlyphs" textLength="6" x="147.3995" y="229.7688">1</text></g></svg>