<?xml version="1.0" encoding="UTF-8" standalone="yes"?><svg xmlns="http://www.w3.org/2000/svg" xmlns:xlink="http://www.w3.org/1999/xlink" height="161pt" style="width:248px;height:161px;" version="1.1" viewBox="0 0 248 161" width="248pt"><defs><filter height="300%" id="f1" width="300%" x="-1" y="-1"><feGaussianBlur result="blurOut" stdDeviation="2.0"/><feColorMatrix in="blurOut" result="blurOut2" type="matrix" values="0 0 0 0 0 0 0 0 0 0 0 0 0 0 0 0 0 0 .4 0"/><feOffset dx="4.0" dy="4.0" in="blurOut2" result="blurOut3"/><feBlend in="SourceGraphic" in2="blurOut3" mode="normal"/></filter></defs><g><polygon fill="#FFFFFF" filter="url(#f1)" points="22,24,230,24,237,42.6489,241,42.6489,241,154,22,154,22,24" style="stroke: #000000; stroke-width: 2.0;"/><line style="stroke: #000000; stroke-width: 2.0;" x1="22" x2="237" y1="42.6489" y2="42.6489"/><text fill="#000000" font-family="Arial" font-size="11" lengthAdjust="spacingAndGlyphs" textLength="202" x="25" y="37.3179">Terradue::ServiceModel::Ogc::OwsModel</text><a target="_top" xlink:href="../information/classes/class_terradue_1_1_service_model_1_1_ogc_1_1_ows_model_1_1_ows_context.html" xlink:title="../information/classes/class_terradue_1_1_service_model_1_1_ogc_1_1_ows_model_1_1_ows_context.html"><rect fill="#EEEBDC" filter="url(#f1)" height="82.4971" style="stroke: #919871; stroke-width: 1.5;" width="137" x="62.75" y="56"/><ellipse cx="97.55" cy="72" fill="#ADD1B2" rx="11" ry="11" style="stroke: #919871; stroke-width: 1.0;"/><path d="M100.5231,77.6431 Q99.9421,77.9419 99.3029,78.0913 Q98.6638,78.2407 97.9582,78.2407 Q95.4514,78.2407 94.1315,76.5889 Q92.8117,74.937 92.8117,71.8159 Q92.8117,68.6865 94.1315,67.0347 Q95.4514,65.3828 97.9582,65.3828 Q98.6638,65.3828 99.3112,65.5322 Q99.9587,65.6816 100.5231,65.9805 L100.5231,68.7031 Q99.8923,68.1221 99.2988,67.8523 Q98.7053,67.5825 98.0744,67.5825 Q96.7297,67.5825 96.0449,68.6492 Q95.3601,69.7158 95.3601,71.8159 Q95.3601,73.9077 96.0449,74.9744 Q96.7297,76.041 98.0744,76.041 Q98.7053,76.041 99.2988,75.7712 Q99.8923,75.5015 100.5231,74.9204 Z "/><text fill="#000000" font-family="Arial" font-size="11" lengthAdjust="spacingAndGlyphs" textLength="61" x="115.95" y="75.9934">OwsContext</text><line style="stroke: #919871; stroke-width: 1.5;" x1="63.75" x2="198.75" y1="88" y2="88"/><ellipse cx="73.75" cy="99" fill="none" rx="3" ry="3" style="stroke: #038048; stroke-width: 1.0;"/><text fill="#000000" font-family="Arial" font-size="10" lengthAdjust="spacingAndGlyphs" textLength="98" x="82.75" y="101.6304">Authors:List&lt; string &gt;</text><ellipse cx="73.75" cy="111" fill="none" rx="3" ry="3" style="stroke: #038048; stroke-width: 1.0;"/><text fill="#000000" font-family="Arial" font-size="10" lengthAdjust="spacingAndGlyphs" textLength="71" x="82.75" y="113.6304">Publisher:string</text><ellipse cx="73.75" cy="123" fill="none" rx="3" ry="3" style="stroke: #038048; stroke-width: 1.0;"/><text fill="#000000" font-family="Arial" font-size="10" lengthAdjust="spacingAndGlyphs" textLength="111" x="82.75" y="125.6304">ContextMetadata:object</text><line style="stroke: #919871; stroke-width: 1.5;" x1="63.75" x2="198.75" y1="130.4971" y2="130.4971"/></a></g></svg>