<?xml version="1.0" encoding="UTF-8" standalone="yes"?><svg xmlns="http://www.w3.org/2000/svg" xmlns:xlink="http://www.w3.org/1999/xlink" height="352pt" style="width:763px;height:352px;" version="1.1" viewBox="0 0 763 352" width="763pt"><defs><filter height="300%" id="f1" width="300%" x="-1" y="-1"><feGaussianBlur result="blurOut" stdDeviation="2.0"/><feColorMatrix in="blurOut" result="blurOut2" type="matrix" values="0 0 0 0 0 0 0 0 0 0 0 0 0 0 0 0 0 0 .4 0"/><feOffset dx="4.0" dy="4.0" in="blurOut2" result="blurOut3"/><feBlend in="SourceGraphic" in2="blurOut3" mode="normal"/></filter></defs><g><polygon fill="#FFFFFF" filter="url(#f1)" points="22,24,107,24,114,43.6179,756,43.6179,756,345,22,345,22,24" style="stroke: #000000; stroke-width: 2.0;"/><line style="stroke: #000000; stroke-width: 2.0;" x1="22" x2="114" y1="43.6179" y2="43.6179"/><text fill="#000000" font-family="Arial" font-size="11" lengthAdjust="spacingAndGlyphs" textLength="79" x="25" y="37.4829">Terradue::Portal</text><a target="_top" xlink:href="../information/classes/class_terradue_1_1_portal_1_1_service.html" xlink:title="../information/classes/class_terradue_1_1_portal_1_1_service.html"><rect fill="#EEEBDC" filter="url(#f1)" height="147.0399" style="stroke: #919871; stroke-width: 1.5;" width="195" x="327" y="57.5"/><ellipse cx="401.75" cy="73.5" fill="#ADD1B2" rx="11" ry="11" style="stroke: #919871; stroke-width: 1.0;"/><path d="M404.0938,69.1719 C403.1563,68.7344 402.5625,68.5938 401.6875,68.5938 C399.0625,68.5938 397.0625,70.6719 397.0625,73.3906 L397.0625,74.5156 C397.0625,77.0938 399.1719,78.9844 402.0625,78.9844 C403.2813,78.9844 404.4375,78.6875 405.1875,78.1406 C405.7656,77.7344 406.0938,77.2813 406.0938,76.8906 C406.0938,76.4375 405.7031,76.0469 405.2344,76.0469 C405.0156,76.0469 404.8125,76.125 404.625,76.3125 C404.1719,76.7969 404.1719,76.7969 403.9844,76.8906 C403.5625,77.1563 402.875,77.2813 402.1094,77.2813 C400.0625,77.2813 398.7656,76.1875 398.7656,74.4844 L398.7656,73.3906 C398.7656,71.6094 400.0156,70.2969 401.75,70.2969 C402.3281,70.2969 402.9375,70.4531 403.4063,70.7031 C403.8906,70.9844 404.0625,71.2031 404.1563,71.6094 C404.2188,72.0156 404.25,72.1406 404.3906,72.2656 C404.5313,72.4063 404.7656,72.5156 404.9844,72.5156 C405.25,72.5156 405.5156,72.375 405.6875,72.1563 C405.7969,72 405.8281,71.8125 405.8281,71.3906 L405.8281,69.9688 C405.8281,69.5313 405.8125,69.4063 405.7188,69.25 C405.5625,68.9844 405.2813,68.8438 404.9844,68.8438 C404.6875,68.8438 404.4844,68.9375 404.2656,69.25 L404.0938,69.1719 Z "/><text fill="#000000" font-family="Arial" font-size="11" lengthAdjust="spacingAndGlyphs" textLength="37" x="422.25" y="77.174">Service</text><line style="stroke: #919871; stroke-width: 1.5;" x1="328" x2="521" y1="89.5" y2="89.5"/><ellipse cx="338" cy="100.69" fill="none" rx="3" ry="3" style="stroke: #038048; stroke-width: 1.0;"/><text fill="#000000" font-family="Arial" font-size="10" lengthAdjust="spacingAndGlyphs" textLength="79" x="347" y="103.03">Description:string</text><ellipse cx="338" cy="113.07" fill="none" rx="3" ry="3" style="stroke: #038048; stroke-width: 1.0;"/><text fill="#000000" font-family="Arial" font-size="10" lengthAdjust="spacingAndGlyphs" textLength="63" x="347" y="115.41">Version:string</text><ellipse cx="338" cy="125.45" fill="none" rx="3" ry="3" style="stroke: #038048; stroke-width: 1.0;"/><text fill="#000000" font-family="Arial" font-size="10" lengthAdjust="spacingAndGlyphs" textLength="40" x="347" y="127.79">Url:string</text><ellipse cx="338" cy="137.83" fill="none" rx="3" ry="3" style="stroke: #038048; stroke-width: 1.0;"/><text fill="#000000" font-family="Arial" font-size="10" lengthAdjust="spacingAndGlyphs" textLength="60" x="347" y="140.17">IconUrl:string</text><ellipse cx="338" cy="150.2099" fill="none" rx="3" ry="3" style="stroke: #038048; stroke-width: 1.0;"/><text fill="#000000" font-family="Arial" font-size="10" lengthAdjust="spacingAndGlyphs" textLength="44" x="347" y="152.5499">Rating:int</text><ellipse cx="338" cy="162.5899" fill="none" rx="3" ry="3" style="stroke: #038048; stroke-width: 1.0;"/><text fill="#000000" font-family="Arial" font-size="10" lengthAdjust="spacingAndGlyphs" textLength="48" x="347" y="164.9299">ClassId:int</text><ellipse cx="338" cy="174.9699" fill="none" rx="3" ry="3" style="stroke: #038048; stroke-width: 1.0;"/><text fill="#000000" font-family="Arial" font-size="10" lengthAdjust="spacingAndGlyphs" textLength="59" x="347" y="177.3099">Categories:[]</text><ellipse cx="338" cy="187.3499" fill="none" rx="3" ry="3" style="stroke: #038048; stroke-width: 1.0;"/><text fill="#000000" font-family="Arial" font-size="10" lengthAdjust="spacingAndGlyphs" textLength="169" x="347" y="189.6899">OnBuildTask:BuildTaskCallbackType</text><line style="stroke: #919871; stroke-width: 1.5;" x1="328" x2="521" y1="196.5399" y2="196.5399"/></a><rect fill="#EEEBDC" filter="url(#f1)" height="48" style="stroke: #919871; stroke-width: 1.5;" width="128" x="38" y="281"/><ellipse cx="53" cy="297" fill="#ADD1B2" rx="11" ry="11" style="stroke: #919871; stroke-width: 1.0;"/><path d="M55.3438,292.6719 C54.4063,292.2344 53.8125,292.0938 52.9375,292.0938 C50.3125,292.0938 48.3125,294.1719 48.3125,296.8906 L48.3125,298.0156 C48.3125,300.5938 50.4219,302.4844 53.3125,302.4844 C54.5313,302.4844 55.6875,302.1875 56.4375,301.6406 C57.0156,301.2344 57.3438,300.7813 57.3438,300.3906 C57.3438,299.9375 56.9531,299.5469 56.4844,299.5469 C56.2656,299.5469 56.0625,299.625 55.875,299.8125 C55.4219,300.2969 55.4219,300.2969 55.2344,300.3906 C54.8125,300.6563 54.125,300.7813 53.3594,300.7813 C51.3125,300.7813 50.0156,299.6875 50.0156,297.9844 L50.0156,296.8906 C50.0156,295.1094 51.2656,293.7969 53,293.7969 C53.5781,293.7969 54.1875,293.9531 54.6563,294.2031 C55.1406,294.4844 55.3125,294.7031 55.4063,295.1094 C55.4688,295.5156 55.5,295.6406 55.6406,295.7656 C55.7813,295.9063 56.0156,296.0156 56.2344,296.0156 C56.5,296.0156 56.7656,295.875 56.9375,295.6563 C57.0469,295.5 57.0781,295.3125 57.0781,294.8906 L57.0781,293.4688 C57.0781,293.0313 57.0625,292.9063 56.9688,292.75 C56.8125,292.4844 56.5313,292.3438 56.2344,292.3438 C55.9375,292.3438 55.7344,292.4375 55.5156,292.75 L55.3438,292.6719 Z "/><text fill="#000000" font-family="Arial" font-size="11" lengthAdjust="spacingAndGlyphs" textLength="96" x="67" y="300.674">ScriptBasedService</text><line style="stroke: #919871; stroke-width: 1.5;" x1="39" x2="165" y1="313" y2="313"/><line style="stroke: #919871; stroke-width: 1.5;" x1="39" x2="165" y1="321" y2="321"/><rect fill="#EEEBDC" filter="url(#f1)" height="48" style="stroke: #919871; stroke-width: 1.5;" width="134" x="201" y="281"/><ellipse cx="216" cy="297" fill="#ADD1B2" rx="11" ry="11" style="stroke: #919871; stroke-width: 1.0;"/><path d="M218.3438,292.6719 C217.4063,292.2344 216.8125,292.0938 215.9375,292.0938 C213.3125,292.0938 211.3125,294.1719 211.3125,296.8906 L211.3125,298.0156 C211.3125,300.5938 213.4219,302.4844 216.3125,302.4844 C217.5313,302.4844 218.6875,302.1875 219.4375,301.6406 C220.0156,301.2344 220.3438,300.7813 220.3438,300.3906 C220.3438,299.9375 219.9531,299.5469 219.4844,299.5469 C219.2656,299.5469 219.0625,299.625 218.875,299.8125 C218.4219,300.2969 218.4219,300.2969 218.2344,300.3906 C217.8125,300.6563 217.125,300.7813 216.3594,300.7813 C214.3125,300.7813 213.0156,299.6875 213.0156,297.9844 L213.0156,296.8906 C213.0156,295.1094 214.2656,293.7969 216,293.7969 C216.5781,293.7969 217.1875,293.9531 217.6563,294.2031 C218.1406,294.4844 218.3125,294.7031 218.4063,295.1094 C218.4688,295.5156 218.5,295.6406 218.6406,295.7656 C218.7813,295.9063 219.0156,296.0156 219.2344,296.0156 C219.5,296.0156 219.7656,295.875 219.9375,295.6563 C220.0469,295.5 220.0781,295.3125 220.0781,294.8906 L220.0781,293.4688 C220.0781,293.0313 220.0625,292.9063 219.9688,292.75 C219.8125,292.4844 219.5313,292.3438 219.2344,292.3438 C218.9375,292.3438 218.7344,292.4375 218.5156,292.75 L218.3438,292.6719 Z "/><text fill="#000000" font-family="Arial" font-size="11" lengthAdjust="spacingAndGlyphs" textLength="102" x="230" y="300.674">WpsProcessOffering</text><line style="stroke: #919871; stroke-width: 1.5;" x1="202" x2="334" y1="313" y2="313"/><line style="stroke: #919871; stroke-width: 1.5;" x1="202" x2="334" y1="321" y2="321"/><rect fill="#EEEBDC" filter="url(#f1)" height="48" style="stroke: #919871; stroke-width: 1.5;" width="108" x="370" y="281"/><ellipse cx="385" cy="297" fill="#ADD1B2" rx="11" ry="11" style="stroke: #919871; stroke-width: 1.0;"/><path d="M387.3438,292.6719 C386.4063,292.2344 385.8125,292.0938 384.9375,292.0938 C382.3125,292.0938 380.3125,294.1719 380.3125,296.8906 L380.3125,298.0156 C380.3125,300.5938 382.4219,302.4844 385.3125,302.4844 C386.5313,302.4844 387.6875,302.1875 388.4375,301.6406 C389.0156,301.2344 389.3438,300.7813 389.3438,300.3906 C389.3438,299.9375 388.9531,299.5469 388.4844,299.5469 C388.2656,299.5469 388.0625,299.625 387.875,299.8125 C387.4219,300.2969 387.4219,300.2969 387.2344,300.3906 C386.8125,300.6563 386.125,300.7813 385.3594,300.7813 C383.3125,300.7813 382.0156,299.6875 382.0156,297.9844 L382.0156,296.8906 C382.0156,295.1094 383.2656,293.7969 385,293.7969 C385.5781,293.7969 386.1875,293.9531 386.6563,294.2031 C387.1406,294.4844 387.3125,294.7031 387.4063,295.1094 C387.4688,295.5156 387.5,295.6406 387.6406,295.7656 C387.7813,295.9063 388.0156,296.0156 388.2344,296.0156 C388.5,296.0156 388.7656,295.875 388.9375,295.6563 C389.0469,295.5 389.0781,295.3125 389.0781,294.8906 L389.0781,293.4688 C389.0781,293.0313 389.0625,292.9063 388.9688,292.75 C388.8125,292.4844 388.5313,292.3438 388.2344,292.3438 C387.9375,292.3438 387.7344,292.4375 387.5156,292.75 L387.3438,292.6719 Z "/><text fill="#000000" font-family="Arial" font-size="11" lengthAdjust="spacingAndGlyphs" textLength="76" x="399" y="300.674">GenericService</text><line style="stroke: #919871; stroke-width: 1.5;" x1="371" x2="477" y1="313" y2="313"/><line style="stroke: #919871; stroke-width: 1.5;" x1="371" x2="477" y1="321" y2="321"/><rect fill="#EEEBDC" filter="url(#f1)" height="48" style="stroke: #919871; stroke-width: 1.5;" width="135" x="513" y="281"/><ellipse cx="528" cy="297" fill="#ADD1B2" rx="11" ry="11" style="stroke: #919871; stroke-width: 1.0;"/><path d="M530.3438,292.6719 C529.4063,292.2344 528.8125,292.0938 527.9375,292.0938 C525.3125,292.0938 523.3125,294.1719 523.3125,296.8906 L523.3125,298.0156 C523.3125,300.5938 525.4219,302.4844 528.3125,302.4844 C529.5313,302.4844 530.6875,302.1875 531.4375,301.6406 C532.0156,301.2344 532.3438,300.7813 532.3438,300.3906 C532.3438,299.9375 531.9531,299.5469 531.4844,299.5469 C531.2656,299.5469 531.0625,299.625 530.875,299.8125 C530.4219,300.2969 530.4219,300.2969 530.2344,300.3906 C529.8125,300.6563 529.125,300.7813 528.3594,300.7813 C526.3125,300.7813 525.0156,299.6875 525.0156,297.9844 L525.0156,296.8906 C525.0156,295.1094 526.2656,293.7969 528,293.7969 C528.5781,293.7969 529.1875,293.9531 529.6563,294.2031 C530.1406,294.4844 530.3125,294.7031 530.4063,295.1094 C530.4688,295.5156 530.5,295.6406 530.6406,295.7656 C530.7813,295.9063 531.0156,296.0156 531.2344,296.0156 C531.5,296.0156 531.7656,295.875 531.9375,295.6563 C532.0469,295.5 532.0781,295.3125 532.0781,294.8906 L532.0781,293.4688 C532.0781,293.0313 532.0625,292.9063 531.9688,292.75 C531.8125,292.4844 531.5313,292.3438 531.2344,292.3438 C530.9375,292.3438 530.7344,292.4375 530.5156,292.75 L530.3438,292.6719 Z "/><text fill="#000000" font-family="Arial" font-size="11" lengthAdjust="spacingAndGlyphs" textLength="103" x="542" y="300.674">ExternalWpsProcess</text><line style="stroke: #919871; stroke-width: 1.5;" x1="514" x2="647" y1="313" y2="313"/><line style="stroke: #919871; stroke-width: 1.5;" x1="514" x2="647" y1="321" y2="321"/><rect fill="#EEEBDC" filter="url(#f1)" height="48" style="stroke: #919871; stroke-width: 1.5;" width="59" x="682" y="281"/><ellipse cx="697" cy="297" fill="#ADD1B2" rx="11" ry="11" style="stroke: #919871; stroke-width: 1.0;"/><path d="M699.3438,292.6719 C698.4063,292.2344 697.8125,292.0938 696.9375,292.0938 C694.3125,292.0938 692.3125,294.1719 692.3125,296.8906 L692.3125,298.0156 C692.3125,300.5938 694.4219,302.4844 697.3125,302.4844 C698.5313,302.4844 699.6875,302.1875 700.4375,301.6406 C701.0156,301.2344 701.3438,300.7813 701.3438,300.3906 C701.3438,299.9375 700.9531,299.5469 700.4844,299.5469 C700.2656,299.5469 700.0625,299.625 699.875,299.8125 C699.4219,300.2969 699.4219,300.2969 699.2344,300.3906 C698.8125,300.6563 698.125,300.7813 697.3594,300.7813 C695.3125,300.7813 694.0156,299.6875 694.0156,297.9844 L694.0156,296.8906 C694.0156,295.1094 695.2656,293.7969 697,293.7969 C697.5781,293.7969 698.1875,293.9531 698.6563,294.2031 C699.1406,294.4844 699.3125,294.7031 699.4063,295.1094 C699.4688,295.5156 699.5,295.6406 699.6406,295.7656 C699.7813,295.9063 700.0156,296.0156 700.2344,296.0156 C700.5,296.0156 700.7656,295.875 700.9375,295.6563 C701.0469,295.5 701.0781,295.3125 701.0781,294.8906 L701.0781,293.4688 C701.0781,293.0313 701.0625,292.9063 700.9688,292.75 C700.8125,292.4844 700.5313,292.3438 700.2344,292.3438 C699.9375,292.3438 699.7344,292.4375 699.5156,292.75 L699.3438,292.6719 Z "/><text fill="#000000" font-family="Arial" font-size="11" lengthAdjust="spacingAndGlyphs" textLength="27" x="711" y="300.674">Entity</text><line style="stroke: #919871; stroke-width: 1.5;" x1="683" x2="740" y1="313" y2="313"/><line style="stroke: #919871; stroke-width: 1.5;" x1="683" x2="740" y1="321" y2="321"/><path d="M326.953,183.442 C274.104,212 210.276,246.49 164.131,271.4262 " fill="none" style="stroke: #000000; stroke-width: 1.0;"/><polygon fill="none" points="167.371,277.6319,146.448,280.9816,160.715,265.3151,167.371,277.6319" style="stroke: #000000; stroke-width: 1.0;"/><text fill="#000000" font-family="Arial" font-size="11" lengthAdjust="spacingAndGlyphs" textLength="55" x="226" y="246.4829">implements</text><path d="M358.068,204.539 C339.255,225.524 319.481,247.579 303.27,265.6606 " fill="none" style="stroke: #000000; stroke-width: 1.0;"/><polygon fill="none" points="308.347,270.4838,289.784,280.7023,297.923,261.1381,308.347,270.4838" style="stroke: #000000; stroke-width: 1.0;"/><text fill="#000000" font-family="Arial" font-size="11" lengthAdjust="spacingAndGlyphs" textLength="55" x="329" y="246.4829">implements</text><path d="M424,204.539 C424,223.606 424,243.557 424,260.608 " fill="none" style="stroke: #000000; stroke-width: 1.0;"/><polygon fill="none" points="431,260.702,424,280.7023,417,260.702,431,260.702" style="stroke: #000000; stroke-width: 1.0;"/><text fill="#000000" font-family="Arial" font-size="11" lengthAdjust="spacingAndGlyphs" textLength="55" x="425" y="246.4829">implements</text><path d="M489.932,204.539 C508.745,225.524 528.519,247.579 544.73,265.6606 " fill="none" style="stroke: #000000; stroke-width: 1.0;"/><polygon fill="none" points="550.077,261.1381,558.216,280.7023,539.653,270.4838,550.077,261.1381" style="stroke: #000000; stroke-width: 1.0;"/><text fill="#000000" font-family="Arial" font-size="11" lengthAdjust="spacingAndGlyphs" textLength="55" x="530" y="246.4829">implements</text><path d="M521.165,189.908 C569.629,219.291 625.991,253.461 664.637,276.8914 " fill="none" style="stroke: #000000; stroke-width: 1.0;"/><polygon fill="none" points="668.345,270.9534,681.818,287.3079,661.087,282.925,668.345,270.9534" style="stroke: #000000; stroke-width: 1.0;"/><text fill="#000000" font-family="Arial" font-size="11" lengthAdjust="spacingAndGlyphs" textLength="55" x="619" y="246.4829">implements</text></g></svg>