<?xml version="1.0" encoding="UTF-8" standalone="yes"?><svg xmlns="http://www.w3.org/2000/svg" xmlns:xlink="http://www.w3.org/1999/xlink" height="1169pt" style="width:2874px;height:1169px;" version="1.1" viewBox="0 0 2874 1169" width="2874pt"><defs><filter height="300%" id="f1" width="300%" x="-1" y="-1"><feGaussianBlur result="blurOut" stdDeviation="2.0"/><feColorMatrix in="blurOut" result="blurOut2" type="matrix" values="0 0 0 0 0 0 0 0 0 0 0 0 0 0 0 0 0 0 .4 0"/><feOffset dx="4.0" dy="4.0" in="blurOut2" result="blurOut3"/><feBlend in="SourceGraphic" in2="blurOut3" mode="normal"/></filter></defs><g><polygon fill="#FFFFFF" filter="url(#f1)" points="22,24,107,24,114,43.6179,2867,43.6179,2867,1133,22,1133,22,24" style="stroke: #000000; stroke-width: 2.0;"/><line style="stroke: #000000; stroke-width: 2.0;" x1="22" x2="114" y1="43.6179" y2="43.6179"/><text fill="#000000" font-family="Arial" font-size="11" lengthAdjust="spacingAndGlyphs" textLength="79" x="25" y="37.4829">Terradue::Portal</text><a target="_top" xlink:href="../information/classes/class_terradue_1_1_portal_1_1_entity.html" xlink:title="../information/classes/class_terradue_1_1_portal_1_1_entity.html"><rect fill="#EEEBDC" filter="url(#f1)" height="147.0399" style="stroke: #919871; stroke-width: 1.5;" width="196" x="1236" y="969.5"/><ellipse cx="1316.25" cy="985.5" fill="#ADD1B2" rx="11" ry="11" style="stroke: #919871; stroke-width: 1.0;"/><path d="M1318.5938,981.1719 C1317.6563,980.7344 1317.0625,980.5938 1316.1875,980.5938 C1313.5625,980.5938 1311.5625,982.6719 1311.5625,985.3906 L1311.5625,986.5156 C1311.5625,989.0938 1313.6719,990.9844 1316.5625,990.9844 C1317.7813,990.9844 1318.9375,990.6875 1319.6875,990.1406 C1320.2656,989.7344 1320.5938,989.2813 1320.5938,988.8906 C1320.5938,988.4375 1320.2031,988.0469 1319.7344,988.0469 C1319.5156,988.0469 1319.3125,988.125 1319.125,988.3125 C1318.6719,988.7969 1318.6719,988.7969 1318.4844,988.8906 C1318.0625,989.1563 1317.375,989.2813 1316.6094,989.2813 C1314.5625,989.2813 1313.2656,988.1875 1313.2656,986.4844 L1313.2656,985.3906 C1313.2656,983.6094 1314.5156,982.2969 1316.25,982.2969 C1316.8281,982.2969 1317.4375,982.4531 1317.9063,982.7031 C1318.3906,982.9844 1318.5625,983.2031 1318.6563,983.6094 C1318.7188,984.0156 1318.75,984.1406 1318.8906,984.2656 C1319.0313,984.4063 1319.2656,984.5156 1319.4844,984.5156 C1319.75,984.5156 1320.0156,984.375 1320.1875,984.1563 C1320.2969,984 1320.3281,983.8125 1320.3281,983.3906 L1320.3281,981.9688 C1320.3281,981.5313 1320.3125,981.4063 1320.2188,981.25 C1320.0625,980.9844 1319.7813,980.8438 1319.4844,980.8438 C1319.1875,980.8438 1318.9844,980.9375 1318.7656,981.25 L1318.5938,981.1719 Z "/><text fill="#000000" font-family="Arial" font-size="11" lengthAdjust="spacingAndGlyphs" textLength="27" x="1336.75" y="989.174">Entity</text><line style="stroke: #919871; stroke-width: 1.5;" x1="1237" x2="1431" y1="1001.5" y2="1001.5"/><ellipse cx="1247" cy="1012.69" fill="none" rx="3" ry="3" style="stroke: #038048; stroke-width: 1.0;"/><text fill="#000000" font-family="Arial" font-size="10" lengthAdjust="spacingAndGlyphs" textLength="68" x="1256" y="1015.03">Identifier:string</text><ellipse cx="1247" cy="1025.07" fill="none" rx="3" ry="3" style="stroke: #038048; stroke-width: 1.0;"/><text fill="#000000" font-family="Arial" font-size="10" lengthAdjust="spacingAndGlyphs" textLength="55" x="1256" y="1027.41">Name:string</text><line style="stroke: #919871; stroke-width: 1.5;" x1="1237" x2="1431" y1="1034.26" y2="1034.26"/><ellipse cx="1247" cy="1045.45" fill="#84BE84" rx="3" ry="3" style="stroke: #038048; stroke-width: 1.0;"/><text fill="#000000" font-family="Arial" font-size="10" lengthAdjust="spacingAndGlyphs" textLength="30" x="1256" y="1047.79">Load()</text><ellipse cx="1247" cy="1057.83" fill="#84BE84" rx="3" ry="3" style="stroke: #038048; stroke-width: 1.0;"/><text fill="#000000" font-family="Arial" font-size="10" lengthAdjust="spacingAndGlyphs" textLength="31" x="1256" y="1060.17">Store()</text><ellipse cx="1247" cy="1070.2099" fill="#84BE84" rx="3" ry="3" style="stroke: #038048; stroke-width: 1.0;"/><text fill="#000000" font-family="Arial" font-size="10" lengthAdjust="spacingAndGlyphs" textLength="105" x="1256" y="1072.5499">StoreGlobalPrivileges()</text><ellipse cx="1247" cy="1082.5899" fill="#84BE84" rx="3" ry="3" style="stroke: #038048; stroke-width: 1.0;"/><text fill="#000000" font-family="Arial" font-size="10" lengthAdjust="spacingAndGlyphs" textLength="118" x="1256" y="1084.9299">RemoveGlobalPrivileges()</text><ellipse cx="1247" cy="1094.9699" fill="#84BE84" rx="3" ry="3" style="stroke: #038048; stroke-width: 1.0;"/><text fill="#000000" font-family="Arial" font-size="10" lengthAdjust="spacingAndGlyphs" textLength="36" x="1256" y="1097.3099">Delete()</text><ellipse cx="1247" cy="1107.3499" fill="#84BE84" rx="3" ry="3" style="stroke: #038048; stroke-width: 1.0;"/><text fill="#000000" font-family="Arial" font-size="10" lengthAdjust="spacingAndGlyphs" textLength="170" x="1256" y="1109.6899">GetAllowedAdministratorOperations()</text></a><a target="_top" xlink:href="../information/classes/class_terradue_1_1_portal_1_1_remote_resource.html" xlink:title="../information/classes/class_terradue_1_1_portal_1_1_remote_resource.html"><rect fill="#EEEBDC" filter="url(#f1)" height="72.76" style="stroke: #919871; stroke-width: 1.5;" width="118" x="2345" y="535.5"/><ellipse cx="2360" cy="551.5" fill="#ADD1B2" rx="11" ry="11" style="stroke: #919871; stroke-width: 1.0;"/><path d="M2362.3438,547.1719 C2361.4063,546.7344 2360.8125,546.5938 2359.9375,546.5938 C2357.3125,546.5938 2355.3125,548.6719 2355.3125,551.3906 L2355.3125,552.5156 C2355.3125,555.0938 2357.4219,556.9844 2360.3125,556.9844 C2361.5313,556.9844 2362.6875,556.6875 2363.4375,556.1406 C2364.0156,555.7344 2364.3438,555.2813 2364.3438,554.8906 C2364.3438,554.4375 2363.9531,554.0469 2363.4844,554.0469 C2363.2656,554.0469 2363.0625,554.125 2362.875,554.3125 C2362.4219,554.7969 2362.4219,554.7969 2362.2344,554.8906 C2361.8125,555.1563 2361.125,555.2813 2360.3594,555.2813 C2358.3125,555.2813 2357.0156,554.1875 2357.0156,552.4844 L2357.0156,551.3906 C2357.0156,549.6094 2358.2656,548.2969 2360,548.2969 C2360.5781,548.2969 2361.1875,548.4531 2361.6563,548.7031 C2362.1406,548.9844 2362.3125,549.2031 2362.4063,549.6094 C2362.4688,550.0156 2362.5,550.1406 2362.6406,550.2656 C2362.7813,550.4063 2363.0156,550.5156 2363.2344,550.5156 C2363.5,550.5156 2363.7656,550.375 2363.9375,550.1563 C2364.0469,550 2364.0781,549.8125 2364.0781,549.3906 L2364.0781,547.9688 C2364.0781,547.5313 2364.0625,547.4063 2363.9688,547.25 C2363.8125,546.9844 2363.5313,546.8438 2363.2344,546.8438 C2362.9375,546.8438 2362.7344,546.9375 2362.5156,547.25 L2362.3438,547.1719 Z "/><text fill="#000000" font-family="Arial" font-size="11" lengthAdjust="spacingAndGlyphs" textLength="86" x="2374" y="555.174">RemoteResource</text><line style="stroke: #919871; stroke-width: 1.5;" x1="2346" x2="2462" y1="567.5" y2="567.5"/><ellipse cx="2356" cy="578.69" fill="none" rx="3" ry="3" style="stroke: #038048; stroke-width: 1.0;"/><text fill="#000000" font-family="Arial" font-size="10" lengthAdjust="spacingAndGlyphs" textLength="68" x="2365" y="581.03">Location:string</text><ellipse cx="2356" cy="591.07" fill="none" rx="3" ry="3" style="stroke: #038048; stroke-width: 1.0;"/><text fill="#000000" font-family="Arial" font-size="10" lengthAdjust="spacingAndGlyphs" textLength="68" x="2365" y="593.41">Location:string</text><line style="stroke: #919871; stroke-width: 1.5;" x1="2346" x2="2462" y1="600.26" y2="600.26"/></a><a target="_top" xlink:href="../information/classes/class_terradue_1_1_portal_1_1_remote_resource_set.html" xlink:title="../information/classes/class_terradue_1_1_portal_1_1_remote_resource_set.html"><rect fill="#EEEBDC" filter="url(#f1)" height="85.14" style="stroke: #919871; stroke-width: 1.5;" width="213" x="2471" y="757"/><ellipse cx="2522.25" cy="773" fill="#ADD1B2" rx="11" ry="11" style="stroke: #919871; stroke-width: 1.0;"/><path d="M2524.5938,768.6719 C2523.6563,768.2344 2523.0625,768.0938 2522.1875,768.0938 C2519.5625,768.0938 2517.5625,770.1719 2517.5625,772.8906 L2517.5625,774.0156 C2517.5625,776.5938 2519.6719,778.4844 2522.5625,778.4844 C2523.7813,778.4844 2524.9375,778.1875 2525.6875,777.6406 C2526.2656,777.2344 2526.5938,776.7813 2526.5938,776.3906 C2526.5938,775.9375 2526.2031,775.5469 2525.7344,775.5469 C2525.5156,775.5469 2525.3125,775.625 2525.125,775.8125 C2524.6719,776.2969 2524.6719,776.2969 2524.4844,776.3906 C2524.0625,776.6563 2523.375,776.7813 2522.6094,776.7813 C2520.5625,776.7813 2519.2656,775.6875 2519.2656,773.9844 L2519.2656,772.8906 C2519.2656,771.1094 2520.5156,769.7969 2522.25,769.7969 C2522.8281,769.7969 2523.4375,769.9531 2523.9063,770.2031 C2524.3906,770.4844 2524.5625,770.7031 2524.6563,771.1094 C2524.7188,771.5156 2524.75,771.6406 2524.8906,771.7656 C2525.0313,771.9063 2525.2656,772.0156 2525.4844,772.0156 C2525.75,772.0156 2526.0156,771.875 2526.1875,771.6563 C2526.2969,771.5 2526.3281,771.3125 2526.3281,770.8906 L2526.3281,769.4688 C2526.3281,769.0313 2526.3125,768.9063 2526.2188,768.75 C2526.0625,768.4844 2525.7813,768.3438 2525.4844,768.3438 C2525.1875,768.3438 2524.9844,768.4375 2524.7656,768.75 L2524.5938,768.6719 Z "/><text fill="#000000" font-family="Arial" font-size="11" lengthAdjust="spacingAndGlyphs" textLength="102" x="2542.75" y="776.674">RemoteResourceSet</text><line style="stroke: #919871; stroke-width: 1.5;" x1="2472" x2="2683" y1="789" y2="789"/><ellipse cx="2482" cy="800.19" fill="none" rx="3" ry="3" style="stroke: #038048; stroke-width: 1.0;"/><text fill="#000000" font-family="Arial" font-size="10" lengthAdjust="spacingAndGlyphs" textLength="79" x="2491" y="802.53">AccessKey:string</text><ellipse cx="2482" cy="812.57" fill="none" rx="3" ry="3" style="stroke: #038048; stroke-width: 1.0;"/><text fill="#000000" font-family="Arial" font-size="10" lengthAdjust="spacingAndGlyphs" textLength="100" x="2491" y="814.91">Resources:EntityList&lt;</text><ellipse cx="2482" cy="824.95" fill="none" rx="3" ry="3" style="stroke: #038048; stroke-width: 1.0;"/><text fill="#000000" font-family="Arial" font-size="10" lengthAdjust="spacingAndGlyphs" textLength="187" x="2491" y="827.29">OpenSearchEngine:OpenSearchEngine</text><line style="stroke: #919871; stroke-width: 1.5;" x1="2472" x2="2683" y1="834.14" y2="834.14"/></a><a target="_top" xlink:href="../information/classes/class_terradue_1_1_portal_1_1_article.html" xlink:title="../information/classes/class_terradue_1_1_portal_1_1_article.html"><rect fill="#EEEBDC" filter="url(#f1)" height="134.6599" style="stroke: #919871; stroke-width: 1.5;" width="95" x="1395" y="731.5"/><ellipse cx="1424.85" cy="747.5" fill="#ADD1B2" rx="11" ry="11" style="stroke: #919871; stroke-width: 1.0;"/><path d="M1427.1938,743.1719 C1426.2563,742.7344 1425.6625,742.5938 1424.7875,742.5938 C1422.1625,742.5938 1420.1625,744.6719 1420.1625,747.3906 L1420.1625,748.5156 C1420.1625,751.0938 1422.2719,752.9844 1425.1625,752.9844 C1426.3813,752.9844 1427.5375,752.6875 1428.2875,752.1406 C1428.8656,751.7344 1429.1938,751.2813 1429.1938,750.8906 C1429.1938,750.4375 1428.8031,750.0469 1428.3344,750.0469 C1428.1156,750.0469 1427.9125,750.125 1427.725,750.3125 C1427.2719,750.7969 1427.2719,750.7969 1427.0844,750.8906 C1426.6625,751.1563 1425.975,751.2813 1425.2094,751.2813 C1423.1625,751.2813 1421.8656,750.1875 1421.8656,748.4844 L1421.8656,747.3906 C1421.8656,745.6094 1423.1156,744.2969 1424.85,744.2969 C1425.4281,744.2969 1426.0375,744.4531 1426.5063,744.7031 C1426.9906,744.9844 1427.1625,745.2031 1427.2563,745.6094 C1427.3188,746.0156 1427.35,746.1406 1427.4906,746.2656 C1427.6313,746.4063 1427.8656,746.5156 1428.0844,746.5156 C1428.35,746.5156 1428.6156,746.375 1428.7875,746.1563 C1428.8969,746 1428.9281,745.8125 1428.9281,745.3906 L1428.9281,743.9688 C1428.9281,743.5313 1428.9125,743.4063 1428.8188,743.25 C1428.6625,742.9844 1428.3813,742.8438 1428.0844,742.8438 C1427.7875,742.8438 1427.5844,742.9375 1427.3656,743.25 L1427.1938,743.1719 Z "/><text fill="#000000" font-family="Arial" font-size="11" lengthAdjust="spacingAndGlyphs" textLength="30" x="1442.15" y="751.174">Article</text><line style="stroke: #919871; stroke-width: 1.5;" x1="1396" x2="1489" y1="763.5" y2="763.5"/><ellipse cx="1406" cy="774.69" fill="none" rx="3" ry="3" style="stroke: #038048; stroke-width: 1.0;"/><text fill="#000000" font-family="Arial" font-size="10" lengthAdjust="spacingAndGlyphs" textLength="47" x="1415" y="777.03">Title:string</text><ellipse cx="1406" cy="787.07" fill="none" rx="3" ry="3" style="stroke: #038048; stroke-width: 1.0;"/><text fill="#000000" font-family="Arial" font-size="10" lengthAdjust="spacingAndGlyphs" textLength="66" x="1415" y="789.41">Abstract:string</text><ellipse cx="1406" cy="799.45" fill="none" rx="3" ry="3" style="stroke: #038048; stroke-width: 1.0;"/><text fill="#000000" font-family="Arial" font-size="10" lengthAdjust="spacingAndGlyphs" textLength="65" x="1415" y="801.79">Content:string</text><ellipse cx="1406" cy="811.83" fill="none" rx="3" ry="3" style="stroke: #038048; stroke-width: 1.0;"/><text fill="#000000" font-family="Arial" font-size="10" lengthAdjust="spacingAndGlyphs" textLength="69" x="1415" y="814.17">Time:DateTime</text><ellipse cx="1406" cy="824.2099" fill="none" rx="3" ry="3" style="stroke: #038048; stroke-width: 1.0;"/><text fill="#000000" font-family="Arial" font-size="10" lengthAdjust="spacingAndGlyphs" textLength="40" x="1415" y="826.5499">Url:string</text><ellipse cx="1406" cy="836.5899" fill="none" rx="3" ry="3" style="stroke: #038048; stroke-width: 1.0;"/><text fill="#000000" font-family="Arial" font-size="10" lengthAdjust="spacingAndGlyphs" textLength="59" x="1415" y="838.9299">Author:string</text><ellipse cx="1406" cy="848.9699" fill="none" rx="3" ry="3" style="stroke: #038048; stroke-width: 1.0;"/><text fill="#000000" font-family="Arial" font-size="10" lengthAdjust="spacingAndGlyphs" textLength="51" x="1415" y="851.3099">Tags:string</text><line style="stroke: #919871; stroke-width: 1.5;" x1="1396" x2="1489" y1="858.1599" y2="858.1599"/></a><a target="_top" xlink:href="../information/classes/class_terradue_1_1_portal_1_1_authentication_type.html" xlink:title="../information/classes/class_terradue_1_1_portal_1_1_authentication_type.html"><rect fill="#EEEBDC" filter="url(#f1)" height="85.14" style="stroke: #919871; stroke-width: 1.5;" width="222" x="1138" y="756.5"/><ellipse cx="1198.25" cy="772.5" fill="#ADD1B2" rx="11" ry="11" style="stroke: #919871; stroke-width: 1.0;"/><path d="M1200.5938,768.1719 C1199.6563,767.7344 1199.0625,767.5938 1198.1875,767.5938 C1195.5625,767.5938 1193.5625,769.6719 1193.5625,772.3906 L1193.5625,773.5156 C1193.5625,776.0938 1195.6719,777.9844 1198.5625,777.9844 C1199.7813,777.9844 1200.9375,777.6875 1201.6875,777.1406 C1202.2656,776.7344 1202.5938,776.2813 1202.5938,775.8906 C1202.5938,775.4375 1202.2031,775.0469 1201.7344,775.0469 C1201.5156,775.0469 1201.3125,775.125 1201.125,775.3125 C1200.6719,775.7969 1200.6719,775.7969 1200.4844,775.8906 C1200.0625,776.1563 1199.375,776.2813 1198.6094,776.2813 C1196.5625,776.2813 1195.2656,775.1875 1195.2656,773.4844 L1195.2656,772.3906 C1195.2656,770.6094 1196.5156,769.2969 1198.25,769.2969 C1198.8281,769.2969 1199.4375,769.4531 1199.9063,769.7031 C1200.3906,769.9844 1200.5625,770.2031 1200.6563,770.6094 C1200.7188,771.0156 1200.75,771.1406 1200.8906,771.2656 C1201.0313,771.4063 1201.2656,771.5156 1201.4844,771.5156 C1201.75,771.5156 1202.0156,771.375 1202.1875,771.1563 C1202.2969,771 1202.3281,770.8125 1202.3281,770.3906 L1202.3281,768.9688 C1202.3281,768.5313 1202.3125,768.4063 1202.2188,768.25 C1202.0625,767.9844 1201.7813,767.8438 1201.4844,767.8438 C1201.1875,767.8438 1200.9844,767.9375 1200.7656,768.25 L1200.5938,768.1719 Z "/><text fill="#000000" font-family="Arial" font-size="11" lengthAdjust="spacingAndGlyphs" textLength="93" x="1218.75" y="776.174">AuthenticationType</text><line style="stroke: #919871; stroke-width: 1.5;" x1="1139" x2="1359" y1="788.5" y2="788.5"/><ellipse cx="1149" cy="799.69" fill="none" rx="3" ry="3" style="stroke: #038048; stroke-width: 1.0;"/><text fill="#000000" font-family="Arial" font-size="10" lengthAdjust="spacingAndGlyphs" textLength="189" x="1158" y="802.03">NormalAccountRule:RuleApplicationType</text><ellipse cx="1149" cy="812.07" fill="none" rx="3" ry="3" style="stroke: #038048; stroke-width: 1.0;"/><text fill="#000000" font-family="Arial" font-size="10" lengthAdjust="spacingAndGlyphs" textLength="155" x="1158" y="814.41">ExternalSessionRefreshPeriod:int</text><ellipse cx="1149" cy="824.45" fill="none" rx="3" ry="3" style="stroke: #038048; stroke-width: 1.0;"/><text fill="#000000" font-family="Arial" font-size="10" lengthAdjust="spacingAndGlyphs" textLength="196" x="1158" y="826.79">UsesExternalIdentityProvider:abstract bool</text><line style="stroke: #919871; stroke-width: 1.5;" x1="1139" x2="1359" y1="833.64" y2="833.64"/></a><a target="_top" xlink:href="../information/classes/class_terradue_1_1_portal_1_1_catalogue.html" xlink:title="../information/classes/class_terradue_1_1_portal_1_1_catalogue.html"><rect fill="#EEEBDC" filter="url(#f1)" height="85.14" style="stroke: #919871; stroke-width: 1.5;" width="176" x="1677" y="757"/><ellipse cx="1736.25" cy="773" fill="#ADD1B2" rx="11" ry="11" style="stroke: #919871; stroke-width: 1.0;"/><path d="M1738.5938,768.6719 C1737.6563,768.2344 1737.0625,768.0938 1736.1875,768.0938 C1733.5625,768.0938 1731.5625,770.1719 1731.5625,772.8906 L1731.5625,774.0156 C1731.5625,776.5938 1733.6719,778.4844 1736.5625,778.4844 C1737.7813,778.4844 1738.9375,778.1875 1739.6875,777.6406 C1740.2656,777.2344 1740.5938,776.7813 1740.5938,776.3906 C1740.5938,775.9375 1740.2031,775.5469 1739.7344,775.5469 C1739.5156,775.5469 1739.3125,775.625 1739.125,775.8125 C1738.6719,776.2969 1738.6719,776.2969 1738.4844,776.3906 C1738.0625,776.6563 1737.375,776.7813 1736.6094,776.7813 C1734.5625,776.7813 1733.2656,775.6875 1733.2656,773.9844 L1733.2656,772.8906 C1733.2656,771.1094 1734.5156,769.7969 1736.25,769.7969 C1736.8281,769.7969 1737.4375,769.9531 1737.9063,770.2031 C1738.3906,770.4844 1738.5625,770.7031 1738.6563,771.1094 C1738.7188,771.5156 1738.75,771.6406 1738.8906,771.7656 C1739.0313,771.9063 1739.2656,772.0156 1739.4844,772.0156 C1739.75,772.0156 1740.0156,771.875 1740.1875,771.6563 C1740.2969,771.5 1740.3281,771.3125 1740.3281,770.8906 L1740.3281,769.4688 C1740.3281,769.0313 1740.3125,768.9063 1740.2188,768.75 C1740.0625,768.4844 1739.7813,768.3438 1739.4844,768.3438 C1739.1875,768.3438 1738.9844,768.4375 1738.7656,768.75 L1738.5938,768.6719 Z "/><text fill="#000000" font-family="Arial" font-size="11" lengthAdjust="spacingAndGlyphs" textLength="49" x="1756.75" y="776.674">Catalogue</text><line style="stroke: #919871; stroke-width: 1.5;" x1="1678" x2="1852" y1="789" y2="789"/><ellipse cx="1688" cy="800.19" fill="none" rx="3" ry="3" style="stroke: #038048; stroke-width: 1.0;"/><text fill="#000000" font-family="Arial" font-size="10" lengthAdjust="spacingAndGlyphs" textLength="150" x="1697" y="802.53">OpenSearchDescriptionUrl:string</text><ellipse cx="1688" cy="812.57" fill="none" rx="3" ry="3" style="stroke: #038048; stroke-width: 1.0;"/><text fill="#000000" font-family="Arial" font-size="10" lengthAdjust="spacingAndGlyphs" textLength="64" x="1697" y="814.91">BaseUrl:string</text><ellipse cx="1688" cy="824.95" fill="none" rx="3" ry="3" style="stroke: #038048; stroke-width: 1.0;"/><text fill="#000000" font-family="Arial" font-size="10" lengthAdjust="spacingAndGlyphs" textLength="112" x="1697" y="827.29">SeriesIngestionUrl:string</text><line style="stroke: #919871; stroke-width: 1.5;" x1="1678" x2="1852" y1="834.14" y2="834.14"/></a><a target="_top" xlink:href="../information/classes/class_terradue_1_1_portal_1_1_computing_resource.html" xlink:title="../information/classes/class_terradue_1_1_portal_1_1_computing_resource.html"><rect fill="#EEEBDC" filter="url(#f1)" height="147.0399" style="stroke: #919871; stroke-width: 1.5;" width="132" x="416" y="726"/><ellipse cx="431" cy="742" fill="#ADD1B2" rx="11" ry="11" style="stroke: #919871; stroke-width: 1.0;"/><path d="M433.3438,737.6719 C432.4063,737.2344 431.8125,737.0938 430.9375,737.0938 C428.3125,737.0938 426.3125,739.1719 426.3125,741.8906 L426.3125,743.0156 C426.3125,745.5938 428.4219,747.4844 431.3125,747.4844 C432.5313,747.4844 433.6875,747.1875 434.4375,746.6406 C435.0156,746.2344 435.3438,745.7813 435.3438,745.3906 C435.3438,744.9375 434.9531,744.5469 434.4844,744.5469 C434.2656,744.5469 434.0625,744.625 433.875,744.8125 C433.4219,745.2969 433.4219,745.2969 433.2344,745.3906 C432.8125,745.6563 432.125,745.7813 431.3594,745.7813 C429.3125,745.7813 428.0156,744.6875 428.0156,742.9844 L428.0156,741.8906 C428.0156,740.1094 429.2656,738.7969 431,738.7969 C431.5781,738.7969 432.1875,738.9531 432.6563,739.2031 C433.1406,739.4844 433.3125,739.7031 433.4063,740.1094 C433.4688,740.5156 433.5,740.6406 433.6406,740.7656 C433.7813,740.9063 434.0156,741.0156 434.2344,741.0156 C434.5,741.0156 434.7656,740.875 434.9375,740.6563 C435.0469,740.5 435.0781,740.3125 435.0781,739.8906 L435.0781,738.4688 C435.0781,738.0313 435.0625,737.9063 434.9688,737.75 C434.8125,737.4844 434.5313,737.3438 434.2344,737.3438 C433.9375,737.3438 433.7344,737.4375 433.5156,737.75 L433.3438,737.6719 Z "/><text fill="#000000" font-family="Arial" font-size="11" lengthAdjust="spacingAndGlyphs" textLength="100" x="445" y="745.674">ComputingResource</text><line style="stroke: #919871; stroke-width: 1.5;" x1="417" x2="547" y1="758" y2="758"/><ellipse cx="427" cy="769.19" fill="none" rx="3" ry="3" style="stroke: #038048; stroke-width: 1.0;"/><text fill="#000000" font-family="Arial" font-size="10" lengthAdjust="spacingAndGlyphs" textLength="73" x="436" y="771.53">IsAvailable:bool</text><ellipse cx="427" cy="781.57" fill="none" rx="3" ry="3" style="stroke: #038048; stroke-width: 1.0;"/><text fill="#000000" font-family="Arial" font-size="10" lengthAdjust="spacingAndGlyphs" textLength="79" x="436" y="783.91">Description:string</text><ellipse cx="427" cy="793.95" fill="none" rx="3" ry="3" style="stroke: #038048; stroke-width: 1.0;"/><text fill="#000000" font-family="Arial" font-size="10" lengthAdjust="spacingAndGlyphs" textLength="75" x="436" y="796.29">Hostname:string</text><ellipse cx="427" cy="806.33" fill="none" rx="3" ry="3" style="stroke: #038048; stroke-width: 1.0;"/><text fill="#000000" font-family="Arial" font-size="10" lengthAdjust="spacingAndGlyphs" textLength="73" x="436" y="808.67">MaxCapacity:int</text><ellipse cx="427" cy="818.7099" fill="none" rx="3" ry="3" style="stroke: #038048; stroke-width: 1.0;"/><text fill="#000000" font-family="Arial" font-size="10" lengthAdjust="spacingAndGlyphs" textLength="77" x="436" y="821.0499">TotalCapacity:int</text><ellipse cx="427" cy="831.0899" fill="none" rx="3" ry="3" style="stroke: #038048; stroke-width: 1.0;"/><text fill="#000000" font-family="Arial" font-size="10" lengthAdjust="spacingAndGlyphs" textLength="75" x="436" y="833.4299">FreeCapacity:int</text><ellipse cx="427" cy="843.4699" fill="none" rx="3" ry="3" style="stroke: #038048; stroke-width: 1.0;"/><text fill="#000000" font-family="Arial" font-size="10" lengthAdjust="spacingAndGlyphs" textLength="104" x="436" y="845.8099">UserCreditControl:bool</text><line style="stroke: #919871; stroke-width: 1.5;" x1="417" x2="547" y1="852.6599" y2="852.6599"/><ellipse cx="427" cy="863.8499" fill="#84BE84" rx="3" ry="3" style="stroke: #038048; stroke-width: 1.0;"/><text fill="#000000" font-family="Arial" font-size="10" lengthAdjust="spacingAndGlyphs" textLength="53" x="436" y="866.1899">GetStatus()</text></a><a target="_top" xlink:href="../information/classes/class_terradue_1_1_portal_1_1_configuration.html" xlink:title="../information/classes/class_terradue_1_1_portal_1_1_configuration.html"><rect fill="#EEEBDC" filter="url(#f1)" height="48" style="stroke: #919871; stroke-width: 1.5;" width="96" x="1007" y="775"/><ellipse cx="1022" cy="791" fill="#ADD1B2" rx="11" ry="11" style="stroke: #919871; stroke-width: 1.0;"/><path d="M1024.3438,786.6719 C1023.4063,786.2344 1022.8125,786.0938 1021.9375,786.0938 C1019.3125,786.0938 1017.3125,788.1719 1017.3125,790.8906 L1017.3125,792.0156 C1017.3125,794.5938 1019.4219,796.4844 1022.3125,796.4844 C1023.5313,796.4844 1024.6875,796.1875 1025.4375,795.6406 C1026.0156,795.2344 1026.3438,794.7813 1026.3438,794.3906 C1026.3438,793.9375 1025.9531,793.5469 1025.4844,793.5469 C1025.2656,793.5469 1025.0625,793.625 1024.875,793.8125 C1024.4219,794.2969 1024.4219,794.2969 1024.2344,794.3906 C1023.8125,794.6563 1023.125,794.7813 1022.3594,794.7813 C1020.3125,794.7813 1019.0156,793.6875 1019.0156,791.9844 L1019.0156,790.8906 C1019.0156,789.1094 1020.2656,787.7969 1022,787.7969 C1022.5781,787.7969 1023.1875,787.9531 1023.6563,788.2031 C1024.1406,788.4844 1024.3125,788.7031 1024.4063,789.1094 C1024.4688,789.5156 1024.5,789.6406 1024.6406,789.7656 C1024.7813,789.9063 1025.0156,790.0156 1025.2344,790.0156 C1025.5,790.0156 1025.7656,789.875 1025.9375,789.6563 C1026.0469,789.5 1026.0781,789.3125 1026.0781,788.8906 L1026.0781,787.4688 C1026.0781,787.0313 1026.0625,786.9063 1025.9688,786.75 C1025.8125,786.4844 1025.5313,786.3438 1025.2344,786.3438 C1024.9375,786.3438 1024.7344,786.4375 1024.5156,786.75 L1024.3438,786.6719 Z "/><text fill="#000000" font-family="Arial" font-size="11" lengthAdjust="spacingAndGlyphs" textLength="64" x="1036" y="794.674">Configuration</text><line style="stroke: #919871; stroke-width: 1.5;" x1="1008" x2="1102" y1="807" y2="807"/><line style="stroke: #919871; stroke-width: 1.5;" x1="1008" x2="1102" y1="815" y2="815"/></a><a target="_top" xlink:href="../information/classes/class_terradue_1_1_portal_1_1_data_set.html" xlink:title="../information/classes/class_terradue_1_1_portal_1_1_data_set.html"><rect fill="#EEEBDC" filter="url(#f1)" height="48" style="stroke: #919871; stroke-width: 1.5;" width="71" x="902" y="775"/><ellipse cx="917" cy="791" fill="#ADD1B2" rx="11" ry="11" style="stroke: #919871; stroke-width: 1.0;"/><path d="M919.3438,786.6719 C918.4063,786.2344 917.8125,786.0938 916.9375,786.0938 C914.3125,786.0938 912.3125,788.1719 912.3125,790.8906 L912.3125,792.0156 C912.3125,794.5938 914.4219,796.4844 917.3125,796.4844 C918.5313,796.4844 919.6875,796.1875 920.4375,795.6406 C921.0156,795.2344 921.3438,794.7813 921.3438,794.3906 C921.3438,793.9375 920.9531,793.5469 920.4844,793.5469 C920.2656,793.5469 920.0625,793.625 919.875,793.8125 C919.4219,794.2969 919.4219,794.2969 919.2344,794.3906 C918.8125,794.6563 918.125,794.7813 917.3594,794.7813 C915.3125,794.7813 914.0156,793.6875 914.0156,791.9844 L914.0156,790.8906 C914.0156,789.1094 915.2656,787.7969 917,787.7969 C917.5781,787.7969 918.1875,787.9531 918.6563,788.2031 C919.1406,788.4844 919.3125,788.7031 919.4063,789.1094 C919.4688,789.5156 919.5,789.6406 919.6406,789.7656 C919.7813,789.9063 920.0156,790.0156 920.2344,790.0156 C920.5,790.0156 920.7656,789.875 920.9375,789.6563 C921.0469,789.5 921.0781,789.3125 921.0781,788.8906 L921.0781,787.4688 C921.0781,787.0313 921.0625,786.9063 920.9688,786.75 C920.8125,786.4844 920.5313,786.3438 920.2344,786.3438 C919.9375,786.3438 919.7344,786.4375 919.5156,786.75 L919.3438,786.6719 Z "/><text fill="#000000" font-family="Arial" font-size="11" lengthAdjust="spacingAndGlyphs" textLength="39" x="931" y="794.674">DataSet</text><line style="stroke: #919871; stroke-width: 1.5;" x1="903" x2="972" y1="807" y2="807"/><line style="stroke: #919871; stroke-width: 1.5;" x1="903" x2="972" y1="815" y2="815"/></a><a target="_top" xlink:href="../information/classes/class_terradue_1_1_portal_1_1_entity_list_3_01_t_01_4.html" xlink:title="../information/classes/class_terradue_1_1_portal_1_1_entity_list_3_01_t_01_4.html"><rect fill="#EEEBDC" filter="url(#f1)" height="97.52" style="stroke: #919871; stroke-width: 1.5;" width="177" x="1969" y="199"/><ellipse cx="2023.25" cy="215" fill="#ADD1B2" rx="11" ry="11" style="stroke: #919871; stroke-width: 1.0;"/><path d="M2025.5938,210.6719 C2024.6563,210.2344 2024.0625,210.0938 2023.1875,210.0938 C2020.5625,210.0938 2018.5625,212.1719 2018.5625,214.8906 L2018.5625,216.0156 C2018.5625,218.5938 2020.6719,220.4844 2023.5625,220.4844 C2024.7813,220.4844 2025.9375,220.1875 2026.6875,219.6406 C2027.2656,219.2344 2027.5938,218.7813 2027.5938,218.3906 C2027.5938,217.9375 2027.2031,217.5469 2026.7344,217.5469 C2026.5156,217.5469 2026.3125,217.625 2026.125,217.8125 C2025.6719,218.2969 2025.6719,218.2969 2025.4844,218.3906 C2025.0625,218.6563 2024.375,218.7813 2023.6094,218.7813 C2021.5625,218.7813 2020.2656,217.6875 2020.2656,215.9844 L2020.2656,214.8906 C2020.2656,213.1094 2021.5156,211.7969 2023.25,211.7969 C2023.8281,211.7969 2024.4375,211.9531 2024.9063,212.2031 C2025.3906,212.4844 2025.5625,212.7031 2025.6563,213.1094 C2025.7188,213.5156 2025.75,213.6406 2025.8906,213.7656 C2026.0313,213.9063 2026.2656,214.0156 2026.4844,214.0156 C2026.75,214.0156 2027.0156,213.875 2027.1875,213.6563 C2027.2969,213.5 2027.3281,213.3125 2027.3281,212.8906 L2027.3281,211.4688 C2027.3281,211.0313 2027.3125,210.9063 2027.2188,210.75 C2027.0625,210.4844 2026.7813,210.3438 2026.4844,210.3438 C2026.1875,210.3438 2025.9844,210.4375 2025.7656,210.75 L2025.5938,210.6719 Z "/><text fill="#000000" font-family="Arial" font-size="11" lengthAdjust="spacingAndGlyphs" textLength="44" x="2043.75" y="218.674">EntityList</text><rect fill="#FFFFFF" height="14.38" style="stroke: #000000; stroke-width: 1.0; stroke-dasharray: 2.0,2.0;" width="14" x="2135" y="196"/><text fill="#000000" font-family="Arial" font-size="10" lengthAdjust="spacingAndGlyphs" textLength="6" x="2139" y="206.53">T</text><line style="stroke: #919871; stroke-width: 1.5;" x1="1970" x2="2145" y1="231" y2="231"/><ellipse cx="1980" cy="242.19" fill="none" rx="3" ry="3" style="stroke: #038048; stroke-width: 1.0;"/><text fill="#000000" font-family="Arial" font-size="10" lengthAdjust="spacingAndGlyphs" textLength="151" x="1989" y="244.53">Items:override IEnumerable&lt; T &gt;</text><ellipse cx="1980" cy="254.57" fill="none" rx="3" ry="3" style="stroke: #038048; stroke-width: 1.0;"/><text fill="#000000" font-family="Arial" font-size="10" lengthAdjust="spacingAndGlyphs" textLength="82" x="1989" y="256.91">Count:override int</text><line style="stroke: #919871; stroke-width: 1.5;" x1="1970" x2="2145" y1="263.76" y2="263.76"/><ellipse cx="1980" cy="274.95" fill="#84BE84" rx="3" ry="3" style="stroke: #038048; stroke-width: 1.0;"/><text fill="#000000" font-family="Arial" font-size="10" lengthAdjust="spacingAndGlyphs" textLength="30" x="1989" y="277.29">Clear()</text><polygon fill="#FFFF44" points="1980,282.33,1984,286.33,1980,290.33,1976,286.33" style="stroke: #B38D22; stroke-width: 1.0;"/><text fill="#000000" font-family="Arial" font-size="10" lengthAdjust="spacingAndGlyphs" textLength="75" x="1989" y="289.67">IncludeInternal()</text></a><a target="_top" xlink:href="../information/classes/class_terradue_1_1_portal_1_1_feature.html" xlink:title="../information/classes/class_terradue_1_1_portal_1_1_feature.html"><rect fill="#EEEBDC" filter="url(#f1)" height="122.2799" style="stroke: #919871; stroke-width: 1.5;" width="106" x="761" y="738"/><ellipse cx="792.2" cy="754" fill="#ADD1B2" rx="11" ry="11" style="stroke: #919871; stroke-width: 1.0;"/><path d="M794.5438,749.6719 C793.6063,749.2344 793.0125,749.0938 792.1375,749.0938 C789.5125,749.0938 787.5125,751.1719 787.5125,753.8906 L787.5125,755.0156 C787.5125,757.5938 789.6219,759.4844 792.5125,759.4844 C793.7313,759.4844 794.8875,759.1875 795.6375,758.6406 C796.2156,758.2344 796.5438,757.7813 796.5438,757.3906 C796.5438,756.9375 796.1531,756.5469 795.6844,756.5469 C795.4656,756.5469 795.2625,756.625 795.075,756.8125 C794.6219,757.2969 794.6219,757.2969 794.4344,757.3906 C794.0125,757.6563 793.325,757.7813 792.5594,757.7813 C790.5125,757.7813 789.2156,756.6875 789.2156,754.9844 L789.2156,753.8906 C789.2156,752.1094 790.4656,750.7969 792.2,750.7969 C792.7781,750.7969 793.3875,750.9531 793.8563,751.2031 C794.3406,751.4844 794.5125,751.7031 794.6063,752.1094 C794.6688,752.5156 794.7,752.6406 794.8406,752.7656 C794.9813,752.9063 795.2156,753.0156 795.4344,753.0156 C795.7,753.0156 795.9656,752.875 796.1375,752.6563 C796.2469,752.5 796.2781,752.3125 796.2781,751.8906 L796.2781,750.4688 C796.2781,750.0313 796.2625,749.9063 796.1688,749.75 C796.0125,749.4844 795.7313,749.3438 795.4344,749.3438 C795.1375,749.3438 794.9344,749.4375 794.7156,749.75 L794.5438,749.6719 Z "/><text fill="#000000" font-family="Arial" font-size="11" lengthAdjust="spacingAndGlyphs" textLength="38" x="809.8" y="757.674">Feature</text><line style="stroke: #919871; stroke-width: 1.5;" x1="762" x2="866" y1="770" y2="770"/><ellipse cx="772" cy="781.19" fill="none" rx="3" ry="3" style="stroke: #038048; stroke-width: 1.0;"/><text fill="#000000" font-family="Arial" font-size="10" lengthAdjust="spacingAndGlyphs" textLength="47" x="781" y="783.53">Title:string</text><ellipse cx="772" cy="793.57" fill="none" rx="3" ry="3" style="stroke: #038048; stroke-width: 1.0;"/><text fill="#000000" font-family="Arial" font-size="10" lengthAdjust="spacingAndGlyphs" textLength="79" x="781" y="795.91">Description:string</text><ellipse cx="772" cy="805.95" fill="none" rx="3" ry="3" style="stroke: #038048; stroke-width: 1.0;"/><text fill="#000000" font-family="Arial" font-size="10" lengthAdjust="spacingAndGlyphs" textLength="57" x="781" y="808.29">Image:string</text><ellipse cx="772" cy="818.33" fill="none" rx="3" ry="3" style="stroke: #038048; stroke-width: 1.0;"/><text fill="#000000" font-family="Arial" font-size="10" lengthAdjust="spacingAndGlyphs" textLength="80" x="781" y="820.67">ImageStyle:string</text><ellipse cx="772" cy="830.7099" fill="none" rx="3" ry="3" style="stroke: #038048; stroke-width: 1.0;"/><text fill="#000000" font-family="Arial" font-size="10" lengthAdjust="spacingAndGlyphs" textLength="79" x="781" y="833.0499">ButtonText:string</text><ellipse cx="772" cy="843.0899" fill="none" rx="3" ry="3" style="stroke: #038048; stroke-width: 1.0;"/><text fill="#000000" font-family="Arial" font-size="10" lengthAdjust="spacingAndGlyphs" textLength="78" x="781" y="845.4299">ButtonLink:string</text><line style="stroke: #919871; stroke-width: 1.5;" x1="762" x2="866" y1="852.2799" y2="852.2799"/></a><a target="_top" xlink:href="../information/classes/class_terradue_1_1_portal_1_1_group.html" xlink:title="../information/classes/class_terradue_1_1_portal_1_1_group.html"><rect fill="#EEEBDC" filter="url(#f1)" height="85.14" style="stroke: #919871; stroke-width: 1.5;" width="121" x="606" y="756.5"/><ellipse cx="647.1" cy="772.5" fill="#ADD1B2" rx="11" ry="11" style="stroke: #919871; stroke-width: 1.0;"/><path d="M649.4438,768.1719 C648.5063,767.7344 647.9125,767.5938 647.0375,767.5938 C644.4125,767.5938 642.4125,769.6719 642.4125,772.3906 L642.4125,773.5156 C642.4125,776.0938 644.5219,777.9844 647.4125,777.9844 C648.6313,777.9844 649.7875,777.6875 650.5375,777.1406 C651.1156,776.7344 651.4438,776.2813 651.4438,775.8906 C651.4438,775.4375 651.0531,775.0469 650.5844,775.0469 C650.3656,775.0469 650.1625,775.125 649.975,775.3125 C649.5219,775.7969 649.5219,775.7969 649.3344,775.8906 C648.9125,776.1563 648.225,776.2813 647.4594,776.2813 C645.4125,776.2813 644.1156,775.1875 644.1156,773.4844 L644.1156,772.3906 C644.1156,770.6094 645.3656,769.2969 647.1,769.2969 C647.6781,769.2969 648.2875,769.4531 648.7563,769.7031 C649.2406,769.9844 649.4125,770.2031 649.5063,770.6094 C649.5688,771.0156 649.6,771.1406 649.7406,771.2656 C649.8813,771.4063 650.1156,771.5156 650.3344,771.5156 C650.6,771.5156 650.8656,771.375 651.0375,771.1563 C651.1469,771 651.1781,770.8125 651.1781,770.3906 L651.1781,768.9688 C651.1781,768.5313 651.1625,768.4063 651.0688,768.25 C650.9125,767.9844 650.6313,767.8438 650.3344,767.8438 C650.0375,767.8438 649.8344,767.9375 649.6156,768.25 L649.4438,768.1719 Z "/><text fill="#000000" font-family="Arial" font-size="11" lengthAdjust="spacingAndGlyphs" textLength="31" x="666.9" y="776.174">Group</text><line style="stroke: #919871; stroke-width: 1.5;" x1="607" x2="726" y1="788.5" y2="788.5"/><ellipse cx="617" cy="799.69" fill="none" rx="3" ry="3" style="stroke: #038048; stroke-width: 1.0;"/><text fill="#000000" font-family="Arial" font-size="10" lengthAdjust="spacingAndGlyphs" textLength="95" x="626" y="802.03">Name:override string</text><ellipse cx="617" cy="812.07" fill="none" rx="3" ry="3" style="stroke: #038048; stroke-width: 1.0;"/><text fill="#000000" font-family="Arial" font-size="10" lengthAdjust="spacingAndGlyphs" textLength="79" x="626" y="814.41">Description:string</text><ellipse cx="617" cy="824.45" fill="none" rx="3" ry="3" style="stroke: #038048; stroke-width: 1.0;"/><text fill="#000000" font-family="Arial" font-size="10" lengthAdjust="spacingAndGlyphs" textLength="45" x="626" y="826.79">Priority:int</text><line style="stroke: #919871; stroke-width: 1.5;" x1="607" x2="726" y1="833.64" y2="833.64"/></a><a target="_top" xlink:href="../information/classes/class_terradue_1_1_portal_1_1_ify_context.html" xlink:title="../information/classes/class_terradue_1_1_portal_1_1_ify_context.html"><rect fill="#EEEBDC" filter="url(#f1)" height="382.2597" style="stroke: #919871; stroke-width: 1.5;" width="233" x="1562" y="57"/><ellipse cx="1649.25" cy="73" fill="#ADD1B2" rx="11" ry="11" style="stroke: #919871; stroke-width: 1.0;"/><path d="M1651.5938,68.6719 C1650.6563,68.2344 1650.0625,68.0938 1649.1875,68.0938 C1646.5625,68.0938 1644.5625,70.1719 1644.5625,72.8906 L1644.5625,74.0156 C1644.5625,76.5938 1646.6719,78.4844 1649.5625,78.4844 C1650.7813,78.4844 1651.9375,78.1875 1652.6875,77.6406 C1653.2656,77.2344 1653.5938,76.7813 1653.5938,76.3906 C1653.5938,75.9375 1653.2031,75.5469 1652.7344,75.5469 C1652.5156,75.5469 1652.3125,75.625 1652.125,75.8125 C1651.6719,76.2969 1651.6719,76.2969 1651.4844,76.3906 C1651.0625,76.6563 1650.375,76.7813 1649.6094,76.7813 C1647.5625,76.7813 1646.2656,75.6875 1646.2656,73.9844 L1646.2656,72.8906 C1646.2656,71.1094 1647.5156,69.7969 1649.25,69.7969 C1649.8281,69.7969 1650.4375,69.9531 1650.9063,70.2031 C1651.3906,70.4844 1651.5625,70.7031 1651.6563,71.1094 C1651.7188,71.5156 1651.75,71.6406 1651.8906,71.7656 C1652.0313,71.9063 1652.2656,72.0156 1652.4844,72.0156 C1652.75,72.0156 1653.0156,71.875 1653.1875,71.6563 C1653.2969,71.5 1653.3281,71.3125 1653.3281,70.8906 L1653.3281,69.4688 C1653.3281,69.0313 1653.3125,68.9063 1653.2188,68.75 C1653.0625,68.4844 1652.7813,68.3438 1652.4844,68.3438 C1652.1875,68.3438 1651.9844,68.4375 1651.7656,68.75 L1651.5938,68.6719 Z "/><text fill="#000000" font-family="Arial" font-size="11" lengthAdjust="spacingAndGlyphs" textLength="50" x="1669.75" y="76.674">IfyContext</text><line style="stroke: #919871; stroke-width: 1.5;" x1="1563" x2="1794" y1="89" y2="89"/><ellipse cx="1573" cy="100.19" fill="none" rx="3" ry="3" style="stroke: #038048; stroke-width: 1.0;"/><text fill="#000000" font-family="Arial" font-size="10" lengthAdjust="spacingAndGlyphs" textLength="79" x="1582" y="102.53">IsInteractive:bool</text><ellipse cx="1573" cy="112.57" fill="none" rx="3" ry="3" style="stroke: #038048; stroke-width: 1.0;"/><text fill="#000000" font-family="Arial" font-size="10" lengthAdjust="spacingAndGlyphs" textLength="57" x="1582" y="114.91">LogLevel:int</text><ellipse cx="1573" cy="124.95" fill="none" rx="3" ry="3" style="stroke: #038048; stroke-width: 1.0;"/><text fill="#000000" font-family="Arial" font-size="10" lengthAdjust="spacingAndGlyphs" textLength="70" x="1582" y="127.29">DebugLevel:int</text><ellipse cx="1573" cy="137.33" fill="none" rx="3" ry="3" style="stroke: #038048; stroke-width: 1.0;"/><text fill="#000000" font-family="Arial" font-size="10" lengthAdjust="spacingAndGlyphs" textLength="44" x="1582" y="139.67">UserId:int</text><ellipse cx="1573" cy="149.7099" fill="none" rx="3" ry="3" style="stroke: #038048; stroke-width: 1.0;"/><text fill="#000000" font-family="Arial" font-size="10" lengthAdjust="spacingAndGlyphs" textLength="53" x="1582" y="152.0499">OwnerId:int</text><ellipse cx="1573" cy="162.0899" fill="none" rx="3" ry="3" style="stroke: #038048; stroke-width: 1.0;"/><text fill="#000000" font-family="Arial" font-size="10" lengthAdjust="spacingAndGlyphs" textLength="95" x="1582" y="164.4299">IsUserIdentified:bool</text><ellipse cx="1573" cy="174.4699" fill="none" rx="3" ry="3" style="stroke: #038048; stroke-width: 1.0;"/><text fill="#000000" font-family="Arial" font-size="10" lengthAdjust="spacingAndGlyphs" textLength="117" x="1582" y="176.8099">IsUserAuthenticated:bool</text><ellipse cx="1573" cy="186.8499" fill="none" rx="3" ry="3" style="stroke: #038048; stroke-width: 1.0;"/><text fill="#000000" font-family="Arial" font-size="10" lengthAdjust="spacingAndGlyphs" textLength="207" x="1582" y="189.1899">AuthenticationMethod:AuthenticationMethod</text><ellipse cx="1573" cy="199.2299" fill="none" rx="3" ry="3" style="stroke: #038048; stroke-width: 1.0;"/><text fill="#000000" font-family="Arial" font-size="10" lengthAdjust="spacingAndGlyphs" textLength="60" x="1582" y="201.5699">UserLevel:int</text><ellipse cx="1573" cy="211.6099" fill="none" rx="3" ry="3" style="stroke: #038048; stroke-width: 1.0;"/><text fill="#000000" font-family="Arial" font-size="10" lengthAdjust="spacingAndGlyphs" textLength="85" x="1582" y="213.9499">UserCaption:string</text><ellipse cx="1573" cy="223.9899" fill="none" rx="3" ry="3" style="stroke: #038048; stroke-width: 1.0;"/><text fill="#000000" font-family="Arial" font-size="10" lengthAdjust="spacingAndGlyphs" textLength="75" x="1582" y="226.3299">Username:string</text><line style="stroke: #919871; stroke-width: 1.5;" x1="1563" x2="1794" y1="233.1799" y2="233.1799"/><ellipse cx="1573" cy="244.3699" fill="#84BE84" rx="3" ry="3" style="stroke: #038048; stroke-width: 1.0;"/><text fill="#000000" font-family="Arial" font-size="10" lengthAdjust="spacingAndGlyphs" textLength="32" x="1582" y="246.7099">Open()</text><ellipse cx="1573" cy="256.7498" fill="#84BE84" rx="3" ry="3" style="stroke: #038048; stroke-width: 1.0;"/><text fill="#000000" font-family="Arial" font-size="10" lengthAdjust="spacingAndGlyphs" textLength="32" x="1582" y="259.0898">Close()</text><ellipse cx="1573" cy="269.1298" fill="#84BE84" rx="3" ry="3" style="stroke: #038048; stroke-width: 1.0;"/><text fill="#000000" font-family="Arial" font-size="10" lengthAdjust="spacingAndGlyphs" textLength="92" x="1582" y="271.4698">LoadConfiguration()</text><ellipse cx="1573" cy="281.5098" fill="#84BE84" rx="3" ry="3" style="stroke: #038048; stroke-width: 1.0;"/><text fill="#000000" font-family="Arial" font-size="10" lengthAdjust="spacingAndGlyphs" textLength="82" x="1582" y="283.8498">StartTransaction()</text><ellipse cx="1573" cy="293.8898" fill="#84BE84" rx="3" ry="3" style="stroke: #038048; stroke-width: 1.0;"/><text fill="#000000" font-family="Arial" font-size="10" lengthAdjust="spacingAndGlyphs" textLength="80" x="1582" y="296.2298">GetConfigValue()</text><ellipse cx="1573" cy="306.2698" fill="#84BE84" rx="3" ry="3" style="stroke: #038048; stroke-width: 1.0;"/><text fill="#000000" font-family="Arial" font-size="10" lengthAdjust="spacingAndGlyphs" textLength="91" x="1582" y="308.6098">EndImpersonation()</text><ellipse cx="1573" cy="318.6498" fill="#84BE84" rx="3" ry="3" style="stroke: #038048; stroke-width: 1.0;"/><text fill="#000000" font-family="Arial" font-size="10" lengthAdjust="spacingAndGlyphs" textLength="70" x="1582" y="320.9898">SendMailAlert()</text><ellipse cx="1573" cy="331.0298" fill="#84BE84" rx="3" ry="3" style="stroke: #038048; stroke-width: 1.0;"/><text fill="#000000" font-family="Arial" font-size="10" lengthAdjust="spacingAndGlyphs" textLength="70" x="1582" y="333.3698">CreateLogger()</text><ellipse cx="1573" cy="343.4098" fill="#84BE84" rx="3" ry="3" style="stroke: #038048; stroke-width: 1.0;"/><text fill="#000000" font-family="Arial" font-size="10" lengthAdjust="spacingAndGlyphs" textLength="55" x="1582" y="345.7498">LogDebug()</text><ellipse cx="1573" cy="355.7897" fill="#84BE84" rx="3" ry="3" style="stroke: #038048; stroke-width: 1.0;"/><text fill="#000000" font-family="Arial" font-size="10" lengthAdjust="spacingAndGlyphs" textLength="46" x="1582" y="358.1297">LogError()</text><ellipse cx="1573" cy="368.1697" fill="#84BE84" rx="3" ry="3" style="stroke: #038048; stroke-width: 1.0;"/><text fill="#000000" font-family="Arial" font-size="10" lengthAdjust="spacingAndGlyphs" textLength="69" x="1582" y="370.5097">LogFatalError()</text><ellipse cx="1573" cy="380.5497" fill="#84BE84" rx="3" ry="3" style="stroke: #038048; stroke-width: 1.0;"/><text fill="#000000" font-family="Arial" font-size="10" lengthAdjust="spacingAndGlyphs" textLength="42" x="1582" y="382.8897">LogInfo()</text><ellipse cx="1573" cy="392.9297" fill="#84BE84" rx="3" ry="3" style="stroke: #038048; stroke-width: 1.0;"/><text fill="#000000" font-family="Arial" font-size="10" lengthAdjust="spacingAndGlyphs" textLength="62" x="1582" y="395.2697">LogWarning()</text><ellipse cx="1573" cy="405.3097" fill="#84BE84" rx="3" ry="3" style="stroke: #038048; stroke-width: 1.0;"/><text fill="#000000" font-family="Arial" font-size="10" lengthAdjust="spacingAndGlyphs" textLength="43" x="1582" y="407.6497">LogStat()</text><rect fill="#F24D5C" height="6" style="stroke: #C82930; stroke-width: 1.0;" width="6" x="1570" y="414.6897"/><text fill="#000000" font-family="Arial" font-size="10" lengthAdjust="spacingAndGlyphs" textLength="62" x="1582" y="420.0297">SetReporter()</text><rect fill="#F24D5C" height="6" style="stroke: #C82930; stroke-width: 1.0;" width="6" x="1570" y="427.0697"/><text fill="#000000" font-family="Arial" font-size="10" lengthAdjust="spacingAndGlyphs" textLength="67" x="1582" y="432.4097">SetOriginator()</text></a><a target="_top" xlink:href="../information/classes/class_terradue_1_1_portal_1_1_scheduler.html" xlink:title="../information/classes/class_terradue_1_1_portal_1_1_scheduler.html"><rect fill="#EEEBDC" filter="url(#f1)" height="85.14" style="stroke: #919871; stroke-width: 1.5;" width="141" x="63" y="757"/><ellipse cx="105" cy="773" fill="#ADD1B2" rx="11" ry="11" style="stroke: #919871; stroke-width: 1.0;"/><path d="M107.3438,768.6719 C106.4063,768.2344 105.8125,768.0938 104.9375,768.0938 C102.3125,768.0938 100.3125,770.1719 100.3125,772.8906 L100.3125,774.0156 C100.3125,776.5938 102.4219,778.4844 105.3125,778.4844 C106.5313,778.4844 107.6875,778.1875 108.4375,777.6406 C109.0156,777.2344 109.3438,776.7813 109.3438,776.3906 C109.3438,775.9375 108.9531,775.5469 108.4844,775.5469 C108.2656,775.5469 108.0625,775.625 107.875,775.8125 C107.4219,776.2969 107.4219,776.2969 107.2344,776.3906 C106.8125,776.6563 106.125,776.7813 105.3594,776.7813 C103.3125,776.7813 102.0156,775.6875 102.0156,773.9844 L102.0156,772.8906 C102.0156,771.1094 103.2656,769.7969 105,769.7969 C105.5781,769.7969 106.1875,769.9531 106.6563,770.2031 C107.1406,770.4844 107.3125,770.7031 107.4063,771.1094 C107.4688,771.5156 107.5,771.6406 107.6406,771.7656 C107.7813,771.9063 108.0156,772.0156 108.2344,772.0156 C108.5,772.0156 108.7656,771.875 108.9375,771.6563 C109.0469,771.5 109.0781,771.3125 109.0781,770.8906 L109.0781,769.4688 C109.0781,769.0313 109.0625,768.9063 108.9688,768.75 C108.8125,768.4844 108.5313,768.3438 108.2344,768.3438 C107.9375,768.3438 107.7344,768.4375 107.5156,768.75 L107.3438,768.6719 Z "/><text fill="#000000" font-family="Arial" font-size="11" lengthAdjust="spacingAndGlyphs" textLength="49" x="125" y="776.674">Scheduler</text><line style="stroke: #919871; stroke-width: 1.5;" x1="64" x2="203" y1="789" y2="789"/><ellipse cx="74" cy="800.19" fill="none" rx="3" ry="3" style="stroke: #038048; stroke-width: 1.0;"/><text fill="#000000" font-family="Arial" font-size="10" lengthAdjust="spacingAndGlyphs" textLength="115" x="83" y="802.53">Status:SchedulingStatus</text><ellipse cx="74" cy="812.57" fill="none" rx="3" ry="3" style="stroke: #038048; stroke-width: 1.0;"/><text fill="#000000" font-family="Arial" font-size="10" lengthAdjust="spacingAndGlyphs" textLength="91" x="83" y="814.91">MaxSubmissions:int</text><ellipse cx="74" cy="824.95" fill="none" rx="3" ry="3" style="stroke: #038048; stroke-width: 1.0;"/><text fill="#000000" font-family="Arial" font-size="10" lengthAdjust="spacingAndGlyphs" textLength="54" x="83" y="827.29">Inputs:List&lt;</text><line style="stroke: #919871; stroke-width: 1.5;" x1="64" x2="203" y1="834.14" y2="834.14"/></a><rect fill="#EEEBDC" filter="url(#f1)" height="48" style="stroke: #919871; stroke-width: 1.5;" width="165" x="63" y="1020"/><ellipse cx="78" cy="1036" fill="#ADD1B2" rx="11" ry="11" style="stroke: #919871; stroke-width: 1.0;"/><path d="M80.3438,1031.6719 C79.4063,1031.2344 78.8125,1031.0938 77.9375,1031.0938 C75.3125,1031.0938 73.3125,1033.1719 73.3125,1035.8906 L73.3125,1037.0156 C73.3125,1039.5938 75.4219,1041.4844 78.3125,1041.4844 C79.5313,1041.4844 80.6875,1041.1875 81.4375,1040.6406 C82.0156,1040.2344 82.3438,1039.7813 82.3438,1039.3906 C82.3438,1038.9375 81.9531,1038.5469 81.4844,1038.5469 C81.2656,1038.5469 81.0625,1038.625 80.875,1038.8125 C80.4219,1039.2969 80.4219,1039.2969 80.2344,1039.3906 C79.8125,1039.6563 79.125,1039.7813 78.3594,1039.7813 C76.3125,1039.7813 75.0156,1038.6875 75.0156,1036.9844 L75.0156,1035.8906 C75.0156,1034.1094 76.2656,1032.7969 78,1032.7969 C78.5781,1032.7969 79.1875,1032.9531 79.6563,1033.2031 C80.1406,1033.4844 80.3125,1033.7031 80.4063,1034.1094 C80.4688,1034.5156 80.5,1034.6406 80.6406,1034.7656 C80.7813,1034.9063 81.0156,1035.0156 81.2344,1035.0156 C81.5,1035.0156 81.7656,1034.875 81.9375,1034.6563 C82.0469,1034.5 82.0781,1034.3125 82.0781,1033.8906 L82.0781,1032.4688 C82.0781,1032.0313 82.0625,1031.9063 81.9688,1031.75 C81.8125,1031.4844 81.5313,1031.3438 81.2344,1031.3438 C80.9375,1031.3438 80.7344,1031.4375 80.5156,1031.75 L80.3438,1031.6719 Z "/><text fill="#000000" font-family="Arial" font-size="11" lengthAdjust="spacingAndGlyphs" textLength="133" x="92" y="1039.674">SchedulerRunConfiguration</text><line style="stroke: #919871; stroke-width: 1.5;" x1="64" x2="227" y1="1052" y2="1052"/><line style="stroke: #919871; stroke-width: 1.5;" x1="64" x2="227" y1="1060" y2="1060"/><a target="_top" xlink:href="../information/classes/class_terradue_1_1_portal_1_1_series.html" xlink:title="../information/classes/class_terradue_1_1_portal_1_1_series.html"><rect fill="#EEEBDC" filter="url(#f1)" height="85.14" style="stroke: #919871; stroke-width: 1.5;" width="184" x="1485" y="529.5"/><ellipse cx="1557.25" cy="545.5" fill="#ADD1B2" rx="11" ry="11" style="stroke: #919871; stroke-width: 1.0;"/><path d="M1559.5938,541.1719 C1558.6563,540.7344 1558.0625,540.5938 1557.1875,540.5938 C1554.5625,540.5938 1552.5625,542.6719 1552.5625,545.3906 L1552.5625,546.5156 C1552.5625,549.0938 1554.6719,550.9844 1557.5625,550.9844 C1558.7813,550.9844 1559.9375,550.6875 1560.6875,550.1406 C1561.2656,549.7344 1561.5938,549.2813 1561.5938,548.8906 C1561.5938,548.4375 1561.2031,548.0469 1560.7344,548.0469 C1560.5156,548.0469 1560.3125,548.125 1560.125,548.3125 C1559.6719,548.7969 1559.6719,548.7969 1559.4844,548.8906 C1559.0625,549.1563 1558.375,549.2813 1557.6094,549.2813 C1555.5625,549.2813 1554.2656,548.1875 1554.2656,546.4844 L1554.2656,545.3906 C1554.2656,543.6094 1555.5156,542.2969 1557.25,542.2969 C1557.8281,542.2969 1558.4375,542.4531 1558.9063,542.7031 C1559.3906,542.9844 1559.5625,543.2031 1559.6563,543.6094 C1559.7188,544.0156 1559.75,544.1406 1559.8906,544.2656 C1560.0313,544.4063 1560.2656,544.5156 1560.4844,544.5156 C1560.75,544.5156 1561.0156,544.375 1561.1875,544.1563 C1561.2969,544 1561.3281,543.8125 1561.3281,543.3906 L1561.3281,541.9688 C1561.3281,541.5313 1561.3125,541.4063 1561.2188,541.25 C1561.0625,540.9844 1560.7813,540.8438 1560.4844,540.8438 C1560.1875,540.8438 1559.9844,540.9375 1559.7656,541.25 L1559.5938,541.1719 Z "/><text fill="#000000" font-family="Arial" font-size="11" lengthAdjust="spacingAndGlyphs" textLength="31" x="1577.75" y="549.174">Series</text><line style="stroke: #919871; stroke-width: 1.5;" x1="1486" x2="1668" y1="561.5" y2="561.5"/><ellipse cx="1496" cy="572.69" fill="none" rx="3" ry="3" style="stroke: #038048; stroke-width: 1.0;"/><text fill="#000000" font-family="Arial" font-size="10" lengthAdjust="spacingAndGlyphs" textLength="79" x="1505" y="575.03">Description:string</text><ellipse cx="1496" cy="585.07" fill="none" rx="3" ry="3" style="stroke: #038048; stroke-width: 1.0;"/><text fill="#000000" font-family="Arial" font-size="10" lengthAdjust="spacingAndGlyphs" textLength="139" x="1505" y="587.41">CatalogueDescriptionUrl:string</text><line style="stroke: #919871; stroke-width: 1.5;" x1="1486" x2="1668" y1="594.26" y2="594.26"/><ellipse cx="1496" cy="605.45" fill="#84BE84" rx="3" ry="3" style="stroke: #038048; stroke-width: 1.0;"/><text fill="#000000" font-family="Arial" font-size="10" lengthAdjust="spacingAndGlyphs" textLength="158" x="1505" y="607.79">GetLocalOpenSearchDescription()</text></a><a target="_top" xlink:href="../information/classes/class_terradue_1_1_portal_1_1_service.html" xlink:title="../information/classes/class_terradue_1_1_portal_1_1_service.html"><rect fill="#EEEBDC" filter="url(#f1)" height="147.0399" style="stroke: #919871; stroke-width: 1.5;" width="195" x="1936" y="726"/><ellipse cx="2010.75" cy="742" fill="#ADD1B2" rx="11" ry="11" style="stroke: #919871; stroke-width: 1.0;"/><path d="M2013.0938,737.6719 C2012.1563,737.2344 2011.5625,737.0938 2010.6875,737.0938 C2008.0625,737.0938 2006.0625,739.1719 2006.0625,741.8906 L2006.0625,743.0156 C2006.0625,745.5938 2008.1719,747.4844 2011.0625,747.4844 C2012.2813,747.4844 2013.4375,747.1875 2014.1875,746.6406 C2014.7656,746.2344 2015.0938,745.7813 2015.0938,745.3906 C2015.0938,744.9375 2014.7031,744.5469 2014.2344,744.5469 C2014.0156,744.5469 2013.8125,744.625 2013.625,744.8125 C2013.1719,745.2969 2013.1719,745.2969 2012.9844,745.3906 C2012.5625,745.6563 2011.875,745.7813 2011.1094,745.7813 C2009.0625,745.7813 2007.7656,744.6875 2007.7656,742.9844 L2007.7656,741.8906 C2007.7656,740.1094 2009.0156,738.7969 2010.75,738.7969 C2011.3281,738.7969 2011.9375,738.9531 2012.4063,739.2031 C2012.8906,739.4844 2013.0625,739.7031 2013.1563,740.1094 C2013.2188,740.5156 2013.25,740.6406 2013.3906,740.7656 C2013.5313,740.9063 2013.7656,741.0156 2013.9844,741.0156 C2014.25,741.0156 2014.5156,740.875 2014.6875,740.6563 C2014.7969,740.5 2014.8281,740.3125 2014.8281,739.8906 L2014.8281,738.4688 C2014.8281,738.0313 2014.8125,737.9063 2014.7188,737.75 C2014.5625,737.4844 2014.2813,737.3438 2013.9844,737.3438 C2013.6875,737.3438 2013.4844,737.4375 2013.2656,737.75 L2013.0938,737.6719 Z "/><text fill="#000000" font-family="Arial" font-size="11" lengthAdjust="spacingAndGlyphs" textLength="37" x="2031.25" y="745.674">Service</text><line style="stroke: #919871; stroke-width: 1.5;" x1="1937" x2="2130" y1="758" y2="758"/><ellipse cx="1947" cy="769.19" fill="none" rx="3" ry="3" style="stroke: #038048; stroke-width: 1.0;"/><text fill="#000000" font-family="Arial" font-size="10" lengthAdjust="spacingAndGlyphs" textLength="79" x="1956" y="771.53">Description:string</text><ellipse cx="1947" cy="781.57" fill="none" rx="3" ry="3" style="stroke: #038048; stroke-width: 1.0;"/><text fill="#000000" font-family="Arial" font-size="10" lengthAdjust="spacingAndGlyphs" textLength="63" x="1956" y="783.91">Version:string</text><ellipse cx="1947" cy="793.95" fill="none" rx="3" ry="3" style="stroke: #038048; stroke-width: 1.0;"/><text fill="#000000" font-family="Arial" font-size="10" lengthAdjust="spacingAndGlyphs" textLength="40" x="1956" y="796.29">Url:string</text><ellipse cx="1947" cy="806.33" fill="none" rx="3" ry="3" style="stroke: #038048; stroke-width: 1.0;"/><text fill="#000000" font-family="Arial" font-size="10" lengthAdjust="spacingAndGlyphs" textLength="60" x="1956" y="808.67">IconUrl:string</text><ellipse cx="1947" cy="818.7099" fill="none" rx="3" ry="3" style="stroke: #038048; stroke-width: 1.0;"/><text fill="#000000" font-family="Arial" font-size="10" lengthAdjust="spacingAndGlyphs" textLength="44" x="1956" y="821.0499">Rating:int</text><ellipse cx="1947" cy="831.0899" fill="none" rx="3" ry="3" style="stroke: #038048; stroke-width: 1.0;"/><text fill="#000000" font-family="Arial" font-size="10" lengthAdjust="spacingAndGlyphs" textLength="48" x="1956" y="833.4299">ClassId:int</text><ellipse cx="1947" cy="843.4699" fill="none" rx="3" ry="3" style="stroke: #038048; stroke-width: 1.0;"/><text fill="#000000" font-family="Arial" font-size="10" lengthAdjust="spacingAndGlyphs" textLength="59" x="1956" y="845.8099">Categories:[]</text><ellipse cx="1947" cy="855.8499" fill="none" rx="3" ry="3" style="stroke: #038048; stroke-width: 1.0;"/><text fill="#000000" font-family="Arial" font-size="10" lengthAdjust="spacingAndGlyphs" textLength="169" x="1956" y="858.1899">OnBuildTask:BuildTaskCallbackType</text><line style="stroke: #919871; stroke-width: 1.5;" x1="1937" x2="2130" y1="865.0399" y2="865.0399"/></a><a target="_top" xlink:href="../information/classes/class_terradue_1_1_portal_1_1_task.html" xlink:title="../information/classes/class_terradue_1_1_portal_1_1_task.html"><rect fill="#EEEBDC" filter="url(#f1)" height="60.38" style="stroke: #919871; stroke-width: 1.5;" width="92" x="257" y="542"/><ellipse cx="287.75" cy="558" fill="#ADD1B2" rx="11" ry="11" style="stroke: #919871; stroke-width: 1.0;"/><path d="M290.0938,553.6719 C289.1563,553.2344 288.5625,553.0938 287.6875,553.0938 C285.0625,553.0938 283.0625,555.1719 283.0625,557.8906 L283.0625,559.0156 C283.0625,561.5938 285.1719,563.4844 288.0625,563.4844 C289.2813,563.4844 290.4375,563.1875 291.1875,562.6406 C291.7656,562.2344 292.0938,561.7813 292.0938,561.3906 C292.0938,560.9375 291.7031,560.5469 291.2344,560.5469 C291.0156,560.5469 290.8125,560.625 290.625,560.8125 C290.1719,561.2969 290.1719,561.2969 289.9844,561.3906 C289.5625,561.6563 288.875,561.7813 288.1094,561.7813 C286.0625,561.7813 284.7656,560.6875 284.7656,558.9844 L284.7656,557.8906 C284.7656,556.1094 286.0156,554.7969 287.75,554.7969 C288.3281,554.7969 288.9375,554.9531 289.4063,555.2031 C289.8906,555.4844 290.0625,555.7031 290.1563,556.1094 C290.2188,556.5156 290.25,556.6406 290.3906,556.7656 C290.5313,556.9063 290.7656,557.0156 290.9844,557.0156 C291.25,557.0156 291.5156,556.875 291.6875,556.6563 C291.7969,556.5 291.8281,556.3125 291.8281,555.8906 L291.8281,554.4688 C291.8281,554.0313 291.8125,553.9063 291.7188,553.75 C291.5625,553.4844 291.2813,553.3438 290.9844,553.3438 C290.6875,553.3438 290.4844,553.4375 290.2656,553.75 L290.0938,553.6719 Z "/><text fill="#000000" font-family="Arial" font-size="11" lengthAdjust="spacingAndGlyphs" textLength="25" x="305.25" y="561.674">Task</text><line style="stroke: #919871; stroke-width: 1.5;" x1="258" x2="348" y1="574" y2="574"/><ellipse cx="268" cy="585.19" fill="none" rx="3" ry="3" style="stroke: #038048; stroke-width: 1.0;"/><text fill="#000000" font-family="Arial" font-size="10" lengthAdjust="spacingAndGlyphs" textLength="66" x="277" y="587.53">Priority:double</text><line style="stroke: #919871; stroke-width: 1.5;" x1="258" x2="348" y1="594.38" y2="594.38"/></a><a target="_top" xlink:href="../information/classes/class_terradue_1_1_portal_1_1_user.html" xlink:title="../information/classes/class_terradue_1_1_portal_1_1_user.html"><rect fill="#EEEBDC" filter="url(#f1)" height="60.38" style="stroke: #919871; stroke-width: 1.5;" width="108" x="2743" y="769"/><ellipse cx="2781.4" cy="785" fill="#ADD1B2" rx="11" ry="11" style="stroke: #919871; stroke-width: 1.0;"/><path d="M2783.7438,780.6719 C2782.8063,780.2344 2782.2125,780.0938 2781.3375,780.0938 C2778.7125,780.0938 2776.7125,782.1719 2776.7125,784.8906 L2776.7125,786.0156 C2776.7125,788.5938 2778.8219,790.4844 2781.7125,790.4844 C2782.9313,790.4844 2784.0875,790.1875 2784.8375,789.6406 C2785.4156,789.2344 2785.7438,788.7813 2785.7438,788.3906 C2785.7438,787.9375 2785.3531,787.5469 2784.8844,787.5469 C2784.6656,787.5469 2784.4625,787.625 2784.275,787.8125 C2783.8219,788.2969 2783.8219,788.2969 2783.6344,788.3906 C2783.2125,788.6563 2782.525,788.7813 2781.7594,788.7813 C2779.7125,788.7813 2778.4156,787.6875 2778.4156,785.9844 L2778.4156,784.8906 C2778.4156,783.1094 2779.6656,781.7969 2781.4,781.7969 C2781.9781,781.7969 2782.5875,781.9531 2783.0563,782.2031 C2783.5406,782.4844 2783.7125,782.7031 2783.8063,783.1094 C2783.8688,783.5156 2783.9,783.6406 2784.0406,783.7656 C2784.1813,783.9063 2784.4156,784.0156 2784.6344,784.0156 C2784.9,784.0156 2785.1656,783.875 2785.3375,783.6563 C2785.4469,783.5 2785.4781,783.3125 2785.4781,782.8906 L2785.4781,781.4688 C2785.4781,781.0313 2785.4625,780.9063 2785.3688,780.75 C2785.2125,780.4844 2784.9313,780.3438 2784.6344,780.3438 C2784.3375,780.3438 2784.1344,780.4375 2783.9156,780.75 L2783.7438,780.6719 Z "/><text fill="#000000" font-family="Arial" font-size="11" lengthAdjust="spacingAndGlyphs" textLength="24" x="2800.6" y="788.674">User</text><line style="stroke: #919871; stroke-width: 1.5;" x1="2744" x2="2850" y1="801" y2="801"/><ellipse cx="2754" cy="812.19" fill="none" rx="3" ry="3" style="stroke: #038048; stroke-width: 1.0;"/><text fill="#000000" font-family="Arial" font-size="10" lengthAdjust="spacingAndGlyphs" textLength="82" x="2763" y="814.53">AccountStatus:int</text><line style="stroke: #919871; stroke-width: 1.5;" x1="2744" x2="2850" y1="821.38" y2="821.38"/></a><a target="_top" xlink:href="../information/classes/class_terradue_1_1_portal_1_1_wps_process_offering.html" xlink:title="../information/classes/class_terradue_1_1_portal_1_1_wps_process_offering.html"><rect fill="#EEEBDC" filter="url(#f1)" height="60.38" style="stroke: #919871; stroke-width: 1.5;" width="185" x="1063" y="218"/><ellipse cx="1100.95" cy="234" fill="#ADD1B2" rx="11" ry="11" style="stroke: #919871; stroke-width: 1.0;"/><path d="M1103.2938,229.6719 C1102.3563,229.2344 1101.7625,229.0938 1100.8875,229.0938 C1098.2625,229.0938 1096.2625,231.1719 1096.2625,233.8906 L1096.2625,235.0156 C1096.2625,237.5938 1098.3719,239.4844 1101.2625,239.4844 C1102.4813,239.4844 1103.6375,239.1875 1104.3875,238.6406 C1104.9656,238.2344 1105.2938,237.7813 1105.2938,237.3906 C1105.2938,236.9375 1104.9031,236.5469 1104.4344,236.5469 C1104.2156,236.5469 1104.0125,236.625 1103.825,236.8125 C1103.3719,237.2969 1103.3719,237.2969 1103.1844,237.3906 C1102.7625,237.6563 1102.075,237.7813 1101.3094,237.7813 C1099.2625,237.7813 1097.9656,236.6875 1097.9656,234.9844 L1097.9656,233.8906 C1097.9656,232.1094 1099.2156,230.7969 1100.95,230.7969 C1101.5281,230.7969 1102.1375,230.9531 1102.6063,231.2031 C1103.0906,231.4844 1103.2625,231.7031 1103.3563,232.1094 C1103.4188,232.5156 1103.45,232.6406 1103.5906,232.7656 C1103.7313,232.9063 1103.9656,233.0156 1104.1844,233.0156 C1104.45,233.0156 1104.7156,232.875 1104.8875,232.6563 C1104.9969,232.5 1105.0281,232.3125 1105.0281,231.8906 L1105.0281,230.4688 C1105.0281,230.0313 1105.0125,229.9063 1104.9188,229.75 C1104.7625,229.4844 1104.4813,229.3438 1104.1844,229.3438 C1103.8875,229.3438 1103.6844,229.4375 1103.4656,229.75 L1103.2938,229.6719 Z "/><text fill="#000000" font-family="Arial" font-size="11" lengthAdjust="spacingAndGlyphs" textLength="102" x="1120.05" y="237.674">WpsProcessOffering</text><line style="stroke: #919871; stroke-width: 1.5;" x1="1064" x2="1247" y1="250" y2="250"/><ellipse cx="1074" cy="261.19" fill="none" rx="3" ry="3" style="stroke: #038048; stroke-width: 1.0;"/><text fill="#000000" font-family="Arial" font-size="10" lengthAdjust="spacingAndGlyphs" textLength="159" x="1083" y="263.53">FixedComputingResource:override</text><line style="stroke: #919871; stroke-width: 1.5;" x1="1064" x2="1247" y1="270.38" y2="270.38"/></a><a target="_top" xlink:href="../information/classes/class_terradue_1_1_portal_1_1_wps_provider.html" xlink:title="../information/classes/class_terradue_1_1_portal_1_1_wps_provider.html"><rect fill="#EEEBDC" filter="url(#f1)" height="72.76" style="stroke: #919871; stroke-width: 1.5;" width="136" x="637" y="537"/><ellipse cx="670.45" cy="553" fill="#ADD1B2" rx="11" ry="11" style="stroke: #919871; stroke-width: 1.0;"/><path d="M672.7938,548.6719 C671.8563,548.2344 671.2625,548.0938 670.3875,548.0938 C667.7625,548.0938 665.7625,550.1719 665.7625,552.8906 L665.7625,554.0156 C665.7625,556.5938 667.8719,558.4844 670.7625,558.4844 C671.9813,558.4844 673.1375,558.1875 673.8875,557.6406 C674.4656,557.2344 674.7938,556.7813 674.7938,556.3906 C674.7938,555.9375 674.4031,555.5469 673.9344,555.5469 C673.7156,555.5469 673.5125,555.625 673.325,555.8125 C672.8719,556.2969 672.8719,556.2969 672.6844,556.3906 C672.2625,556.6563 671.575,556.7813 670.8094,556.7813 C668.7625,556.7813 667.4656,555.6875 667.4656,553.9844 L667.4656,552.8906 C667.4656,551.1094 668.7156,549.7969 670.45,549.7969 C671.0281,549.7969 671.6375,549.9531 672.1063,550.2031 C672.5906,550.4844 672.7625,550.7031 672.8563,551.1094 C672.9188,551.5156 672.95,551.6406 673.0906,551.7656 C673.2313,551.9063 673.4656,552.0156 673.6844,552.0156 C673.95,552.0156 674.2156,551.875 674.3875,551.6563 C674.4969,551.5 674.5281,551.3125 674.5281,550.8906 L674.5281,549.4688 C674.5281,549.0313 674.5125,548.9063 674.4188,548.75 C674.2625,548.4844 673.9813,548.3438 673.6844,548.3438 C673.3875,548.3438 673.1844,548.4375 672.9656,548.75 L672.7938,548.6719 Z "/><text fill="#000000" font-family="Arial" font-size="11" lengthAdjust="spacingAndGlyphs" textLength="63" x="688.55" y="556.674">WpsProvider</text><line style="stroke: #919871; stroke-width: 1.5;" x1="638" x2="772" y1="569" y2="569"/><ellipse cx="648" cy="580.19" fill="none" rx="3" ry="3" style="stroke: #038048; stroke-width: 1.0;"/><text fill="#000000" font-family="Arial" font-size="10" lengthAdjust="spacingAndGlyphs" textLength="49" x="657" y="582.53">Proxy:bool</text><line style="stroke: #919871; stroke-width: 1.5;" x1="638" x2="772" y1="589.38" y2="589.38"/><ellipse cx="648" cy="600.57" fill="#84BE84" rx="3" ry="3" style="stroke: #038048; stroke-width: 1.0;"/><text fill="#000000" font-family="Arial" font-size="10" lengthAdjust="spacingAndGlyphs" textLength="110" x="657" y="602.91">StoreProcessOfferings()</text></a><path d="M2439.9,619.046 C2470.81,659.548 2515.05,717.515 2545.07,756.845 " fill="none" style="stroke: #000000; stroke-width: 1.0;"/><polygon fill="#000000" points="2431.96,608.632,2432.4224,615.8283,2439.2429,618.1693,2438.7805,610.973,2431.96,608.632" style="stroke: #000000; stroke-width: 1.0;"/><text fill="#000000" font-family="Arial" font-size="11" lengthAdjust="spacingAndGlyphs" textLength="18" x="2481" y="670.4829">has</text><text fill="#000000" font-family="Arial" font-size="11" lengthAdjust="spacingAndGlyphs" textLength="6" x="2536.3066" y="745.8667">1</text><path d="M2466.23,616.9 C2481.06,629.444 2496.04,643.828 2508,659 C2531.43,688.728 2550,727.56 2562.11,756.943 " fill="none" style="stroke: #000000; stroke-width: 1.0;"/><polygon fill="#000000" points="2456.02,608.524,2458.1225,615.4218,2465.2984,616.134,2463.1958,609.2362,2456.02,608.524" style="stroke: #000000; stroke-width: 1.0;"/><text fill="#000000" font-family="Arial" font-size="11" lengthAdjust="spacingAndGlyphs" textLength="18" x="2519" y="670.4829">has</text><text fill="#000000" font-family="Arial" font-size="11" lengthAdjust="spacingAndGlyphs" textLength="6" x="2557.6463" y="745.8956">1</text><path d="M2350.98,608.686 C2318.94,633.015 2279.18,667.319 2252,705 C2198.98,778.506 2243.76,836.367 2173,893 C2063.49,980.646 1656.03,1020.743 1451.99,1035.649 " fill="none" style="stroke: #000000; stroke-width: 1.0;"/><polygon fill="none" points="1452.45,1042.633,1432,1037.075,1451.45,1028.669,1452.45,1042.633" style="stroke: #000000; stroke-width: 1.0;"/><text fill="#000000" font-family="Arial" font-size="11" lengthAdjust="spacingAndGlyphs" textLength="55" x="2253" y="802.4829">implements</text><path d="M2394.78,608.698 C2374.02,690.812 2324.55,882.991 2314,893 C2252.17,951.656 1699.43,1009.335 1452.39,1032.44 " fill="none" style="stroke: #000000; stroke-width: 1.0;"/><polygon fill="none" points="1452.85,1039.427,1432.29,1034.306,1451.56,1025.487,1452.85,1039.427" style="stroke: #000000; stroke-width: 1.0;"/><text fill="#000000" font-family="Arial" font-size="11" lengthAdjust="spacingAndGlyphs" textLength="55" x="2370" y="802.4829">implements</text><path d="M1412.06,866.644 C1400.54,892.666 1387.19,922.835 1374.82,950.784 " fill="none" style="stroke: #000000; stroke-width: 1.0;"/><polygon fill="none" points="1381.15,953.774,1366.65,969.229,1368.35,948.108,1381.15,953.774" style="stroke: #000000; stroke-width: 1.0;"/><text fill="#000000" font-family="Arial" font-size="11" lengthAdjust="spacingAndGlyphs" textLength="55" x="1385" y="934.4829">implements</text><path d="M1262.07,841.789 C1270.74,869.617 1282.58,906.617 1294,939 C1295.3,942.694 1296.65,946.455 1298.03,950.248 " fill="none" style="stroke: #000000; stroke-width: 1.0;"/><polygon fill="none" points="1304.71,948.145,1305.08,969.331,1291.58,952.998,1304.71,948.145" style="stroke: #000000; stroke-width: 1.0;"/><text fill="#000000" font-family="Arial" font-size="11" lengthAdjust="spacingAndGlyphs" textLength="55" x="1295" y="934.4829">implements</text><path d="M1711.29,842.248 C1672.71,871.487 1618.78,910.172 1568,939 C1530.87,960.078 1488.67,979.978 1450.43,996.617 " fill="none" style="stroke: #000000; stroke-width: 1.0;"/><polygon fill="none" points="1453.15,1003.065,1432.01,1004.514,1447.63,990.198,1453.15,1003.065" style="stroke: #000000; stroke-width: 1.0;"/><text fill="#000000" font-family="Arial" font-size="11" lengthAdjust="spacingAndGlyphs" textLength="55" x="1591" y="934.4829">implements</text><path d="M548.289,865.692 C560.799,875.831 574.282,885.429 588,893 C694.479,951.77 1033.7,1003.596 1215.79,1028.065 " fill="none" style="stroke: #000000; stroke-width: 1.0;"/><polygon fill="none" points="1216.95,1021.158,1235.85,1030.736,1215.1,1035.036,1216.95,1021.158" style="stroke: #000000; stroke-width: 1.0;"/><text fill="#000000" font-family="Arial" font-size="11" lengthAdjust="spacingAndGlyphs" textLength="55" x="707" y="934.4829">implements</text><path d="M1068.41,823.144 C1080.31,843.245 1099.02,871.889 1120,893 C1149.34,922.528 1185.14,950.158 1219,973.457 " fill="none" style="stroke: #000000; stroke-width: 1.0;"/><polygon fill="none" points="1223.28,967.901,1235.95,984.884,1215.45,979.511,1223.28,967.901" style="stroke: #000000; stroke-width: 1.0;"/><text fill="#000000" font-family="Arial" font-size="11" lengthAdjust="spacingAndGlyphs" textLength="55" x="1170" y="934.4829">implements</text><path d="M945.289,823.015 C953.541,843.864 968.017,873.663 989,893 C1053.01,951.99 1143.88,990.214 1216.3,1013.306 " fill="none" style="stroke: #000000; stroke-width: 1.0;"/><polygon fill="none" points="1218.66,1006.708,1235.72,1019.28,1214.54,1020.089,1218.66,1006.708" style="stroke: #000000; stroke-width: 1.0;"/><text fill="#000000" font-family="Arial" font-size="11" lengthAdjust="spacingAndGlyphs" textLength="55" x="1047" y="934.4829">implements</text><path d="M853.953,860.243 C863.043,871.861 873.225,883.377 884,893 C976.801,975.882 1116.81,1013.181 1215.98,1029.832 " fill="none" style="stroke: #000000; stroke-width: 1.0;"/><polygon fill="none" points="1217.21,1022.939,1235.86,1032.987,1215.01,1036.766,1217.21,1022.939" style="stroke: #000000; stroke-width: 1.0;"/><text fill="#000000" font-family="Arial" font-size="11" lengthAdjust="spacingAndGlyphs" textLength="55" x="947" y="934.4829">implements</text><path d="M693.573,841.535 C706.8,859.326 723.923,879.061 743,893 C817.669,947.557 1065.7,997.515 1215.68,1023.738 " fill="none" style="stroke: #000000; stroke-width: 1.0;"/><polygon fill="none" points="1217.2,1016.896,1235.71,1027.202,1214.81,1030.692,1217.2,1016.896" style="stroke: #000000; stroke-width: 1.0;"/><text fill="#000000" font-family="Arial" font-size="11" lengthAdjust="spacingAndGlyphs" textLength="55" x="835" y="934.4829">implements</text><path d="M2527.95,842.043 C2486.34,874.456 2424.09,917.293 2362,939 C2196.72,996.78 1685.76,1026.914 1452.41,1037.966 " fill="none" style="stroke: #000000; stroke-width: 1.0;"/><polygon fill="none" points="1452.7,1044.96,1432.4,1038.9,1452.05,1030.976,1452.7,1044.96" style="stroke: #000000; stroke-width: 1.0;"/><text fill="#000000" font-family="Arial" font-size="11" lengthAdjust="spacingAndGlyphs" textLength="55" x="2395" y="934.4829">implements</text><path d="M136.728,855.478 C139.268,907.126 142.935,981.686 144.805,1019.709 " fill="none" style="stroke: #000000; stroke-width: 1.0;"/><polygon fill="#000000" points="136.077,842.223,132.3766,848.4122,136.6665,854.2085,140.3669,848.0193,136.077,842.223" style="stroke: #000000; stroke-width: 1.0;"/><text fill="#000000" font-family="Arial" font-size="11" lengthAdjust="spacingAndGlyphs" textLength="18" x="142" y="934.4829">has</text><text fill="#000000" font-family="Arial" font-size="11" lengthAdjust="spacingAndGlyphs" textLength="6" x="145.4762" y="1008.7652">1</text><path d="M151.455,842.291 C167.192,874.617 193.628,917.215 231,939 C314.608,987.737 948.463,1024.121 1215.73,1037.453 " fill="none" style="stroke: #000000; stroke-width: 1.0;"/><polygon fill="none" points="1216.22,1030.469,1235.85,1038.448,1215.53,1044.451,1216.22,1030.469" style="stroke: #000000; stroke-width: 1.0;"/><text fill="#000000" font-family="Arial" font-size="11" lengthAdjust="spacingAndGlyphs" textLength="55" x="232" y="934.4829">implements</text><path d="M1622.32,624.854 C1631.84,636.082 1641.79,647.899 1651,659 C1678.03,691.59 1708.12,728.856 1730.6,756.889 " fill="none" style="stroke: #000000; stroke-width: 1.0;"/><polygon fill="#000000" points="1613.72,614.744,1614.5608,621.9059,1621.4952,623.8843,1620.6544,616.7224,1613.72,614.744" style="stroke: #000000; stroke-width: 1.0;"/><text fill="#000000" font-family="Arial" font-size="11" lengthAdjust="spacingAndGlyphs" textLength="18" x="1664" y="670.4829">has</text><text fill="#000000" font-family="Arial" font-size="11" lengthAdjust="spacingAndGlyphs" textLength="6" x="1721.2942" y="745.8101">1</text><path d="M1569.27,614.547 C1554.21,696.245 1521.15,869.149 1507,893 C1491.6,918.956 1470.11,942.71 1447.51,963.285 " fill="none" style="stroke: #000000; stroke-width: 1.0;"/><polygon fill="none" points="1451.82,968.81,1432.15,976.672,1442.63,958.255,1451.82,968.81" style="stroke: #000000; stroke-width: 1.0;"/><text fill="#000000" font-family="Arial" font-size="11" lengthAdjust="spacingAndGlyphs" textLength="55" x="1552" y="802.4829">implements</text><path d="M1935.72,870.922 C1922.09,879.068 1907.96,886.697 1894,893 C1748.35,958.747 1567.97,1000.638 1451.96,1022.975 " fill="none" style="stroke: #000000; stroke-width: 1.0;"/><polygon fill="none" points="1453.09,1029.885,1432.13,1026.722,1450.49,1016.129,1453.09,1029.885" style="stroke: #000000; stroke-width: 1.0;"/><text fill="#000000" font-family="Arial" font-size="11" lengthAdjust="spacingAndGlyphs" textLength="55" x="1807" y="934.4829">implements</text><path d="M362.095,586.011 C420.621,599.31 512.976,618.744 594,629 C665.773,638.085 1825.49,681.742 1894,705 C1909.3,710.194 1924.48,717.541 1938.9,725.876 " fill="none" style="stroke: #000000; stroke-width: 1.0;"/><polygon fill="#000000" points="349.055,583.023,354.0097,588.2623,360.7517,585.7039,355.797,580.4645,349.055,583.023" style="stroke: #000000; stroke-width: 1.0;"/><text fill="#000000" font-family="Arial" font-size="11" lengthAdjust="spacingAndGlyphs" textLength="18" x="1498" y="670.4829">has</text><text fill="#000000" font-family="Arial" font-size="11" lengthAdjust="spacingAndGlyphs" textLength="6" x="1921.8856" y="714.9309">1</text><path d="M335.032,612.801 C359.647,644.154 394.311,688.306 423.792,725.858 " fill="none" style="stroke: #000000; stroke-width: 1.0;"/><polygon fill="#000000" points="326.77,602.277,327.3296,609.4664,334.1811,611.715,333.6216,604.5256,326.77,602.277" style="stroke: #000000; stroke-width: 1.0;"/><text fill="#000000" font-family="Arial" font-size="11" lengthAdjust="spacingAndGlyphs" textLength="18" x="383" y="670.4829">has</text><text fill="#000000" font-family="Arial" font-size="11" lengthAdjust="spacingAndGlyphs" textLength="6" x="414.4946" y="714.7703">1</text><path d="M272.713,612.86 C242.652,653.416 196.747,715.347 166.076,756.726 " fill="none" style="stroke: #000000; stroke-width: 1.0;"/><polygon fill="#000000" points="280.558,602.277,273.7717,604.7154,273.4123,611.9175,280.1987,609.4791,280.558,602.277" style="stroke: #000000; stroke-width: 1.0;"/><text fill="#000000" font-family="Arial" font-size="11" lengthAdjust="spacingAndGlyphs" textLength="18" x="235" y="670.4829">has</text><text fill="#000000" font-family="Arial" font-size="11" lengthAdjust="spacingAndGlyphs" textLength="6" x="179.797" y="745.5864">1</text><path d="M292.931,602.258 C274.086,665.209 241.653,811.206 315,893 C374.533,959.389 959.966,1013.39 1215.6,1034 " fill="none" style="stroke: #000000; stroke-width: 1.0;"/><polygon fill="none" points="1216.25,1027.029,1235.63,1035.601,1215.13,1040.985,1216.25,1027.029" style="stroke: #000000; stroke-width: 1.0;"/><text fill="#000000" font-family="Arial" font-size="11" lengthAdjust="spacingAndGlyphs" textLength="55" x="316" y="802.4829">implements</text><path d="M2782.05,829.325 C2769.93,850.613 2750.8,877.881 2726,893 C2623.56,955.462 2578.94,923.248 2460,939 C2093.85,987.491 1657.73,1020.879 1452.24,1035.173 " fill="none" style="stroke: #000000; stroke-width: 1.0;"/><polygon fill="none" points="1452.63,1042.162,1432.19,1036.557,1451.66,1028.196,1452.63,1042.162" style="stroke: #000000; stroke-width: 1.0;"/><text fill="#000000" font-family="Arial" font-size="11" lengthAdjust="spacingAndGlyphs" textLength="55" x="2661" y="934.4829">implements</text><path d="M1102.34,286.034 C1014.89,349.188 840.896,474.853 755.146,536.784 " fill="none" style="stroke: #000000; stroke-width: 1.0;"/><polygon fill="#000000" points="1113.07,278.283,1105.8638,278.5482,1103.3369,285.3021,1110.5432,285.0369,1113.07,278.283" style="stroke: #000000; stroke-width: 1.0;"/><text fill="#000000" font-family="Arial" font-size="11" lengthAdjust="spacingAndGlyphs" textLength="18" x="839" y="480.4829">has</text><text fill="#000000" font-family="Arial" font-size="11" lengthAdjust="spacingAndGlyphs" textLength="6" x="780.4221" y="526.0618">1</text><path d="M1216.95,278.129 C1347.83,341.916 1644,487.051 1687,515 C1777.5,573.829 1871.62,652.395 1938.96,712.138 " fill="none" style="stroke: #000000; stroke-width: 1.0;"/><polygon fill="none" points="1943.94,707.197,1954.2,725.738,1934.62,717.641,1943.94,707.197" style="stroke: #000000; stroke-width: 1.0;"/><text fill="#000000" font-family="Arial" font-size="11" lengthAdjust="spacingAndGlyphs" textLength="55" x="1841" y="575.4829">implements</text><path d="M669.418,609.22 C640.651,638.503 599.043,680.857 562.336,718.223 " fill="none" style="stroke: #000000; stroke-width: 1.0;"/><polygon fill="none" points="567.028,723.436,548.018,732.798,557.04,713.625,567.028,723.436" style="stroke: #000000; stroke-width: 1.0;"/><text fill="#000000" font-family="Arial" font-size="11" lengthAdjust="spacingAndGlyphs" textLength="55" x="622" y="670.4829">implements</text><text fill="#888888" font-family="sans-serif" font-size="10" lengthAdjust="spacingAndGlyphs" textLength="83" x="1409" y="1168.53">Workflow example</text></g></svg>