<?xml version="1.0" encoding="UTF-8" standalone="yes"?><svg xmlns="http://www.w3.org/2000/svg" xmlns:xlink="http://www.w3.org/1999/xlink" height="151pt" style="width:253px;height:151px;" version="1.1" viewBox="0 0 253 151" width="253pt"><defs><filter height="300%" id="f1" width="300%" x="-1" y="-1"><feGaussianBlur result="blurOut" stdDeviation="2.0"/><feColorMatrix in="blurOut" result="blurOut2" type="matrix" values="0 0 0 0 0 0 0 0 0 0 0 0 0 0 0 0 0 0 .4 0"/><feOffset dx="4.0" dy="4.0" in="blurOut2" result="blurOut3"/><feBlend in="SourceGraphic" in2="blurOut3" mode="normal"/></filter></defs><g><polygon fill="#FFFFFF" filter="url(#f1)" points="22,24,170,24,177,42.6489,246,42.6489,246,144,22,144,22,24" style="stroke: #000000; stroke-width: 2.0;"/><line style="stroke: #000000; stroke-width: 2.0;" x1="22" x2="177" y1="42.6489" y2="42.6489"/><text fill="#000000" font-family="Arial" font-size="11" lengthAdjust="spacingAndGlyphs" textLength="142" x="25" y="37.3179">Terradue::TepQW::Controller</text><a target="_top" xlink:href="../information/classes/class_terradue_1_1_tep_q_w_1_1_controller_1_1_cloud_wps_factory.html" xlink:title="../information/classes/class_terradue_1_1_tep_q_w_1_1_controller_1_1_cloud_wps_factory.html"><rect fill="#EEEBDC" filter="url(#f1)" height="70.998" style="stroke: #919871; stroke-width: 1.5;" width="192" x="38" y="56.5"/><ellipse cx="85.75" cy="72.5" fill="#ADD1B2" rx="11" ry="11" style="stroke: #919871; stroke-width: 1.0;"/><path d="M88.7231,78.1431 Q88.1421,78.4419 87.5029,78.5913 Q86.8638,78.7407 86.1582,78.7407 Q83.6514,78.7407 82.3315,77.0889 Q81.0117,75.437 81.0117,72.3159 Q81.0117,69.1865 82.3315,67.5347 Q83.6514,65.8828 86.1582,65.8828 Q86.8638,65.8828 87.5112,66.0322 Q88.1587,66.1816 88.7231,66.4805 L88.7231,69.2031 Q88.0923,68.6221 87.4988,68.3523 Q86.9053,68.0825 86.2744,68.0825 Q84.9297,68.0825 84.2449,69.1492 Q83.5601,70.2158 83.5601,72.3159 Q83.5601,74.4077 84.2449,75.4744 Q84.9297,76.541 86.2744,76.541 Q86.9053,76.541 87.4988,76.2712 Q88.0923,76.0015 88.7231,75.4204 Z "/><text fill="#000000" font-family="Arial" font-size="11" lengthAdjust="spacingAndGlyphs" textLength="88" x="106.25" y="76.4934">CloudWpsFactory</text><line style="stroke: #919871; stroke-width: 1.5;" x1="39" x2="229" y1="88.5" y2="88.5"/><line style="stroke: #919871; stroke-width: 1.5;" x1="39" x2="229" y1="96.5" y2="96.5"/><ellipse cx="49" cy="107.5" fill="#84BE84" rx="3" ry="3" style="stroke: #038048; stroke-width: 1.0;"/><text fill="#000000" font-family="Arial" font-size="10" lengthAdjust="spacingAndGlyphs" textLength="89" x="58" y="110.1304">GetWPSFromVMs()</text><ellipse cx="49" cy="119.5" fill="#84BE84" rx="3" ry="3" style="stroke: #038048; stroke-width: 1.0;"/><text fill="#000000" font-family="Arial" font-size="10" lengthAdjust="spacingAndGlyphs" textLength="166" x="58" y="122.1304">CreateWpsProcessOfferingForOne()</text></a></g></svg>