<?xml version="1.0" encoding="UTF-8" standalone="yes"?><svg xmlns="http://www.w3.org/2000/svg" xmlns:xlink="http://www.w3.org/1999/xlink" height="290pt" style="width:278px;height:290px;" version="1.1" viewBox="0 0 278 290" width="278pt"><defs><filter height="300%" id="f1" width="300%" x="-1" y="-1"><feGaussianBlur result="blurOut" stdDeviation="2.0"/><feColorMatrix in="blurOut" result="blurOut2" type="matrix" values="0 0 0 0 0 0 0 0 0 0 0 0 0 0 0 0 0 0 .4 0"/><feOffset dx="4.0" dy="4.0" in="blurOut2" result="blurOut3"/><feBlend in="SourceGraphic" in2="blurOut3" mode="normal"/></filter></defs><g><polygon fill="#FFFFFF" filter="url(#f1)" points="22,24,107,24,114,43.6179,271,43.6179,271,283,22,283,22,24" style="stroke: #000000; stroke-width: 2.0;"/><line style="stroke: #000000; stroke-width: 2.0;" x1="22" x2="114" y1="43.6179" y2="43.6179"/><text fill="#000000" font-family="Arial" font-size="11" lengthAdjust="spacingAndGlyphs" textLength="79" x="25" y="37.4829">Terradue::Portal</text><a target="_top" xlink:href="../information/classes/class_terradue_1_1_portal_1_1_password_authentication_type.html" xlink:title="../information/classes/class_terradue_1_1_portal_1_1_password_authentication_type.html"><rect fill="#EEEBDC" filter="url(#f1)" height="85.14" style="stroke: #919871; stroke-width: 1.5;" width="174" x="59" y="57.5"/><ellipse cx="74" cy="73.5" fill="#ADD1B2" rx="11" ry="11" style="stroke: #919871; stroke-width: 1.0;"/><path d="M76.3438,69.1719 C75.4063,68.7344 74.8125,68.5938 73.9375,68.5938 C71.3125,68.5938 69.3125,70.6719 69.3125,73.3906 L69.3125,74.5156 C69.3125,77.0938 71.4219,78.9844 74.3125,78.9844 C75.5313,78.9844 76.6875,78.6875 77.4375,78.1406 C78.0156,77.7344 78.3438,77.2813 78.3438,76.8906 C78.3438,76.4375 77.9531,76.0469 77.4844,76.0469 C77.2656,76.0469 77.0625,76.125 76.875,76.3125 C76.4219,76.7969 76.4219,76.7969 76.2344,76.8906 C75.8125,77.1563 75.125,77.2813 74.3594,77.2813 C72.3125,77.2813 71.0156,76.1875 71.0156,74.4844 L71.0156,73.3906 C71.0156,71.6094 72.2656,70.2969 74,70.2969 C74.5781,70.2969 75.1875,70.4531 75.6563,70.7031 C76.1406,70.9844 76.3125,71.2031 76.4063,71.6094 C76.4688,72.0156 76.5,72.1406 76.6406,72.2656 C76.7813,72.4063 77.0156,72.5156 77.2344,72.5156 C77.5,72.5156 77.7656,72.375 77.9375,72.1563 C78.0469,72 78.0781,71.8125 78.0781,71.3906 L78.0781,69.9688 C78.0781,69.5313 78.0625,69.4063 77.9688,69.25 C77.8125,68.9844 77.5313,68.8438 77.2344,68.8438 C76.9375,68.8438 76.7344,68.9375 76.5156,69.25 L76.3438,69.1719 Z "/><text fill="#000000" font-family="Arial" font-size="11" lengthAdjust="spacingAndGlyphs" textLength="142" x="88" y="77.174">PasswordAuthenticationType</text><line style="stroke: #919871; stroke-width: 1.5;" x1="60" x2="232" y1="89.5" y2="89.5"/><ellipse cx="70" cy="100.69" fill="none" rx="3" ry="3" style="stroke: #038048; stroke-width: 1.0;"/><text fill="#000000" font-family="Arial" font-size="10" lengthAdjust="spacingAndGlyphs" textLength="130" x="79" y="103.03">ForceStrongPasswords:bool</text><ellipse cx="70" cy="113.07" fill="none" rx="3" ry="3" style="stroke: #038048; stroke-width: 1.0;"/><text fill="#000000" font-family="Arial" font-size="10" lengthAdjust="spacingAndGlyphs" textLength="110" x="79" y="115.41">PasswordExpireTime:int</text><ellipse cx="70" cy="125.45" fill="none" rx="3" ry="3" style="stroke: #038048; stroke-width: 1.0;"/><text fill="#000000" font-family="Arial" font-size="10" lengthAdjust="spacingAndGlyphs" textLength="92" x="79" y="127.79">MaxFailedLogins:int</text><line style="stroke: #919871; stroke-width: 1.5;" x1="60" x2="232" y1="134.64" y2="134.64"/></a><rect fill="#EEEBDC" filter="url(#f1)" height="48" style="stroke: #919871; stroke-width: 1.5;" width="125" x="38" y="219"/><ellipse cx="53" cy="235" fill="#ADD1B2" rx="11" ry="11" style="stroke: #919871; stroke-width: 1.0;"/><path d="M55.3438,230.6719 C54.4063,230.2344 53.8125,230.0938 52.9375,230.0938 C50.3125,230.0938 48.3125,232.1719 48.3125,234.8906 L48.3125,236.0156 C48.3125,238.5938 50.4219,240.4844 53.3125,240.4844 C54.5313,240.4844 55.6875,240.1875 56.4375,239.6406 C57.0156,239.2344 57.3438,238.7813 57.3438,238.3906 C57.3438,237.9375 56.9531,237.5469 56.4844,237.5469 C56.2656,237.5469 56.0625,237.625 55.875,237.8125 C55.4219,238.2969 55.4219,238.2969 55.2344,238.3906 C54.8125,238.6563 54.125,238.7813 53.3594,238.7813 C51.3125,238.7813 50.0156,237.6875 50.0156,235.9844 L50.0156,234.8906 C50.0156,233.1094 51.2656,231.7969 53,231.7969 C53.5781,231.7969 54.1875,231.9531 54.6563,232.2031 C55.1406,232.4844 55.3125,232.7031 55.4063,233.1094 C55.4688,233.5156 55.5,233.6406 55.6406,233.7656 C55.7813,233.9063 56.0156,234.0156 56.2344,234.0156 C56.5,234.0156 56.7656,233.875 56.9375,233.6563 C57.0469,233.5 57.0781,233.3125 57.0781,232.8906 L57.0781,231.4688 C57.0781,231.0313 57.0625,230.9063 56.9688,230.75 C56.8125,230.4844 56.5313,230.3438 56.2344,230.3438 C55.9375,230.3438 55.7344,230.4375 55.5156,230.75 L55.3438,230.6719 Z "/><text fill="#000000" font-family="Arial" font-size="11" lengthAdjust="spacingAndGlyphs" textLength="93" x="67" y="238.674">AuthenticationType</text><line style="stroke: #919871; stroke-width: 1.5;" x1="39" x2="162" y1="251" y2="251"/><line style="stroke: #919871; stroke-width: 1.5;" x1="39" x2="162" y1="259" y2="259"/><rect fill="#EEEBDC" filter="url(#f1)" height="48" style="stroke: #919871; stroke-width: 1.5;" width="59" x="197" y="219"/><ellipse cx="212" cy="235" fill="#ADD1B2" rx="11" ry="11" style="stroke: #919871; stroke-width: 1.0;"/><path d="M214.3438,230.6719 C213.4063,230.2344 212.8125,230.0938 211.9375,230.0938 C209.3125,230.0938 207.3125,232.1719 207.3125,234.8906 L207.3125,236.0156 C207.3125,238.5938 209.4219,240.4844 212.3125,240.4844 C213.5313,240.4844 214.6875,240.1875 215.4375,239.6406 C216.0156,239.2344 216.3438,238.7813 216.3438,238.3906 C216.3438,237.9375 215.9531,237.5469 215.4844,237.5469 C215.2656,237.5469 215.0625,237.625 214.875,237.8125 C214.4219,238.2969 214.4219,238.2969 214.2344,238.3906 C213.8125,238.6563 213.125,238.7813 212.3594,238.7813 C210.3125,238.7813 209.0156,237.6875 209.0156,235.9844 L209.0156,234.8906 C209.0156,233.1094 210.2656,231.7969 212,231.7969 C212.5781,231.7969 213.1875,231.9531 213.6563,232.2031 C214.1406,232.4844 214.3125,232.7031 214.4063,233.1094 C214.4688,233.5156 214.5,233.6406 214.6406,233.7656 C214.7813,233.9063 215.0156,234.0156 215.2344,234.0156 C215.5,234.0156 215.7656,233.875 215.9375,233.6563 C216.0469,233.5 216.0781,233.3125 216.0781,232.8906 L216.0781,231.4688 C216.0781,231.0313 216.0625,230.9063 215.9688,230.75 C215.8125,230.4844 215.5313,230.3438 215.2344,230.3438 C214.9375,230.3438 214.7344,230.4375 214.5156,230.75 L214.3438,230.6719 Z "/><text fill="#000000" font-family="Arial" font-size="11" lengthAdjust="spacingAndGlyphs" textLength="27" x="226" y="238.674">Entity</text><line style="stroke: #919871; stroke-width: 1.5;" x1="198" x2="255" y1="251" y2="251"/><line style="stroke: #919871; stroke-width: 1.5;" x1="198" x2="255" y1="259" y2="259"/><path d="M110.71,142.551 C104.6577,152.038 99.2714,162.435 96,173 C93.4637,181.191 92.6261,190.175 92.7445,198.895 " fill="none" style="stroke: #000000; stroke-width: 1.0;"/><polygon fill="none" points="99.7194,198.304,94.4934,218.8392,85.773,199.5272,99.7194,198.304" style="stroke: #000000; stroke-width: 1.0;"/><text fill="#000000" font-family="Arial" font-size="11" lengthAdjust="spacingAndGlyphs" textLength="55" x="97" y="184.4829">implements</text><path d="M169.786,142.518 C180.164,161.068 192.295,182.751 202.625,201.2178 " fill="none" style="stroke: #000000; stroke-width: 1.0;"/><polygon fill="none" points="208.751,197.831,212.407,218.7028,196.533,204.6661,208.751,197.831" style="stroke: #000000; stroke-width: 1.0;"/><text fill="#000000" font-family="Arial" font-size="11" lengthAdjust="spacingAndGlyphs" textLength="55" x="196" y="184.4829">implements</text></g></svg>