<?xml version="1.0" encoding="UTF-8" standalone="yes"?><svg xmlns="http://www.w3.org/2000/svg" xmlns:xlink="http://www.w3.org/1999/xlink" height="622pt" style="width:1626px;height:622px;" version="1.1" viewBox="0 0 1626 622" width="1626pt"><defs><filter height="300%" id="f1" width="300%" x="-1" y="-1"><feGaussianBlur result="blurOut" stdDeviation="2.0"/><feColorMatrix in="blurOut" result="blurOut2" type="matrix" values="0 0 0 0 0 0 0 0 0 0 0 0 0 0 0 0 0 0 .4 0"/><feOffset dx="4.0" dy="4.0" in="blurOut2" result="blurOut3"/><feBlend in="SourceGraphic" in2="blurOut3" mode="normal"/></filter></defs><g><polygon fill="#FFFFFF" filter="url(#f1)" points="858,24,897,24,904,46.4883,1379,46.4883,1379,506,858,506,858,24" style="stroke: #000000; stroke-width: 2.0;"/><line style="stroke: #000000; stroke-width: 2.0;" x1="858" x2="904" y1="46.4883" y2="46.4883"/><text fill="#000000" font-family="sans-serif" font-size="14" font-weight="bold" lengthAdjust="spacingAndGlyphs" textLength="33" x="862" y="39.5352">Core</text><polygon fill="#FFFFFF" filter="url(#f1)" points="137,168,187,168,194,190.4883,834,190.4883,834,264,137,264,137,168" style="stroke: #000000; stroke-width: 2.0;"/><line style="stroke: #000000; stroke-width: 2.0;" x1="137" x2="194" y1="190.4883" y2="190.4883"/><text fill="#000000" font-family="sans-serif" font-size="14" font-weight="bold" lengthAdjust="spacingAndGlyphs" textLength="44" x="141" y="183.5352">Model</text><polygon fill="#FFFFFF" filter="url(#f1)" points="54,24,144,24,151,46.4883,224,46.4883,224,120,54,120,54,24" style="stroke: #000000; stroke-width: 2.0;"/><line style="stroke: #000000; stroke-width: 2.0;" x1="54" x2="151" y1="46.4883" y2="46.4883"/><text fill="#000000" font-family="sans-serif" font-size="14" font-weight="bold" lengthAdjust="spacingAndGlyphs" textLength="84" x="58" y="39.5352">OpenSearch</text><a target="_top" xlink:href="../computational/components/group___authentication.html" xlink:title="../computational/components/group___authentication.html"><rect fill="#EEEBDC" filter="url(#f1)" height="42.6489" style="stroke: #919871; stroke-width: 1.5;" width="108" x="994" y="326.5"/><rect fill="#EEEBDC" height="10" style="stroke: #919871; stroke-width: 1.5;" width="15" x="1082" y="331.5"/><rect fill="#EEEBDC" height="2" style="stroke: #919871; stroke-width: 1.5;" width="4" x="1080" y="333.5"/><rect fill="#EEEBDC" height="2" style="stroke: #919871; stroke-width: 1.5;" width="4" x="1080" y="337.5"/><text fill="#000000" font-family="Arial" font-size="11" lengthAdjust="spacingAndGlyphs" textLength="68" x="1009" y="356.8179">Authentication</text></a><a target="_top" xlink:href="../computational/components/group___authorisation.html" xlink:title="../computational/components/group___authorisation.html"><rect fill="#EEEBDC" filter="url(#f1)" height="42.6489" style="stroke: #919871; stroke-width: 1.5;" width="103" x="1137.75" y="326.5"/><rect fill="#EEEBDC" height="10" style="stroke: #919871; stroke-width: 1.5;" width="15" x="1220.75" y="331.5"/><rect fill="#EEEBDC" height="2" style="stroke: #919871; stroke-width: 1.5;" width="4" x="1218.75" y="333.5"/><rect fill="#EEEBDC" height="2" style="stroke: #919871; stroke-width: 1.5;" width="4" x="1218.75" y="337.5"/><text fill="#000000" font-family="Arial" font-size="11" lengthAdjust="spacingAndGlyphs" textLength="63" x="1152.75" y="356.8179">Authorisation</text></a><a target="_top" xlink:href="../computational/components/group___context.html" xlink:title="../computational/components/group___context.html"><rect fill="#EEEBDC" filter="url(#f1)" height="42.6489" style="stroke: #919871; stroke-width: 1.5;" width="78" x="1155" y="204.5"/><rect fill="#EEEBDC" height="10" style="stroke: #919871; stroke-width: 1.5;" width="15" x="1213" y="209.5"/><rect fill="#EEEBDC" height="2" style="stroke: #919871; stroke-width: 1.5;" width="4" x="1211" y="211.5"/><rect fill="#EEEBDC" height="2" style="stroke: #919871; stroke-width: 1.5;" width="4" x="1211" y="215.5"/><text fill="#000000" font-family="Arial" font-size="11" lengthAdjust="spacingAndGlyphs" textLength="38" x="1170" y="234.8179">Context</text></a><a target="_top" xlink:href="../computational/components/group___persistence.html" xlink:title="../computational/components/group___persistence.html"><rect fill="#EEEBDC" filter="url(#f1)" height="42.6489" style="stroke: #919871; stroke-width: 1.5;" width="136" x="1068" y="446.5"/><rect fill="#EEEBDC" height="10" style="stroke: #919871; stroke-width: 1.5;" width="15" x="1184" y="451.5"/><rect fill="#EEEBDC" height="2" style="stroke: #919871; stroke-width: 1.5;" width="4" x="1182" y="453.5"/><rect fill="#EEEBDC" height="2" style="stroke: #919871; stroke-width: 1.5;" width="4" x="1182" y="457.5"/><text fill="#000000" font-family="Arial" font-size="11" lengthAdjust="spacingAndGlyphs" textLength="96" x="1083" y="476.8179">Persistence of Data</text></a><a target="_top" xlink:href="../computational/components/group___series.html" xlink:title="../computational/components/group___series.html"><rect fill="#EEEBDC" filter="url(#f1)" height="42.6489" style="stroke: #919871; stroke-width: 1.5;" width="71" x="1291.75" y="60.5"/><rect fill="#EEEBDC" height="10" style="stroke: #919871; stroke-width: 1.5;" width="15" x="1342.75" y="65.5"/><rect fill="#EEEBDC" height="2" style="stroke: #919871; stroke-width: 1.5;" width="4" x="1340.75" y="67.5"/><rect fill="#EEEBDC" height="2" style="stroke: #919871; stroke-width: 1.5;" width="4" x="1340.75" y="71.5"/><text fill="#000000" font-family="Arial" font-size="11" lengthAdjust="spacingAndGlyphs" textLength="31" x="1306.75" y="90.8179">Series</text></a><a target="_top" xlink:href="../computational/components/group___service.html" xlink:title="../computational/components/group___service.html"><rect fill="#EEEBDC" filter="url(#f1)" height="42.6489" style="stroke: #919871; stroke-width: 1.5;" width="77" x="914.75" y="204.5"/><rect fill="#EEEBDC" height="10" style="stroke: #919871; stroke-width: 1.5;" width="15" x="971.75" y="209.5"/><rect fill="#EEEBDC" height="2" style="stroke: #919871; stroke-width: 1.5;" width="4" x="969.75" y="211.5"/><rect fill="#EEEBDC" height="2" style="stroke: #919871; stroke-width: 1.5;" width="4" x="969.75" y="215.5"/><text fill="#000000" font-family="Arial" font-size="11" lengthAdjust="spacingAndGlyphs" textLength="37" x="929.75" y="234.8179">Service</text></a><a target="_top" xlink:href="../computational/components/group___web_context.html" xlink:title="../computational/components/group___web_context.html"><rect fill="#EEEBDC" filter="url(#f1)" height="42.6489" style="stroke: #919871; stroke-width: 1.5;" width="100" x="1156" y="60.5"/><rect fill="#EEEBDC" height="10" style="stroke: #919871; stroke-width: 1.5;" width="15" x="1236" y="65.5"/><rect fill="#EEEBDC" height="2" style="stroke: #919871; stroke-width: 1.5;" width="4" x="1234" y="67.5"/><rect fill="#EEEBDC" height="2" style="stroke: #919871; stroke-width: 1.5;" width="4" x="1234" y="71.5"/><text fill="#000000" font-family="Arial" font-size="11" lengthAdjust="spacingAndGlyphs" textLength="60" x="1171" y="90.8179">WebContext</text></a><a target="_top" xlink:href="../computational/components/group___wps_provider.html" xlink:title="../computational/components/group___wps_provider.html"><rect fill="#EEEBDC" filter="url(#f1)" height="42.6489" style="stroke: #919871; stroke-width: 1.5;" width="108" x="1013" y="60.5"/><rect fill="#EEEBDC" height="10" style="stroke: #919871; stroke-width: 1.5;" width="15" x="1101" y="65.5"/><rect fill="#EEEBDC" height="2" style="stroke: #919871; stroke-width: 1.5;" width="4" x="1099" y="67.5"/><rect fill="#EEEBDC" height="2" style="stroke: #919871; stroke-width: 1.5;" width="4" x="1099" y="71.5"/><text fill="#000000" font-family="Arial" font-size="11" lengthAdjust="spacingAndGlyphs" textLength="68" x="1028" y="90.8179">WPS Provider</text></a><a target="_top" xlink:href="../computational/components/group___wps_service.html" xlink:title="../computational/components/group___wps_service.html"><rect fill="#EEEBDC" filter="url(#f1)" height="42.6489" style="stroke: #919871; stroke-width: 1.5;" width="104" x="874" y="60.5"/><rect fill="#EEEBDC" height="10" style="stroke: #919871; stroke-width: 1.5;" width="15" x="958" y="65.5"/><rect fill="#EEEBDC" height="2" style="stroke: #919871; stroke-width: 1.5;" width="4" x="956" y="67.5"/><rect fill="#EEEBDC" height="2" style="stroke: #919871; stroke-width: 1.5;" width="4" x="956" y="71.5"/><text fill="#000000" font-family="Arial" font-size="11" lengthAdjust="spacingAndGlyphs" textLength="64" x="889" y="90.8179">WPS Service</text></a><a target="_top" xlink:href="../computational/components/group___o_w_s_context.html" xlink:title="../computational/components/group___o_w_s_context.html"><ellipse cx="523" cy="218" fill="#FEFECE" filter="url(#f1)" rx="8" ry="8" style="stroke: #A80036; stroke-width: 2.0;"/><text fill="#000000" font-family="sans-serif" font-size="14" lengthAdjust="spacingAndGlyphs" textLength="90" x="478" y="240.5352">OWS Context</text></a><polygon fill="#FBFB77" filter="url(#f1)" points="638,213.5,638,238.8105,818,238.8105,818,223.5,808,213.5,638,213.5" style="stroke: #A80036; stroke-width: 1.0;"/><polygon fill="#FBFB77" points="638,213.5,638,222,568.244,226,638,230,638,238.8105,818,238.8105,818,223.5,808,213.5,638,213.5" style="stroke: #A80036; stroke-width: 1.0;"/><line style="stroke: #A80036; stroke-width: 1.0;" x1="808" x2="808" y1="213.5" y2="223.5"/><line style="stroke: #A80036; stroke-width: 1.0;" x1="818" x2="808" y1="223.5" y2="223.5"/><a target="_top" xlink:href="../computational/components/group___o_w_s_context_atom_feed.html" xlink:title="../computational/components/group___o_w_s_context_atom_feed.html"><text fill="#0000FF" font-family="sans-serif" font-size="13" lengthAdjust="spacingAndGlyphs" text-decoration="underline" textLength="159" x="644" y="231.0684">(OWS Context Document)</text><line style="stroke: #0000FF; stroke-width: 1.0;" x1="644" x2="803" y1="233.0684" y2="233.0684"/></a><a target="_top" xlink:href="../computational/components/group___syndication.html" xlink:title="../computational/components/group___syndication.html"><rect fill="#EEEBDC" filter="url(#f1)" height="42.6489" style="stroke: #919871; stroke-width: 1.5;" width="124" x="153" y="204.5"/><rect fill="#EEEBDC" height="10" style="stroke: #919871; stroke-width: 1.5;" width="15" x="257" y="209.5"/><rect fill="#EEEBDC" height="2" style="stroke: #919871; stroke-width: 1.5;" width="4" x="255" y="211.5"/><rect fill="#EEEBDC" height="2" style="stroke: #919871; stroke-width: 1.5;" width="4" x="255" y="215.5"/><text fill="#000000" font-family="Arial" font-size="11" lengthAdjust="spacingAndGlyphs" textLength="84" x="168" y="234.8179">Syndication Feed</text></a><polygon fill="#FBFB77" filter="url(#f1)" points="347,213.5,347,238.8105,443,238.8105,443,223.5,433,213.5,347,213.5" style="stroke: #A80036; stroke-width: 1.0;"/><polygon fill="#FBFB77" points="347,213.5,347,222,277.227,226,347,230,347,238.8105,443,238.8105,443,223.5,433,213.5,347,213.5" style="stroke: #A80036; stroke-width: 1.0;"/><line style="stroke: #A80036; stroke-width: 1.0;" x1="433" x2="433" y1="213.5" y2="223.5"/><line style="stroke: #A80036; stroke-width: 1.0;" x1="443" x2="433" y1="223.5" y2="223.5"/><a target="_top" xlink:href="../computational/components/group___atom.html" xlink:title="../computational/components/group___atom.html"><text fill="#0000FF" font-family="sans-serif" font-size="13" lengthAdjust="spacingAndGlyphs" text-decoration="underline" textLength="75" x="353" y="231.0684">(Atom Feed)</text><line style="stroke: #0000FF; stroke-width: 1.0;" x1="353" x2="428" y1="233.0684" y2="233.0684"/></a><a target="_top" xlink:href="../computational/components/group___open_search_engine.html" xlink:title="../computational/components/group___open_search_engine.html"><rect fill="#EEEBDC" filter="url(#f1)" height="42.6489" style="stroke: #919871; stroke-width: 1.5;" width="138" x="70" y="60.5"/><rect fill="#EEEBDC" height="10" style="stroke: #919871; stroke-width: 1.5;" width="15" x="188" y="65.5"/><rect fill="#EEEBDC" height="2" style="stroke: #919871; stroke-width: 1.5;" width="4" x="186" y="67.5"/><rect fill="#EEEBDC" height="2" style="stroke: #919871; stroke-width: 1.5;" width="4" x="186" y="71.5"/><text fill="#000000" font-family="Arial" font-size="11" lengthAdjust="spacingAndGlyphs" textLength="98" x="85" y="90.8179">OpenSearch Engine</text></a><a target="_top" xlink:href="../computational/components/group___s_q_l_connector.html" xlink:title="../computational/components/group___s_q_l_connector.html"><ellipse cx="1136.25" cy="577" fill="#FEFECE" filter="url(#f1)" rx="8" ry="8" style="stroke: #A80036; stroke-width: 2.0;"/><text fill="#000000" font-family="sans-serif" font-size="14" lengthAdjust="spacingAndGlyphs" textLength="159" x="1056.75" y="599.5352">SQL interface to RDBMS</text></a><a target="_top" xlink:href="../computational/components/group___w_p_s.html" xlink:title="../computational/components/group___w_p_s.html"><ellipse cx="1510" cy="218" fill="#FEFECE" filter="url(#f1)" rx="8" ry="8" style="stroke: #A80036; stroke-width: 2.0;"/><text fill="#000000" font-family="sans-serif" font-size="14" lengthAdjust="spacingAndGlyphs" textLength="230" x="1395" y="240.5352">Web Processing Services Interface</text></a><a target="_top" xlink:href="../computational/components/group___open_searchable.html" xlink:title="../computational/components/group___open_searchable.html"><ellipse cx="62" cy="218" fill="#FEFECE" filter="url(#f1)" rx="8" ry="8" style="stroke: #A80036; stroke-width: 2.0;"/><text fill="#000000" font-family="sans-serif" font-size="14" lengthAdjust="spacingAndGlyphs" textLength="112" x="6" y="240.5352">OpenSearchable</text></a><path d="M1063.33,369.554 C1078.38,389.735 1101.36,420.544 1117.43,442.103 " fill="none" style="stroke: #000000; stroke-width: 1.0; stroke-dasharray: 7.0,7.0;"/><polygon fill="#000000" points="1120.55,446.286,1118.3818,436.6788,1117.5633,442.2761,1111.9659,441.4576,1120.55,446.286" style="stroke: #000000; stroke-width: 1.0;"/><text fill="#000000" font-family="Arial" font-size="11" lengthAdjust="spacingAndGlyphs" textLength="0" x="1101" y="411.8179"/><path d="M1179.77,369.554 C1170.78,389.567 1157.1,420.032 1147.43,441.562 " fill="none" style="stroke: #000000; stroke-width: 1.0; stroke-dasharray: 7.0,7.0;"/><polygon fill="#000000" points="1145.3,446.286,1152.6401,439.7192,1147.3512,441.7261,1145.3443,436.4372,1145.3,446.286" style="stroke: #000000; stroke-width: 1.0;"/><text fill="#000000" font-family="Arial" font-size="11" lengthAdjust="spacingAndGlyphs" textLength="0" x="1169" y="411.8179"/><path d="M1214.94,247.535 C1240.75,275.463 1278.8,326.885 1258,370 C1242.32,402.503 1209.87,427.466 1182.37,443.924 " fill="none" style="stroke: #000000; stroke-width: 1.0; stroke-dasharray: 7.0,7.0;"/><polygon fill="#000000" points="1178,446.492,1187.7868,445.3879,1182.3126,443.9619,1183.7386,438.4877,1178,446.492" style="stroke: #000000; stroke-width: 1.0;"/><text fill="#000000" font-family="Arial" font-size="11" lengthAdjust="spacingAndGlyphs" textLength="0" x="1267" y="351.8179"/><path d="M1193.14,247.629 C1192.29,267.977 1190.99,299.142 1190.08,321.136 " fill="none" style="stroke: #000000; stroke-width: 1.0; stroke-dasharray: 7.0,7.0;"/><polygon fill="#000000" points="1189.87,326.239,1194.2416,317.4135,1190.0784,321.2433,1186.2486,317.0801,1189.87,326.239" style="stroke: #000000; stroke-width: 1.0;"/><text fill="#000000" font-family="Arial" font-size="11" lengthAdjust="spacingAndGlyphs" textLength="0" x="1195" y="291.8179"/><path d="M1168.9,247.629 C1143.41,268.578 1103.98,300.993 1077.13,323.061 " fill="none" style="stroke: #000000; stroke-width: 1.0; stroke-dasharray: 7.0,7.0;"/><polygon fill="#000000" points="1073.26,326.239,1082.7542,323.6196,1077.1244,323.0663,1077.6778,317.4366,1073.26,326.239" style="stroke: #000000; stroke-width: 1.0;"/><text fill="#000000" font-family="Arial" font-size="11" lengthAdjust="spacingAndGlyphs" textLength="0" x="1129" y="291.8179"/><path d="M127.804,103.648 C112.371,132.109 84.8784,182.809 70.8159,208.742 " fill="none" style="stroke: #000000; stroke-width: 1.0;"/><text fill="#000000" font-family="Arial" font-size="11" lengthAdjust="spacingAndGlyphs" textLength="40" x="111" y="147.8179">process</text><path d="M150.051,103.648 C163.672,129.098 186.811,172.331 201.479,199.736 " fill="none" style="stroke: #000000; stroke-width: 1.0; stroke-dasharray: 7.0,7.0;"/><polygon fill="#000000" points="203.936,204.327,203.2149,194.5046,201.5762,199.9189,196.1619,198.2802,203.936,204.327" style="stroke: #000000; stroke-width: 1.0;"/><text fill="#000000" font-family="Arial" font-size="11" lengthAdjust="spacingAndGlyphs" textLength="24" x="176" y="147.8179">uses</text><path d="M1136,489.56 C1136,511.9132 1136,547.1836 1136,567.7045 " fill="none" style="stroke: #000000; stroke-width: 1.0;"/><text fill="#000000" font-family="Arial" font-size="11" lengthAdjust="spacingAndGlyphs" textLength="45" x="1137" y="533.8179">connects</text><path d="M950.057,247.622 C946.94,277.263 945.401,332.466 970,370 C992.939,405.001 1033.22,428.983 1068.36,444.346 " fill="none" style="stroke: #000000; stroke-width: 1.0; stroke-dasharray: 7.0,7.0;"/><polygon fill="#000000" points="1073.06,446.363,1066.3666,439.1381,1068.4652,444.3913,1063.212,446.4899,1073.06,446.363" style="stroke: #000000; stroke-width: 1.0;"/><text fill="#000000" font-family="Arial" font-size="11" lengthAdjust="spacingAndGlyphs" textLength="0" x="974" y="351.8179"/><path d="M991.443,246.547 C1033.24,267.8 1099.96,301.728 1144.13,324.184 " fill="none" style="stroke: #000000; stroke-width: 1.0; stroke-dasharray: 7.0,7.0;"/><polygon fill="#000000" points="1148.6,326.456,1142.378,318.8214,1144.1394,324.1971,1138.7637,325.9585,1148.6,326.456" style="stroke: #000000; stroke-width: 1.0;"/><text fill="#000000" font-family="Arial" font-size="11" lengthAdjust="spacingAndGlyphs" textLength="0" x="1089" y="291.8179"/><path d="M1204.26,103.648 C1202.12,128.888 1198.51,171.618 1196.19,199.053 " fill="none" style="stroke: #000000; stroke-width: 1.0; stroke-dasharray: 7.0,7.0;"/><polygon fill="#000000" points="1195.75,204.327,1200.4938,195.6959,1196.1711,199.3448,1192.5223,195.0221,1195.75,204.327" style="stroke: #000000; stroke-width: 1.0;"/><text fill="#000000" font-family="Arial" font-size="11" lengthAdjust="spacingAndGlyphs" textLength="0" x="1205" y="147.8179"/><path d="M1040.86,103.639 C1027.83,112.763 1011.39,122.625 995,128 C950.108,142.726 935.904,130.333 889,136 C846.057,141.188 836.014,147.437 793,152 C754.729,156.06 656.552,147.956 620,160 C591.361,169.437 563.254,189.852 544.73,205.302 " fill="none" style="stroke: #000000; stroke-width: 1.0; stroke-dasharray: 7.0,7.0;"/><polygon fill="#000000" points="540.695,208.716,550.1492,205.9559,544.5119,205.4862,544.9816,199.8489,540.695,208.716" style="stroke: #000000; stroke-width: 1.0;"/><text fill="#000000" font-family="Arial" font-size="11" lengthAdjust="spacingAndGlyphs" textLength="37" x="890" y="147.8179">exports</text><path d="M1041.3,103.734 C1028.24,113.001 1011.65,122.956 995,128 C966.489,136.639 756.733,134.134 727,136 C652.584,140.67 634.44,147.736 560,152 C536.534,153.344 158.943,151.577 137,160 C111.101,169.941 88.1141,193.087 74.6198,208.897 " fill="none" style="stroke: #000000; stroke-width: 1.0;"/><text fill="#000000" font-family="Arial" font-size="11" lengthAdjust="spacingAndGlyphs" textLength="55" x="728" y="147.8179">implements</text><path d="M1093.54,103.658 C1106.53,112.669 1122.83,122.431 1139,128 C1171.11,139.062 1181.3,131.762 1215,136 C1288.09,145.191 1308.69,138.023 1379,160 C1417.29,171.968 1458.21,193.923 1483.94,208.978 " fill="none" style="stroke: #000000; stroke-width: 1.0;"/><text fill="#000000" font-family="Arial" font-size="11" lengthAdjust="spacingAndGlyphs" textLength="55" x="1349" y="147.8179">implements</text><path d="M929.926,103.648 C934.745,128.993 942.918,171.974 948.132,199.396 " fill="none" style="stroke: #000000; stroke-width: 1.0; stroke-dasharray: 7.0,7.0;"/><polygon fill="#000000" points="949.069,204.327,951.3167,194.738,948.1346,199.4151,943.4576,196.2331,949.069,204.327" style="stroke: #000000; stroke-width: 1.0;"/><text fill="#000000" font-family="Arial" font-size="11" lengthAdjust="spacingAndGlyphs" textLength="39" x="940" y="147.8179">extends</text><path d="M873.923,85.879 C768.03,92.266 535.578,109.211 512,136 C495.716,154.502 503.778,184.155 512.303,204.093 " fill="none" style="stroke: #000000; stroke-width: 1.0; stroke-dasharray: 7.0,7.0;"/><polygon fill="#000000" points="514.35,208.69,514.3431,198.8411,512.3161,204.1224,507.0349,202.0953,514.35,208.69" style="stroke: #000000; stroke-width: 1.0;"/><text fill="#000000" font-family="Arial" font-size="11" lengthAdjust="spacingAndGlyphs" textLength="37" x="513" y="147.8179">exports</text><path d="M873.937,87.976 C698.741,104.734 141.263,158.169 137,160 C111.827,170.812 88.9921,193.268 75.3012,208.733 " fill="none" style="stroke: #000000; stroke-width: 1.0;"/><text fill="#000000" font-family="Arial" font-size="11" lengthAdjust="spacingAndGlyphs" textLength="55" x="374" y="147.8179">implements</text><text fill="#888888" font-family="sans-serif" font-size="10" lengthAdjust="spacingAndGlyphs" textLength="100" x="771.5" y="621.668">Component Diagram</text></g></svg>