<?xml version="1.0" encoding="UTF-8" standalone="yes"?><svg xmlns="http://www.w3.org/2000/svg" xmlns:xlink="http://www.w3.org/1999/xlink" height="673pt" style="width:936px;height:673px;" version="1.1" viewBox="0 0 936 673" width="936pt"><defs><filter height="300%" id="f1" width="300%" x="-1" y="-1"><feGaussianBlur result="blurOut" stdDeviation="2.0"/><feColorMatrix in="blurOut" result="blurOut2" type="matrix" values="0 0 0 0 0 0 0 0 0 0 0 0 0 0 0 0 0 0 .4 0"/><feOffset dx="4.0" dy="4.0" in="blurOut2" result="blurOut3"/><feBlend in="SourceGraphic" in2="blurOut3" mode="normal"/></filter></defs><g><text fill="#000000" font-family="sans-serif" font-size="14" font-weight="bold" lengthAdjust="spacingAndGlyphs" textLength="278" x="329" y="20.7059">runJob - On-demand computing element</text><rect fill="#FFFFFF" filter="url(#f1)" height="30.094" style="stroke: #A80036; stroke-width: 1.0;" width="10" x="386" y="178.4299"/><rect fill="#FFFFFF" filter="url(#f1)" height="30.094" style="stroke: #A80036; stroke-width: 1.0;" width="10" x="511" y="238.6179"/><rect fill="#FFFFFF" filter="url(#f1)" height="151.0941" style="stroke: #A80036; stroke-width: 1.0;" width="10" x="633" y="358.9939"/><line style="stroke: #A80036; stroke-width: 1.0; stroke-dasharray: 5.0,5.0;" x1="35" x2="35" y1="116.3358" y2="588.37"/><line style="stroke: #A80036; stroke-width: 1.0; stroke-dasharray: 5.0,5.0;" x1="268" x2="268" y1="116.3358" y2="588.37"/><line style="stroke: #A80036; stroke-width: 1.0; stroke-dasharray: 5.0,5.0;" x1="390.5" x2="390.5" y1="116.3358" y2="588.37"/><line style="stroke: #A80036; stroke-width: 1.0; stroke-dasharray: 5.0,5.0;" x1="515.5" x2="515.5" y1="116.3358" y2="588.37"/><line style="stroke: #A80036; stroke-width: 1.0; stroke-dasharray: 5.0,5.0;" x1="637.5" x2="637.5" y1="116.3358" y2="588.37"/><line style="stroke: #A80036; stroke-width: 1.0; stroke-dasharray: 5.0,5.0;" x1="864.5" x2="864.5" y1="116.3358" y2="588.37"/><text fill="#000000" font-family="sans-serif" font-size="14" lengthAdjust="spacingAndGlyphs" textLength="54" x="5" y="112.3459">endUser</text><ellipse cx="35" cy="42.0039" fill="#FEFECE" filter="url(#f1)" rx="8" ry="8" style="stroke: #A80036; stroke-width: 2.0;"/><path d="M35,50.0039 L35,77.0039 M22,58.0039 L48,58.0039 M35,77.0039 L22,92.0039 M35,77.0039 L48,92.0039 " fill="#FEFECE" filter="url(#f1)" style="stroke: #A80036; stroke-width: 2.0;"/><text fill="#000000" font-family="sans-serif" font-size="14" lengthAdjust="spacingAndGlyphs" textLength="54" x="5" y="600.0139">endUser</text><ellipse cx="35" cy="614.0039" fill="#FEFECE" filter="url(#f1)" rx="8" ry="8" style="stroke: #A80036; stroke-width: 2.0;"/><path d="M35,622.0039 L35,649.0039 M22,630.0039 L48,630.0039 M35,649.0039 L22,664.0039 M35,649.0039 L48,664.0039 " fill="#FEFECE" filter="url(#f1)" style="stroke: #A80036; stroke-width: 2.0;"/><text fill="#000000" font-family="sans-serif" font-size="14" lengthAdjust="spacingAndGlyphs" textLength="76" x="227" y="112.3459">geoBrowser</text><path d="M247.5,71.0039 L247.5,95.0039 M247.5,83.0039 L264.5,83.0039 " fill="#FEFECE" filter="url(#f1)" style="stroke: #A80036; stroke-width: 2.0;"/><ellipse cx="276.5" cy="83.0039" fill="#FEFECE" filter="url(#f1)" rx="12" ry="12" style="stroke: #A80036; stroke-width: 2.0;"/><text fill="#000000" font-family="sans-serif" font-size="14" lengthAdjust="spacingAndGlyphs" textLength="76" x="227" y="600.0139">geoBrowser</text><path d="M247.5,608.0039 L247.5,632.0039 M247.5,620.0039 L264.5,620.0039 " fill="#FEFECE" filter="url(#f1)" style="stroke: #A80036; stroke-width: 2.0;"/><ellipse cx="276.5" cy="620.0039" fill="#FEFECE" filter="url(#f1)" rx="12" ry="12" style="stroke: #A80036; stroke-width: 2.0;"/><text fill="#000000" font-family="sans-serif" font-size="14" lengthAdjust="spacingAndGlyphs" textLength="123" x="326.5" y="112.3459">processingServices</text><ellipse cx="391" cy="83.0039" fill="#FEFECE" filter="url(#f1)" rx="12" ry="12" style="stroke: #A80036; stroke-width: 2.0;"/><polygon fill="#A80036" points="387,71.0039,393,66.0039,391,71.0039,393,76.0039,387,71.0039" style="stroke: #A80036; stroke-width: 1.0;"/><text fill="#000000" font-family="sans-serif" font-size="14" lengthAdjust="spacingAndGlyphs" textLength="123" x="326.5" y="600.0139">processingServices</text><ellipse cx="391" cy="620.0039" fill="#FEFECE" filter="url(#f1)" rx="12" ry="12" style="stroke: #A80036; stroke-width: 2.0;"/><polygon fill="#A80036" points="387,608.0039,393,603.0039,391,608.0039,393,613.0039,387,608.0039" style="stroke: #A80036; stroke-width: 1.0;"/><text fill="#000000" font-family="sans-serif" font-size="14" lengthAdjust="spacingAndGlyphs" textLength="95" x="465.5" y="112.3459">eoDataContext</text><ellipse cx="516" cy="83.0039" fill="#FEFECE" filter="url(#f1)" rx="12" ry="12" style="stroke: #A80036; stroke-width: 2.0;"/><polygon fill="#A80036" points="512,71.0039,518,66.0039,516,71.0039,518,76.0039,512,71.0039" style="stroke: #A80036; stroke-width: 1.0;"/><text fill="#000000" font-family="sans-serif" font-size="14" lengthAdjust="spacingAndGlyphs" textLength="95" x="465.5" y="600.0139">eoDataContext</text><ellipse cx="516" cy="620.0039" fill="#FEFECE" filter="url(#f1)" rx="12" ry="12" style="stroke: #A80036; stroke-width: 2.0;"/><polygon fill="#A80036" points="512,608.0039,518,603.0039,516,608.0039,518,613.0039,512,608.0039" style="stroke: #A80036; stroke-width: 1.0;"/><text fill="#000000" font-family="sans-serif" font-size="14" lengthAdjust="spacingAndGlyphs" textLength="93" x="588.5" y="112.3459">cloudControler</text><ellipse cx="638" cy="83.0039" fill="#FEFECE" filter="url(#f1)" rx="12" ry="12" style="stroke: #A80036; stroke-width: 2.0;"/><polygon fill="#A80036" points="634,71.0039,640,66.0039,638,71.0039,640,76.0039,634,71.0039" style="stroke: #A80036; stroke-width: 1.0;"/><text fill="#000000" font-family="sans-serif" font-size="14" lengthAdjust="spacingAndGlyphs" textLength="93" x="588.5" y="600.0139">cloudControler</text><ellipse cx="638" cy="620.0039" fill="#FEFECE" filter="url(#f1)" rx="12" ry="12" style="stroke: #A80036; stroke-width: 2.0;"/><polygon fill="#A80036" points="634,608.0039,640,603.0039,638,608.0039,640,613.0039,634,608.0039" style="stroke: #A80036; stroke-width: 1.0;"/><rect fill="#FEFECE" filter="url(#f1)" height="31.3319" style="stroke: #A80036; stroke-width: 1.5;" width="129" x="798.5" y="80.0039"/><text fill="#000000" font-family="sans-serif" font-size="14" lengthAdjust="spacingAndGlyphs" textLength="115" x="805.5" y="100.3459">userCloudStorage</text><rect fill="#FEFECE" filter="url(#f1)" height="31.3319" style="stroke: #A80036; stroke-width: 1.5;" width="129" x="798.5" y="586.672"/><text fill="#000000" font-family="sans-serif" font-size="14" lengthAdjust="spacingAndGlyphs" textLength="115" x="805.5" y="607.0139">userCloudStorage</text><rect fill="#FFFFFF" filter="url(#f1)" height="30.094" style="stroke: #A80036; stroke-width: 1.0;" width="10" x="386" y="178.4299"/><rect fill="#FFFFFF" filter="url(#f1)" height="30.094" style="stroke: #A80036; stroke-width: 1.0;" width="10" x="511" y="238.6179"/><rect fill="#FFFFFF" filter="url(#f1)" height="151.0941" style="stroke: #A80036; stroke-width: 1.0;" width="10" x="633" y="358.9939"/><polygon fill="#A80036" points="46,144.3358,36,148.3358,46,152.3358,42,148.3358" style="stroke: #A80036; stroke-width: 1.0;"/><polygon fill="#A80036" points="256,144.3358,266,148.3358,256,152.3358,260,148.3358" style="stroke: #A80036; stroke-width: 1.0;"/><line style="stroke: #A80036; stroke-width: 1.0;" x1="40" x2="262" y1="148.3358" y2="148.3358"/><text fill="#000000" font-family="sans-serif" font-size="13" lengthAdjust="spacingAndGlyphs" textLength="43" x="52" y="142.7249">interact</text><polygon fill="#A80036" points="374,174.4299,384,178.4299,374,182.4299,378,178.4299" style="stroke: #A80036; stroke-width: 1.0;"/><line style="stroke: #A80036; stroke-width: 1.0;" x1="268" x2="380" y1="178.4299" y2="178.4299"/><text fill="#000000" font-family="sans-serif" font-size="13" lengthAdjust="spacingAndGlyphs" textLength="94" x="275" y="172.8189">selectProcessor</text><polygon fill="#A80036" points="279,204.5239,269,208.5239,279,212.5239,275,208.5239" style="stroke: #A80036; stroke-width: 1.0;"/><line style="stroke: #A80036; stroke-width: 1.0; stroke-dasharray: 2.0,2.0;" x1="273" x2="390" y1="208.5239" y2="208.5239"/><text fill="#000000" font-family="sans-serif" font-size="13" lengthAdjust="spacingAndGlyphs" textLength="49" x="285" y="202.9129">selected</text><polygon fill="#A80036" points="499,234.6179,509,238.6179,499,242.6179,503,238.6179" style="stroke: #A80036; stroke-width: 1.0;"/><line style="stroke: #A80036; stroke-width: 1.0;" x1="268" x2="505" y1="238.6179" y2="238.6179"/><text fill="#000000" font-family="sans-serif" font-size="13" lengthAdjust="spacingAndGlyphs" textLength="87" x="275" y="233.0069">selectDatasets</text><polygon fill="#A80036" points="279,264.7119,269,268.7119,279,272.7119,275,268.7119" style="stroke: #A80036; stroke-width: 1.0;"/><line style="stroke: #A80036; stroke-width: 1.0; stroke-dasharray: 2.0,2.0;" x1="273" x2="515" y1="268.7119" y2="268.7119"/><text fill="#000000" font-family="sans-serif" font-size="13" lengthAdjust="spacingAndGlyphs" textLength="49" x="285" y="263.1009">selected</text><polygon fill="#A80036" points="256,294.8059,266,298.8059,256,302.8059,260,298.8059" style="stroke: #A80036; stroke-width: 1.0;"/><line style="stroke: #A80036; stroke-width: 1.0;" x1="35" x2="262" y1="298.8059" y2="298.8059"/><text fill="#000000" font-family="sans-serif" font-size="13" lengthAdjust="spacingAndGlyphs" textLength="161" x="42" y="293.1949">Allocate selected input data</text><polygon fill="#A80036" points="256,324.8999,266,328.8999,256,332.8999,260,328.8999" style="stroke: #A80036; stroke-width: 1.0;"/><line style="stroke: #A80036; stroke-width: 1.0;" x1="35" x2="262" y1="328.8999" y2="328.8999"/><text fill="#000000" font-family="sans-serif" font-size="13" lengthAdjust="spacingAndGlyphs" textLength="39" x="42" y="323.2889">runJob</text><polygon fill="#A80036" points="621,354.9939,631,358.9939,621,362.9939,625,358.9939" style="stroke: #A80036; stroke-width: 1.0;"/><line style="stroke: #A80036; stroke-width: 1.0;" x1="268" x2="627" y1="358.9939" y2="358.9939"/><text fill="#000000" font-family="sans-serif" font-size="13" lengthAdjust="spacingAndGlyphs" textLength="341" x="275" y="353.3829">provision grid computing element with input data parameter</text><line style="stroke: #A80036; stroke-width: 1.0;" x1="643" x2="685" y1="389.182" y2="389.182"/><line style="stroke: #A80036; stroke-width: 1.0;" x1="685" x2="685" y1="389.182" y2="402.182"/><line style="stroke: #A80036; stroke-width: 1.0;" x1="644" x2="685" y1="402.182" y2="402.182"/><polygon fill="#A80036" points="654,398.182,644,402.182,654,406.182,650,402.182" style="stroke: #A80036; stroke-width: 1.0;"/><text fill="#000000" font-family="sans-serif" font-size="13" lengthAdjust="spacingAndGlyphs" textLength="203" x="650" y="383.477">validate request against user quota</text><rect fill="#FFFFFF" filter="url(#f1)" height="42.812" style="stroke: #000000; stroke-width: 2.0;" width="159" x="585.5" y="410.182"/><polygon fill="#EEEEEE" points="585.5,410.182,646.5,410.182,646.5,418.182,636.5,428.182,585.5,428.182,585.5,410.182" style="stroke: #000000; stroke-width: 2.0;"/><text fill="#000000" font-family="sans-serif" font-size="13" font-weight="bold" lengthAdjust="spacingAndGlyphs" textLength="16" x="598.5" y="424.909">ref</text><text fill="#000000" font-family="sans-serif" font-size="13" lengthAdjust="spacingAndGlyphs" textLength="151" x="591.5" y="444.571">warning if quota exceeded</text><polygon fill="#A80036" points="853,475.994,863,479.994,853,483.994,857,479.994" style="stroke: #A80036; stroke-width: 1.0;"/><line style="stroke: #A80036; stroke-width: 1.0; stroke-dasharray: 2.0,2.0;" x1="643" x2="859" y1="479.994" y2="479.994"/><text fill="#000000" font-family="sans-serif" font-size="13" lengthAdjust="spacingAndGlyphs" textLength="83" x="650" y="474.383">Deliver results</text><polygon fill="#A80036" points="279,506.088,269,510.088,279,514.088,275,510.088" style="stroke: #A80036; stroke-width: 1.0;"/><line style="stroke: #A80036; stroke-width: 1.0; stroke-dasharray: 2.0,2.0;" x1="273" x2="637" y1="510.088" y2="510.088"/><text fill="#000000" font-family="sans-serif" font-size="13" lengthAdjust="spacingAndGlyphs" textLength="117" x="285" y="504.477">Reference to results</text><polygon fill="#A80036" points="853,536.182,863,540.182,853,544.182,857,540.182" style="stroke: #A80036; stroke-width: 1.0;"/><line style="stroke: #A80036; stroke-width: 1.0;" x1="35" x2="859" y1="540.182" y2="540.182"/><text fill="#000000" font-family="sans-serif" font-size="13" lengthAdjust="spacingAndGlyphs" textLength="219" x="42" y="534.571">access generated EO-based products</text><polygon fill="#A80036" points="256,566.276,266,570.276,256,574.276,260,570.276" style="stroke: #A80036; stroke-width: 1.0;"/><line style="stroke: #A80036; stroke-width: 1.0;" x1="35" x2="262" y1="570.276" y2="570.276"/><text fill="#000000" font-family="sans-serif" font-size="13" lengthAdjust="spacingAndGlyphs" textLength="209" x="42" y="564.665">share generated EO-based products</text></g></svg>