<?xml version="1.0" encoding="UTF-8" standalone="yes"?><svg xmlns="http://www.w3.org/2000/svg" xmlns:xlink="http://www.w3.org/1999/xlink" height="979pt" style="width:2132px;height:979px;" version="1.1" viewBox="0 0 2132 979" width="2132pt"><defs><filter height="300%" id="f1" width="300%" x="-1" y="-1"><feGaussianBlur result="blurOut" stdDeviation="2.0"/><feColorMatrix in="blurOut" result="blurOut2" type="matrix" values="0 0 0 0 0 0 0 0 0 0 0 0 0 0 0 0 0 0 .4 0"/><feOffset dx="4.0" dy="4.0" in="blurOut2" result="blurOut3"/><feBlend in="SourceGraphic" in2="blurOut3" mode="normal"/></filter></defs><g><polygon fill="#FFFFFF" filter="url(#f1)" points="22,24,107,24,114,43.6179,2125,43.6179,2125,943,22,943,22,24" style="stroke: #000000; stroke-width: 2.0;"/><line style="stroke: #000000; stroke-width: 2.0;" x1="22" x2="114" y1="43.6179" y2="43.6179"/><text fill="#000000" font-family="Arial" font-size="11" lengthAdjust="spacingAndGlyphs" textLength="79" x="25" y="37.4829">Terradue::Portal</text><a xlink:href="../information/classes/class_terradue_1_1_portal_1_1_entity.html" xlink:title="../information/classes/class_terradue_1_1_portal_1_1_entity.html"><rect fill="#EEEBDC" filter="url(#f1)" height="147.0399" style="stroke: #919871; stroke-width: 1.5;" width="196" x="1396" y="57.5"/><ellipse cx="1476.25" cy="73.5" fill="#ADD1B2" rx="11" ry="11" style="stroke: #919871; stroke-width: 1.0;"/><path d="M1478.5938,69.1719 C1477.6563,68.7344 1477.0625,68.5938 1476.1875,68.5938 C1473.5625,68.5938 1471.5625,70.6719 1471.5625,73.3906 L1471.5625,74.5156 C1471.5625,77.0938 1473.6719,78.9844 1476.5625,78.9844 C1477.7813,78.9844 1478.9375,78.6875 1479.6875,78.1406 C1480.2656,77.7344 1480.5938,77.2813 1480.5938,76.8906 C1480.5938,76.4375 1480.2031,76.0469 1479.7344,76.0469 C1479.5156,76.0469 1479.3125,76.125 1479.125,76.3125 C1478.6719,76.7969 1478.6719,76.7969 1478.4844,76.8906 C1478.0625,77.1563 1477.375,77.2813 1476.6094,77.2813 C1474.5625,77.2813 1473.2656,76.1875 1473.2656,74.4844 L1473.2656,73.3906 C1473.2656,71.6094 1474.5156,70.2969 1476.25,70.2969 C1476.8281,70.2969 1477.4375,70.4531 1477.9063,70.7031 C1478.3906,70.9844 1478.5625,71.2031 1478.6563,71.6094 C1478.7188,72.0156 1478.75,72.1406 1478.8906,72.2656 C1479.0313,72.4063 1479.2656,72.5156 1479.4844,72.5156 C1479.75,72.5156 1480.0156,72.375 1480.1875,72.1563 C1480.2969,72 1480.3281,71.8125 1480.3281,71.3906 L1480.3281,69.9688 C1480.3281,69.5313 1480.3125,69.4063 1480.2188,69.25 C1480.0625,68.9844 1479.7813,68.8438 1479.4844,68.8438 C1479.1875,68.8438 1478.9844,68.9375 1478.7656,69.25 L1478.5938,69.1719 Z "/><text fill="#000000" font-family="Arial" font-size="11" lengthAdjust="spacingAndGlyphs" textLength="27" x="1496.75" y="77.174">Entity</text><line style="stroke: #919871; stroke-width: 1.5;" x1="1397" x2="1591" y1="89.5" y2="89.5"/><ellipse cx="1407" cy="100.69" fill="none" rx="3" ry="3" style="stroke: #038048; stroke-width: 1.0;"/><text fill="#000000" font-family="Arial" font-size="10" lengthAdjust="spacingAndGlyphs" textLength="68" x="1416" y="103.03">Identifier:string</text><ellipse cx="1407" cy="113.07" fill="none" rx="3" ry="3" style="stroke: #038048; stroke-width: 1.0;"/><text fill="#000000" font-family="Arial" font-size="10" lengthAdjust="spacingAndGlyphs" textLength="55" x="1416" y="115.41">Name:string</text><line style="stroke: #919871; stroke-width: 1.5;" x1="1397" x2="1591" y1="122.26" y2="122.26"/><ellipse cx="1407" cy="133.45" fill="#84BE84" rx="3" ry="3" style="stroke: #038048; stroke-width: 1.0;"/><text fill="#000000" font-family="Arial" font-size="10" lengthAdjust="spacingAndGlyphs" textLength="30" x="1416" y="135.79">Load()</text><ellipse cx="1407" cy="145.83" fill="#84BE84" rx="3" ry="3" style="stroke: #038048; stroke-width: 1.0;"/><text fill="#000000" font-family="Arial" font-size="10" lengthAdjust="spacingAndGlyphs" textLength="31" x="1416" y="148.17">Store()</text><ellipse cx="1407" cy="158.2099" fill="#84BE84" rx="3" ry="3" style="stroke: #038048; stroke-width: 1.0;"/><text fill="#000000" font-family="Arial" font-size="10" lengthAdjust="spacingAndGlyphs" textLength="105" x="1416" y="160.5499">StoreGlobalPrivileges()</text><ellipse cx="1407" cy="170.5899" fill="#84BE84" rx="3" ry="3" style="stroke: #038048; stroke-width: 1.0;"/><text fill="#000000" font-family="Arial" font-size="10" lengthAdjust="spacingAndGlyphs" textLength="118" x="1416" y="172.9299">RemoveGlobalPrivileges()</text><ellipse cx="1407" cy="182.9699" fill="#84BE84" rx="3" ry="3" style="stroke: #038048; stroke-width: 1.0;"/><text fill="#000000" font-family="Arial" font-size="10" lengthAdjust="spacingAndGlyphs" textLength="36" x="1416" y="185.3099">Delete()</text><ellipse cx="1407" cy="195.3499" fill="#84BE84" rx="3" ry="3" style="stroke: #038048; stroke-width: 1.0;"/><text fill="#000000" font-family="Arial" font-size="10" lengthAdjust="spacingAndGlyphs" textLength="170" x="1416" y="197.6899">GetAllowedAdministratorOperations()</text></a><a xlink:href="../information/classes/class_terradue_1_1_portal_1_1_remote_resource.html" xlink:title="../information/classes/class_terradue_1_1_portal_1_1_remote_resource.html"><rect fill="#EEEBDC" filter="url(#f1)" height="72.76" style="stroke: #919871; stroke-width: 1.5;" width="118" x="1243" y="94.5"/><ellipse cx="1258" cy="110.5" fill="#ADD1B2" rx="11" ry="11" style="stroke: #919871; stroke-width: 1.0;"/><path d="M1260.3438,106.1719 C1259.4063,105.7344 1258.8125,105.5938 1257.9375,105.5938 C1255.3125,105.5938 1253.3125,107.6719 1253.3125,110.3906 L1253.3125,111.5156 C1253.3125,114.0938 1255.4219,115.9844 1258.3125,115.9844 C1259.5313,115.9844 1260.6875,115.6875 1261.4375,115.1406 C1262.0156,114.7344 1262.3438,114.2813 1262.3438,113.8906 C1262.3438,113.4375 1261.9531,113.0469 1261.4844,113.0469 C1261.2656,113.0469 1261.0625,113.125 1260.875,113.3125 C1260.4219,113.7969 1260.4219,113.7969 1260.2344,113.8906 C1259.8125,114.1563 1259.125,114.2813 1258.3594,114.2813 C1256.3125,114.2813 1255.0156,113.1875 1255.0156,111.4844 L1255.0156,110.3906 C1255.0156,108.6094 1256.2656,107.2969 1258,107.2969 C1258.5781,107.2969 1259.1875,107.4531 1259.6563,107.7031 C1260.1406,107.9844 1260.3125,108.2031 1260.4063,108.6094 C1260.4688,109.0156 1260.5,109.1406 1260.6406,109.2656 C1260.7813,109.4063 1261.0156,109.5156 1261.2344,109.5156 C1261.5,109.5156 1261.7656,109.375 1261.9375,109.1563 C1262.0469,109 1262.0781,108.8125 1262.0781,108.3906 L1262.0781,106.9688 C1262.0781,106.5313 1262.0625,106.4063 1261.9688,106.25 C1261.8125,105.9844 1261.5313,105.8438 1261.2344,105.8438 C1260.9375,105.8438 1260.7344,105.9375 1260.5156,106.25 L1260.3438,106.1719 Z "/><text fill="#000000" font-family="Arial" font-size="11" lengthAdjust="spacingAndGlyphs" textLength="86" x="1272" y="114.174">RemoteResource</text><line style="stroke: #919871; stroke-width: 1.5;" x1="1244" x2="1360" y1="126.5" y2="126.5"/><ellipse cx="1254" cy="137.69" fill="none" rx="3" ry="3" style="stroke: #038048; stroke-width: 1.0;"/><text fill="#000000" font-family="Arial" font-size="10" lengthAdjust="spacingAndGlyphs" textLength="68" x="1263" y="140.03">Location:string</text><ellipse cx="1254" cy="150.07" fill="none" rx="3" ry="3" style="stroke: #038048; stroke-width: 1.0;"/><text fill="#000000" font-family="Arial" font-size="10" lengthAdjust="spacingAndGlyphs" textLength="68" x="1263" y="152.41">Location:string</text><line style="stroke: #919871; stroke-width: 1.5;" x1="1244" x2="1360" y1="159.26" y2="159.26"/></a><a xlink:href="../information/classes/class_terradue_1_1_portal_1_1_remote_resource_set.html" xlink:title="../information/classes/class_terradue_1_1_portal_1_1_remote_resource_set.html"><rect fill="#EEEBDC" filter="url(#f1)" height="85.14" style="stroke: #919871; stroke-width: 1.5;" width="213" x="1260" y="333"/><ellipse cx="1311.25" cy="349" fill="#ADD1B2" rx="11" ry="11" style="stroke: #919871; stroke-width: 1.0;"/><path d="M1313.5938,344.6719 C1312.6563,344.2344 1312.0625,344.0938 1311.1875,344.0938 C1308.5625,344.0938 1306.5625,346.1719 1306.5625,348.8906 L1306.5625,350.0156 C1306.5625,352.5938 1308.6719,354.4844 1311.5625,354.4844 C1312.7813,354.4844 1313.9375,354.1875 1314.6875,353.6406 C1315.2656,353.2344 1315.5938,352.7813 1315.5938,352.3906 C1315.5938,351.9375 1315.2031,351.5469 1314.7344,351.5469 C1314.5156,351.5469 1314.3125,351.625 1314.125,351.8125 C1313.6719,352.2969 1313.6719,352.2969 1313.4844,352.3906 C1313.0625,352.6563 1312.375,352.7813 1311.6094,352.7813 C1309.5625,352.7813 1308.2656,351.6875 1308.2656,349.9844 L1308.2656,348.8906 C1308.2656,347.1094 1309.5156,345.7969 1311.25,345.7969 C1311.8281,345.7969 1312.4375,345.9531 1312.9063,346.2031 C1313.3906,346.4844 1313.5625,346.7031 1313.6563,347.1094 C1313.7188,347.5156 1313.75,347.6406 1313.8906,347.7656 C1314.0313,347.9063 1314.2656,348.0156 1314.4844,348.0156 C1314.75,348.0156 1315.0156,347.875 1315.1875,347.6563 C1315.2969,347.5 1315.3281,347.3125 1315.3281,346.8906 L1315.3281,345.4688 C1315.3281,345.0313 1315.3125,344.9063 1315.2188,344.75 C1315.0625,344.4844 1314.7813,344.3438 1314.4844,344.3438 C1314.1875,344.3438 1313.9844,344.4375 1313.7656,344.75 L1313.5938,344.6719 Z "/><text fill="#000000" font-family="Arial" font-size="11" lengthAdjust="spacingAndGlyphs" textLength="102" x="1331.75" y="352.674">RemoteResourceSet</text><line style="stroke: #919871; stroke-width: 1.5;" x1="1261" x2="1472" y1="365" y2="365"/><ellipse cx="1271" cy="376.19" fill="none" rx="3" ry="3" style="stroke: #038048; stroke-width: 1.0;"/><text fill="#000000" font-family="Arial" font-size="10" lengthAdjust="spacingAndGlyphs" textLength="79" x="1280" y="378.53">AccessKey:string</text><ellipse cx="1271" cy="388.57" fill="none" rx="3" ry="3" style="stroke: #038048; stroke-width: 1.0;"/><text fill="#000000" font-family="Arial" font-size="10" lengthAdjust="spacingAndGlyphs" textLength="100" x="1280" y="390.91">Resources:EntityList&lt;</text><ellipse cx="1271" cy="400.95" fill="none" rx="3" ry="3" style="stroke: #038048; stroke-width: 1.0;"/><text fill="#000000" font-family="Arial" font-size="10" lengthAdjust="spacingAndGlyphs" textLength="187" x="1280" y="403.29">OpenSearchEngine:OpenSearchEngine</text><line style="stroke: #919871; stroke-width: 1.5;" x1="1261" x2="1472" y1="410.14" y2="410.14"/></a><a xlink:href="../information/classes/class_terradue_1_1_portal_1_1_article.html" xlink:title="../information/classes/class_terradue_1_1_portal_1_1_article.html"><rect fill="#EEEBDC" filter="url(#f1)" height="134.6599" style="stroke: #919871; stroke-width: 1.5;" width="95" x="1627" y="63.5"/><ellipse cx="1656.85" cy="79.5" fill="#ADD1B2" rx="11" ry="11" style="stroke: #919871; stroke-width: 1.0;"/><path d="M1659.1938,75.1719 C1658.2563,74.7344 1657.6625,74.5938 1656.7875,74.5938 C1654.1625,74.5938 1652.1625,76.6719 1652.1625,79.3906 L1652.1625,80.5156 C1652.1625,83.0938 1654.2719,84.9844 1657.1625,84.9844 C1658.3813,84.9844 1659.5375,84.6875 1660.2875,84.1406 C1660.8656,83.7344 1661.1938,83.2813 1661.1938,82.8906 C1661.1938,82.4375 1660.8031,82.0469 1660.3344,82.0469 C1660.1156,82.0469 1659.9125,82.125 1659.725,82.3125 C1659.2719,82.7969 1659.2719,82.7969 1659.0844,82.8906 C1658.6625,83.1563 1657.975,83.2813 1657.2094,83.2813 C1655.1625,83.2813 1653.8656,82.1875 1653.8656,80.4844 L1653.8656,79.3906 C1653.8656,77.6094 1655.1156,76.2969 1656.85,76.2969 C1657.4281,76.2969 1658.0375,76.4531 1658.5063,76.7031 C1658.9906,76.9844 1659.1625,77.2031 1659.2563,77.6094 C1659.3188,78.0156 1659.35,78.1406 1659.4906,78.2656 C1659.6313,78.4063 1659.8656,78.5156 1660.0844,78.5156 C1660.35,78.5156 1660.6156,78.375 1660.7875,78.1563 C1660.8969,78 1660.9281,77.8125 1660.9281,77.3906 L1660.9281,75.9688 C1660.9281,75.5313 1660.9125,75.4063 1660.8188,75.25 C1660.6625,74.9844 1660.3813,74.8438 1660.0844,74.8438 C1659.7875,74.8438 1659.5844,74.9375 1659.3656,75.25 L1659.1938,75.1719 Z "/><text fill="#000000" font-family="Arial" font-size="11" lengthAdjust="spacingAndGlyphs" textLength="30" x="1674.15" y="83.174">Article</text><line style="stroke: #919871; stroke-width: 1.5;" x1="1628" x2="1721" y1="95.5" y2="95.5"/><ellipse cx="1638" cy="106.69" fill="none" rx="3" ry="3" style="stroke: #038048; stroke-width: 1.0;"/><text fill="#000000" font-family="Arial" font-size="10" lengthAdjust="spacingAndGlyphs" textLength="47" x="1647" y="109.03">Title:string</text><ellipse cx="1638" cy="119.07" fill="none" rx="3" ry="3" style="stroke: #038048; stroke-width: 1.0;"/><text fill="#000000" font-family="Arial" font-size="10" lengthAdjust="spacingAndGlyphs" textLength="66" x="1647" y="121.41">Abstract:string</text><ellipse cx="1638" cy="131.45" fill="none" rx="3" ry="3" style="stroke: #038048; stroke-width: 1.0;"/><text fill="#000000" font-family="Arial" font-size="10" lengthAdjust="spacingAndGlyphs" textLength="65" x="1647" y="133.79">Content:string</text><ellipse cx="1638" cy="143.83" fill="none" rx="3" ry="3" style="stroke: #038048; stroke-width: 1.0;"/><text fill="#000000" font-family="Arial" font-size="10" lengthAdjust="spacingAndGlyphs" textLength="69" x="1647" y="146.17">Time:DateTime</text><ellipse cx="1638" cy="156.2099" fill="none" rx="3" ry="3" style="stroke: #038048; stroke-width: 1.0;"/><text fill="#000000" font-family="Arial" font-size="10" lengthAdjust="spacingAndGlyphs" textLength="40" x="1647" y="158.5499">Url:string</text><ellipse cx="1638" cy="168.5899" fill="none" rx="3" ry="3" style="stroke: #038048; stroke-width: 1.0;"/><text fill="#000000" font-family="Arial" font-size="10" lengthAdjust="spacingAndGlyphs" textLength="59" x="1647" y="170.9299">Author:string</text><ellipse cx="1638" cy="180.9699" fill="none" rx="3" ry="3" style="stroke: #038048; stroke-width: 1.0;"/><text fill="#000000" font-family="Arial" font-size="10" lengthAdjust="spacingAndGlyphs" textLength="51" x="1647" y="183.3099">Tags:string</text><line style="stroke: #919871; stroke-width: 1.5;" x1="1628" x2="1721" y1="190.1599" y2="190.1599"/></a><a xlink:href="../information/classes/class_terradue_1_1_portal_1_1_authentication_type.html" xlink:title="../information/classes/class_terradue_1_1_portal_1_1_authentication_type.html"><rect fill="#EEEBDC" filter="url(#f1)" height="85.14" style="stroke: #919871; stroke-width: 1.5;" width="222" x="1756" y="88.5"/><ellipse cx="1816.25" cy="104.5" fill="#ADD1B2" rx="11" ry="11" style="stroke: #919871; stroke-width: 1.0;"/><path d="M1818.5938,100.1719 C1817.6563,99.7344 1817.0625,99.5938 1816.1875,99.5938 C1813.5625,99.5938 1811.5625,101.6719 1811.5625,104.3906 L1811.5625,105.5156 C1811.5625,108.0938 1813.6719,109.9844 1816.5625,109.9844 C1817.7813,109.9844 1818.9375,109.6875 1819.6875,109.1406 C1820.2656,108.7344 1820.5938,108.2813 1820.5938,107.8906 C1820.5938,107.4375 1820.2031,107.0469 1819.7344,107.0469 C1819.5156,107.0469 1819.3125,107.125 1819.125,107.3125 C1818.6719,107.7969 1818.6719,107.7969 1818.4844,107.8906 C1818.0625,108.1563 1817.375,108.2813 1816.6094,108.2813 C1814.5625,108.2813 1813.2656,107.1875 1813.2656,105.4844 L1813.2656,104.3906 C1813.2656,102.6094 1814.5156,101.2969 1816.25,101.2969 C1816.8281,101.2969 1817.4375,101.4531 1817.9063,101.7031 C1818.3906,101.9844 1818.5625,102.2031 1818.6563,102.6094 C1818.7188,103.0156 1818.75,103.1406 1818.8906,103.2656 C1819.0313,103.4063 1819.2656,103.5156 1819.4844,103.5156 C1819.75,103.5156 1820.0156,103.375 1820.1875,103.1563 C1820.2969,103 1820.3281,102.8125 1820.3281,102.3906 L1820.3281,100.9688 C1820.3281,100.5313 1820.3125,100.4063 1820.2188,100.25 C1820.0625,99.9844 1819.7813,99.8438 1819.4844,99.8438 C1819.1875,99.8438 1818.9844,99.9375 1818.7656,100.25 L1818.5938,100.1719 Z "/><text fill="#000000" font-family="Arial" font-size="11" lengthAdjust="spacingAndGlyphs" textLength="93" x="1836.75" y="108.174">AuthenticationType</text><line style="stroke: #919871; stroke-width: 1.5;" x1="1757" x2="1977" y1="120.5" y2="120.5"/><ellipse cx="1767" cy="131.69" fill="none" rx="3" ry="3" style="stroke: #038048; stroke-width: 1.0;"/><text fill="#000000" font-family="Arial" font-size="10" lengthAdjust="spacingAndGlyphs" textLength="189" x="1776" y="134.03">NormalAccountRule:RuleApplicationType</text><ellipse cx="1767" cy="144.07" fill="none" rx="3" ry="3" style="stroke: #038048; stroke-width: 1.0;"/><text fill="#000000" font-family="Arial" font-size="10" lengthAdjust="spacingAndGlyphs" textLength="155" x="1776" y="146.41">ExternalSessionRefreshPeriod:int</text><ellipse cx="1767" cy="156.45" fill="none" rx="3" ry="3" style="stroke: #038048; stroke-width: 1.0;"/><text fill="#000000" font-family="Arial" font-size="10" lengthAdjust="spacingAndGlyphs" textLength="196" x="1776" y="158.79">UsesExternalIdentityProvider:abstract bool</text><line style="stroke: #919871; stroke-width: 1.5;" x1="1757" x2="1977" y1="165.64" y2="165.64"/></a><a xlink:href="../information/classes/class_terradue_1_1_portal_1_1_catalogue.html" xlink:title="../information/classes/class_terradue_1_1_portal_1_1_catalogue.html"><rect fill="#EEEBDC" filter="url(#f1)" height="85.14" style="stroke: #919871; stroke-width: 1.5;" width="176" x="1001" y="333"/><ellipse cx="1060.25" cy="349" fill="#ADD1B2" rx="11" ry="11" style="stroke: #919871; stroke-width: 1.0;"/><path d="M1062.5938,344.6719 C1061.6563,344.2344 1061.0625,344.0938 1060.1875,344.0938 C1057.5625,344.0938 1055.5625,346.1719 1055.5625,348.8906 L1055.5625,350.0156 C1055.5625,352.5938 1057.6719,354.4844 1060.5625,354.4844 C1061.7813,354.4844 1062.9375,354.1875 1063.6875,353.6406 C1064.2656,353.2344 1064.5938,352.7813 1064.5938,352.3906 C1064.5938,351.9375 1064.2031,351.5469 1063.7344,351.5469 C1063.5156,351.5469 1063.3125,351.625 1063.125,351.8125 C1062.6719,352.2969 1062.6719,352.2969 1062.4844,352.3906 C1062.0625,352.6563 1061.375,352.7813 1060.6094,352.7813 C1058.5625,352.7813 1057.2656,351.6875 1057.2656,349.9844 L1057.2656,348.8906 C1057.2656,347.1094 1058.5156,345.7969 1060.25,345.7969 C1060.8281,345.7969 1061.4375,345.9531 1061.9063,346.2031 C1062.3906,346.4844 1062.5625,346.7031 1062.6563,347.1094 C1062.7188,347.5156 1062.75,347.6406 1062.8906,347.7656 C1063.0313,347.9063 1063.2656,348.0156 1063.4844,348.0156 C1063.75,348.0156 1064.0156,347.875 1064.1875,347.6563 C1064.2969,347.5 1064.3281,347.3125 1064.3281,346.8906 L1064.3281,345.4688 C1064.3281,345.0313 1064.3125,344.9063 1064.2188,344.75 C1064.0625,344.4844 1063.7813,344.3438 1063.4844,344.3438 C1063.1875,344.3438 1062.9844,344.4375 1062.7656,344.75 L1062.5938,344.6719 Z "/><text fill="#000000" font-family="Arial" font-size="11" lengthAdjust="spacingAndGlyphs" textLength="49" x="1080.75" y="352.674">Catalogue</text><line style="stroke: #919871; stroke-width: 1.5;" x1="1002" x2="1176" y1="365" y2="365"/><ellipse cx="1012" cy="376.19" fill="none" rx="3" ry="3" style="stroke: #038048; stroke-width: 1.0;"/><text fill="#000000" font-family="Arial" font-size="10" lengthAdjust="spacingAndGlyphs" textLength="150" x="1021" y="378.53">OpenSearchDescriptionUrl:string</text><ellipse cx="1012" cy="388.57" fill="none" rx="3" ry="3" style="stroke: #038048; stroke-width: 1.0;"/><text fill="#000000" font-family="Arial" font-size="10" lengthAdjust="spacingAndGlyphs" textLength="64" x="1021" y="390.91">BaseUrl:string</text><ellipse cx="1012" cy="400.95" fill="none" rx="3" ry="3" style="stroke: #038048; stroke-width: 1.0;"/><text fill="#000000" font-family="Arial" font-size="10" lengthAdjust="spacingAndGlyphs" textLength="112" x="1021" y="403.29">SeriesIngestionUrl:string</text><line style="stroke: #919871; stroke-width: 1.5;" x1="1002" x2="1176" y1="410.14" y2="410.14"/></a><a xlink:href="../information/classes/class_terradue_1_1_portal_1_1_computing_resource.html" xlink:title="../information/classes/class_terradue_1_1_portal_1_1_computing_resource.html"><rect fill="#EEEBDC" filter="url(#f1)" height="147.0399" style="stroke: #919871; stroke-width: 1.5;" width="132" x="282" y="302"/><ellipse cx="297" cy="318" fill="#ADD1B2" rx="11" ry="11" style="stroke: #919871; stroke-width: 1.0;"/><path d="M299.3438,313.6719 C298.4063,313.2344 297.8125,313.0938 296.9375,313.0938 C294.3125,313.0938 292.3125,315.1719 292.3125,317.8906 L292.3125,319.0156 C292.3125,321.5938 294.4219,323.4844 297.3125,323.4844 C298.5313,323.4844 299.6875,323.1875 300.4375,322.6406 C301.0156,322.2344 301.3438,321.7813 301.3438,321.3906 C301.3438,320.9375 300.9531,320.5469 300.4844,320.5469 C300.2656,320.5469 300.0625,320.625 299.875,320.8125 C299.4219,321.2969 299.4219,321.2969 299.2344,321.3906 C298.8125,321.6563 298.125,321.7813 297.3594,321.7813 C295.3125,321.7813 294.0156,320.6875 294.0156,318.9844 L294.0156,317.8906 C294.0156,316.1094 295.2656,314.7969 297,314.7969 C297.5781,314.7969 298.1875,314.9531 298.6563,315.2031 C299.1406,315.4844 299.3125,315.7031 299.4063,316.1094 C299.4688,316.5156 299.5,316.6406 299.6406,316.7656 C299.7813,316.9063 300.0156,317.0156 300.2344,317.0156 C300.5,317.0156 300.7656,316.875 300.9375,316.6563 C301.0469,316.5 301.0781,316.3125 301.0781,315.8906 L301.0781,314.4688 C301.0781,314.0313 301.0625,313.9063 300.9688,313.75 C300.8125,313.4844 300.5313,313.3438 300.2344,313.3438 C299.9375,313.3438 299.7344,313.4375 299.5156,313.75 L299.3438,313.6719 Z "/><text fill="#000000" font-family="Arial" font-size="11" lengthAdjust="spacingAndGlyphs" textLength="100" x="311" y="321.674">ComputingResource</text><line style="stroke: #919871; stroke-width: 1.5;" x1="283" x2="413" y1="334" y2="334"/><ellipse cx="293" cy="345.19" fill="none" rx="3" ry="3" style="stroke: #038048; stroke-width: 1.0;"/><text fill="#000000" font-family="Arial" font-size="10" lengthAdjust="spacingAndGlyphs" textLength="73" x="302" y="347.53">IsAvailable:bool</text><ellipse cx="293" cy="357.57" fill="none" rx="3" ry="3" style="stroke: #038048; stroke-width: 1.0;"/><text fill="#000000" font-family="Arial" font-size="10" lengthAdjust="spacingAndGlyphs" textLength="79" x="302" y="359.91">Description:string</text><ellipse cx="293" cy="369.95" fill="none" rx="3" ry="3" style="stroke: #038048; stroke-width: 1.0;"/><text fill="#000000" font-family="Arial" font-size="10" lengthAdjust="spacingAndGlyphs" textLength="75" x="302" y="372.29">Hostname:string</text><ellipse cx="293" cy="382.33" fill="none" rx="3" ry="3" style="stroke: #038048; stroke-width: 1.0;"/><text fill="#000000" font-family="Arial" font-size="10" lengthAdjust="spacingAndGlyphs" textLength="73" x="302" y="384.67">MaxCapacity:int</text><ellipse cx="293" cy="394.7099" fill="none" rx="3" ry="3" style="stroke: #038048; stroke-width: 1.0;"/><text fill="#000000" font-family="Arial" font-size="10" lengthAdjust="spacingAndGlyphs" textLength="77" x="302" y="397.0499">TotalCapacity:int</text><ellipse cx="293" cy="407.0899" fill="none" rx="3" ry="3" style="stroke: #038048; stroke-width: 1.0;"/><text fill="#000000" font-family="Arial" font-size="10" lengthAdjust="spacingAndGlyphs" textLength="75" x="302" y="409.4299">FreeCapacity:int</text><ellipse cx="293" cy="419.4699" fill="none" rx="3" ry="3" style="stroke: #038048; stroke-width: 1.0;"/><text fill="#000000" font-family="Arial" font-size="10" lengthAdjust="spacingAndGlyphs" textLength="104" x="302" y="421.8099">UserCreditControl:bool</text><line style="stroke: #919871; stroke-width: 1.5;" x1="283" x2="413" y1="428.6599" y2="428.6599"/><ellipse cx="293" cy="439.8499" fill="#84BE84" rx="3" ry="3" style="stroke: #038048; stroke-width: 1.0;"/><text fill="#000000" font-family="Arial" font-size="10" lengthAdjust="spacingAndGlyphs" textLength="53" x="302" y="442.1899">GetStatus()</text></a><a xlink:href="../information/classes/class_terradue_1_1_portal_1_1_configuration.html" xlink:title="../information/classes/class_terradue_1_1_portal_1_1_configuration.html"><rect fill="#EEEBDC" filter="url(#f1)" height="48" style="stroke: #919871; stroke-width: 1.5;" width="96" x="2013" y="107"/><ellipse cx="2028" cy="123" fill="#ADD1B2" rx="11" ry="11" style="stroke: #919871; stroke-width: 1.0;"/><path d="M2030.3438,118.6719 C2029.4063,118.2344 2028.8125,118.0938 2027.9375,118.0938 C2025.3125,118.0938 2023.3125,120.1719 2023.3125,122.8906 L2023.3125,124.0156 C2023.3125,126.5938 2025.4219,128.4844 2028.3125,128.4844 C2029.5313,128.4844 2030.6875,128.1875 2031.4375,127.6406 C2032.0156,127.2344 2032.3438,126.7813 2032.3438,126.3906 C2032.3438,125.9375 2031.9531,125.5469 2031.4844,125.5469 C2031.2656,125.5469 2031.0625,125.625 2030.875,125.8125 C2030.4219,126.2969 2030.4219,126.2969 2030.2344,126.3906 C2029.8125,126.6563 2029.125,126.7813 2028.3594,126.7813 C2026.3125,126.7813 2025.0156,125.6875 2025.0156,123.9844 L2025.0156,122.8906 C2025.0156,121.1094 2026.2656,119.7969 2028,119.7969 C2028.5781,119.7969 2029.1875,119.9531 2029.6563,120.2031 C2030.1406,120.4844 2030.3125,120.7031 2030.4063,121.1094 C2030.4688,121.5156 2030.5,121.6406 2030.6406,121.7656 C2030.7813,121.9063 2031.0156,122.0156 2031.2344,122.0156 C2031.5,122.0156 2031.7656,121.875 2031.9375,121.6563 C2032.0469,121.5 2032.0781,121.3125 2032.0781,120.8906 L2032.0781,119.4688 C2032.0781,119.0313 2032.0625,118.9063 2031.9688,118.75 C2031.8125,118.4844 2031.5313,118.3438 2031.2344,118.3438 C2030.9375,118.3438 2030.7344,118.4375 2030.5156,118.75 L2030.3438,118.6719 Z "/><text fill="#000000" font-family="Arial" font-size="11" lengthAdjust="spacingAndGlyphs" textLength="64" x="2042" y="126.674">Configuration</text><line style="stroke: #919871; stroke-width: 1.5;" x1="2014" x2="2108" y1="139" y2="139"/><line style="stroke: #919871; stroke-width: 1.5;" x1="2014" x2="2108" y1="147" y2="147"/></a><a xlink:href="../information/classes/class_terradue_1_1_portal_1_1_data_set.html" xlink:title="../information/classes/class_terradue_1_1_portal_1_1_data_set.html"><rect fill="#EEEBDC" filter="url(#f1)" height="48" style="stroke: #919871; stroke-width: 1.5;" width="71" x="1532" y="351"/><ellipse cx="1547" cy="367" fill="#ADD1B2" rx="11" ry="11" style="stroke: #919871; stroke-width: 1.0;"/><path d="M1549.3438,362.6719 C1548.4063,362.2344 1547.8125,362.0938 1546.9375,362.0938 C1544.3125,362.0938 1542.3125,364.1719 1542.3125,366.8906 L1542.3125,368.0156 C1542.3125,370.5938 1544.4219,372.4844 1547.3125,372.4844 C1548.5313,372.4844 1549.6875,372.1875 1550.4375,371.6406 C1551.0156,371.2344 1551.3438,370.7813 1551.3438,370.3906 C1551.3438,369.9375 1550.9531,369.5469 1550.4844,369.5469 C1550.2656,369.5469 1550.0625,369.625 1549.875,369.8125 C1549.4219,370.2969 1549.4219,370.2969 1549.2344,370.3906 C1548.8125,370.6563 1548.125,370.7813 1547.3594,370.7813 C1545.3125,370.7813 1544.0156,369.6875 1544.0156,367.9844 L1544.0156,366.8906 C1544.0156,365.1094 1545.2656,363.7969 1547,363.7969 C1547.5781,363.7969 1548.1875,363.9531 1548.6563,364.2031 C1549.1406,364.4844 1549.3125,364.7031 1549.4063,365.1094 C1549.4688,365.5156 1549.5,365.6406 1549.6406,365.7656 C1549.7813,365.9063 1550.0156,366.0156 1550.2344,366.0156 C1550.5,366.0156 1550.7656,365.875 1550.9375,365.6563 C1551.0469,365.5 1551.0781,365.3125 1551.0781,364.8906 L1551.0781,363.4688 C1551.0781,363.0313 1551.0625,362.9063 1550.9688,362.75 C1550.8125,362.4844 1550.5313,362.3438 1550.2344,362.3438 C1549.9375,362.3438 1549.7344,362.4375 1549.5156,362.75 L1549.3438,362.6719 Z "/><text fill="#000000" font-family="Arial" font-size="11" lengthAdjust="spacingAndGlyphs" textLength="39" x="1561" y="370.674">DataSet</text><line style="stroke: #919871; stroke-width: 1.5;" x1="1533" x2="1602" y1="383" y2="383"/><line style="stroke: #919871; stroke-width: 1.5;" x1="1533" x2="1602" y1="391" y2="391"/></a><a xlink:href="../information/classes/class_terradue_1_1_portal_1_1_entity_list_3_01_t_01_4.html" xlink:title="../information/classes/class_terradue_1_1_portal_1_1_entity_list_3_01_t_01_4.html"><rect fill="#EEEBDC" filter="url(#f1)" height="97.52" style="stroke: #919871; stroke-width: 1.5;" width="177" x="1637" y="326"/><ellipse cx="1691.25" cy="342" fill="#ADD1B2" rx="11" ry="11" style="stroke: #919871; stroke-width: 1.0;"/><path d="M1693.5938,337.6719 C1692.6563,337.2344 1692.0625,337.0938 1691.1875,337.0938 C1688.5625,337.0938 1686.5625,339.1719 1686.5625,341.8906 L1686.5625,343.0156 C1686.5625,345.5938 1688.6719,347.4844 1691.5625,347.4844 C1692.7813,347.4844 1693.9375,347.1875 1694.6875,346.6406 C1695.2656,346.2344 1695.5938,345.7813 1695.5938,345.3906 C1695.5938,344.9375 1695.2031,344.5469 1694.7344,344.5469 C1694.5156,344.5469 1694.3125,344.625 1694.125,344.8125 C1693.6719,345.2969 1693.6719,345.2969 1693.4844,345.3906 C1693.0625,345.6563 1692.375,345.7813 1691.6094,345.7813 C1689.5625,345.7813 1688.2656,344.6875 1688.2656,342.9844 L1688.2656,341.8906 C1688.2656,340.1094 1689.5156,338.7969 1691.25,338.7969 C1691.8281,338.7969 1692.4375,338.9531 1692.9063,339.2031 C1693.3906,339.4844 1693.5625,339.7031 1693.6563,340.1094 C1693.7188,340.5156 1693.75,340.6406 1693.8906,340.7656 C1694.0313,340.9063 1694.2656,341.0156 1694.4844,341.0156 C1694.75,341.0156 1695.0156,340.875 1695.1875,340.6563 C1695.2969,340.5 1695.3281,340.3125 1695.3281,339.8906 L1695.3281,338.4688 C1695.3281,338.0313 1695.3125,337.9063 1695.2188,337.75 C1695.0625,337.4844 1694.7813,337.3438 1694.4844,337.3438 C1694.1875,337.3438 1693.9844,337.4375 1693.7656,337.75 L1693.5938,337.6719 Z "/><text fill="#000000" font-family="Arial" font-size="11" lengthAdjust="spacingAndGlyphs" textLength="44" x="1711.75" y="345.674">EntityList</text><rect fill="#FFFFFF" height="14.38" style="stroke: #000000; stroke-width: 1.0; stroke-dasharray: 2.0,2.0;" width="14" x="1803" y="323"/><text fill="#000000" font-family="Arial" font-size="10" lengthAdjust="spacingAndGlyphs" textLength="6" x="1807" y="333.53">T</text><line style="stroke: #919871; stroke-width: 1.5;" x1="1638" x2="1813" y1="358" y2="358"/><ellipse cx="1648" cy="369.19" fill="none" rx="3" ry="3" style="stroke: #038048; stroke-width: 1.0;"/><text fill="#000000" font-family="Arial" font-size="10" lengthAdjust="spacingAndGlyphs" textLength="151" x="1657" y="371.53">Items:override IEnumerable&lt; T &gt;</text><ellipse cx="1648" cy="381.57" fill="none" rx="3" ry="3" style="stroke: #038048; stroke-width: 1.0;"/><text fill="#000000" font-family="Arial" font-size="10" lengthAdjust="spacingAndGlyphs" textLength="82" x="1657" y="383.91">Count:override int</text><line style="stroke: #919871; stroke-width: 1.5;" x1="1638" x2="1813" y1="390.76" y2="390.76"/><ellipse cx="1648" cy="401.95" fill="#84BE84" rx="3" ry="3" style="stroke: #038048; stroke-width: 1.0;"/><text fill="#000000" font-family="Arial" font-size="10" lengthAdjust="spacingAndGlyphs" textLength="30" x="1657" y="404.29">Clear()</text><polygon fill="#FFFF44" points="1648,409.33,1652,413.33,1648,417.33,1644,413.33" style="stroke: #B38D22; stroke-width: 1.0;"/><text fill="#000000" font-family="Arial" font-size="10" lengthAdjust="spacingAndGlyphs" textLength="75" x="1657" y="416.67">IncludeInternal()</text></a><a xlink:href="../information/classes/class_terradue_1_1_portal_1_1_feature.html" xlink:title="../information/classes/class_terradue_1_1_portal_1_1_feature.html"><rect fill="#EEEBDC" filter="url(#f1)" height="122.2799" style="stroke: #919871; stroke-width: 1.5;" width="106" x="1848" y="314"/><ellipse cx="1879.2" cy="330" fill="#ADD1B2" rx="11" ry="11" style="stroke: #919871; stroke-width: 1.0;"/><path d="M1881.5438,325.6719 C1880.6063,325.2344 1880.0125,325.0938 1879.1375,325.0938 C1876.5125,325.0938 1874.5125,327.1719 1874.5125,329.8906 L1874.5125,331.0156 C1874.5125,333.5938 1876.6219,335.4844 1879.5125,335.4844 C1880.7313,335.4844 1881.8875,335.1875 1882.6375,334.6406 C1883.2156,334.2344 1883.5438,333.7813 1883.5438,333.3906 C1883.5438,332.9375 1883.1531,332.5469 1882.6844,332.5469 C1882.4656,332.5469 1882.2625,332.625 1882.075,332.8125 C1881.6219,333.2969 1881.6219,333.2969 1881.4344,333.3906 C1881.0125,333.6563 1880.325,333.7813 1879.5594,333.7813 C1877.5125,333.7813 1876.2156,332.6875 1876.2156,330.9844 L1876.2156,329.8906 C1876.2156,328.1094 1877.4656,326.7969 1879.2,326.7969 C1879.7781,326.7969 1880.3875,326.9531 1880.8563,327.2031 C1881.3406,327.4844 1881.5125,327.7031 1881.6063,328.1094 C1881.6688,328.5156 1881.7,328.6406 1881.8406,328.7656 C1881.9813,328.9063 1882.2156,329.0156 1882.4344,329.0156 C1882.7,329.0156 1882.9656,328.875 1883.1375,328.6563 C1883.2469,328.5 1883.2781,328.3125 1883.2781,327.8906 L1883.2781,326.4688 C1883.2781,326.0313 1883.2625,325.9063 1883.1688,325.75 C1883.0125,325.4844 1882.7313,325.3438 1882.4344,325.3438 C1882.1375,325.3438 1881.9344,325.4375 1881.7156,325.75 L1881.5438,325.6719 Z "/><text fill="#000000" font-family="Arial" font-size="11" lengthAdjust="spacingAndGlyphs" textLength="38" x="1896.8" y="333.674">Feature</text><line style="stroke: #919871; stroke-width: 1.5;" x1="1849" x2="1953" y1="346" y2="346"/><ellipse cx="1859" cy="357.19" fill="none" rx="3" ry="3" style="stroke: #038048; stroke-width: 1.0;"/><text fill="#000000" font-family="Arial" font-size="10" lengthAdjust="spacingAndGlyphs" textLength="47" x="1868" y="359.53">Title:string</text><ellipse cx="1859" cy="369.57" fill="none" rx="3" ry="3" style="stroke: #038048; stroke-width: 1.0;"/><text fill="#000000" font-family="Arial" font-size="10" lengthAdjust="spacingAndGlyphs" textLength="79" x="1868" y="371.91">Description:string</text><ellipse cx="1859" cy="381.95" fill="none" rx="3" ry="3" style="stroke: #038048; stroke-width: 1.0;"/><text fill="#000000" font-family="Arial" font-size="10" lengthAdjust="spacingAndGlyphs" textLength="57" x="1868" y="384.29">Image:string</text><ellipse cx="1859" cy="394.33" fill="none" rx="3" ry="3" style="stroke: #038048; stroke-width: 1.0;"/><text fill="#000000" font-family="Arial" font-size="10" lengthAdjust="spacingAndGlyphs" textLength="80" x="1868" y="396.67">ImageStyle:string</text><ellipse cx="1859" cy="406.7099" fill="none" rx="3" ry="3" style="stroke: #038048; stroke-width: 1.0;"/><text fill="#000000" font-family="Arial" font-size="10" lengthAdjust="spacingAndGlyphs" textLength="79" x="1868" y="409.0499">ButtonText:string</text><ellipse cx="1859" cy="419.0899" fill="none" rx="3" ry="3" style="stroke: #038048; stroke-width: 1.0;"/><text fill="#000000" font-family="Arial" font-size="10" lengthAdjust="spacingAndGlyphs" textLength="78" x="1868" y="421.4299">ButtonLink:string</text><line style="stroke: #919871; stroke-width: 1.5;" x1="1849" x2="1953" y1="428.2799" y2="428.2799"/></a><a xlink:href="../information/classes/class_terradue_1_1_portal_1_1_group.html" xlink:title="../information/classes/class_terradue_1_1_portal_1_1_group.html"><rect fill="#EEEBDC" filter="url(#f1)" height="85.14" style="stroke: #919871; stroke-width: 1.5;" width="121" x="1989" y="332.5"/><ellipse cx="2030.1" cy="348.5" fill="#ADD1B2" rx="11" ry="11" style="stroke: #919871; stroke-width: 1.0;"/><path d="M2032.4438,344.1719 C2031.5063,343.7344 2030.9125,343.5938 2030.0375,343.5938 C2027.4125,343.5938 2025.4125,345.6719 2025.4125,348.3906 L2025.4125,349.5156 C2025.4125,352.0938 2027.5219,353.9844 2030.4125,353.9844 C2031.6313,353.9844 2032.7875,353.6875 2033.5375,353.1406 C2034.1156,352.7344 2034.4438,352.2813 2034.4438,351.8906 C2034.4438,351.4375 2034.0531,351.0469 2033.5844,351.0469 C2033.3656,351.0469 2033.1625,351.125 2032.975,351.3125 C2032.5219,351.7969 2032.5219,351.7969 2032.3344,351.8906 C2031.9125,352.1563 2031.225,352.2813 2030.4594,352.2813 C2028.4125,352.2813 2027.1156,351.1875 2027.1156,349.4844 L2027.1156,348.3906 C2027.1156,346.6094 2028.3656,345.2969 2030.1,345.2969 C2030.6781,345.2969 2031.2875,345.4531 2031.7563,345.7031 C2032.2406,345.9844 2032.4125,346.2031 2032.5063,346.6094 C2032.5688,347.0156 2032.6,347.1406 2032.7406,347.2656 C2032.8813,347.4063 2033.1156,347.5156 2033.3344,347.5156 C2033.6,347.5156 2033.8656,347.375 2034.0375,347.1563 C2034.1469,347 2034.1781,346.8125 2034.1781,346.3906 L2034.1781,344.9688 C2034.1781,344.5313 2034.1625,344.4063 2034.0688,344.25 C2033.9125,343.9844 2033.6313,343.8438 2033.3344,343.8438 C2033.0375,343.8438 2032.8344,343.9375 2032.6156,344.25 L2032.4438,344.1719 Z "/><text fill="#000000" font-family="Arial" font-size="11" lengthAdjust="spacingAndGlyphs" textLength="31" x="2049.9" y="352.174">Group</text><line style="stroke: #919871; stroke-width: 1.5;" x1="1990" x2="2109" y1="364.5" y2="364.5"/><ellipse cx="2000" cy="375.69" fill="none" rx="3" ry="3" style="stroke: #038048; stroke-width: 1.0;"/><text fill="#000000" font-family="Arial" font-size="10" lengthAdjust="spacingAndGlyphs" textLength="95" x="2009" y="378.03">Name:override string</text><ellipse cx="2000" cy="388.07" fill="none" rx="3" ry="3" style="stroke: #038048; stroke-width: 1.0;"/><text fill="#000000" font-family="Arial" font-size="10" lengthAdjust="spacingAndGlyphs" textLength="79" x="2009" y="390.41">Description:string</text><ellipse cx="2000" cy="400.45" fill="none" rx="3" ry="3" style="stroke: #038048; stroke-width: 1.0;"/><text fill="#000000" font-family="Arial" font-size="10" lengthAdjust="spacingAndGlyphs" textLength="45" x="2009" y="402.79">Priority:int</text><line style="stroke: #919871; stroke-width: 1.5;" x1="1990" x2="2109" y1="409.64" y2="409.64"/></a><a xlink:href="../information/classes/class_terradue_1_1_portal_1_1_ify_context.html" xlink:title="../information/classes/class_terradue_1_1_portal_1_1_ify_context.html"><rect fill="#EEEBDC" filter="url(#f1)" height="382.2597" style="stroke: #919871; stroke-width: 1.5;" width="233" x="1451" y="545"/><ellipse cx="1538.25" cy="561" fill="#ADD1B2" rx="11" ry="11" style="stroke: #919871; stroke-width: 1.0;"/><path d="M1540.5938,556.6719 C1539.6563,556.2344 1539.0625,556.0938 1538.1875,556.0938 C1535.5625,556.0938 1533.5625,558.1719 1533.5625,560.8906 L1533.5625,562.0156 C1533.5625,564.5938 1535.6719,566.4844 1538.5625,566.4844 C1539.7813,566.4844 1540.9375,566.1875 1541.6875,565.6406 C1542.2656,565.2344 1542.5938,564.7813 1542.5938,564.3906 C1542.5938,563.9375 1542.2031,563.5469 1541.7344,563.5469 C1541.5156,563.5469 1541.3125,563.625 1541.125,563.8125 C1540.6719,564.2969 1540.6719,564.2969 1540.4844,564.3906 C1540.0625,564.6563 1539.375,564.7813 1538.6094,564.7813 C1536.5625,564.7813 1535.2656,563.6875 1535.2656,561.9844 L1535.2656,560.8906 C1535.2656,559.1094 1536.5156,557.7969 1538.25,557.7969 C1538.8281,557.7969 1539.4375,557.9531 1539.9063,558.2031 C1540.3906,558.4844 1540.5625,558.7031 1540.6563,559.1094 C1540.7188,559.5156 1540.75,559.6406 1540.8906,559.7656 C1541.0313,559.9063 1541.2656,560.0156 1541.4844,560.0156 C1541.75,560.0156 1542.0156,559.875 1542.1875,559.6563 C1542.2969,559.5 1542.3281,559.3125 1542.3281,558.8906 L1542.3281,557.4688 C1542.3281,557.0313 1542.3125,556.9063 1542.2188,556.75 C1542.0625,556.4844 1541.7813,556.3438 1541.4844,556.3438 C1541.1875,556.3438 1540.9844,556.4375 1540.7656,556.75 L1540.5938,556.6719 Z "/><text fill="#000000" font-family="Arial" font-size="11" lengthAdjust="spacingAndGlyphs" textLength="50" x="1558.75" y="564.674">IfyContext</text><line style="stroke: #919871; stroke-width: 1.5;" x1="1452" x2="1683" y1="577" y2="577"/><ellipse cx="1462" cy="588.19" fill="none" rx="3" ry="3" style="stroke: #038048; stroke-width: 1.0;"/><text fill="#000000" font-family="Arial" font-size="10" lengthAdjust="spacingAndGlyphs" textLength="79" x="1471" y="590.53">IsInteractive:bool</text><ellipse cx="1462" cy="600.57" fill="none" rx="3" ry="3" style="stroke: #038048; stroke-width: 1.0;"/><text fill="#000000" font-family="Arial" font-size="10" lengthAdjust="spacingAndGlyphs" textLength="57" x="1471" y="602.91">LogLevel:int</text><ellipse cx="1462" cy="612.95" fill="none" rx="3" ry="3" style="stroke: #038048; stroke-width: 1.0;"/><text fill="#000000" font-family="Arial" font-size="10" lengthAdjust="spacingAndGlyphs" textLength="70" x="1471" y="615.29">DebugLevel:int</text><ellipse cx="1462" cy="625.33" fill="none" rx="3" ry="3" style="stroke: #038048; stroke-width: 1.0;"/><text fill="#000000" font-family="Arial" font-size="10" lengthAdjust="spacingAndGlyphs" textLength="44" x="1471" y="627.67">UserId:int</text><ellipse cx="1462" cy="637.7099" fill="none" rx="3" ry="3" style="stroke: #038048; stroke-width: 1.0;"/><text fill="#000000" font-family="Arial" font-size="10" lengthAdjust="spacingAndGlyphs" textLength="53" x="1471" y="640.0499">OwnerId:int</text><ellipse cx="1462" cy="650.0899" fill="none" rx="3" ry="3" style="stroke: #038048; stroke-width: 1.0;"/><text fill="#000000" font-family="Arial" font-size="10" lengthAdjust="spacingAndGlyphs" textLength="95" x="1471" y="652.4299">IsUserIdentified:bool</text><ellipse cx="1462" cy="662.4699" fill="none" rx="3" ry="3" style="stroke: #038048; stroke-width: 1.0;"/><text fill="#000000" font-family="Arial" font-size="10" lengthAdjust="spacingAndGlyphs" textLength="117" x="1471" y="664.8099">IsUserAuthenticated:bool</text><ellipse cx="1462" cy="674.8499" fill="none" rx="3" ry="3" style="stroke: #038048; stroke-width: 1.0;"/><text fill="#000000" font-family="Arial" font-size="10" lengthAdjust="spacingAndGlyphs" textLength="207" x="1471" y="677.1899">AuthenticationMethod:AuthenticationMethod</text><ellipse cx="1462" cy="687.2299" fill="none" rx="3" ry="3" style="stroke: #038048; stroke-width: 1.0;"/><text fill="#000000" font-family="Arial" font-size="10" lengthAdjust="spacingAndGlyphs" textLength="60" x="1471" y="689.5699">UserLevel:int</text><ellipse cx="1462" cy="699.6099" fill="none" rx="3" ry="3" style="stroke: #038048; stroke-width: 1.0;"/><text fill="#000000" font-family="Arial" font-size="10" lengthAdjust="spacingAndGlyphs" textLength="85" x="1471" y="701.9499">UserCaption:string</text><ellipse cx="1462" cy="711.9899" fill="none" rx="3" ry="3" style="stroke: #038048; stroke-width: 1.0;"/><text fill="#000000" font-family="Arial" font-size="10" lengthAdjust="spacingAndGlyphs" textLength="75" x="1471" y="714.3299">Username:string</text><line style="stroke: #919871; stroke-width: 1.5;" x1="1452" x2="1683" y1="721.1799" y2="721.1799"/><ellipse cx="1462" cy="732.3699" fill="#84BE84" rx="3" ry="3" style="stroke: #038048; stroke-width: 1.0;"/><text fill="#000000" font-family="Arial" font-size="10" lengthAdjust="spacingAndGlyphs" textLength="32" x="1471" y="734.7099">Open()</text><ellipse cx="1462" cy="744.7498" fill="#84BE84" rx="3" ry="3" style="stroke: #038048; stroke-width: 1.0;"/><text fill="#000000" font-family="Arial" font-size="10" lengthAdjust="spacingAndGlyphs" textLength="32" x="1471" y="747.0898">Close()</text><ellipse cx="1462" cy="757.1298" fill="#84BE84" rx="3" ry="3" style="stroke: #038048; stroke-width: 1.0;"/><text fill="#000000" font-family="Arial" font-size="10" lengthAdjust="spacingAndGlyphs" textLength="92" x="1471" y="759.4698">LoadConfiguration()</text><ellipse cx="1462" cy="769.5098" fill="#84BE84" rx="3" ry="3" style="stroke: #038048; stroke-width: 1.0;"/><text fill="#000000" font-family="Arial" font-size="10" lengthAdjust="spacingAndGlyphs" textLength="82" x="1471" y="771.8498">StartTransaction()</text><ellipse cx="1462" cy="781.8898" fill="#84BE84" rx="3" ry="3" style="stroke: #038048; stroke-width: 1.0;"/><text fill="#000000" font-family="Arial" font-size="10" lengthAdjust="spacingAndGlyphs" textLength="80" x="1471" y="784.2298">GetConfigValue()</text><ellipse cx="1462" cy="794.2698" fill="#84BE84" rx="3" ry="3" style="stroke: #038048; stroke-width: 1.0;"/><text fill="#000000" font-family="Arial" font-size="10" lengthAdjust="spacingAndGlyphs" textLength="91" x="1471" y="796.6098">EndImpersonation()</text><ellipse cx="1462" cy="806.6498" fill="#84BE84" rx="3" ry="3" style="stroke: #038048; stroke-width: 1.0;"/><text fill="#000000" font-family="Arial" font-size="10" lengthAdjust="spacingAndGlyphs" textLength="70" x="1471" y="808.9898">SendMailAlert()</text><ellipse cx="1462" cy="819.0298" fill="#84BE84" rx="3" ry="3" style="stroke: #038048; stroke-width: 1.0;"/><text fill="#000000" font-family="Arial" font-size="10" lengthAdjust="spacingAndGlyphs" textLength="70" x="1471" y="821.3698">CreateLogger()</text><ellipse cx="1462" cy="831.4098" fill="#84BE84" rx="3" ry="3" style="stroke: #038048; stroke-width: 1.0;"/><text fill="#000000" font-family="Arial" font-size="10" lengthAdjust="spacingAndGlyphs" textLength="55" x="1471" y="833.7498">LogDebug()</text><ellipse cx="1462" cy="843.7897" fill="#84BE84" rx="3" ry="3" style="stroke: #038048; stroke-width: 1.0;"/><text fill="#000000" font-family="Arial" font-size="10" lengthAdjust="spacingAndGlyphs" textLength="46" x="1471" y="846.1297">LogError()</text><ellipse cx="1462" cy="856.1697" fill="#84BE84" rx="3" ry="3" style="stroke: #038048; stroke-width: 1.0;"/><text fill="#000000" font-family="Arial" font-size="10" lengthAdjust="spacingAndGlyphs" textLength="69" x="1471" y="858.5097">LogFatalError()</text><ellipse cx="1462" cy="868.5497" fill="#84BE84" rx="3" ry="3" style="stroke: #038048; stroke-width: 1.0;"/><text fill="#000000" font-family="Arial" font-size="10" lengthAdjust="spacingAndGlyphs" textLength="42" x="1471" y="870.8897">LogInfo()</text><ellipse cx="1462" cy="880.9297" fill="#84BE84" rx="3" ry="3" style="stroke: #038048; stroke-width: 1.0;"/><text fill="#000000" font-family="Arial" font-size="10" lengthAdjust="spacingAndGlyphs" textLength="62" x="1471" y="883.2697">LogWarning()</text><ellipse cx="1462" cy="893.3097" fill="#84BE84" rx="3" ry="3" style="stroke: #038048; stroke-width: 1.0;"/><text fill="#000000" font-family="Arial" font-size="10" lengthAdjust="spacingAndGlyphs" textLength="43" x="1471" y="895.6497">LogStat()</text><rect fill="#F24D5C" height="6" style="stroke: #C82930; stroke-width: 1.0;" width="6" x="1459" y="902.6897"/><text fill="#000000" font-family="Arial" font-size="10" lengthAdjust="spacingAndGlyphs" textLength="62" x="1471" y="908.0297">SetReporter()</text><rect fill="#F24D5C" height="6" style="stroke: #C82930; stroke-width: 1.0;" width="6" x="1459" y="915.0697"/><text fill="#000000" font-family="Arial" font-size="10" lengthAdjust="spacingAndGlyphs" textLength="67" x="1471" y="920.4097">SetOriginator()</text></a><a xlink:href="../information/classes/class_terradue_1_1_portal_1_1_scheduler.html" xlink:title="../information/classes/class_terradue_1_1_portal_1_1_scheduler.html"><rect fill="#EEEBDC" filter="url(#f1)" height="85.14" style="stroke: #919871; stroke-width: 1.5;" width="141" x="497" y="333"/><ellipse cx="539" cy="349" fill="#ADD1B2" rx="11" ry="11" style="stroke: #919871; stroke-width: 1.0;"/><path d="M541.3438,344.6719 C540.4063,344.2344 539.8125,344.0938 538.9375,344.0938 C536.3125,344.0938 534.3125,346.1719 534.3125,348.8906 L534.3125,350.0156 C534.3125,352.5938 536.4219,354.4844 539.3125,354.4844 C540.5313,354.4844 541.6875,354.1875 542.4375,353.6406 C543.0156,353.2344 543.3438,352.7813 543.3438,352.3906 C543.3438,351.9375 542.9531,351.5469 542.4844,351.5469 C542.2656,351.5469 542.0625,351.625 541.875,351.8125 C541.4219,352.2969 541.4219,352.2969 541.2344,352.3906 C540.8125,352.6563 540.125,352.7813 539.3594,352.7813 C537.3125,352.7813 536.0156,351.6875 536.0156,349.9844 L536.0156,348.8906 C536.0156,347.1094 537.2656,345.7969 539,345.7969 C539.5781,345.7969 540.1875,345.9531 540.6563,346.2031 C541.1406,346.4844 541.3125,346.7031 541.4063,347.1094 C541.4688,347.5156 541.5,347.6406 541.6406,347.7656 C541.7813,347.9063 542.0156,348.0156 542.2344,348.0156 C542.5,348.0156 542.7656,347.875 542.9375,347.6563 C543.0469,347.5 543.0781,347.3125 543.0781,346.8906 L543.0781,345.4688 C543.0781,345.0313 543.0625,344.9063 542.9688,344.75 C542.8125,344.4844 542.5313,344.3438 542.2344,344.3438 C541.9375,344.3438 541.7344,344.4375 541.5156,344.75 L541.3438,344.6719 Z "/><text fill="#000000" font-family="Arial" font-size="11" lengthAdjust="spacingAndGlyphs" textLength="49" x="559" y="352.674">Scheduler</text><line style="stroke: #919871; stroke-width: 1.5;" x1="498" x2="637" y1="365" y2="365"/><ellipse cx="508" cy="376.19" fill="none" rx="3" ry="3" style="stroke: #038048; stroke-width: 1.0;"/><text fill="#000000" font-family="Arial" font-size="10" lengthAdjust="spacingAndGlyphs" textLength="115" x="517" y="378.53">Status:SchedulingStatus</text><ellipse cx="508" cy="388.57" fill="none" rx="3" ry="3" style="stroke: #038048; stroke-width: 1.0;"/><text fill="#000000" font-family="Arial" font-size="10" lengthAdjust="spacingAndGlyphs" textLength="91" x="517" y="390.91">MaxSubmissions:int</text><ellipse cx="508" cy="400.95" fill="none" rx="3" ry="3" style="stroke: #038048; stroke-width: 1.0;"/><text fill="#000000" font-family="Arial" font-size="10" lengthAdjust="spacingAndGlyphs" textLength="54" x="517" y="403.29">Inputs:List&lt;</text><line style="stroke: #919871; stroke-width: 1.5;" x1="498" x2="637" y1="410.14" y2="410.14"/></a><rect fill="#EEEBDC" filter="url(#f1)" height="48" style="stroke: #919871; stroke-width: 1.5;" width="165" x="485" y="713"/><ellipse cx="500" cy="729" fill="#ADD1B2" rx="11" ry="11" style="stroke: #919871; stroke-width: 1.0;"/><path d="M502.3438,724.6719 C501.4063,724.2344 500.8125,724.0938 499.9375,724.0938 C497.3125,724.0938 495.3125,726.1719 495.3125,728.8906 L495.3125,730.0156 C495.3125,732.5938 497.4219,734.4844 500.3125,734.4844 C501.5313,734.4844 502.6875,734.1875 503.4375,733.6406 C504.0156,733.2344 504.3438,732.7813 504.3438,732.3906 C504.3438,731.9375 503.9531,731.5469 503.4844,731.5469 C503.2656,731.5469 503.0625,731.625 502.875,731.8125 C502.4219,732.2969 502.4219,732.2969 502.2344,732.3906 C501.8125,732.6563 501.125,732.7813 500.3594,732.7813 C498.3125,732.7813 497.0156,731.6875 497.0156,729.9844 L497.0156,728.8906 C497.0156,727.1094 498.2656,725.7969 500,725.7969 C500.5781,725.7969 501.1875,725.9531 501.6563,726.2031 C502.1406,726.4844 502.3125,726.7031 502.4063,727.1094 C502.4688,727.5156 502.5,727.6406 502.6406,727.7656 C502.7813,727.9063 503.0156,728.0156 503.2344,728.0156 C503.5,728.0156 503.7656,727.875 503.9375,727.6563 C504.0469,727.5 504.0781,727.3125 504.0781,726.8906 L504.0781,725.4688 C504.0781,725.0313 504.0625,724.9063 503.9688,724.75 C503.8125,724.4844 503.5313,724.3438 503.2344,724.3438 C502.9375,724.3438 502.7344,724.4375 502.5156,724.75 L502.3438,724.6719 Z "/><text fill="#000000" font-family="Arial" font-size="11" lengthAdjust="spacingAndGlyphs" textLength="133" x="514" y="732.674">SchedulerRunConfiguration</text><line style="stroke: #919871; stroke-width: 1.5;" x1="486" x2="649" y1="745" y2="745"/><line style="stroke: #919871; stroke-width: 1.5;" x1="486" x2="649" y1="753" y2="753"/><a xlink:href="../information/classes/class_terradue_1_1_portal_1_1_series.html" xlink:title="../information/classes/class_terradue_1_1_portal_1_1_series.html"><rect fill="#EEEBDC" filter="url(#f1)" height="85.14" style="stroke: #919871; stroke-width: 1.5;" width="184" x="997" y="88.5"/><ellipse cx="1069.25" cy="104.5" fill="#ADD1B2" rx="11" ry="11" style="stroke: #919871; stroke-width: 1.0;"/><path d="M1071.5938,100.1719 C1070.6563,99.7344 1070.0625,99.5938 1069.1875,99.5938 C1066.5625,99.5938 1064.5625,101.6719 1064.5625,104.3906 L1064.5625,105.5156 C1064.5625,108.0938 1066.6719,109.9844 1069.5625,109.9844 C1070.7813,109.9844 1071.9375,109.6875 1072.6875,109.1406 C1073.2656,108.7344 1073.5938,108.2813 1073.5938,107.8906 C1073.5938,107.4375 1073.2031,107.0469 1072.7344,107.0469 C1072.5156,107.0469 1072.3125,107.125 1072.125,107.3125 C1071.6719,107.7969 1071.6719,107.7969 1071.4844,107.8906 C1071.0625,108.1563 1070.375,108.2813 1069.6094,108.2813 C1067.5625,108.2813 1066.2656,107.1875 1066.2656,105.4844 L1066.2656,104.3906 C1066.2656,102.6094 1067.5156,101.2969 1069.25,101.2969 C1069.8281,101.2969 1070.4375,101.4531 1070.9063,101.7031 C1071.3906,101.9844 1071.5625,102.2031 1071.6563,102.6094 C1071.7188,103.0156 1071.75,103.1406 1071.8906,103.2656 C1072.0313,103.4063 1072.2656,103.5156 1072.4844,103.5156 C1072.75,103.5156 1073.0156,103.375 1073.1875,103.1563 C1073.2969,103 1073.3281,102.8125 1073.3281,102.3906 L1073.3281,100.9688 C1073.3281,100.5313 1073.3125,100.4063 1073.2188,100.25 C1073.0625,99.9844 1072.7813,99.8438 1072.4844,99.8438 C1072.1875,99.8438 1071.9844,99.9375 1071.7656,100.25 L1071.5938,100.1719 Z "/><text fill="#000000" font-family="Arial" font-size="11" lengthAdjust="spacingAndGlyphs" textLength="31" x="1089.75" y="108.174">Series</text><line style="stroke: #919871; stroke-width: 1.5;" x1="998" x2="1180" y1="120.5" y2="120.5"/><ellipse cx="1008" cy="131.69" fill="none" rx="3" ry="3" style="stroke: #038048; stroke-width: 1.0;"/><text fill="#000000" font-family="Arial" font-size="10" lengthAdjust="spacingAndGlyphs" textLength="79" x="1017" y="134.03">Description:string</text><ellipse cx="1008" cy="144.07" fill="none" rx="3" ry="3" style="stroke: #038048; stroke-width: 1.0;"/><text fill="#000000" font-family="Arial" font-size="10" lengthAdjust="spacingAndGlyphs" textLength="139" x="1017" y="146.41">CatalogueDescriptionUrl:string</text><line style="stroke: #919871; stroke-width: 1.5;" x1="998" x2="1180" y1="153.26" y2="153.26"/><ellipse cx="1008" cy="164.45" fill="#84BE84" rx="3" ry="3" style="stroke: #038048; stroke-width: 1.0;"/><text fill="#000000" font-family="Arial" font-size="10" lengthAdjust="spacingAndGlyphs" textLength="158" x="1017" y="166.79">GetLocalOpenSearchDescription()</text></a><a xlink:href="../information/classes/class_terradue_1_1_portal_1_1_service.html" xlink:title="../information/classes/class_terradue_1_1_portal_1_1_service.html"><rect fill="#EEEBDC" filter="url(#f1)" height="147.0399" style="stroke: #919871; stroke-width: 1.5;" width="195" x="722" y="302"/><ellipse cx="796.75" cy="318" fill="#ADD1B2" rx="11" ry="11" style="stroke: #919871; stroke-width: 1.0;"/><path d="M799.0938,313.6719 C798.1563,313.2344 797.5625,313.0938 796.6875,313.0938 C794.0625,313.0938 792.0625,315.1719 792.0625,317.8906 L792.0625,319.0156 C792.0625,321.5938 794.1719,323.4844 797.0625,323.4844 C798.2813,323.4844 799.4375,323.1875 800.1875,322.6406 C800.7656,322.2344 801.0938,321.7813 801.0938,321.3906 C801.0938,320.9375 800.7031,320.5469 800.2344,320.5469 C800.0156,320.5469 799.8125,320.625 799.625,320.8125 C799.1719,321.2969 799.1719,321.2969 798.9844,321.3906 C798.5625,321.6563 797.875,321.7813 797.1094,321.7813 C795.0625,321.7813 793.7656,320.6875 793.7656,318.9844 L793.7656,317.8906 C793.7656,316.1094 795.0156,314.7969 796.75,314.7969 C797.3281,314.7969 797.9375,314.9531 798.4063,315.2031 C798.8906,315.4844 799.0625,315.7031 799.1563,316.1094 C799.2188,316.5156 799.25,316.6406 799.3906,316.7656 C799.5313,316.9063 799.7656,317.0156 799.9844,317.0156 C800.25,317.0156 800.5156,316.875 800.6875,316.6563 C800.7969,316.5 800.8281,316.3125 800.8281,315.8906 L800.8281,314.4688 C800.8281,314.0313 800.8125,313.9063 800.7188,313.75 C800.5625,313.4844 800.2813,313.3438 799.9844,313.3438 C799.6875,313.3438 799.4844,313.4375 799.2656,313.75 L799.0938,313.6719 Z "/><text fill="#000000" font-family="Arial" font-size="11" lengthAdjust="spacingAndGlyphs" textLength="37" x="817.25" y="321.674">Service</text><line style="stroke: #919871; stroke-width: 1.5;" x1="723" x2="916" y1="334" y2="334"/><ellipse cx="733" cy="345.19" fill="none" rx="3" ry="3" style="stroke: #038048; stroke-width: 1.0;"/><text fill="#000000" font-family="Arial" font-size="10" lengthAdjust="spacingAndGlyphs" textLength="79" x="742" y="347.53">Description:string</text><ellipse cx="733" cy="357.57" fill="none" rx="3" ry="3" style="stroke: #038048; stroke-width: 1.0;"/><text fill="#000000" font-family="Arial" font-size="10" lengthAdjust="spacingAndGlyphs" textLength="63" x="742" y="359.91">Version:string</text><ellipse cx="733" cy="369.95" fill="none" rx="3" ry="3" style="stroke: #038048; stroke-width: 1.0;"/><text fill="#000000" font-family="Arial" font-size="10" lengthAdjust="spacingAndGlyphs" textLength="40" x="742" y="372.29">Url:string</text><ellipse cx="733" cy="382.33" fill="none" rx="3" ry="3" style="stroke: #038048; stroke-width: 1.0;"/><text fill="#000000" font-family="Arial" font-size="10" lengthAdjust="spacingAndGlyphs" textLength="60" x="742" y="384.67">IconUrl:string</text><ellipse cx="733" cy="394.7099" fill="none" rx="3" ry="3" style="stroke: #038048; stroke-width: 1.0;"/><text fill="#000000" font-family="Arial" font-size="10" lengthAdjust="spacingAndGlyphs" textLength="44" x="742" y="397.0499">Rating:int</text><ellipse cx="733" cy="407.0899" fill="none" rx="3" ry="3" style="stroke: #038048; stroke-width: 1.0;"/><text fill="#000000" font-family="Arial" font-size="10" lengthAdjust="spacingAndGlyphs" textLength="48" x="742" y="409.4299">ClassId:int</text><ellipse cx="733" cy="419.4699" fill="none" rx="3" ry="3" style="stroke: #038048; stroke-width: 1.0;"/><text fill="#000000" font-family="Arial" font-size="10" lengthAdjust="spacingAndGlyphs" textLength="59" x="742" y="421.8099">Categories:[]</text><ellipse cx="733" cy="431.8499" fill="none" rx="3" ry="3" style="stroke: #038048; stroke-width: 1.0;"/><text fill="#000000" font-family="Arial" font-size="10" lengthAdjust="spacingAndGlyphs" textLength="169" x="742" y="434.1899">OnBuildTask:BuildTaskCallbackType</text><line style="stroke: #919871; stroke-width: 1.5;" x1="723" x2="916" y1="441.0399" y2="441.0399"/></a><a xlink:href="../information/classes/class_terradue_1_1_portal_1_1_task.html" xlink:title="../information/classes/class_terradue_1_1_portal_1_1_task.html"><rect fill="#EEEBDC" filter="url(#f1)" height="60.38" style="stroke: #919871; stroke-width: 1.5;" width="92" x="522" y="101"/><ellipse cx="552.75" cy="117" fill="#ADD1B2" rx="11" ry="11" style="stroke: #919871; stroke-width: 1.0;"/><path d="M555.0938,112.6719 C554.1563,112.2344 553.5625,112.0938 552.6875,112.0938 C550.0625,112.0938 548.0625,114.1719 548.0625,116.8906 L548.0625,118.0156 C548.0625,120.5938 550.1719,122.4844 553.0625,122.4844 C554.2813,122.4844 555.4375,122.1875 556.1875,121.6406 C556.7656,121.2344 557.0938,120.7813 557.0938,120.3906 C557.0938,119.9375 556.7031,119.5469 556.2344,119.5469 C556.0156,119.5469 555.8125,119.625 555.625,119.8125 C555.1719,120.2969 555.1719,120.2969 554.9844,120.3906 C554.5625,120.6563 553.875,120.7813 553.1094,120.7813 C551.0625,120.7813 549.7656,119.6875 549.7656,117.9844 L549.7656,116.8906 C549.7656,115.1094 551.0156,113.7969 552.75,113.7969 C553.3281,113.7969 553.9375,113.9531 554.4063,114.2031 C554.8906,114.4844 555.0625,114.7031 555.1563,115.1094 C555.2188,115.5156 555.25,115.6406 555.3906,115.7656 C555.5313,115.9063 555.7656,116.0156 555.9844,116.0156 C556.25,116.0156 556.5156,115.875 556.6875,115.6563 C556.7969,115.5 556.8281,115.3125 556.8281,114.8906 L556.8281,113.4688 C556.8281,113.0313 556.8125,112.9063 556.7188,112.75 C556.5625,112.4844 556.2813,112.3438 555.9844,112.3438 C555.6875,112.3438 555.4844,112.4375 555.2656,112.75 L555.0938,112.6719 Z "/><text fill="#000000" font-family="Arial" font-size="11" lengthAdjust="spacingAndGlyphs" textLength="25" x="570.25" y="120.674">Task</text><line style="stroke: #919871; stroke-width: 1.5;" x1="523" x2="613" y1="133" y2="133"/><ellipse cx="533" cy="144.19" fill="none" rx="3" ry="3" style="stroke: #038048; stroke-width: 1.0;"/><text fill="#000000" font-family="Arial" font-size="10" lengthAdjust="spacingAndGlyphs" textLength="66" x="542" y="146.53">Priority:double</text><line style="stroke: #919871; stroke-width: 1.5;" x1="523" x2="613" y1="153.38" y2="153.38"/></a><a xlink:href="../information/classes/class_terradue_1_1_portal_1_1_user.html" xlink:title="../information/classes/class_terradue_1_1_portal_1_1_user.html"><rect fill="#EEEBDC" filter="url(#f1)" height="60.38" style="stroke: #919871; stroke-width: 1.5;" width="108" x="1859" y="706"/><ellipse cx="1897.4" cy="722" fill="#ADD1B2" rx="11" ry="11" style="stroke: #919871; stroke-width: 1.0;"/><path d="M1899.7438,717.6719 C1898.8063,717.2344 1898.2125,717.0938 1897.3375,717.0938 C1894.7125,717.0938 1892.7125,719.1719 1892.7125,721.8906 L1892.7125,723.0156 C1892.7125,725.5938 1894.8219,727.4844 1897.7125,727.4844 C1898.9313,727.4844 1900.0875,727.1875 1900.8375,726.6406 C1901.4156,726.2344 1901.7438,725.7813 1901.7438,725.3906 C1901.7438,724.9375 1901.3531,724.5469 1900.8844,724.5469 C1900.6656,724.5469 1900.4625,724.625 1900.275,724.8125 C1899.8219,725.2969 1899.8219,725.2969 1899.6344,725.3906 C1899.2125,725.6563 1898.525,725.7813 1897.7594,725.7813 C1895.7125,725.7813 1894.4156,724.6875 1894.4156,722.9844 L1894.4156,721.8906 C1894.4156,720.1094 1895.6656,718.7969 1897.4,718.7969 C1897.9781,718.7969 1898.5875,718.9531 1899.0563,719.2031 C1899.5406,719.4844 1899.7125,719.7031 1899.8063,720.1094 C1899.8688,720.5156 1899.9,720.6406 1900.0406,720.7656 C1900.1813,720.9063 1900.4156,721.0156 1900.6344,721.0156 C1900.9,721.0156 1901.1656,720.875 1901.3375,720.6563 C1901.4469,720.5 1901.4781,720.3125 1901.4781,719.8906 L1901.4781,718.4688 C1901.4781,718.0313 1901.4625,717.9063 1901.3688,717.75 C1901.2125,717.4844 1900.9313,717.3438 1900.6344,717.3438 C1900.3375,717.3438 1900.1344,717.4375 1899.9156,717.75 L1899.7438,717.6719 Z "/><text fill="#000000" font-family="Arial" font-size="11" lengthAdjust="spacingAndGlyphs" textLength="24" x="1916.6" y="725.674">User</text><line style="stroke: #919871; stroke-width: 1.5;" x1="1860" x2="1966" y1="738" y2="738"/><ellipse cx="1870" cy="749.19" fill="none" rx="3" ry="3" style="stroke: #038048; stroke-width: 1.0;"/><text fill="#000000" font-family="Arial" font-size="10" lengthAdjust="spacingAndGlyphs" textLength="82" x="1879" y="751.53">AccountStatus:int</text><line style="stroke: #919871; stroke-width: 1.5;" x1="1860" x2="1966" y1="758.38" y2="758.38"/></a><a xlink:href="../information/classes/class_terradue_1_1_portal_1_1_wps_process_offering.html" xlink:title="../information/classes/class_terradue_1_1_portal_1_1_wps_process_offering.html"><rect fill="#EEEBDC" filter="url(#f1)" height="60.38" style="stroke: #919871; stroke-width: 1.5;" width="185" x="39" y="101"/><ellipse cx="76.95" cy="117" fill="#ADD1B2" rx="11" ry="11" style="stroke: #919871; stroke-width: 1.0;"/><path d="M79.2938,112.6719 C78.3563,112.2344 77.7625,112.0938 76.8875,112.0938 C74.2625,112.0938 72.2625,114.1719 72.2625,116.8906 L72.2625,118.0156 C72.2625,120.5938 74.3719,122.4844 77.2625,122.4844 C78.4813,122.4844 79.6375,122.1875 80.3875,121.6406 C80.9656,121.2344 81.2938,120.7813 81.2938,120.3906 C81.2938,119.9375 80.9031,119.5469 80.4344,119.5469 C80.2156,119.5469 80.0125,119.625 79.825,119.8125 C79.3719,120.2969 79.3719,120.2969 79.1844,120.3906 C78.7625,120.6563 78.075,120.7813 77.3094,120.7813 C75.2625,120.7813 73.9656,119.6875 73.9656,117.9844 L73.9656,116.8906 C73.9656,115.1094 75.2156,113.7969 76.95,113.7969 C77.5281,113.7969 78.1375,113.9531 78.6063,114.2031 C79.0906,114.4844 79.2625,114.7031 79.3563,115.1094 C79.4188,115.5156 79.45,115.6406 79.5906,115.7656 C79.7313,115.9063 79.9656,116.0156 80.1844,116.0156 C80.45,116.0156 80.7156,115.875 80.8875,115.6563 C80.9969,115.5 81.0281,115.3125 81.0281,114.8906 L81.0281,113.4688 C81.0281,113.0313 81.0125,112.9063 80.9188,112.75 C80.7625,112.4844 80.4813,112.3438 80.1844,112.3438 C79.8875,112.3438 79.6844,112.4375 79.4656,112.75 L79.2938,112.6719 Z "/><text fill="#000000" font-family="Arial" font-size="11" lengthAdjust="spacingAndGlyphs" textLength="102" x="96.05" y="120.674">WpsProcessOffering</text><line style="stroke: #919871; stroke-width: 1.5;" x1="40" x2="223" y1="133" y2="133"/><ellipse cx="50" cy="144.19" fill="none" rx="3" ry="3" style="stroke: #038048; stroke-width: 1.0;"/><text fill="#000000" font-family="Arial" font-size="10" lengthAdjust="spacingAndGlyphs" textLength="159" x="59" y="146.53">FixedComputingResource:override</text><line style="stroke: #919871; stroke-width: 1.5;" x1="40" x2="223" y1="153.38" y2="153.38"/></a><a xlink:href="../information/classes/class_terradue_1_1_portal_1_1_wps_provider.html" xlink:title="../information/classes/class_terradue_1_1_portal_1_1_wps_provider.html"><rect fill="#EEEBDC" filter="url(#f1)" height="72.76" style="stroke: #919871; stroke-width: 1.5;" width="136" x="63" y="340"/><ellipse cx="96.45" cy="356" fill="#ADD1B2" rx="11" ry="11" style="stroke: #919871; stroke-width: 1.0;"/><path d="M98.7938,351.6719 C97.8563,351.2344 97.2625,351.0938 96.3875,351.0938 C93.7625,351.0938 91.7625,353.1719 91.7625,355.8906 L91.7625,357.0156 C91.7625,359.5938 93.8719,361.4844 96.7625,361.4844 C97.9813,361.4844 99.1375,361.1875 99.8875,360.6406 C100.4656,360.2344 100.7938,359.7813 100.7938,359.3906 C100.7938,358.9375 100.4031,358.5469 99.9344,358.5469 C99.7156,358.5469 99.5125,358.625 99.325,358.8125 C98.8719,359.2969 98.8719,359.2969 98.6844,359.3906 C98.2625,359.6563 97.575,359.7813 96.8094,359.7813 C94.7625,359.7813 93.4656,358.6875 93.4656,356.9844 L93.4656,355.8906 C93.4656,354.1094 94.7156,352.7969 96.45,352.7969 C97.0281,352.7969 97.6375,352.9531 98.1063,353.2031 C98.5906,353.4844 98.7625,353.7031 98.8563,354.1094 C98.9188,354.5156 98.95,354.6406 99.0906,354.7656 C99.2313,354.9063 99.4656,355.0156 99.6844,355.0156 C99.95,355.0156 100.2156,354.875 100.3875,354.6563 C100.4969,354.5 100.5281,354.3125 100.5281,353.8906 L100.5281,352.4688 C100.5281,352.0313 100.5125,351.9063 100.4188,351.75 C100.2625,351.4844 99.9813,351.3438 99.6844,351.3438 C99.3875,351.3438 99.1844,351.4375 98.9656,351.75 L98.7938,351.6719 Z "/><text fill="#000000" font-family="Arial" font-size="11" lengthAdjust="spacingAndGlyphs" textLength="63" x="114.55" y="359.674">WpsProvider</text><line style="stroke: #919871; stroke-width: 1.5;" x1="64" x2="198" y1="372" y2="372"/><ellipse cx="74" cy="383.19" fill="none" rx="3" ry="3" style="stroke: #038048; stroke-width: 1.0;"/><text fill="#000000" font-family="Arial" font-size="10" lengthAdjust="spacingAndGlyphs" textLength="49" x="83" y="385.53">Proxy:bool</text><line style="stroke: #919871; stroke-width: 1.5;" x1="64" x2="198" y1="392.38" y2="392.38"/><ellipse cx="74" cy="403.57" fill="#84BE84" rx="3" ry="3" style="stroke: #038048; stroke-width: 1.0;"/><text fill="#000000" font-family="Arial" font-size="10" lengthAdjust="spacingAndGlyphs" textLength="110" x="83" y="405.91">StoreProcessOfferings()</text></a><path d="M1296.09,180.569 C1294.88,202.454 1295.38,228.308 1301,251 C1308.2,280.061 1323.53,309.812 1337.6,332.995 " fill="none" style="stroke: #000000; stroke-width: 1.0;"/><polygon fill="#000000" points="1297.03,167.519,1292.6074,173.2147,1296.164,179.4877,1300.5866,173.792,1297.03,167.519" style="stroke: #000000; stroke-width: 1.0;"/><text fill="#000000" font-family="Arial" font-size="11" lengthAdjust="spacingAndGlyphs" textLength="18" x="1302" y="246.4829">has</text><text fill="#000000" font-family="Arial" font-size="11" lengthAdjust="spacingAndGlyphs" textLength="6" x="1330.3925" y="321.834">1</text><path d="M1315.07,180.272 C1326.93,224.963 1344.24,290.198 1355.56,332.869 " fill="none" style="stroke: #000000; stroke-width: 1.0;"/><polygon fill="#000000" points="1311.73,167.679,1309.4038,174.5046,1314.8096,179.2771,1317.1358,172.4515,1311.73,167.679" style="stroke: #000000; stroke-width: 1.0;"/><text fill="#000000" font-family="Arial" font-size="11" lengthAdjust="spacingAndGlyphs" textLength="18" x="1333" y="246.4829">has</text><text fill="#000000" font-family="Arial" font-size="11" lengthAdjust="spacingAndGlyphs" textLength="6" x="1352.9579" y="321.8122">1</text><path d="M568,431.304 C568,511.181 568,655.52 568,712.712 " fill="none" style="stroke: #000000; stroke-width: 1.0;"/><polygon fill="#000000" points="568,418.118,564,424.118,568,430.118,572,424.118,568,418.118" style="stroke: #000000; stroke-width: 1.0;"/><text fill="#000000" font-family="Arial" font-size="11" lengthAdjust="spacingAndGlyphs" textLength="18" x="569" y="510.4829">has</text><text fill="#000000" font-family="Arial" font-size="11" lengthAdjust="spacingAndGlyphs" textLength="6" x="569.3995" y="701.7862">1</text><path d="M1089,186.867 C1089,231.238 1089,292.375 1089,332.991 " fill="none" style="stroke: #000000; stroke-width: 1.0;"/><polygon fill="#000000" points="1089,173.676,1085,179.676,1089,185.676,1093,179.676,1089,173.676" style="stroke: #000000; stroke-width: 1.0;"/><text fill="#000000" font-family="Arial" font-size="11" lengthAdjust="spacingAndGlyphs" textLength="18" x="1090" y="246.4829">has</text><text fill="#000000" font-family="Arial" font-size="11" lengthAdjust="spacingAndGlyphs" textLength="6" x="1090.138" y="321.7417">1</text><path d="M608.653,170.524 C644.996,205.857 699.212,258.567 743.633,301.754 " fill="none" style="stroke: #000000; stroke-width: 1.0;"/><polygon fill="#000000" points="598.9,161.042,600.413,168.0926,607.5031,169.4078,605.9902,162.3572,598.9,161.042" style="stroke: #000000; stroke-width: 1.0;"/><text fill="#000000" font-family="Arial" font-size="11" lengthAdjust="spacingAndGlyphs" textLength="18" x="687" y="246.4829">has</text><text fill="#000000" font-family="Arial" font-size="11" lengthAdjust="spacingAndGlyphs" textLength="6" x="731.7109" y="290.8125">1</text><path d="M532.067,171.017 C500.215,206.488 452.89,259.191 414.203,302.274 " fill="none" style="stroke: #000000; stroke-width: 1.0;"/><polygon fill="#000000" points="541.024,161.042,534.0389,162.8333,533.0059,169.97,539.991,168.1787,541.024,161.042" style="stroke: #000000; stroke-width: 1.0;"/><text fill="#000000" font-family="Arial" font-size="11" lengthAdjust="spacingAndGlyphs" textLength="18" x="472" y="246.4829">has</text><text fill="#000000" font-family="Arial" font-size="11" lengthAdjust="spacingAndGlyphs" textLength="6" x="421.8926" y="299.7821">1</text><path d="M568,174.059 C568,218.744 568,288.228 568,332.921 " fill="none" style="stroke: #000000; stroke-width: 1.0;"/><polygon fill="#000000" points="568,161.042,564,167.042,568,173.042,572,167.042,568,161.042" style="stroke: #000000; stroke-width: 1.0;"/><text fill="#000000" font-family="Arial" font-size="11" lengthAdjust="spacingAndGlyphs" textLength="18" x="569" y="246.4829">has</text><text fill="#000000" font-family="Arial" font-size="11" lengthAdjust="spacingAndGlyphs" textLength="6" x="569.1618" y="321.9884">1</text><path d="M131,174.112 C131,221.141 131,295.593 131,339.734 " fill="none" style="stroke: #000000; stroke-width: 1.0;"/><polygon fill="#000000" points="131,161.042,127,167.042,131,173.042,135,167.042,131,161.042" style="stroke: #000000; stroke-width: 1.0;"/><text fill="#000000" font-family="Arial" font-size="11" lengthAdjust="spacingAndGlyphs" textLength="18" x="132" y="246.4829">has</text><text fill="#000000" font-family="Arial" font-size="11" lengthAdjust="spacingAndGlyphs" textLength="6" x="132.1568" y="328.8467">1</text><text fill="#888888" font-family="sans-serif" font-size="10" lengthAdjust="spacingAndGlyphs" textLength="83" x="1038" y="978.53">Workflow example</text></g></svg>