<?xml version="1.0" encoding="UTF-8" standalone="yes"?><svg xmlns="http://www.w3.org/2000/svg" xmlns:xlink="http://www.w3.org/1999/xlink" height="766pt" style="width:2405px;height:766px;" version="1.1" viewBox="0 0 2405 766" width="2405pt"><defs><filter height="300%" id="f1" width="300%" x="-1" y="-1"><feGaussianBlur result="blurOut" stdDeviation="2.0"/><feColorMatrix in="blurOut" result="blurOut2" type="matrix" values="0 0 0 0 0 0 0 0 0 0 0 0 0 0 0 0 0 0 .4 0"/><feOffset dx="4.0" dy="4.0" in="blurOut2" result="blurOut3"/><feBlend in="SourceGraphic" in2="blurOut3" mode="normal"/></filter></defs><g><polygon fill="#FFFFFF" filter="url(#f1)" points="925,168,964,168,971,190.4883,1339,190.4883,1339,650,925,650,925,168" style="stroke: #000000; stroke-width: 2.0;"/><line style="stroke: #000000; stroke-width: 2.0;" x1="925" x2="971" y1="190.4883" y2="190.4883"/><text fill="#000000" font-family="sans-serif" font-size="14" font-weight="bold" lengthAdjust="spacingAndGlyphs" textLength="33" x="929" y="183.5352">Core</text><polygon fill="#FFFFFF" filter="url(#f1)" points="1838,168,1886,168,1893,190.4883,2362,190.4883,2362,406,1838,406,1838,168" style="stroke: #000000; stroke-width: 2.0;"/><line style="stroke: #000000; stroke-width: 2.0;" x1="1838" x2="1893" y1="190.4883" y2="190.4883"/><text fill="#000000" font-family="sans-serif" font-size="14" font-weight="bold" lengthAdjust="spacingAndGlyphs" textLength="42" x="1842" y="183.5352">Cloud</text><polygon fill="#FFFFFF" filter="url(#f1)" points="1666,310,1729,310,1736,332.4883,1814,332.4883,1814,528,1666,528,1666,310" style="stroke: #000000; stroke-width: 2.0;"/><line style="stroke: #000000; stroke-width: 2.0;" x1="1666" x2="1736" y1="332.4883" y2="332.4883"/><text fill="#000000" font-family="sans-serif" font-size="14" font-weight="bold" lengthAdjust="spacingAndGlyphs" textLength="57" x="1670" y="325.5352">Security</text><polygon fill="#FFFFFF" filter="url(#f1)" points="22,168,112,168,119,190.4883,192,190.4883,192,401,22,401,22,168" style="stroke: #000000; stroke-width: 2.0;"/><line style="stroke: #000000; stroke-width: 2.0;" x1="22" x2="119" y1="190.4883" y2="190.4883"/><text fill="#000000" font-family="sans-serif" font-size="14" font-weight="bold" lengthAdjust="spacingAndGlyphs" textLength="84" x="26" y="183.5352">OpenSearch</text><polygon fill="#FFFFFF" filter="url(#f1)" points="216,310,266,310,273,332.4883,660,332.4883,660,406,216,406,216,310" style="stroke: #000000; stroke-width: 2.0;"/><line style="stroke: #000000; stroke-width: 2.0;" x1="216" x2="273" y1="332.4883" y2="332.4883"/><text fill="#000000" font-family="sans-serif" font-size="14" font-weight="bold" lengthAdjust="spacingAndGlyphs" textLength="44" x="220" y="325.5352">Model</text><polygon fill="#FFFFFF" filter="url(#f1)" points="1532,24,1565,24,1572,46.4883,1692,46.4883,1692,120,1532,120,1532,24" style="stroke: #000000; stroke-width: 2.0;"/><line style="stroke: #000000; stroke-width: 2.0;" x1="1532" x2="1572" y1="46.4883" y2="46.4883"/><text fill="#000000" font-family="sans-serif" font-size="14" font-weight="bold" lengthAdjust="spacingAndGlyphs" textLength="27" x="1536" y="39.5352">Tep</text><a target="_top" xlink:href="../computational/components/group___authorisation.html" xlink:title="../computational/components/group___authorisation.html"><rect fill="#EEEBDC" filter="url(#f1)" height="42.6489" style="stroke: #919871; stroke-width: 1.5;" width="103" x="1143.75" y="468.5"/><rect fill="#EEEBDC" height="10" style="stroke: #919871; stroke-width: 1.5;" width="15" x="1226.75" y="473.5"/><rect fill="#EEEBDC" height="2" style="stroke: #919871; stroke-width: 1.5;" width="4" x="1224.75" y="475.5"/><rect fill="#EEEBDC" height="2" style="stroke: #919871; stroke-width: 1.5;" width="4" x="1224.75" y="479.5"/><text fill="#000000" font-family="Arial" font-size="11" lengthAdjust="spacingAndGlyphs" textLength="63" x="1158.75" y="498.8179">Authorisation</text></a><a target="_top" xlink:href="../computational/components/group___persistence.html" xlink:title="../computational/components/group___persistence.html"><rect fill="#EEEBDC" filter="url(#f1)" height="42.6489" style="stroke: #919871; stroke-width: 1.5;" width="136" x="1187" y="590.5"/><rect fill="#EEEBDC" height="10" style="stroke: #919871; stroke-width: 1.5;" width="15" x="1303" y="595.5"/><rect fill="#EEEBDC" height="2" style="stroke: #919871; stroke-width: 1.5;" width="4" x="1301" y="597.5"/><rect fill="#EEEBDC" height="2" style="stroke: #919871; stroke-width: 1.5;" width="4" x="1301" y="601.5"/><text fill="#000000" font-family="Arial" font-size="11" lengthAdjust="spacingAndGlyphs" textLength="96" x="1202" y="620.8179">Persistence of Data</text></a><a target="_top" xlink:href="../computational/components/group___context.html" xlink:title="../computational/components/group___context.html"><rect fill="#EEEBDC" filter="url(#f1)" height="42.6489" style="stroke: #919871; stroke-width: 1.5;" width="78" x="1240" y="346.5"/><rect fill="#EEEBDC" height="10" style="stroke: #919871; stroke-width: 1.5;" width="15" x="1298" y="351.5"/><rect fill="#EEEBDC" height="2" style="stroke: #919871; stroke-width: 1.5;" width="4" x="1296" y="353.5"/><rect fill="#EEEBDC" height="2" style="stroke: #919871; stroke-width: 1.5;" width="4" x="1296" y="357.5"/><text fill="#000000" font-family="Arial" font-size="11" lengthAdjust="spacingAndGlyphs" textLength="38" x="1255" y="376.8179">Context</text></a><a target="_top" xlink:href="../computational/components/group___web_context.html" xlink:title="../computational/components/group___web_context.html"><rect fill="#EEEBDC" filter="url(#f1)" height="42.6489" style="stroke: #919871; stroke-width: 1.5;" width="100" x="1223" y="204.5"/><rect fill="#EEEBDC" height="10" style="stroke: #919871; stroke-width: 1.5;" width="15" x="1303" y="209.5"/><rect fill="#EEEBDC" height="2" style="stroke: #919871; stroke-width: 1.5;" width="4" x="1301" y="211.5"/><rect fill="#EEEBDC" height="2" style="stroke: #919871; stroke-width: 1.5;" width="4" x="1301" y="215.5"/><text fill="#000000" font-family="Arial" font-size="11" lengthAdjust="spacingAndGlyphs" textLength="60" x="1238" y="234.8179">WebContext</text></a><a target="_top" xlink:href="../computational/components/group___series.html" xlink:title="../computational/components/group___series.html"><rect fill="#EEEBDC" filter="url(#f1)" height="42.6489" style="stroke: #919871; stroke-width: 1.5;" width="71" x="991.75" y="346.5"/><rect fill="#EEEBDC" height="10" style="stroke: #919871; stroke-width: 1.5;" width="15" x="1042.75" y="351.5"/><rect fill="#EEEBDC" height="2" style="stroke: #919871; stroke-width: 1.5;" width="4" x="1040.75" y="353.5"/><rect fill="#EEEBDC" height="2" style="stroke: #919871; stroke-width: 1.5;" width="4" x="1040.75" y="357.5"/><text fill="#000000" font-family="Arial" font-size="11" lengthAdjust="spacingAndGlyphs" textLength="31" x="1006.75" y="376.8179">Series</text></a><a target="_top" xlink:href="../computational/components/group___service.html" xlink:title="../computational/components/group___service.html"><rect fill="#EEEBDC" filter="url(#f1)" height="42.6489" style="stroke: #919871; stroke-width: 1.5;" width="77" x="1097.75" y="346.5"/><rect fill="#EEEBDC" height="10" style="stroke: #919871; stroke-width: 1.5;" width="15" x="1154.75" y="351.5"/><rect fill="#EEEBDC" height="2" style="stroke: #919871; stroke-width: 1.5;" width="4" x="1152.75" y="353.5"/><rect fill="#EEEBDC" height="2" style="stroke: #919871; stroke-width: 1.5;" width="4" x="1152.75" y="357.5"/><text fill="#000000" font-family="Arial" font-size="11" lengthAdjust="spacingAndGlyphs" textLength="37" x="1112.75" y="376.8179">Service</text></a><a target="_top" xlink:href="../computational/components/group___wps_service.html" xlink:title="../computational/components/group___wps_service.html"><rect fill="#EEEBDC" filter="url(#f1)" height="42.6489" style="stroke: #919871; stroke-width: 1.5;" width="104" x="1084" y="204.5"/><rect fill="#EEEBDC" height="10" style="stroke: #919871; stroke-width: 1.5;" width="15" x="1168" y="209.5"/><rect fill="#EEEBDC" height="2" style="stroke: #919871; stroke-width: 1.5;" width="4" x="1166" y="211.5"/><rect fill="#EEEBDC" height="2" style="stroke: #919871; stroke-width: 1.5;" width="4" x="1166" y="215.5"/><text fill="#000000" font-family="Arial" font-size="11" lengthAdjust="spacingAndGlyphs" textLength="64" x="1099" y="234.8179">WPS Service</text></a><a target="_top" xlink:href="../computational/components/group___wps_provider.html" xlink:title="../computational/components/group___wps_provider.html"><rect fill="#EEEBDC" filter="url(#f1)" height="42.6489" style="stroke: #919871; stroke-width: 1.5;" width="108" x="941" y="204.5"/><rect fill="#EEEBDC" height="10" style="stroke: #919871; stroke-width: 1.5;" width="15" x="1029" y="209.5"/><rect fill="#EEEBDC" height="2" style="stroke: #919871; stroke-width: 1.5;" width="4" x="1027" y="211.5"/><rect fill="#EEEBDC" height="2" style="stroke: #919871; stroke-width: 1.5;" width="4" x="1027" y="215.5"/><text fill="#000000" font-family="Arial" font-size="11" lengthAdjust="spacingAndGlyphs" textLength="68" x="956" y="234.8179">WPS Provider</text></a><a target="_top" xlink:href="../computational/components/group___cloud_appliance.html" xlink:title="../computational/components/group___cloud_appliance.html"><rect fill="#EEEBDC" filter="url(#f1)" height="42.6489" style="stroke: #919871; stroke-width: 1.5;" width="124" x="1977" y="204.5"/><rect fill="#EEEBDC" height="10" style="stroke: #919871; stroke-width: 1.5;" width="15" x="2081" y="209.5"/><rect fill="#EEEBDC" height="2" style="stroke: #919871; stroke-width: 1.5;" width="4" x="2079" y="211.5"/><rect fill="#EEEBDC" height="2" style="stroke: #919871; stroke-width: 1.5;" width="4" x="2079" y="215.5"/><text fill="#000000" font-family="Arial" font-size="11" lengthAdjust="spacingAndGlyphs" textLength="84" x="1992" y="234.8179">Cloud Applicance</text></a><a target="_top" xlink:href="../computational/components/group___cloud_provider.html" xlink:title="../computational/components/group___cloud_provider.html"><rect fill="#EEEBDC" filter="url(#f1)" height="42.6489" style="stroke: #919871; stroke-width: 1.5;" width="112" x="1961" y="346.5"/><rect fill="#EEEBDC" height="10" style="stroke: #919871; stroke-width: 1.5;" width="15" x="2053" y="351.5"/><rect fill="#EEEBDC" height="2" style="stroke: #919871; stroke-width: 1.5;" width="4" x="2051" y="353.5"/><rect fill="#EEEBDC" height="2" style="stroke: #919871; stroke-width: 1.5;" width="4" x="2051" y="357.5"/><text fill="#000000" font-family="Arial" font-size="11" lengthAdjust="spacingAndGlyphs" textLength="72" x="1976" y="376.8179">Cloud Provider</text></a><rect fill="#EEEBDC" filter="url(#f1)" height="42.6489" style="stroke: #919871; stroke-width: 1.5;" width="209" x="2136.75" y="204.5"/><rect fill="#EEEBDC" height="10" style="stroke: #919871; stroke-width: 1.5;" width="15" x="2325.75" y="209.5"/><rect fill="#EEEBDC" height="2" style="stroke: #919871; stroke-width: 1.5;" width="4" x="2323.75" y="211.5"/><rect fill="#EEEBDC" height="2" style="stroke: #919871; stroke-width: 1.5;" width="4" x="2323.75" y="215.5"/><text fill="#000000" font-family="Arial" font-size="11" lengthAdjust="spacingAndGlyphs" textLength="169" x="2151.75" y="234.8179">group___virtual_machine_template</text><a target="_top" xlink:href="../computational/components/group___one_client.html" xlink:title="../computational/components/group___one_client.html"><rect fill="#EEEBDC" filter="url(#f1)" height="42.6489" style="stroke: #919871; stroke-width: 1.5;" width="88" x="1854" y="204.5"/><rect fill="#EEEBDC" height="10" style="stroke: #919871; stroke-width: 1.5;" width="15" x="1922" y="209.5"/><rect fill="#EEEBDC" height="2" style="stroke: #919871; stroke-width: 1.5;" width="4" x="1920" y="211.5"/><rect fill="#EEEBDC" height="2" style="stroke: #919871; stroke-width: 1.5;" width="4" x="1920" y="215.5"/><text fill="#000000" font-family="Arial" font-size="11" lengthAdjust="spacingAndGlyphs" textLength="48" x="1869" y="234.8179">OneClient</text></a><a target="_top" xlink:href="../computational/components/group___auth___umsso.html" xlink:title="../computational/components/group___auth___umsso.html"><rect fill="#EEEBDC" filter="url(#f1)" height="42.6489" style="stroke: #919871; stroke-width: 1.5;" width="115" x="1682.75" y="346.5"/><rect fill="#EEEBDC" height="10" style="stroke: #919871; stroke-width: 1.5;" width="15" x="1777.75" y="351.5"/><rect fill="#EEEBDC" height="2" style="stroke: #919871; stroke-width: 1.5;" width="4" x="1775.75" y="353.5"/><rect fill="#EEEBDC" height="2" style="stroke: #919871; stroke-width: 1.5;" width="4" x="1775.75" y="357.5"/><text fill="#000000" font-family="Arial" font-size="11" lengthAdjust="spacingAndGlyphs" textLength="75" x="1697.75" y="376.8179">UM-SSO plugin</text></a><a target="_top" xlink:href="../computational/components/group___authentication.html" xlink:title="../computational/components/group___authentication.html"><rect fill="#EEEBDC" filter="url(#f1)" height="42.6489" style="stroke: #919871; stroke-width: 1.5;" width="108" x="1682" y="468.5"/><rect fill="#EEEBDC" height="10" style="stroke: #919871; stroke-width: 1.5;" width="15" x="1770" y="473.5"/><rect fill="#EEEBDC" height="2" style="stroke: #919871; stroke-width: 1.5;" width="4" x="1768" y="475.5"/><rect fill="#EEEBDC" height="2" style="stroke: #919871; stroke-width: 1.5;" width="4" x="1768" y="479.5"/><text fill="#000000" font-family="Arial" font-size="11" lengthAdjust="spacingAndGlyphs" textLength="68" x="1697" y="498.8179">Authentication</text></a><a target="_top" xlink:href="../computational/components/group___open_search_engine.html" xlink:title="../computational/components/group___open_search_engine.html"><rect fill="#EEEBDC" filter="url(#f1)" height="42.6489" style="stroke: #919871; stroke-width: 1.5;" width="138" x="38" y="204.5"/><rect fill="#EEEBDC" height="10" style="stroke: #919871; stroke-width: 1.5;" width="15" x="156" y="209.5"/><rect fill="#EEEBDC" height="2" style="stroke: #919871; stroke-width: 1.5;" width="4" x="154" y="211.5"/><rect fill="#EEEBDC" height="2" style="stroke: #919871; stroke-width: 1.5;" width="4" x="154" y="215.5"/><text fill="#000000" font-family="Arial" font-size="11" lengthAdjust="spacingAndGlyphs" textLength="98" x="53" y="234.8179">OpenSearch Engine</text></a><a target="_top" xlink:href="../computational/components/group___open_searchable.html" xlink:title="../computational/components/group___open_searchable.html"><ellipse cx="120" cy="360" fill="#FEFECE" filter="url(#f1)" rx="8" ry="8" style="stroke: #A80036; stroke-width: 2.0;"/><text fill="#000000" font-family="sans-serif" font-size="14" lengthAdjust="spacingAndGlyphs" textLength="112" x="64" y="382.5352">OpenSearchable</text></a><rect fill="#EEEBDC" filter="url(#f1)" height="42.6489" style="stroke: #919871; stroke-width: 1.5;" width="110" x="232" y="346.5"/><rect fill="#EEEBDC" height="10" style="stroke: #919871; stroke-width: 1.5;" width="15" x="322" y="351.5"/><rect fill="#EEEBDC" height="2" style="stroke: #919871; stroke-width: 1.5;" width="4" x="320" y="353.5"/><rect fill="#EEEBDC" height="2" style="stroke: #919871; stroke-width: 1.5;" width="4" x="320" y="357.5"/><text fill="#000000" font-family="Arial" font-size="11" lengthAdjust="spacingAndGlyphs" textLength="70" x="247" y="376.8179">group___atom</text><a target="_top" xlink:href="../computational/components/group___o_w_s_context.html" xlink:title="../computational/components/group___o_w_s_context.html"><rect fill="#EEEBDC" filter="url(#f1)" height="42.6489" style="stroke: #919871; stroke-width: 1.5;" width="107" x="536.75" y="346.5"/><rect fill="#EEEBDC" height="10" style="stroke: #919871; stroke-width: 1.5;" width="15" x="623.75" y="351.5"/><rect fill="#EEEBDC" height="2" style="stroke: #919871; stroke-width: 1.5;" width="4" x="621.75" y="353.5"/><rect fill="#EEEBDC" height="2" style="stroke: #919871; stroke-width: 1.5;" width="4" x="621.75" y="357.5"/><text fill="#000000" font-family="Arial" font-size="11" lengthAdjust="spacingAndGlyphs" textLength="67" x="551.75" y="376.8179">OWS Context</text></a><a target="_top" xlink:href="../computational/components/group___syndication.html" xlink:title="../computational/components/group___syndication.html"><rect fill="#EEEBDC" filter="url(#f1)" height="42.6489" style="stroke: #919871; stroke-width: 1.5;" width="124" x="377" y="346.5"/><rect fill="#EEEBDC" height="10" style="stroke: #919871; stroke-width: 1.5;" width="15" x="481" y="351.5"/><rect fill="#EEEBDC" height="2" style="stroke: #919871; stroke-width: 1.5;" width="4" x="479" y="353.5"/><rect fill="#EEEBDC" height="2" style="stroke: #919871; stroke-width: 1.5;" width="4" x="479" y="357.5"/><text fill="#000000" font-family="Arial" font-size="11" lengthAdjust="spacingAndGlyphs" textLength="84" x="392" y="376.8179">Syndication Feed</text></a><a target="_top" xlink:href="../computational/components/group___cloud_wps_factory.html" xlink:title="../computational/components/group___cloud_wps_factory.html"><rect fill="#EEEBDC" filter="url(#f1)" height="42.6489" style="stroke: #919871; stroke-width: 1.5;" width="128" x="1548" y="60.5"/><rect fill="#EEEBDC" height="10" style="stroke: #919871; stroke-width: 1.5;" width="15" x="1656" y="65.5"/><rect fill="#EEEBDC" height="2" style="stroke: #919871; stroke-width: 1.5;" width="4" x="1654" y="67.5"/><rect fill="#EEEBDC" height="2" style="stroke: #919871; stroke-width: 1.5;" width="4" x="1654" y="71.5"/><text fill="#000000" font-family="Arial" font-size="11" lengthAdjust="spacingAndGlyphs" textLength="88" x="1563" y="90.8179">CloudWpsFactory</text></a><a target="_top" xlink:href="../computational/components/group___open_nebula_x_m_l_r_p_c.html" xlink:title="../computational/components/group___open_nebula_x_m_l_r_p_c.html"><ellipse cx="1463" cy="360" fill="#FEFECE" filter="url(#f1)" rx="8" ry="8" style="stroke: #A80036; stroke-width: 2.0;"/><text fill="#000000" font-family="sans-serif" font-size="14" lengthAdjust="spacingAndGlyphs" textLength="216" x="1355" y="382.5352">OpenNebula XML-RPC Interface</text></a><a target="_top" xlink:href="../computational/components/group___s_q_l_connector.html" xlink:title="../computational/components/group___s_q_l_connector.html"><ellipse cx="1255.25" cy="721" fill="#FEFECE" filter="url(#f1)" rx="8" ry="8" style="stroke: #A80036; stroke-width: 2.0;"/><text fill="#000000" font-family="sans-serif" font-size="14" lengthAdjust="spacingAndGlyphs" textLength="159" x="1175.75" y="743.5352">SQL interface to RDBMS</text></a><a target="_top" xlink:href="../computational/components/group___w_p_s.html" xlink:title="../computational/components/group___w_p_s.html"><ellipse cx="794" cy="360" fill="#FEFECE" filter="url(#f1)" rx="8" ry="8" style="stroke: #A80036; stroke-width: 2.0;"/><text fill="#000000" font-family="sans-serif" font-size="14" lengthAdjust="spacingAndGlyphs" textLength="230" x="679" y="382.5352">Web Processing Services Interface</text></a><polygon fill="#FBFB77" filter="url(#f1)" points="511,477.5,511,502.8105,691,502.8105,691,487.5,681,477.5,511,477.5" style="stroke: #A80036; stroke-width: 1.0;"/><polygon fill="#FBFB77" points="511,477.5,511,502.8105,691,502.8105,691,487.5,681,477.5,603.932,477.5,591.891,389.629,595.932,477.5,511,477.5" style="stroke: #A80036; stroke-width: 1.0;"/><line style="stroke: #A80036; stroke-width: 1.0;" x1="681" x2="681" y1="477.5" y2="487.5"/><line style="stroke: #A80036; stroke-width: 1.0;" x1="691" x2="681" y1="487.5" y2="487.5"/><a target="_top" xlink:href="../computational/components/group___o_w_s_context_atom_feed.html" xlink:title="../computational/components/group___o_w_s_context_atom_feed.html"><text fill="#0000FF" font-family="sans-serif" font-size="13" lengthAdjust="spacingAndGlyphs" text-decoration="underline" textLength="159" x="517" y="495.0684">(OWS Context Document)</text><line style="stroke: #0000FF; stroke-width: 1.0;" x1="517" x2="676" y1="497.0684" y2="497.0684"/></a><polygon fill="#FBFB77" filter="url(#f1)" points="380,477.5,380,502.8105,476,502.8105,476,487.5,466,477.5,380,477.5" style="stroke: #A80036; stroke-width: 1.0;"/><polygon fill="#FBFB77" points="380,477.5,380,502.8105,476,502.8105,476,487.5,466,477.5,433.068,477.5,437.109,389.629,425.068,477.5,380,477.5" style="stroke: #A80036; stroke-width: 1.0;"/><line style="stroke: #A80036; stroke-width: 1.0;" x1="466" x2="466" y1="477.5" y2="487.5"/><line style="stroke: #A80036; stroke-width: 1.0;" x1="476" x2="466" y1="487.5" y2="487.5"/><a target="_top" xlink:href="../computational/components/group___atom.html" xlink:title="../computational/components/group___atom.html"><text fill="#0000FF" font-family="sans-serif" font-size="13" lengthAdjust="spacingAndGlyphs" text-decoration="underline" textLength="75" x="386" y="495.0684">(Atom Feed)</text><line style="stroke: #0000FF; stroke-width: 1.0;" x1="386" x2="461" y1="497.0684" y2="497.0684"/></a><rect fill="#EEEBDC" filter="url(#f1)" height="42.6489" style="stroke: #919871; stroke-width: 1.5;" width="150" x="1833" y="468.5"/><rect fill="#EEEBDC" height="10" style="stroke: #919871; stroke-width: 1.5;" width="15" x="1963" y="473.5"/><rect fill="#EEEBDC" height="2" style="stroke: #919871; stroke-width: 1.5;" width="4" x="1961" y="475.5"/><rect fill="#EEEBDC" height="2" style="stroke: #919871; stroke-width: 1.5;" width="4" x="1961" y="479.5"/><text fill="#000000" font-family="Arial" font-size="11" lengthAdjust="spacingAndGlyphs" textLength="110" x="1848" y="498.8179">group___open_search</text><path d="M1739.31,389.629 C1738.58,411.608 1737.43,446.209 1736.69,468.239 " fill="none" style="stroke: #000000; stroke-width: 1.0;"/><text fill="#000000" font-family="Arial" font-size="11" lengthAdjust="spacingAndGlyphs" textLength="55" x="1740" y="433.8179">implements</text><path d="M1681.76,504.532 C1595.14,526.142 1425.47,568.471 1328.19,592.741 " fill="none" style="stroke: #000000; stroke-width: 1.0; stroke-dasharray: 7.0,7.0;"/><polygon fill="#000000" points="1323.32,593.954,1333.0219,595.6491,1328.1704,592.74,1331.0795,587.8885,1323.32,593.954" style="stroke: #000000; stroke-width: 1.0;"/><text fill="#000000" font-family="Arial" font-size="11" lengthAdjust="spacingAndGlyphs" textLength="0" x="1514" y="555.8179"/><path d="M1205.31,511.629 C1215.57,532.149 1231.33,563.669 1242.35,585.691 " fill="none" style="stroke: #000000; stroke-width: 1.0; stroke-dasharray: 7.0,7.0;"/><polygon fill="#000000" points="1244.62,590.239,1244.1728,580.4003,1242.3839,585.7669,1237.0174,583.978,1244.62,590.239" style="stroke: #000000; stroke-width: 1.0;"/><text fill="#000000" font-family="Arial" font-size="11" lengthAdjust="spacingAndGlyphs" textLength="0" x="1233" y="555.8179"/><path d="M2076.72,247.603 C2087.55,255.564 2098.04,265.746 2104,278 C2155.17,383.187 2129.15,448.073 2052,536 C2035.48,554.831 2025.25,553.704 2001,560 C1875.3,592.639 1490.41,605.412 1328.25,609.435 " fill="none" style="stroke: #000000; stroke-width: 1.0; stroke-dasharray: 7.0,7.0;"/><polygon fill="#000000" points="1323.05,609.563,1332.1499,613.3303,1328.0483,609.4344,1331.9442,605.3329,1323.05,609.563" style="stroke: #000000; stroke-width: 1.0;"/><text fill="#000000" font-family="Arial" font-size="11" lengthAdjust="spacingAndGlyphs" textLength="0" x="2127" y="433.8179"/><path d="M2035.75,247.657 C2031.85,272.472 2025.31,314.12 2021.07,341.073 " fill="none" style="stroke: #000000; stroke-width: 1.0; stroke-dasharray: 7.0,7.0;"/><polygon fill="#000000" points="2020.26,346.258,2025.6107,337.9894,2021.0374,341.3188,2017.7079,336.7455,2020.26,346.258" style="stroke: #000000; stroke-width: 1.0;"/><text fill="#000000" font-family="Arial" font-size="11" lengthAdjust="spacingAndGlyphs" textLength="0" x="2034" y="289.8179"/><path d="M1976.66,243.866 C1970.71,245.326 1964.75,246.728 1959,248 C1827.15,277.165 1768.65,221.809 1660,302 C1614.9,335.288 1647.5,381.262 1602,414 C1475.31,505.153 1406.4,430.062 1255,468 C1253.87,468.283 1252.73,468.579 1251.58,468.886 " fill="none" style="stroke: #000000; stroke-width: 1.0; stroke-dasharray: 7.0,7.0;"/><polygon fill="#000000" points="1246.53,470.295,1256.2736,471.7313,1251.3464,468.9524,1254.1253,464.0252,1246.53,470.295" style="stroke: #000000; stroke-width: 1.0;"/><text fill="#000000" font-family="Arial" font-size="11" lengthAdjust="spacingAndGlyphs" textLength="0" x="1664" y="371.8179"/><path d="M2024.74,389.663 C2036.65,425.447 2054.15,498.692 2014,536 C1964.36,582.13 1508.78,602.442 1328.22,608.73 " fill="none" style="stroke: #000000; stroke-width: 1.0; stroke-dasharray: 7.0,7.0;"/><polygon fill="#000000" points="1323.22,608.903,1332.3518,612.5921,1328.2171,608.7316,1332.0776,604.5968,1323.22,608.903" style="stroke: #000000; stroke-width: 1.0;"/><text fill="#000000" font-family="Arial" font-size="11" lengthAdjust="spacingAndGlyphs" textLength="0" x="2042" y="493.8179"/><path d="M1960.98,388.916 C1906.16,408.261 1828.8,435.13 1814,438 C1578.03,483.768 1511.39,430.261 1274,468 C1266.71,469.159 1259.13,470.713 1251.66,472.455 " fill="none" style="stroke: #000000; stroke-width: 1.0; stroke-dasharray: 7.0,7.0;"/><polygon fill="#000000" points="1246.52,473.688,1256.2066,475.4684,1251.3809,472.5167,1254.3325,467.691,1246.52,473.688" style="stroke: #000000; stroke-width: 1.0;"/><text fill="#000000" font-family="Arial" font-size="11" lengthAdjust="spacingAndGlyphs" textLength="0" x="1868" y="433.8179"/><path d="M1998.26,389.629 C1978.3,411.608 1946.87,446.209 1926.86,468.239 " fill="none" style="stroke: #000000; stroke-width: 1.0;"/><text fill="#000000" font-family="Arial" font-size="11" lengthAdjust="spacingAndGlyphs" textLength="28" x="1967" y="433.8179">proxy</text><path d="M1676.18,84.761 C1849.54,90.174 2317.3,109.379 2363,160 C2389.21,189.032 2385.72,216.163 2363,248 C2298.1,338.949 2159.05,361.097 2078.38,366.053 " fill="none" style="stroke: #000000; stroke-width: 1.0; stroke-dasharray: 7.0,7.0;"/><polygon fill="#000000" points="2073.15,366.355,2082.3639,369.8341,2078.1418,366.0693,2081.9067,361.8472,2073.15,366.355" style="stroke: #000000; stroke-width: 1.0;"/><text fill="#000000" font-family="Arial" font-size="11" lengthAdjust="spacingAndGlyphs" textLength="22" x="2382" y="229.8179">calls</text><path d="M1653.59,103.648 C1706.33,129.834 1796.99,174.847 1851.82,202.074 " fill="none" style="stroke: #000000; stroke-width: 1.0; stroke-dasharray: 7.0,7.0;"/><polygon fill="#000000" points="1856.36,204.327,1850.065,196.7525,1851.8779,202.111,1846.5194,203.9238,1856.36,204.327" style="stroke: #000000; stroke-width: 1.0;"/><text fill="#000000" font-family="Arial" font-size="11" lengthAdjust="spacingAndGlyphs" textLength="22" x="1748" y="147.8179">calls</text><path d="M1547.9,86.744 C1422.33,94.933 1148.95,117.214 1066,160 C1046.72,169.943 1028.74,186.513 1015.7,200.434 " fill="none" style="stroke: #000000; stroke-width: 1.0; stroke-dasharray: 7.0,7.0;"/><polygon fill="#000000" points="1012.15,204.282,1021.1859,200.3638,1015.534,200.6012,1015.2966,194.9493,1012.15,204.282" style="stroke: #000000; stroke-width: 1.0;"/><text fill="#000000" font-family="Arial" font-size="11" lengthAdjust="spacingAndGlyphs" textLength="37" x="1130" y="147.8179">creates</text><path d="M1547.79,84.153 C1464.45,88.034 1316.49,103.189 1205,160 C1185.83,169.767 1168.25,186.505 1155.63,200.55 " fill="none" style="stroke: #000000; stroke-width: 1.0; stroke-dasharray: 7.0,7.0;"/><polygon fill="#000000" points="1152.21,204.432,1161.1599,200.3212,1155.5144,200.6796,1155.156,195.0341,1152.21,204.432" style="stroke: #000000; stroke-width: 1.0;"/><text fill="#000000" font-family="Arial" font-size="11" lengthAdjust="spacingAndGlyphs" textLength="37" x="1258" y="147.8179">creates</text><path d="M1277.1,389.575 C1274.17,421.103 1268.34,483.261 1263,536 C1261.34,552.36 1259.39,570.717 1257.82,585.175 " fill="none" style="stroke: #000000; stroke-width: 1.0; stroke-dasharray: 7.0,7.0;"/><polygon fill="#000000" points="1257.27,590.314,1262.2161,581.7972,1257.8085,585.3431,1254.2626,580.9355,1257.27,590.314" style="stroke: #000000; stroke-width: 1.0;"/><text fill="#000000" font-family="Arial" font-size="11" lengthAdjust="spacingAndGlyphs" textLength="0" x="1274" y="493.8179"/><path d="M1264.56,389.629 C1250.14,410.235 1227.95,441.933 1212.52,463.967 " fill="none" style="stroke: #000000; stroke-width: 1.0; stroke-dasharray: 7.0,7.0;"/><polygon fill="#000000" points="1209.53,468.239,1217.974,463.1697,1212.4021,464.1462,1211.4256,458.5743,1209.53,468.239" style="stroke: #000000; stroke-width: 1.0;"/><text fill="#000000" font-family="Arial" font-size="11" lengthAdjust="spacingAndGlyphs" textLength="0" x="1244" y="433.8179"/><path d="M1294,389.789 C1301.44,398.601 1311.15,408.163 1322,414 C1436.83,475.789 1592.82,487.874 1676.73,489.529 " fill="none" style="stroke: #000000; stroke-width: 1.0; stroke-dasharray: 7.0,7.0;"/><polygon fill="#000000" points="1681.91,489.619,1672.9799,485.4653,1676.9107,489.5333,1672.8427,493.4641,1681.91,489.619" style="stroke: #000000; stroke-width: 1.0;"/><text fill="#000000" font-family="Arial" font-size="11" lengthAdjust="spacingAndGlyphs" textLength="0" x="1378" y="433.8179"/><path d="M1853.74,228.199 C1792.37,231.207 1678.94,241.682 1590,278 C1546.63,295.71 1503.54,330.461 1480.39,350.907 " fill="none" style="stroke: #000000; stroke-width: 1.0;"/><text fill="#000000" font-family="Arial" font-size="11" lengthAdjust="spacingAndGlyphs" textLength="22" x="1591" y="289.8179">calls</text><path d="M108.918,247.657 C111.517,275.648 116.105,325.055 118.48,350.632 " fill="none" style="stroke: #000000; stroke-width: 1.0;"/><text fill="#000000" font-family="Arial" font-size="11" lengthAdjust="spacingAndGlyphs" textLength="40" x="115" y="289.8179">process</text><path d="M176.082,246.839 C247.774,267.537 350.649,297.591 359,302 C379.424,312.784 399.588,329.215 414.563,342.859 " fill="none" style="stroke: #000000; stroke-width: 1.0; stroke-dasharray: 7.0,7.0;"/><polygon fill="#000000" points="418.255,346.262,414.349,337.2208,414.5788,342.873,408.9266,343.1027,418.255,346.262" style="stroke: #000000; stroke-width: 1.0;"/><text fill="#000000" font-family="Arial" font-size="11" lengthAdjust="spacingAndGlyphs" textLength="24" x="334" y="289.8179">uses</text><path d="M1255,633.56 C1255,655.9132 1255,691.1836 1255,711.7045 " fill="none" style="stroke: #000000; stroke-width: 1.0;"/><text fill="#000000" font-family="Arial" font-size="11" lengthAdjust="spacingAndGlyphs" textLength="45" x="1256" y="677.8179">connects</text><path d="M1029.56,389.77 C1034.61,423.503 1048.53,490.951 1083,536 C1106.87,567.193 1146.41,585.64 1181.56,596.428 " fill="none" style="stroke: #000000; stroke-width: 1.0; stroke-dasharray: 7.0,7.0;"/><polygon fill="#000000" points="1186.71,597.965,1179.2281,591.5602,1181.9184,596.5364,1176.9423,599.2267,1186.71,597.965" style="stroke: #000000; stroke-width: 1.0;"/><text fill="#000000" font-family="Arial" font-size="11" lengthAdjust="spacingAndGlyphs" textLength="0" x="1087" y="493.8179"/><path d="M1049.96,389.589 C1059.1,397.49 1069.84,406.422 1080,414 C1104.72,432.439 1133.82,451.396 1156.57,465.638 " fill="none" style="stroke: #000000; stroke-width: 1.0; stroke-dasharray: 7.0,7.0;"/><polygon fill="#000000" points="1161.03,468.422,1155.5069,460.2675,1156.7864,465.7778,1151.2761,467.0573,1161.03,468.422" style="stroke: #000000; stroke-width: 1.0;"/><text fill="#000000" font-family="Arial" font-size="11" lengthAdjust="spacingAndGlyphs" textLength="0" x="1118" y="433.8179"/><path d="M1121.56,389.64 C1115.82,399.052 1109.91,410.619 1107,422 C1098.2,456.404 1083.91,483.003 1120,536 C1136.05,559.576 1162.08,576.509 1187.01,588.249 " fill="none" style="stroke: #000000; stroke-width: 1.0; stroke-dasharray: 7.0,7.0;"/><polygon fill="#000000" points="1191.65,590.381,1185.1398,582.9906,1187.106,588.2948,1181.8019,590.261,1191.65,590.381" style="stroke: #000000; stroke-width: 1.0;"/><text fill="#000000" font-family="Arial" font-size="11" lengthAdjust="spacingAndGlyphs" textLength="0" x="1124" y="493.8179"/><path d="M1146.14,389.629 C1156.23,410.149 1171.73,441.669 1182.56,463.691 " fill="none" style="stroke: #000000; stroke-width: 1.0; stroke-dasharray: 7.0,7.0;"/><polygon fill="#000000" points="1184.79,468.239,1184.4082,458.3975,1182.5837,463.7521,1177.2291,461.9276,1184.79,468.239" style="stroke: #000000; stroke-width: 1.0;"/><text fill="#000000" font-family="Arial" font-size="11" lengthAdjust="spacingAndGlyphs" textLength="0" x="1174" y="433.8179"/><path d="M2207.95,247.657 C2166.89,273.321 2097.02,316.989 2054.14,343.786 " fill="none" style="stroke: #000000; stroke-width: 1.0; stroke-dasharray: 7.0,7.0;"/><polygon fill="#000000" points="2049.82,346.486,2059.5736,345.1198,2054.0632,343.8411,2055.3419,338.3307,2049.82,346.486" style="stroke: #000000; stroke-width: 1.0;"/><text fill="#000000" font-family="Arial" font-size="11" lengthAdjust="spacingAndGlyphs" textLength="0" x="2159" y="289.8179"/><path d="M1273.89,247.657 C1274.95,272.472 1276.73,314.12 1277.89,341.073 " fill="none" style="stroke: #000000; stroke-width: 1.0; stroke-dasharray: 7.0,7.0;"/><polygon fill="#000000" points="1278.11,346.258,1281.721,337.095,1277.8959,341.2626,1273.7283,337.4375,1278.11,346.258" style="stroke: #000000; stroke-width: 1.0;"/><text fill="#000000" font-family="Arial" font-size="11" lengthAdjust="spacingAndGlyphs" textLength="0" x="1280" y="289.8179"/><path d="M940.863,227.681 C849.477,229.903 669.87,239.229 622,278 C603.062,293.338 595.327,320.807 592.17,341.185 " fill="none" style="stroke: #000000; stroke-width: 1.0; stroke-dasharray: 7.0,7.0;"/><polygon fill="#000000" points="591.463,346.202,596.6811,337.8491,592.1615,341.251,588.7595,336.7315,591.463,346.202" style="stroke: #000000; stroke-width: 1.0;"/><text fill="#000000" font-family="Arial" font-size="11" lengthAdjust="spacingAndGlyphs" textLength="37" x="623" y="289.8179">exports</text><path d="M940.827,229.487 C840.769,234.625 620.444,248.49 437,278 C405.919,283 399.171,289.6 368,294 C334.507,298.727 248.066,291.235 216,302 C185.47,312.249 155.603,335.077 137.495,350.757 " fill="none" style="stroke: #000000; stroke-width: 1.0;"/><text fill="#000000" font-family="Arial" font-size="11" lengthAdjust="spacingAndGlyphs" textLength="55" x="438" y="289.8179">implements</text><path d="M940.962,243.632 C918.73,251.943 893.453,263.386 873,278 C844.254,298.539 818.663,331.35 804.837,350.873 " fill="none" style="stroke: #000000; stroke-width: 1.0;"/><text fill="#000000" font-family="Arial" font-size="11" lengthAdjust="spacingAndGlyphs" textLength="55" x="874" y="289.8179">implements</text><path d="M1136,247.657 C1136,272.472 1136,314.12 1136,341.073 " fill="none" style="stroke: #000000; stroke-width: 1.0; stroke-dasharray: 7.0,7.0;"/><polygon fill="#000000" points="1136,346.258,1140,337.258,1136,341.258,1132,337.258,1136,346.258" style="stroke: #000000; stroke-width: 1.0;"/><text fill="#000000" font-family="Arial" font-size="11" lengthAdjust="spacingAndGlyphs" textLength="39" x="1137" y="289.8179">extends</text><path d="M1087.49,247.658 C1047.41,263.62 988.61,284.534 935,294 C903.475,299.566 675.972,288.384 647,302 C629.027,310.447 614.406,327.525 604.473,342.057 " fill="none" style="stroke: #000000; stroke-width: 1.0; stroke-dasharray: 7.0,7.0;"/><polygon fill="#000000" points="601.543,346.473,609.8522,341.1856,604.3076,342.3068,603.1863,336.7622,601.543,346.473" style="stroke: #000000; stroke-width: 1.0;"/><text fill="#000000" font-family="Arial" font-size="11" lengthAdjust="spacingAndGlyphs" textLength="37" x="999" y="289.8179">exports</text><path d="M1083.96,244.068 C1077.95,245.603 1071.87,246.965 1066,248 C836.704,288.394 771.044,231.052 543,278 C522.619,282.196 519.44,290.1 499,294 C468.1,299.895 245.941,292.352 216,302 C185.156,311.939 155.138,335.085 137.106,350.896 " fill="none" style="stroke: #000000; stroke-width: 1.0;"/><text fill="#000000" font-family="Arial" font-size="11" lengthAdjust="spacingAndGlyphs" textLength="55" x="544" y="289.8179">implements</text><text fill="#888888" font-family="sans-serif" font-size="10" lengthAdjust="spacingAndGlyphs" textLength="100" x="1162" y="765.668">Component Diagram</text></g></svg>