<?xml version="1.0" encoding="UTF-8" standalone="yes"?><svg xmlns="http://www.w3.org/2000/svg" xmlns:xlink="http://www.w3.org/1999/xlink" height="978pt" style="width:1703px;height:978px;" version="1.1" viewBox="0 0 1703 978" width="1703pt"><defs><filter height="300%" id="f1" width="300%" x="-1" y="-1"><feGaussianBlur result="blurOut" stdDeviation="2.0"/><feColorMatrix in="blurOut" result="blurOut2" type="matrix" values="0 0 0 0 0 0 0 0 0 0 0 0 0 0 0 0 0 0 .4 0"/><feOffset dx="4.0" dy="4.0" in="blurOut2" result="blurOut3"/><feBlend in="SourceGraphic" in2="blurOut3" mode="normal"/></filter></defs><g><polygon fill="#FFFFFF" filter="url(#f1)" points="22,41,107,41,114,59.6489,1130,59.6489,1130,598,22,598,22,41" style="stroke: #000000; stroke-width: 2.0;"/><line style="stroke: #000000; stroke-width: 2.0;" x1="22" x2="114" y1="59.6489" y2="59.6489"/><text fill="#000000" font-family="Arial" font-size="11" lengthAdjust="spacingAndGlyphs" textLength="79" x="25" y="54.3179">Terradue::Portal</text><polygon fill="#FFFFFF" filter="url(#f1)" points="1154,24,1362,24,1369,42.6489,1696,42.6489,1696,942,1154,942,1154,24" style="stroke: #000000; stroke-width: 2.0;"/><line style="stroke: #000000; stroke-width: 2.0;" x1="1154" x2="1369" y1="42.6489" y2="42.6489"/><text fill="#000000" font-family="Arial" font-size="11" lengthAdjust="spacingAndGlyphs" textLength="202" x="1157" y="37.3179">Terradue::ServiceModel::Ogc::OwsModel</text><a target="_top" xlink:href="../information/classes/class_terradue_1_1_portal_1_1_entity.html" xlink:title="../information/classes/class_terradue_1_1_portal_1_1_entity.html"><rect fill="#EEEBDC" filter="url(#f1)" height="162.9902" style="stroke: #919871; stroke-width: 1.5;" width="196" x="626" y="418.5"/><ellipse cx="706.25" cy="434.5" fill="#ADD1B2" rx="11" ry="11" style="stroke: #919871; stroke-width: 1.0;"/><path d="M709.2231,440.1431 Q708.6421,440.4419 708.0029,440.5913 Q707.3638,440.7407 706.6582,440.7407 Q704.1514,440.7407 702.8315,439.0889 Q701.5117,437.437 701.5117,434.3159 Q701.5117,431.1865 702.8315,429.5347 Q704.1514,427.8828 706.6582,427.8828 Q707.3638,427.8828 708.0112,428.0322 Q708.6587,428.1816 709.2231,428.4805 L709.2231,431.2031 Q708.5923,430.6221 707.9988,430.3523 Q707.4053,430.0825 706.7744,430.0825 Q705.4297,430.0825 704.7449,431.1492 Q704.0601,432.2158 704.0601,434.3159 Q704.0601,436.4077 704.7449,437.4744 Q705.4297,438.541 706.7744,438.541 Q707.4053,438.541 707.9988,438.2712 Q708.5923,438.0015 709.2231,437.4204 Z "/><text fill="#000000" font-family="Arial" font-size="11" lengthAdjust="spacingAndGlyphs" textLength="27" x="726.75" y="438.4934">Entity</text><line style="stroke: #919871; stroke-width: 1.5;" x1="627" x2="821" y1="450.5" y2="450.5"/><ellipse cx="637" cy="461.5" fill="none" rx="3" ry="3" style="stroke: #038048; stroke-width: 1.0;"/><text fill="#000000" font-family="Arial" font-size="10" lengthAdjust="spacingAndGlyphs" textLength="23" x="646" y="464.1304">Id:int</text><ellipse cx="637" cy="473.5" fill="none" rx="3" ry="3" style="stroke: #038048; stroke-width: 1.0;"/><text fill="#000000" font-family="Arial" font-size="10" lengthAdjust="spacingAndGlyphs" textLength="68" x="646" y="476.1304">Identifier:string</text><ellipse cx="637" cy="485.5" fill="none" rx="3" ry="3" style="stroke: #038048; stroke-width: 1.0;"/><text fill="#000000" font-family="Arial" font-size="10" lengthAdjust="spacingAndGlyphs" textLength="55" x="646" y="488.1304">Name:string</text><line style="stroke: #919871; stroke-width: 1.5;" x1="627" x2="821" y1="492.9971" y2="492.9971"/><ellipse cx="637" cy="503.9971" fill="#84BE84" rx="3" ry="3" style="stroke: #038048; stroke-width: 1.0;"/><text fill="#000000" font-family="Arial" font-size="10" lengthAdjust="spacingAndGlyphs" textLength="30" x="646" y="506.6274">Load()</text><ellipse cx="637" cy="515.9971" fill="#84BE84" rx="3" ry="3" style="stroke: #038048; stroke-width: 1.0;"/><text fill="#000000" font-family="Arial" font-size="10" lengthAdjust="spacingAndGlyphs" textLength="30" x="646" y="518.6274">Load()</text><ellipse cx="637" cy="527.9971" fill="#84BE84" rx="3" ry="3" style="stroke: #038048; stroke-width: 1.0;"/><text fill="#000000" font-family="Arial" font-size="10" lengthAdjust="spacingAndGlyphs" textLength="31" x="646" y="530.6274">Store()</text><ellipse cx="637" cy="539.9971" fill="#84BE84" rx="3" ry="3" style="stroke: #038048; stroke-width: 1.0;"/><text fill="#000000" font-family="Arial" font-size="10" lengthAdjust="spacingAndGlyphs" textLength="105" x="646" y="542.6274">StoreGlobalPrivileges()</text><ellipse cx="637" cy="551.9971" fill="#84BE84" rx="3" ry="3" style="stroke: #038048; stroke-width: 1.0;"/><text fill="#000000" font-family="Arial" font-size="10" lengthAdjust="spacingAndGlyphs" textLength="118" x="646" y="554.6274">RemoveGlobalPrivileges()</text><ellipse cx="637" cy="563.9971" fill="#84BE84" rx="3" ry="3" style="stroke: #038048; stroke-width: 1.0;"/><text fill="#000000" font-family="Arial" font-size="10" lengthAdjust="spacingAndGlyphs" textLength="36" x="646" y="566.6274">Delete()</text><ellipse cx="637" cy="575.9971" fill="#84BE84" rx="3" ry="3" style="stroke: #038048; stroke-width: 1.0;"/><text fill="#000000" font-family="Arial" font-size="10" lengthAdjust="spacingAndGlyphs" textLength="170" x="646" y="578.6274">GetAllowedAdministratorOperations()</text></a><a target="_top" xlink:href="../information/classes/class_terradue_1_1_portal_1_1_feature.html" xlink:title="../information/classes/class_terradue_1_1_portal_1_1_feature.html"><rect fill="#EEEBDC" filter="url(#f1)" height="116.9941" style="stroke: #919871; stroke-width: 1.5;" width="106" x="1008" y="219.5"/><ellipse cx="1039.2" cy="235.5" fill="#ADD1B2" rx="11" ry="11" style="stroke: #919871; stroke-width: 1.0;"/><path d="M1042.1731,241.1431 Q1041.5921,241.4419 1040.9529,241.5913 Q1040.3138,241.7407 1039.6082,241.7407 Q1037.1014,241.7407 1035.7815,240.0889 Q1034.4617,238.437 1034.4617,235.3159 Q1034.4617,232.1865 1035.7815,230.5347 Q1037.1014,228.8828 1039.6082,228.8828 Q1040.3138,228.8828 1040.9612,229.0322 Q1041.6087,229.1816 1042.1731,229.4805 L1042.1731,232.2031 Q1041.5423,231.6221 1040.9488,231.3523 Q1040.3553,231.0825 1039.7244,231.0825 Q1038.3797,231.0825 1037.6949,232.1492 Q1037.0101,233.2158 1037.0101,235.3159 Q1037.0101,237.4077 1037.6949,238.4744 Q1038.3797,239.541 1039.7244,239.541 Q1040.3553,239.541 1040.9488,239.2712 Q1041.5423,239.0015 1042.1731,238.4204 Z "/><text fill="#000000" font-family="Arial" font-size="11" lengthAdjust="spacingAndGlyphs" textLength="38" x="1056.8" y="239.4934">Feature</text><line style="stroke: #919871; stroke-width: 1.5;" x1="1009" x2="1113" y1="251.5" y2="251.5"/><ellipse cx="1019" cy="262.5" fill="none" rx="3" ry="3" style="stroke: #038048; stroke-width: 1.0;"/><text fill="#000000" font-family="Arial" font-size="10" lengthAdjust="spacingAndGlyphs" textLength="47" x="1028" y="265.1304">Title:string</text><ellipse cx="1019" cy="274.5" fill="none" rx="3" ry="3" style="stroke: #038048; stroke-width: 1.0;"/><text fill="#000000" font-family="Arial" font-size="10" lengthAdjust="spacingAndGlyphs" textLength="79" x="1028" y="277.1304">Description:string</text><ellipse cx="1019" cy="286.5" fill="none" rx="3" ry="3" style="stroke: #038048; stroke-width: 1.0;"/><text fill="#000000" font-family="Arial" font-size="10" lengthAdjust="spacingAndGlyphs" textLength="57" x="1028" y="289.1304">Image:string</text><ellipse cx="1019" cy="298.5" fill="none" rx="3" ry="3" style="stroke: #038048; stroke-width: 1.0;"/><text fill="#000000" font-family="Arial" font-size="10" lengthAdjust="spacingAndGlyphs" textLength="80" x="1028" y="301.1304">ImageStyle:string</text><ellipse cx="1019" cy="310.5" fill="none" rx="3" ry="3" style="stroke: #038048; stroke-width: 1.0;"/><text fill="#000000" font-family="Arial" font-size="10" lengthAdjust="spacingAndGlyphs" textLength="79" x="1028" y="313.1304">ButtonText:string</text><ellipse cx="1019" cy="322.5" fill="none" rx="3" ry="3" style="stroke: #038048; stroke-width: 1.0;"/><text fill="#000000" font-family="Arial" font-size="10" lengthAdjust="spacingAndGlyphs" textLength="78" x="1028" y="325.1304">ButtonLink:string</text><line style="stroke: #919871; stroke-width: 1.5;" x1="1009" x2="1113" y1="328.4941" y2="328.4941"/></a><a target="_top" xlink:href="../information/classes/class_terradue_1_1_portal_1_1_group.html" xlink:title="../information/classes/class_terradue_1_1_portal_1_1_group.html"><rect fill="#EEEBDC" filter="url(#f1)" height="82.4971" style="stroke: #919871; stroke-width: 1.5;" width="121" x="851.75" y="237"/><ellipse cx="892.85" cy="253" fill="#ADD1B2" rx="11" ry="11" style="stroke: #919871; stroke-width: 1.0;"/><path d="M895.8231,258.6431 Q895.2421,258.9419 894.6029,259.0913 Q893.9638,259.2407 893.2582,259.2407 Q890.7514,259.2407 889.4315,257.5889 Q888.1117,255.937 888.1117,252.8159 Q888.1117,249.6865 889.4315,248.0347 Q890.7514,246.3828 893.2582,246.3828 Q893.9638,246.3828 894.6112,246.5322 Q895.2587,246.6816 895.8231,246.9805 L895.8231,249.7031 Q895.1923,249.1221 894.5988,248.8523 Q894.0053,248.5825 893.3744,248.5825 Q892.0297,248.5825 891.3449,249.6492 Q890.6601,250.7158 890.6601,252.8159 Q890.6601,254.9077 891.3449,255.9744 Q892.0297,257.041 893.3744,257.041 Q894.0053,257.041 894.5988,256.7712 Q895.1923,256.5015 895.8231,255.9204 Z "/><text fill="#000000" font-family="Arial" font-size="11" lengthAdjust="spacingAndGlyphs" textLength="31" x="912.65" y="256.9934">Group</text><line style="stroke: #919871; stroke-width: 1.5;" x1="852.75" x2="971.75" y1="269" y2="269"/><ellipse cx="862.75" cy="280" fill="none" rx="3" ry="3" style="stroke: #038048; stroke-width: 1.0;"/><text fill="#000000" font-family="Arial" font-size="10" lengthAdjust="spacingAndGlyphs" textLength="95" x="871.75" y="282.6304">Name:override string</text><ellipse cx="862.75" cy="292" fill="none" rx="3" ry="3" style="stroke: #038048; stroke-width: 1.0;"/><text fill="#000000" font-family="Arial" font-size="10" lengthAdjust="spacingAndGlyphs" textLength="79" x="871.75" y="294.6304">Description:string</text><ellipse cx="862.75" cy="304" fill="none" rx="3" ry="3" style="stroke: #038048; stroke-width: 1.0;"/><text fill="#000000" font-family="Arial" font-size="10" lengthAdjust="spacingAndGlyphs" textLength="45" x="871.75" y="306.6304">Priority:int</text><line style="stroke: #919871; stroke-width: 1.5;" x1="852.75" x2="971.75" y1="311.4971" y2="311.4971"/></a><a target="_top" xlink:href="../information/classes/class_terradue_1_1_portal_1_1_series.html" xlink:title="../information/classes/class_terradue_1_1_portal_1_1_series.html"><rect fill="#EEEBDC" filter="url(#f1)" height="82.4971" style="stroke: #919871; stroke-width: 1.5;" width="184" x="632" y="237"/><ellipse cx="704.25" cy="253" fill="#ADD1B2" rx="11" ry="11" style="stroke: #919871; stroke-width: 1.0;"/><path d="M707.2231,258.6431 Q706.6421,258.9419 706.0029,259.0913 Q705.3638,259.2407 704.6582,259.2407 Q702.1514,259.2407 700.8315,257.5889 Q699.5117,255.937 699.5117,252.8159 Q699.5117,249.6865 700.8315,248.0347 Q702.1514,246.3828 704.6582,246.3828 Q705.3638,246.3828 706.0112,246.5322 Q706.6587,246.6816 707.2231,246.9805 L707.2231,249.7031 Q706.5923,249.1221 705.9988,248.8523 Q705.4053,248.5825 704.7744,248.5825 Q703.4297,248.5825 702.7449,249.6492 Q702.0601,250.7158 702.0601,252.8159 Q702.0601,254.9077 702.7449,255.9744 Q703.4297,257.041 704.7744,257.041 Q705.4053,257.041 705.9988,256.7712 Q706.5923,256.5015 707.2231,255.9204 Z "/><text fill="#000000" font-family="Arial" font-size="11" lengthAdjust="spacingAndGlyphs" textLength="31" x="724.75" y="256.9934">Series</text><line style="stroke: #919871; stroke-width: 1.5;" x1="633" x2="815" y1="269" y2="269"/><ellipse cx="643" cy="280" fill="none" rx="3" ry="3" style="stroke: #038048; stroke-width: 1.0;"/><text fill="#000000" font-family="Arial" font-size="10" lengthAdjust="spacingAndGlyphs" textLength="79" x="652" y="282.6304">Description:string</text><ellipse cx="643" cy="292" fill="none" rx="3" ry="3" style="stroke: #038048; stroke-width: 1.0;"/><text fill="#000000" font-family="Arial" font-size="10" lengthAdjust="spacingAndGlyphs" textLength="139" x="652" y="294.6304">CatalogueDescriptionUrl:string</text><line style="stroke: #919871; stroke-width: 1.5;" x1="633" x2="815" y1="299.998" y2="299.998"/><ellipse cx="643" cy="310.998" fill="#84BE84" rx="3" ry="3" style="stroke: #038048; stroke-width: 1.0;"/><text fill="#000000" font-family="Arial" font-size="10" lengthAdjust="spacingAndGlyphs" textLength="158" x="652" y="313.6284">GetLocalOpenSearchDescription()</text></a><a target="_top" xlink:href="../information/classes/class_terradue_1_1_portal_1_1_service.html" xlink:title="../information/classes/class_terradue_1_1_portal_1_1_service.html"><rect fill="#EEEBDC" filter="url(#f1)" height="128.4932" style="stroke: #919871; stroke-width: 1.5;" width="195" x="38.75" y="214"/><ellipse cx="113.5" cy="230" fill="#ADD1B2" rx="11" ry="11" style="stroke: #919871; stroke-width: 1.0;"/><path d="M116.4731,235.6431 Q115.8921,235.9419 115.2529,236.0913 Q114.6138,236.2407 113.9082,236.2407 Q111.4014,236.2407 110.0815,234.5889 Q108.7617,232.937 108.7617,229.8159 Q108.7617,226.6865 110.0815,225.0347 Q111.4014,223.3828 113.9082,223.3828 Q114.6138,223.3828 115.2612,223.5322 Q115.9087,223.6816 116.4731,223.9805 L116.4731,226.7031 Q115.8423,226.1221 115.2488,225.8523 Q114.6553,225.5825 114.0244,225.5825 Q112.6797,225.5825 111.9949,226.6492 Q111.3101,227.7158 111.3101,229.8159 Q111.3101,231.9077 111.9949,232.9744 Q112.6797,234.041 114.0244,234.041 Q114.6553,234.041 115.2488,233.7712 Q115.8423,233.5015 116.4731,232.9204 Z "/><text fill="#000000" font-family="Arial" font-size="11" lengthAdjust="spacingAndGlyphs" textLength="37" x="134" y="233.9934">Service</text><line style="stroke: #919871; stroke-width: 1.5;" x1="39.75" x2="232.75" y1="246" y2="246"/><ellipse cx="49.75" cy="257" fill="none" rx="3" ry="3" style="stroke: #038048; stroke-width: 1.0;"/><text fill="#000000" font-family="Arial" font-size="10" lengthAdjust="spacingAndGlyphs" textLength="79" x="58.75" y="259.6304">Description:string</text><ellipse cx="49.75" cy="269" fill="none" rx="3" ry="3" style="stroke: #038048; stroke-width: 1.0;"/><text fill="#000000" font-family="Arial" font-size="10" lengthAdjust="spacingAndGlyphs" textLength="63" x="58.75" y="271.6304">Version:string</text><ellipse cx="49.75" cy="281" fill="none" rx="3" ry="3" style="stroke: #038048; stroke-width: 1.0;"/><text fill="#000000" font-family="Arial" font-size="10" lengthAdjust="spacingAndGlyphs" textLength="40" x="58.75" y="283.6304">Url:string</text><ellipse cx="49.75" cy="293" fill="none" rx="3" ry="3" style="stroke: #038048; stroke-width: 1.0;"/><text fill="#000000" font-family="Arial" font-size="10" lengthAdjust="spacingAndGlyphs" textLength="60" x="58.75" y="295.6304">IconUrl:string</text><ellipse cx="49.75" cy="305" fill="none" rx="3" ry="3" style="stroke: #038048; stroke-width: 1.0;"/><text fill="#000000" font-family="Arial" font-size="10" lengthAdjust="spacingAndGlyphs" textLength="44" x="58.75" y="307.6304">Rating:int</text><ellipse cx="49.75" cy="317" fill="none" rx="3" ry="3" style="stroke: #038048; stroke-width: 1.0;"/><text fill="#000000" font-family="Arial" font-size="10" lengthAdjust="spacingAndGlyphs" textLength="48" x="58.75" y="319.6304">ClassId:int</text><ellipse cx="49.75" cy="329" fill="none" rx="3" ry="3" style="stroke: #038048; stroke-width: 1.0;"/><text fill="#000000" font-family="Arial" font-size="10" lengthAdjust="spacingAndGlyphs" textLength="169" x="58.75" y="331.6304">OnBuildTask:BuildTaskCallbackType</text><line style="stroke: #919871; stroke-width: 1.5;" x1="39.75" x2="232.75" y1="334.4932" y2="334.4932"/></a><a target="_top" xlink:href="../information/classes/class_terradue_1_1_portal_1_1_user.html" xlink:title="../information/classes/class_terradue_1_1_portal_1_1_user.html"><rect fill="#EEEBDC" filter="url(#f1)" height="59.499" style="stroke: #919871; stroke-width: 1.5;" width="108" x="489" y="248.5"/><ellipse cx="527.4" cy="264.5" fill="#ADD1B2" rx="11" ry="11" style="stroke: #919871; stroke-width: 1.0;"/><path d="M530.3731,270.1431 Q529.7921,270.4419 529.1529,270.5913 Q528.5138,270.7407 527.8082,270.7407 Q525.3014,270.7407 523.9815,269.0889 Q522.6617,267.437 522.6617,264.3159 Q522.6617,261.1865 523.9815,259.5347 Q525.3014,257.8828 527.8082,257.8828 Q528.5138,257.8828 529.1612,258.0322 Q529.8087,258.1816 530.3731,258.4805 L530.3731,261.2031 Q529.7423,260.6221 529.1488,260.3523 Q528.5553,260.0825 527.9244,260.0825 Q526.5797,260.0825 525.8949,261.1492 Q525.2101,262.2158 525.2101,264.3159 Q525.2101,266.4077 525.8949,267.4744 Q526.5797,268.541 527.9244,268.541 Q528.5553,268.541 529.1488,268.2712 Q529.7423,268.0015 530.3731,267.4204 Z "/><text fill="#000000" font-family="Arial" font-size="11" lengthAdjust="spacingAndGlyphs" textLength="24" x="546.6" y="268.4934">User</text><line style="stroke: #919871; stroke-width: 1.5;" x1="490" x2="596" y1="280.5" y2="280.5"/><ellipse cx="500" cy="291.5" fill="none" rx="3" ry="3" style="stroke: #038048; stroke-width: 1.0;"/><text fill="#000000" font-family="Arial" font-size="10" lengthAdjust="spacingAndGlyphs" textLength="82" x="509" y="294.1304">AccountStatus:int</text><line style="stroke: #919871; stroke-width: 1.5;" x1="490" x2="596" y1="299.999" y2="299.999"/></a><a target="_top" xlink:href="../information/classes/class_terradue_1_1_portal_1_1_wps_process_offering.html" xlink:title="../information/classes/class_terradue_1_1_portal_1_1_wps_process_offering.html"><rect fill="#EEEBDC" filter="url(#f1)" height="48" style="stroke: #919871; stroke-width: 1.5;" width="134" x="150" y="73"/><ellipse cx="165" cy="89" fill="#ADD1B2" rx="11" ry="11" style="stroke: #919871; stroke-width: 1.0;"/><path d="M167.9731,94.6431 Q167.3921,94.9419 166.7529,95.0913 Q166.1138,95.2407 165.4082,95.2407 Q162.9014,95.2407 161.5815,93.5889 Q160.2617,91.937 160.2617,88.8159 Q160.2617,85.6865 161.5815,84.0347 Q162.9014,82.3828 165.4082,82.3828 Q166.1138,82.3828 166.7612,82.5322 Q167.4087,82.6816 167.9731,82.9805 L167.9731,85.7031 Q167.3423,85.1221 166.7488,84.8523 Q166.1553,84.5825 165.5244,84.5825 Q164.1797,84.5825 163.4949,85.6492 Q162.8101,86.7158 162.8101,88.8159 Q162.8101,90.9077 163.4949,91.9744 Q164.1797,93.041 165.5244,93.041 Q166.1553,93.041 166.7488,92.7712 Q167.3423,92.5015 167.9731,91.9204 Z "/><text fill="#000000" font-family="Arial" font-size="11" lengthAdjust="spacingAndGlyphs" textLength="102" x="179" y="92.9934">WpsProcessOffering</text><line style="stroke: #919871; stroke-width: 1.5;" x1="151" x2="283" y1="105" y2="105"/><line style="stroke: #919871; stroke-width: 1.5;" x1="151" x2="283" y1="113" y2="113"/></a><a target="_top" xlink:href="../information/classes/class_terradue_1_1_portal_1_1_wps_provider.html" xlink:title="../information/classes/class_terradue_1_1_portal_1_1_wps_provider.html"><rect fill="#EEEBDC" filter="url(#f1)" height="70.998" style="stroke: #919871; stroke-width: 1.5;" width="136" x="294" y="244"/><ellipse cx="327.45" cy="260" fill="#ADD1B2" rx="11" ry="11" style="stroke: #919871; stroke-width: 1.0;"/><path d="M330.4231,265.6431 Q329.8421,265.9419 329.2029,266.0913 Q328.5638,266.2407 327.8582,266.2407 Q325.3514,266.2407 324.0315,264.5889 Q322.7117,262.937 322.7117,259.8159 Q322.7117,256.6865 324.0315,255.0347 Q325.3514,253.3828 327.8582,253.3828 Q328.5638,253.3828 329.2112,253.5322 Q329.8587,253.6816 330.4231,253.9805 L330.4231,256.7031 Q329.7923,256.1221 329.1988,255.8523 Q328.6053,255.5825 327.9744,255.5825 Q326.6297,255.5825 325.9449,256.6492 Q325.2601,257.7158 325.2601,259.8159 Q325.2601,261.9077 325.9449,262.9744 Q326.6297,264.041 327.9744,264.041 Q328.6053,264.041 329.1988,263.7712 Q329.7923,263.5015 330.4231,262.9204 Z "/><text fill="#000000" font-family="Arial" font-size="11" lengthAdjust="spacingAndGlyphs" textLength="63" x="345.55" y="263.9934">WpsProvider</text><line style="stroke: #919871; stroke-width: 1.5;" x1="295" x2="429" y1="276" y2="276"/><ellipse cx="305" cy="287" fill="none" rx="3" ry="3" style="stroke: #038048; stroke-width: 1.0;"/><text fill="#000000" font-family="Arial" font-size="10" lengthAdjust="spacingAndGlyphs" textLength="49" x="314" y="289.6304">Proxy:bool</text><line style="stroke: #919871; stroke-width: 1.5;" x1="295" x2="429" y1="295.499" y2="295.499"/><ellipse cx="305" cy="306.499" fill="#84BE84" rx="3" ry="3" style="stroke: #038048; stroke-width: 1.0;"/><text fill="#000000" font-family="Arial" font-size="10" lengthAdjust="spacingAndGlyphs" textLength="110" x="314" y="309.1294">StoreProcessOfferings()</text></a><a target="_top" xlink:href="../information/classes/class_terradue_1_1_service_model_1_1_ogc_1_1_ows_model_1_1_owc_application.html" xlink:title="../information/classes/class_terradue_1_1_service_model_1_1_ogc_1_1_ows_model_1_1_owc_application.html"><rect fill="#EEEBDC" filter="url(#f1)" height="48" style="stroke: #919871; stroke-width: 1.5;" width="107" x="1195" y="477"/><ellipse cx="1210" cy="493" fill="#ADD1B2" rx="11" ry="11" style="stroke: #919871; stroke-width: 1.0;"/><path d="M1212.9731,498.6431 Q1212.3921,498.9419 1211.7529,499.0913 Q1211.1138,499.2407 1210.4082,499.2407 Q1207.9014,499.2407 1206.5815,497.5889 Q1205.2617,495.937 1205.2617,492.8159 Q1205.2617,489.6865 1206.5815,488.0347 Q1207.9014,486.3828 1210.4082,486.3828 Q1211.1138,486.3828 1211.7612,486.5322 Q1212.4087,486.6816 1212.9731,486.9805 L1212.9731,489.7031 Q1212.3423,489.1221 1211.7488,488.8523 Q1211.1553,488.5825 1210.5244,488.5825 Q1209.1797,488.5825 1208.4949,489.6492 Q1207.8101,490.7158 1207.8101,492.8159 Q1207.8101,494.9077 1208.4949,495.9744 Q1209.1797,497.041 1210.5244,497.041 Q1211.1553,497.041 1211.7488,496.7712 Q1212.3423,496.5015 1212.9731,495.9204 Z "/><text fill="#000000" font-family="Arial" font-size="11" lengthAdjust="spacingAndGlyphs" textLength="75" x="1224" y="496.9934">OwcApplication</text><line style="stroke: #919871; stroke-width: 1.5;" x1="1196" x2="1301" y1="509" y2="509"/><line style="stroke: #919871; stroke-width: 1.5;" x1="1196" x2="1301" y1="517" y2="517"/></a><a target="_top" xlink:href="../information/classes/class_terradue_1_1_service_model_1_1_ogc_1_1_ows_model_1_1_owc_content.html" xlink:title="../information/classes/class_terradue_1_1_service_model_1_1_ogc_1_1_ows_model_1_1_owc_content.html"><rect fill="#EEEBDC" filter="url(#f1)" height="48" style="stroke: #919871; stroke-width: 1.5;" width="93" x="1445" y="858"/><ellipse cx="1460" cy="874" fill="#ADD1B2" rx="11" ry="11" style="stroke: #919871; stroke-width: 1.0;"/><path d="M1462.9731,879.6431 Q1462.3921,879.9419 1461.7529,880.0913 Q1461.1138,880.2407 1460.4082,880.2407 Q1457.9014,880.2407 1456.5815,878.5889 Q1455.2617,876.937 1455.2617,873.8159 Q1455.2617,870.6865 1456.5815,869.0347 Q1457.9014,867.3828 1460.4082,867.3828 Q1461.1138,867.3828 1461.7612,867.5322 Q1462.4087,867.6816 1462.9731,867.9805 L1462.9731,870.7031 Q1462.3423,870.1221 1461.7488,869.8523 Q1461.1553,869.5825 1460.5244,869.5825 Q1459.1797,869.5825 1458.4949,870.6492 Q1457.8101,871.7158 1457.8101,873.8159 Q1457.8101,875.9077 1458.4949,876.9744 Q1459.1797,878.041 1460.5244,878.041 Q1461.1553,878.041 1461.7488,877.7712 Q1462.3423,877.5015 1462.9731,876.9204 Z "/><text fill="#000000" font-family="Arial" font-size="11" lengthAdjust="spacingAndGlyphs" textLength="61" x="1474" y="877.9934">OwcContent</text><line style="stroke: #919871; stroke-width: 1.5;" x1="1446" x2="1537" y1="890" y2="890"/><line style="stroke: #919871; stroke-width: 1.5;" x1="1446" x2="1537" y1="898" y2="898"/></a><a target="_top" xlink:href="../information/classes/class_terradue_1_1_service_model_1_1_ogc_1_1_ows_model_1_1_owc_creator.html" xlink:title="../information/classes/class_terradue_1_1_service_model_1_1_ogc_1_1_ows_model_1_1_owc_creator.html"><rect fill="#EEEBDC" filter="url(#f1)" height="48" style="stroke: #919871; stroke-width: 1.5;" width="92" x="1377" y="255"/><ellipse cx="1392" cy="271" fill="#ADD1B2" rx="11" ry="11" style="stroke: #919871; stroke-width: 1.0;"/><path d="M1394.9731,276.6431 Q1394.3921,276.9419 1393.7529,277.0913 Q1393.1138,277.2407 1392.4082,277.2407 Q1389.9014,277.2407 1388.5815,275.5889 Q1387.2617,273.937 1387.2617,270.8159 Q1387.2617,267.6865 1388.5815,266.0347 Q1389.9014,264.3828 1392.4082,264.3828 Q1393.1138,264.3828 1393.7612,264.5322 Q1394.4087,264.6816 1394.9731,264.9805 L1394.9731,267.7031 Q1394.3423,267.1221 1393.7488,266.8523 Q1393.1553,266.5825 1392.5244,266.5825 Q1391.1797,266.5825 1390.4949,267.6492 Q1389.8101,268.7158 1389.8101,270.8159 Q1389.8101,272.9077 1390.4949,273.9744 Q1391.1797,275.041 1392.5244,275.041 Q1393.1553,275.041 1393.7488,274.7712 Q1394.3423,274.5015 1394.9731,273.9204 Z "/><text fill="#000000" font-family="Arial" font-size="11" lengthAdjust="spacingAndGlyphs" textLength="60" x="1406" y="274.9934">OwcCreator</text><line style="stroke: #919871; stroke-width: 1.5;" x1="1378" x2="1468" y1="287" y2="287"/><line style="stroke: #919871; stroke-width: 1.5;" x1="1378" x2="1468" y1="295" y2="295"/></a><a target="_top" xlink:href="../information/classes/class_terradue_1_1_service_model_1_1_ogc_1_1_ows_model_1_1_owc_display.html" xlink:title="../information/classes/class_terradue_1_1_service_model_1_1_ogc_1_1_ows_model_1_1_owc_display.html"><rect fill="#EEEBDC" filter="url(#f1)" height="48" style="stroke: #919871; stroke-width: 1.5;" width="91" x="1386" y="477"/><ellipse cx="1401" cy="493" fill="#ADD1B2" rx="11" ry="11" style="stroke: #919871; stroke-width: 1.0;"/><path d="M1403.9731,498.6431 Q1403.3921,498.9419 1402.7529,499.0913 Q1402.1138,499.2407 1401.4082,499.2407 Q1398.9014,499.2407 1397.5815,497.5889 Q1396.2617,495.937 1396.2617,492.8159 Q1396.2617,489.6865 1397.5815,488.0347 Q1398.9014,486.3828 1401.4082,486.3828 Q1402.1138,486.3828 1402.7612,486.5322 Q1403.4087,486.6816 1403.9731,486.9805 L1403.9731,489.7031 Q1403.3423,489.1221 1402.7488,488.8523 Q1402.1553,488.5825 1401.5244,488.5825 Q1400.1797,488.5825 1399.4949,489.6492 Q1398.8101,490.7158 1398.8101,492.8159 Q1398.8101,494.9077 1399.4949,495.9744 Q1400.1797,497.041 1401.5244,497.041 Q1402.1553,497.041 1402.7488,496.7712 Q1403.3423,496.5015 1403.9731,495.9204 Z "/><text fill="#000000" font-family="Arial" font-size="11" lengthAdjust="spacingAndGlyphs" textLength="59" x="1415" y="496.9934">OwcDisplay</text><line style="stroke: #919871; stroke-width: 1.5;" x1="1387" x2="1476" y1="509" y2="509"/><line style="stroke: #919871; stroke-width: 1.5;" x1="1387" x2="1476" y1="517" y2="517"/></a><a target="_top" xlink:href="../information/classes/class_terradue_1_1_service_model_1_1_ogc_1_1_ows_model_1_1_owc_offering.html" xlink:title="../information/classes/class_terradue_1_1_service_model_1_1_ogc_1_1_ows_model_1_1_owc_offering.html"><rect fill="#EEEBDC" filter="url(#f1)" height="48" style="stroke: #919871; stroke-width: 1.5;" width="94" x="1562" y="477"/><ellipse cx="1577" cy="493" fill="#ADD1B2" rx="11" ry="11" style="stroke: #919871; stroke-width: 1.0;"/><path d="M1579.9731,498.6431 Q1579.3921,498.9419 1578.7529,499.0913 Q1578.1138,499.2407 1577.4082,499.2407 Q1574.9014,499.2407 1573.5815,497.5889 Q1572.2617,495.937 1572.2617,492.8159 Q1572.2617,489.6865 1573.5815,488.0347 Q1574.9014,486.3828 1577.4082,486.3828 Q1578.1138,486.3828 1578.7612,486.5322 Q1579.4087,486.6816 1579.9731,486.9805 L1579.9731,489.7031 Q1579.3423,489.1221 1578.7488,488.8523 Q1578.1553,488.5825 1577.5244,488.5825 Q1576.1797,488.5825 1575.4949,489.6492 Q1574.8101,490.7158 1574.8101,492.8159 Q1574.8101,494.9077 1575.4949,495.9744 Q1576.1797,497.041 1577.5244,497.041 Q1578.1553,497.041 1578.7488,496.7712 Q1579.3423,496.5015 1579.9731,495.9204 Z "/><text fill="#000000" font-family="Arial" font-size="11" lengthAdjust="spacingAndGlyphs" textLength="62" x="1591" y="496.9934">OwcOffering</text><line style="stroke: #919871; stroke-width: 1.5;" x1="1563" x2="1655" y1="509" y2="509"/><line style="stroke: #919871; stroke-width: 1.5;" x1="1563" x2="1655" y1="517" y2="517"/></a><a target="_top" xlink:href="../information/classes/class_terradue_1_1_service_model_1_1_ogc_1_1_ows_model_1_1_owc_operation.html" xlink:title="../information/classes/class_terradue_1_1_service_model_1_1_ogc_1_1_ows_model_1_1_owc_operation.html"><rect fill="#EEEBDC" filter="url(#f1)" height="59.499" style="stroke: #919871; stroke-width: 1.5;" width="103" x="1553" y="681"/><ellipse cx="1568" cy="697" fill="#ADD1B2" rx="11" ry="11" style="stroke: #919871; stroke-width: 1.0;"/><path d="M1570.9731,702.6431 Q1570.3921,702.9419 1569.7529,703.0913 Q1569.1138,703.2407 1568.4082,703.2407 Q1565.9014,703.2407 1564.5815,701.5889 Q1563.2617,699.937 1563.2617,696.8159 Q1563.2617,693.6865 1564.5815,692.0347 Q1565.9014,690.3828 1568.4082,690.3828 Q1569.1138,690.3828 1569.7612,690.5322 Q1570.4087,690.6816 1570.9731,690.9805 L1570.9731,693.7031 Q1570.3423,693.1221 1569.7488,692.8523 Q1569.1553,692.5825 1568.5244,692.5825 Q1567.1797,692.5825 1566.4949,693.6492 Q1565.8101,694.7158 1565.8101,696.8159 Q1565.8101,698.9077 1566.4949,699.9744 Q1567.1797,701.041 1568.5244,701.041 Q1569.1553,701.041 1569.7488,700.7712 Q1570.3423,700.5015 1570.9731,699.9204 Z "/><text fill="#000000" font-family="Arial" font-size="11" lengthAdjust="spacingAndGlyphs" textLength="71" x="1582" y="700.9934">OwcOperation</text><line style="stroke: #919871; stroke-width: 1.5;" x1="1554" x2="1655" y1="713" y2="713"/><ellipse cx="1564" cy="724" fill="none" rx="3" ry="3" style="stroke: #038048; stroke-width: 1.0;"/><text fill="#000000" font-family="Arial" font-size="10" lengthAdjust="spacingAndGlyphs" textLength="74" x="1573" y="726.6304">RequestURL:Uri</text><line style="stroke: #919871; stroke-width: 1.5;" x1="1554" x2="1655" y1="732.499" y2="732.499"/></a><a target="_top" xlink:href="../information/classes/class_terradue_1_1_service_model_1_1_ogc_1_1_ows_model_1_1_owc_resource.html" xlink:title="../information/classes/class_terradue_1_1_service_model_1_1_ogc_1_1_ows_model_1_1_owc_resource.html"><rect fill="#EEEBDC" filter="url(#f1)" height="48" style="stroke: #919871; stroke-width: 1.5;" width="103" x="1553" y="255"/><ellipse cx="1568" cy="271" fill="#ADD1B2" rx="11" ry="11" style="stroke: #919871; stroke-width: 1.0;"/><path d="M1570.9731,276.6431 Q1570.3921,276.9419 1569.7529,277.0913 Q1569.1138,277.2407 1568.4082,277.2407 Q1565.9014,277.2407 1564.5815,275.5889 Q1563.2617,273.937 1563.2617,270.8159 Q1563.2617,267.6865 1564.5815,266.0347 Q1565.9014,264.3828 1568.4082,264.3828 Q1569.1138,264.3828 1569.7612,264.5322 Q1570.4087,264.6816 1570.9731,264.9805 L1570.9731,267.7031 Q1570.3423,267.1221 1569.7488,266.8523 Q1569.1553,266.5825 1568.5244,266.5825 Q1567.1797,266.5825 1566.4949,267.6492 Q1565.8101,268.7158 1565.8101,270.8159 Q1565.8101,272.9077 1566.4949,273.9744 Q1567.1797,275.041 1568.5244,275.041 Q1569.1553,275.041 1569.7488,274.7712 Q1570.3423,274.5015 1570.9731,273.9204 Z "/><text fill="#000000" font-family="Arial" font-size="11" lengthAdjust="spacingAndGlyphs" textLength="71" x="1582" y="274.9934">OwcResource</text><line style="stroke: #919871; stroke-width: 1.5;" x1="1554" x2="1655" y1="287" y2="287"/><line style="stroke: #919871; stroke-width: 1.5;" x1="1554" x2="1655" y1="295" y2="295"/></a><a target="_top" xlink:href="../information/classes/class_terradue_1_1_service_model_1_1_ogc_1_1_ows_model_1_1_ows_context.html" xlink:title="../information/classes/class_terradue_1_1_service_model_1_1_ogc_1_1_ows_model_1_1_ows_context.html"><rect fill="#EEEBDC" filter="url(#f1)" height="82.4971" style="stroke: #919871; stroke-width: 1.5;" width="137" x="1414.75" y="56"/><ellipse cx="1449.55" cy="72" fill="#ADD1B2" rx="11" ry="11" style="stroke: #919871; stroke-width: 1.0;"/><path d="M1452.5231,77.6431 Q1451.9421,77.9419 1451.3029,78.0913 Q1450.6638,78.2407 1449.9582,78.2407 Q1447.4514,78.2407 1446.1315,76.5889 Q1444.8117,74.937 1444.8117,71.8159 Q1444.8117,68.6865 1446.1315,67.0347 Q1447.4514,65.3828 1449.9582,65.3828 Q1450.6638,65.3828 1451.3112,65.5322 Q1451.9587,65.6816 1452.5231,65.9805 L1452.5231,68.7031 Q1451.8923,68.1221 1451.2988,67.8523 Q1450.7053,67.5825 1450.0744,67.5825 Q1448.7297,67.5825 1448.0449,68.6492 Q1447.3601,69.7158 1447.3601,71.8159 Q1447.3601,73.9077 1448.0449,74.9744 Q1448.7297,76.041 1450.0744,76.041 Q1450.7053,76.041 1451.2988,75.7712 Q1451.8923,75.5015 1452.5231,74.9204 Z "/><text fill="#000000" font-family="Arial" font-size="11" lengthAdjust="spacingAndGlyphs" textLength="61" x="1467.95" y="75.9934">OwsContext</text><line style="stroke: #919871; stroke-width: 1.5;" x1="1415.75" x2="1550.75" y1="88" y2="88"/><ellipse cx="1425.75" cy="99" fill="none" rx="3" ry="3" style="stroke: #038048; stroke-width: 1.0;"/><text fill="#000000" font-family="Arial" font-size="10" lengthAdjust="spacingAndGlyphs" textLength="98" x="1434.75" y="101.6304">Authors:List&lt; string &gt;</text><ellipse cx="1425.75" cy="111" fill="none" rx="3" ry="3" style="stroke: #038048; stroke-width: 1.0;"/><text fill="#000000" font-family="Arial" font-size="10" lengthAdjust="spacingAndGlyphs" textLength="71" x="1434.75" y="113.6304">Publisher:string</text><ellipse cx="1425.75" cy="123" fill="none" rx="3" ry="3" style="stroke: #038048; stroke-width: 1.0;"/><text fill="#000000" font-family="Arial" font-size="10" lengthAdjust="spacingAndGlyphs" textLength="111" x="1434.75" y="125.6304">ContextMetadata:object</text><line style="stroke: #919871; stroke-width: 1.5;" x1="1415.75" x2="1550.75" y1="130.4971" y2="130.4971"/></a><path d="M1007.63,327.581 C1001.477,332.613 995.188,337.518 989,342 C941.949,376.078 887.108,409.507 839.562,436.701 " fill="none" style="stroke: #000000; stroke-width: 1.0;"/><polygon fill="none" points="842.917,442.845,822.066,446.616,836.014,430.665,842.917,442.845" style="stroke: #000000; stroke-width: 1.0;"/><text fill="#000000" font-family="Arial" font-size="11" lengthAdjust="spacingAndGlyphs" textLength="55" x="942" y="383.8179">implements</text><path d="M877.737,319.096 C857.624,342.631 831.283,373.456 806.099,402.926 " fill="none" style="stroke: #000000; stroke-width: 1.0;"/><polygon fill="none" points="811.389,407.511,793.075,418.168,800.746,398.416,811.389,407.511" style="stroke: #000000; stroke-width: 1.0;"/><text fill="#000000" font-family="Arial" font-size="11" lengthAdjust="spacingAndGlyphs" textLength="55" x="831" y="383.8179">implements</text><path d="M724,319.096 C724,341.335 724,370.085 724,398.049 " fill="none" style="stroke: #000000; stroke-width: 1.0;"/><polygon fill="none" points="731,398.168,724,418.168,717,398.168,731,398.168" style="stroke: #000000; stroke-width: 1.0;"/><text fill="#000000" font-family="Arial" font-size="11" lengthAdjust="spacingAndGlyphs" textLength="55" x="725" y="383.8179">implements</text><path d="M233.268,333.846 C239.215,336.712 245.156,339.454 251,342 C368.81,393.32 509.124,437.935 606.18,466.353 " fill="none" style="stroke: #000000; stroke-width: 1.0;"/><polygon fill="none" points="608.347,459.693,625.601,471.992,604.443,473.137,608.347,459.693" style="stroke: #000000; stroke-width: 1.0;"/><text fill="#000000" font-family="Arial" font-size="11" lengthAdjust="spacingAndGlyphs" textLength="55" x="367" y="383.8179">implements</text><path d="M566.663,307.761 C586.606,332.002 616.334,368.135 644.596,402.487 " fill="none" style="stroke: #000000; stroke-width: 1.0;"/><polygon fill="none" points="650.136,398.203,657.438,418.095,639.325,407.098,650.136,398.203" style="stroke: #000000; stroke-width: 1.0;"/><text fill="#000000" font-family="Arial" font-size="11" lengthAdjust="spacingAndGlyphs" textLength="55" x="630" y="383.8179">implements</text><path d="M243.876,131.363 C269.683,163.4 308.483,211.565 334.497,243.859 " fill="none" style="stroke: #000000; stroke-width: 1.0;"/><polygon fill="#000000" points="235.659,121.163,236.308,128.3448,243.187,130.508,242.538,123.3262,235.659,121.163" style="stroke: #000000; stroke-width: 1.0;"/><text fill="#000000" font-family="Arial" font-size="11" lengthAdjust="spacingAndGlyphs" textLength="18" x="287" y="179.8179">has</text><text fill="#000000" font-family="Arial" font-size="11" lengthAdjust="spacingAndGlyphs" textLength="6" x="325.7058" y="233.6288">1</text><path d="M206.576,121.035 C198.001,139.984 185.305,168.041 173.036,195.154 " fill="none" style="stroke: #000000; stroke-width: 1.0;"/><polygon fill="none" points="179.29,198.315,164.667,213.65,166.535,192.543,179.29,198.315" style="stroke: #000000; stroke-width: 1.0;"/><text fill="#000000" font-family="Arial" font-size="11" lengthAdjust="spacingAndGlyphs" textLength="55" x="185" y="179.8179">implements</text><path d="M1396.46,313.559 C1360.76,358.698 1298.19,437.804 1267.31,476.852 " fill="none" style="stroke: #000000; stroke-width: 1.0;"/><polygon fill="#000000" points="1404.71,303.128,1397.851,305.3539,1397.2676,312.5414,1404.1266,310.3155,1404.71,303.128" style="stroke: #000000; stroke-width: 1.0;"/><text fill="#000000" font-family="Arial" font-size="11" lengthAdjust="spacingAndGlyphs" textLength="18" x="1347" y="383.8179">has</text><text fill="#000000" font-family="Arial" font-size="11" lengthAdjust="spacingAndGlyphs" textLength="6" x="1281.7766" y="466.6394">1</text><path d="M1424.48,316.172 C1426.34,361.694 1429.49,438.547 1431.05,476.852 " fill="none" style="stroke: #000000; stroke-width: 1.0;"/><polygon fill="#000000" points="1423.95,303.128,1420.1987,309.2865,1424.4407,315.118,1428.192,308.9594,1423.95,303.128" style="stroke: #000000; stroke-width: 1.0;"/><text fill="#000000" font-family="Arial" font-size="11" lengthAdjust="spacingAndGlyphs" textLength="18" x="1428" y="383.8179">has</text><text fill="#000000" font-family="Arial" font-size="11" lengthAdjust="spacingAndGlyphs" textLength="6" x="1431.8192" y="466.7225">1</text><path d="M1608.3,538.282 C1607.52,578.776 1606.28,643.501 1605.56,680.846 " fill="none" style="stroke: #000000; stroke-width: 1.0;"/><polygon fill="#000000" points="1608.56,525.054,1604.4454,530.976,1608.3293,537.0518,1612.4439,531.1298,1608.56,525.054" style="stroke: #000000; stroke-width: 1.0;"/><text fill="#000000" font-family="Arial" font-size="11" lengthAdjust="spacingAndGlyphs" textLength="18" x="1607" y="625.8179">has</text><text fill="#000000" font-family="Arial" font-size="11" lengthAdjust="spacingAndGlyphs" textLength="4" x="1608.0955" y="670.6794">*</text><path d="M1580.1,535.044 C1547.91,572.691 1499.18,632.539 1490,660 C1466.94,728.956 1479.11,816.921 1487,857.969 " fill="none" style="stroke: #000000; stroke-width: 1.0;"/><polygon fill="#000000" points="1588.69,525.06,1581.7447,526.9998,1580.864,534.1569,1587.8093,532.2171,1588.69,525.06" style="stroke: #000000; stroke-width: 1.0;"/><text fill="#000000" font-family="Arial" font-size="11" lengthAdjust="spacingAndGlyphs" textLength="18" x="1491" y="713.8179">has</text><text fill="#000000" font-family="Arial" font-size="11" lengthAdjust="spacingAndGlyphs" textLength="4" x="1486.7208" y="847.567">*</text><path d="M1578.68,751.368 C1556.61,784.378 1525.84,830.392 1507.52,857.793 " fill="none" style="stroke: #000000; stroke-width: 1.0;"/><polygon fill="#000000" points="1586.09,740.287,1579.429,743.0495,1579.4172,750.2606,1586.0781,747.4981,1586.09,740.287" style="stroke: #000000; stroke-width: 1.0;"/><text fill="#000000" font-family="Arial" font-size="11" lengthAdjust="spacingAndGlyphs" textLength="18" x="1552" y="801.8179">has</text><text fill="#000000" font-family="Arial" font-size="11" lengthAdjust="spacingAndGlyphs" textLength="6" x="1519.6406" y="847.7404">1</text><path d="M1605.66,316.172 C1606.49,361.694 1607.88,438.547 1608.58,476.852 " fill="none" style="stroke: #000000; stroke-width: 1.0;"/><polygon fill="#000000" points="1605.42,303.128,1601.5301,309.2,1605.6389,315.126,1609.5288,309.054,1605.42,303.128" style="stroke: #000000; stroke-width: 1.0;"/><text fill="#000000" font-family="Arial" font-size="11" lengthAdjust="spacingAndGlyphs" textLength="18" x="1607" y="383.8179">has</text><text fill="#000000" font-family="Arial" font-size="11" lengthAdjust="spacingAndGlyphs" textLength="4" x="1610.6012" y="466.6161">*</text><path d="M1465.29,151.118 C1453.81,185.568 1439.42,228.735 1430.73,254.801 " fill="none" style="stroke: #000000; stroke-width: 1.0;"/><polygon fill="#000000" points="1469.53,138.396,1463.8377,142.823,1465.7349,149.7801,1471.4271,145.3531,1469.53,138.396" style="stroke: #000000; stroke-width: 1.0;"/><text fill="#000000" font-family="Arial" font-size="11" lengthAdjust="spacingAndGlyphs" textLength="18" x="1459" y="179.8179">has</text><text fill="#000000" font-family="Arial" font-size="11" lengthAdjust="spacingAndGlyphs" textLength="6" x="1437.0202" y="244.8318">1</text><path d="M1517.77,149.305 C1541.32,184.041 1571.3,228.276 1589.28,254.801 " fill="none" style="stroke: #000000; stroke-width: 1.0;"/><polygon fill="#000000" points="1510.38,138.396,1510.4361,145.6069,1517.1138,148.3286,1517.0578,141.1177,1510.38,138.396" style="stroke: #000000; stroke-width: 1.0;"/><text fill="#000000" font-family="Arial" font-size="11" lengthAdjust="spacingAndGlyphs" textLength="18" x="1541" y="179.8179">has</text><text fill="#000000" font-family="Arial" font-size="11" lengthAdjust="spacingAndGlyphs" textLength="4" x="1583.0803" y="244.5708">*</text><text fill="#888888" font-family="sans-serif" font-size="10" lengthAdjust="spacingAndGlyphs" textLength="91" x="819.5" y="977.668">Workflow example</text></g></svg>