<?xml version="1.0" encoding="UTF-8" standalone="yes"?><svg xmlns="http://www.w3.org/2000/svg" xmlns:xlink="http://www.w3.org/1999/xlink" height="460pt" style="width:1116px;height:460px;" version="1.1" viewBox="0 0 1116 460" width="1116pt"><defs><filter height="300%" id="f1" width="300%" x="-1" y="-1"><feGaussianBlur result="blurOut" stdDeviation="2.0"/><feColorMatrix in="blurOut" result="blurOut2" type="matrix" values="0 0 0 0 0 0 0 0 0 0 0 0 0 0 0 0 0 0 .4 0"/><feOffset dx="4.0" dy="4.0" in="blurOut2" result="blurOut3"/><feBlend in="SourceGraphic" in2="blurOut3" mode="normal"/></filter></defs><g><rect fill="#FFFFFF" filter="url(#f1)" height="209.4395" style="stroke: #000000; stroke-width: 2.0;" width="1094" x="13" y="172.7305"/><rect fill="#FFFFFF" height="44.2656" style="stroke: none; stroke-width: 1.0;" width="1094" x="13" y="337.9043"/><line style="stroke: #A80036; stroke-width: 1.0; stroke-dasharray: 5.0,5.0;" x1="47" x2="47" y1="38.4883" y2="399.1699"/><line style="stroke: #A80036; stroke-width: 1.0; stroke-dasharray: 5.0,5.0;" x1="461" x2="461" y1="38.4883" y2="399.1699"/><line style="stroke: #A80036; stroke-width: 1.0; stroke-dasharray: 5.0,5.0;" x1="830.5" x2="830.5" y1="38.4883" y2="399.1699"/><line style="stroke: #A80036; stroke-width: 1.0; stroke-dasharray: 5.0,5.0;" x1="1056" x2="1056" y1="38.4883" y2="399.1699"/><rect fill="#FEFECE" filter="url(#f1)" height="30.4883" style="stroke: #A80036; stroke-width: 1.5;" width="45" x="23" y="3"/><text fill="#000000" font-family="sans-serif" font-size="14" lengthAdjust="spacingAndGlyphs" textLength="31" x="30" y="23.5352">User</text><rect fill="#FEFECE" filter="url(#f1)" height="30.4883" style="stroke: #A80036; stroke-width: 1.5;" width="45" x="23" y="398.1699"/><text fill="#000000" font-family="sans-serif" font-size="14" lengthAdjust="spacingAndGlyphs" textLength="31" x="30" y="418.7051">User</text><rect fill="#FEFECE" filter="url(#f1)" height="30.4883" style="stroke: #A80036; stroke-width: 1.5;" width="83" x="418" y="3"/><text fill="#000000" font-family="sans-serif" font-size="14" lengthAdjust="spacingAndGlyphs" textLength="69" x="425" y="23.5352">WebPortal</text><rect fill="#FEFECE" filter="url(#f1)" height="30.4883" style="stroke: #A80036; stroke-width: 1.5;" width="83" x="418" y="398.1699"/><text fill="#000000" font-family="sans-serif" font-size="14" lengthAdjust="spacingAndGlyphs" textLength="69" x="425" y="418.7051">WebPortal</text><rect fill="#FEFECE" filter="url(#f1)" height="30.4883" style="stroke: #A80036; stroke-width: 1.5;" width="86" x="785.5" y="3"/><text fill="#000000" font-family="sans-serif" font-size="14" lengthAdjust="spacingAndGlyphs" textLength="72" x="792.5" y="23.5352">WebServer</text><rect fill="#FEFECE" filter="url(#f1)" height="30.4883" style="stroke: #A80036; stroke-width: 1.5;" width="86" x="785.5" y="398.1699"/><text fill="#000000" font-family="sans-serif" font-size="14" lengthAdjust="spacingAndGlyphs" textLength="72" x="792.5" y="418.7051">WebServer</text><rect fill="#FEFECE" filter="url(#f1)" height="30.4883" style="stroke: #A80036; stroke-width: 1.5;" width="77" x="1016" y="3"/><text fill="#000000" font-family="sans-serif" font-size="14" lengthAdjust="spacingAndGlyphs" textLength="63" x="1023" y="23.5352">Database</text><rect fill="#FEFECE" filter="url(#f1)" height="30.4883" style="stroke: #A80036; stroke-width: 1.5;" width="77" x="1016" y="398.1699"/><text fill="#000000" font-family="sans-serif" font-size="14" lengthAdjust="spacingAndGlyphs" textLength="63" x="1023" y="418.7051">Database</text><polygon fill="#A80036" points="449.5,65.4883,459.5,69.4883,449.5,73.4883,453.5,69.4883" style="stroke: #A80036; stroke-width: 1.0;"/><line style="stroke: #A80036; stroke-width: 1.0;" x1="47.5" x2="455.5" y1="69.4883" y2="69.4883"/><text fill="#000000" font-family="sans-serif" font-size="13" lengthAdjust="spacingAndGlyphs" textLength="172" x="54.5" y="65.0566">Load existing data package</text><polygon fill="#A80036" points="818.5,94.7988,828.5,98.7988,818.5,102.7988,822.5,98.7988" style="stroke: #A80036; stroke-width: 1.0;"/><line style="stroke: #A80036; stroke-width: 1.0;" x1="461.5" x2="824.5" y1="98.7988" y2="98.7988"/><text fill="#000000" font-family="sans-serif" font-size="13" lengthAdjust="spacingAndGlyphs" textLength="345" x="468.5" y="94.3672">Stores the data package in the temporary data package</text><polygon fill="#A80036" points="58.5,124.1094,48.5,128.1094,58.5,132.1094,54.5,128.1094" style="stroke: #A80036; stroke-width: 1.0;"/><line style="stroke: #A80036; stroke-width: 1.0;" x1="52.5" x2="460.5" y1="128.1094" y2="128.1094"/><text fill="#000000" font-family="sans-serif" font-size="13" lengthAdjust="spacingAndGlyphs" textLength="262" x="64.5" y="123.6777">Displays the items from the data package</text><polygon fill="#A80036" points="449.5,153.4199,459.5,157.4199,449.5,161.4199,453.5,157.4199" style="stroke: #A80036; stroke-width: 1.0;"/><line style="stroke: #A80036; stroke-width: 1.0;" x1="47.5" x2="455.5" y1="157.4199" y2="157.4199"/><text fill="#000000" font-family="sans-serif" font-size="13" lengthAdjust="spacingAndGlyphs" textLength="390" x="54.5" y="152.9883">Remove items or add new ones in the temporary data package</text><rect fill="none" height="209.4395" style="stroke: #000000; stroke-width: 2.0;" width="1094" x="13" y="172.7305"/><polygon fill="#EEEEEE" points="13,172.7305,75,172.7305,75,179.7305,65,189.7305,13,189.7305,13,172.7305" style="stroke: #000000; stroke-width: 2.0;"/><text fill="#000000" font-family="sans-serif" font-size="13" font-weight="bold" lengthAdjust="spacingAndGlyphs" textLength="17" x="28" y="186.2988">alt</text><text fill="#000000" font-family="sans-serif" font-size="11" font-weight="bold" lengthAdjust="spacingAndGlyphs" textLength="197" x="90" y="185.3652">[user is owner of the data package]</text><polygon fill="#A80036" points="449.5,222.041,459.5,226.041,449.5,230.041,453.5,226.041" style="stroke: #A80036; stroke-width: 1.0;"/><line style="stroke: #A80036; stroke-width: 1.0;" x1="47.5" x2="455.5" y1="226.041" y2="226.041"/><text fill="#000000" font-family="sans-serif" font-size="13" lengthAdjust="spacingAndGlyphs" textLength="370" x="54.5" y="206.6094">Request the storage of the current temporary data package</text><text fill="#000000" font-family="sans-serif" font-size="13" lengthAdjust="spacingAndGlyphs" textLength="240" x="54.5" y="221.9199">with given name (update existing one)</text><polygon fill="#A80036" points="1044.5,266.6621,1054.5,270.6621,1044.5,274.6621,1048.5,270.6621" style="stroke: #A80036; stroke-width: 1.0;"/><line style="stroke: #A80036; stroke-width: 1.0;" x1="830.5" x2="1050.5" y1="270.6621" y2="270.6621"/><text fill="#000000" font-family="sans-serif" font-size="13" lengthAdjust="spacingAndGlyphs" textLength="139" x="837.5" y="251.2305">Save the data package</text><text fill="#000000" font-family="sans-serif" font-size="13" lengthAdjust="spacingAndGlyphs" textLength="202" x="837.5" y="266.541">with associated opensearch urls</text><polygon fill="#A80036" points="472.5,296.2832,462.5,300.2832,472.5,304.2832,468.5,300.2832" style="stroke: #A80036; stroke-width: 1.0;"/><line style="stroke: #A80036; stroke-width: 1.0;" x1="466.5" x2="829.5" y1="300.2832" y2="300.2832"/><text fill="#000000" font-family="sans-serif" font-size="13" lengthAdjust="spacingAndGlyphs" textLength="157" x="478.5" y="295.8516">Return new data package</text><polygon fill="#A80036" points="58.5,325.5938,48.5,329.5938,58.5,333.5938,54.5,329.5938" style="stroke: #A80036; stroke-width: 1.0;"/><line style="stroke: #A80036; stroke-width: 1.0;" x1="52.5" x2="460.5" y1="329.5938" y2="329.5938"/><text fill="#000000" font-family="sans-serif" font-size="13" lengthAdjust="spacingAndGlyphs" textLength="222" x="64.5" y="325.1621">Data package successfully updated</text><line style="stroke: #000000; stroke-width: 1.0; stroke-dasharray: 2.0,2.0;" x1="13" x2="1107" y1="338.9043" y2="338.9043"/><text fill="#000000" font-family="sans-serif" font-size="11" font-weight="bold" lengthAdjust="spacingAndGlyphs" textLength="240" x="18" y="349.5391">[user is not the owner of the data package]</text><polygon fill="#A80036" points="58.5,369.8594,48.5,373.8594,58.5,377.8594,54.5,373.8594" style="stroke: #A80036; stroke-width: 1.0;"/><line style="stroke: #A80036; stroke-width: 1.0;" x1="52.5" x2="460.5" y1="373.8594" y2="373.8594"/><text fill="#000000" font-family="sans-serif" font-size="13" lengthAdjust="spacingAndGlyphs" textLength="238" x="64.5" y="369.4277">Displays an error message to the user</text><text fill="#888888" font-family="sans-serif" font-size="10" lengthAdjust="spacingAndGlyphs" textLength="257" x="431.5" y="447.3262">GeoHazards TEP Data Package update state diagram</text><text fill="#888888" font-family="sans-serif" font-size="10" lengthAdjust="spacingAndGlyphs" textLength="73" x="523.5" y="459.1035">(c) Terradue Srl</text></g></svg>