<?xml version="1.0" encoding="UTF-8" standalone="yes"?><svg xmlns="http://www.w3.org/2000/svg" xmlns:xlink="http://www.w3.org/1999/xlink" height="207pt" style="width:257px;height:207px;" version="1.1" viewBox="0 0 257 207" width="257pt"><defs><filter height="300%" id="f1" width="300%" x="-1" y="-1"><feGaussianBlur result="blurOut" stdDeviation="2.0"/><feColorMatrix in="blurOut" result="blurOut2" type="matrix" values="0 0 0 0 0 0 0 0 0 0 0 0 0 0 0 0 0 0 .4 0"/><feOffset dx="4.0" dy="4.0" in="blurOut2" result="blurOut3"/><feBlend in="SourceGraphic" in2="blurOut3" mode="normal"/></filter></defs><g><polygon fill="#FFFFFF" filter="url(#f1)" points="22,24,107,24,114,42.6489,250,42.6489,250,200,22,200,22,24" style="stroke: #000000; stroke-width: 2.0;"/><line style="stroke: #000000; stroke-width: 2.0;" x1="22" x2="114" y1="42.6489" y2="42.6489"/><text fill="#000000" font-family="Arial" font-size="11" lengthAdjust="spacingAndGlyphs" textLength="79" x="25" y="37.3179">Terradue::Portal</text><a target="_top" xlink:href="../information/classes/class_terradue_1_1_portal_1_1_service.html" xlink:title="../information/classes/class_terradue_1_1_portal_1_1_service.html"><rect fill="#EEEBDC" filter="url(#f1)" height="128.4932" style="stroke: #919871; stroke-width: 1.5;" width="195" x="38.75" y="56"/><ellipse cx="113.5" cy="72" fill="#ADD1B2" rx="11" ry="11" style="stroke: #919871; stroke-width: 1.0;"/><path d="M116.4731,77.6431 Q115.8921,77.9419 115.2529,78.0913 Q114.6138,78.2407 113.9082,78.2407 Q111.4014,78.2407 110.0815,76.5889 Q108.7617,74.937 108.7617,71.8159 Q108.7617,68.6865 110.0815,67.0347 Q111.4014,65.3828 113.9082,65.3828 Q114.6138,65.3828 115.2612,65.5322 Q115.9087,65.6816 116.4731,65.9805 L116.4731,68.7031 Q115.8423,68.1221 115.2488,67.8523 Q114.6553,67.5825 114.0244,67.5825 Q112.6797,67.5825 111.9949,68.6492 Q111.3101,69.7158 111.3101,71.8159 Q111.3101,73.9077 111.9949,74.9744 Q112.6797,76.041 114.0244,76.041 Q114.6553,76.041 115.2488,75.7712 Q115.8423,75.5015 116.4731,74.9204 Z "/><text fill="#000000" font-family="Arial" font-size="11" lengthAdjust="spacingAndGlyphs" textLength="37" x="134" y="75.9934">Service</text><line style="stroke: #919871; stroke-width: 1.5;" x1="39.75" x2="232.75" y1="88" y2="88"/><ellipse cx="49.75" cy="99" fill="none" rx="3" ry="3" style="stroke: #038048; stroke-width: 1.0;"/><text fill="#000000" font-family="Arial" font-size="10" lengthAdjust="spacingAndGlyphs" textLength="79" x="58.75" y="101.6304">Description:string</text><ellipse cx="49.75" cy="111" fill="none" rx="3" ry="3" style="stroke: #038048; stroke-width: 1.0;"/><text fill="#000000" font-family="Arial" font-size="10" lengthAdjust="spacingAndGlyphs" textLength="63" x="58.75" y="113.6304">Version:string</text><ellipse cx="49.75" cy="123" fill="none" rx="3" ry="3" style="stroke: #038048; stroke-width: 1.0;"/><text fill="#000000" font-family="Arial" font-size="10" lengthAdjust="spacingAndGlyphs" textLength="40" x="58.75" y="125.6304">Url:string</text><ellipse cx="49.75" cy="135" fill="none" rx="3" ry="3" style="stroke: #038048; stroke-width: 1.0;"/><text fill="#000000" font-family="Arial" font-size="10" lengthAdjust="spacingAndGlyphs" textLength="60" x="58.75" y="137.6304">IconUrl:string</text><ellipse cx="49.75" cy="147" fill="none" rx="3" ry="3" style="stroke: #038048; stroke-width: 1.0;"/><text fill="#000000" font-family="Arial" font-size="10" lengthAdjust="spacingAndGlyphs" textLength="44" x="58.75" y="149.6304">Rating:int</text><ellipse cx="49.75" cy="159" fill="none" rx="3" ry="3" style="stroke: #038048; stroke-width: 1.0;"/><text fill="#000000" font-family="Arial" font-size="10" lengthAdjust="spacingAndGlyphs" textLength="48" x="58.75" y="161.6304">ClassId:int</text><ellipse cx="49.75" cy="171" fill="none" rx="3" ry="3" style="stroke: #038048; stroke-width: 1.0;"/><text fill="#000000" font-family="Arial" font-size="10" lengthAdjust="spacingAndGlyphs" textLength="169" x="58.75" y="173.6304">OnBuildTask:BuildTaskCallbackType</text><line style="stroke: #919871; stroke-width: 1.5;" x1="39.75" x2="232.75" y1="176.4932" y2="176.4932"/></a></g></svg>