<?xml version="1.0" encoding="UTF-8" standalone="yes"?><svg xmlns="http://www.w3.org/2000/svg" xmlns:xlink="http://www.w3.org/1999/xlink" height="766pt" style="width:2171px;height:766px;" version="1.1" viewBox="0 0 2171 766" width="2171pt"><defs><filter height="300%" id="f1" width="300%" x="-1" y="-1"><feGaussianBlur result="blurOut" stdDeviation="2.0"/><feColorMatrix in="blurOut" result="blurOut2" type="matrix" values="0 0 0 0 0 0 0 0 0 0 0 0 0 0 0 0 0 0 .4 0"/><feOffset dx="4.0" dy="4.0" in="blurOut2" result="blurOut3"/><feBlend in="SourceGraphic" in2="blurOut3" mode="normal"/></filter></defs><g><polygon fill="#FFFFFF" filter="url(#f1)" points="925,168,964,168,971,190.4883,1339,190.4883,1339,650,925,650,925,168" style="stroke: #000000; stroke-width: 2.0;"/><line style="stroke: #000000; stroke-width: 2.0;" x1="925" x2="971" y1="190.4883" y2="190.4883"/><text fill="#000000" font-family="sans-serif" font-size="14" font-weight="bold" lengthAdjust="spacingAndGlyphs" textLength="33" x="929" y="183.5352">Core</text><polygon fill="#FFFFFF" filter="url(#f1)" points="1838,168,1886,168,1893,190.4883,2117,190.4883,2117,406,1838,406,1838,168" style="stroke: #000000; stroke-width: 2.0;"/><line style="stroke: #000000; stroke-width: 2.0;" x1="1838" x2="1893" y1="190.4883" y2="190.4883"/><text fill="#000000" font-family="sans-serif" font-size="14" font-weight="bold" lengthAdjust="spacingAndGlyphs" textLength="42" x="1842" y="183.5352">Cloud</text><polygon fill="#FFFFFF" filter="url(#f1)" points="1666,310,1729,310,1736,332.4883,1814,332.4883,1814,528,1666,528,1666,310" style="stroke: #000000; stroke-width: 2.0;"/><line style="stroke: #000000; stroke-width: 2.0;" x1="1666" x2="1736" y1="332.4883" y2="332.4883"/><text fill="#000000" font-family="sans-serif" font-size="14" font-weight="bold" lengthAdjust="spacingAndGlyphs" textLength="57" x="1670" y="325.5352">Security</text><polygon fill="#FFFFFF" filter="url(#f1)" points="22,168,112,168,119,190.4883,192,190.4883,192,401,22,401,22,168" style="stroke: #000000; stroke-width: 2.0;"/><line style="stroke: #000000; stroke-width: 2.0;" x1="22" x2="119" y1="190.4883" y2="190.4883"/><text fill="#000000" font-family="sans-serif" font-size="14" font-weight="bold" lengthAdjust="spacingAndGlyphs" textLength="84" x="26" y="183.5352">OpenSearch</text><polygon fill="#FFFFFF" filter="url(#f1)" points="216,310,266,310,273,332.4883,660,332.4883,660,406,216,406,216,310" style="stroke: #000000; stroke-width: 2.0;"/><line style="stroke: #000000; stroke-width: 2.0;" x1="216" x2="273" y1="332.4883" y2="332.4883"/><text fill="#000000" font-family="sans-serif" font-size="14" font-weight="bold" lengthAdjust="spacingAndGlyphs" textLength="44" x="220" y="325.5352">Model</text><polygon fill="#FFFFFF" filter="url(#f1)" points="1350,24,1383,24,1390,46.4883,1510,46.4883,1510,120,1350,120,1350,24" style="stroke: #000000; stroke-width: 2.0;"/><line style="stroke: #000000; stroke-width: 2.0;" x1="1350" x2="1390" y1="46.4883" y2="46.4883"/><text fill="#000000" font-family="sans-serif" font-size="14" font-weight="bold" lengthAdjust="spacingAndGlyphs" textLength="27" x="1354" y="39.5352">Tep</text><a target="_top" xlink:href="../computational/components/group___authorisation.html" xlink:title="../computational/components/group___authorisation.html"><rect fill="#EEEBDC" filter="url(#f1)" height="42.6489" style="stroke: #919871; stroke-width: 1.5;" width="103" x="1219.75" y="468.5"/><rect fill="#EEEBDC" height="10" style="stroke: #919871; stroke-width: 1.5;" width="15" x="1302.75" y="473.5"/><rect fill="#EEEBDC" height="2" style="stroke: #919871; stroke-width: 1.5;" width="4" x="1300.75" y="475.5"/><rect fill="#EEEBDC" height="2" style="stroke: #919871; stroke-width: 1.5;" width="4" x="1300.75" y="479.5"/><text fill="#000000" font-family="Arial" font-size="11" lengthAdjust="spacingAndGlyphs" textLength="63" x="1234.75" y="498.8179">Authorisation</text></a><a target="_top" xlink:href="../computational/components/group___persistence.html" xlink:title="../computational/components/group___persistence.html"><rect fill="#EEEBDC" filter="url(#f1)" height="42.6489" style="stroke: #919871; stroke-width: 1.5;" width="136" x="1187" y="590.5"/><rect fill="#EEEBDC" height="10" style="stroke: #919871; stroke-width: 1.5;" width="15" x="1303" y="595.5"/><rect fill="#EEEBDC" height="2" style="stroke: #919871; stroke-width: 1.5;" width="4" x="1301" y="597.5"/><rect fill="#EEEBDC" height="2" style="stroke: #919871; stroke-width: 1.5;" width="4" x="1301" y="601.5"/><text fill="#000000" font-family="Arial" font-size="11" lengthAdjust="spacingAndGlyphs" textLength="96" x="1202" y="620.8179">Persistence of Data</text></a><a target="_top" xlink:href="../computational/components/group___context.html" xlink:title="../computational/components/group___context.html"><rect fill="#EEEBDC" filter="url(#f1)" height="42.6489" style="stroke: #919871; stroke-width: 1.5;" width="78" x="1232" y="346.5"/><rect fill="#EEEBDC" height="10" style="stroke: #919871; stroke-width: 1.5;" width="15" x="1290" y="351.5"/><rect fill="#EEEBDC" height="2" style="stroke: #919871; stroke-width: 1.5;" width="4" x="1288" y="353.5"/><rect fill="#EEEBDC" height="2" style="stroke: #919871; stroke-width: 1.5;" width="4" x="1288" y="357.5"/><text fill="#000000" font-family="Arial" font-size="11" lengthAdjust="spacingAndGlyphs" textLength="38" x="1247" y="376.8179">Context</text></a><a target="_top" xlink:href="../computational/components/group___web_context.html" xlink:title="../computational/components/group___web_context.html"><rect fill="#EEEBDC" filter="url(#f1)" height="42.6489" style="stroke: #919871; stroke-width: 1.5;" width="100" x="1223" y="204.5"/><rect fill="#EEEBDC" height="10" style="stroke: #919871; stroke-width: 1.5;" width="15" x="1303" y="209.5"/><rect fill="#EEEBDC" height="2" style="stroke: #919871; stroke-width: 1.5;" width="4" x="1301" y="211.5"/><rect fill="#EEEBDC" height="2" style="stroke: #919871; stroke-width: 1.5;" width="4" x="1301" y="215.5"/><text fill="#000000" font-family="Arial" font-size="11" lengthAdjust="spacingAndGlyphs" textLength="60" x="1238" y="234.8179">WebContext</text></a><a target="_top" xlink:href="../computational/components/group___series.html" xlink:title="../computational/components/group___series.html"><rect fill="#EEEBDC" filter="url(#f1)" height="42.6489" style="stroke: #919871; stroke-width: 1.5;" width="71" x="1112.75" y="346.5"/><rect fill="#EEEBDC" height="10" style="stroke: #919871; stroke-width: 1.5;" width="15" x="1163.75" y="351.5"/><rect fill="#EEEBDC" height="2" style="stroke: #919871; stroke-width: 1.5;" width="4" x="1161.75" y="353.5"/><rect fill="#EEEBDC" height="2" style="stroke: #919871; stroke-width: 1.5;" width="4" x="1161.75" y="357.5"/><text fill="#000000" font-family="Arial" font-size="11" lengthAdjust="spacingAndGlyphs" textLength="31" x="1127.75" y="376.8179">Series</text></a><a target="_top" xlink:href="../computational/components/group___service.html" xlink:title="../computational/components/group___service.html"><rect fill="#EEEBDC" filter="url(#f1)" height="42.6489" style="stroke: #919871; stroke-width: 1.5;" width="77" x="987.75" y="346.5"/><rect fill="#EEEBDC" height="10" style="stroke: #919871; stroke-width: 1.5;" width="15" x="1044.75" y="351.5"/><rect fill="#EEEBDC" height="2" style="stroke: #919871; stroke-width: 1.5;" width="4" x="1042.75" y="353.5"/><rect fill="#EEEBDC" height="2" style="stroke: #919871; stroke-width: 1.5;" width="4" x="1042.75" y="357.5"/><text fill="#000000" font-family="Arial" font-size="11" lengthAdjust="spacingAndGlyphs" textLength="37" x="1002.75" y="376.8179">Service</text></a><a target="_top" xlink:href="../computational/components/group___wps_service.html" xlink:title="../computational/components/group___wps_service.html"><rect fill="#EEEBDC" filter="url(#f1)" height="42.6489" style="stroke: #919871; stroke-width: 1.5;" width="104" x="941" y="204.5"/><rect fill="#EEEBDC" height="10" style="stroke: #919871; stroke-width: 1.5;" width="15" x="1025" y="209.5"/><rect fill="#EEEBDC" height="2" style="stroke: #919871; stroke-width: 1.5;" width="4" x="1023" y="211.5"/><rect fill="#EEEBDC" height="2" style="stroke: #919871; stroke-width: 1.5;" width="4" x="1023" y="215.5"/><text fill="#000000" font-family="Arial" font-size="11" lengthAdjust="spacingAndGlyphs" textLength="64" x="956" y="234.8179">WPS Service</text></a><a target="_top" xlink:href="../computational/components/group___wps_provider.html" xlink:title="../computational/components/group___wps_provider.html"><rect fill="#EEEBDC" filter="url(#f1)" height="42.6489" style="stroke: #919871; stroke-width: 1.5;" width="108" x="1080" y="204.5"/><rect fill="#EEEBDC" height="10" style="stroke: #919871; stroke-width: 1.5;" width="15" x="1168" y="209.5"/><rect fill="#EEEBDC" height="2" style="stroke: #919871; stroke-width: 1.5;" width="4" x="1166" y="211.5"/><rect fill="#EEEBDC" height="2" style="stroke: #919871; stroke-width: 1.5;" width="4" x="1166" y="215.5"/><text fill="#000000" font-family="Arial" font-size="11" lengthAdjust="spacingAndGlyphs" textLength="68" x="1095" y="234.8179">WPS Provider</text></a><a target="_top" xlink:href="../computational/components/group___cloud_appliance.html" xlink:title="../computational/components/group___cloud_appliance.html"><rect fill="#EEEBDC" filter="url(#f1)" height="42.6489" style="stroke: #919871; stroke-width: 1.5;" width="124" x="1977" y="204.5"/><rect fill="#EEEBDC" height="10" style="stroke: #919871; stroke-width: 1.5;" width="15" x="2081" y="209.5"/><rect fill="#EEEBDC" height="2" style="stroke: #919871; stroke-width: 1.5;" width="4" x="2079" y="211.5"/><rect fill="#EEEBDC" height="2" style="stroke: #919871; stroke-width: 1.5;" width="4" x="2079" y="215.5"/><text fill="#000000" font-family="Arial" font-size="11" lengthAdjust="spacingAndGlyphs" textLength="84" x="1992" y="234.8179">Cloud Applicance</text></a><a target="_top" xlink:href="../computational/components/group___cloud_provider.html" xlink:title="../computational/components/group___cloud_provider.html"><rect fill="#EEEBDC" filter="url(#f1)" height="42.6489" style="stroke: #919871; stroke-width: 1.5;" width="112" x="1944" y="346.5"/><rect fill="#EEEBDC" height="10" style="stroke: #919871; stroke-width: 1.5;" width="15" x="2036" y="351.5"/><rect fill="#EEEBDC" height="2" style="stroke: #919871; stroke-width: 1.5;" width="4" x="2034" y="353.5"/><rect fill="#EEEBDC" height="2" style="stroke: #919871; stroke-width: 1.5;" width="4" x="2034" y="357.5"/><text fill="#000000" font-family="Arial" font-size="11" lengthAdjust="spacingAndGlyphs" textLength="72" x="1959" y="376.8179">Cloud Provider</text></a><a target="_top" xlink:href="../computational/components/group___one_client.html" xlink:title="../computational/components/group___one_client.html"><rect fill="#EEEBDC" filter="url(#f1)" height="42.6489" style="stroke: #919871; stroke-width: 1.5;" width="88" x="1854" y="204.5"/><rect fill="#EEEBDC" height="10" style="stroke: #919871; stroke-width: 1.5;" width="15" x="1922" y="209.5"/><rect fill="#EEEBDC" height="2" style="stroke: #919871; stroke-width: 1.5;" width="4" x="1920" y="211.5"/><rect fill="#EEEBDC" height="2" style="stroke: #919871; stroke-width: 1.5;" width="4" x="1920" y="215.5"/><text fill="#000000" font-family="Arial" font-size="11" lengthAdjust="spacingAndGlyphs" textLength="48" x="1869" y="234.8179">OneClient</text></a><a target="_top" xlink:href="../computational/components/group___auth___umsso.html" xlink:title="../computational/components/group___auth___umsso.html"><rect fill="#EEEBDC" filter="url(#f1)" height="42.6489" style="stroke: #919871; stroke-width: 1.5;" width="115" x="1682.75" y="346.5"/><rect fill="#EEEBDC" height="10" style="stroke: #919871; stroke-width: 1.5;" width="15" x="1777.75" y="351.5"/><rect fill="#EEEBDC" height="2" style="stroke: #919871; stroke-width: 1.5;" width="4" x="1775.75" y="353.5"/><rect fill="#EEEBDC" height="2" style="stroke: #919871; stroke-width: 1.5;" width="4" x="1775.75" y="357.5"/><text fill="#000000" font-family="Arial" font-size="11" lengthAdjust="spacingAndGlyphs" textLength="75" x="1697.75" y="376.8179">UM-SSO plugin</text></a><a target="_top" xlink:href="../computational/components/group___authentication.html" xlink:title="../computational/components/group___authentication.html"><rect fill="#EEEBDC" filter="url(#f1)" height="42.6489" style="stroke: #919871; stroke-width: 1.5;" width="108" x="1682" y="468.5"/><rect fill="#EEEBDC" height="10" style="stroke: #919871; stroke-width: 1.5;" width="15" x="1770" y="473.5"/><rect fill="#EEEBDC" height="2" style="stroke: #919871; stroke-width: 1.5;" width="4" x="1768" y="475.5"/><rect fill="#EEEBDC" height="2" style="stroke: #919871; stroke-width: 1.5;" width="4" x="1768" y="479.5"/><text fill="#000000" font-family="Arial" font-size="11" lengthAdjust="spacingAndGlyphs" textLength="68" x="1697" y="498.8179">Authentication</text></a><a target="_top" xlink:href="../computational/components/group___open_search_engine.html" xlink:title="../computational/components/group___open_search_engine.html"><rect fill="#EEEBDC" filter="url(#f1)" height="42.6489" style="stroke: #919871; stroke-width: 1.5;" width="138" x="38" y="204.5"/><rect fill="#EEEBDC" height="10" style="stroke: #919871; stroke-width: 1.5;" width="15" x="156" y="209.5"/><rect fill="#EEEBDC" height="2" style="stroke: #919871; stroke-width: 1.5;" width="4" x="154" y="211.5"/><rect fill="#EEEBDC" height="2" style="stroke: #919871; stroke-width: 1.5;" width="4" x="154" y="215.5"/><text fill="#000000" font-family="Arial" font-size="11" lengthAdjust="spacingAndGlyphs" textLength="98" x="53" y="234.8179">OpenSearch Engine</text></a><a target="_top" xlink:href="../computational/components/group___open_searchable.html" xlink:title="../computational/components/group___open_searchable.html"><ellipse cx="120" cy="360" fill="#FEFECE" filter="url(#f1)" rx="8" ry="8" style="stroke: #A80036; stroke-width: 2.0;"/><text fill="#000000" font-family="sans-serif" font-size="14" lengthAdjust="spacingAndGlyphs" textLength="112" x="64" y="382.5352">OpenSearchable</text></a><rect fill="#EEEBDC" filter="url(#f1)" height="42.6489" style="stroke: #919871; stroke-width: 1.5;" width="110" x="232" y="346.5"/><rect fill="#EEEBDC" height="10" style="stroke: #919871; stroke-width: 1.5;" width="15" x="322" y="351.5"/><rect fill="#EEEBDC" height="2" style="stroke: #919871; stroke-width: 1.5;" width="4" x="320" y="353.5"/><rect fill="#EEEBDC" height="2" style="stroke: #919871; stroke-width: 1.5;" width="4" x="320" y="357.5"/><text fill="#000000" font-family="Arial" font-size="11" lengthAdjust="spacingAndGlyphs" textLength="70" x="247" y="376.8179">group___atom</text><a target="_top" xlink:href="../computational/components/group___o_w_s_context.html" xlink:title="../computational/components/group___o_w_s_context.html"><rect fill="#EEEBDC" filter="url(#f1)" height="42.6489" style="stroke: #919871; stroke-width: 1.5;" width="107" x="536.75" y="346.5"/><rect fill="#EEEBDC" height="10" style="stroke: #919871; stroke-width: 1.5;" width="15" x="623.75" y="351.5"/><rect fill="#EEEBDC" height="2" style="stroke: #919871; stroke-width: 1.5;" width="4" x="621.75" y="353.5"/><rect fill="#EEEBDC" height="2" style="stroke: #919871; stroke-width: 1.5;" width="4" x="621.75" y="357.5"/><text fill="#000000" font-family="Arial" font-size="11" lengthAdjust="spacingAndGlyphs" textLength="67" x="551.75" y="376.8179">OWS Context</text></a><a target="_top" xlink:href="../computational/components/group___syndication.html" xlink:title="../computational/components/group___syndication.html"><rect fill="#EEEBDC" filter="url(#f1)" height="42.6489" style="stroke: #919871; stroke-width: 1.5;" width="124" x="377" y="346.5"/><rect fill="#EEEBDC" height="10" style="stroke: #919871; stroke-width: 1.5;" width="15" x="481" y="351.5"/><rect fill="#EEEBDC" height="2" style="stroke: #919871; stroke-width: 1.5;" width="4" x="479" y="353.5"/><rect fill="#EEEBDC" height="2" style="stroke: #919871; stroke-width: 1.5;" width="4" x="479" y="357.5"/><text fill="#000000" font-family="Arial" font-size="11" lengthAdjust="spacingAndGlyphs" textLength="84" x="392" y="376.8179">Syndication Feed</text></a><a target="_top" xlink:href="../computational/components/group___cloud_wps_factory.html" xlink:title="../computational/components/group___cloud_wps_factory.html"><rect fill="#EEEBDC" filter="url(#f1)" height="42.6489" style="stroke: #919871; stroke-width: 1.5;" width="128" x="1366" y="60.5"/><rect fill="#EEEBDC" height="10" style="stroke: #919871; stroke-width: 1.5;" width="15" x="1474" y="65.5"/><rect fill="#EEEBDC" height="2" style="stroke: #919871; stroke-width: 1.5;" width="4" x="1472" y="67.5"/><rect fill="#EEEBDC" height="2" style="stroke: #919871; stroke-width: 1.5;" width="4" x="1472" y="71.5"/><text fill="#000000" font-family="Arial" font-size="11" lengthAdjust="spacingAndGlyphs" textLength="88" x="1381" y="90.8179">CloudWpsFactory</text></a><a target="_top" xlink:href="../computational/components/group___open_nebula_x_m_l_r_p_c.html" xlink:title="../computational/components/group___open_nebula_x_m_l_r_p_c.html"><ellipse cx="1463" cy="360" fill="#FEFECE" filter="url(#f1)" rx="8" ry="8" style="stroke: #A80036; stroke-width: 2.0;"/><text fill="#000000" font-family="sans-serif" font-size="14" lengthAdjust="spacingAndGlyphs" textLength="216" x="1355" y="382.5352">OpenNebula XML-RPC Interface</text></a><a target="_top" xlink:href="../computational/components/group___s_q_l_connector.html" xlink:title="../computational/components/group___s_q_l_connector.html"><ellipse cx="1255.25" cy="721" fill="#FEFECE" filter="url(#f1)" rx="8" ry="8" style="stroke: #A80036; stroke-width: 2.0;"/><text fill="#000000" font-family="sans-serif" font-size="14" lengthAdjust="spacingAndGlyphs" textLength="159" x="1175.75" y="743.5352">SQL interface to RDBMS</text></a><a target="_top" xlink:href="../computational/components/group___w_p_s.html" xlink:title="../computational/components/group___w_p_s.html"><ellipse cx="794" cy="360" fill="#FEFECE" filter="url(#f1)" rx="8" ry="8" style="stroke: #A80036; stroke-width: 2.0;"/><text fill="#000000" font-family="sans-serif" font-size="14" lengthAdjust="spacingAndGlyphs" textLength="230" x="679" y="382.5352">Web Processing Services Interface</text></a><polygon fill="#FBFB77" filter="url(#f1)" points="511,477.5,511,502.8105,691,502.8105,691,487.5,681,477.5,511,477.5" style="stroke: #A80036; stroke-width: 1.0;"/><polygon fill="#FBFB77" points="511,477.5,511,502.8105,691,502.8105,691,487.5,681,477.5,603.932,477.5,591.891,389.629,595.932,477.5,511,477.5" style="stroke: #A80036; stroke-width: 1.0;"/><line style="stroke: #A80036; stroke-width: 1.0;" x1="681" x2="681" y1="477.5" y2="487.5"/><line style="stroke: #A80036; stroke-width: 1.0;" x1="691" x2="681" y1="487.5" y2="487.5"/><a target="_top" xlink:href="../computational/components/group___o_w_s_context_atom_feed.html" xlink:title="../computational/components/group___o_w_s_context_atom_feed.html"><text fill="#0000FF" font-family="sans-serif" font-size="13" lengthAdjust="spacingAndGlyphs" text-decoration="underline" textLength="159" x="517" y="495.0684">(OWS Context Document)</text><line style="stroke: #0000FF; stroke-width: 1.0;" x1="517" x2="676" y1="497.0684" y2="497.0684"/></a><polygon fill="#FBFB77" filter="url(#f1)" points="380,477.5,380,502.8105,476,502.8105,476,487.5,466,477.5,380,477.5" style="stroke: #A80036; stroke-width: 1.0;"/><polygon fill="#FBFB77" points="380,477.5,380,502.8105,476,502.8105,476,487.5,466,477.5,433.068,477.5,437.109,389.629,425.068,477.5,380,477.5" style="stroke: #A80036; stroke-width: 1.0;"/><line style="stroke: #A80036; stroke-width: 1.0;" x1="466" x2="466" y1="477.5" y2="487.5"/><line style="stroke: #A80036; stroke-width: 1.0;" x1="476" x2="466" y1="487.5" y2="487.5"/><a target="_top" xlink:href="../computational/components/group___atom.html" xlink:title="../computational/components/group___atom.html"><text fill="#0000FF" font-family="sans-serif" font-size="13" lengthAdjust="spacingAndGlyphs" text-decoration="underline" textLength="75" x="386" y="495.0684">(Atom Feed)</text><line style="stroke: #0000FF; stroke-width: 1.0;" x1="386" x2="461" y1="497.0684" y2="497.0684"/></a><rect fill="#EEEBDC" filter="url(#f1)" height="42.6489" style="stroke: #919871; stroke-width: 1.5;" width="150" x="1830" y="468.5"/><rect fill="#EEEBDC" height="10" style="stroke: #919871; stroke-width: 1.5;" width="15" x="1960" y="473.5"/><rect fill="#EEEBDC" height="2" style="stroke: #919871; stroke-width: 1.5;" width="4" x="1958" y="475.5"/><rect fill="#EEEBDC" height="2" style="stroke: #919871; stroke-width: 1.5;" width="4" x="1958" y="479.5"/><text fill="#000000" font-family="Arial" font-size="11" lengthAdjust="spacingAndGlyphs" textLength="110" x="1845" y="498.8179">group___open_search</text><path d="M1739.31,389.629 C1738.58,411.608 1737.43,446.209 1736.69,468.239 " fill="none" style="stroke: #000000; stroke-width: 1.0;"/><text fill="#000000" font-family="Arial" font-size="11" lengthAdjust="spacingAndGlyphs" textLength="55" x="1740" y="433.8179">implements</text><path d="M1681.76,504.532 C1595.14,526.142 1425.47,568.471 1328.19,592.741 " fill="none" style="stroke: #000000; stroke-width: 1.0; stroke-dasharray: 7.0,7.0;"/><polygon fill="#000000" points="1323.32,593.954,1333.0219,595.6491,1328.1704,592.74,1331.0795,587.8885,1323.32,593.954" style="stroke: #000000; stroke-width: 1.0;"/><text fill="#000000" font-family="Arial" font-size="11" lengthAdjust="spacingAndGlyphs" textLength="0" x="1514" y="555.8179"/><path d="M1268.25,511.629 C1265.54,531.977 1261.38,563.142 1258.45,585.136 " fill="none" style="stroke: #000000; stroke-width: 1.0; stroke-dasharray: 7.0,7.0;"/><polygon fill="#000000" points="1257.77,590.239,1262.9252,581.8471,1258.4313,585.2829,1254.9955,580.789,1257.77,590.239" style="stroke: #000000; stroke-width: 1.0;"/><text fill="#000000" font-family="Arial" font-size="11" lengthAdjust="spacingAndGlyphs" textLength="0" x="1268" y="555.8179"/><path d="M2051.72,247.776 C2059.87,262.36 2069.71,282.642 2074,302 C2096.64,404.064 2114.62,453.816 2050,536 C2034.27,556.009 2022.66,553.691 1998,560 C1872.77,592.04 1489.88,605.143 1328.24,609.344 " fill="none" style="stroke: #000000; stroke-width: 1.0; stroke-dasharray: 7.0,7.0;"/><polygon fill="#000000" points="1323.05,609.478,1332.1499,613.2453,1328.0483,609.3494,1331.9442,605.2479,1323.05,609.478" style="stroke: #000000; stroke-width: 1.0;"/><text fill="#000000" font-family="Arial" font-size="11" lengthAdjust="spacingAndGlyphs" textLength="0" x="2098" y="433.8179"/><path d="M2033.25,247.657 C2026.3,272.576 2014.63,314.467 2007.13,341.409 " fill="none" style="stroke: #000000; stroke-width: 1.0; stroke-dasharray: 7.0,7.0;"/><polygon fill="#000000" points="2005.78,346.258,2012.0431,338.6571,2007.1184,341.4405,2004.335,336.5157,2005.78,346.258" style="stroke: #000000; stroke-width: 1.0;"/><text fill="#000000" font-family="Arial" font-size="11" lengthAdjust="spacingAndGlyphs" textLength="0" x="2028" y="289.8179"/><path d="M1976.66,243.866 C1970.71,245.326 1964.75,246.728 1959,248 C1827.15,277.165 1768.65,221.809 1660,302 C1614.9,335.288 1646.36,379.724 1602,414 C1559.63,446.742 1410.57,470.798 1327.68,481.997 " fill="none" style="stroke: #000000; stroke-width: 1.0; stroke-dasharray: 7.0,7.0;"/><polygon fill="#000000" points="1322.31,482.716,1331.7577,485.4982,1327.2666,482.0587,1330.7061,477.5676,1322.31,482.716" style="stroke: #000000; stroke-width: 1.0;"/><text fill="#000000" font-family="Arial" font-size="11" lengthAdjust="spacingAndGlyphs" textLength="0" x="1664" y="371.8179"/><path d="M2013.95,389.705 C2019.49,399.129 2025.2,410.687 2028,422 C2037.46,460.168 2045.94,503.518 2011,536 C1961.62,581.908 1508.78,602.329 1328.52,608.688 " fill="none" style="stroke: #000000; stroke-width: 1.0; stroke-dasharray: 7.0,7.0;"/><polygon fill="#000000" points="1323.27,608.872,1332.4018,612.5611,1328.2671,608.7006,1332.1276,604.5658,1323.27,608.872" style="stroke: #000000; stroke-width: 1.0;"/><text fill="#000000" font-family="Arial" font-size="11" lengthAdjust="spacingAndGlyphs" textLength="0" x="2040" y="493.8179"/><path d="M1949.02,389.623 C1903.53,407.707 1840.19,432.021 1814,438 C1639.88,477.749 1427.55,486.611 1327.85,488.522 " fill="none" style="stroke: #000000; stroke-width: 1.0; stroke-dasharray: 7.0,7.0;"/><polygon fill="#000000" points="1322.61,488.618,1331.6772,492.4631,1327.6093,488.5323,1331.5401,484.4643,1322.61,488.618" style="stroke: #000000; stroke-width: 1.0;"/><text fill="#000000" font-family="Arial" font-size="11" lengthAdjust="spacingAndGlyphs" textLength="0" x="1868" y="433.8179"/><path d="M1983.67,389.629 C1966.27,411.608 1938.88,446.209 1921.44,468.239 " fill="none" style="stroke: #000000; stroke-width: 1.0;"/><text fill="#000000" font-family="Arial" font-size="11" lengthAdjust="spacingAndGlyphs" textLength="28" x="1957" y="433.8179">proxy</text><path d="M1494.15,85.389 C1657.23,92.12 2077.7,113.827 2119,160 C2170.88,218 2082.68,302.245 2031.95,343.058 " fill="none" style="stroke: #000000; stroke-width: 1.0; stroke-dasharray: 7.0,7.0;"/><polygon fill="#000000" points="2027.76,346.395,2037.2915,343.9149,2031.6705,343.2792,2032.3062,337.6582,2027.76,346.395" style="stroke: #000000; stroke-width: 1.0;"/><text fill="#000000" font-family="Arial" font-size="11" lengthAdjust="spacingAndGlyphs" textLength="22" x="2135" y="229.8179">calls</text><path d="M1494.09,102.447 C1588.71,131.156 1763.75,184.266 1848.91,210.105 " fill="none" style="stroke: #000000; stroke-width: 1.0; stroke-dasharray: 7.0,7.0;"/><polygon fill="#000000" points="1853.89,211.616,1846.4277,205.1883,1849.1028,210.1727,1844.1185,212.8478,1853.89,211.616" style="stroke: #000000; stroke-width: 1.0;"/><text fill="#000000" font-family="Arial" font-size="11" lengthAdjust="spacingAndGlyphs" textLength="22" x="1651" y="147.8179">calls</text><path d="M1380.26,103.613 C1342.96,118.516 1290.38,138.349 1243,152 C1226.42,156.778 1220.35,152.116 1205,160 C1185.7,169.909 1167.72,186.479 1154.68,200.409 " fill="none" style="stroke: #000000; stroke-width: 1.0; stroke-dasharray: 7.0,7.0;"/><polygon fill="#000000" points="1151.14,204.26,1160.1818,200.3555,1154.5296,200.5843,1154.3008,194.9321,1151.14,204.26" style="stroke: #000000; stroke-width: 1.0;"/><text fill="#000000" font-family="Arial" font-size="11" lengthAdjust="spacingAndGlyphs" textLength="37" x="1291" y="147.8179">creates</text><path d="M1365.94,85.903 C1289.61,91.658 1160.09,108.821 1062,160 C1043.06,169.881 1025.59,186.452 1012.97,200.389 " fill="none" style="stroke: #000000; stroke-width: 1.0; stroke-dasharray: 7.0,7.0;"/><polygon fill="#000000" points="1009.54,204.242,1018.5073,200.1692,1012.8603,200.5036,1012.5259,194.8567,1009.54,204.242" style="stroke: #000000; stroke-width: 1.0;"/><text fill="#000000" font-family="Arial" font-size="11" lengthAdjust="spacingAndGlyphs" textLength="37" x="1110" y="147.8179">creates</text><path d="M1248.73,389.725 C1230.6,408.238 1206.37,437.136 1196,468 C1186.37,496.648 1186.11,507.441 1196,536 C1202.64,555.175 1216.43,573.17 1229.01,586.725 " fill="none" style="stroke: #000000; stroke-width: 1.0; stroke-dasharray: 7.0,7.0;"/><polygon fill="#000000" points="1232.52,590.428,1229.2309,581.1446,1229.08,586.7994,1223.4252,586.6486,1232.52,590.428" style="stroke: #000000; stroke-width: 1.0;"/><text fill="#000000" font-family="Arial" font-size="11" lengthAdjust="spacingAndGlyphs" textLength="0" x="1200" y="493.8179"/><path d="M1271,389.629 C1271,409.977 1271,441.142 1271,463.136 " fill="none" style="stroke: #000000; stroke-width: 1.0; stroke-dasharray: 7.0,7.0;"/><polygon fill="#000000" points="1271,468.239,1275,459.239,1271,463.239,1267,459.239,1271,468.239" style="stroke: #000000; stroke-width: 1.0;"/><text fill="#000000" font-family="Arial" font-size="11" lengthAdjust="spacingAndGlyphs" textLength="0" x="1275" y="433.8179"/><path d="M1285.99,389.805 C1293.43,398.621 1303.14,408.181 1314,414 C1431.68,477.071 1591.7,488.574 1676.9,489.813 " fill="none" style="stroke: #000000; stroke-width: 1.0; stroke-dasharray: 7.0,7.0;"/><polygon fill="#000000" points="1681.9,489.875,1672.9581,485.7468,1676.9005,489.8036,1672.8438,493.746,1681.9,489.875" style="stroke: #000000; stroke-width: 1.0;"/><text fill="#000000" font-family="Arial" font-size="11" lengthAdjust="spacingAndGlyphs" textLength="0" x="1371" y="433.8179"/><path d="M1853.74,228.199 C1792.37,231.207 1678.94,241.682 1590,278 C1546.63,295.71 1503.54,330.461 1480.39,350.907 " fill="none" style="stroke: #000000; stroke-width: 1.0;"/><text fill="#000000" font-family="Arial" font-size="11" lengthAdjust="spacingAndGlyphs" textLength="22" x="1591" y="289.8179">calls</text><path d="M108.918,247.657 C111.517,275.648 116.105,325.055 118.48,350.632 " fill="none" style="stroke: #000000; stroke-width: 1.0;"/><text fill="#000000" font-family="Arial" font-size="11" lengthAdjust="spacingAndGlyphs" textLength="40" x="115" y="289.8179">process</text><path d="M176.121,239.882 C228.405,251.415 300.874,271.31 359,302 C379.424,312.784 399.588,329.215 414.563,342.859 " fill="none" style="stroke: #000000; stroke-width: 1.0; stroke-dasharray: 7.0,7.0;"/><polygon fill="#000000" points="418.255,346.262,414.349,337.2208,414.5788,342.873,408.9266,343.1027,418.255,346.262" style="stroke: #000000; stroke-width: 1.0;"/><text fill="#000000" font-family="Arial" font-size="11" lengthAdjust="spacingAndGlyphs" textLength="24" x="341" y="289.8179">uses</text><path d="M1255,633.56 C1255,655.9132 1255,691.1836 1255,711.7045 " fill="none" style="stroke: #000000; stroke-width: 1.0;"/><text fill="#000000" font-family="Arial" font-size="11" lengthAdjust="spacingAndGlyphs" textLength="45" x="1256" y="677.8179">connects</text><path d="M1148.36,389.594 C1149.57,421.943 1154.6,486.119 1175,536 C1183.51,556.792 1201.17,574.352 1217.74,587.241 " fill="none" style="stroke: #000000; stroke-width: 1.0; stroke-dasharray: 7.0,7.0;"/><polygon fill="#000000" points="1221.92,590.416,1217.1786,581.7836,1217.9405,587.3889,1212.3352,588.1508,1221.92,590.416" style="stroke: #000000; stroke-width: 1.0;"/><text fill="#000000" font-family="Arial" font-size="11" lengthAdjust="spacingAndGlyphs" textLength="0" x="1179" y="493.8179"/><path d="M1169.14,389.629 C1190.44,410.406 1223.3,442.462 1245.9,464.516 " fill="none" style="stroke: #000000; stroke-width: 1.0; stroke-dasharray: 7.0,7.0;"/><polygon fill="#000000" points="1249.72,468.239,1246.064,459.0939,1246.1383,464.7502,1240.4819,464.8246,1249.72,468.239" style="stroke: #000000; stroke-width: 1.0;"/><text fill="#000000" font-family="Arial" font-size="11" lengthAdjust="spacingAndGlyphs" textLength="0" x="1221" y="433.8179"/><path d="M1036.43,389.794 C1057.03,428.805 1106.66,513.241 1172,560 C1185.47,569.639 1200.78,579.367 1214.55,587.704 " fill="none" style="stroke: #000000; stroke-width: 1.0; stroke-dasharray: 7.0,7.0;"/><polygon fill="#000000" points="1219.16,590.477,1213.5017,582.4157,1214.8729,587.9039,1209.3848,589.2751,1219.16,590.477" style="stroke: #000000; stroke-width: 1.0;"/><text fill="#000000" font-family="Arial" font-size="11" lengthAdjust="spacingAndGlyphs" textLength="0" x="1146" y="493.8179"/><path d="M1055.19,389.663 C1067.23,397.749 1081.5,406.793 1095,414 C1133.84,434.734 1179.64,454.103 1214.78,467.963 " fill="none" style="stroke: #000000; stroke-width: 1.0; stroke-dasharray: 7.0,7.0;"/><polygon fill="#000000" points="1219.45,469.796,1212.536,462.782,1214.7963,467.9676,1209.6106,470.2279,1219.45,469.796" style="stroke: #000000; stroke-width: 1.0;"/><text fill="#000000" font-family="Arial" font-size="11" lengthAdjust="spacingAndGlyphs" textLength="0" x="1147" y="433.8179"/><path d="M1272.7,247.657 C1272.35,272.472 1271.76,314.12 1271.37,341.073 " fill="none" style="stroke: #000000; stroke-width: 1.0; stroke-dasharray: 7.0,7.0;"/><polygon fill="#000000" points="1271.3,346.258,1275.4282,337.3161,1271.3714,341.2585,1267.429,337.2018,1271.3,346.258" style="stroke: #000000; stroke-width: 1.0;"/><text fill="#000000" font-family="Arial" font-size="11" lengthAdjust="spacingAndGlyphs" textLength="0" x="1277" y="289.8179"/><path d="M1079.62,244.049 C1073.71,245.545 1067.76,246.905 1062,248 C990.967,261.518 798.666,238.654 738,278 C731.155,282.44 735.834,289.544 729,294 C698.327,314.001 679.579,285.284 647,302 C629.573,310.942 615.101,327.658 605.101,341.899 " fill="none" style="stroke: #000000; stroke-width: 1.0; stroke-dasharray: 7.0,7.0;"/><polygon fill="#000000" points="602.142,346.228,610.5233,341.0556,604.9638,342.1003,603.9191,336.5408,602.142,346.228" style="stroke: #000000; stroke-width: 1.0;"/><text fill="#000000" font-family="Arial" font-size="11" lengthAdjust="spacingAndGlyphs" textLength="37" x="739" y="289.8179">exports</text><path d="M1079.64,244.15 C1073.73,245.627 1067.77,246.954 1062,248 C887.021,279.736 834.422,230.678 663,278 C647.672,282.231 646.44,290.198 631,294 C586.218,305.028 259.96,288.053 216,302 C185.112,311.8 155.105,334.982 137.088,350.839 " fill="none" style="stroke: #000000; stroke-width: 1.0;"/><text fill="#000000" font-family="Arial" font-size="11" lengthAdjust="spacingAndGlyphs" textLength="55" x="664" y="289.8179">implements</text><path d="M1079.82,243.072 C1073.81,244.772 1067.78,246.446 1062,248 C1008.07,262.487 991.553,256.55 940,278 C892.859,297.614 843.157,331.048 815.615,350.877 " fill="none" style="stroke: #000000; stroke-width: 1.0;"/><text fill="#000000" font-family="Arial" font-size="11" lengthAdjust="spacingAndGlyphs" textLength="55" x="941" y="289.8179">implements</text><path d="M997.869,247.657 C1003.719,272.472 1013.54,314.12 1019.89,341.073 " fill="none" style="stroke: #000000; stroke-width: 1.0; stroke-dasharray: 7.0,7.0;"/><polygon fill="#000000" points="1021.11,346.258,1022.9406,336.5808,1019.9639,341.3911,1015.1536,338.4145,1021.11,346.258" style="stroke: #000000; stroke-width: 1.0;"/><text fill="#000000" font-family="Arial" font-size="11" lengthAdjust="spacingAndGlyphs" textLength="39" x="1010" y="289.8179">extends</text><path d="M940.742,229.766 C836.361,235.828 610.059,251.864 587,278 C572.008,294.993 575.167,321.704 580.607,341.434 " fill="none" style="stroke: #000000; stroke-width: 1.0; stroke-dasharray: 7.0,7.0;"/><polygon fill="#000000" points="582.03,346.289,583.3377,336.5273,580.624,341.4908,575.6605,338.777,582.03,346.289" style="stroke: #000000; stroke-width: 1.0;"/><text fill="#000000" font-family="Arial" font-size="11" lengthAdjust="spacingAndGlyphs" textLength="37" x="588" y="289.8179">exports</text><path d="M940.888,232.401 C852.885,241.556 669.229,260.803 514,278 C452.192,284.848 436.975,288.879 375,294 C339.742,296.913 249.552,290.78 216,302 C185.458,312.214 155.594,335.051 137.49,350.742 " fill="none" style="stroke: #000000; stroke-width: 1.0;"/><text fill="#000000" font-family="Arial" font-size="11" lengthAdjust="spacingAndGlyphs" textLength="55" x="515" y="289.8179">implements</text><text fill="#888888" font-family="sans-serif" font-size="10" lengthAdjust="spacingAndGlyphs" textLength="100" x="1038.5" y="765.668">Component Diagram</text></g></svg>