<?xml version="1.0" encoding="UTF-8" standalone="yes"?><svg xmlns="http://www.w3.org/2000/svg" xmlns:xlink="http://www.w3.org/1999/xlink" height="306pt" style="width:652px;height:306px;" version="1.1" viewBox="0 0 652 306" width="652pt"><defs><filter height="300%" id="f1" width="300%" x="-1" y="-1"><feGaussianBlur result="blurOut" stdDeviation="2.0"/><feColorMatrix in="blurOut" result="blurOut2" type="matrix" values="0 0 0 0 0 0 0 0 0 0 0 0 0 0 0 0 0 0 .4 0"/><feOffset dx="4.0" dy="4.0" in="blurOut2" result="blurOut3"/><feBlend in="SourceGraphic" in2="blurOut3" mode="normal"/></filter></defs><g><polygon fill="#FFFFFF" filter="url(#f1)" points="22,24,107,24,114,43.6179,645,43.6179,645,299,22,299,22,24" style="stroke: #000000; stroke-width: 2.0;"/><line style="stroke: #000000; stroke-width: 2.0;" x1="22" x2="114" y1="43.6179" y2="43.6179"/><text fill="#000000" font-family="Arial" font-size="11" lengthAdjust="spacingAndGlyphs" textLength="79" x="25" y="37.4829">Terradue::Portal</text><a target="_top" xlink:href="../information/classes/class_terradue_1_1_portal_1_1_task.html" xlink:title="../information/classes/class_terradue_1_1_portal_1_1_task.html"><rect fill="#EEEBDC" filter="url(#f1)" height="60.38" style="stroke: #919871; stroke-width: 1.5;" width="92" x="292" y="57"/><ellipse cx="322.75" cy="73" fill="#ADD1B2" rx="11" ry="11" style="stroke: #919871; stroke-width: 1.0;"/><path d="M325.0938,68.6719 C324.1563,68.2344 323.5625,68.0938 322.6875,68.0938 C320.0625,68.0938 318.0625,70.1719 318.0625,72.8906 L318.0625,74.0156 C318.0625,76.5938 320.1719,78.4844 323.0625,78.4844 C324.2813,78.4844 325.4375,78.1875 326.1875,77.6406 C326.7656,77.2344 327.0938,76.7813 327.0938,76.3906 C327.0938,75.9375 326.7031,75.5469 326.2344,75.5469 C326.0156,75.5469 325.8125,75.625 325.625,75.8125 C325.1719,76.2969 325.1719,76.2969 324.9844,76.3906 C324.5625,76.6563 323.875,76.7813 323.1094,76.7813 C321.0625,76.7813 319.7656,75.6875 319.7656,73.9844 L319.7656,72.8906 C319.7656,71.1094 321.0156,69.7969 322.75,69.7969 C323.3281,69.7969 323.9375,69.9531 324.4063,70.2031 C324.8906,70.4844 325.0625,70.7031 325.1563,71.1094 C325.2188,71.5156 325.25,71.6406 325.3906,71.7656 C325.5313,71.9063 325.7656,72.0156 325.9844,72.0156 C326.25,72.0156 326.5156,71.875 326.6875,71.6563 C326.7969,71.5 326.8281,71.3125 326.8281,70.8906 L326.8281,69.4688 C326.8281,69.0313 326.8125,68.9063 326.7188,68.75 C326.5625,68.4844 326.2813,68.3438 325.9844,68.3438 C325.6875,68.3438 325.4844,68.4375 325.2656,68.75 L325.0938,68.6719 Z "/><text fill="#000000" font-family="Arial" font-size="11" lengthAdjust="spacingAndGlyphs" textLength="25" x="340.25" y="76.674">Task</text><line style="stroke: #919871; stroke-width: 1.5;" x1="293" x2="383" y1="89" y2="89"/><ellipse cx="303" cy="100.19" fill="none" rx="3" ry="3" style="stroke: #038048; stroke-width: 1.0;"/><text fill="#000000" font-family="Arial" font-size="10" lengthAdjust="spacingAndGlyphs" textLength="66" x="312" y="102.53">Priority:double</text><line style="stroke: #919871; stroke-width: 1.5;" x1="293" x2="383" y1="109.38" y2="109.38"/></a><rect fill="#EEEBDC" filter="url(#f1)" height="48" style="stroke: #919871; stroke-width: 1.5;" width="69" x="63" y="215"/><ellipse cx="78" cy="231" fill="#ADD1B2" rx="11" ry="11" style="stroke: #919871; stroke-width: 1.0;"/><path d="M80.3438,226.6719 C79.4063,226.2344 78.8125,226.0938 77.9375,226.0938 C75.3125,226.0938 73.3125,228.1719 73.3125,230.8906 L73.3125,232.0156 C73.3125,234.5938 75.4219,236.4844 78.3125,236.4844 C79.5313,236.4844 80.6875,236.1875 81.4375,235.6406 C82.0156,235.2344 82.3438,234.7813 82.3438,234.3906 C82.3438,233.9375 81.9531,233.5469 81.4844,233.5469 C81.2656,233.5469 81.0625,233.625 80.875,233.8125 C80.4219,234.2969 80.4219,234.2969 80.2344,234.3906 C79.8125,234.6563 79.125,234.7813 78.3594,234.7813 C76.3125,234.7813 75.0156,233.6875 75.0156,231.9844 L75.0156,230.8906 C75.0156,229.1094 76.2656,227.7969 78,227.7969 C78.5781,227.7969 79.1875,227.9531 79.6563,228.2031 C80.1406,228.4844 80.3125,228.7031 80.4063,229.1094 C80.4688,229.5156 80.5,229.6406 80.6406,229.7656 C80.7813,229.9063 81.0156,230.0156 81.2344,230.0156 C81.5,230.0156 81.7656,229.875 81.9375,229.6563 C82.0469,229.5 82.0781,229.3125 82.0781,228.8906 L82.0781,227.4688 C82.0781,227.0313 82.0625,226.9063 81.9688,226.75 C81.8125,226.4844 81.5313,226.3438 81.2344,226.3438 C80.9375,226.3438 80.7344,226.4375 80.5156,226.75 L80.3438,226.6719 Z "/><text fill="#000000" font-family="Arial" font-size="11" lengthAdjust="spacingAndGlyphs" textLength="37" x="92" y="234.674">Service</text><line style="stroke: #919871; stroke-width: 1.5;" x1="64" x2="131" y1="247" y2="247"/><line style="stroke: #919871; stroke-width: 1.5;" x1="64" x2="131" y1="255" y2="255"/><rect fill="#EEEBDC" filter="url(#f1)" height="48" style="stroke: #919871; stroke-width: 1.5;" width="132" x="216" y="215"/><ellipse cx="231" cy="231" fill="#ADD1B2" rx="11" ry="11" style="stroke: #919871; stroke-width: 1.0;"/><path d="M233.3438,226.6719 C232.4063,226.2344 231.8125,226.0938 230.9375,226.0938 C228.3125,226.0938 226.3125,228.1719 226.3125,230.8906 L226.3125,232.0156 C226.3125,234.5938 228.4219,236.4844 231.3125,236.4844 C232.5313,236.4844 233.6875,236.1875 234.4375,235.6406 C235.0156,235.2344 235.3438,234.7813 235.3438,234.3906 C235.3438,233.9375 234.9531,233.5469 234.4844,233.5469 C234.2656,233.5469 234.0625,233.625 233.875,233.8125 C233.4219,234.2969 233.4219,234.2969 233.2344,234.3906 C232.8125,234.6563 232.125,234.7813 231.3594,234.7813 C229.3125,234.7813 228.0156,233.6875 228.0156,231.9844 L228.0156,230.8906 C228.0156,229.1094 229.2656,227.7969 231,227.7969 C231.5781,227.7969 232.1875,227.9531 232.6563,228.2031 C233.1406,228.4844 233.3125,228.7031 233.4063,229.1094 C233.4688,229.5156 233.5,229.6406 233.6406,229.7656 C233.7813,229.9063 234.0156,230.0156 234.2344,230.0156 C234.5,230.0156 234.7656,229.875 234.9375,229.6563 C235.0469,229.5 235.0781,229.3125 235.0781,228.8906 L235.0781,227.4688 C235.0781,227.0313 235.0625,226.9063 234.9688,226.75 C234.8125,226.4844 234.5313,226.3438 234.2344,226.3438 C233.9375,226.3438 233.7344,226.4375 233.5156,226.75 L233.3438,226.6719 Z "/><text fill="#000000" font-family="Arial" font-size="11" lengthAdjust="spacingAndGlyphs" textLength="100" x="245" y="234.674">ComputingResource</text><line style="stroke: #919871; stroke-width: 1.5;" x1="217" x2="347" y1="247" y2="247"/><line style="stroke: #919871; stroke-width: 1.5;" x1="217" x2="347" y1="255" y2="255"/><rect fill="#EEEBDC" filter="url(#f1)" height="48" style="stroke: #919871; stroke-width: 1.5;" width="81" x="431" y="215"/><ellipse cx="446" cy="231" fill="#ADD1B2" rx="11" ry="11" style="stroke: #919871; stroke-width: 1.0;"/><path d="M448.3438,226.6719 C447.4063,226.2344 446.8125,226.0938 445.9375,226.0938 C443.3125,226.0938 441.3125,228.1719 441.3125,230.8906 L441.3125,232.0156 C441.3125,234.5938 443.4219,236.4844 446.3125,236.4844 C447.5313,236.4844 448.6875,236.1875 449.4375,235.6406 C450.0156,235.2344 450.3438,234.7813 450.3438,234.3906 C450.3438,233.9375 449.9531,233.5469 449.4844,233.5469 C449.2656,233.5469 449.0625,233.625 448.875,233.8125 C448.4219,234.2969 448.4219,234.2969 448.2344,234.3906 C447.8125,234.6563 447.125,234.7813 446.3594,234.7813 C444.3125,234.7813 443.0156,233.6875 443.0156,231.9844 L443.0156,230.8906 C443.0156,229.1094 444.2656,227.7969 446,227.7969 C446.5781,227.7969 447.1875,227.9531 447.6563,228.2031 C448.1406,228.4844 448.3125,228.7031 448.4063,229.1094 C448.4688,229.5156 448.5,229.6406 448.6406,229.7656 C448.7813,229.9063 449.0156,230.0156 449.2344,230.0156 C449.5,230.0156 449.7656,229.875 449.9375,229.6563 C450.0469,229.5 450.0781,229.3125 450.0781,228.8906 L450.0781,227.4688 C450.0781,227.0313 450.0625,226.9063 449.9688,226.75 C449.8125,226.4844 449.5313,226.3438 449.2344,226.3438 C448.9375,226.3438 448.7344,226.4375 448.5156,226.75 L448.3438,226.6719 Z "/><text fill="#000000" font-family="Arial" font-size="11" lengthAdjust="spacingAndGlyphs" textLength="49" x="460" y="234.674">Scheduler</text><line style="stroke: #919871; stroke-width: 1.5;" x1="432" x2="511" y1="247" y2="247"/><line style="stroke: #919871; stroke-width: 1.5;" x1="432" x2="511" y1="255" y2="255"/><rect fill="#EEEBDC" filter="url(#f1)" height="48" style="stroke: #919871; stroke-width: 1.5;" width="59" x="571" y="214"/><ellipse cx="586" cy="230" fill="#ADD1B2" rx="11" ry="11" style="stroke: #919871; stroke-width: 1.0;"/><path d="M588.3438,225.6719 C587.4063,225.2344 586.8125,225.0938 585.9375,225.0938 C583.3125,225.0938 581.3125,227.1719 581.3125,229.8906 L581.3125,231.0156 C581.3125,233.5938 583.4219,235.4844 586.3125,235.4844 C587.5313,235.4844 588.6875,235.1875 589.4375,234.6406 C590.0156,234.2344 590.3438,233.7813 590.3438,233.3906 C590.3438,232.9375 589.9531,232.5469 589.4844,232.5469 C589.2656,232.5469 589.0625,232.625 588.875,232.8125 C588.4219,233.2969 588.4219,233.2969 588.2344,233.3906 C587.8125,233.6563 587.125,233.7813 586.3594,233.7813 C584.3125,233.7813 583.0156,232.6875 583.0156,230.9844 L583.0156,229.8906 C583.0156,228.1094 584.2656,226.7969 586,226.7969 C586.5781,226.7969 587.1875,226.9531 587.6563,227.2031 C588.1406,227.4844 588.3125,227.7031 588.4063,228.1094 C588.4688,228.5156 588.5,228.6406 588.6406,228.7656 C588.7813,228.9063 589.0156,229.0156 589.2344,229.0156 C589.5,229.0156 589.7656,228.875 589.9375,228.6563 C590.0469,228.5 590.0781,228.3125 590.0781,227.8906 L590.0781,226.4688 C590.0781,226.0313 590.0625,225.9063 589.9688,225.75 C589.8125,225.4844 589.5313,225.3438 589.2344,225.3438 C588.9375,225.3438 588.7344,225.4375 588.5156,225.75 L588.3438,225.6719 Z "/><text fill="#000000" font-family="Arial" font-size="11" lengthAdjust="spacingAndGlyphs" textLength="27" x="600" y="233.674">Entity</text><line style="stroke: #919871; stroke-width: 1.5;" x1="572" x2="629" y1="246" y2="246"/><line style="stroke: #919871; stroke-width: 1.5;" x1="572" x2="629" y1="254" y2="254"/><path d="M280.649,123.322 C234.348,152.646 170.753,192.923 132.115,217.3936 " fill="none" style="stroke: #000000; stroke-width: 1.0;"/><polygon fill="#000000" points="291.726,116.307,284.5169,116.138,281.5881,122.7276,288.7973,122.8966,291.726,116.307" style="stroke: #000000; stroke-width: 1.0;"/><text fill="#000000" font-family="Arial" font-size="11" lengthAdjust="spacingAndGlyphs" textLength="18" x="241" y="158.4829">has</text><text fill="#000000" font-family="Arial" font-size="11" lengthAdjust="spacingAndGlyphs" textLength="6" x="139.9778" y="218.8407">1</text><path d="M322.363,129.442 C312.254,156.883 299.453,191.627 291.01,214.544 " fill="none" style="stroke: #000000; stroke-width: 1.0;"/><polygon fill="#000000" points="326.936,117.03,321.1082,121.277,322.787,128.2899,328.6148,124.043,326.936,117.03" style="stroke: #000000; stroke-width: 1.0;"/><text fill="#000000" font-family="Arial" font-size="11" lengthAdjust="spacingAndGlyphs" textLength="18" x="316" y="158.4829">has</text><text fill="#000000" font-family="Arial" font-size="11" lengthAdjust="spacingAndGlyphs" textLength="6" x="298.0235" y="204.0517">1</text><path d="M373.137,126.857 C397.656,154.67 429.597,190.901 450.44,214.544 " fill="none" style="stroke: #000000; stroke-width: 1.0;"/><polygon fill="#000000" points="364.474,117.03,365.4415,124.1759,372.4098,126.0313,371.4423,118.8854,364.474,117.03" style="stroke: #000000; stroke-width: 1.0;"/><text fill="#000000" font-family="Arial" font-size="11" lengthAdjust="spacingAndGlyphs" textLength="18" x="406" y="158.4829">has</text><text fill="#000000" font-family="Arial" font-size="11" lengthAdjust="spacingAndGlyphs" textLength="6" x="440.8405" y="203.8329">1</text><path d="M384.173,104.61 C429.575,123.057 499.764,154.663 554,193 C557.016,195.132 560.021,197.464 562.966,199.909 " fill="none" style="stroke: #000000; stroke-width: 1.0;"/><polygon fill="none" points="567.858,194.896,577.886,213.562,558.406,205.224,567.858,194.896" style="stroke: #000000; stroke-width: 1.0;"/><text fill="#000000" font-family="Arial" font-size="11" lengthAdjust="spacingAndGlyphs" textLength="55" x="504" y="158.4829">implements</text></g></svg>