<?xml version="1.0" encoding="UTF-8" standalone="yes"?><svg xmlns="http://www.w3.org/2000/svg" xmlns:xlink="http://www.w3.org/1999/xlink" height="243pt" style="width:257px;height:243px;" version="1.1" viewBox="0 0 257 243" width="257pt"><defs><filter height="300%" id="f1" width="300%" x="-1" y="-1"><feGaussianBlur result="blurOut" stdDeviation="2.0"/><feColorMatrix in="blurOut" result="blurOut2" type="matrix" values="0 0 0 0 0 0 0 0 0 0 0 0 0 0 0 0 0 0 .4 0"/><feOffset dx="4.0" dy="4.0" in="blurOut2" result="blurOut3"/><feBlend in="SourceGraphic" in2="blurOut3" mode="normal"/></filter></defs><g><polygon fill="#FFFFFF" filter="url(#f1)" points="22,24,107,24,114,42.6489,250,42.6489,250,236,22,236,22,24" style="stroke: #000000; stroke-width: 2.0;"/><line style="stroke: #000000; stroke-width: 2.0;" x1="22" x2="114" y1="42.6489" y2="42.6489"/><text fill="#000000" font-family="Arial" font-size="11" lengthAdjust="spacingAndGlyphs" textLength="79" x="25" y="37.3179">Terradue::Portal</text><a target="_top" xlink:href="../information/classes/class_terradue_1_1_portal_1_1_entity.html" xlink:title="../information/classes/class_terradue_1_1_portal_1_1_entity.html"><rect fill="#EEEBDC" filter="url(#f1)" height="162.9902" style="stroke: #919871; stroke-width: 1.5;" width="196" x="38" y="56.5"/><ellipse cx="118.25" cy="72.5" fill="#ADD1B2" rx="11" ry="11" style="stroke: #919871; stroke-width: 1.0;"/><path d="M121.2231,78.1431 Q120.6421,78.4419 120.0029,78.5913 Q119.3638,78.7407 118.6582,78.7407 Q116.1514,78.7407 114.8315,77.0889 Q113.5117,75.437 113.5117,72.3159 Q113.5117,69.1865 114.8315,67.5347 Q116.1514,65.8828 118.6582,65.8828 Q119.3638,65.8828 120.0112,66.0322 Q120.6587,66.1816 121.2231,66.4805 L121.2231,69.2031 Q120.5923,68.6221 119.9988,68.3523 Q119.4053,68.0825 118.7744,68.0825 Q117.4297,68.0825 116.7449,69.1492 Q116.0601,70.2158 116.0601,72.3159 Q116.0601,74.4077 116.7449,75.4744 Q117.4297,76.541 118.7744,76.541 Q119.4053,76.541 119.9988,76.2712 Q120.5923,76.0015 121.2231,75.4204 Z "/><text fill="#000000" font-family="Arial" font-size="11" lengthAdjust="spacingAndGlyphs" textLength="27" x="138.75" y="76.4934">Entity</text><line style="stroke: #919871; stroke-width: 1.5;" x1="39" x2="233" y1="88.5" y2="88.5"/><ellipse cx="49" cy="99.5" fill="none" rx="3" ry="3" style="stroke: #038048; stroke-width: 1.0;"/><text fill="#000000" font-family="Arial" font-size="10" lengthAdjust="spacingAndGlyphs" textLength="23" x="58" y="102.1304">Id:int</text><ellipse cx="49" cy="111.5" fill="none" rx="3" ry="3" style="stroke: #038048; stroke-width: 1.0;"/><text fill="#000000" font-family="Arial" font-size="10" lengthAdjust="spacingAndGlyphs" textLength="68" x="58" y="114.1304">Identifier:string</text><ellipse cx="49" cy="123.5" fill="none" rx="3" ry="3" style="stroke: #038048; stroke-width: 1.0;"/><text fill="#000000" font-family="Arial" font-size="10" lengthAdjust="spacingAndGlyphs" textLength="55" x="58" y="126.1304">Name:string</text><line style="stroke: #919871; stroke-width: 1.5;" x1="39" x2="233" y1="130.9971" y2="130.9971"/><ellipse cx="49" cy="141.9971" fill="#84BE84" rx="3" ry="3" style="stroke: #038048; stroke-width: 1.0;"/><text fill="#000000" font-family="Arial" font-size="10" lengthAdjust="spacingAndGlyphs" textLength="30" x="58" y="144.6274">Load()</text><ellipse cx="49" cy="153.9971" fill="#84BE84" rx="3" ry="3" style="stroke: #038048; stroke-width: 1.0;"/><text fill="#000000" font-family="Arial" font-size="10" lengthAdjust="spacingAndGlyphs" textLength="30" x="58" y="156.6274">Load()</text><ellipse cx="49" cy="165.9971" fill="#84BE84" rx="3" ry="3" style="stroke: #038048; stroke-width: 1.0;"/><text fill="#000000" font-family="Arial" font-size="10" lengthAdjust="spacingAndGlyphs" textLength="31" x="58" y="168.6274">Store()</text><ellipse cx="49" cy="177.9971" fill="#84BE84" rx="3" ry="3" style="stroke: #038048; stroke-width: 1.0;"/><text fill="#000000" font-family="Arial" font-size="10" lengthAdjust="spacingAndGlyphs" textLength="105" x="58" y="180.6274">StoreGlobalPrivileges()</text><ellipse cx="49" cy="189.9971" fill="#84BE84" rx="3" ry="3" style="stroke: #038048; stroke-width: 1.0;"/><text fill="#000000" font-family="Arial" font-size="10" lengthAdjust="spacingAndGlyphs" textLength="118" x="58" y="192.6274">RemoveGlobalPrivileges()</text><ellipse cx="49" cy="201.9971" fill="#84BE84" rx="3" ry="3" style="stroke: #038048; stroke-width: 1.0;"/><text fill="#000000" font-family="Arial" font-size="10" lengthAdjust="spacingAndGlyphs" textLength="36" x="58" y="204.6274">Delete()</text><ellipse cx="49" cy="213.9971" fill="#84BE84" rx="3" ry="3" style="stroke: #038048; stroke-width: 1.0;"/><text fill="#000000" font-family="Arial" font-size="10" lengthAdjust="spacingAndGlyphs" textLength="170" x="58" y="216.6274">GetAllowedAdministratorOperations()</text></a></g></svg>