<?xml version="1.0" encoding="UTF-8" standalone="yes"?><svg xmlns="http://www.w3.org/2000/svg" xmlns:xlink="http://www.w3.org/1999/xlink" height="139pt" style="width:248px;height:139px;" version="1.1" viewBox="0 0 248 139" width="248pt"><defs><filter height="300%" id="f1" width="300%" x="-1" y="-1"><feGaussianBlur result="blurOut" stdDeviation="2.0"/><feColorMatrix in="blurOut" result="blurOut2" type="matrix" values="0 0 0 0 0 0 0 0 0 0 0 0 0 0 0 0 0 0 .4 0"/><feOffset dx="4.0" dy="4.0" in="blurOut2" result="blurOut3"/><feBlend in="SourceGraphic" in2="blurOut3" mode="normal"/></filter></defs><g><polygon fill="#FFFFFF" filter="url(#f1)" points="22,24,230,24,237,42.6489,241,42.6489,241,132,22,132,22,24" style="stroke: #000000; stroke-width: 2.0;"/><line style="stroke: #000000; stroke-width: 2.0;" x1="22" x2="237" y1="42.6489" y2="42.6489"/><text fill="#000000" font-family="Arial" font-size="11" lengthAdjust="spacingAndGlyphs" textLength="202" x="25" y="37.3179">Terradue::ServiceModel::Ogc::OwsModel</text><a target="_top" xlink:href="../information/classes/class_terradue_1_1_service_model_1_1_ogc_1_1_ows_model_1_1_owc_operation.html" xlink:title="../information/classes/class_terradue_1_1_service_model_1_1_ogc_1_1_ows_model_1_1_owc_operation.html"><rect fill="#EEEBDC" filter="url(#f1)" height="59.499" style="stroke: #919871; stroke-width: 1.5;" width="103" x="79.75" y="56.5"/><ellipse cx="94.75" cy="72.5" fill="#ADD1B2" rx="11" ry="11" style="stroke: #919871; stroke-width: 1.0;"/><path d="M97.7231,78.1431 Q97.1421,78.4419 96.5029,78.5913 Q95.8638,78.7407 95.1582,78.7407 Q92.6514,78.7407 91.3315,77.0889 Q90.0117,75.437 90.0117,72.3159 Q90.0117,69.1865 91.3315,67.5347 Q92.6514,65.8828 95.1582,65.8828 Q95.8638,65.8828 96.5112,66.0322 Q97.1587,66.1816 97.7231,66.4805 L97.7231,69.2031 Q97.0923,68.6221 96.4988,68.3523 Q95.9053,68.0825 95.2744,68.0825 Q93.9297,68.0825 93.2449,69.1492 Q92.5601,70.2158 92.5601,72.3159 Q92.5601,74.4077 93.2449,75.4744 Q93.9297,76.541 95.2744,76.541 Q95.9053,76.541 96.4988,76.2712 Q97.0923,76.0015 97.7231,75.4204 Z "/><text fill="#000000" font-family="Arial" font-size="11" lengthAdjust="spacingAndGlyphs" textLength="71" x="108.75" y="76.4934">OwcOperation</text><line style="stroke: #919871; stroke-width: 1.5;" x1="80.75" x2="181.75" y1="88.5" y2="88.5"/><ellipse cx="90.75" cy="99.5" fill="none" rx="3" ry="3" style="stroke: #038048; stroke-width: 1.0;"/><text fill="#000000" font-family="Arial" font-size="10" lengthAdjust="spacingAndGlyphs" textLength="74" x="99.75" y="102.1304">RequestURL:Uri</text><line style="stroke: #919871; stroke-width: 1.5;" x1="80.75" x2="181.75" y1="107.999" y2="107.999"/></a></g></svg>