<?xml version="1.0" encoding="UTF-8" standalone="yes"?><svg xmlns="http://www.w3.org/2000/svg" xmlns:xlink="http://www.w3.org/1999/xlink" height="294pt" style="width:487px;height:294px;" version="1.1" viewBox="0 0 487 294" width="487pt"><defs><filter height="300%" id="f1" width="300%" x="-1" y="-1"><feGaussianBlur result="blurOut" stdDeviation="2.0"/><feColorMatrix in="blurOut" result="blurOut2" type="matrix" values="0 0 0 0 0 0 0 0 0 0 0 0 0 0 0 0 0 0 .4 0"/><feOffset dx="4.0" dy="4.0" in="blurOut2" result="blurOut3"/><feBlend in="SourceGraphic" in2="blurOut3" mode="normal"/></filter></defs><g><polygon fill="#FFFFFF" filter="url(#f1)" points="22,24,107,24,114,43.6179,480,43.6179,480,287,22,287,22,24" style="stroke: #000000; stroke-width: 2.0;"/><line style="stroke: #000000; stroke-width: 2.0;" x1="22" x2="114" y1="43.6179" y2="43.6179"/><text fill="#000000" font-family="Arial" font-size="11" lengthAdjust="spacingAndGlyphs" textLength="79" x="25" y="37.4829">Terradue::Portal</text><a target="_top" xlink:href="../information/classes/class_terradue_1_1_portal_1_1_scheduler_run_configuration.html" xlink:title="../information/classes/class_terradue_1_1_portal_1_1_scheduler_run_configuration.html"><rect fill="#EEEBDC" filter="url(#f1)" height="48" style="stroke: #919871; stroke-width: 1.5;" width="165" x="150" y="57"/><ellipse cx="165" cy="73" fill="#ADD1B2" rx="11" ry="11" style="stroke: #919871; stroke-width: 1.0;"/><path d="M167.3438,68.6719 C166.4063,68.2344 165.8125,68.0938 164.9375,68.0938 C162.3125,68.0938 160.3125,70.1719 160.3125,72.8906 L160.3125,74.0156 C160.3125,76.5938 162.4219,78.4844 165.3125,78.4844 C166.5313,78.4844 167.6875,78.1875 168.4375,77.6406 C169.0156,77.2344 169.3438,76.7813 169.3438,76.3906 C169.3438,75.9375 168.9531,75.5469 168.4844,75.5469 C168.2656,75.5469 168.0625,75.625 167.875,75.8125 C167.4219,76.2969 167.4219,76.2969 167.2344,76.3906 C166.8125,76.6563 166.125,76.7813 165.3594,76.7813 C163.3125,76.7813 162.0156,75.6875 162.0156,73.9844 L162.0156,72.8906 C162.0156,71.1094 163.2656,69.7969 165,69.7969 C165.5781,69.7969 166.1875,69.9531 166.6563,70.2031 C167.1406,70.4844 167.3125,70.7031 167.4063,71.1094 C167.4688,71.5156 167.5,71.6406 167.6406,71.7656 C167.7813,71.9063 168.0156,72.0156 168.2344,72.0156 C168.5,72.0156 168.7656,71.875 168.9375,71.6563 C169.0469,71.5 169.0781,71.3125 169.0781,70.8906 L169.0781,69.4688 C169.0781,69.0313 169.0625,68.9063 168.9688,68.75 C168.8125,68.4844 168.5313,68.3438 168.2344,68.3438 C167.9375,68.3438 167.7344,68.4375 167.5156,68.75 L167.3438,68.6719 Z "/><text fill="#000000" font-family="Arial" font-size="11" lengthAdjust="spacingAndGlyphs" textLength="133" x="179" y="76.674">SchedulerRunConfiguration</text><line style="stroke: #919871; stroke-width: 1.5;" x1="151" x2="314" y1="89" y2="89"/><line style="stroke: #919871; stroke-width: 1.5;" x1="151" x2="314" y1="97" y2="97"/></a><rect fill="#EEEBDC" filter="url(#f1)" height="48" style="stroke: #919871; stroke-width: 1.5;" width="81" x="63" y="203"/><ellipse cx="78" cy="219" fill="#ADD1B2" rx="11" ry="11" style="stroke: #919871; stroke-width: 1.0;"/><path d="M80.3438,214.6719 C79.4063,214.2344 78.8125,214.0938 77.9375,214.0938 C75.3125,214.0938 73.3125,216.1719 73.3125,218.8906 L73.3125,220.0156 C73.3125,222.5938 75.4219,224.4844 78.3125,224.4844 C79.5313,224.4844 80.6875,224.1875 81.4375,223.6406 C82.0156,223.2344 82.3438,222.7813 82.3438,222.3906 C82.3438,221.9375 81.9531,221.5469 81.4844,221.5469 C81.2656,221.5469 81.0625,221.625 80.875,221.8125 C80.4219,222.2969 80.4219,222.2969 80.2344,222.3906 C79.8125,222.6563 79.125,222.7813 78.3594,222.7813 C76.3125,222.7813 75.0156,221.6875 75.0156,219.9844 L75.0156,218.8906 C75.0156,217.1094 76.2656,215.7969 78,215.7969 C78.5781,215.7969 79.1875,215.9531 79.6563,216.2031 C80.1406,216.4844 80.3125,216.7031 80.4063,217.1094 C80.4688,217.5156 80.5,217.6406 80.6406,217.7656 C80.7813,217.9063 81.0156,218.0156 81.2344,218.0156 C81.5,218.0156 81.7656,217.875 81.9375,217.6563 C82.0469,217.5 82.0781,217.3125 82.0781,216.8906 L82.0781,215.4688 C82.0781,215.0313 82.0625,214.9063 81.9688,214.75 C81.8125,214.4844 81.5313,214.3438 81.2344,214.3438 C80.9375,214.3438 80.7344,214.4375 80.5156,214.75 L80.3438,214.6719 Z "/><text fill="#000000" font-family="Arial" font-size="11" lengthAdjust="spacingAndGlyphs" textLength="49" x="92" y="222.674">Scheduler</text><line style="stroke: #919871; stroke-width: 1.5;" x1="64" x2="143" y1="235" y2="235"/><line style="stroke: #919871; stroke-width: 1.5;" x1="64" x2="143" y1="243" y2="243"/><rect fill="#EEEBDC" filter="url(#f1)" height="48" style="stroke: #919871; stroke-width: 1.5;" width="59" x="203" y="202"/><ellipse cx="218" cy="218" fill="#ADD1B2" rx="11" ry="11" style="stroke: #919871; stroke-width: 1.0;"/><path d="M220.3438,213.6719 C219.4063,213.2344 218.8125,213.0938 217.9375,213.0938 C215.3125,213.0938 213.3125,215.1719 213.3125,217.8906 L213.3125,219.0156 C213.3125,221.5938 215.4219,223.4844 218.3125,223.4844 C219.5313,223.4844 220.6875,223.1875 221.4375,222.6406 C222.0156,222.2344 222.3438,221.7813 222.3438,221.3906 C222.3438,220.9375 221.9531,220.5469 221.4844,220.5469 C221.2656,220.5469 221.0625,220.625 220.875,220.8125 C220.4219,221.2969 220.4219,221.2969 220.2344,221.3906 C219.8125,221.6563 219.125,221.7813 218.3594,221.7813 C216.3125,221.7813 215.0156,220.6875 215.0156,218.9844 L215.0156,217.8906 C215.0156,216.1094 216.2656,214.7969 218,214.7969 C218.5781,214.7969 219.1875,214.9531 219.6563,215.2031 C220.1406,215.4844 220.3125,215.7031 220.4063,216.1094 C220.4688,216.5156 220.5,216.6406 220.6406,216.7656 C220.7813,216.9063 221.0156,217.0156 221.2344,217.0156 C221.5,217.0156 221.7656,216.875 221.9375,216.6563 C222.0469,216.5 222.0781,216.3125 222.0781,215.8906 L222.0781,214.4688 C222.0781,214.0313 222.0625,213.9063 221.9688,213.75 C221.8125,213.4844 221.5313,213.3438 221.2344,213.3438 C220.9375,213.3438 220.7344,213.4375 220.5156,213.75 L220.3438,213.6719 Z "/><text fill="#000000" font-family="Arial" font-size="11" lengthAdjust="spacingAndGlyphs" textLength="27" x="232" y="221.674">Entity</text><line style="stroke: #919871; stroke-width: 1.5;" x1="204" x2="261" y1="234" y2="234"/><line style="stroke: #919871; stroke-width: 1.5;" x1="204" x2="261" y1="242" y2="242"/><rect fill="#EEEBDC" filter="url(#f1)" height="48" style="stroke: #919871; stroke-width: 1.5;" width="168" x="296" y="202"/><ellipse cx="311" cy="218" fill="#ADD1B2" rx="11" ry="11" style="stroke: #919871; stroke-width: 1.0;"/><path d="M313.3438,213.6719 C312.4063,213.2344 311.8125,213.0938 310.9375,213.0938 C308.3125,213.0938 306.3125,215.1719 306.3125,217.8906 L306.3125,219.0156 C306.3125,221.5938 308.4219,223.4844 311.3125,223.4844 C312.5313,223.4844 313.6875,223.1875 314.4375,222.6406 C315.0156,222.2344 315.3438,221.7813 315.3438,221.3906 C315.3438,220.9375 314.9531,220.5469 314.4844,220.5469 C314.2656,220.5469 314.0625,220.625 313.875,220.8125 C313.4219,221.2969 313.4219,221.2969 313.2344,221.3906 C312.8125,221.6563 312.125,221.7813 311.3594,221.7813 C309.3125,221.7813 308.0156,220.6875 308.0156,218.9844 L308.0156,217.8906 C308.0156,216.1094 309.2656,214.7969 311,214.7969 C311.5781,214.7969 312.1875,214.9531 312.6563,215.2031 C313.1406,215.4844 313.3125,215.7031 313.4063,216.1094 C313.4688,216.5156 313.5,216.6406 313.6406,216.7656 C313.7813,216.9063 314.0156,217.0156 314.2344,217.0156 C314.5,217.0156 314.7656,216.875 314.9375,216.6563 C315.0469,216.5 315.0781,216.3125 315.0781,215.8906 L315.0781,214.4688 C315.0781,214.0313 315.0625,213.9063 314.9688,213.75 C314.8125,213.4844 314.5313,213.3438 314.2344,213.3438 C313.9375,213.3438 313.7344,213.4375 313.5156,213.75 L313.3438,213.6719 Z "/><text fill="#000000" font-family="Arial" font-size="11" lengthAdjust="spacingAndGlyphs" textLength="136" x="325" y="221.674">ISchedulerRunConfiguration</text><line style="stroke: #919871; stroke-width: 1.5;" x1="297" x2="463" y1="234" y2="234"/><line style="stroke: #919871; stroke-width: 1.5;" x1="297" x2="463" y1="242" y2="242"/><path d="M202.286,114.892 C178.667,141.832 146.209,178.855 125.168,202.855 " fill="none" style="stroke: #000000; stroke-width: 1.0;"/><polygon fill="#000000" points="210.863,105.109,203.8999,106.9839,202.9525,114.1325,209.9156,112.2576,210.863,105.109" style="stroke: #000000; stroke-width: 1.0;"/><text fill="#000000" font-family="Arial" font-size="11" lengthAdjust="spacingAndGlyphs" textLength="18" x="185" y="146.4829">has</text><text fill="#000000" font-family="Arial" font-size="11" lengthAdjust="spacingAndGlyphs" textLength="6" x="142.0019" y="191.8493">1</text><path d="M232,105.27 C232,125.972 232,156.276 232,181.343 " fill="none" style="stroke: #000000; stroke-width: 1.0;"/><polygon fill="none" points="239,181.651,232,201.651,225,181.651,239,181.651" style="stroke: #000000; stroke-width: 1.0;"/><text fill="#000000" font-family="Arial" font-size="11" lengthAdjust="spacingAndGlyphs" textLength="55" x="233" y="146.4829">implements</text><path d="M263.384,105.069 C274.622,114.1 287.178,124.682 298,135 C314.942,151.153 332.474,170.238 346.957,186.748 " fill="none" style="stroke: #000000; stroke-width: 1.0;"/><polygon fill="none" points="352.268,182.188,360.039,201.902,341.671,191.337,352.268,182.188" style="stroke: #000000; stroke-width: 1.0;"/><text fill="#000000" font-family="Arial" font-size="11" lengthAdjust="spacingAndGlyphs" textLength="55" x="313" y="146.4829">implements</text></g></svg>