<?xml version="1.0" encoding="UTF-8" standalone="yes"?><svg xmlns="http://www.w3.org/2000/svg" xmlns:xlink="http://www.w3.org/1999/xlink" height="352pt" style="width:646px;height:352px;" version="1.1" viewBox="0 0 646 352" width="646pt"><defs><filter height="300%" id="f1" width="300%" x="-1" y="-1"><feGaussianBlur result="blurOut" stdDeviation="2.0"/><feColorMatrix in="blurOut" result="blurOut2" type="matrix" values="0 0 0 0 0 0 0 0 0 0 0 0 0 0 0 0 0 0 .4 0"/><feOffset dx="4.0" dy="4.0" in="blurOut2" result="blurOut3"/><feBlend in="SourceGraphic" in2="blurOut3" mode="normal"/></filter></defs><g><polygon fill="#FFFFFF" filter="url(#f1)" points="22,24,107,24,114,43.6179,639,43.6179,639,345,22,345,22,24" style="stroke: #000000; stroke-width: 2.0;"/><line style="stroke: #000000; stroke-width: 2.0;" x1="22" x2="114" y1="43.6179" y2="43.6179"/><text fill="#000000" font-family="Arial" font-size="11" lengthAdjust="spacingAndGlyphs" textLength="79" x="25" y="37.4829">Terradue::Portal</text><a target="_top" xlink:href="../information/classes/class_terradue_1_1_portal_1_1_computing_resource.html" xlink:title="../information/classes/class_terradue_1_1_portal_1_1_computing_resource.html"><rect fill="#EEEBDC" filter="url(#f1)" height="147.0399" style="stroke: #919871; stroke-width: 1.5;" width="132" x="275" y="57.5"/><ellipse cx="290" cy="73.5" fill="#ADD1B2" rx="11" ry="11" style="stroke: #919871; stroke-width: 1.0;"/><path d="M292.3438,69.1719 C291.4063,68.7344 290.8125,68.5938 289.9375,68.5938 C287.3125,68.5938 285.3125,70.6719 285.3125,73.3906 L285.3125,74.5156 C285.3125,77.0938 287.4219,78.9844 290.3125,78.9844 C291.5313,78.9844 292.6875,78.6875 293.4375,78.1406 C294.0156,77.7344 294.3438,77.2813 294.3438,76.8906 C294.3438,76.4375 293.9531,76.0469 293.4844,76.0469 C293.2656,76.0469 293.0625,76.125 292.875,76.3125 C292.4219,76.7969 292.4219,76.7969 292.2344,76.8906 C291.8125,77.1563 291.125,77.2813 290.3594,77.2813 C288.3125,77.2813 287.0156,76.1875 287.0156,74.4844 L287.0156,73.3906 C287.0156,71.6094 288.2656,70.2969 290,70.2969 C290.5781,70.2969 291.1875,70.4531 291.6563,70.7031 C292.1406,70.9844 292.3125,71.2031 292.4063,71.6094 C292.4688,72.0156 292.5,72.1406 292.6406,72.2656 C292.7813,72.4063 293.0156,72.5156 293.2344,72.5156 C293.5,72.5156 293.7656,72.375 293.9375,72.1563 C294.0469,72 294.0781,71.8125 294.0781,71.3906 L294.0781,69.9688 C294.0781,69.5313 294.0625,69.4063 293.9688,69.25 C293.8125,68.9844 293.5313,68.8438 293.2344,68.8438 C292.9375,68.8438 292.7344,68.9375 292.5156,69.25 L292.3438,69.1719 Z "/><text fill="#000000" font-family="Arial" font-size="11" lengthAdjust="spacingAndGlyphs" textLength="100" x="304" y="77.174">ComputingResource</text><line style="stroke: #919871; stroke-width: 1.5;" x1="276" x2="406" y1="89.5" y2="89.5"/><ellipse cx="286" cy="100.69" fill="none" rx="3" ry="3" style="stroke: #038048; stroke-width: 1.0;"/><text fill="#000000" font-family="Arial" font-size="10" lengthAdjust="spacingAndGlyphs" textLength="73" x="295" y="103.03">IsAvailable:bool</text><ellipse cx="286" cy="113.07" fill="none" rx="3" ry="3" style="stroke: #038048; stroke-width: 1.0;"/><text fill="#000000" font-family="Arial" font-size="10" lengthAdjust="spacingAndGlyphs" textLength="79" x="295" y="115.41">Description:string</text><ellipse cx="286" cy="125.45" fill="none" rx="3" ry="3" style="stroke: #038048; stroke-width: 1.0;"/><text fill="#000000" font-family="Arial" font-size="10" lengthAdjust="spacingAndGlyphs" textLength="75" x="295" y="127.79">Hostname:string</text><ellipse cx="286" cy="137.83" fill="none" rx="3" ry="3" style="stroke: #038048; stroke-width: 1.0;"/><text fill="#000000" font-family="Arial" font-size="10" lengthAdjust="spacingAndGlyphs" textLength="73" x="295" y="140.17">MaxCapacity:int</text><ellipse cx="286" cy="150.2099" fill="none" rx="3" ry="3" style="stroke: #038048; stroke-width: 1.0;"/><text fill="#000000" font-family="Arial" font-size="10" lengthAdjust="spacingAndGlyphs" textLength="77" x="295" y="152.5499">TotalCapacity:int</text><ellipse cx="286" cy="162.5899" fill="none" rx="3" ry="3" style="stroke: #038048; stroke-width: 1.0;"/><text fill="#000000" font-family="Arial" font-size="10" lengthAdjust="spacingAndGlyphs" textLength="75" x="295" y="164.9299">FreeCapacity:int</text><ellipse cx="286" cy="174.9699" fill="none" rx="3" ry="3" style="stroke: #038048; stroke-width: 1.0;"/><text fill="#000000" font-family="Arial" font-size="10" lengthAdjust="spacingAndGlyphs" textLength="104" x="295" y="177.3099">UserCreditControl:bool</text><line style="stroke: #919871; stroke-width: 1.5;" x1="276" x2="406" y1="184.1599" y2="184.1599"/><ellipse cx="286" cy="195.3499" fill="#84BE84" rx="3" ry="3" style="stroke: #038048; stroke-width: 1.0;"/><text fill="#000000" font-family="Arial" font-size="10" lengthAdjust="spacingAndGlyphs" textLength="53" x="295" y="197.6899">GetStatus()</text></a><rect fill="#EEEBDC" filter="url(#f1)" height="48" style="stroke: #919871; stroke-width: 1.5;" width="158" x="38" y="281"/><ellipse cx="53" cy="297" fill="#ADD1B2" rx="11" ry="11" style="stroke: #919871; stroke-width: 1.0;"/><path d="M55.3438,292.6719 C54.4063,292.2344 53.8125,292.0938 52.9375,292.0938 C50.3125,292.0938 48.3125,294.1719 48.3125,296.8906 L48.3125,298.0156 C48.3125,300.5938 50.4219,302.4844 53.3125,302.4844 C54.5313,302.4844 55.6875,302.1875 56.4375,301.6406 C57.0156,301.2344 57.3438,300.7813 57.3438,300.3906 C57.3438,299.9375 56.9531,299.5469 56.4844,299.5469 C56.2656,299.5469 56.0625,299.625 55.875,299.8125 C55.4219,300.2969 55.4219,300.2969 55.2344,300.3906 C54.8125,300.6563 54.125,300.7813 53.3594,300.7813 C51.3125,300.7813 50.0156,299.6875 50.0156,297.9844 L50.0156,296.8906 C50.0156,295.1094 51.2656,293.7969 53,293.7969 C53.5781,293.7969 54.1875,293.9531 54.6563,294.2031 C55.1406,294.4844 55.3125,294.7031 55.4063,295.1094 C55.4688,295.5156 55.5,295.6406 55.6406,295.7656 C55.7813,295.9063 56.0156,296.0156 56.2344,296.0156 C56.5,296.0156 56.7656,295.875 56.9375,295.6563 C57.0469,295.5 57.0781,295.3125 57.0781,294.8906 L57.0781,293.4688 C57.0781,293.0313 57.0625,292.9063 56.9688,292.75 C56.8125,292.4844 56.5313,292.3438 56.2344,292.3438 C55.9375,292.3438 55.7344,292.4375 55.5156,292.75 L55.3438,292.6719 Z "/><text fill="#000000" font-family="Arial" font-size="11" lengthAdjust="spacingAndGlyphs" textLength="126" x="67" y="300.674">GlobusComputingElement</text><line style="stroke: #919871; stroke-width: 1.5;" x1="39" x2="195" y1="313" y2="313"/><line style="stroke: #919871; stroke-width: 1.5;" x1="39" x2="195" y1="321" y2="321"/><rect fill="#EEEBDC" filter="url(#f1)" height="48" style="stroke: #919871; stroke-width: 1.5;" width="95" x="231" y="281"/><ellipse cx="246" cy="297" fill="#ADD1B2" rx="11" ry="11" style="stroke: #919871; stroke-width: 1.0;"/><path d="M248.3438,292.6719 C247.4063,292.2344 246.8125,292.0938 245.9375,292.0938 C243.3125,292.0938 241.3125,294.1719 241.3125,296.8906 L241.3125,298.0156 C241.3125,300.5938 243.4219,302.4844 246.3125,302.4844 C247.5313,302.4844 248.6875,302.1875 249.4375,301.6406 C250.0156,301.2344 250.3438,300.7813 250.3438,300.3906 C250.3438,299.9375 249.9531,299.5469 249.4844,299.5469 C249.2656,299.5469 249.0625,299.625 248.875,299.8125 C248.4219,300.2969 248.4219,300.2969 248.2344,300.3906 C247.8125,300.6563 247.125,300.7813 246.3594,300.7813 C244.3125,300.7813 243.0156,299.6875 243.0156,297.9844 L243.0156,296.8906 C243.0156,295.1094 244.2656,293.7969 246,293.7969 C246.5781,293.7969 247.1875,293.9531 247.6563,294.2031 C248.1406,294.4844 248.3125,294.7031 248.4063,295.1094 C248.4688,295.5156 248.5,295.6406 248.6406,295.7656 C248.7813,295.9063 249.0156,296.0156 249.2344,296.0156 C249.5,296.0156 249.7656,295.875 249.9375,295.6563 C250.0469,295.5 250.0781,295.3125 250.0781,294.8906 L250.0781,293.4688 C250.0781,293.0313 250.0625,292.9063 249.9688,292.75 C249.8125,292.4844 249.5313,292.3438 249.2344,292.3438 C248.9375,292.3438 248.7344,292.4375 248.5156,292.75 L248.3438,292.6719 Z "/><text fill="#000000" font-family="Arial" font-size="11" lengthAdjust="spacingAndGlyphs" textLength="63" x="260" y="300.674">WpsProvider</text><line style="stroke: #919871; stroke-width: 1.5;" x1="232" x2="325" y1="313" y2="313"/><line style="stroke: #919871; stroke-width: 1.5;" x1="232" x2="325" y1="321" y2="321"/><rect fill="#EEEBDC" filter="url(#f1)" height="48" style="stroke: #919871; stroke-width: 1.5;" width="171" x="360" y="281"/><ellipse cx="375" cy="297" fill="#ADD1B2" rx="11" ry="11" style="stroke: #919871; stroke-width: 1.0;"/><path d="M377.3438,292.6719 C376.4063,292.2344 375.8125,292.0938 374.9375,292.0938 C372.3125,292.0938 370.3125,294.1719 370.3125,296.8906 L370.3125,298.0156 C370.3125,300.5938 372.4219,302.4844 375.3125,302.4844 C376.5313,302.4844 377.6875,302.1875 378.4375,301.6406 C379.0156,301.2344 379.3438,300.7813 379.3438,300.3906 C379.3438,299.9375 378.9531,299.5469 378.4844,299.5469 C378.2656,299.5469 378.0625,299.625 377.875,299.8125 C377.4219,300.2969 377.4219,300.2969 377.2344,300.3906 C376.8125,300.6563 376.125,300.7813 375.3594,300.7813 C373.3125,300.7813 372.0156,299.6875 372.0156,297.9844 L372.0156,296.8906 C372.0156,295.1094 373.2656,293.7969 375,293.7969 C375.5781,293.7969 376.1875,293.9531 376.6563,294.2031 C377.1406,294.4844 377.3125,294.7031 377.4063,295.1094 C377.4688,295.5156 377.5,295.6406 377.6406,295.7656 C377.7813,295.9063 378.0156,296.0156 378.2344,296.0156 C378.5,296.0156 378.7656,295.875 378.9375,295.6563 C379.0469,295.5 379.0781,295.3125 379.0781,294.8906 L379.0781,293.4688 C379.0781,293.0313 379.0625,292.9063 378.9688,292.75 C378.8125,292.4844 378.5313,292.3438 378.2344,292.3438 C377.9375,292.3438 377.7344,292.4375 377.5156,292.75 L377.3438,292.6719 Z "/><text fill="#000000" font-family="Arial" font-size="11" lengthAdjust="spacingAndGlyphs" textLength="139" x="389" y="300.674">GenericComputingResource</text><line style="stroke: #919871; stroke-width: 1.5;" x1="361" x2="530" y1="313" y2="313"/><line style="stroke: #919871; stroke-width: 1.5;" x1="361" x2="530" y1="321" y2="321"/><rect fill="#EEEBDC" filter="url(#f1)" height="48" style="stroke: #919871; stroke-width: 1.5;" width="59" x="565" y="281"/><ellipse cx="580" cy="297" fill="#ADD1B2" rx="11" ry="11" style="stroke: #919871; stroke-width: 1.0;"/><path d="M582.3438,292.6719 C581.4063,292.2344 580.8125,292.0938 579.9375,292.0938 C577.3125,292.0938 575.3125,294.1719 575.3125,296.8906 L575.3125,298.0156 C575.3125,300.5938 577.4219,302.4844 580.3125,302.4844 C581.5313,302.4844 582.6875,302.1875 583.4375,301.6406 C584.0156,301.2344 584.3438,300.7813 584.3438,300.3906 C584.3438,299.9375 583.9531,299.5469 583.4844,299.5469 C583.2656,299.5469 583.0625,299.625 582.875,299.8125 C582.4219,300.2969 582.4219,300.2969 582.2344,300.3906 C581.8125,300.6563 581.125,300.7813 580.3594,300.7813 C578.3125,300.7813 577.0156,299.6875 577.0156,297.9844 L577.0156,296.8906 C577.0156,295.1094 578.2656,293.7969 580,293.7969 C580.5781,293.7969 581.1875,293.9531 581.6563,294.2031 C582.1406,294.4844 582.3125,294.7031 582.4063,295.1094 C582.4688,295.5156 582.5,295.6406 582.6406,295.7656 C582.7813,295.9063 583.0156,296.0156 583.2344,296.0156 C583.5,296.0156 583.7656,295.875 583.9375,295.6563 C584.0469,295.5 584.0781,295.3125 584.0781,294.8906 L584.0781,293.4688 C584.0781,293.0313 584.0625,292.9063 583.9688,292.75 C583.8125,292.4844 583.5313,292.3438 583.2344,292.3438 C582.9375,292.3438 582.7344,292.4375 582.5156,292.75 L582.3438,292.6719 Z "/><text fill="#000000" font-family="Arial" font-size="11" lengthAdjust="spacingAndGlyphs" textLength="27" x="594" y="300.674">Entity</text><line style="stroke: #919871; stroke-width: 1.5;" x1="566" x2="623" y1="313" y2="313"/><line style="stroke: #919871; stroke-width: 1.5;" x1="566" x2="623" y1="321" y2="321"/><path d="M274.702,182.499 C239.162,210.107 196.211,243.47 164.113,268.4033 " fill="none" style="stroke: #000000; stroke-width: 1.0;"/><polygon fill="none" points="168.054,274.2061,147.965,280.947,159.465,263.1498,168.054,274.2061" style="stroke: #000000; stroke-width: 1.0;"/><text fill="#000000" font-family="Arial" font-size="11" lengthAdjust="spacingAndGlyphs" textLength="55" x="204" y="246.4829">implements</text><path d="M314.374,204.539 C307.316,224.032 299.924,244.449 293.661,261.7471 " fill="none" style="stroke: #000000; stroke-width: 1.0;"/><polygon fill="none" points="300.188,264.2801,286.797,280.7023,287.024,259.514,300.188,264.2801" style="stroke: #000000; stroke-width: 1.0;"/><text fill="#000000" font-family="Arial" font-size="11" lengthAdjust="spacingAndGlyphs" textLength="55" x="304" y="246.4829">implements</text><path d="M384.955,204.539 C396.988,224.672 409.61,245.789 420.159,263.4384 " fill="none" style="stroke: #000000; stroke-width: 1.0;"/><polygon fill="none" points="426.225,259.944,430.477,280.7023,414.208,267.1264,426.225,259.944" style="stroke: #000000; stroke-width: 1.0;"/><text fill="#000000" font-family="Arial" font-size="11" lengthAdjust="spacingAndGlyphs" textLength="55" x="412" y="246.4829">implements</text><path d="M407.142,176.489 C451.453,206.964 508.669,246.314 548.05,273.3983 " fill="none" style="stroke: #000000; stroke-width: 1.0;"/><polygon fill="none" points="552.267,267.8026,564.779,284.9036,544.334,279.3378,552.267,267.8026" style="stroke: #000000; stroke-width: 1.0;"/><text fill="#000000" font-family="Arial" font-size="11" lengthAdjust="spacingAndGlyphs" textLength="55" x="513" y="246.4829">implements</text></g></svg>