<?xml version="1.0" encoding="UTF-8" standalone="yes"?><svg xmlns="http://www.w3.org/2000/svg" xmlns:xlink="http://www.w3.org/1999/xlink" height="332pt" style="width:419px;height:332px;" version="1.1" viewBox="0 0 419 332" width="419pt"><defs><filter height="300%" id="f1" width="300%" x="-1" y="-1"><feGaussianBlur result="blurOut" stdDeviation="2.0"/><feColorMatrix in="blurOut" result="blurOut2" type="matrix" values="0 0 0 0 0 0 0 0 0 0 0 0 0 0 0 0 0 0 .4 0"/><feOffset dx="4.0" dy="4.0" in="blurOut2" result="blurOut3"/><feBlend in="SourceGraphic" in2="blurOut3" mode="normal"/></filter></defs><g><polygon fill="#FFFFFF" filter="url(#f1)" points="22,24,107,24,114,43.6179,412,43.6179,412,325,22,325,22,24" style="stroke: #000000; stroke-width: 2.0;"/><line style="stroke: #000000; stroke-width: 2.0;" x1="22" x2="114" y1="43.6179" y2="43.6179"/><text fill="#000000" font-family="Arial" font-size="11" lengthAdjust="spacingAndGlyphs" textLength="79" x="25" y="37.4829">Terradue::Portal</text><a target="_top" xlink:href="../information/classes/class_terradue_1_1_portal_1_1_series.html" xlink:title="../information/classes/class_terradue_1_1_portal_1_1_series.html"><rect fill="#EEEBDC" filter="url(#f1)" height="85.14" style="stroke: #919871; stroke-width: 1.5;" width="184" x="148" y="57.5"/><ellipse cx="220.25" cy="73.5" fill="#ADD1B2" rx="11" ry="11" style="stroke: #919871; stroke-width: 1.0;"/><path d="M222.5938,69.1719 C221.6563,68.7344 221.0625,68.5938 220.1875,68.5938 C217.5625,68.5938 215.5625,70.6719 215.5625,73.3906 L215.5625,74.5156 C215.5625,77.0938 217.6719,78.9844 220.5625,78.9844 C221.7813,78.9844 222.9375,78.6875 223.6875,78.1406 C224.2656,77.7344 224.5938,77.2813 224.5938,76.8906 C224.5938,76.4375 224.2031,76.0469 223.7344,76.0469 C223.5156,76.0469 223.3125,76.125 223.125,76.3125 C222.6719,76.7969 222.6719,76.7969 222.4844,76.8906 C222.0625,77.1563 221.375,77.2813 220.6094,77.2813 C218.5625,77.2813 217.2656,76.1875 217.2656,74.4844 L217.2656,73.3906 C217.2656,71.6094 218.5156,70.2969 220.25,70.2969 C220.8281,70.2969 221.4375,70.4531 221.9063,70.7031 C222.3906,70.9844 222.5625,71.2031 222.6563,71.6094 C222.7188,72.0156 222.75,72.1406 222.8906,72.2656 C223.0313,72.4063 223.2656,72.5156 223.4844,72.5156 C223.75,72.5156 224.0156,72.375 224.1875,72.1563 C224.2969,72 224.3281,71.8125 224.3281,71.3906 L224.3281,69.9688 C224.3281,69.5313 224.3125,69.4063 224.2188,69.25 C224.0625,68.9844 223.7813,68.8438 223.4844,68.8438 C223.1875,68.8438 222.9844,68.9375 222.7656,69.25 L222.5938,69.1719 Z "/><text fill="#000000" font-family="Arial" font-size="11" lengthAdjust="spacingAndGlyphs" textLength="31" x="240.75" y="77.174">Series</text><line style="stroke: #919871; stroke-width: 1.5;" x1="149" x2="331" y1="89.5" y2="89.5"/><ellipse cx="159" cy="100.69" fill="none" rx="3" ry="3" style="stroke: #038048; stroke-width: 1.0;"/><text fill="#000000" font-family="Arial" font-size="10" lengthAdjust="spacingAndGlyphs" textLength="79" x="168" y="103.03">Description:string</text><ellipse cx="159" cy="113.07" fill="none" rx="3" ry="3" style="stroke: #038048; stroke-width: 1.0;"/><text fill="#000000" font-family="Arial" font-size="10" lengthAdjust="spacingAndGlyphs" textLength="139" x="168" y="115.41">CatalogueDescriptionUrl:string</text><line style="stroke: #919871; stroke-width: 1.5;" x1="149" x2="331" y1="122.26" y2="122.26"/><ellipse cx="159" cy="133.45" fill="#84BE84" rx="3" ry="3" style="stroke: #038048; stroke-width: 1.0;"/><text fill="#000000" font-family="Arial" font-size="10" lengthAdjust="spacingAndGlyphs" textLength="158" x="168" y="135.79">GetLocalOpenSearchDescription()</text></a><rect fill="#EEEBDC" filter="url(#f1)" height="48" style="stroke: #919871; stroke-width: 1.5;" width="81" x="63" y="241"/><ellipse cx="78" cy="257" fill="#ADD1B2" rx="11" ry="11" style="stroke: #919871; stroke-width: 1.0;"/><path d="M80.3438,252.6719 C79.4063,252.2344 78.8125,252.0938 77.9375,252.0938 C75.3125,252.0938 73.3125,254.1719 73.3125,256.8906 L73.3125,258.0156 C73.3125,260.5938 75.4219,262.4844 78.3125,262.4844 C79.5313,262.4844 80.6875,262.1875 81.4375,261.6406 C82.0156,261.2344 82.3438,260.7813 82.3438,260.3906 C82.3438,259.9375 81.9531,259.5469 81.4844,259.5469 C81.2656,259.5469 81.0625,259.625 80.875,259.8125 C80.4219,260.2969 80.4219,260.2969 80.2344,260.3906 C79.8125,260.6563 79.125,260.7813 78.3594,260.7813 C76.3125,260.7813 75.0156,259.6875 75.0156,257.9844 L75.0156,256.8906 C75.0156,255.1094 76.2656,253.7969 78,253.7969 C78.5781,253.7969 79.1875,253.9531 79.6563,254.2031 C80.1406,254.4844 80.3125,254.7031 80.4063,255.1094 C80.4688,255.5156 80.5,255.6406 80.6406,255.7656 C80.7813,255.9063 81.0156,256.0156 81.2344,256.0156 C81.5,256.0156 81.7656,255.875 81.9375,255.6563 C82.0469,255.5 82.0781,255.3125 82.0781,254.8906 L82.0781,253.4688 C82.0781,253.0313 82.0625,252.9063 81.9688,252.75 C81.8125,252.4844 81.5313,252.3438 81.2344,252.3438 C80.9375,252.3438 80.7344,252.4375 80.5156,252.75 L80.3438,252.6719 Z "/><text fill="#000000" font-family="Arial" font-size="11" lengthAdjust="spacingAndGlyphs" textLength="49" x="92" y="260.674">Catalogue</text><line style="stroke: #919871; stroke-width: 1.5;" x1="64" x2="143" y1="273" y2="273"/><line style="stroke: #919871; stroke-width: 1.5;" x1="64" x2="143" y1="281" y2="281"/><rect fill="#EEEBDC" filter="url(#f1)" height="48" style="stroke: #919871; stroke-width: 1.5;" width="101" x="203" y="240"/><ellipse cx="218" cy="256" fill="#ADD1B2" rx="11" ry="11" style="stroke: #919871; stroke-width: 1.0;"/><path d="M220.3438,251.6719 C219.4063,251.2344 218.8125,251.0938 217.9375,251.0938 C215.3125,251.0938 213.3125,253.1719 213.3125,255.8906 L213.3125,257.0156 C213.3125,259.5938 215.4219,261.4844 218.3125,261.4844 C219.5313,261.4844 220.6875,261.1875 221.4375,260.6406 C222.0156,260.2344 222.3438,259.7813 222.3438,259.3906 C222.3438,258.9375 221.9531,258.5469 221.4844,258.5469 C221.2656,258.5469 221.0625,258.625 220.875,258.8125 C220.4219,259.2969 220.4219,259.2969 220.2344,259.3906 C219.8125,259.6563 219.125,259.7813 218.3594,259.7813 C216.3125,259.7813 215.0156,258.6875 215.0156,256.9844 L215.0156,255.8906 C215.0156,254.1094 216.2656,252.7969 218,252.7969 C218.5781,252.7969 219.1875,252.9531 219.6563,253.2031 C220.1406,253.4844 220.3125,253.7031 220.4063,254.1094 C220.4688,254.5156 220.5,254.6406 220.6406,254.7656 C220.7813,254.9063 221.0156,255.0156 221.2344,255.0156 C221.5,255.0156 221.7656,254.875 221.9375,254.6563 C222.0469,254.5 222.0781,254.3125 222.0781,253.8906 L222.0781,252.4688 C222.0781,252.0313 222.0625,251.9063 221.9688,251.75 C221.8125,251.4844 221.5313,251.3438 221.2344,251.3438 C220.9375,251.3438 220.7344,251.4375 220.5156,251.75 L220.3438,251.6719 Z "/><text fill="#000000" font-family="Arial" font-size="11" lengthAdjust="spacingAndGlyphs" textLength="69" x="232" y="259.674">CustomSeries</text><line style="stroke: #919871; stroke-width: 1.5;" x1="204" x2="303" y1="272" y2="272"/><line style="stroke: #919871; stroke-width: 1.5;" x1="204" x2="303" y1="280" y2="280"/><rect fill="#EEEBDC" filter="url(#f1)" height="48" style="stroke: #919871; stroke-width: 1.5;" width="59" x="338" y="240"/><ellipse cx="353" cy="256" fill="#ADD1B2" rx="11" ry="11" style="stroke: #919871; stroke-width: 1.0;"/><path d="M355.3438,251.6719 C354.4063,251.2344 353.8125,251.0938 352.9375,251.0938 C350.3125,251.0938 348.3125,253.1719 348.3125,255.8906 L348.3125,257.0156 C348.3125,259.5938 350.4219,261.4844 353.3125,261.4844 C354.5313,261.4844 355.6875,261.1875 356.4375,260.6406 C357.0156,260.2344 357.3438,259.7813 357.3438,259.3906 C357.3438,258.9375 356.9531,258.5469 356.4844,258.5469 C356.2656,258.5469 356.0625,258.625 355.875,258.8125 C355.4219,259.2969 355.4219,259.2969 355.2344,259.3906 C354.8125,259.6563 354.125,259.7813 353.3594,259.7813 C351.3125,259.7813 350.0156,258.6875 350.0156,256.9844 L350.0156,255.8906 C350.0156,254.1094 351.2656,252.7969 353,252.7969 C353.5781,252.7969 354.1875,252.9531 354.6563,253.2031 C355.1406,253.4844 355.3125,253.7031 355.4063,254.1094 C355.4688,254.5156 355.5,254.6406 355.6406,254.7656 C355.7813,254.9063 356.0156,255.0156 356.2344,255.0156 C356.5,255.0156 356.7656,254.875 356.9375,254.6563 C357.0469,254.5 357.0781,254.3125 357.0781,253.8906 L357.0781,252.4688 C357.0781,252.0313 357.0625,251.9063 356.9688,251.75 C356.8125,251.4844 356.5313,251.3438 356.2344,251.3438 C355.9375,251.3438 355.7344,251.4375 355.5156,251.75 L355.3438,251.6719 Z "/><text fill="#000000" font-family="Arial" font-size="11" lengthAdjust="spacingAndGlyphs" textLength="27" x="367" y="259.674">Entity</text><line style="stroke: #919871; stroke-width: 1.5;" x1="339" x2="396" y1="272" y2="272"/><line style="stroke: #919871; stroke-width: 1.5;" x1="339" x2="396" y1="280" y2="280"/><path d="M196.258,153.07 C171.981,182.523 142.956,217.737 124.032,240.697 " fill="none" style="stroke: #000000; stroke-width: 1.0;"/><polygon fill="#000000" points="204.623,142.921,197.7201,145.0067,196.9904,152.1808,203.8933,150.0951,204.623,142.921" style="stroke: #000000; stroke-width: 1.0;"/><text fill="#000000" font-family="Arial" font-size="11" lengthAdjust="spacingAndGlyphs" textLength="18" x="178" y="184.4829">has</text><text fill="#000000" font-family="Arial" font-size="11" lengthAdjust="spacingAndGlyphs" textLength="6" x="139.5453" y="229.9739">1</text><path d="M236.166,142.64 C235.478,157.359 235.411,173.933 237,189 C238.078,199.22 239.96,210.095 242.064,220.302 " fill="none" style="stroke: #000000; stroke-width: 1.0;"/><polygon fill="none" points="248.909,218.835,246.507,239.888,235.256,221.932,248.909,218.835" style="stroke: #000000; stroke-width: 1.0;"/><text fill="#000000" font-family="Arial" font-size="11" lengthAdjust="spacingAndGlyphs" textLength="55" x="238" y="184.4829">implements</text><path d="M274.904,142.63 C282.894,152.542 291.3,163.093 299,173 C311.799,189.467 325.628,207.858 337.451,223.773 " fill="none" style="stroke: #000000; stroke-width: 1.0;"/><polygon fill="none" points="343.086,219.62,349.35,239.863,331.83,227.944,343.086,219.62" style="stroke: #000000; stroke-width: 1.0;"/><text fill="#000000" font-family="Arial" font-size="11" lengthAdjust="spacingAndGlyphs" textLength="55" x="311" y="184.4829">implements</text></g></svg>