<?xml version="1.0" encoding="UTF-8" standalone="yes"?><svg xmlns="http://www.w3.org/2000/svg" xmlns:xlink="http://www.w3.org/1999/xlink" height="290pt" style="width:283px;height:290px;" version="1.1" viewBox="0 0 283 290" width="283pt"><defs><filter height="300%" id="f1" width="300%" x="-1" y="-1"><feGaussianBlur result="blurOut" stdDeviation="2.0"/><feColorMatrix in="blurOut" result="blurOut2" type="matrix" values="0 0 0 0 0 0 0 0 0 0 0 0 0 0 0 0 0 0 .4 0"/><feOffset dx="4.0" dy="4.0" in="blurOut2" result="blurOut3"/><feBlend in="SourceGraphic" in2="blurOut3" mode="normal"/></filter></defs><g><polygon fill="#FFFFFF" filter="url(#f1)" points="22,24,107,24,114,43.6179,276,43.6179,276,283,22,283,22,24" style="stroke: #000000; stroke-width: 2.0;"/><line style="stroke: #000000; stroke-width: 2.0;" x1="22" x2="114" y1="43.6179" y2="43.6179"/><text fill="#000000" font-family="Arial" font-size="11" lengthAdjust="spacingAndGlyphs" textLength="79" x="25" y="37.4829">Terradue::Portal</text><a target="_top" xlink:href="../information/classes/class_terradue_1_1_portal_1_1_authentication_type.html" xlink:title="../information/classes/class_terradue_1_1_portal_1_1_authentication_type.html"><rect fill="#EEEBDC" filter="url(#f1)" height="85.14" style="stroke: #919871; stroke-width: 1.5;" width="222" x="38" y="57.5"/><ellipse cx="98.25" cy="73.5" fill="#ADD1B2" rx="11" ry="11" style="stroke: #919871; stroke-width: 1.0;"/><path d="M100.5938,69.1719 C99.6563,68.7344 99.0625,68.5938 98.1875,68.5938 C95.5625,68.5938 93.5625,70.6719 93.5625,73.3906 L93.5625,74.5156 C93.5625,77.0938 95.6719,78.9844 98.5625,78.9844 C99.7813,78.9844 100.9375,78.6875 101.6875,78.1406 C102.2656,77.7344 102.5938,77.2813 102.5938,76.8906 C102.5938,76.4375 102.2031,76.0469 101.7344,76.0469 C101.5156,76.0469 101.3125,76.125 101.125,76.3125 C100.6719,76.7969 100.6719,76.7969 100.4844,76.8906 C100.0625,77.1563 99.375,77.2813 98.6094,77.2813 C96.5625,77.2813 95.2656,76.1875 95.2656,74.4844 L95.2656,73.3906 C95.2656,71.6094 96.5156,70.2969 98.25,70.2969 C98.8281,70.2969 99.4375,70.4531 99.9063,70.7031 C100.3906,70.9844 100.5625,71.2031 100.6563,71.6094 C100.7188,72.0156 100.75,72.1406 100.8906,72.2656 C101.0313,72.4063 101.2656,72.5156 101.4844,72.5156 C101.75,72.5156 102.0156,72.375 102.1875,72.1563 C102.2969,72 102.3281,71.8125 102.3281,71.3906 L102.3281,69.9688 C102.3281,69.5313 102.3125,69.4063 102.2188,69.25 C102.0625,68.9844 101.7813,68.8438 101.4844,68.8438 C101.1875,68.8438 100.9844,68.9375 100.7656,69.25 L100.5938,69.1719 Z "/><text fill="#000000" font-family="Arial" font-size="11" lengthAdjust="spacingAndGlyphs" textLength="93" x="118.75" y="77.174">AuthenticationType</text><line style="stroke: #919871; stroke-width: 1.5;" x1="39" x2="259" y1="89.5" y2="89.5"/><ellipse cx="49" cy="100.69" fill="none" rx="3" ry="3" style="stroke: #038048; stroke-width: 1.0;"/><text fill="#000000" font-family="Arial" font-size="10" lengthAdjust="spacingAndGlyphs" textLength="189" x="58" y="103.03">NormalAccountRule:RuleApplicationType</text><ellipse cx="49" cy="113.07" fill="none" rx="3" ry="3" style="stroke: #038048; stroke-width: 1.0;"/><text fill="#000000" font-family="Arial" font-size="10" lengthAdjust="spacingAndGlyphs" textLength="155" x="58" y="115.41">ExternalSessionRefreshPeriod:int</text><ellipse cx="49" cy="125.45" fill="none" rx="3" ry="3" style="stroke: #038048; stroke-width: 1.0;"/><text fill="#000000" font-family="Arial" font-size="10" lengthAdjust="spacingAndGlyphs" textLength="196" x="58" y="127.79">UsesExternalIdentityProvider:abstract bool</text><line style="stroke: #919871; stroke-width: 1.5;" x1="39" x2="259" y1="134.64" y2="134.64"/></a><rect fill="#EEEBDC" filter="url(#f1)" height="48" style="stroke: #919871; stroke-width: 1.5;" width="59" x="120" y="219"/><ellipse cx="135" cy="235" fill="#ADD1B2" rx="11" ry="11" style="stroke: #919871; stroke-width: 1.0;"/><path d="M137.3438,230.6719 C136.4063,230.2344 135.8125,230.0938 134.9375,230.0938 C132.3125,230.0938 130.3125,232.1719 130.3125,234.8906 L130.3125,236.0156 C130.3125,238.5938 132.4219,240.4844 135.3125,240.4844 C136.5313,240.4844 137.6875,240.1875 138.4375,239.6406 C139.0156,239.2344 139.3438,238.7813 139.3438,238.3906 C139.3438,237.9375 138.9531,237.5469 138.4844,237.5469 C138.2656,237.5469 138.0625,237.625 137.875,237.8125 C137.4219,238.2969 137.4219,238.2969 137.2344,238.3906 C136.8125,238.6563 136.125,238.7813 135.3594,238.7813 C133.3125,238.7813 132.0156,237.6875 132.0156,235.9844 L132.0156,234.8906 C132.0156,233.1094 133.2656,231.7969 135,231.7969 C135.5781,231.7969 136.1875,231.9531 136.6563,232.2031 C137.1406,232.4844 137.3125,232.7031 137.4063,233.1094 C137.4688,233.5156 137.5,233.6406 137.6406,233.7656 C137.7813,233.9063 138.0156,234.0156 138.2344,234.0156 C138.5,234.0156 138.7656,233.875 138.9375,233.6563 C139.0469,233.5 139.0781,233.3125 139.0781,232.8906 L139.0781,231.4688 C139.0781,231.0313 139.0625,230.9063 138.9688,230.75 C138.8125,230.4844 138.5313,230.3438 138.2344,230.3438 C137.9375,230.3438 137.7344,230.4375 137.5156,230.75 L137.3438,230.6719 Z "/><text fill="#000000" font-family="Arial" font-size="11" lengthAdjust="spacingAndGlyphs" textLength="27" x="149" y="238.674">Entity</text><line style="stroke: #919871; stroke-width: 1.5;" x1="121" x2="178" y1="251" y2="251"/><line style="stroke: #919871; stroke-width: 1.5;" x1="121" x2="178" y1="259" y2="259"/><path d="M149,142.518 C149,160.194 149,180.715 149,198.587 " fill="none" style="stroke: #000000; stroke-width: 1.0;"/><polygon fill="none" points="156,198.703,149,218.7028,142,198.703,156,198.703" style="stroke: #000000; stroke-width: 1.0;"/><text fill="#000000" font-family="Arial" font-size="11" lengthAdjust="spacingAndGlyphs" textLength="55" x="150" y="184.4829">implements</text></g></svg>