<?xml version="1.0" encoding="UTF-8" standalone="yes"?><svg xmlns="http://www.w3.org/2000/svg" xmlns:xlink="http://www.w3.org/1999/xlink" height="752pt" style="width:2115px;height:752px;" version="1.1" viewBox="0 0 2115 752" width="2115pt"><defs><filter height="300%" id="f1" width="300%" x="-1" y="-1"><feGaussianBlur result="blurOut" stdDeviation="2.0"/><feColorMatrix in="blurOut" result="blurOut2" type="matrix" values="0 0 0 0 0 0 0 0 0 0 0 0 0 0 0 0 0 0 .4 0"/><feOffset dx="4.0" dy="4.0" in="blurOut2" result="blurOut3"/><feBlend in="SourceGraphic" in2="blurOut3" mode="normal"/></filter></defs><g><rect fill="#FFFFFF" filter="url(#f1)" height="137" style="stroke: #000000; stroke-width: 2.0;" width="177" x="383" y="209"/><path d="M553,210 L553,214.6489 L543,224.6489 L383,224.6489 " fill="#FFFFFF" style="stroke: #000000; stroke-width: 2.0;"/><text fill="#000000" font-family="Arial" font-size="11" lengthAdjust="spacingAndGlyphs" textLength="160" x="386" y="219.3179">Terradue::Authentication::Umsso</text><rect fill="#FFFFFF" filter="url(#f1)" height="137" style="stroke: #000000; stroke-width: 2.0;" width="134" x="1015" y="209"/><path d="M1104,210 L1104,214.6489 L1094,224.6489 L1015,224.6489 " fill="#FFFFFF" style="stroke: #000000; stroke-width: 2.0;"/><text fill="#000000" font-family="Arial" font-size="11" lengthAdjust="spacingAndGlyphs" textLength="79" x="1018" y="219.3179">Terradue::Cloud</text><rect fill="#FFFFFF" filter="url(#f1)" height="137" style="stroke: #000000; stroke-width: 2.0;" width="135" x="98" y="579"/><path d="M226,580 L226,584.6489 L216,594.6489 L98,594.6489 " fill="#FFFFFF" style="stroke: #000000; stroke-width: 2.0;"/><text fill="#000000" font-family="Arial" font-size="11" lengthAdjust="spacingAndGlyphs" textLength="118" x="101" y="589.3179">Terradue::GDAL::Native</text><rect fill="#FFFFFF" filter="url(#f1)" height="137" style="stroke: #000000; stroke-width: 2.0;" width="118" x="793" y="579"/><path d="M899,580 L899,584.6489 L889,594.6489 L793,594.6489 " fill="#FFFFFF" style="stroke: #000000; stroke-width: 2.0;"/><text fill="#000000" font-family="Arial" font-size="11" lengthAdjust="spacingAndGlyphs" textLength="96" x="796" y="589.3179">Terradue::GeoJson</text><rect fill="#FFFFFF" filter="url(#f1)" height="137" style="stroke: #000000; stroke-width: 2.0;" width="134" x="857" y="209"/><path d="M950,210 L950,214.6489 L940,224.6489 L857,224.6489 " fill="#FFFFFF" style="stroke: #000000; stroke-width: 2.0;"/><text fill="#000000" font-family="Arial" font-size="11" lengthAdjust="spacingAndGlyphs" textLength="83" x="860" y="219.3179">Terradue::Github</text><rect fill="#FFFFFF" filter="url(#f1)" height="137" style="stroke: #000000; stroke-width: 2.0;" width="134" x="1151" y="394"/><path d="M1250,395 L1250,399.6489 L1240,409.6489 L1151,409.6489 " fill="#FFFFFF" style="stroke: #000000; stroke-width: 2.0;"/><text fill="#000000" font-family="Arial" font-size="11" lengthAdjust="spacingAndGlyphs" textLength="89" x="1154" y="404.3179">Terradue::Hadoop</text><rect fill="#FFFFFF" filter="url(#f1)" height="137" style="stroke: #000000; stroke-width: 2.0;" width="205" x="1173" y="24"/><path d="M1371,25 L1371,29.6489 L1361,39.6489 L1173,39.6489 " fill="#FFFFFF" style="stroke: #000000; stroke-width: 2.0;"/><text fill="#000000" font-family="Arial" font-size="11" lengthAdjust="spacingAndGlyphs" textLength="188" x="1176" y="34.3179">Terradue::Metadata::EarthObservation</text><rect fill="#FFFFFF" filter="url(#f1)" height="137" style="stroke: #000000; stroke-width: 2.0;" width="228" x="1402" y="24"/><path d="M1623,25 L1623,29.6489 L1613,39.6489 L1402,39.6489 " fill="#FFFFFF" style="stroke: #000000; stroke-width: 2.0;"/><text fill="#000000" font-family="Arial" font-size="11" lengthAdjust="spacingAndGlyphs" textLength="211" x="1405" y="34.3179">Terradue::ServiceModel::Ogc::OwsContext</text><rect fill="#FFFFFF" filter="url(#f1)" height="137" style="stroke: #000000; stroke-width: 2.0;" width="196" x="1654" y="24"/><path d="M1843,25 L1843,29.6489 L1833,39.6489 L1654,39.6489 " fill="#FFFFFF" style="stroke: #000000; stroke-width: 2.0;"/><text fill="#000000" font-family="Arial" font-size="11" lengthAdjust="spacingAndGlyphs" textLength="179" x="1657" y="34.3179">Terradue::ServiceModel::Syndication</text><rect fill="#FFFFFF" filter="url(#f1)" height="137" style="stroke: #000000; stroke-width: 2.0;" width="104" x="1874" y="24"/><path d="M1963,25 L1963,29.6489 L1953,39.6489 L1874,39.6489 " fill="#FFFFFF" style="stroke: #000000; stroke-width: 2.0;"/><text fill="#000000" font-family="Arial" font-size="11" lengthAdjust="spacingAndGlyphs" textLength="79" x="1877" y="34.3179">Terradue::News</text><rect fill="#FFFFFF" filter="url(#f1)" height="137" style="stroke: #000000; stroke-width: 2.0;" width="129" x="998" y="394"/><path d="M1120,395 L1120,399.6489 L1110,409.6489 L998,409.6489 " fill="#FFFFFF" style="stroke: #000000; stroke-width: 2.0;"/><text fill="#000000" font-family="Arial" font-size="11" lengthAdjust="spacingAndGlyphs" textLength="112" x="1001" y="404.3179">Terradue::OpenNebula</text><rect fill="#FFFFFF" filter="url(#f1)" height="137" style="stroke: #000000; stroke-width: 2.0;" width="202" x="22" y="394"/><path d="M217,395 L217,399.6489 L207,409.6489 L22,409.6489 " fill="#FFFFFF" style="stroke: #000000; stroke-width: 2.0;"/><text fill="#000000" font-family="Arial" font-size="11" lengthAdjust="spacingAndGlyphs" textLength="185" x="25" y="404.3179">Terradue::OpenSearch::DataAnalyzer</text><rect fill="#FFFFFF" filter="url(#f1)" height="137" style="stroke: #000000; stroke-width: 2.0;" width="170" x="441" y="394"/><path d="M604,395 L604,399.6489 L594,409.6489 L441,409.6489 " fill="#FFFFFF" style="stroke: #000000; stroke-width: 2.0;"/><text fill="#000000" font-family="Arial" font-size="11" lengthAdjust="spacingAndGlyphs" textLength="153" x="444" y="404.3179">Terradue::OpenSearch::Tumblr</text><rect fill="#FFFFFF" filter="url(#f1)" height="137" style="stroke: #000000; stroke-width: 2.0;" width="169" x="248" y="394"/><path d="M410,395 L410,399.6489 L400,409.6489 L248,409.6489 " fill="#FFFFFF" style="stroke: #000000; stroke-width: 2.0;"/><text fill="#000000" font-family="Arial" font-size="11" lengthAdjust="spacingAndGlyphs" textLength="152" x="251" y="404.3179">Terradue::OpenSearch::Twitter</text><rect fill="#FFFFFF" filter="url(#f1)" height="137" style="stroke: #000000; stroke-width: 2.0;" width="181" x="793" y="394"/><path d="M967,395 L967,399.6489 L957,409.6489 L793,409.6489 " fill="#FFFFFF" style="stroke: #000000; stroke-width: 2.0;"/><text fill="#000000" font-family="Arial" font-size="11" lengthAdjust="spacingAndGlyphs" textLength="164" x="796" y="404.3179">Terradue::OpenSearch::GeoJson</text><rect fill="#FFFFFF" filter="url(#f1)" height="137" style="stroke: #000000; stroke-width: 2.0;" width="130" x="461" y="579"/><path d="M584,580 L584,584.6489 L574,594.6489 L461,594.6489 " fill="#FFFFFF" style="stroke: #000000; stroke-width: 2.0;"/><text fill="#000000" font-family="Arial" font-size="11" lengthAdjust="spacingAndGlyphs" textLength="113" x="464" y="589.3179">Terradue::OpenSearch</text><rect fill="#FFFFFF" filter="url(#f1)" height="137" style="stroke: #000000; stroke-width: 2.0;" width="134" x="635" y="394"/><path d="M724,395 L724,399.6489 L714,409.6489 L635,409.6489 " fill="#FFFFFF" style="stroke: #000000; stroke-width: 2.0;"/><text fill="#000000" font-family="Arial" font-size="11" lengthAdjust="spacingAndGlyphs" textLength="79" x="638" y="404.3179">Terradue::Portal</text><rect fill="#FFFFFF" filter="url(#f1)" height="137" style="stroke: #000000; stroke-width: 2.0;" width="134" x="1015" y="24"/><path d="M1119,25 L1119,29.6489 L1109,39.6489 L1015,39.6489 " fill="#FFFFFF" style="stroke: #000000; stroke-width: 2.0;"/><text fill="#000000" font-family="Arial" font-size="11" lengthAdjust="spacingAndGlyphs" textLength="94" x="1018" y="34.3179">Terradue::Sandbox</text><rect fill="#FFFFFF" filter="url(#f1)" height="137" style="stroke: #000000; stroke-width: 2.0;" width="106" x="2002" y="24"/><path d="M2101,25 L2101,29.6489 L2091,39.6489 L2002,39.6489 " fill="#FFFFFF" style="stroke: #000000; stroke-width: 2.0;"/><text fill="#000000" font-family="Arial" font-size="11" lengthAdjust="spacingAndGlyphs" textLength="89" x="2005" y="34.3179">Terradue::TepQW</text><rect fill="#FFFFFF" filter="url(#f1)" height="137" style="stroke: #000000; stroke-width: 2.0;" width="162" x="671" y="209"/><path d="M826,210 L826,214.6489 L816,224.6489 L671,224.6489 " fill="#FFFFFF" style="stroke: #000000; stroke-width: 2.0;"/><text fill="#000000" font-family="Arial" font-size="11" lengthAdjust="spacingAndGlyphs" textLength="145" x="674" y="219.3179">Terradue::WebService::Model</text><a target="_top" xlink:href="../technology/packages/namespace_terradue_1_1_authentication_1_1_umsso.html" xlink:title="../technology/packages/namespace_terradue_1_1_authentication_1_1_umsso.html"><rect fill="#EEEBDC" filter="url(#f1)" height="70.998" style="stroke: #919871; stroke-width: 1.5;" width="101" x="440.75" y="258.5"/><ellipse cx="471.5" cy="274.5" fill="#00FFFF" rx="11" ry="11" style="stroke: #919871; stroke-width: 1.0;"/><path d="M468.3677,280.5 L468.3677,268.1069 L470.8164,268.1069 L470.8164,278.3418 L476.0542,278.3418 L476.0542,280.5 Z "/><text fill="#000000" font-family="Arial" font-size="11" lengthAdjust="spacingAndGlyphs" textLength="34" x="489" y="278.4934">Library</text><line style="stroke: #919871; stroke-width: 1.5;" x1="441.75" x2="540.75" y1="290.5" y2="290.5"/><text fill="#000000" font-family="Arial" font-size="10" lengthAdjust="spacingAndGlyphs" textLength="66" x="446.75" y="303.8799">version : 1.2.3</text><text fill="#000000" font-family="Arial" font-size="10" lengthAdjust="spacingAndGlyphs" textLength="89" x="446.75" y="315.3789">license : incubating</text><line style="stroke: #919871; stroke-width: 1.5;" x1="441.75" x2="540.75" y1="321.498" y2="321.498"/></a><a target="_top" xlink:href="../technology/packages/namespace_terradue_1_1_cloud.html" xlink:title="../technology/packages/namespace_terradue_1_1_cloud.html"><rect fill="#EEEBDC" filter="url(#f1)" height="70.998" style="stroke: #919871; stroke-width: 1.5;" width="101" x="1031.75" y="258.5"/><ellipse cx="1062.5" cy="274.5" fill="#00FFFF" rx="11" ry="11" style="stroke: #919871; stroke-width: 1.0;"/><path d="M1059.3677,280.5 L1059.3677,268.1069 L1061.8164,268.1069 L1061.8164,278.3418 L1067.0542,278.3418 L1067.0542,280.5 Z "/><text fill="#000000" font-family="Arial" font-size="11" lengthAdjust="spacingAndGlyphs" textLength="34" x="1080" y="278.4934">Library</text><line style="stroke: #919871; stroke-width: 1.5;" x1="1032.75" x2="1131.75" y1="290.5" y2="290.5"/><text fill="#000000" font-family="Arial" font-size="10" lengthAdjust="spacingAndGlyphs" textLength="72" x="1037.75" y="303.8799">version : 1.2.14</text><text fill="#000000" font-family="Arial" font-size="10" lengthAdjust="spacingAndGlyphs" textLength="89" x="1037.75" y="315.3789">license : incubating</text><line style="stroke: #919871; stroke-width: 1.5;" x1="1032.75" x2="1131.75" y1="321.498" y2="321.498"/></a><a target="_top" xlink:href="../technology/packages/namespace_terradue_1_1_g_d_a_l_1_1_native.html" xlink:title="../technology/packages/namespace_terradue_1_1_g_d_a_l_1_1_native.html"><rect fill="#EEEBDC" filter="url(#f1)" height="70.998" style="stroke: #919871; stroke-width: 1.5;" width="85" x="122.75" y="628.5"/><ellipse cx="146.3" cy="644.5" fill="#00FFFF" rx="11" ry="11" style="stroke: #919871; stroke-width: 1.0;"/><path d="M143.1677,650.5 L143.1677,638.1069 L145.6164,638.1069 L145.6164,648.3418 L150.8542,648.3418 L150.8542,650.5 Z "/><text fill="#000000" font-family="Arial" font-size="11" lengthAdjust="spacingAndGlyphs" textLength="34" x="162.2" y="648.4934">Library</text><line style="stroke: #919871; stroke-width: 1.5;" x1="123.75" x2="206.75" y1="660.5" y2="660.5"/><text fill="#000000" font-family="Arial" font-size="10" lengthAdjust="spacingAndGlyphs" textLength="66" x="128.75" y="673.8799">version : 1.0.0</text><text fill="#000000" font-family="Arial" font-size="10" lengthAdjust="spacingAndGlyphs" textLength="73" x="128.75" y="685.3789">license : GPLv3</text><line style="stroke: #919871; stroke-width: 1.5;" x1="123.75" x2="206.75" y1="691.498" y2="691.498"/></a><a target="_top" xlink:href="../technology/packages/namespace_terradue_1_1_geo_json.html" xlink:title="../technology/packages/namespace_terradue_1_1_geo_json.html"><rect fill="#EEEBDC" filter="url(#f1)" height="70.998" style="stroke: #919871; stroke-width: 1.5;" width="85" x="809.75" y="628.5"/><ellipse cx="833.3" cy="644.5" fill="#00FFFF" rx="11" ry="11" style="stroke: #919871; stroke-width: 1.0;"/><path d="M830.1677,650.5 L830.1677,638.1069 L832.6164,638.1069 L832.6164,648.3418 L837.8542,648.3418 L837.8542,650.5 Z "/><text fill="#000000" font-family="Arial" font-size="11" lengthAdjust="spacingAndGlyphs" textLength="34" x="849.2" y="648.4934">Library</text><line style="stroke: #919871; stroke-width: 1.5;" x1="810.75" x2="893.75" y1="660.5" y2="660.5"/><text fill="#000000" font-family="Arial" font-size="10" lengthAdjust="spacingAndGlyphs" textLength="72" x="815.75" y="673.8799">version : 1.4.14</text><text fill="#000000" font-family="Arial" font-size="10" lengthAdjust="spacingAndGlyphs" textLength="73" x="815.75" y="685.3789">license : GPLv3</text><line style="stroke: #919871; stroke-width: 1.5;" x1="810.75" x2="893.75" y1="691.498" y2="691.498"/></a><a target="_top" xlink:href="../technology/packages/namespace_terradue_1_1_github.html" xlink:title="../technology/packages/namespace_terradue_1_1_github.html"><rect fill="#EEEBDC" filter="url(#f1)" height="70.998" style="stroke: #919871; stroke-width: 1.5;" width="101" x="873.75" y="258.5"/><ellipse cx="904.5" cy="274.5" fill="#00FFFF" rx="11" ry="11" style="stroke: #919871; stroke-width: 1.0;"/><path d="M901.3677,280.5 L901.3677,268.1069 L903.8164,268.1069 L903.8164,278.3418 L909.0542,278.3418 L909.0542,280.5 Z "/><text fill="#000000" font-family="Arial" font-size="11" lengthAdjust="spacingAndGlyphs" textLength="34" x="922" y="278.4934">Library</text><line style="stroke: #919871; stroke-width: 1.5;" x1="874.75" x2="973.75" y1="290.5" y2="290.5"/><text fill="#000000" font-family="Arial" font-size="10" lengthAdjust="spacingAndGlyphs" textLength="66" x="879.75" y="303.8799">version : 1.0.4</text><text fill="#000000" font-family="Arial" font-size="10" lengthAdjust="spacingAndGlyphs" textLength="89" x="879.75" y="315.3789">license : incubating</text><line style="stroke: #919871; stroke-width: 1.5;" x1="874.75" x2="973.75" y1="321.498" y2="321.498"/></a><a target="_top" xlink:href="../technology/packages/namespace_terradue_1_1_hadoop.html" xlink:title="../technology/packages/namespace_terradue_1_1_hadoop.html"><rect fill="#EEEBDC" filter="url(#f1)" height="70.998" style="stroke: #919871; stroke-width: 1.5;" width="101" x="1167.75" y="443.5"/><ellipse cx="1198.5" cy="459.5" fill="#00FFFF" rx="11" ry="11" style="stroke: #919871; stroke-width: 1.0;"/><path d="M1195.3677,465.5 L1195.3677,453.1069 L1197.8164,453.1069 L1197.8164,463.3418 L1203.0542,463.3418 L1203.0542,465.5 Z "/><text fill="#000000" font-family="Arial" font-size="11" lengthAdjust="spacingAndGlyphs" textLength="34" x="1216" y="463.4934">Library</text><line style="stroke: #919871; stroke-width: 1.5;" x1="1168.75" x2="1267.75" y1="475.5" y2="475.5"/><text fill="#000000" font-family="Arial" font-size="10" lengthAdjust="spacingAndGlyphs" textLength="66" x="1173.75" y="488.8799">version : 1.3.2</text><text fill="#000000" font-family="Arial" font-size="10" lengthAdjust="spacingAndGlyphs" textLength="89" x="1173.75" y="500.3789">license : incubating</text><line style="stroke: #919871; stroke-width: 1.5;" x1="1168.75" x2="1267.75" y1="506.498" y2="506.498"/></a><a target="_top" xlink:href="../technology/packages/namespace_terradue_1_1_metadata_1_1_earth_observation.html" xlink:title="../technology/packages/namespace_terradue_1_1_metadata_1_1_earth_observation.html"><rect fill="#EEEBDC" filter="url(#f1)" height="70.998" style="stroke: #919871; stroke-width: 1.5;" width="85" x="1232.75" y="73.5"/><ellipse cx="1256.3" cy="89.5" fill="#00FFFF" rx="11" ry="11" style="stroke: #919871; stroke-width: 1.0;"/><path d="M1253.1677,95.5 L1253.1677,83.1069 L1255.6164,83.1069 L1255.6164,93.3418 L1260.8542,93.3418 L1260.8542,95.5 Z "/><text fill="#000000" font-family="Arial" font-size="11" lengthAdjust="spacingAndGlyphs" textLength="34" x="1272.2" y="93.4934">Library</text><line style="stroke: #919871; stroke-width: 1.5;" x1="1233.75" x2="1316.75" y1="105.5" y2="105.5"/><text fill="#000000" font-family="Arial" font-size="10" lengthAdjust="spacingAndGlyphs" textLength="66" x="1238.75" y="118.8799">version : 1.2.7</text><text fill="#000000" font-family="Arial" font-size="10" lengthAdjust="spacingAndGlyphs" textLength="73" x="1238.75" y="130.3789">license : GPLv3</text><line style="stroke: #919871; stroke-width: 1.5;" x1="1233.75" x2="1316.75" y1="136.498" y2="136.498"/></a><a target="_top" xlink:href="../technology/packages/namespace_terradue_1_1_service_model_1_1_ogc_1_1_ows_context.html" xlink:title="../technology/packages/namespace_terradue_1_1_service_model_1_1_ogc_1_1_ows_context.html"><rect fill="#EEEBDC" filter="url(#f1)" height="70.998" style="stroke: #919871; stroke-width: 1.5;" width="85" x="1473.75" y="73.5"/><ellipse cx="1497.3" cy="89.5" fill="#00FFFF" rx="11" ry="11" style="stroke: #919871; stroke-width: 1.0;"/><path d="M1494.1677,95.5 L1494.1677,83.1069 L1496.6164,83.1069 L1496.6164,93.3418 L1501.8542,93.3418 L1501.8542,95.5 Z "/><text fill="#000000" font-family="Arial" font-size="11" lengthAdjust="spacingAndGlyphs" textLength="34" x="1513.2" y="93.4934">Library</text><line style="stroke: #919871; stroke-width: 1.5;" x1="1474.75" x2="1557.75" y1="105.5" y2="105.5"/><text fill="#000000" font-family="Arial" font-size="10" lengthAdjust="spacingAndGlyphs" textLength="66" x="1479.75" y="118.8799">version : 1.0.6</text><text fill="#000000" font-family="Arial" font-size="10" lengthAdjust="spacingAndGlyphs" textLength="73" x="1479.75" y="130.3789">license : GPLv3</text><line style="stroke: #919871; stroke-width: 1.5;" x1="1474.75" x2="1557.75" y1="136.498" y2="136.498"/></a><a target="_top" xlink:href="../technology/packages/namespace_terradue_1_1_service_model_1_1_syndication.html" xlink:title="../technology/packages/namespace_terradue_1_1_service_model_1_1_syndication.html"><rect fill="#EEEBDC" filter="url(#f1)" height="70.998" style="stroke: #919871; stroke-width: 1.5;" width="85" x="1709.75" y="73.5"/><ellipse cx="1733.3" cy="89.5" fill="#00FFFF" rx="11" ry="11" style="stroke: #919871; stroke-width: 1.0;"/><path d="M1730.1677,95.5 L1730.1677,83.1069 L1732.6164,83.1069 L1732.6164,93.3418 L1737.8542,93.3418 L1737.8542,95.5 Z "/><text fill="#000000" font-family="Arial" font-size="11" lengthAdjust="spacingAndGlyphs" textLength="34" x="1749.2" y="93.4934">Library</text><line style="stroke: #919871; stroke-width: 1.5;" x1="1710.75" x2="1793.75" y1="105.5" y2="105.5"/><text fill="#000000" font-family="Arial" font-size="10" lengthAdjust="spacingAndGlyphs" textLength="66" x="1715.75" y="118.8799">version : 1.0.0</text><text fill="#000000" font-family="Arial" font-size="10" lengthAdjust="spacingAndGlyphs" textLength="73" x="1715.75" y="130.3789">license : GPLv3</text><line style="stroke: #919871; stroke-width: 1.5;" x1="1710.75" x2="1793.75" y1="136.498" y2="136.498"/></a><a target="_top" xlink:href="../technology/packages/namespace_terradue_1_1_news.html" xlink:title="../technology/packages/namespace_terradue_1_1_news.html"><rect fill="#EEEBDC" filter="url(#f1)" height="70.998" style="stroke: #919871; stroke-width: 1.5;" width="66" x="1893" y="73.5"/><ellipse cx="1908" cy="89.5" fill="#00FFFF" rx="11" ry="11" style="stroke: #919871; stroke-width: 1.0;"/><path d="M1904.8677,95.5 L1904.8677,83.1069 L1907.3164,83.1069 L1907.3164,93.3418 L1912.5542,93.3418 L1912.5542,95.5 Z "/><text fill="#000000" font-family="Arial" font-size="11" lengthAdjust="spacingAndGlyphs" textLength="34" x="1922" y="93.4934">Library</text><line style="stroke: #919871; stroke-width: 1.5;" x1="1894" x2="1958" y1="105.5" y2="105.5"/><text fill="#000000" font-family="Arial" font-size="10" lengthAdjust="spacingAndGlyphs" textLength="39" x="1899" y="118.8799">version :</text><text fill="#000000" font-family="Arial" font-size="10" lengthAdjust="spacingAndGlyphs" textLength="38" x="1899" y="130.3789">license :</text><line style="stroke: #919871; stroke-width: 1.5;" x1="1894" x2="1958" y1="136.498" y2="136.498"/></a><a target="_top" xlink:href="../technology/packages/namespace_terradue_1_1_open_nebula.html" xlink:title="../technology/packages/namespace_terradue_1_1_open_nebula.html"><rect fill="#EEEBDC" filter="url(#f1)" height="70.998" style="stroke: #919871; stroke-width: 1.5;" width="85" x="1025.75" y="443.5"/><ellipse cx="1049.3" cy="459.5" fill="#00FFFF" rx="11" ry="11" style="stroke: #919871; stroke-width: 1.0;"/><path d="M1046.1677,465.5 L1046.1677,453.1069 L1048.6164,453.1069 L1048.6164,463.3418 L1053.8542,463.3418 L1053.8542,465.5 Z "/><text fill="#000000" font-family="Arial" font-size="11" lengthAdjust="spacingAndGlyphs" textLength="34" x="1065.2" y="463.4934">Library</text><line style="stroke: #919871; stroke-width: 1.5;" x1="1026.75" x2="1109.75" y1="475.5" y2="475.5"/><text fill="#000000" font-family="Arial" font-size="10" lengthAdjust="spacingAndGlyphs" textLength="66" x="1031.75" y="488.8799">version : 1.0.0</text><text fill="#000000" font-family="Arial" font-size="10" lengthAdjust="spacingAndGlyphs" textLength="73" x="1031.75" y="500.3789">license : GPLv3</text><line style="stroke: #919871; stroke-width: 1.5;" x1="1026.75" x2="1109.75" y1="506.498" y2="506.498"/></a><a target="_top" xlink:href="../technology/packages/namespace_terradue_1_1_open_search_1_1_data_analyzer.html" xlink:title="../technology/packages/namespace_terradue_1_1_open_search_1_1_data_analyzer.html"><rect fill="#EEEBDC" filter="url(#f1)" height="70.998" style="stroke: #919871; stroke-width: 1.5;" width="85" x="122.75" y="443.5"/><ellipse cx="146.3" cy="459.5" fill="#00FFFF" rx="11" ry="11" style="stroke: #919871; stroke-width: 1.0;"/><path d="M143.1677,465.5 L143.1677,453.1069 L145.6164,453.1069 L145.6164,463.3418 L150.8542,463.3418 L150.8542,465.5 Z "/><text fill="#000000" font-family="Arial" font-size="11" lengthAdjust="spacingAndGlyphs" textLength="34" x="162.2" y="463.4934">Library</text><line style="stroke: #919871; stroke-width: 1.5;" x1="123.75" x2="206.75" y1="475.5" y2="475.5"/><text fill="#000000" font-family="Arial" font-size="10" lengthAdjust="spacingAndGlyphs" textLength="72" x="128.75" y="488.8799">version : 1.0.13</text><text fill="#000000" font-family="Arial" font-size="10" lengthAdjust="spacingAndGlyphs" textLength="73" x="128.75" y="500.3789">license : GPLv3</text><line style="stroke: #919871; stroke-width: 1.5;" x1="123.75" x2="206.75" y1="506.498" y2="506.498"/></a><a target="_top" xlink:href="../technology/packages/namespace_terradue_1_1_open_search_1_1_tumblr.html" xlink:title="../technology/packages/namespace_terradue_1_1_open_search_1_1_tumblr.html"><rect fill="#EEEBDC" filter="url(#f1)" height="70.998" style="stroke: #919871; stroke-width: 1.5;" width="85" x="483.75" y="443.5"/><ellipse cx="507.3" cy="459.5" fill="#00FFFF" rx="11" ry="11" style="stroke: #919871; stroke-width: 1.0;"/><path d="M504.1677,465.5 L504.1677,453.1069 L506.6164,453.1069 L506.6164,463.3418 L511.8542,463.3418 L511.8542,465.5 Z "/><text fill="#000000" font-family="Arial" font-size="11" lengthAdjust="spacingAndGlyphs" textLength="34" x="523.2" y="463.4934">Library</text><line style="stroke: #919871; stroke-width: 1.5;" x1="484.75" x2="567.75" y1="475.5" y2="475.5"/><text fill="#000000" font-family="Arial" font-size="10" lengthAdjust="spacingAndGlyphs" textLength="66" x="489.75" y="488.8799">version : 1.0.4</text><text fill="#000000" font-family="Arial" font-size="10" lengthAdjust="spacingAndGlyphs" textLength="73" x="489.75" y="500.3789">license : GPLv3</text><line style="stroke: #919871; stroke-width: 1.5;" x1="484.75" x2="567.75" y1="506.498" y2="506.498"/></a><a target="_top" xlink:href="../technology/packages/namespace_terradue_1_1_open_search_1_1_twitter.html" xlink:title="../technology/packages/namespace_terradue_1_1_open_search_1_1_twitter.html"><rect fill="#EEEBDC" filter="url(#f1)" height="70.998" style="stroke: #919871; stroke-width: 1.5;" width="85" x="315.75" y="443.5"/><ellipse cx="339.3" cy="459.5" fill="#00FFFF" rx="11" ry="11" style="stroke: #919871; stroke-width: 1.0;"/><path d="M336.1677,465.5 L336.1677,453.1069 L338.6164,453.1069 L338.6164,463.3418 L343.8542,463.3418 L343.8542,465.5 Z "/><text fill="#000000" font-family="Arial" font-size="11" lengthAdjust="spacingAndGlyphs" textLength="34" x="355.2" y="463.4934">Library</text><line style="stroke: #919871; stroke-width: 1.5;" x1="316.75" x2="399.75" y1="475.5" y2="475.5"/><text fill="#000000" font-family="Arial" font-size="10" lengthAdjust="spacingAndGlyphs" textLength="66" x="321.75" y="488.8799">version : 1.0.4</text><text fill="#000000" font-family="Arial" font-size="10" lengthAdjust="spacingAndGlyphs" textLength="73" x="321.75" y="500.3789">license : GPLv3</text><line style="stroke: #919871; stroke-width: 1.5;" x1="316.75" x2="399.75" y1="506.498" y2="506.498"/></a><a target="_top" xlink:href="../technology/packages/namespace_terradue_1_1_open_search_1_1_geo_json.html" xlink:title="../technology/packages/namespace_terradue_1_1_open_search_1_1_geo_json.html"><rect fill="#EEEBDC" filter="url(#f1)" height="70.998" style="stroke: #919871; stroke-width: 1.5;" width="85" x="809.75" y="443.5"/><ellipse cx="833.3" cy="459.5" fill="#00FFFF" rx="11" ry="11" style="stroke: #919871; stroke-width: 1.0;"/><path d="M830.1677,465.5 L830.1677,453.1069 L832.6164,453.1069 L832.6164,463.3418 L837.8542,463.3418 L837.8542,465.5 Z "/><text fill="#000000" font-family="Arial" font-size="11" lengthAdjust="spacingAndGlyphs" textLength="34" x="849.2" y="463.4934">Library</text><line style="stroke: #919871; stroke-width: 1.5;" x1="810.75" x2="893.75" y1="475.5" y2="475.5"/><text fill="#000000" font-family="Arial" font-size="10" lengthAdjust="spacingAndGlyphs" textLength="66" x="815.75" y="488.8799">version : 1.2.6</text><text fill="#000000" font-family="Arial" font-size="10" lengthAdjust="spacingAndGlyphs" textLength="73" x="815.75" y="500.3789">license : GPLv3</text><line style="stroke: #919871; stroke-width: 1.5;" x1="810.75" x2="893.75" y1="506.498" y2="506.498"/></a><a target="_top" xlink:href="../technology/packages/namespace_terradue_1_1_open_search.html" xlink:title="../technology/packages/namespace_terradue_1_1_open_search.html"><rect fill="#EEEBDC" filter="url(#f1)" height="70.998" style="stroke: #919871; stroke-width: 1.5;" width="85" x="483.75" y="628.5"/><ellipse cx="507.3" cy="644.5" fill="#00FFFF" rx="11" ry="11" style="stroke: #919871; stroke-width: 1.0;"/><path d="M504.1677,650.5 L504.1677,638.1069 L506.6164,638.1069 L506.6164,648.3418 L511.8542,648.3418 L511.8542,650.5 Z "/><text fill="#000000" font-family="Arial" font-size="11" lengthAdjust="spacingAndGlyphs" textLength="34" x="523.2" y="648.4934">Library</text><line style="stroke: #919871; stroke-width: 1.5;" x1="484.75" x2="567.75" y1="660.5" y2="660.5"/><text fill="#000000" font-family="Arial" font-size="10" lengthAdjust="spacingAndGlyphs" textLength="72" x="489.75" y="673.8799">version : 1.10.4</text><text fill="#000000" font-family="Arial" font-size="10" lengthAdjust="spacingAndGlyphs" textLength="73" x="489.75" y="685.3789">license : GPLv3</text><line style="stroke: #919871; stroke-width: 1.5;" x1="484.75" x2="567.75" y1="691.498" y2="691.498"/></a><a target="_top" xlink:href="../technology/packages/namespace_terradue_1_1_portal.html" xlink:title="../technology/packages/namespace_terradue_1_1_portal.html"><rect fill="#EEEBDC" filter="url(#f1)" height="70.998" style="stroke: #919871; stroke-width: 1.5;" width="101" x="651.75" y="443.5"/><ellipse cx="682.5" cy="459.5" fill="#00FFFF" rx="11" ry="11" style="stroke: #919871; stroke-width: 1.0;"/><path d="M679.3677,465.5 L679.3677,453.1069 L681.8164,453.1069 L681.8164,463.3418 L687.0542,463.3418 L687.0542,465.5 Z "/><text fill="#000000" font-family="Arial" font-size="11" lengthAdjust="spacingAndGlyphs" textLength="34" x="700" y="463.4934">Library</text><line style="stroke: #919871; stroke-width: 1.5;" x1="652.75" x2="751.75" y1="475.5" y2="475.5"/><text fill="#000000" font-family="Arial" font-size="10" lengthAdjust="spacingAndGlyphs" textLength="72" x="657.75" y="488.8799">version : 2.6.33</text><text fill="#000000" font-family="Arial" font-size="10" lengthAdjust="spacingAndGlyphs" textLength="89" x="657.75" y="500.3789">license : incubating</text><line style="stroke: #919871; stroke-width: 1.5;" x1="652.75" x2="751.75" y1="506.498" y2="506.498"/></a><a target="_top" xlink:href="../technology/packages/namespace_terradue_1_1_sandbox.html" xlink:title="../technology/packages/namespace_terradue_1_1_sandbox.html"><rect fill="#EEEBDC" filter="url(#f1)" height="70.998" style="stroke: #919871; stroke-width: 1.5;" width="101" x="1031.75" y="73.5"/><ellipse cx="1062.5" cy="89.5" fill="#00FFFF" rx="11" ry="11" style="stroke: #919871; stroke-width: 1.0;"/><path d="M1059.3677,95.5 L1059.3677,83.1069 L1061.8164,83.1069 L1061.8164,93.3418 L1067.0542,93.3418 L1067.0542,95.5 Z "/><text fill="#000000" font-family="Arial" font-size="11" lengthAdjust="spacingAndGlyphs" textLength="34" x="1080" y="93.4934">Library</text><line style="stroke: #919871; stroke-width: 1.5;" x1="1032.75" x2="1131.75" y1="105.5" y2="105.5"/><text fill="#000000" font-family="Arial" font-size="10" lengthAdjust="spacingAndGlyphs" textLength="66" x="1037.75" y="118.8799">version : 1.3.6</text><text fill="#000000" font-family="Arial" font-size="10" lengthAdjust="spacingAndGlyphs" textLength="89" x="1037.75" y="130.3789">license : incubating</text><line style="stroke: #919871; stroke-width: 1.5;" x1="1032.75" x2="1131.75" y1="136.498" y2="136.498"/></a><a target="_top" xlink:href="../technology/packages/namespace_terradue_1_1_tep_q_w.html" xlink:title="../technology/packages/namespace_terradue_1_1_tep_q_w.html"><rect fill="#EEEBDC" filter="url(#f1)" height="70.998" style="stroke: #919871; stroke-width: 1.5;" width="66" x="2022" y="73.5"/><ellipse cx="2037" cy="89.5" fill="#00FFFF" rx="11" ry="11" style="stroke: #919871; stroke-width: 1.0;"/><path d="M2033.8677,95.5 L2033.8677,83.1069 L2036.3164,83.1069 L2036.3164,93.3418 L2041.5542,93.3418 L2041.5542,95.5 Z "/><text fill="#000000" font-family="Arial" font-size="11" lengthAdjust="spacingAndGlyphs" textLength="34" x="2051" y="93.4934">Library</text><line style="stroke: #919871; stroke-width: 1.5;" x1="2023" x2="2087" y1="105.5" y2="105.5"/><text fill="#000000" font-family="Arial" font-size="10" lengthAdjust="spacingAndGlyphs" textLength="39" x="2028" y="118.8799">version :</text><text fill="#000000" font-family="Arial" font-size="10" lengthAdjust="spacingAndGlyphs" textLength="38" x="2028" y="130.3789">license :</text><line style="stroke: #919871; stroke-width: 1.5;" x1="2023" x2="2087" y1="136.498" y2="136.498"/></a><a target="_top" xlink:href="../technology/packages/namespace_terradue_1_1_web_service_1_1_model.html" xlink:title="../technology/packages/namespace_terradue_1_1_web_service_1_1_model.html"><rect fill="#EEEBDC" filter="url(#f1)" height="70.998" style="stroke: #919871; stroke-width: 1.5;" width="101" x="690.75" y="258.5"/><ellipse cx="721.5" cy="274.5" fill="#00FFFF" rx="11" ry="11" style="stroke: #919871; stroke-width: 1.0;"/><path d="M718.3677,280.5 L718.3677,268.1069 L720.8164,268.1069 L720.8164,278.3418 L726.0542,278.3418 L726.0542,280.5 Z "/><text fill="#000000" font-family="Arial" font-size="11" lengthAdjust="spacingAndGlyphs" textLength="34" x="739" y="278.4934">Library</text><line style="stroke: #919871; stroke-width: 1.5;" x1="691.75" x2="790.75" y1="290.5" y2="290.5"/><text fill="#000000" font-family="Arial" font-size="10" lengthAdjust="spacingAndGlyphs" textLength="66" x="696.75" y="303.8799">version : 1.1.3</text><text fill="#000000" font-family="Arial" font-size="10" lengthAdjust="spacingAndGlyphs" textLength="89" x="696.75" y="315.3789">license : incubating</text><line style="stroke: #919871; stroke-width: 1.5;" x1="691.75" x2="790.75" y1="321.498" y2="321.498"/></a><path d="M504.75,329.792 C513.262,346.893 525.874,366.292 543,378 C558.687,388.724 567.706,378.125 585,386 C613.891,399.155 641.998,420.872 663.42,439.903 " fill="none" style="stroke: #000000; stroke-width: 1.0; stroke-dasharray: 7.0,7.0;"/><polygon fill="#000000" points="667.341,443.423,663.3148,434.4347,663.6199,440.0833,657.9713,440.3884,667.341,443.423" style="stroke: #000000; stroke-width: 1.0;"/><text fill="#000000" font-family="Arial" font-size="11" lengthAdjust="spacingAndGlyphs" textLength="40" x="544" y="373.8179">requires</text><path d="M1035.69,329.796 C1021.89,338.818 1006.34,347.745 991,354 C941.039,374.368 925.348,369.939 872,378 C837.105,383.273 824.84,370.78 793,386 C768.126,397.89 746.188,419.522 730.088,438.823 " fill="none" style="stroke: #000000; stroke-width: 1.0; stroke-dasharray: 7.0,7.0;"/><polygon fill="#000000" points="726.536,443.157,735.3341,438.7305,729.7049,439.2894,729.146,433.6603,726.536,443.157" style="stroke: #000000; stroke-width: 1.0;"/><text fill="#000000" font-family="Arial" font-size="11" lengthAdjust="spacingAndGlyphs" textLength="40" x="971" y="373.8179">requires</text><path d="M1071.43,329.807 C1068.78,340.075 1066.32,351.402 1065,362 C1061.84,387.275 1062.54,415.88 1064.05,438.36 " fill="none" style="stroke: #000000; stroke-width: 1.0; stroke-dasharray: 7.0,7.0;"/><polygon fill="#000000" points="1064.4,443.351,1067.752,434.0901,1064.0456,438.3636,1059.7721,434.6572,1064.4,443.351" style="stroke: #000000; stroke-width: 1.0;"/><text fill="#000000" font-family="Arial" font-size="11" lengthAdjust="spacingAndGlyphs" textLength="40" x="1066" y="373.8179">requires</text><path d="M1107.9,329.852 C1131.06,361.015 1164.96,406.632 1189.02,439.001 " fill="none" style="stroke: #000000; stroke-width: 1.0; stroke-dasharray: 7.0,7.0;"/><polygon fill="#000000" points="1192.2,443.278,1190.0428,433.6683,1189.2179,439.2647,1183.6215,438.4397,1192.2,443.278" style="stroke: #000000; stroke-width: 1.0;"/><text fill="#000000" font-family="Arial" font-size="11" lengthAdjust="spacingAndGlyphs" textLength="40" x="1143" y="373.8179">requires</text><path d="M873.591,326.864 C848.558,343.464 818.331,364.707 793,386 C773.495,402.396 753.41,422.322 737.088,439.433 " fill="none" style="stroke: #000000; stroke-width: 1.0; stroke-dasharray: 7.0,7.0;"/><polygon fill="#000000" points="733.452,443.264,742.5491,439.49,736.8942,439.6375,736.7467,433.9826,733.452,443.264" style="stroke: #000000; stroke-width: 1.0;"/><text fill="#000000" font-family="Arial" font-size="11" lengthAdjust="spacingAndGlyphs" textLength="40" x="822" y="373.8179">requires</text><path d="M207.473,501.531 C275.5,536.015 408.406,603.389 479.122,639.2365 " fill="none" style="stroke: #000000; stroke-width: 1.0; stroke-dasharray: 7.0,7.0;"/><polygon fill="#000000" points="483.689,641.5514,477.4691,633.9151,479.229,639.2912,473.8529,641.0511,483.689,641.5514" style="stroke: #000000; stroke-width: 1.0;"/><text fill="#000000" font-family="Arial" font-size="11" lengthAdjust="spacingAndGlyphs" textLength="40" x="325" y="558.8179">requires</text><path d="M165,514.852 C165,545.761 165,590.888 165,623.206 " fill="none" style="stroke: #000000; stroke-width: 1.0; stroke-dasharray: 7.0,7.0;"/><polygon fill="#000000" points="165,628.278,169,619.278,165,623.278,161,619.278,165,628.278" style="stroke: #000000; stroke-width: 1.0;"/><text fill="#000000" font-family="Arial" font-size="11" lengthAdjust="spacingAndGlyphs" textLength="40" x="166" y="558.8179">requires</text><path d="M809.727,511.847 C796.905,521.012 782.607,530.753 769,539 C703.081,578.955 622.764,618.225 572.998,641.5319 " fill="none" style="stroke: #000000; stroke-width: 1.0; stroke-dasharray: 7.0,7.0;"/><polygon fill="#000000" points="568.279,643.7371,578.1261,643.5501,572.8087,641.62,574.7388,636.3026,568.279,643.7371" style="stroke: #000000; stroke-width: 1.0;"/><text fill="#000000" font-family="Arial" font-size="11" lengthAdjust="spacingAndGlyphs" textLength="40" x="751" y="558.8179">requires</text><path d="M852,514.852 C852,545.761 852,590.888 852,623.206 " fill="none" style="stroke: #000000; stroke-width: 1.0; stroke-dasharray: 7.0,7.0;"/><polygon fill="#000000" points="852,628.278,856,619.278,852,623.278,848,619.278,852,628.278" style="stroke: #000000; stroke-width: 1.0;"/><text fill="#000000" font-family="Arial" font-size="11" lengthAdjust="spacingAndGlyphs" textLength="40" x="853" y="558.8179">requires</text><path d="M526,514.852 C526,545.761 526,590.888 526,623.206 " fill="none" style="stroke: #000000; stroke-width: 1.0; stroke-dasharray: 7.0,7.0;"/><polygon fill="#000000" points="526,628.278,530,619.278,526,623.278,522,619.278,526,628.278" style="stroke: #000000; stroke-width: 1.0;"/><text fill="#000000" font-family="Arial" font-size="11" lengthAdjust="spacingAndGlyphs" textLength="40" x="527" y="558.8179">requires</text><path d="M389.995,514.852 C418.721,546.142 460.824,592.005 490.561,624.397 " fill="none" style="stroke: #000000; stroke-width: 1.0; stroke-dasharray: 7.0,7.0;"/><polygon fill="#000000" points="494.124,628.278,490.9836,618.9432,490.7424,624.595,485.0907,624.3538,494.124,628.278" style="stroke: #000000; stroke-width: 1.0;"/><text fill="#000000" font-family="Arial" font-size="11" lengthAdjust="spacingAndGlyphs" textLength="40" x="433" y="558.8179">requires</text><path d="M668.481,514.852 C638.388,546.142 594.28,592.005 563.127,624.397 " fill="none" style="stroke: #000000; stroke-width: 1.0; stroke-dasharray: 7.0,7.0;"/><polygon fill="#000000" points="559.394,628.278,568.5153,624.563,562.8596,624.6739,562.7487,619.0181,559.394,628.278" style="stroke: #000000; stroke-width: 1.0;"/><text fill="#000000" font-family="Arial" font-size="11" lengthAdjust="spacingAndGlyphs" textLength="40" x="636" y="558.8179">requires</text><path d="M1031.56,112.425 C924.71,118.728 681.209,139.649 631,201 C574.004,270.645 633.328,380.552 672.816,438.779 " fill="none" style="stroke: #000000; stroke-width: 1.0; stroke-dasharray: 7.0,7.0;"/><polygon fill="#000000" points="675.86,443.223,674.0752,433.5372,673.0349,439.0976,667.4746,438.0573,675.86,443.223" style="stroke: #000000; stroke-width: 1.0;"/><text fill="#000000" font-family="Arial" font-size="11" lengthAdjust="spacingAndGlyphs" textLength="40" x="632" y="297.8179">requires</text><path d="M1082,144.852 C1082,175.761 1082,220.888 1082,253.206 " fill="none" style="stroke: #000000; stroke-width: 1.0; stroke-dasharray: 7.0,7.0;"/><polygon fill="#000000" points="1082,258.278,1086,249.278,1082,253.278,1078,249.278,1082,258.278" style="stroke: #000000; stroke-width: 1.0;"/><text fill="#000000" font-family="Arial" font-size="11" lengthAdjust="spacingAndGlyphs" textLength="40" x="1083" y="188.8179">requires</text><path d="M1112.76,144.576 C1125.68,160.73 1139.81,180.825 1149,201 C1185.42,280.957 1204.49,383.012 1212.77,438.214 " fill="none" style="stroke: #000000; stroke-width: 1.0; stroke-dasharray: 7.0,7.0;"/><polygon fill="#000000" points="1213.54,443.408,1216.1795,433.9194,1212.8081,438.4619,1208.2656,435.0905,1213.54,443.408" style="stroke: #000000; stroke-width: 1.0;"/><text fill="#000000" font-family="Arial" font-size="11" lengthAdjust="spacingAndGlyphs" textLength="40" x="1198" y="297.8179">requires</text><path d="M733.573,329.852 C726.985,360.761 717.368,405.888 710.481,438.206 " fill="none" style="stroke: #000000; stroke-width: 1.0; stroke-dasharray: 7.0,7.0;"/><polygon fill="#000000" points="709.4,443.278,715.1887,435.3099,710.4426,438.3879,707.3646,433.6418,709.4,443.278" style="stroke: #000000; stroke-width: 1.0;"/><text fill="#000000" font-family="Arial" font-size="11" lengthAdjust="spacingAndGlyphs" textLength="40" x="728" y="373.8179">requires</text><text fill="#888888" font-family="sans-serif" font-size="10" lengthAdjust="spacingAndGlyphs" textLength="136" x="1003" y="751.668">Software Packages Diagram</text></g></svg>