<?xml version="1.0" encoding="UTF-8" standalone="yes"?><svg xmlns="http://www.w3.org/2000/svg" xmlns:xlink="http://www.w3.org/1999/xlink" height="219pt" style="width:248px;height:219px;" version="1.1" viewBox="0 0 248 219" width="248pt"><defs><filter height="300%" id="f1" width="300%" x="-1" y="-1"><feGaussianBlur result="blurOut" stdDeviation="2.0"/><feColorMatrix in="blurOut" result="blurOut2" type="matrix" values="0 0 0 0 0 0 0 0 0 0 0 0 0 0 0 0 0 0 .4 0"/><feOffset dx="4.0" dy="4.0" in="blurOut2" result="blurOut3"/><feBlend in="SourceGraphic" in2="blurOut3" mode="normal"/></filter></defs><g><polygon fill="#FFFFFF" filter="url(#f1)" points="22,24,230,24,237,42.6489,241,42.6489,241,212,22,212,22,24" style="stroke: #000000; stroke-width: 2.0;"/><line style="stroke: #000000; stroke-width: 2.0;" x1="22" x2="237" y1="42.6489" y2="42.6489"/><text fill="#000000" font-family="Arial" font-size="11" lengthAdjust="spacingAndGlyphs" textLength="202" x="25" y="37.3179">Terradue::ServiceModel::Ogc::OwsModel</text><a target="_top" xlink:href="../information/classes/class_terradue_1_1_service_model_1_1_ogc_1_1_ows_model_1_1_owc_resource.html" xlink:title="../information/classes/class_terradue_1_1_service_model_1_1_ogc_1_1_ows_model_1_1_owc_resource.html"><rect fill="#EEEBDC" filter="url(#f1)" height="139.9922" style="stroke: #919871; stroke-width: 1.5;" width="157" x="52.75" y="56"/><ellipse cx="92.05" cy="72" fill="#ADD1B2" rx="11" ry="11" style="stroke: #919871; stroke-width: 1.0;"/><path d="M95.0231,77.6431 Q94.4421,77.9419 93.8029,78.0913 Q93.1638,78.2407 92.4582,78.2407 Q89.9514,78.2407 88.6315,76.5889 Q87.3117,74.937 87.3117,71.8159 Q87.3117,68.6865 88.6315,67.0347 Q89.9514,65.3828 92.4582,65.3828 Q93.1638,65.3828 93.8112,65.5322 Q94.4587,65.6816 95.0231,65.9805 L95.0231,68.7031 Q94.3923,68.1221 93.7988,67.8523 Q93.2053,67.5825 92.5744,67.5825 Q91.2297,67.5825 90.5449,68.6492 Q89.8601,69.7158 89.8601,71.8159 Q89.8601,73.9077 90.5449,74.9744 Q91.2297,76.041 92.5744,76.041 Q93.2053,76.041 93.7988,75.7712 Q94.3923,75.5015 95.0231,74.9204 Z "/><text fill="#000000" font-family="Arial" font-size="11" lengthAdjust="spacingAndGlyphs" textLength="71" x="111.45" y="75.9934">OwcResource</text><line style="stroke: #919871; stroke-width: 1.5;" x1="53.75" x2="208.75" y1="88" y2="88"/><ellipse cx="63.75" cy="99" fill="none" rx="3" ry="3" style="stroke: #038048; stroke-width: 1.0;"/><text fill="#000000" font-family="Arial" font-size="10" lengthAdjust="spacingAndGlyphs" textLength="47" x="72.75" y="101.6304">Title:string</text><ellipse cx="63.75" cy="111" fill="none" rx="3" ry="3" style="stroke: #038048; stroke-width: 1.0;"/><text fill="#000000" font-family="Arial" font-size="10" lengthAdjust="spacingAndGlyphs" textLength="66" x="72.75" y="113.6304">Abstract:string</text><ellipse cx="63.75" cy="123" fill="none" rx="3" ry="3" style="stroke: #038048; stroke-width: 1.0;"/><text fill="#000000" font-family="Arial" font-size="10" lengthAdjust="spacingAndGlyphs" textLength="131" x="72.75" y="125.6304">UpdateDate:DateTimeOffset</text><ellipse cx="63.75" cy="135" fill="none" rx="3" ry="3" style="stroke: #038048; stroke-width: 1.0;"/><text fill="#000000" font-family="Arial" font-size="10" lengthAdjust="spacingAndGlyphs" textLength="98" x="72.75" y="137.6304">Authors:List&lt; string &gt;</text><ellipse cx="63.75" cy="147" fill="none" rx="3" ry="3" style="stroke: #038048; stroke-width: 1.0;"/><text fill="#000000" font-family="Arial" font-size="10" lengthAdjust="spacingAndGlyphs" textLength="71" x="72.75" y="149.6304">Publisher:string</text><ellipse cx="63.75" cy="159" fill="none" rx="3" ry="3" style="stroke: #038048; stroke-width: 1.0;"/><text fill="#000000" font-family="Arial" font-size="10" lengthAdjust="spacingAndGlyphs" textLength="111" x="72.75" y="161.6304">GeospatialExtent:object</text><ellipse cx="63.75" cy="171" fill="none" rx="3" ry="3" style="stroke: #038048; stroke-width: 1.0;"/><text fill="#000000" font-family="Arial" font-size="10" lengthAdjust="spacingAndGlyphs" textLength="85" x="72.75" y="173.6304">Preview:List&lt; Uri &gt;</text><ellipse cx="63.75" cy="183" fill="none" rx="3" ry="3" style="stroke: #038048; stroke-width: 1.0;"/><text fill="#000000" font-family="Arial" font-size="10" lengthAdjust="spacingAndGlyphs" textLength="114" x="72.75" y="185.6304">ContentByRef:List&lt; Uri &gt;</text><line style="stroke: #919871; stroke-width: 1.5;" x1="53.75" x2="208.75" y1="187.9922" y2="187.9922"/></a></g></svg>