<?xml version="1.0" encoding="UTF-8" standalone="yes"?><svg xmlns="http://www.w3.org/2000/svg" xmlns:xlink="http://www.w3.org/1999/xlink" height="154pt" style="width:197px;height:154px;" version="1.1" viewBox="0 0 197 154" width="197pt"><defs><filter height="300%" id="f1" width="300%" x="-1" y="-1"><feGaussianBlur result="blurOut" stdDeviation="2.0"/><feColorMatrix in="blurOut" result="blurOut2" type="matrix" values="0 0 0 0 0 0 0 0 0 0 0 0 0 0 0 0 0 0 .4 0"/><feOffset dx="4.0" dy="4.0" in="blurOut2" result="blurOut3"/><feBlend in="SourceGraphic" in2="blurOut3" mode="normal"/></filter></defs><g><polygon fill="#FFFFFF" filter="url(#f1)" points="22,24,107,24,114,43.6179,190,43.6179,190,147,22,147,22,24" style="stroke: #000000; stroke-width: 2.0;"/><line style="stroke: #000000; stroke-width: 2.0;" x1="22" x2="114" y1="43.6179" y2="43.6179"/><text fill="#000000" font-family="Arial" font-size="11" lengthAdjust="spacingAndGlyphs" textLength="79" x="25" y="37.4829">Terradue::Portal</text><a target="_top" xlink:href="../information/classes/class_terradue_1_1_portal_1_1_wps_provider.html" xlink:title="../information/classes/class_terradue_1_1_portal_1_1_wps_provider.html"><rect fill="#EEEBDC" filter="url(#f1)" height="72.76" style="stroke: #919871; stroke-width: 1.5;" width="136" x="38" y="57.5"/><ellipse cx="71.45" cy="73.5" fill="#ADD1B2" rx="11" ry="11" style="stroke: #919871; stroke-width: 1.0;"/><path d="M73.7938,69.1719 C72.8563,68.7344 72.2625,68.5938 71.3875,68.5938 C68.7625,68.5938 66.7625,70.6719 66.7625,73.3906 L66.7625,74.5156 C66.7625,77.0938 68.8719,78.9844 71.7625,78.9844 C72.9813,78.9844 74.1375,78.6875 74.8875,78.1406 C75.4656,77.7344 75.7938,77.2813 75.7938,76.8906 C75.7938,76.4375 75.4031,76.0469 74.9344,76.0469 C74.7156,76.0469 74.5125,76.125 74.325,76.3125 C73.8719,76.7969 73.8719,76.7969 73.6844,76.8906 C73.2625,77.1563 72.575,77.2813 71.8094,77.2813 C69.7625,77.2813 68.4656,76.1875 68.4656,74.4844 L68.4656,73.3906 C68.4656,71.6094 69.7156,70.2969 71.45,70.2969 C72.0281,70.2969 72.6375,70.4531 73.1063,70.7031 C73.5906,70.9844 73.7625,71.2031 73.8563,71.6094 C73.9188,72.0156 73.95,72.1406 74.0906,72.2656 C74.2313,72.4063 74.4656,72.5156 74.6844,72.5156 C74.95,72.5156 75.2156,72.375 75.3875,72.1563 C75.4969,72 75.5281,71.8125 75.5281,71.3906 L75.5281,69.9688 C75.5281,69.5313 75.5125,69.4063 75.4188,69.25 C75.2625,68.9844 74.9813,68.8438 74.6844,68.8438 C74.3875,68.8438 74.1844,68.9375 73.9656,69.25 L73.7938,69.1719 Z "/><text fill="#000000" font-family="Arial" font-size="11" lengthAdjust="spacingAndGlyphs" textLength="63" x="89.55" y="77.174">WpsProvider</text><line style="stroke: #919871; stroke-width: 1.5;" x1="39" x2="173" y1="89.5" y2="89.5"/><ellipse cx="49" cy="100.69" fill="none" rx="3" ry="3" style="stroke: #038048; stroke-width: 1.0;"/><text fill="#000000" font-family="Arial" font-size="10" lengthAdjust="spacingAndGlyphs" textLength="49" x="58" y="103.03">Proxy:bool</text><line style="stroke: #919871; stroke-width: 1.5;" x1="39" x2="173" y1="109.88" y2="109.88"/><ellipse cx="49" cy="121.07" fill="#84BE84" rx="3" ry="3" style="stroke: #038048; stroke-width: 1.0;"/><text fill="#000000" font-family="Arial" font-size="10" lengthAdjust="spacingAndGlyphs" textLength="110" x="58" y="123.41">StoreProcessOfferings()</text></a></g></svg>