<?xml version="1.0" encoding="UTF-8" standalone="yes"?><svg xmlns="http://www.w3.org/2000/svg" xmlns:xlink="http://www.w3.org/1999/xlink" height="306pt" style="width:308px;height:306px;" version="1.1" viewBox="0 0 308 306" width="308pt"><defs><filter height="300%" id="f1" width="300%" x="-1" y="-1"><feGaussianBlur result="blurOut" stdDeviation="2.0"/><feColorMatrix in="blurOut" result="blurOut2" type="matrix" values="0 0 0 0 0 0 0 0 0 0 0 0 0 0 0 0 0 0 .4 0"/><feOffset dx="4.0" dy="4.0" in="blurOut2" result="blurOut3"/><feBlend in="SourceGraphic" in2="blurOut3" mode="normal"/></filter></defs><g><polygon fill="#FFFFFF" filter="url(#f1)" points="22,24,107,24,114,43.6179,301,43.6179,301,299,22,299,22,24" style="stroke: #000000; stroke-width: 2.0;"/><line style="stroke: #000000; stroke-width: 2.0;" x1="22" x2="114" y1="43.6179" y2="43.6179"/><text fill="#000000" font-family="Arial" font-size="11" lengthAdjust="spacingAndGlyphs" textLength="79" x="25" y="37.4829">Terradue::Portal</text><a target="_top" xlink:href="../information/classes/class_terradue_1_1_portal_1_1_wps_process_offering.html" xlink:title="../information/classes/class_terradue_1_1_portal_1_1_wps_process_offering.html"><rect fill="#EEEBDC" filter="url(#f1)" height="60.38" style="stroke: #919871; stroke-width: 1.5;" width="185" x="59" y="57"/><ellipse cx="96.95" cy="73" fill="#ADD1B2" rx="11" ry="11" style="stroke: #919871; stroke-width: 1.0;"/><path d="M99.2938,68.6719 C98.3563,68.2344 97.7625,68.0938 96.8875,68.0938 C94.2625,68.0938 92.2625,70.1719 92.2625,72.8906 L92.2625,74.0156 C92.2625,76.5938 94.3719,78.4844 97.2625,78.4844 C98.4813,78.4844 99.6375,78.1875 100.3875,77.6406 C100.9656,77.2344 101.2938,76.7813 101.2938,76.3906 C101.2938,75.9375 100.9031,75.5469 100.4344,75.5469 C100.2156,75.5469 100.0125,75.625 99.825,75.8125 C99.3719,76.2969 99.3719,76.2969 99.1844,76.3906 C98.7625,76.6563 98.075,76.7813 97.3094,76.7813 C95.2625,76.7813 93.9656,75.6875 93.9656,73.9844 L93.9656,72.8906 C93.9656,71.1094 95.2156,69.7969 96.95,69.7969 C97.5281,69.7969 98.1375,69.9531 98.6063,70.2031 C99.0906,70.4844 99.2625,70.7031 99.3563,71.1094 C99.4188,71.5156 99.45,71.6406 99.5906,71.7656 C99.7313,71.9063 99.9656,72.0156 100.1844,72.0156 C100.45,72.0156 100.7156,71.875 100.8875,71.6563 C100.9969,71.5 101.0281,71.3125 101.0281,70.8906 L101.0281,69.4688 C101.0281,69.0313 101.0125,68.9063 100.9188,68.75 C100.7625,68.4844 100.4813,68.3438 100.1844,68.3438 C99.8875,68.3438 99.6844,68.4375 99.4656,68.75 L99.2938,68.6719 Z "/><text fill="#000000" font-family="Arial" font-size="11" lengthAdjust="spacingAndGlyphs" textLength="102" x="116.05" y="76.674">WpsProcessOffering</text><line style="stroke: #919871; stroke-width: 1.5;" x1="60" x2="243" y1="89" y2="89"/><ellipse cx="70" cy="100.19" fill="none" rx="3" ry="3" style="stroke: #038048; stroke-width: 1.0;"/><text fill="#000000" font-family="Arial" font-size="10" lengthAdjust="spacingAndGlyphs" textLength="159" x="79" y="102.53">FixedComputingResource:override</text><line style="stroke: #919871; stroke-width: 1.5;" x1="60" x2="243" y1="109.38" y2="109.38"/></a><rect fill="#EEEBDC" filter="url(#f1)" height="48" style="stroke: #919871; stroke-width: 1.5;" width="95" x="63" y="215"/><ellipse cx="78" cy="231" fill="#ADD1B2" rx="11" ry="11" style="stroke: #919871; stroke-width: 1.0;"/><path d="M80.3438,226.6719 C79.4063,226.2344 78.8125,226.0938 77.9375,226.0938 C75.3125,226.0938 73.3125,228.1719 73.3125,230.8906 L73.3125,232.0156 C73.3125,234.5938 75.4219,236.4844 78.3125,236.4844 C79.5313,236.4844 80.6875,236.1875 81.4375,235.6406 C82.0156,235.2344 82.3438,234.7813 82.3438,234.3906 C82.3438,233.9375 81.9531,233.5469 81.4844,233.5469 C81.2656,233.5469 81.0625,233.625 80.875,233.8125 C80.4219,234.2969 80.4219,234.2969 80.2344,234.3906 C79.8125,234.6563 79.125,234.7813 78.3594,234.7813 C76.3125,234.7813 75.0156,233.6875 75.0156,231.9844 L75.0156,230.8906 C75.0156,229.1094 76.2656,227.7969 78,227.7969 C78.5781,227.7969 79.1875,227.9531 79.6563,228.2031 C80.1406,228.4844 80.3125,228.7031 80.4063,229.1094 C80.4688,229.5156 80.5,229.6406 80.6406,229.7656 C80.7813,229.9063 81.0156,230.0156 81.2344,230.0156 C81.5,230.0156 81.7656,229.875 81.9375,229.6563 C82.0469,229.5 82.0781,229.3125 82.0781,228.8906 L82.0781,227.4688 C82.0781,227.0313 82.0625,226.9063 81.9688,226.75 C81.8125,226.4844 81.5313,226.3438 81.2344,226.3438 C80.9375,226.3438 80.7344,226.4375 80.5156,226.75 L80.3438,226.6719 Z "/><text fill="#000000" font-family="Arial" font-size="11" lengthAdjust="spacingAndGlyphs" textLength="63" x="92" y="234.674">WpsProvider</text><line style="stroke: #919871; stroke-width: 1.5;" x1="64" x2="157" y1="247" y2="247"/><line style="stroke: #919871; stroke-width: 1.5;" x1="64" x2="157" y1="255" y2="255"/><rect fill="#EEEBDC" filter="url(#f1)" height="48" style="stroke: #919871; stroke-width: 1.5;" width="69" x="217" y="214"/><ellipse cx="232" cy="230" fill="#ADD1B2" rx="11" ry="11" style="stroke: #919871; stroke-width: 1.0;"/><path d="M234.3438,225.6719 C233.4063,225.2344 232.8125,225.0938 231.9375,225.0938 C229.3125,225.0938 227.3125,227.1719 227.3125,229.8906 L227.3125,231.0156 C227.3125,233.5938 229.4219,235.4844 232.3125,235.4844 C233.5313,235.4844 234.6875,235.1875 235.4375,234.6406 C236.0156,234.2344 236.3438,233.7813 236.3438,233.3906 C236.3438,232.9375 235.9531,232.5469 235.4844,232.5469 C235.2656,232.5469 235.0625,232.625 234.875,232.8125 C234.4219,233.2969 234.4219,233.2969 234.2344,233.3906 C233.8125,233.6563 233.125,233.7813 232.3594,233.7813 C230.3125,233.7813 229.0156,232.6875 229.0156,230.9844 L229.0156,229.8906 C229.0156,228.1094 230.2656,226.7969 232,226.7969 C232.5781,226.7969 233.1875,226.9531 233.6563,227.2031 C234.1406,227.4844 234.3125,227.7031 234.4063,228.1094 C234.4688,228.5156 234.5,228.6406 234.6406,228.7656 C234.7813,228.9063 235.0156,229.0156 235.2344,229.0156 C235.5,229.0156 235.7656,228.875 235.9375,228.6563 C236.0469,228.5 236.0781,228.3125 236.0781,227.8906 L236.0781,226.4688 C236.0781,226.0313 236.0625,225.9063 235.9688,225.75 C235.8125,225.4844 235.5313,225.3438 235.2344,225.3438 C234.9375,225.3438 234.7344,225.4375 234.5156,225.75 L234.3438,225.6719 Z "/><text fill="#000000" font-family="Arial" font-size="11" lengthAdjust="spacingAndGlyphs" textLength="37" x="246" y="233.674">Service</text><line style="stroke: #919871; stroke-width: 1.5;" x1="218" x2="285" y1="246" y2="246"/><line style="stroke: #919871; stroke-width: 1.5;" x1="218" x2="285" y1="254" y2="254"/><path d="M139.733,129.815 C132.527,157.197 123.439,191.73 117.436,214.544 " fill="none" style="stroke: #000000; stroke-width: 1.0;"/><polygon fill="#000000" points="143.097,117.03,137.7016,121.8144,140.0428,128.6348,145.4382,123.8505,143.097,117.03" style="stroke: #000000; stroke-width: 1.0;"/><text fill="#000000" font-family="Arial" font-size="11" lengthAdjust="spacingAndGlyphs" textLength="18" x="135" y="158.4829">has</text><text fill="#000000" font-family="Arial" font-size="11" lengthAdjust="spacingAndGlyphs" textLength="6" x="122.975" y="203.6686">1</text><path d="M170.996,117.194 C186.132,140.049 207.088,171.692 223.755,196.861 " fill="none" style="stroke: #000000; stroke-width: 1.0;"/><polygon fill="none" points="229.783,193.284,234.99,213.824,218.11,201.014,229.783,193.284" style="stroke: #000000; stroke-width: 1.0;"/><text fill="#000000" font-family="Arial" font-size="11" lengthAdjust="spacingAndGlyphs" textLength="55" x="202" y="158.4829">implements</text></g></svg>