<?xml version="1.0" encoding="UTF-8" standalone="yes"?><svg xmlns="http://www.w3.org/2000/svg" xmlns:xlink="http://www.w3.org/1999/xlink" height="586pt" style="width:308px;height:586px;" version="1.1" viewBox="0 0 308 586" width="308pt"><defs><filter height="300%" id="f1" width="300%" x="-1" y="-1"><feGaussianBlur result="blurOut" stdDeviation="2.0"/><feColorMatrix in="blurOut" result="blurOut2" type="matrix" values="0 0 0 0 0 0 0 0 0 0 0 0 0 0 0 0 0 0 .4 0"/><feOffset dx="4.0" dy="4.0" in="blurOut2" result="blurOut3"/><feBlend in="SourceGraphic" in2="blurOut3" mode="normal"/></filter></defs><g><polygon fill="#FFFFFF" filter="url(#f1)" points="22,24,107,24,114,43.6179,301,43.6179,301,579,22,579,22,24" style="stroke: #000000; stroke-width: 2.0;"/><line style="stroke: #000000; stroke-width: 2.0;" x1="22" x2="114" y1="43.6179" y2="43.6179"/><text fill="#000000" font-family="Arial" font-size="11" lengthAdjust="spacingAndGlyphs" textLength="79" x="25" y="37.4829">Terradue::Portal</text><a target="_top" xlink:href="../information/classes/class_terradue_1_1_portal_1_1_ify_context.html" xlink:title="../information/classes/class_terradue_1_1_portal_1_1_ify_context.html"><rect fill="#EEEBDC" filter="url(#f1)" height="382.2597" style="stroke: #919871; stroke-width: 1.5;" width="233" x="45" y="57"/><ellipse cx="132.25" cy="73" fill="#ADD1B2" rx="11" ry="11" style="stroke: #919871; stroke-width: 1.0;"/><path d="M134.5938,68.6719 C133.6563,68.2344 133.0625,68.0938 132.1875,68.0938 C129.5625,68.0938 127.5625,70.1719 127.5625,72.8906 L127.5625,74.0156 C127.5625,76.5938 129.6719,78.4844 132.5625,78.4844 C133.7813,78.4844 134.9375,78.1875 135.6875,77.6406 C136.2656,77.2344 136.5938,76.7813 136.5938,76.3906 C136.5938,75.9375 136.2031,75.5469 135.7344,75.5469 C135.5156,75.5469 135.3125,75.625 135.125,75.8125 C134.6719,76.2969 134.6719,76.2969 134.4844,76.3906 C134.0625,76.6563 133.375,76.7813 132.6094,76.7813 C130.5625,76.7813 129.2656,75.6875 129.2656,73.9844 L129.2656,72.8906 C129.2656,71.1094 130.5156,69.7969 132.25,69.7969 C132.8281,69.7969 133.4375,69.9531 133.9063,70.2031 C134.3906,70.4844 134.5625,70.7031 134.6563,71.1094 C134.7188,71.5156 134.75,71.6406 134.8906,71.7656 C135.0313,71.9063 135.2656,72.0156 135.4844,72.0156 C135.75,72.0156 136.0156,71.875 136.1875,71.6563 C136.2969,71.5 136.3281,71.3125 136.3281,70.8906 L136.3281,69.4688 C136.3281,69.0313 136.3125,68.9063 136.2188,68.75 C136.0625,68.4844 135.7813,68.3438 135.4844,68.3438 C135.1875,68.3438 134.9844,68.4375 134.7656,68.75 L134.5938,68.6719 Z "/><text fill="#000000" font-family="Arial" font-size="11" lengthAdjust="spacingAndGlyphs" textLength="50" x="152.75" y="76.674">IfyContext</text><line style="stroke: #919871; stroke-width: 1.5;" x1="46" x2="277" y1="89" y2="89"/><ellipse cx="56" cy="100.19" fill="none" rx="3" ry="3" style="stroke: #038048; stroke-width: 1.0;"/><text fill="#000000" font-family="Arial" font-size="10" lengthAdjust="spacingAndGlyphs" textLength="79" x="65" y="102.53">IsInteractive:bool</text><ellipse cx="56" cy="112.57" fill="none" rx="3" ry="3" style="stroke: #038048; stroke-width: 1.0;"/><text fill="#000000" font-family="Arial" font-size="10" lengthAdjust="spacingAndGlyphs" textLength="57" x="65" y="114.91">LogLevel:int</text><ellipse cx="56" cy="124.95" fill="none" rx="3" ry="3" style="stroke: #038048; stroke-width: 1.0;"/><text fill="#000000" font-family="Arial" font-size="10" lengthAdjust="spacingAndGlyphs" textLength="70" x="65" y="127.29">DebugLevel:int</text><ellipse cx="56" cy="137.33" fill="none" rx="3" ry="3" style="stroke: #038048; stroke-width: 1.0;"/><text fill="#000000" font-family="Arial" font-size="10" lengthAdjust="spacingAndGlyphs" textLength="44" x="65" y="139.67">UserId:int</text><ellipse cx="56" cy="149.7099" fill="none" rx="3" ry="3" style="stroke: #038048; stroke-width: 1.0;"/><text fill="#000000" font-family="Arial" font-size="10" lengthAdjust="spacingAndGlyphs" textLength="53" x="65" y="152.0499">OwnerId:int</text><ellipse cx="56" cy="162.0899" fill="none" rx="3" ry="3" style="stroke: #038048; stroke-width: 1.0;"/><text fill="#000000" font-family="Arial" font-size="10" lengthAdjust="spacingAndGlyphs" textLength="95" x="65" y="164.4299">IsUserIdentified:bool</text><ellipse cx="56" cy="174.4699" fill="none" rx="3" ry="3" style="stroke: #038048; stroke-width: 1.0;"/><text fill="#000000" font-family="Arial" font-size="10" lengthAdjust="spacingAndGlyphs" textLength="117" x="65" y="176.8099">IsUserAuthenticated:bool</text><ellipse cx="56" cy="186.8499" fill="none" rx="3" ry="3" style="stroke: #038048; stroke-width: 1.0;"/><text fill="#000000" font-family="Arial" font-size="10" lengthAdjust="spacingAndGlyphs" textLength="207" x="65" y="189.1899">AuthenticationMethod:AuthenticationMethod</text><ellipse cx="56" cy="199.2299" fill="none" rx="3" ry="3" style="stroke: #038048; stroke-width: 1.0;"/><text fill="#000000" font-family="Arial" font-size="10" lengthAdjust="spacingAndGlyphs" textLength="60" x="65" y="201.5699">UserLevel:int</text><ellipse cx="56" cy="211.6099" fill="none" rx="3" ry="3" style="stroke: #038048; stroke-width: 1.0;"/><text fill="#000000" font-family="Arial" font-size="10" lengthAdjust="spacingAndGlyphs" textLength="85" x="65" y="213.9499">UserCaption:string</text><ellipse cx="56" cy="223.9899" fill="none" rx="3" ry="3" style="stroke: #038048; stroke-width: 1.0;"/><text fill="#000000" font-family="Arial" font-size="10" lengthAdjust="spacingAndGlyphs" textLength="75" x="65" y="226.3299">Username:string</text><line style="stroke: #919871; stroke-width: 1.5;" x1="46" x2="277" y1="233.1799" y2="233.1799"/><ellipse cx="56" cy="244.3699" fill="#84BE84" rx="3" ry="3" style="stroke: #038048; stroke-width: 1.0;"/><text fill="#000000" font-family="Arial" font-size="10" lengthAdjust="spacingAndGlyphs" textLength="32" x="65" y="246.7099">Open()</text><ellipse cx="56" cy="256.7498" fill="#84BE84" rx="3" ry="3" style="stroke: #038048; stroke-width: 1.0;"/><text fill="#000000" font-family="Arial" font-size="10" lengthAdjust="spacingAndGlyphs" textLength="32" x="65" y="259.0898">Close()</text><ellipse cx="56" cy="269.1298" fill="#84BE84" rx="3" ry="3" style="stroke: #038048; stroke-width: 1.0;"/><text fill="#000000" font-family="Arial" font-size="10" lengthAdjust="spacingAndGlyphs" textLength="92" x="65" y="271.4698">LoadConfiguration()</text><ellipse cx="56" cy="281.5098" fill="#84BE84" rx="3" ry="3" style="stroke: #038048; stroke-width: 1.0;"/><text fill="#000000" font-family="Arial" font-size="10" lengthAdjust="spacingAndGlyphs" textLength="82" x="65" y="283.8498">StartTransaction()</text><ellipse cx="56" cy="293.8898" fill="#84BE84" rx="3" ry="3" style="stroke: #038048; stroke-width: 1.0;"/><text fill="#000000" font-family="Arial" font-size="10" lengthAdjust="spacingAndGlyphs" textLength="80" x="65" y="296.2298">GetConfigValue()</text><ellipse cx="56" cy="306.2698" fill="#84BE84" rx="3" ry="3" style="stroke: #038048; stroke-width: 1.0;"/><text fill="#000000" font-family="Arial" font-size="10" lengthAdjust="spacingAndGlyphs" textLength="91" x="65" y="308.6098">EndImpersonation()</text><ellipse cx="56" cy="318.6498" fill="#84BE84" rx="3" ry="3" style="stroke: #038048; stroke-width: 1.0;"/><text fill="#000000" font-family="Arial" font-size="10" lengthAdjust="spacingAndGlyphs" textLength="70" x="65" y="320.9898">SendMailAlert()</text><ellipse cx="56" cy="331.0298" fill="#84BE84" rx="3" ry="3" style="stroke: #038048; stroke-width: 1.0;"/><text fill="#000000" font-family="Arial" font-size="10" lengthAdjust="spacingAndGlyphs" textLength="70" x="65" y="333.3698">CreateLogger()</text><ellipse cx="56" cy="343.4098" fill="#84BE84" rx="3" ry="3" style="stroke: #038048; stroke-width: 1.0;"/><text fill="#000000" font-family="Arial" font-size="10" lengthAdjust="spacingAndGlyphs" textLength="55" x="65" y="345.7498">LogDebug()</text><ellipse cx="56" cy="355.7897" fill="#84BE84" rx="3" ry="3" style="stroke: #038048; stroke-width: 1.0;"/><text fill="#000000" font-family="Arial" font-size="10" lengthAdjust="spacingAndGlyphs" textLength="46" x="65" y="358.1297">LogError()</text><ellipse cx="56" cy="368.1697" fill="#84BE84" rx="3" ry="3" style="stroke: #038048; stroke-width: 1.0;"/><text fill="#000000" font-family="Arial" font-size="10" lengthAdjust="spacingAndGlyphs" textLength="69" x="65" y="370.5097">LogFatalError()</text><ellipse cx="56" cy="380.5497" fill="#84BE84" rx="3" ry="3" style="stroke: #038048; stroke-width: 1.0;"/><text fill="#000000" font-family="Arial" font-size="10" lengthAdjust="spacingAndGlyphs" textLength="42" x="65" y="382.8897">LogInfo()</text><ellipse cx="56" cy="392.9297" fill="#84BE84" rx="3" ry="3" style="stroke: #038048; stroke-width: 1.0;"/><text fill="#000000" font-family="Arial" font-size="10" lengthAdjust="spacingAndGlyphs" textLength="62" x="65" y="395.2697">LogWarning()</text><ellipse cx="56" cy="405.3097" fill="#84BE84" rx="3" ry="3" style="stroke: #038048; stroke-width: 1.0;"/><text fill="#000000" font-family="Arial" font-size="10" lengthAdjust="spacingAndGlyphs" textLength="43" x="65" y="407.6497">LogStat()</text><rect fill="#F24D5C" height="6" style="stroke: #C82930; stroke-width: 1.0;" width="6" x="53" y="414.6897"/><text fill="#000000" font-family="Arial" font-size="10" lengthAdjust="spacingAndGlyphs" textLength="62" x="65" y="420.0297">SetReporter()</text><rect fill="#F24D5C" height="6" style="stroke: #C82930; stroke-width: 1.0;" width="6" x="53" y="427.0697"/><text fill="#000000" font-family="Arial" font-size="10" lengthAdjust="spacingAndGlyphs" textLength="67" x="65" y="432.4097">SetOriginator()</text></a><rect fill="#EEEBDC" filter="url(#f1)" height="48" style="stroke: #919871; stroke-width: 1.5;" width="108" x="38" y="515"/><ellipse cx="53" cy="531" fill="#ADD1B2" rx="11" ry="11" style="stroke: #919871; stroke-width: 1.0;"/><path d="M55.3438,526.6719 C54.4063,526.2344 53.8125,526.0938 52.9375,526.0938 C50.3125,526.0938 48.3125,528.1719 48.3125,530.8906 L48.3125,532.0156 C48.3125,534.5938 50.4219,536.4844 53.3125,536.4844 C54.5313,536.4844 55.6875,536.1875 56.4375,535.6406 C57.0156,535.2344 57.3438,534.7813 57.3438,534.3906 C57.3438,533.9375 56.9531,533.5469 56.4844,533.5469 C56.2656,533.5469 56.0625,533.625 55.875,533.8125 C55.4219,534.2969 55.4219,534.2969 55.2344,534.3906 C54.8125,534.6563 54.125,534.7813 53.3594,534.7813 C51.3125,534.7813 50.0156,533.6875 50.0156,531.9844 L50.0156,530.8906 C50.0156,529.1094 51.2656,527.7969 53,527.7969 C53.5781,527.7969 54.1875,527.9531 54.6563,528.2031 C55.1406,528.4844 55.3125,528.7031 55.4063,529.1094 C55.4688,529.5156 55.5,529.6406 55.6406,529.7656 C55.7813,529.9063 56.0156,530.0156 56.2344,530.0156 C56.5,530.0156 56.7656,529.875 56.9375,529.6563 C57.0469,529.5 57.0781,529.3125 57.0781,528.8906 L57.0781,527.4688 C57.0781,527.0313 57.0625,526.9063 56.9688,526.75 C56.8125,526.4844 56.5313,526.3438 56.2344,526.3438 C55.9375,526.3438 55.7344,526.4375 55.5156,526.75 L55.3438,526.6719 Z "/><text fill="#000000" font-family="Arial" font-size="11" lengthAdjust="spacingAndGlyphs" textLength="76" x="67" y="534.674">IfyLocalContext</text><line style="stroke: #919871; stroke-width: 1.5;" x1="39" x2="145" y1="547" y2="547"/><line style="stroke: #919871; stroke-width: 1.5;" x1="39" x2="145" y1="555" y2="555"/><rect fill="#EEEBDC" filter="url(#f1)" height="48" style="stroke: #919871; stroke-width: 1.5;" width="104" x="181" y="515"/><ellipse cx="196" cy="531" fill="#ADD1B2" rx="11" ry="11" style="stroke: #919871; stroke-width: 1.0;"/><path d="M198.3438,526.6719 C197.4063,526.2344 196.8125,526.0938 195.9375,526.0938 C193.3125,526.0938 191.3125,528.1719 191.3125,530.8906 L191.3125,532.0156 C191.3125,534.5938 193.4219,536.4844 196.3125,536.4844 C197.5313,536.4844 198.6875,536.1875 199.4375,535.6406 C200.0156,535.2344 200.3438,534.7813 200.3438,534.3906 C200.3438,533.9375 199.9531,533.5469 199.4844,533.5469 C199.2656,533.5469 199.0625,533.625 198.875,533.8125 C198.4219,534.2969 198.4219,534.2969 198.2344,534.3906 C197.8125,534.6563 197.125,534.7813 196.3594,534.7813 C194.3125,534.7813 193.0156,533.6875 193.0156,531.9844 L193.0156,530.8906 C193.0156,529.1094 194.2656,527.7969 196,527.7969 C196.5781,527.7969 197.1875,527.9531 197.6563,528.2031 C198.1406,528.4844 198.3125,528.7031 198.4063,529.1094 C198.4688,529.5156 198.5,529.6406 198.6406,529.7656 C198.7813,529.9063 199.0156,530.0156 199.2344,530.0156 C199.5,530.0156 199.7656,529.875 199.9375,529.6563 C200.0469,529.5 200.0781,529.3125 200.0781,528.8906 L200.0781,527.4688 C200.0781,527.0313 200.0625,526.9063 199.9688,526.75 C199.8125,526.4844 199.5313,526.3438 199.2344,526.3438 C198.9375,526.3438 198.7344,526.4375 198.5156,526.75 L198.3438,526.6719 Z "/><text fill="#000000" font-family="Arial" font-size="11" lengthAdjust="spacingAndGlyphs" textLength="72" x="210" y="534.674">IfyWebContext</text><line style="stroke: #919871; stroke-width: 1.5;" x1="182" x2="284" y1="547" y2="547"/><line style="stroke: #919871; stroke-width: 1.5;" x1="182" x2="284" y1="555" y2="555"/><path d="M115.649,439.261 C110.741,459.962 106.159,479.286 102.3598,495.3087 " fill="none" style="stroke: #000000; stroke-width: 1.0;"/><polygon fill="none" points="109.133,497.0846,97.7073,514.93,95.5106,493.854,109.133,497.0846" style="stroke: #000000; stroke-width: 1.0;"/><text fill="#000000" font-family="Arial" font-size="11" lengthAdjust="spacingAndGlyphs" textLength="55" x="108" y="480.4829">implements</text><path d="M208.322,439.261 C213.444,459.962 218.225,479.286 222.19,495.3087 " fill="none" style="stroke: #000000; stroke-width: 1.0;"/><polygon fill="none" points="229.036,493.834,227.045,514.93,215.446,497.1967,229.036,493.834" style="stroke: #000000; stroke-width: 1.0;"/><text fill="#000000" font-family="Arial" font-size="11" lengthAdjust="spacingAndGlyphs" textLength="55" x="220" y="480.4829">implements</text></g></svg>