<?xml version="1.0" encoding="UTF-8" standalone="yes"?><svg xmlns="http://www.w3.org/2000/svg" xmlns:xlink="http://www.w3.org/1999/xlink" height="166pt" style="width:235px;height:166px;" version="1.1" viewBox="0 0 235 166" width="235pt"><defs><filter height="300%" id="f1" width="300%" x="-1" y="-1"><feGaussianBlur result="blurOut" stdDeviation="2.0"/><feColorMatrix in="blurOut" result="blurOut2" type="matrix" values="0 0 0 0 0 0 0 0 0 0 0 0 0 0 0 0 0 0 .4 0"/><feOffset dx="4.0" dy="4.0" in="blurOut2" result="blurOut3"/><feBlend in="SourceGraphic" in2="blurOut3" mode="normal"/></filter></defs><g><polygon fill="#FFFFFF" filter="url(#f1)" points="22,24,107,24,114,43.6179,228,43.6179,228,159,22,159,22,24" style="stroke: #000000; stroke-width: 2.0;"/><line style="stroke: #000000; stroke-width: 2.0;" x1="22" x2="114" y1="43.6179" y2="43.6179"/><text fill="#000000" font-family="Arial" font-size="11" lengthAdjust="spacingAndGlyphs" textLength="79" x="25" y="37.4829">Terradue::Portal</text><a target="_top" xlink:href="../information/classes/class_terradue_1_1_portal_1_1_password_authentication_type.html" xlink:title="../information/classes/class_terradue_1_1_portal_1_1_password_authentication_type.html"><rect fill="#EEEBDC" filter="url(#f1)" height="85.14" style="stroke: #919871; stroke-width: 1.5;" width="174" x="38" y="57.5"/><ellipse cx="53" cy="73.5" fill="#ADD1B2" rx="11" ry="11" style="stroke: #919871; stroke-width: 1.0;"/><path d="M55.3438,69.1719 C54.4063,68.7344 53.8125,68.5938 52.9375,68.5938 C50.3125,68.5938 48.3125,70.6719 48.3125,73.3906 L48.3125,74.5156 C48.3125,77.0938 50.4219,78.9844 53.3125,78.9844 C54.5313,78.9844 55.6875,78.6875 56.4375,78.1406 C57.0156,77.7344 57.3438,77.2813 57.3438,76.8906 C57.3438,76.4375 56.9531,76.0469 56.4844,76.0469 C56.2656,76.0469 56.0625,76.125 55.875,76.3125 C55.4219,76.7969 55.4219,76.7969 55.2344,76.8906 C54.8125,77.1563 54.125,77.2813 53.3594,77.2813 C51.3125,77.2813 50.0156,76.1875 50.0156,74.4844 L50.0156,73.3906 C50.0156,71.6094 51.2656,70.2969 53,70.2969 C53.5781,70.2969 54.1875,70.4531 54.6563,70.7031 C55.1406,70.9844 55.3125,71.2031 55.4063,71.6094 C55.4688,72.0156 55.5,72.1406 55.6406,72.2656 C55.7813,72.4063 56.0156,72.5156 56.2344,72.5156 C56.5,72.5156 56.7656,72.375 56.9375,72.1563 C57.0469,72 57.0781,71.8125 57.0781,71.3906 L57.0781,69.9688 C57.0781,69.5313 57.0625,69.4063 56.9688,69.25 C56.8125,68.9844 56.5313,68.8438 56.2344,68.8438 C55.9375,68.8438 55.7344,68.9375 55.5156,69.25 L55.3438,69.1719 Z "/><text fill="#000000" font-family="Arial" font-size="11" lengthAdjust="spacingAndGlyphs" textLength="142" x="67" y="77.174">PasswordAuthenticationType</text><line style="stroke: #919871; stroke-width: 1.5;" x1="39" x2="211" y1="89.5" y2="89.5"/><ellipse cx="49" cy="100.69" fill="none" rx="3" ry="3" style="stroke: #038048; stroke-width: 1.0;"/><text fill="#000000" font-family="Arial" font-size="10" lengthAdjust="spacingAndGlyphs" textLength="130" x="58" y="103.03">ForceStrongPasswords:bool</text><ellipse cx="49" cy="113.07" fill="none" rx="3" ry="3" style="stroke: #038048; stroke-width: 1.0;"/><text fill="#000000" font-family="Arial" font-size="10" lengthAdjust="spacingAndGlyphs" textLength="110" x="58" y="115.41">PasswordExpireTime:int</text><ellipse cx="49" cy="125.45" fill="none" rx="3" ry="3" style="stroke: #038048; stroke-width: 1.0;"/><text fill="#000000" font-family="Arial" font-size="10" lengthAdjust="spacingAndGlyphs" textLength="92" x="58" y="127.79">MaxFailedLogins:int</text><line style="stroke: #919871; stroke-width: 1.5;" x1="39" x2="211" y1="134.64" y2="134.64"/></a></g></svg>