<?xml version="1.0" encoding="UTF-8" standalone="yes"?><svg xmlns="http://www.w3.org/2000/svg" xmlns:xlink="http://www.w3.org/1999/xlink" height="960pt" style="width:839px;height:960px;" version="1.1" viewBox="0 0 839 960" width="839pt"><defs><filter height="300%" id="f1" width="300%" x="-1" y="-1"><feGaussianBlur result="blurOut" stdDeviation="2.0"/><feColorMatrix in="blurOut" result="blurOut2" type="matrix" values="0 0 0 0 0 0 0 0 0 0 0 0 0 0 0 0 0 0 .4 0"/><feOffset dx="4.0" dy="4.0" in="blurOut2" result="blurOut3"/><feBlend in="SourceGraphic" in2="blurOut3" mode="normal"/></filter></defs><g><ellipse cx="382.125" cy="20" fill="#000000" filter="url(#f1)" rx="10" ry="10" style="stroke: none; stroke-width: 1.0;"/><rect fill="#FEFECE" filter="url(#f1)" height="34.1328" rx="12.5" ry="12.5" style="stroke: #A80036; stroke-width: 1.5;" width="162" x="301.125" y="50"/><text fill="#000000" font-family="sans-serif" font-size="12" lengthAdjust="spacingAndGlyphs" textLength="142" x="311.125" y="71.6016">read session information</text><polygon fill="#FEFECE" filter="url(#f1)" points="347.625,104.1328,416.625,104.1328,428.625,116.1328,416.625,128.1328,347.625,128.1328,335.625,116.1328,347.625,104.1328" style="stroke: #A80036; stroke-width: 1.5;"/><text fill="#000000" font-family="sans-serif" font-size="11" lengthAdjust="spacingAndGlyphs" textLength="69" x="347.625" y="120.29">valid session</text><text fill="#000000" font-family="sans-serif" font-size="11" lengthAdjust="spacingAndGlyphs" textLength="18" x="317.625" y="113.8125">yes</text><text fill="#000000" font-family="sans-serif" font-size="11" lengthAdjust="spacingAndGlyphs" textLength="15" x="428.625" y="113.8125">No</text><rect fill="#FEFECE" filter="url(#f1)" height="34.1328" rx="12.5" ry="12.5" style="stroke: #A80036; stroke-width: 1.5;" width="179" x="10" y="148.1328"/><text fill="#000000" font-family="sans-serif" font-size="12" lengthAdjust="spacingAndGlyphs" textLength="159" x="20" y="169.7344">Load user info from session</text><polygon fill="#FEFECE" filter="url(#f1)" points="595.25,204.2676,734.25,204.2676,746.25,216.2676,734.25,228.2676,595.25,228.2676,583.25,216.2676,595.25,204.2676" style="stroke: #A80036; stroke-width: 1.5;"/><text fill="#000000" font-family="sans-serif" font-size="11" lengthAdjust="spacingAndGlyphs" textLength="139" x="595.25" y="220.4248">Authentication successful</text><text fill="#000000" font-family="sans-serif" font-size="11" lengthAdjust="spacingAndGlyphs" textLength="18" x="565.25" y="213.9473">yes</text><polygon fill="#FEFECE" filter="url(#f1)" points="538.75,248.2676,597.75,248.2676,609.75,260.2676,597.75,272.2676,538.75,272.2676,526.75,260.2676,538.75,248.2676" style="stroke: #A80036; stroke-width: 1.5;"/><text fill="#000000" font-family="sans-serif" font-size="11" lengthAdjust="spacingAndGlyphs" textLength="59" x="538.75" y="264.4248">user exists</text><text fill="#000000" font-family="sans-serif" font-size="11" lengthAdjust="spacingAndGlyphs" textLength="14" x="512.75" y="257.9473">no</text><polygon fill="#FEFECE" filter="url(#f1)" points="346.5,292.2676,577.5,292.2676,589.5,304.2676,577.5,316.2676,346.5,316.2676,334.5,304.2676,346.5,292.2676" style="stroke: #A80036; stroke-width: 1.5;"/><text fill="#000000" font-family="sans-serif" font-size="11" lengthAdjust="spacingAndGlyphs" textLength="231" x="346.5" y="308.4248">authentication method allows user creation</text><text fill="#000000" font-family="sans-serif" font-size="11" lengthAdjust="spacingAndGlyphs" textLength="18" x="316.5" y="301.9473">yes</text><rect fill="#FEFECE" filter="url(#f1)" height="34.1328" rx="12.5" ry="12.5" style="stroke: #A80036; stroke-width: 1.5;" width="133" x="253" y="336.2676"/><text fill="#000000" font-family="sans-serif" font-size="12" lengthAdjust="spacingAndGlyphs" textLength="113" x="263" y="357.8691">create user account</text><polygon fill="#FEFECE" filter="url(#f1)" points="462,380.4004,474,392.4004,462,404.4004,450,392.4004,462,380.4004" style="stroke: #A80036; stroke-width: 1.5;"/><polygon fill="#FEFECE" filter="url(#f1)" points="568.25,414.4004,580.25,426.4004,568.25,438.4004,556.25,426.4004,568.25,414.4004" style="stroke: #A80036; stroke-width: 1.5;"/><polygon fill="#FEFECE" filter="url(#f1)" points="664.75,448.4004,676.75,460.4004,664.75,472.4004,652.75,460.4004,664.75,448.4004" style="stroke: #A80036; stroke-width: 1.5;"/><polygon fill="#FEFECE" filter="url(#f1)" points="519.25,148.1328,810.25,148.1328,822.25,160.1328,810.25,172.1328,519.25,172.1328,507.25,160.1328,519.25,148.1328" style="stroke: #A80036; stroke-width: 1.5;"/><text fill="#000000" font-family="sans-serif" font-size="11" lengthAdjust="spacingAndGlyphs" textLength="18" x="668.75" y="182.7676">yes</text><text fill="#000000" font-family="sans-serif" font-size="11" lengthAdjust="spacingAndGlyphs" textLength="291" x="519.25" y="164.29">user not authenticated &amp; next authentication method ?</text><text fill="#000000" font-family="sans-serif" font-size="11" lengthAdjust="spacingAndGlyphs" textLength="14" x="493.25" y="157.8125">no</text><polygon fill="#FEFECE" filter="url(#f1)" points="614.75,514.4004,714.75,514.4004,726.75,526.4004,714.75,538.4004,614.75,538.4004,602.75,526.4004,614.75,514.4004" style="stroke: #A80036; stroke-width: 1.5;"/><text fill="#000000" font-family="sans-serif" font-size="11" lengthAdjust="spacingAndGlyphs" textLength="100" x="614.75" y="530.5576">user authenticated</text><text fill="#000000" font-family="sans-serif" font-size="11" lengthAdjust="spacingAndGlyphs" textLength="18" x="584.75" y="524.0801">yes</text><polygon fill="#FEFECE" filter="url(#f1)" points="540.5,558.4004,621.5,558.4004,633.5,570.4004,621.5,582.4004,540.5,582.4004,528.5,570.4004,540.5,558.4004" style="stroke: #A80036; stroke-width: 1.5;"/><text fill="#000000" font-family="sans-serif" font-size="11" lengthAdjust="spacingAndGlyphs" textLength="81" x="540.5" y="574.5576">user is enabled</text><text fill="#000000" font-family="sans-serif" font-size="11" lengthAdjust="spacingAndGlyphs" textLength="14" x="514.5" y="568.0801">no</text><polygon fill="#FEFECE" filter="url(#f1)" points="385.5,602.4004,581.5,602.4004,593.5,614.4004,581.5,626.4004,385.5,626.4004,373.5,614.4004,385.5,602.4004" style="stroke: #A80036; stroke-width: 1.5;"/><text fill="#000000" font-family="sans-serif" font-size="11" lengthAdjust="spacingAndGlyphs" textLength="190" x="388.5" y="618.5576">configuration needs user activation</text><text fill="#000000" font-family="sans-serif" font-size="11" lengthAdjust="spacingAndGlyphs" textLength="18" x="355.5" y="612.0801">yes</text><rect fill="#FEFECE" filter="url(#f1)" height="34.1328" rx="12.5" ry="12.5" style="stroke: #A80036; stroke-width: 1.5;" width="205" x="256" y="646.4004"/><text fill="#000000" font-family="sans-serif" font-size="12" lengthAdjust="spacingAndGlyphs" textLength="185" x="266" y="668.002">Throw User Activation Exception</text><ellipse cx="358.5" cy="725.5332" fill="none" filter="url(#f1)" rx="10" ry="10" style="stroke: #000000; stroke-width: 1.0;"/><ellipse cx="359" cy="726.0332" fill="#000000" filter="url(#f1)" rx="6" ry="6" style="stroke: none; stroke-width: 1.0;"/><polygon fill="#FEFECE" filter="url(#f1)" points="581,751.7332,593,763.7332,581,775.7332,569,763.7332,581,751.7332" style="stroke: #A80036; stroke-width: 1.5;"/><rect fill="#FEFECE" filter="url(#f1)" height="34.1328" rx="12.5" ry="12.5" style="stroke: #A80036; stroke-width: 1.5;" width="214" x="474" y="795.7332"/><text fill="#000000" font-family="sans-serif" font-size="12" lengthAdjust="spacingAndGlyphs" textLength="194" x="484" y="817.3348">Load user info and create session</text><polygon fill="#FEFECE" filter="url(#f1)" points="664.75,839.866,676.75,851.866,664.75,863.866,652.75,851.866,664.75,839.866" style="stroke: #A80036; stroke-width: 1.5;"/><polygon fill="#FEFECE" filter="url(#f1)" points="382.125,873.866,394.125,885.866,382.125,897.866,370.125,885.866,382.125,873.866" style="stroke: #A80036; stroke-width: 1.5;"/><ellipse cx="382.125" cy="927.866" fill="none" filter="url(#f1)" rx="10" ry="10" style="stroke: #000000; stroke-width: 1.0;"/><ellipse cx="382.625" cy="928.366" fill="#000000" filter="url(#f1)" rx="6" ry="6" style="stroke: none; stroke-width: 1.0;"/><line style="stroke: #A80036; stroke-width: 1.5;" x1="382.125" x2="382.125" y1="30" y2="50"/><polygon fill="#A80036" points="378.125,40,382.125,50,386.125,40,382.125,44" style="stroke: #A80036; stroke-width: 1.0;"/><line style="stroke: #A80036; stroke-width: 1.5;" x1="319.5" x2="334.5" y1="304.2676" y2="304.2676"/><line style="stroke: #A80036; stroke-width: 1.5;" x1="319.5" x2="319.5" y1="304.2676" y2="336.2676"/><polygon fill="#A80036" points="315.5,326.2676,319.5,336.2676,323.5,326.2676,319.5,330.2676" style="stroke: #A80036; stroke-width: 1.0;"/><line style="stroke: #A80036; stroke-width: 1.5;" x1="589.5" x2="604.5" y1="304.2676" y2="304.2676"/><polygon fill="#A80036" points="600.5,348.734,604.5,358.734,608.5,348.734,604.5,352.734" style="stroke: #A80036; stroke-width: 1.5;"/><line style="stroke: #A80036; stroke-width: 1.5;" x1="604.5" x2="604.5" y1="304.2676" y2="392.4004"/><line style="stroke: #A80036; stroke-width: 1.5;" x1="474" x2="604.5" y1="392.4004" y2="392.4004"/><polygon fill="#A80036" points="484,388.4004,474,392.4004,484,396.4004,480,392.4004" style="stroke: #A80036; stroke-width: 1.0;"/><line style="stroke: #A80036; stroke-width: 1.5;" x1="319.5" x2="319.5" y1="370.4004" y2="392.4004"/><line style="stroke: #A80036; stroke-width: 1.5;" x1="319.5" x2="450" y1="392.4004" y2="392.4004"/><polygon fill="#A80036" points="440,388.4004,450,392.4004,440,396.4004,444,392.4004" style="stroke: #A80036; stroke-width: 1.0;"/><line style="stroke: #A80036; stroke-width: 1.5;" x1="462" x2="526.75" y1="260.2676" y2="260.2676"/><line style="stroke: #A80036; stroke-width: 1.5;" x1="462" x2="462" y1="260.2676" y2="292.2676"/><polygon fill="#A80036" points="458,282.2676,462,292.2676,466,282.2676,462,286.2676" style="stroke: #A80036; stroke-width: 1.0;"/><line style="stroke: #A80036; stroke-width: 1.5;" x1="609.75" x2="674.5" y1="260.2676" y2="260.2676"/><polygon fill="#A80036" points="670.5,354.134,674.5,364.134,678.5,354.134,674.5,358.134" style="stroke: #A80036; stroke-width: 1.5;"/><line style="stroke: #A80036; stroke-width: 1.5;" x1="674.5" x2="674.5" y1="260.2676" y2="426.4004"/><line style="stroke: #A80036; stroke-width: 1.5;" x1="580.25" x2="674.5" y1="426.4004" y2="426.4004"/><polygon fill="#A80036" points="590.25,422.4004,580.25,426.4004,590.25,430.4004,586.25,426.4004" style="stroke: #A80036; stroke-width: 1.0;"/><line style="stroke: #A80036; stroke-width: 1.5;" x1="462" x2="462" y1="404.4004" y2="426.4004"/><line style="stroke: #A80036; stroke-width: 1.5;" x1="462" x2="556.25" y1="426.4004" y2="426.4004"/><polygon fill="#A80036" points="546.25,422.4004,556.25,426.4004,546.25,430.4004,550.25,426.4004" style="stroke: #A80036; stroke-width: 1.0;"/><line style="stroke: #A80036; stroke-width: 1.5;" x1="568.25" x2="583.25" y1="216.2676" y2="216.2676"/><line style="stroke: #A80036; stroke-width: 1.5;" x1="568.25" x2="568.25" y1="216.2676" y2="248.2676"/><polygon fill="#A80036" points="564.25,238.2676,568.25,248.2676,572.25,238.2676,568.25,242.2676" style="stroke: #A80036; stroke-width: 1.0;"/><line style="stroke: #A80036; stroke-width: 1.5;" x1="746.25" x2="761.25" y1="216.2676" y2="216.2676"/><polygon fill="#A80036" points="757.25,359.534,761.25,369.534,765.25,359.534,761.25,363.534" style="stroke: #A80036; stroke-width: 1.5;"/><line style="stroke: #A80036; stroke-width: 1.5;" x1="761.25" x2="761.25" y1="216.2676" y2="460.4004"/><line style="stroke: #A80036; stroke-width: 1.5;" x1="676.75" x2="761.25" y1="460.4004" y2="460.4004"/><polygon fill="#A80036" points="686.75,456.4004,676.75,460.4004,686.75,464.4004,682.75,460.4004" style="stroke: #A80036; stroke-width: 1.0;"/><line style="stroke: #A80036; stroke-width: 1.5;" x1="568.25" x2="568.25" y1="438.4004" y2="460.4004"/><line style="stroke: #A80036; stroke-width: 1.5;" x1="568.25" x2="652.75" y1="460.4004" y2="460.4004"/><polygon fill="#A80036" points="642.75,456.4004,652.75,460.4004,642.75,464.4004,646.75,460.4004" style="stroke: #A80036; stroke-width: 1.0;"/><line style="stroke: #A80036; stroke-width: 1.5;" x1="664.75" x2="664.75" y1="172.1328" y2="204.2676"/><polygon fill="#A80036" points="660.75,194.2676,664.75,204.2676,668.75,194.2676,664.75,198.2676" style="stroke: #A80036; stroke-width: 1.0;"/><line style="stroke: #A80036; stroke-width: 1.5;" x1="664.75" x2="664.75" y1="472.4004" y2="482.4004"/><line style="stroke: #A80036; stroke-width: 1.5;" x1="664.75" x2="834.25" y1="482.4004" y2="482.4004"/><polygon fill="#A80036" points="830.25,355.534,834.25,345.534,838.25,355.534,834.25,351.534" style="stroke: #A80036; stroke-width: 1.5;"/><line style="stroke: #A80036; stroke-width: 1.5;" x1="834.25" x2="834.25" y1="160.1328" y2="482.4004"/><line style="stroke: #A80036; stroke-width: 1.5;" x1="822.25" x2="834.25" y1="160.1328" y2="160.1328"/><polygon fill="#A80036" points="832.25,156.1328,822.25,160.1328,832.25,164.1328,828.25,160.1328" style="stroke: #A80036; stroke-width: 1.0;"/><line style="stroke: #A80036; stroke-width: 1.5;" x1="241" x2="507.25" y1="160.1328" y2="160.1328"/><polygon fill="#A80036" points="237,353.534,241,363.534,245,353.534,241,357.534" style="stroke: #A80036; stroke-width: 1.5;"/><line style="stroke: #A80036; stroke-width: 1.5;" x1="241" x2="241" y1="160.1328" y2="499.4004"/><line style="stroke: #A80036; stroke-width: 1.5;" x1="241" x2="664.75" y1="499.4004" y2="499.4004"/><line style="stroke: #A80036; stroke-width: 1.5;" x1="664.75" x2="664.75" y1="499.4004" y2="514.4004"/><polygon fill="#A80036" points="660.75,504.4004,664.75,514.4004,668.75,504.4004,664.75,508.4004" style="stroke: #A80036; stroke-width: 1.0;"/><line style="stroke: #A80036; stroke-width: 1.5;" x1="358.5" x2="358.5" y1="680.5332" y2="715.5332"/><polygon fill="#A80036" points="354.5,705.5332,358.5,715.5332,362.5,705.5332,358.5,709.5332" style="stroke: #A80036; stroke-width: 1.0;"/><line style="stroke: #A80036; stroke-width: 1.5;" x1="358.5" x2="373.5" y1="614.4004" y2="614.4004"/><line style="stroke: #A80036; stroke-width: 1.5;" x1="358.5" x2="358.5" y1="614.4004" y2="646.4004"/><polygon fill="#A80036" points="354.5,636.4004,358.5,646.4004,362.5,636.4004,358.5,640.4004" style="stroke: #A80036; stroke-width: 1.0;"/><line style="stroke: #A80036; stroke-width: 1.5;" x1="593.5" x2="608.5" y1="614.4004" y2="614.4004"/><polygon fill="#A80036" points="604.5,686.3668,608.5,696.3668,612.5,686.3668,608.5,690.3668" style="stroke: #A80036; stroke-width: 1.5;"/><line style="stroke: #A80036; stroke-width: 1.5;" x1="608.5" x2="608.5" y1="614.4004" y2="746.7332"/><line style="stroke: #A80036; stroke-width: 1.5;" x1="483.5" x2="608.5" y1="746.7332" y2="746.7332"/><line style="stroke: #A80036; stroke-width: 1.5;" x1="483.5" x2="483.5" y1="746.7332" y2="763.7332"/><line style="stroke: #A80036; stroke-width: 1.5;" x1="483.5" x2="569" y1="763.7332" y2="763.7332"/><polygon fill="#A80036" points="559,759.7332,569,763.7332,559,767.7332,563,763.7332" style="stroke: #A80036; stroke-width: 1.0;"/><line style="stroke: #A80036; stroke-width: 1.5;" x1="483.5" x2="528.5" y1="570.4004" y2="570.4004"/><line style="stroke: #A80036; stroke-width: 1.5;" x1="483.5" x2="483.5" y1="570.4004" y2="602.4004"/><polygon fill="#A80036" points="479.5,592.4004,483.5,602.4004,487.5,592.4004,483.5,596.4004" style="stroke: #A80036; stroke-width: 1.0;"/><line style="stroke: #A80036; stroke-width: 1.5;" x1="633.5" x2="678.5" y1="570.4004" y2="570.4004"/><polygon fill="#A80036" points="674.5,691.7668,678.5,701.7668,682.5,691.7668,678.5,695.7668" style="stroke: #A80036; stroke-width: 1.5;"/><line style="stroke: #A80036; stroke-width: 1.5;" x1="678.5" x2="678.5" y1="570.4004" y2="763.7332"/><line style="stroke: #A80036; stroke-width: 1.5;" x1="593" x2="678.5" y1="763.7332" y2="763.7332"/><polygon fill="#A80036" points="603,759.7332,593,763.7332,603,767.7332,599,763.7332" style="stroke: #A80036; stroke-width: 1.0;"/><line style="stroke: #A80036; stroke-width: 1.5;" x1="581" x2="581" y1="775.7332" y2="795.7332"/><polygon fill="#A80036" points="577,785.7332,581,795.7332,585,785.7332,581,789.7332" style="stroke: #A80036; stroke-width: 1.0;"/><line style="stroke: #A80036; stroke-width: 1.5;" x1="581" x2="602.75" y1="526.4004" y2="526.4004"/><line style="stroke: #A80036; stroke-width: 1.5;" x1="581" x2="581" y1="526.4004" y2="558.4004"/><polygon fill="#A80036" points="577,548.4004,581,558.4004,585,548.4004,581,552.4004" style="stroke: #A80036; stroke-width: 1.0;"/><line style="stroke: #A80036; stroke-width: 1.5;" x1="726.75" x2="748.5" y1="526.4004" y2="526.4004"/><polygon fill="#A80036" points="744.5,731.7332,748.5,741.7332,752.5,731.7332,748.5,735.7332" style="stroke: #A80036; stroke-width: 1.5;"/><line style="stroke: #A80036; stroke-width: 1.5;" x1="748.5" x2="748.5" y1="526.4004" y2="851.866"/><line style="stroke: #A80036; stroke-width: 1.5;" x1="676.75" x2="748.5" y1="851.866" y2="851.866"/><polygon fill="#A80036" points="686.75,847.866,676.75,851.866,686.75,855.866,682.75,851.866" style="stroke: #A80036; stroke-width: 1.0;"/><line style="stroke: #A80036; stroke-width: 1.5;" x1="581" x2="581" y1="829.866" y2="851.866"/><line style="stroke: #A80036; stroke-width: 1.5;" x1="581" x2="652.75" y1="851.866" y2="851.866"/><polygon fill="#A80036" points="642.75,847.866,652.75,851.866,642.75,855.866,646.75,851.866" style="stroke: #A80036; stroke-width: 1.0;"/><line style="stroke: #A80036; stroke-width: 1.5;" x1="99.5" x2="335.625" y1="116.1328" y2="116.1328"/><line style="stroke: #A80036; stroke-width: 1.5;" x1="99.5" x2="99.5" y1="116.1328" y2="148.1328"/><polygon fill="#A80036" points="95.5,138.1328,99.5,148.1328,103.5,138.1328,99.5,142.1328" style="stroke: #A80036; stroke-width: 1.0;"/><line style="stroke: #A80036; stroke-width: 1.5;" x1="428.625" x2="664.75" y1="116.1328" y2="116.1328"/><line style="stroke: #A80036; stroke-width: 1.5;" x1="664.75" x2="664.75" y1="116.1328" y2="148.1328"/><polygon fill="#A80036" points="660.75,138.1328,664.75,148.1328,668.75,138.1328,664.75,142.1328" style="stroke: #A80036; stroke-width: 1.0;"/><line style="stroke: #A80036; stroke-width: 1.5;" x1="99.5" x2="99.5" y1="182.2656" y2="885.866"/><line style="stroke: #A80036; stroke-width: 1.5;" x1="99.5" x2="370.125" y1="885.866" y2="885.866"/><polygon fill="#A80036" points="360.125,881.866,370.125,885.866,360.125,889.866,364.125,885.866" style="stroke: #A80036; stroke-width: 1.0;"/><line style="stroke: #A80036; stroke-width: 1.5;" x1="664.75" x2="664.75" y1="863.866" y2="885.866"/><line style="stroke: #A80036; stroke-width: 1.5;" x1="394.125" x2="664.75" y1="885.866" y2="885.866"/><polygon fill="#A80036" points="404.125,881.866,394.125,885.866,404.125,889.866,400.125,885.866" style="stroke: #A80036; stroke-width: 1.0;"/><line style="stroke: #A80036; stroke-width: 1.5;" x1="382.125" x2="382.125" y1="84.1328" y2="104.1328"/><polygon fill="#A80036" points="378.125,94.1328,382.125,104.1328,386.125,94.1328,382.125,98.1328" style="stroke: #A80036; stroke-width: 1.0;"/><line style="stroke: #A80036; stroke-width: 1.5;" x1="382.125" x2="382.125" y1="897.866" y2="917.866"/><polygon fill="#A80036" points="378.125,907.866,382.125,917.866,386.125,907.866,382.125,911.866" style="stroke: #A80036; stroke-width: 1.0;"/><text fill="#888888" font-family="sans-serif" font-size="10" lengthAdjust="spacingAndGlyphs" textLength="213" x="317.625" y="947.534">Authentication mechanism Activity Diagram</text><text fill="#888888" font-family="sans-serif" font-size="10" lengthAdjust="spacingAndGlyphs" textLength="73" x="387.625" y="959.3113">(c) Terradue Srl</text></g></svg>