<?xml version="1.0" encoding="UTF-8" standalone="yes"?><svg xmlns="http://www.w3.org/2000/svg" xmlns:xlink="http://www.w3.org/1999/xlink" height="306pt" style="width:559px;height:306px;" version="1.1" viewBox="0 0 559 306" width="559pt"><defs><filter height="300%" id="f1" width="300%" x="-1" y="-1"><feGaussianBlur result="blurOut" stdDeviation="2.0"/><feColorMatrix in="blurOut" result="blurOut2" type="matrix" values="0 0 0 0 0 0 0 0 0 0 0 0 0 0 0 0 0 0 .4 0"/><feOffset dx="4.0" dy="4.0" in="blurOut2" result="blurOut3"/><feBlend in="SourceGraphic" in2="blurOut3" mode="normal"/></filter></defs><g><polygon fill="#FFFFFF" filter="url(#f1)" points="22,24,107,24,114,43.6179,552,43.6179,552,299,22,299,22,24" style="stroke: #000000; stroke-width: 2.0;"/><line style="stroke: #000000; stroke-width: 2.0;" x1="22" x2="114" y1="43.6179" y2="43.6179"/><text fill="#000000" font-family="Arial" font-size="11" lengthAdjust="spacingAndGlyphs" textLength="79" x="25" y="37.4829">Terradue::Portal</text><a xlink:href="../information/classes/class_terradue_1_1_portal_1_1_task.html" xlink:title="../information/classes/class_terradue_1_1_portal_1_1_task.html"><rect fill="#EEEBDC" filter="url(#f1)" height="60.38" style="stroke: #919871; stroke-width: 1.5;" width="92" x="236" y="57"/><ellipse cx="266.75" cy="73" fill="#ADD1B2" rx="11" ry="11" style="stroke: #919871; stroke-width: 1.0;"/><path d="M269.0938,68.6719 C268.1563,68.2344 267.5625,68.0938 266.6875,68.0938 C264.0625,68.0938 262.0625,70.1719 262.0625,72.8906 L262.0625,74.0156 C262.0625,76.5938 264.1719,78.4844 267.0625,78.4844 C268.2813,78.4844 269.4375,78.1875 270.1875,77.6406 C270.7656,77.2344 271.0938,76.7813 271.0938,76.3906 C271.0938,75.9375 270.7031,75.5469 270.2344,75.5469 C270.0156,75.5469 269.8125,75.625 269.625,75.8125 C269.1719,76.2969 269.1719,76.2969 268.9844,76.3906 C268.5625,76.6563 267.875,76.7813 267.1094,76.7813 C265.0625,76.7813 263.7656,75.6875 263.7656,73.9844 L263.7656,72.8906 C263.7656,71.1094 265.0156,69.7969 266.75,69.7969 C267.3281,69.7969 267.9375,69.9531 268.4063,70.2031 C268.8906,70.4844 269.0625,70.7031 269.1563,71.1094 C269.2188,71.5156 269.25,71.6406 269.3906,71.7656 C269.5313,71.9063 269.7656,72.0156 269.9844,72.0156 C270.25,72.0156 270.5156,71.875 270.6875,71.6563 C270.7969,71.5 270.8281,71.3125 270.8281,70.8906 L270.8281,69.4688 C270.8281,69.0313 270.8125,68.9063 270.7188,68.75 C270.5625,68.4844 270.2813,68.3438 269.9844,68.3438 C269.6875,68.3438 269.4844,68.4375 269.2656,68.75 L269.0938,68.6719 Z "/><text fill="#000000" font-family="Arial" font-size="11" lengthAdjust="spacingAndGlyphs" textLength="25" x="284.25" y="76.674">Task</text><line style="stroke: #919871; stroke-width: 1.5;" x1="237" x2="327" y1="89" y2="89"/><ellipse cx="247" cy="100.19" fill="none" rx="3" ry="3" style="stroke: #038048; stroke-width: 1.0;"/><text fill="#000000" font-family="Arial" font-size="10" lengthAdjust="spacingAndGlyphs" textLength="66" x="256" y="102.53">Priority:double</text><line style="stroke: #919871; stroke-width: 1.5;" x1="237" x2="327" y1="109.38" y2="109.38"/></a><rect fill="#EEEBDC" filter="url(#f1)" height="48" style="stroke: #919871; stroke-width: 1.5;" width="69" x="63" y="215"/><ellipse cx="78" cy="231" fill="#ADD1B2" rx="11" ry="11" style="stroke: #919871; stroke-width: 1.0;"/><path d="M80.3438,226.6719 C79.4063,226.2344 78.8125,226.0938 77.9375,226.0938 C75.3125,226.0938 73.3125,228.1719 73.3125,230.8906 L73.3125,232.0156 C73.3125,234.5938 75.4219,236.4844 78.3125,236.4844 C79.5313,236.4844 80.6875,236.1875 81.4375,235.6406 C82.0156,235.2344 82.3438,234.7813 82.3438,234.3906 C82.3438,233.9375 81.9531,233.5469 81.4844,233.5469 C81.2656,233.5469 81.0625,233.625 80.875,233.8125 C80.4219,234.2969 80.4219,234.2969 80.2344,234.3906 C79.8125,234.6563 79.125,234.7813 78.3594,234.7813 C76.3125,234.7813 75.0156,233.6875 75.0156,231.9844 L75.0156,230.8906 C75.0156,229.1094 76.2656,227.7969 78,227.7969 C78.5781,227.7969 79.1875,227.9531 79.6563,228.2031 C80.1406,228.4844 80.3125,228.7031 80.4063,229.1094 C80.4688,229.5156 80.5,229.6406 80.6406,229.7656 C80.7813,229.9063 81.0156,230.0156 81.2344,230.0156 C81.5,230.0156 81.7656,229.875 81.9375,229.6563 C82.0469,229.5 82.0781,229.3125 82.0781,228.8906 L82.0781,227.4688 C82.0781,227.0313 82.0625,226.9063 81.9688,226.75 C81.8125,226.4844 81.5313,226.3438 81.2344,226.3438 C80.9375,226.3438 80.7344,226.4375 80.5156,226.75 L80.3438,226.6719 Z "/><text fill="#000000" font-family="Arial" font-size="11" lengthAdjust="spacingAndGlyphs" textLength="37" x="92" y="234.674">Service</text><line style="stroke: #919871; stroke-width: 1.5;" x1="64" x2="131" y1="247" y2="247"/><line style="stroke: #919871; stroke-width: 1.5;" x1="64" x2="131" y1="255" y2="255"/><rect fill="#EEEBDC" filter="url(#f1)" height="48" style="stroke: #919871; stroke-width: 1.5;" width="132" x="216" y="215"/><ellipse cx="231" cy="231" fill="#ADD1B2" rx="11" ry="11" style="stroke: #919871; stroke-width: 1.0;"/><path d="M233.3438,226.6719 C232.4063,226.2344 231.8125,226.0938 230.9375,226.0938 C228.3125,226.0938 226.3125,228.1719 226.3125,230.8906 L226.3125,232.0156 C226.3125,234.5938 228.4219,236.4844 231.3125,236.4844 C232.5313,236.4844 233.6875,236.1875 234.4375,235.6406 C235.0156,235.2344 235.3438,234.7813 235.3438,234.3906 C235.3438,233.9375 234.9531,233.5469 234.4844,233.5469 C234.2656,233.5469 234.0625,233.625 233.875,233.8125 C233.4219,234.2969 233.4219,234.2969 233.2344,234.3906 C232.8125,234.6563 232.125,234.7813 231.3594,234.7813 C229.3125,234.7813 228.0156,233.6875 228.0156,231.9844 L228.0156,230.8906 C228.0156,229.1094 229.2656,227.7969 231,227.7969 C231.5781,227.7969 232.1875,227.9531 232.6563,228.2031 C233.1406,228.4844 233.3125,228.7031 233.4063,229.1094 C233.4688,229.5156 233.5,229.6406 233.6406,229.7656 C233.7813,229.9063 234.0156,230.0156 234.2344,230.0156 C234.5,230.0156 234.7656,229.875 234.9375,229.6563 C235.0469,229.5 235.0781,229.3125 235.0781,228.8906 L235.0781,227.4688 C235.0781,227.0313 235.0625,226.9063 234.9688,226.75 C234.8125,226.4844 234.5313,226.3438 234.2344,226.3438 C233.9375,226.3438 233.7344,226.4375 233.5156,226.75 L233.3438,226.6719 Z "/><text fill="#000000" font-family="Arial" font-size="11" lengthAdjust="spacingAndGlyphs" textLength="100" x="245" y="234.674">ComputingResource</text><line style="stroke: #919871; stroke-width: 1.5;" x1="217" x2="347" y1="247" y2="247"/><line style="stroke: #919871; stroke-width: 1.5;" x1="217" x2="347" y1="255" y2="255"/><rect fill="#EEEBDC" filter="url(#f1)" height="48" style="stroke: #919871; stroke-width: 1.5;" width="81" x="431" y="215"/><ellipse cx="446" cy="231" fill="#ADD1B2" rx="11" ry="11" style="stroke: #919871; stroke-width: 1.0;"/><path d="M448.3438,226.6719 C447.4063,226.2344 446.8125,226.0938 445.9375,226.0938 C443.3125,226.0938 441.3125,228.1719 441.3125,230.8906 L441.3125,232.0156 C441.3125,234.5938 443.4219,236.4844 446.3125,236.4844 C447.5313,236.4844 448.6875,236.1875 449.4375,235.6406 C450.0156,235.2344 450.3438,234.7813 450.3438,234.3906 C450.3438,233.9375 449.9531,233.5469 449.4844,233.5469 C449.2656,233.5469 449.0625,233.625 448.875,233.8125 C448.4219,234.2969 448.4219,234.2969 448.2344,234.3906 C447.8125,234.6563 447.125,234.7813 446.3594,234.7813 C444.3125,234.7813 443.0156,233.6875 443.0156,231.9844 L443.0156,230.8906 C443.0156,229.1094 444.2656,227.7969 446,227.7969 C446.5781,227.7969 447.1875,227.9531 447.6563,228.2031 C448.1406,228.4844 448.3125,228.7031 448.4063,229.1094 C448.4688,229.5156 448.5,229.6406 448.6406,229.7656 C448.7813,229.9063 449.0156,230.0156 449.2344,230.0156 C449.5,230.0156 449.7656,229.875 449.9375,229.6563 C450.0469,229.5 450.0781,229.3125 450.0781,228.8906 L450.0781,227.4688 C450.0781,227.0313 450.0625,226.9063 449.9688,226.75 C449.8125,226.4844 449.5313,226.3438 449.2344,226.3438 C448.9375,226.3438 448.7344,226.4375 448.5156,226.75 L448.3438,226.6719 Z "/><text fill="#000000" font-family="Arial" font-size="11" lengthAdjust="spacingAndGlyphs" textLength="49" x="460" y="234.674">Scheduler</text><line style="stroke: #919871; stroke-width: 1.5;" x1="432" x2="511" y1="247" y2="247"/><line style="stroke: #919871; stroke-width: 1.5;" x1="432" x2="511" y1="255" y2="255"/><path d="M235.482,125.428 C201.486,153.512 156.418,190.742 127.313,214.785 " fill="none" style="stroke: #000000; stroke-width: 1.0;"/><polygon fill="#000000" points="245.648,117.03,238.4747,117.7675,236.3966,124.6727,243.5699,123.9352,245.648,117.03" style="stroke: #000000; stroke-width: 1.0;"/><text fill="#000000" font-family="Arial" font-size="11" lengthAdjust="spacingAndGlyphs" textLength="18" x="207" y="158.4829">has</text><text fill="#000000" font-family="Arial" font-size="11" lengthAdjust="spacingAndGlyphs" textLength="6" x="139.9501" y="211.2953">1</text><path d="M282,130.189 C282,157.511 282,191.834 282,214.544 " fill="none" style="stroke: #000000; stroke-width: 1.0;"/><polygon fill="#000000" points="282,117.03,278,123.03,282,129.03,286,123.03,282,117.03" style="stroke: #000000; stroke-width: 1.0;"/><text fill="#000000" font-family="Arial" font-size="11" lengthAdjust="spacingAndGlyphs" textLength="18" x="283" y="158.4829">has</text><text fill="#000000" font-family="Arial" font-size="11" lengthAdjust="spacingAndGlyphs" textLength="6" x="283.2965" y="203.8021">1</text><path d="M330.035,125.428 C365.14,153.512 411.677,190.742 441.731,214.785 " fill="none" style="stroke: #000000; stroke-width: 1.0;"/><polygon fill="#000000" points="319.538,117.03,321.7243,123.9017,328.9083,124.5265,326.722,117.6548,319.538,117.03" style="stroke: #000000; stroke-width: 1.0;"/><text fill="#000000" font-family="Arial" font-size="11" lengthAdjust="spacingAndGlyphs" textLength="18" x="378" y="158.4829">has</text><text fill="#000000" font-family="Arial" font-size="11" lengthAdjust="spacingAndGlyphs" textLength="6" x="428.0458" y="203.7793">1</text></g></svg>