<?xml version="1.0" encoding="UTF-8" standalone="yes"?><svg xmlns="http://www.w3.org/2000/svg" xmlns:xlink="http://www.w3.org/1999/xlink" height="306pt" style="width:245px;height:306px;" version="1.1" viewBox="0 0 245 306" width="245pt"><defs><filter height="300%" id="f1" width="300%" x="-1" y="-1"><feGaussianBlur result="blurOut" stdDeviation="2.0"/><feColorMatrix in="blurOut" result="blurOut2" type="matrix" values="0 0 0 0 0 0 0 0 0 0 0 0 0 0 0 0 0 0 .4 0"/><feOffset dx="4.0" dy="4.0" in="blurOut2" result="blurOut3"/><feBlend in="SourceGraphic" in2="blurOut3" mode="normal"/></filter></defs><g><polygon fill="#FFFFFF" filter="url(#f1)" points="22,24,107,24,114,43.6179,238,43.6179,238,299,22,299,22,24" style="stroke: #000000; stroke-width: 2.0;"/><line style="stroke: #000000; stroke-width: 2.0;" x1="22" x2="114" y1="43.6179" y2="43.6179"/><text fill="#000000" font-family="Arial" font-size="11" lengthAdjust="spacingAndGlyphs" textLength="79" x="25" y="37.4829">Terradue::Portal</text><a target="_top" xlink:href="../information/classes/class_terradue_1_1_portal_1_1_wps_process_offering.html" xlink:title="../information/classes/class_terradue_1_1_portal_1_1_wps_process_offering.html"><rect fill="#EEEBDC" filter="url(#f1)" height="60.38" style="stroke: #919871; stroke-width: 1.5;" width="185" x="38" y="57"/><ellipse cx="75.95" cy="73" fill="#ADD1B2" rx="11" ry="11" style="stroke: #919871; stroke-width: 1.0;"/><path d="M78.2938,68.6719 C77.3563,68.2344 76.7625,68.0938 75.8875,68.0938 C73.2625,68.0938 71.2625,70.1719 71.2625,72.8906 L71.2625,74.0156 C71.2625,76.5938 73.3719,78.4844 76.2625,78.4844 C77.4813,78.4844 78.6375,78.1875 79.3875,77.6406 C79.9656,77.2344 80.2938,76.7813 80.2938,76.3906 C80.2938,75.9375 79.9031,75.5469 79.4344,75.5469 C79.2156,75.5469 79.0125,75.625 78.825,75.8125 C78.3719,76.2969 78.3719,76.2969 78.1844,76.3906 C77.7625,76.6563 77.075,76.7813 76.3094,76.7813 C74.2625,76.7813 72.9656,75.6875 72.9656,73.9844 L72.9656,72.8906 C72.9656,71.1094 74.2156,69.7969 75.95,69.7969 C76.5281,69.7969 77.1375,69.9531 77.6063,70.2031 C78.0906,70.4844 78.2625,70.7031 78.3563,71.1094 C78.4188,71.5156 78.45,71.6406 78.5906,71.7656 C78.7313,71.9063 78.9656,72.0156 79.1844,72.0156 C79.45,72.0156 79.7156,71.875 79.8875,71.6563 C79.9969,71.5 80.0281,71.3125 80.0281,70.8906 L80.0281,69.4688 C80.0281,69.0313 80.0125,68.9063 79.9188,68.75 C79.7625,68.4844 79.4813,68.3438 79.1844,68.3438 C78.8875,68.3438 78.6844,68.4375 78.4656,68.75 L78.2938,68.6719 Z "/><text fill="#000000" font-family="Arial" font-size="11" lengthAdjust="spacingAndGlyphs" textLength="102" x="95.05" y="76.674">WpsProcessOffering</text><line style="stroke: #919871; stroke-width: 1.5;" x1="39" x2="222" y1="89" y2="89"/><ellipse cx="49" cy="100.19" fill="none" rx="3" ry="3" style="stroke: #038048; stroke-width: 1.0;"/><text fill="#000000" font-family="Arial" font-size="10" lengthAdjust="spacingAndGlyphs" textLength="159" x="58" y="102.53">FixedComputingResource:override</text><line style="stroke: #919871; stroke-width: 1.5;" x1="39" x2="222" y1="109.38" y2="109.38"/></a><rect fill="#EEEBDC" filter="url(#f1)" height="48" style="stroke: #919871; stroke-width: 1.5;" width="95" x="82" y="215"/><ellipse cx="97" cy="231" fill="#ADD1B2" rx="11" ry="11" style="stroke: #919871; stroke-width: 1.0;"/><path d="M99.3438,226.6719 C98.4063,226.2344 97.8125,226.0938 96.9375,226.0938 C94.3125,226.0938 92.3125,228.1719 92.3125,230.8906 L92.3125,232.0156 C92.3125,234.5938 94.4219,236.4844 97.3125,236.4844 C98.5313,236.4844 99.6875,236.1875 100.4375,235.6406 C101.0156,235.2344 101.3438,234.7813 101.3438,234.3906 C101.3438,233.9375 100.9531,233.5469 100.4844,233.5469 C100.2656,233.5469 100.0625,233.625 99.875,233.8125 C99.4219,234.2969 99.4219,234.2969 99.2344,234.3906 C98.8125,234.6563 98.125,234.7813 97.3594,234.7813 C95.3125,234.7813 94.0156,233.6875 94.0156,231.9844 L94.0156,230.8906 C94.0156,229.1094 95.2656,227.7969 97,227.7969 C97.5781,227.7969 98.1875,227.9531 98.6563,228.2031 C99.1406,228.4844 99.3125,228.7031 99.4063,229.1094 C99.4688,229.5156 99.5,229.6406 99.6406,229.7656 C99.7813,229.9063 100.0156,230.0156 100.2344,230.0156 C100.5,230.0156 100.7656,229.875 100.9375,229.6563 C101.0469,229.5 101.0781,229.3125 101.0781,228.8906 L101.0781,227.4688 C101.0781,227.0313 101.0625,226.9063 100.9688,226.75 C100.8125,226.4844 100.5313,226.3438 100.2344,226.3438 C99.9375,226.3438 99.7344,226.4375 99.5156,226.75 L99.3438,226.6719 Z "/><text fill="#000000" font-family="Arial" font-size="11" lengthAdjust="spacingAndGlyphs" textLength="63" x="111" y="234.674">WpsProvider</text><line style="stroke: #919871; stroke-width: 1.5;" x1="83" x2="176" y1="247" y2="247"/><line style="stroke: #919871; stroke-width: 1.5;" x1="83" x2="176" y1="255" y2="255"/><path d="M130,130.189 C130,157.511 130,191.834 130,214.544 " fill="none" style="stroke: #000000; stroke-width: 1.0;"/><polygon fill="#000000" points="130,117.03,126,123.03,130,129.03,134,123.03,130,117.03" style="stroke: #000000; stroke-width: 1.0;"/><text fill="#000000" font-family="Arial" font-size="11" lengthAdjust="spacingAndGlyphs" textLength="18" x="131" y="158.4829">has</text><text fill="#000000" font-family="Arial" font-size="11" lengthAdjust="spacingAndGlyphs" textLength="6" x="131.3731" y="203.8021">1</text></g></svg>