<?xml version="1.0" encoding="UTF-8" standalone="yes"?><svg xmlns="http://www.w3.org/2000/svg" xmlns:xlink="http://www.w3.org/1999/xlink" height="178pt" style="width:237px;height:178px;" version="1.1" viewBox="0 0 237 178" width="237pt"><defs><filter height="300%" id="f1" width="300%" x="-1" y="-1"><feGaussianBlur result="blurOut" stdDeviation="2.0"/><feColorMatrix in="blurOut" result="blurOut2" type="matrix" values="0 0 0 0 0 0 0 0 0 0 0 0 0 0 0 0 0 0 .4 0"/><feOffset dx="4.0" dy="4.0" in="blurOut2" result="blurOut3"/><feBlend in="SourceGraphic" in2="blurOut3" mode="normal"/></filter></defs><g><polygon fill="#FFFFFF" filter="url(#f1)" points="22,24,107,24,114,43.6179,230,43.6179,230,171,22,171,22,24" style="stroke: #000000; stroke-width: 2.0;"/><line style="stroke: #000000; stroke-width: 2.0;" x1="22" x2="114" y1="43.6179" y2="43.6179"/><text fill="#000000" font-family="Arial" font-size="11" lengthAdjust="spacingAndGlyphs" textLength="79" x="25" y="37.4829">Terradue::Portal</text><a xlink:href="../information/classes/class_terradue_1_1_portal_1_1_entity_list_3_01_t_01_4.html" xlink:title="../information/classes/class_terradue_1_1_portal_1_1_entity_list_3_01_t_01_4.html"><rect fill="#EEEBDC" filter="url(#f1)" height="97.52" style="stroke: #919871; stroke-width: 1.5;" width="177" x="38" y="57"/><ellipse cx="92.25" cy="73" fill="#ADD1B2" rx="11" ry="11" style="stroke: #919871; stroke-width: 1.0;"/><path d="M94.5938,68.6719 C93.6563,68.2344 93.0625,68.0938 92.1875,68.0938 C89.5625,68.0938 87.5625,70.1719 87.5625,72.8906 L87.5625,74.0156 C87.5625,76.5938 89.6719,78.4844 92.5625,78.4844 C93.7813,78.4844 94.9375,78.1875 95.6875,77.6406 C96.2656,77.2344 96.5938,76.7813 96.5938,76.3906 C96.5938,75.9375 96.2031,75.5469 95.7344,75.5469 C95.5156,75.5469 95.3125,75.625 95.125,75.8125 C94.6719,76.2969 94.6719,76.2969 94.4844,76.3906 C94.0625,76.6563 93.375,76.7813 92.6094,76.7813 C90.5625,76.7813 89.2656,75.6875 89.2656,73.9844 L89.2656,72.8906 C89.2656,71.1094 90.5156,69.7969 92.25,69.7969 C92.8281,69.7969 93.4375,69.9531 93.9063,70.2031 C94.3906,70.4844 94.5625,70.7031 94.6563,71.1094 C94.7188,71.5156 94.75,71.6406 94.8906,71.7656 C95.0313,71.9063 95.2656,72.0156 95.4844,72.0156 C95.75,72.0156 96.0156,71.875 96.1875,71.6563 C96.2969,71.5 96.3281,71.3125 96.3281,70.8906 L96.3281,69.4688 C96.3281,69.0313 96.3125,68.9063 96.2188,68.75 C96.0625,68.4844 95.7813,68.3438 95.4844,68.3438 C95.1875,68.3438 94.9844,68.4375 94.7656,68.75 L94.5938,68.6719 Z "/><text fill="#000000" font-family="Arial" font-size="11" lengthAdjust="spacingAndGlyphs" textLength="44" x="112.75" y="76.674">EntityList</text><rect fill="#FFFFFF" height="14.38" style="stroke: #000000; stroke-width: 1.0; stroke-dasharray: 2.0,2.0;" width="14" x="204" y="54"/><text fill="#000000" font-family="Arial" font-size="10" lengthAdjust="spacingAndGlyphs" textLength="6" x="208" y="64.53">T</text><line style="stroke: #919871; stroke-width: 1.5;" x1="39" x2="214" y1="89" y2="89"/><ellipse cx="49" cy="100.19" fill="none" rx="3" ry="3" style="stroke: #038048; stroke-width: 1.0;"/><text fill="#000000" font-family="Arial" font-size="10" lengthAdjust="spacingAndGlyphs" textLength="151" x="58" y="102.53">Items:override IEnumerable&lt; T &gt;</text><ellipse cx="49" cy="112.57" fill="none" rx="3" ry="3" style="stroke: #038048; stroke-width: 1.0;"/><text fill="#000000" font-family="Arial" font-size="10" lengthAdjust="spacingAndGlyphs" textLength="82" x="58" y="114.91">Count:override int</text><line style="stroke: #919871; stroke-width: 1.5;" x1="39" x2="214" y1="121.76" y2="121.76"/><ellipse cx="49" cy="132.95" fill="#84BE84" rx="3" ry="3" style="stroke: #038048; stroke-width: 1.0;"/><text fill="#000000" font-family="Arial" font-size="10" lengthAdjust="spacingAndGlyphs" textLength="30" x="58" y="135.29">Clear()</text><polygon fill="#FFFF44" points="49,140.33,53,144.33,49,148.33,45,144.33" style="stroke: #B38D22; stroke-width: 1.0;"/><text fill="#000000" font-family="Arial" font-size="10" lengthAdjust="spacingAndGlyphs" textLength="75" x="58" y="147.67">IncludeInternal()</text></a></g></svg>