<?xml version="1.0" encoding="UTF-8" standalone="yes"?><svg xmlns="http://www.w3.org/2000/svg" xmlns:xlink="http://www.w3.org/1999/xlink" height="278pt" style="width:286px;height:278px;" version="1.1" viewBox="0 0 286 278" width="286pt"><defs><filter height="300%" id="f1" width="300%" x="-1" y="-1"><feGaussianBlur result="blurOut" stdDeviation="2.0"/><feColorMatrix in="blurOut" result="blurOut2" type="matrix" values="0 0 0 0 0 0 0 0 0 0 0 0 0 0 0 0 0 0 .4 0"/><feOffset dx="4.0" dy="4.0" in="blurOut2" result="blurOut3"/><feBlend in="SourceGraphic" in2="blurOut3" mode="normal"/></filter></defs><g><polygon fill="#FFFFFF" filter="url(#f1)" points="22,24,107,24,114,43.6179,279,43.6179,279,271,22,271,22,24" style="stroke: #000000; stroke-width: 2.0;"/><line style="stroke: #000000; stroke-width: 2.0;" x1="22" x2="114" y1="43.6179" y2="43.6179"/><text fill="#000000" font-family="Arial" font-size="11" lengthAdjust="spacingAndGlyphs" textLength="79" x="25" y="37.4829">Terradue::Portal</text><a target="_top" xlink:href="../information/classes/class_terradue_1_1_portal_1_1_wps_provider.html" xlink:title="../information/classes/class_terradue_1_1_portal_1_1_wps_provider.html"><rect fill="#EEEBDC" filter="url(#f1)" height="72.76" style="stroke: #919871; stroke-width: 1.5;" width="136" x="82" y="57.5"/><ellipse cx="115.45" cy="73.5" fill="#ADD1B2" rx="11" ry="11" style="stroke: #919871; stroke-width: 1.0;"/><path d="M117.7938,69.1719 C116.8563,68.7344 116.2625,68.5938 115.3875,68.5938 C112.7625,68.5938 110.7625,70.6719 110.7625,73.3906 L110.7625,74.5156 C110.7625,77.0938 112.8719,78.9844 115.7625,78.9844 C116.9813,78.9844 118.1375,78.6875 118.8875,78.1406 C119.4656,77.7344 119.7938,77.2813 119.7938,76.8906 C119.7938,76.4375 119.4031,76.0469 118.9344,76.0469 C118.7156,76.0469 118.5125,76.125 118.325,76.3125 C117.8719,76.7969 117.8719,76.7969 117.6844,76.8906 C117.2625,77.1563 116.575,77.2813 115.8094,77.2813 C113.7625,77.2813 112.4656,76.1875 112.4656,74.4844 L112.4656,73.3906 C112.4656,71.6094 113.7156,70.2969 115.45,70.2969 C116.0281,70.2969 116.6375,70.4531 117.1063,70.7031 C117.5906,70.9844 117.7625,71.2031 117.8563,71.6094 C117.9188,72.0156 117.95,72.1406 118.0906,72.2656 C118.2313,72.4063 118.4656,72.5156 118.6844,72.5156 C118.95,72.5156 119.2156,72.375 119.3875,72.1563 C119.4969,72 119.5281,71.8125 119.5281,71.3906 L119.5281,69.9688 C119.5281,69.5313 119.5125,69.4063 119.4188,69.25 C119.2625,68.9844 118.9813,68.8438 118.6844,68.8438 C118.3875,68.8438 118.1844,68.9375 117.9656,69.25 L117.7938,69.1719 Z "/><text fill="#000000" font-family="Arial" font-size="11" lengthAdjust="spacingAndGlyphs" textLength="63" x="133.55" y="77.174">WpsProvider</text><line style="stroke: #919871; stroke-width: 1.5;" x1="83" x2="217" y1="89.5" y2="89.5"/><ellipse cx="93" cy="100.69" fill="none" rx="3" ry="3" style="stroke: #038048; stroke-width: 1.0;"/><text fill="#000000" font-family="Arial" font-size="10" lengthAdjust="spacingAndGlyphs" textLength="49" x="102" y="103.03">Proxy:bool</text><line style="stroke: #919871; stroke-width: 1.5;" x1="83" x2="217" y1="109.88" y2="109.88"/><ellipse cx="93" cy="121.07" fill="#84BE84" rx="3" ry="3" style="stroke: #038048; stroke-width: 1.0;"/><text fill="#000000" font-family="Arial" font-size="10" lengthAdjust="spacingAndGlyphs" textLength="110" x="102" y="123.41">StoreProcessOfferings()</text></a><rect fill="#EEEBDC" filter="url(#f1)" height="48" style="stroke: #919871; stroke-width: 1.5;" width="132" x="38" y="207"/><ellipse cx="53" cy="223" fill="#ADD1B2" rx="11" ry="11" style="stroke: #919871; stroke-width: 1.0;"/><path d="M55.3438,218.6719 C54.4063,218.2344 53.8125,218.0938 52.9375,218.0938 C50.3125,218.0938 48.3125,220.1719 48.3125,222.8906 L48.3125,224.0156 C48.3125,226.5938 50.4219,228.4844 53.3125,228.4844 C54.5313,228.4844 55.6875,228.1875 56.4375,227.6406 C57.0156,227.2344 57.3438,226.7813 57.3438,226.3906 C57.3438,225.9375 56.9531,225.5469 56.4844,225.5469 C56.2656,225.5469 56.0625,225.625 55.875,225.8125 C55.4219,226.2969 55.4219,226.2969 55.2344,226.3906 C54.8125,226.6563 54.125,226.7813 53.3594,226.7813 C51.3125,226.7813 50.0156,225.6875 50.0156,223.9844 L50.0156,222.8906 C50.0156,221.1094 51.2656,219.7969 53,219.7969 C53.5781,219.7969 54.1875,219.9531 54.6563,220.2031 C55.1406,220.4844 55.3125,220.7031 55.4063,221.1094 C55.4688,221.5156 55.5,221.6406 55.6406,221.7656 C55.7813,221.9063 56.0156,222.0156 56.2344,222.0156 C56.5,222.0156 56.7656,221.875 56.9375,221.6563 C57.0469,221.5 57.0781,221.3125 57.0781,220.8906 L57.0781,219.4688 C57.0781,219.0313 57.0625,218.9063 56.9688,218.75 C56.8125,218.4844 56.5313,218.3438 56.2344,218.3438 C55.9375,218.3438 55.7344,218.4375 55.5156,218.75 L55.3438,218.6719 Z "/><text fill="#000000" font-family="Arial" font-size="11" lengthAdjust="spacingAndGlyphs" textLength="100" x="67" y="226.674">ComputingResource</text><line style="stroke: #919871; stroke-width: 1.5;" x1="39" x2="169" y1="239" y2="239"/><line style="stroke: #919871; stroke-width: 1.5;" x1="39" x2="169" y1="247" y2="247"/><rect fill="#EEEBDC" filter="url(#f1)" height="48" style="stroke: #919871; stroke-width: 1.5;" width="59" x="205" y="207"/><ellipse cx="220" cy="223" fill="#ADD1B2" rx="11" ry="11" style="stroke: #919871; stroke-width: 1.0;"/><path d="M222.3438,218.6719 C221.4063,218.2344 220.8125,218.0938 219.9375,218.0938 C217.3125,218.0938 215.3125,220.1719 215.3125,222.8906 L215.3125,224.0156 C215.3125,226.5938 217.4219,228.4844 220.3125,228.4844 C221.5313,228.4844 222.6875,228.1875 223.4375,227.6406 C224.0156,227.2344 224.3438,226.7813 224.3438,226.3906 C224.3438,225.9375 223.9531,225.5469 223.4844,225.5469 C223.2656,225.5469 223.0625,225.625 222.875,225.8125 C222.4219,226.2969 222.4219,226.2969 222.2344,226.3906 C221.8125,226.6563 221.125,226.7813 220.3594,226.7813 C218.3125,226.7813 217.0156,225.6875 217.0156,223.9844 L217.0156,222.8906 C217.0156,221.1094 218.2656,219.7969 220,219.7969 C220.5781,219.7969 221.1875,219.9531 221.6563,220.2031 C222.1406,220.4844 222.3125,220.7031 222.4063,221.1094 C222.4688,221.5156 222.5,221.6406 222.6406,221.7656 C222.7813,221.9063 223.0156,222.0156 223.2344,222.0156 C223.5,222.0156 223.7656,221.875 223.9375,221.6563 C224.0469,221.5 224.0781,221.3125 224.0781,220.8906 L224.0781,219.4688 C224.0781,219.0313 224.0625,218.9063 223.9688,218.75 C223.8125,218.4844 223.5313,218.3438 223.2344,218.3438 C222.9375,218.3438 222.7344,218.4375 222.5156,218.75 L222.3438,218.6719 Z "/><text fill="#000000" font-family="Arial" font-size="11" lengthAdjust="spacingAndGlyphs" textLength="27" x="234" y="226.674">Entity</text><line style="stroke: #919871; stroke-width: 1.5;" x1="206" x2="263" y1="239" y2="239"/><line style="stroke: #919871; stroke-width: 1.5;" x1="206" x2="263" y1="247" y2="247"/><path d="M118.271,130.802 C112.004,140.084 106.337,150.432 103,161 C100.4582,169.05 99.3691,177.884 99.1317,186.484 " fill="none" style="stroke: #000000; stroke-width: 1.0;"/><polygon fill="none" points="106.139,186.536,99.9535,206.8024,92.1509,187.1017,106.139,186.536" style="stroke: #000000; stroke-width: 1.0;"/><text fill="#000000" font-family="Arial" font-size="11" lengthAdjust="spacingAndGlyphs" textLength="55" x="104" y="172.4829">implements</text><path d="M172.51,130.713 C183.648,148.879 197.136,170.876 208.638,189.6352 " fill="none" style="stroke: #000000; stroke-width: 1.0;"/><polygon fill="none" points="214.629,186.015,219.116,206.7241,202.694,193.3328,214.629,186.015" style="stroke: #000000; stroke-width: 1.0;"/><text fill="#000000" font-family="Arial" font-size="11" lengthAdjust="spacingAndGlyphs" textLength="55" x="200" y="172.4829">implements</text></g></svg>