<?xml version="1.0" encoding="UTF-8" standalone="yes"?><svg xmlns="http://www.w3.org/2000/svg" xmlns:xlink="http://www.w3.org/1999/xlink" height="197pt" style="width:229px;height:197px;" version="1.1" viewBox="0 0 229 197" width="229pt"><defs><filter height="300%" id="f1" width="300%" x="-1" y="-1"><feGaussianBlur result="blurOut" stdDeviation="2.0"/><feColorMatrix in="blurOut" result="blurOut2" type="matrix" values="0 0 0 0 0 0 0 0 0 0 0 0 0 0 0 0 0 0 .4 0"/><feOffset dx="4.0" dy="4.0" in="blurOut2" result="blurOut3"/><feBlend in="SourceGraphic" in2="blurOut3" mode="normal"/></filter></defs><g><polygon fill="#FFFFFF" filter="url(#f1)" points="22,24,107,24,114,42.6489,222,42.6489,222,190,22,190,22,24" style="stroke: #000000; stroke-width: 2.0;"/><line style="stroke: #000000; stroke-width: 2.0;" x1="22" x2="114" y1="42.6489" y2="42.6489"/><text fill="#000000" font-family="Arial" font-size="11" lengthAdjust="spacingAndGlyphs" textLength="79" x="25" y="37.3179">Terradue::Cloud</text><a target="_top" xlink:href="../information/classes/class_terradue_1_1_cloud_1_1_cloud_provider.html" xlink:title="../information/classes/class_terradue_1_1_cloud_1_1_cloud_provider.html"><rect fill="#EEEBDC" filter="url(#f1)" height="116.9941" style="stroke: #919871; stroke-width: 1.5;" width="168" x="38" y="56.5"/><ellipse cx="83.25" cy="72.5" fill="#ADD1B2" rx="11" ry="11" style="stroke: #919871; stroke-width: 1.0;"/><path d="M86.2231,78.1431 Q85.6421,78.4419 85.0029,78.5913 Q84.3638,78.7407 83.6582,78.7407 Q81.1514,78.7407 79.8315,77.0889 Q78.5117,75.437 78.5117,72.3159 Q78.5117,69.1865 79.8315,67.5347 Q81.1514,65.8828 83.6582,65.8828 Q84.3638,65.8828 85.0112,66.0322 Q85.6587,66.1816 86.2231,66.4805 L86.2231,69.2031 Q85.5923,68.6221 84.9988,68.3523 Q84.4053,68.0825 83.7744,68.0825 Q82.4297,68.0825 81.7449,69.1492 Q81.0601,70.2158 81.0601,72.3159 Q81.0601,74.4077 81.7449,75.4744 Q82.4297,76.541 83.7744,76.541 Q84.4053,76.541 84.9988,76.2712 Q85.5923,76.0015 86.2231,75.4204 Z "/><text fill="#000000" font-family="Arial" font-size="11" lengthAdjust="spacingAndGlyphs" textLength="69" x="103.75" y="76.4934">CloudProvider</text><line style="stroke: #919871; stroke-width: 1.5;" x1="39" x2="205" y1="88.5" y2="88.5"/><ellipse cx="49" cy="99.5" fill="none" rx="3" ry="3" style="stroke: #038048; stroke-width: 1.0;"/><text fill="#000000" font-family="Arial" font-size="10" lengthAdjust="spacingAndGlyphs" textLength="85" x="58" y="102.1304">AccessPoint:string</text><line style="stroke: #919871; stroke-width: 1.5;" x1="39" x2="205" y1="107.999" y2="107.999"/><ellipse cx="49" cy="118.999" fill="#84BE84" rx="3" ry="3" style="stroke: #038048; stroke-width: 1.0;"/><text fill="#000000" font-family="Arial" font-size="10" lengthAdjust="spacingAndGlyphs" textLength="142" x="58" y="121.6294">FindVirtualMachineTemplates()</text><ellipse cx="49" cy="130.999" fill="#84BE84" rx="3" ry="3" style="stroke: #038048; stroke-width: 1.0;"/><text fill="#000000" font-family="Arial" font-size="10" lengthAdjust="spacingAndGlyphs" textLength="79" x="58" y="133.6294">FindVirtualDisks()</text><ellipse cx="49" cy="142.999" fill="#84BE84" rx="3" ry="3" style="stroke: #038048; stroke-width: 1.0;"/><text fill="#000000" font-family="Arial" font-size="10" lengthAdjust="spacingAndGlyphs" textLength="97" x="58" y="145.6294">FindVirtualNetworks()</text><ellipse cx="49" cy="154.999" fill="#84BE84" rx="3" ry="3" style="stroke: #038048; stroke-width: 1.0;"/><text fill="#000000" font-family="Arial" font-size="10" lengthAdjust="spacingAndGlyphs" textLength="77" x="58" y="157.6294">FindAppliances()</text><ellipse cx="49" cy="166.999" fill="#84BE84" rx="3" ry="3" style="stroke: #038048; stroke-width: 1.0;"/><text fill="#000000" font-family="Arial" font-size="10" lengthAdjust="spacingAndGlyphs" textLength="77" x="58" y="169.6294">CreateInstance()</text></a></g></svg>