<?xml version="1.0" encoding="UTF-8" standalone="yes"?><svg xmlns="http://www.w3.org/2000/svg" xmlns:xlink="http://www.w3.org/1999/xlink" height="252pt" style="width:154px;height:252px;" version="1.1" viewBox="0 0 154 252" width="154pt"><defs><filter height="300%" id="f1" width="300%" x="-1" y="-1"><feGaussianBlur result="blurOut" stdDeviation="2.0"/><feColorMatrix in="blurOut" result="blurOut2" type="matrix" values="0 0 0 0 0 0 0 0 0 0 0 0 0 0 0 0 0 0 .4 0"/><feOffset dx="4.0" dy="4.0" in="blurOut2" result="blurOut3"/><feBlend in="SourceGraphic" in2="blurOut3" mode="normal"/></filter></defs><g><polygon fill="#FFFFFF" filter="url(#f1)" points="22,24,107,24,114,43.6179,147,43.6179,147,245,22,245,22,24" style="stroke: #000000; stroke-width: 2.0;"/><line style="stroke: #000000; stroke-width: 2.0;" x1="22" x2="114" y1="43.6179" y2="43.6179"/><text fill="#000000" font-family="Arial" font-size="11" lengthAdjust="spacingAndGlyphs" textLength="79" x="25" y="37.4829">Terradue::Portal</text><a target="_top" xlink:href="../information/classes/class_terradue_1_1_portal_1_1_action.html" xlink:title="../information/classes/class_terradue_1_1_portal_1_1_action.html"><rect fill="#EEEBDC" filter="url(#f1)" height="48" style="stroke: #919871; stroke-width: 1.5;" width="62" x="42" y="57"/><ellipse cx="57" cy="73" fill="#ADD1B2" rx="11" ry="11" style="stroke: #919871; stroke-width: 1.0;"/><path d="M59.3438,68.6719 C58.4063,68.2344 57.8125,68.0938 56.9375,68.0938 C54.3125,68.0938 52.3125,70.1719 52.3125,72.8906 L52.3125,74.0156 C52.3125,76.5938 54.4219,78.4844 57.3125,78.4844 C58.5313,78.4844 59.6875,78.1875 60.4375,77.6406 C61.0156,77.2344 61.3438,76.7813 61.3438,76.3906 C61.3438,75.9375 60.9531,75.5469 60.4844,75.5469 C60.2656,75.5469 60.0625,75.625 59.875,75.8125 C59.4219,76.2969 59.4219,76.2969 59.2344,76.3906 C58.8125,76.6563 58.125,76.7813 57.3594,76.7813 C55.3125,76.7813 54.0156,75.6875 54.0156,73.9844 L54.0156,72.8906 C54.0156,71.1094 55.2656,69.7969 57,69.7969 C57.5781,69.7969 58.1875,69.9531 58.6563,70.2031 C59.1406,70.4844 59.3125,70.7031 59.4063,71.1094 C59.4688,71.5156 59.5,71.6406 59.6406,71.7656 C59.7813,71.9063 60.0156,72.0156 60.2344,72.0156 C60.5,72.0156 60.7656,71.875 60.9375,71.6563 C61.0469,71.5 61.0781,71.3125 61.0781,70.8906 L61.0781,69.4688 C61.0781,69.0313 61.0625,68.9063 60.9688,68.75 C60.8125,68.4844 60.5313,68.3438 60.2344,68.3438 C59.9375,68.3438 59.7344,68.4375 59.5156,68.75 L59.3438,68.6719 Z "/><text fill="#000000" font-family="Arial" font-size="11" lengthAdjust="spacingAndGlyphs" textLength="30" x="71" y="76.674">Action</text><line style="stroke: #919871; stroke-width: 1.5;" x1="43" x2="103" y1="89" y2="89"/><line style="stroke: #919871; stroke-width: 1.5;" x1="43" x2="103" y1="97" y2="97"/></a><rect fill="#EEEBDC" filter="url(#f1)" height="48" style="stroke: #919871; stroke-width: 1.5;" width="59" x="44" y="181"/><ellipse cx="59" cy="197" fill="#ADD1B2" rx="11" ry="11" style="stroke: #919871; stroke-width: 1.0;"/><path d="M61.3438,192.6719 C60.4063,192.2344 59.8125,192.0938 58.9375,192.0938 C56.3125,192.0938 54.3125,194.1719 54.3125,196.8906 L54.3125,198.0156 C54.3125,200.5938 56.4219,202.4844 59.3125,202.4844 C60.5313,202.4844 61.6875,202.1875 62.4375,201.6406 C63.0156,201.2344 63.3438,200.7813 63.3438,200.3906 C63.3438,199.9375 62.9531,199.5469 62.4844,199.5469 C62.2656,199.5469 62.0625,199.625 61.875,199.8125 C61.4219,200.2969 61.4219,200.2969 61.2344,200.3906 C60.8125,200.6563 60.125,200.7813 59.3594,200.7813 C57.3125,200.7813 56.0156,199.6875 56.0156,197.9844 L56.0156,196.8906 C56.0156,195.1094 57.2656,193.7969 59,193.7969 C59.5781,193.7969 60.1875,193.9531 60.6563,194.2031 C61.1406,194.4844 61.3125,194.7031 61.4063,195.1094 C61.4688,195.5156 61.5,195.6406 61.6406,195.7656 C61.7813,195.9063 62.0156,196.0156 62.2344,196.0156 C62.5,196.0156 62.7656,195.875 62.9375,195.6563 C63.0469,195.5 63.0781,195.3125 63.0781,194.8906 L63.0781,193.4688 C63.0781,193.0313 63.0625,192.9063 62.9688,192.75 C62.8125,192.4844 62.5313,192.3438 62.2344,192.3438 C61.9375,192.3438 61.7344,192.4375 61.5156,192.75 L61.3438,192.6719 Z "/><text fill="#000000" font-family="Arial" font-size="11" lengthAdjust="spacingAndGlyphs" textLength="27" x="73" y="200.674">Entity</text><line style="stroke: #919871; stroke-width: 1.5;" x1="45" x2="102" y1="213" y2="213"/><line style="stroke: #919871; stroke-width: 1.5;" x1="45" x2="102" y1="221" y2="221"/><path d="M73,105.203 C73,120.992 73,142.07 73,160.786 " fill="none" style="stroke: #000000; stroke-width: 1.0;"/><polygon fill="none" points="80.0001,160.858,73,180.8582,66.0001,160.858,80.0001,160.858" style="stroke: #000000; stroke-width: 1.0;"/><text fill="#000000" font-family="Arial" font-size="11" lengthAdjust="spacingAndGlyphs" textLength="55" x="74" y="146.4829">implements</text></g></svg>