<?xml version="1.0" encoding="UTF-8" standalone="yes"?><svg xmlns="http://www.w3.org/2000/svg" xmlns:xlink="http://www.w3.org/1999/xlink" height="252pt" style="width:278px;height:252px;" version="1.1" viewBox="0 0 278 252" width="278pt"><defs><filter height="300%" id="f1" width="300%" x="-1" y="-1"><feGaussianBlur result="blurOut" stdDeviation="2.0"/><feColorMatrix in="blurOut" result="blurOut2" type="matrix" values="0 0 0 0 0 0 0 0 0 0 0 0 0 0 0 0 0 0 .4 0"/><feOffset dx="4.0" dy="4.0" in="blurOut2" result="blurOut3"/><feBlend in="SourceGraphic" in2="blurOut3" mode="normal"/></filter></defs><g><polygon fill="#FFFFFF" filter="url(#f1)" points="22,24,107,24,114,43.6179,271,43.6179,271,245,22,245,22,24" style="stroke: #000000; stroke-width: 2.0;"/><line style="stroke: #000000; stroke-width: 2.0;" x1="22" x2="114" y1="43.6179" y2="43.6179"/><text fill="#000000" font-family="Arial" font-size="11" lengthAdjust="spacingAndGlyphs" textLength="79" x="25" y="37.4829">Terradue::Portal</text><a target="_top" xlink:href="../information/classes/class_terradue_1_1_portal_1_1_certificate_authentication_type.html" xlink:title="../information/classes/class_terradue_1_1_portal_1_1_certificate_authentication_type.html"><rect fill="#EEEBDC" filter="url(#f1)" height="48" style="stroke: #919871; stroke-width: 1.5;" width="174" x="59" y="57"/><ellipse cx="74" cy="73" fill="#ADD1B2" rx="11" ry="11" style="stroke: #919871; stroke-width: 1.0;"/><path d="M76.3438,68.6719 C75.4063,68.2344 74.8125,68.0938 73.9375,68.0938 C71.3125,68.0938 69.3125,70.1719 69.3125,72.8906 L69.3125,74.0156 C69.3125,76.5938 71.4219,78.4844 74.3125,78.4844 C75.5313,78.4844 76.6875,78.1875 77.4375,77.6406 C78.0156,77.2344 78.3438,76.7813 78.3438,76.3906 C78.3438,75.9375 77.9531,75.5469 77.4844,75.5469 C77.2656,75.5469 77.0625,75.625 76.875,75.8125 C76.4219,76.2969 76.4219,76.2969 76.2344,76.3906 C75.8125,76.6563 75.125,76.7813 74.3594,76.7813 C72.3125,76.7813 71.0156,75.6875 71.0156,73.9844 L71.0156,72.8906 C71.0156,71.1094 72.2656,69.7969 74,69.7969 C74.5781,69.7969 75.1875,69.9531 75.6563,70.2031 C76.1406,70.4844 76.3125,70.7031 76.4063,71.1094 C76.4688,71.5156 76.5,71.6406 76.6406,71.7656 C76.7813,71.9063 77.0156,72.0156 77.2344,72.0156 C77.5,72.0156 77.7656,71.875 77.9375,71.6563 C78.0469,71.5 78.0781,71.3125 78.0781,70.8906 L78.0781,69.4688 C78.0781,69.0313 78.0625,68.9063 77.9688,68.75 C77.8125,68.4844 77.5313,68.3438 77.2344,68.3438 C76.9375,68.3438 76.7344,68.4375 76.5156,68.75 L76.3438,68.6719 Z "/><text fill="#000000" font-family="Arial" font-size="11" lengthAdjust="spacingAndGlyphs" textLength="142" x="88" y="76.674">CertificateAuthenticationType</text><line style="stroke: #919871; stroke-width: 1.5;" x1="60" x2="232" y1="89" y2="89"/><line style="stroke: #919871; stroke-width: 1.5;" x1="60" x2="232" y1="97" y2="97"/></a><rect fill="#EEEBDC" filter="url(#f1)" height="48" style="stroke: #919871; stroke-width: 1.5;" width="125" x="38" y="181"/><ellipse cx="53" cy="197" fill="#ADD1B2" rx="11" ry="11" style="stroke: #919871; stroke-width: 1.0;"/><path d="M55.3438,192.6719 C54.4063,192.2344 53.8125,192.0938 52.9375,192.0938 C50.3125,192.0938 48.3125,194.1719 48.3125,196.8906 L48.3125,198.0156 C48.3125,200.5938 50.4219,202.4844 53.3125,202.4844 C54.5313,202.4844 55.6875,202.1875 56.4375,201.6406 C57.0156,201.2344 57.3438,200.7813 57.3438,200.3906 C57.3438,199.9375 56.9531,199.5469 56.4844,199.5469 C56.2656,199.5469 56.0625,199.625 55.875,199.8125 C55.4219,200.2969 55.4219,200.2969 55.2344,200.3906 C54.8125,200.6563 54.125,200.7813 53.3594,200.7813 C51.3125,200.7813 50.0156,199.6875 50.0156,197.9844 L50.0156,196.8906 C50.0156,195.1094 51.2656,193.7969 53,193.7969 C53.5781,193.7969 54.1875,193.9531 54.6563,194.2031 C55.1406,194.4844 55.3125,194.7031 55.4063,195.1094 C55.4688,195.5156 55.5,195.6406 55.6406,195.7656 C55.7813,195.9063 56.0156,196.0156 56.2344,196.0156 C56.5,196.0156 56.7656,195.875 56.9375,195.6563 C57.0469,195.5 57.0781,195.3125 57.0781,194.8906 L57.0781,193.4688 C57.0781,193.0313 57.0625,192.9063 56.9688,192.75 C56.8125,192.4844 56.5313,192.3438 56.2344,192.3438 C55.9375,192.3438 55.7344,192.4375 55.5156,192.75 L55.3438,192.6719 Z "/><text fill="#000000" font-family="Arial" font-size="11" lengthAdjust="spacingAndGlyphs" textLength="93" x="67" y="200.674">AuthenticationType</text><line style="stroke: #919871; stroke-width: 1.5;" x1="39" x2="162" y1="213" y2="213"/><line style="stroke: #919871; stroke-width: 1.5;" x1="39" x2="162" y1="221" y2="221"/><rect fill="#EEEBDC" filter="url(#f1)" height="48" style="stroke: #919871; stroke-width: 1.5;" width="59" x="197" y="181"/><ellipse cx="212" cy="197" fill="#ADD1B2" rx="11" ry="11" style="stroke: #919871; stroke-width: 1.0;"/><path d="M214.3438,192.6719 C213.4063,192.2344 212.8125,192.0938 211.9375,192.0938 C209.3125,192.0938 207.3125,194.1719 207.3125,196.8906 L207.3125,198.0156 C207.3125,200.5938 209.4219,202.4844 212.3125,202.4844 C213.5313,202.4844 214.6875,202.1875 215.4375,201.6406 C216.0156,201.2344 216.3438,200.7813 216.3438,200.3906 C216.3438,199.9375 215.9531,199.5469 215.4844,199.5469 C215.2656,199.5469 215.0625,199.625 214.875,199.8125 C214.4219,200.2969 214.4219,200.2969 214.2344,200.3906 C213.8125,200.6563 213.125,200.7813 212.3594,200.7813 C210.3125,200.7813 209.0156,199.6875 209.0156,197.9844 L209.0156,196.8906 C209.0156,195.1094 210.2656,193.7969 212,193.7969 C212.5781,193.7969 213.1875,193.9531 213.6563,194.2031 C214.1406,194.4844 214.3125,194.7031 214.4063,195.1094 C214.4688,195.5156 214.5,195.6406 214.6406,195.7656 C214.7813,195.9063 215.0156,196.0156 215.2344,196.0156 C215.5,196.0156 215.7656,195.875 215.9375,195.6563 C216.0469,195.5 216.0781,195.3125 216.0781,194.8906 L216.0781,193.4688 C216.0781,193.0313 216.0625,192.9063 215.9688,192.75 C215.8125,192.4844 215.5313,192.3438 215.2344,192.3438 C214.9375,192.3438 214.7344,192.4375 214.5156,192.75 L214.3438,192.6719 Z "/><text fill="#000000" font-family="Arial" font-size="11" lengthAdjust="spacingAndGlyphs" textLength="27" x="226" y="200.674">Entity</text><line style="stroke: #919871; stroke-width: 1.5;" x1="198" x2="255" y1="213" y2="213"/><line style="stroke: #919871; stroke-width: 1.5;" x1="198" x2="255" y1="221" y2="221"/><path d="M116.538,105.071 C108.287,113.567 100.3819,123.818 96,135 C92.8467,143.047 91.7502,152.014 91.8121,160.773 " fill="none" style="stroke: #000000; stroke-width: 1.0;"/><polygon fill="none" points="98.7991,160.304,93.7364,180.8801,84.8628,161.638,98.7991,160.304" style="stroke: #000000; stroke-width: 1.0;"/><text fill="#000000" font-family="Arial" font-size="11" lengthAdjust="spacingAndGlyphs" textLength="55" x="97" y="146.4829">implements</text><path d="M161.615,105.203 C172.352,121.846 186.88,144.364 199.419,163.7991 " fill="none" style="stroke: #000000; stroke-width: 1.0;"/><polygon fill="none" points="205.464,160.257,210.425,180.8582,193.7,167.8472,205.464,160.257" style="stroke: #000000; stroke-width: 1.0;"/><text fill="#000000" font-family="Arial" font-size="11" lengthAdjust="spacingAndGlyphs" textLength="55" x="191" y="146.4829">implements</text></g></svg>