<?xml version="1.0" encoding="UTF-8" standalone="yes"?><svg xmlns="http://www.w3.org/2000/svg" xmlns:xlink="http://www.w3.org/1999/xlink" height="752pt" style="width:2238px;height:752px;" version="1.1" viewBox="0 0 2238 752" width="2238pt"><defs><filter height="300%" id="f1" width="300%" x="-1" y="-1"><feGaussianBlur result="blurOut" stdDeviation="2.0"/><feColorMatrix in="blurOut" result="blurOut2" type="matrix" values="0 0 0 0 0 0 0 0 0 0 0 0 0 0 0 0 0 0 .4 0"/><feOffset dx="4.0" dy="4.0" in="blurOut2" result="blurOut3"/><feBlend in="SourceGraphic" in2="blurOut3" mode="normal"/></filter></defs><g><rect fill="#FFFFFF" filter="url(#f1)" height="137" style="stroke: #000000; stroke-width: 2.0;" width="177" x="809" y="209"/><path d="M979,210 L979,214.6489 L969,224.6489 L809,224.6489 " fill="#FFFFFF" style="stroke: #000000; stroke-width: 2.0;"/><text fill="#000000" font-family="Arial" font-size="11" lengthAdjust="spacingAndGlyphs" textLength="160" x="812" y="219.3179">Terradue::Authentication::Umsso</text><rect fill="#FFFFFF" filter="url(#f1)" height="137" style="stroke: #000000; stroke-width: 2.0;" width="134" x="1010" y="209"/><path d="M1099,210 L1099,214.6489 L1089,224.6489 L1010,224.6489 " fill="#FFFFFF" style="stroke: #000000; stroke-width: 2.0;"/><text fill="#000000" font-family="Arial" font-size="11" lengthAdjust="spacingAndGlyphs" textLength="79" x="1013" y="219.3179">Terradue::Cloud</text><rect fill="#FFFFFF" filter="url(#f1)" height="137" style="stroke: #000000; stroke-width: 2.0;" width="135" x="98" y="579"/><path d="M226,580 L226,584.6489 L216,594.6489 L98,594.6489 " fill="#FFFFFF" style="stroke: #000000; stroke-width: 2.0;"/><text fill="#000000" font-family="Arial" font-size="11" lengthAdjust="spacingAndGlyphs" textLength="118" x="101" y="589.3179">Terradue::GDAL::Native</text><rect fill="#FFFFFF" filter="url(#f1)" height="137" style="stroke: #000000; stroke-width: 2.0;" width="118" x="793" y="579"/><path d="M899,580 L899,584.6489 L889,594.6489 L793,594.6489 " fill="#FFFFFF" style="stroke: #000000; stroke-width: 2.0;"/><text fill="#000000" font-family="Arial" font-size="11" lengthAdjust="spacingAndGlyphs" textLength="96" x="796" y="589.3179">Terradue::GeoJson</text><rect fill="#FFFFFF" filter="url(#f1)" height="137" style="stroke: #000000; stroke-width: 2.0;" width="104" x="1168" y="24"/><path d="M1261,25 L1261,29.6489 L1251,39.6489 L1168,39.6489 " fill="#FFFFFF" style="stroke: #000000; stroke-width: 2.0;"/><text fill="#000000" font-family="Arial" font-size="11" lengthAdjust="spacingAndGlyphs" textLength="83" x="1171" y="34.3179">Terradue::Github</text><rect fill="#FFFFFF" filter="url(#f1)" height="137" style="stroke: #000000; stroke-width: 2.0;" width="134" x="1151" y="394"/><path d="M1250,395 L1250,399.6489 L1240,409.6489 L1151,409.6489 " fill="#FFFFFF" style="stroke: #000000; stroke-width: 2.0;"/><text fill="#000000" font-family="Arial" font-size="11" lengthAdjust="spacingAndGlyphs" textLength="89" x="1154" y="404.3179">Terradue::Hadoop</text><rect fill="#FFFFFF" filter="url(#f1)" height="137" style="stroke: #000000; stroke-width: 2.0;" width="205" x="1296" y="24"/><path d="M1494,25 L1494,29.6489 L1484,39.6489 L1296,39.6489 " fill="#FFFFFF" style="stroke: #000000; stroke-width: 2.0;"/><text fill="#000000" font-family="Arial" font-size="11" lengthAdjust="spacingAndGlyphs" textLength="188" x="1299" y="34.3179">Terradue::Metadata::EarthObservation</text><rect fill="#FFFFFF" filter="url(#f1)" height="137" style="stroke: #000000; stroke-width: 2.0;" width="228" x="1525" y="24"/><path d="M1746,25 L1746,29.6489 L1736,39.6489 L1525,39.6489 " fill="#FFFFFF" style="stroke: #000000; stroke-width: 2.0;"/><text fill="#000000" font-family="Arial" font-size="11" lengthAdjust="spacingAndGlyphs" textLength="211" x="1528" y="34.3179">Terradue::ServiceModel::Ogc::OwsContext</text><rect fill="#FFFFFF" filter="url(#f1)" height="137" style="stroke: #000000; stroke-width: 2.0;" width="196" x="1777" y="24"/><path d="M1966,25 L1966,29.6489 L1956,39.6489 L1777,39.6489 " fill="#FFFFFF" style="stroke: #000000; stroke-width: 2.0;"/><text fill="#000000" font-family="Arial" font-size="11" lengthAdjust="spacingAndGlyphs" textLength="179" x="1780" y="34.3179">Terradue::ServiceModel::Syndication</text><rect fill="#FFFFFF" filter="url(#f1)" height="137" style="stroke: #000000; stroke-width: 2.0;" width="104" x="1997" y="24"/><path d="M2086,25 L2086,29.6489 L2076,39.6489 L1997,39.6489 " fill="#FFFFFF" style="stroke: #000000; stroke-width: 2.0;"/><text fill="#000000" font-family="Arial" font-size="11" lengthAdjust="spacingAndGlyphs" textLength="79" x="2000" y="34.3179">Terradue::News</text><rect fill="#FFFFFF" filter="url(#f1)" height="137" style="stroke: #000000; stroke-width: 2.0;" width="129" x="998" y="394"/><path d="M1120,395 L1120,399.6489 L1110,409.6489 L998,409.6489 " fill="#FFFFFF" style="stroke: #000000; stroke-width: 2.0;"/><text fill="#000000" font-family="Arial" font-size="11" lengthAdjust="spacingAndGlyphs" textLength="112" x="1001" y="404.3179">Terradue::OpenNebula</text><rect fill="#FFFFFF" filter="url(#f1)" height="137" style="stroke: #000000; stroke-width: 2.0;" width="202" x="22" y="394"/><path d="M217,395 L217,399.6489 L207,409.6489 L22,409.6489 " fill="#FFFFFF" style="stroke: #000000; stroke-width: 2.0;"/><text fill="#000000" font-family="Arial" font-size="11" lengthAdjust="spacingAndGlyphs" textLength="185" x="25" y="404.3179">Terradue::OpenSearch::DataAnalyzer</text><rect fill="#FFFFFF" filter="url(#f1)" height="137" style="stroke: #000000; stroke-width: 2.0;" width="170" x="441" y="394"/><path d="M604,395 L604,399.6489 L594,409.6489 L441,409.6489 " fill="#FFFFFF" style="stroke: #000000; stroke-width: 2.0;"/><text fill="#000000" font-family="Arial" font-size="11" lengthAdjust="spacingAndGlyphs" textLength="153" x="444" y="404.3179">Terradue::OpenSearch::Tumblr</text><rect fill="#FFFFFF" filter="url(#f1)" height="137" style="stroke: #000000; stroke-width: 2.0;" width="169" x="248" y="394"/><path d="M410,395 L410,399.6489 L400,409.6489 L248,409.6489 " fill="#FFFFFF" style="stroke: #000000; stroke-width: 2.0;"/><text fill="#000000" font-family="Arial" font-size="11" lengthAdjust="spacingAndGlyphs" textLength="152" x="251" y="404.3179">Terradue::OpenSearch::Twitter</text><rect fill="#FFFFFF" filter="url(#f1)" height="137" style="stroke: #000000; stroke-width: 2.0;" width="181" x="793" y="394"/><path d="M967,395 L967,399.6489 L957,409.6489 L793,409.6489 " fill="#FFFFFF" style="stroke: #000000; stroke-width: 2.0;"/><text fill="#000000" font-family="Arial" font-size="11" lengthAdjust="spacingAndGlyphs" textLength="164" x="796" y="404.3179">Terradue::OpenSearch::GeoJson</text><rect fill="#FFFFFF" filter="url(#f1)" height="137" style="stroke: #000000; stroke-width: 2.0;" width="130" x="461" y="579"/><path d="M584,580 L584,584.6489 L574,594.6489 L461,594.6489 " fill="#FFFFFF" style="stroke: #000000; stroke-width: 2.0;"/><text fill="#000000" font-family="Arial" font-size="11" lengthAdjust="spacingAndGlyphs" textLength="113" x="464" y="589.3179">Terradue::OpenSearch</text><rect fill="#FFFFFF" filter="url(#f1)" height="137" style="stroke: #000000; stroke-width: 2.0;" width="134" x="635" y="394"/><path d="M724,395 L724,399.6489 L714,409.6489 L635,409.6489 " fill="#FFFFFF" style="stroke: #000000; stroke-width: 2.0;"/><text fill="#000000" font-family="Arial" font-size="11" lengthAdjust="spacingAndGlyphs" textLength="79" x="638" y="404.3179">Terradue::Portal</text><rect fill="#FFFFFF" filter="url(#f1)" height="137" style="stroke: #000000; stroke-width: 2.0;" width="134" x="1010" y="24"/><path d="M1114,25 L1114,29.6489 L1104,39.6489 L1010,39.6489 " fill="#FFFFFF" style="stroke: #000000; stroke-width: 2.0;"/><text fill="#000000" font-family="Arial" font-size="11" lengthAdjust="spacingAndGlyphs" textLength="94" x="1013" y="34.3179">Terradue::Sandbox</text><rect fill="#FFFFFF" filter="url(#f1)" height="137" style="stroke: #000000; stroke-width: 2.0;" width="106" x="2125" y="24"/><path d="M2224,25 L2224,29.6489 L2214,39.6489 L2125,39.6489 " fill="#FFFFFF" style="stroke: #000000; stroke-width: 2.0;"/><text fill="#000000" font-family="Arial" font-size="11" lengthAdjust="spacingAndGlyphs" textLength="89" x="2128" y="34.3179">Terradue::TepQW</text><rect fill="#FFFFFF" filter="url(#f1)" height="137" style="stroke: #000000; stroke-width: 2.0;" width="162" x="623" y="209"/><path d="M778,210 L778,214.6489 L768,224.6489 L623,224.6489 " fill="#FFFFFF" style="stroke: #000000; stroke-width: 2.0;"/><text fill="#000000" font-family="Arial" font-size="11" lengthAdjust="spacingAndGlyphs" textLength="145" x="626" y="219.3179">Terradue::WebService::Model</text><a target="_top" xlink:href="../technology/packages/namespace_terradue_1_1_authentication_1_1_umsso.html" xlink:title="../technology/packages/namespace_terradue_1_1_authentication_1_1_umsso.html"><rect fill="#EEEBDC" filter="url(#f1)" height="70.998" style="stroke: #919871; stroke-width: 1.5;" width="101" x="825.75" y="258.5"/><ellipse cx="856.5" cy="274.5" fill="#00FFFF" rx="11" ry="11" style="stroke: #919871; stroke-width: 1.0;"/><path d="M853.3677,280.5 L853.3677,268.1069 L855.8164,268.1069 L855.8164,278.3418 L861.0542,278.3418 L861.0542,280.5 Z "/><text fill="#000000" font-family="Arial" font-size="11" lengthAdjust="spacingAndGlyphs" textLength="34" x="874" y="278.4934">Library</text><line style="stroke: #919871; stroke-width: 1.5;" x1="826.75" x2="925.75" y1="290.5" y2="290.5"/><text fill="#000000" font-family="Arial" font-size="10" lengthAdjust="spacingAndGlyphs" textLength="66" x="831.75" y="303.8799">version : 1.2.3</text><text fill="#000000" font-family="Arial" font-size="10" lengthAdjust="spacingAndGlyphs" textLength="89" x="831.75" y="315.3789">license : incubating</text><line style="stroke: #919871; stroke-width: 1.5;" x1="826.75" x2="925.75" y1="321.498" y2="321.498"/></a><a target="_top" xlink:href="../technology/packages/namespace_terradue_1_1_cloud.html" xlink:title="../technology/packages/namespace_terradue_1_1_cloud.html"><rect fill="#EEEBDC" filter="url(#f1)" height="70.998" style="stroke: #919871; stroke-width: 1.5;" width="101" x="1026.75" y="258.5"/><ellipse cx="1057.5" cy="274.5" fill="#00FFFF" rx="11" ry="11" style="stroke: #919871; stroke-width: 1.0;"/><path d="M1054.3677,280.5 L1054.3677,268.1069 L1056.8164,268.1069 L1056.8164,278.3418 L1062.0542,278.3418 L1062.0542,280.5 Z "/><text fill="#000000" font-family="Arial" font-size="11" lengthAdjust="spacingAndGlyphs" textLength="34" x="1075" y="278.4934">Library</text><line style="stroke: #919871; stroke-width: 1.5;" x1="1027.75" x2="1126.75" y1="290.5" y2="290.5"/><text fill="#000000" font-family="Arial" font-size="10" lengthAdjust="spacingAndGlyphs" textLength="72" x="1032.75" y="303.8799">version : 1.2.14</text><text fill="#000000" font-family="Arial" font-size="10" lengthAdjust="spacingAndGlyphs" textLength="89" x="1032.75" y="315.3789">license : incubating</text><line style="stroke: #919871; stroke-width: 1.5;" x1="1027.75" x2="1126.75" y1="321.498" y2="321.498"/></a><a target="_top" xlink:href="../technology/packages/namespace_terradue_1_1_g_d_a_l_1_1_native.html" xlink:title="../technology/packages/namespace_terradue_1_1_g_d_a_l_1_1_native.html"><rect fill="#EEEBDC" filter="url(#f1)" height="70.998" style="stroke: #919871; stroke-width: 1.5;" width="85" x="122.75" y="628.5"/><ellipse cx="146.3" cy="644.5" fill="#00FFFF" rx="11" ry="11" style="stroke: #919871; stroke-width: 1.0;"/><path d="M143.1677,650.5 L143.1677,638.1069 L145.6164,638.1069 L145.6164,648.3418 L150.8542,648.3418 L150.8542,650.5 Z "/><text fill="#000000" font-family="Arial" font-size="11" lengthAdjust="spacingAndGlyphs" textLength="34" x="162.2" y="648.4934">Library</text><line style="stroke: #919871; stroke-width: 1.5;" x1="123.75" x2="206.75" y1="660.5" y2="660.5"/><text fill="#000000" font-family="Arial" font-size="10" lengthAdjust="spacingAndGlyphs" textLength="66" x="128.75" y="673.8799">version : 1.0.0</text><text fill="#000000" font-family="Arial" font-size="10" lengthAdjust="spacingAndGlyphs" textLength="73" x="128.75" y="685.3789">license : GPLv3</text><line style="stroke: #919871; stroke-width: 1.5;" x1="123.75" x2="206.75" y1="691.498" y2="691.498"/></a><a target="_top" xlink:href="../technology/packages/namespace_terradue_1_1_geo_json.html" xlink:title="../technology/packages/namespace_terradue_1_1_geo_json.html"><rect fill="#EEEBDC" filter="url(#f1)" height="70.998" style="stroke: #919871; stroke-width: 1.5;" width="85" x="809.75" y="628.5"/><ellipse cx="833.3" cy="644.5" fill="#00FFFF" rx="11" ry="11" style="stroke: #919871; stroke-width: 1.0;"/><path d="M830.1677,650.5 L830.1677,638.1069 L832.6164,638.1069 L832.6164,648.3418 L837.8542,648.3418 L837.8542,650.5 Z "/><text fill="#000000" font-family="Arial" font-size="11" lengthAdjust="spacingAndGlyphs" textLength="34" x="849.2" y="648.4934">Library</text><line style="stroke: #919871; stroke-width: 1.5;" x1="810.75" x2="893.75" y1="660.5" y2="660.5"/><text fill="#000000" font-family="Arial" font-size="10" lengthAdjust="spacingAndGlyphs" textLength="72" x="815.75" y="673.8799">version : 1.4.14</text><text fill="#000000" font-family="Arial" font-size="10" lengthAdjust="spacingAndGlyphs" textLength="73" x="815.75" y="685.3789">license : GPLv3</text><line style="stroke: #919871; stroke-width: 1.5;" x1="810.75" x2="893.75" y1="691.498" y2="691.498"/></a><a target="_top" xlink:href="../technology/packages/namespace_terradue_1_1_github.html" xlink:title="../technology/packages/namespace_terradue_1_1_github.html"><rect fill="#EEEBDC" filter="url(#f1)" height="70.998" style="stroke: #919871; stroke-width: 1.5;" width="66" x="1187" y="73.5"/><ellipse cx="1202" cy="89.5" fill="#00FFFF" rx="11" ry="11" style="stroke: #919871; stroke-width: 1.0;"/><path d="M1198.8677,95.5 L1198.8677,83.1069 L1201.3164,83.1069 L1201.3164,93.3418 L1206.5542,93.3418 L1206.5542,95.5 Z "/><text fill="#000000" font-family="Arial" font-size="11" lengthAdjust="spacingAndGlyphs" textLength="34" x="1216" y="93.4934">Library</text><line style="stroke: #919871; stroke-width: 1.5;" x1="1188" x2="1252" y1="105.5" y2="105.5"/><text fill="#000000" font-family="Arial" font-size="10" lengthAdjust="spacingAndGlyphs" textLength="39" x="1193" y="118.8799">version :</text><text fill="#000000" font-family="Arial" font-size="10" lengthAdjust="spacingAndGlyphs" textLength="38" x="1193" y="130.3789">license :</text><line style="stroke: #919871; stroke-width: 1.5;" x1="1188" x2="1252" y1="136.498" y2="136.498"/></a><a target="_top" xlink:href="../technology/packages/namespace_terradue_1_1_hadoop.html" xlink:title="../technology/packages/namespace_terradue_1_1_hadoop.html"><rect fill="#EEEBDC" filter="url(#f1)" height="70.998" style="stroke: #919871; stroke-width: 1.5;" width="101" x="1167.75" y="443.5"/><ellipse cx="1198.5" cy="459.5" fill="#00FFFF" rx="11" ry="11" style="stroke: #919871; stroke-width: 1.0;"/><path d="M1195.3677,465.5 L1195.3677,453.1069 L1197.8164,453.1069 L1197.8164,463.3418 L1203.0542,463.3418 L1203.0542,465.5 Z "/><text fill="#000000" font-family="Arial" font-size="11" lengthAdjust="spacingAndGlyphs" textLength="34" x="1216" y="463.4934">Library</text><line style="stroke: #919871; stroke-width: 1.5;" x1="1168.75" x2="1267.75" y1="475.5" y2="475.5"/><text fill="#000000" font-family="Arial" font-size="10" lengthAdjust="spacingAndGlyphs" textLength="66" x="1173.75" y="488.8799">version : 1.3.2</text><text fill="#000000" font-family="Arial" font-size="10" lengthAdjust="spacingAndGlyphs" textLength="89" x="1173.75" y="500.3789">license : incubating</text><line style="stroke: #919871; stroke-width: 1.5;" x1="1168.75" x2="1267.75" y1="506.498" y2="506.498"/></a><a target="_top" xlink:href="../technology/packages/namespace_terradue_1_1_metadata_1_1_earth_observation.html" xlink:title="../technology/packages/namespace_terradue_1_1_metadata_1_1_earth_observation.html"><rect fill="#EEEBDC" filter="url(#f1)" height="70.998" style="stroke: #919871; stroke-width: 1.5;" width="85" x="1355.75" y="73.5"/><ellipse cx="1379.3" cy="89.5" fill="#00FFFF" rx="11" ry="11" style="stroke: #919871; stroke-width: 1.0;"/><path d="M1376.1677,95.5 L1376.1677,83.1069 L1378.6164,83.1069 L1378.6164,93.3418 L1383.8542,93.3418 L1383.8542,95.5 Z "/><text fill="#000000" font-family="Arial" font-size="11" lengthAdjust="spacingAndGlyphs" textLength="34" x="1395.2" y="93.4934">Library</text><line style="stroke: #919871; stroke-width: 1.5;" x1="1356.75" x2="1439.75" y1="105.5" y2="105.5"/><text fill="#000000" font-family="Arial" font-size="10" lengthAdjust="spacingAndGlyphs" textLength="66" x="1361.75" y="118.8799">version : 1.2.2</text><text fill="#000000" font-family="Arial" font-size="10" lengthAdjust="spacingAndGlyphs" textLength="73" x="1361.75" y="130.3789">license : GPLv3</text><line style="stroke: #919871; stroke-width: 1.5;" x1="1356.75" x2="1439.75" y1="136.498" y2="136.498"/></a><a target="_top" xlink:href="../technology/packages/namespace_terradue_1_1_service_model_1_1_ogc_1_1_ows_context.html" xlink:title="../technology/packages/namespace_terradue_1_1_service_model_1_1_ogc_1_1_ows_context.html"><rect fill="#EEEBDC" filter="url(#f1)" height="70.998" style="stroke: #919871; stroke-width: 1.5;" width="85" x="1596.75" y="73.5"/><ellipse cx="1620.3" cy="89.5" fill="#00FFFF" rx="11" ry="11" style="stroke: #919871; stroke-width: 1.0;"/><path d="M1617.1677,95.5 L1617.1677,83.1069 L1619.6164,83.1069 L1619.6164,93.3418 L1624.8542,93.3418 L1624.8542,95.5 Z "/><text fill="#000000" font-family="Arial" font-size="11" lengthAdjust="spacingAndGlyphs" textLength="34" x="1636.2" y="93.4934">Library</text><line style="stroke: #919871; stroke-width: 1.5;" x1="1597.75" x2="1680.75" y1="105.5" y2="105.5"/><text fill="#000000" font-family="Arial" font-size="10" lengthAdjust="spacingAndGlyphs" textLength="66" x="1602.75" y="118.8799">version : 1.0.6</text><text fill="#000000" font-family="Arial" font-size="10" lengthAdjust="spacingAndGlyphs" textLength="73" x="1602.75" y="130.3789">license : GPLv3</text><line style="stroke: #919871; stroke-width: 1.5;" x1="1597.75" x2="1680.75" y1="136.498" y2="136.498"/></a><a target="_top" xlink:href="../technology/packages/namespace_terradue_1_1_service_model_1_1_syndication.html" xlink:title="../technology/packages/namespace_terradue_1_1_service_model_1_1_syndication.html"><rect fill="#EEEBDC" filter="url(#f1)" height="70.998" style="stroke: #919871; stroke-width: 1.5;" width="85" x="1832.75" y="73.5"/><ellipse cx="1856.3" cy="89.5" fill="#00FFFF" rx="11" ry="11" style="stroke: #919871; stroke-width: 1.0;"/><path d="M1853.1677,95.5 L1853.1677,83.1069 L1855.6164,83.1069 L1855.6164,93.3418 L1860.8542,93.3418 L1860.8542,95.5 Z "/><text fill="#000000" font-family="Arial" font-size="11" lengthAdjust="spacingAndGlyphs" textLength="34" x="1872.2" y="93.4934">Library</text><line style="stroke: #919871; stroke-width: 1.5;" x1="1833.75" x2="1916.75" y1="105.5" y2="105.5"/><text fill="#000000" font-family="Arial" font-size="10" lengthAdjust="spacingAndGlyphs" textLength="66" x="1838.75" y="118.8799">version : 1.0.0</text><text fill="#000000" font-family="Arial" font-size="10" lengthAdjust="spacingAndGlyphs" textLength="73" x="1838.75" y="130.3789">license : GPLv3</text><line style="stroke: #919871; stroke-width: 1.5;" x1="1833.75" x2="1916.75" y1="136.498" y2="136.498"/></a><a target="_top" xlink:href="../technology/packages/namespace_terradue_1_1_news.html" xlink:title="../technology/packages/namespace_terradue_1_1_news.html"><rect fill="#EEEBDC" filter="url(#f1)" height="70.998" style="stroke: #919871; stroke-width: 1.5;" width="66" x="2016" y="73.5"/><ellipse cx="2031" cy="89.5" fill="#00FFFF" rx="11" ry="11" style="stroke: #919871; stroke-width: 1.0;"/><path d="M2027.8677,95.5 L2027.8677,83.1069 L2030.3164,83.1069 L2030.3164,93.3418 L2035.5542,93.3418 L2035.5542,95.5 Z "/><text fill="#000000" font-family="Arial" font-size="11" lengthAdjust="spacingAndGlyphs" textLength="34" x="2045" y="93.4934">Library</text><line style="stroke: #919871; stroke-width: 1.5;" x1="2017" x2="2081" y1="105.5" y2="105.5"/><text fill="#000000" font-family="Arial" font-size="10" lengthAdjust="spacingAndGlyphs" textLength="39" x="2022" y="118.8799">version :</text><text fill="#000000" font-family="Arial" font-size="10" lengthAdjust="spacingAndGlyphs" textLength="38" x="2022" y="130.3789">license :</text><line style="stroke: #919871; stroke-width: 1.5;" x1="2017" x2="2081" y1="136.498" y2="136.498"/></a><a target="_top" xlink:href="../technology/packages/namespace_terradue_1_1_open_nebula.html" xlink:title="../technology/packages/namespace_terradue_1_1_open_nebula.html"><rect fill="#EEEBDC" filter="url(#f1)" height="70.998" style="stroke: #919871; stroke-width: 1.5;" width="85" x="1025.75" y="443.5"/><ellipse cx="1049.3" cy="459.5" fill="#00FFFF" rx="11" ry="11" style="stroke: #919871; stroke-width: 1.0;"/><path d="M1046.1677,465.5 L1046.1677,453.1069 L1048.6164,453.1069 L1048.6164,463.3418 L1053.8542,463.3418 L1053.8542,465.5 Z "/><text fill="#000000" font-family="Arial" font-size="11" lengthAdjust="spacingAndGlyphs" textLength="34" x="1065.2" y="463.4934">Library</text><line style="stroke: #919871; stroke-width: 1.5;" x1="1026.75" x2="1109.75" y1="475.5" y2="475.5"/><text fill="#000000" font-family="Arial" font-size="10" lengthAdjust="spacingAndGlyphs" textLength="66" x="1031.75" y="488.8799">version : 1.0.0</text><text fill="#000000" font-family="Arial" font-size="10" lengthAdjust="spacingAndGlyphs" textLength="73" x="1031.75" y="500.3789">license : GPLv3</text><line style="stroke: #919871; stroke-width: 1.5;" x1="1026.75" x2="1109.75" y1="506.498" y2="506.498"/></a><a target="_top" xlink:href="../technology/packages/namespace_terradue_1_1_open_search_1_1_data_analyzer.html" xlink:title="../technology/packages/namespace_terradue_1_1_open_search_1_1_data_analyzer.html"><rect fill="#EEEBDC" filter="url(#f1)" height="70.998" style="stroke: #919871; stroke-width: 1.5;" width="85" x="122.75" y="443.5"/><ellipse cx="146.3" cy="459.5" fill="#00FFFF" rx="11" ry="11" style="stroke: #919871; stroke-width: 1.0;"/><path d="M143.1677,465.5 L143.1677,453.1069 L145.6164,453.1069 L145.6164,463.3418 L150.8542,463.3418 L150.8542,465.5 Z "/><text fill="#000000" font-family="Arial" font-size="11" lengthAdjust="spacingAndGlyphs" textLength="34" x="162.2" y="463.4934">Library</text><line style="stroke: #919871; stroke-width: 1.5;" x1="123.75" x2="206.75" y1="475.5" y2="475.5"/><text fill="#000000" font-family="Arial" font-size="10" lengthAdjust="spacingAndGlyphs" textLength="72" x="128.75" y="488.8799">version : 1.0.13</text><text fill="#000000" font-family="Arial" font-size="10" lengthAdjust="spacingAndGlyphs" textLength="73" x="128.75" y="500.3789">license : GPLv3</text><line style="stroke: #919871; stroke-width: 1.5;" x1="123.75" x2="206.75" y1="506.498" y2="506.498"/></a><a target="_top" xlink:href="../technology/packages/namespace_terradue_1_1_open_search_1_1_tumblr.html" xlink:title="../technology/packages/namespace_terradue_1_1_open_search_1_1_tumblr.html"><rect fill="#EEEBDC" filter="url(#f1)" height="70.998" style="stroke: #919871; stroke-width: 1.5;" width="85" x="483.75" y="443.5"/><ellipse cx="507.3" cy="459.5" fill="#00FFFF" rx="11" ry="11" style="stroke: #919871; stroke-width: 1.0;"/><path d="M504.1677,465.5 L504.1677,453.1069 L506.6164,453.1069 L506.6164,463.3418 L511.8542,463.3418 L511.8542,465.5 Z "/><text fill="#000000" font-family="Arial" font-size="11" lengthAdjust="spacingAndGlyphs" textLength="34" x="523.2" y="463.4934">Library</text><line style="stroke: #919871; stroke-width: 1.5;" x1="484.75" x2="567.75" y1="475.5" y2="475.5"/><text fill="#000000" font-family="Arial" font-size="10" lengthAdjust="spacingAndGlyphs" textLength="66" x="489.75" y="488.8799">version : 1.0.4</text><text fill="#000000" font-family="Arial" font-size="10" lengthAdjust="spacingAndGlyphs" textLength="73" x="489.75" y="500.3789">license : GPLv3</text><line style="stroke: #919871; stroke-width: 1.5;" x1="484.75" x2="567.75" y1="506.498" y2="506.498"/></a><a target="_top" xlink:href="../technology/packages/namespace_terradue_1_1_open_search_1_1_twitter.html" xlink:title="../technology/packages/namespace_terradue_1_1_open_search_1_1_twitter.html"><rect fill="#EEEBDC" filter="url(#f1)" height="70.998" style="stroke: #919871; stroke-width: 1.5;" width="85" x="315.75" y="443.5"/><ellipse cx="339.3" cy="459.5" fill="#00FFFF" rx="11" ry="11" style="stroke: #919871; stroke-width: 1.0;"/><path d="M336.1677,465.5 L336.1677,453.1069 L338.6164,453.1069 L338.6164,463.3418 L343.8542,463.3418 L343.8542,465.5 Z "/><text fill="#000000" font-family="Arial" font-size="11" lengthAdjust="spacingAndGlyphs" textLength="34" x="355.2" y="463.4934">Library</text><line style="stroke: #919871; stroke-width: 1.5;" x1="316.75" x2="399.75" y1="475.5" y2="475.5"/><text fill="#000000" font-family="Arial" font-size="10" lengthAdjust="spacingAndGlyphs" textLength="66" x="321.75" y="488.8799">version : 1.0.4</text><text fill="#000000" font-family="Arial" font-size="10" lengthAdjust="spacingAndGlyphs" textLength="73" x="321.75" y="500.3789">license : GPLv3</text><line style="stroke: #919871; stroke-width: 1.5;" x1="316.75" x2="399.75" y1="506.498" y2="506.498"/></a><a target="_top" xlink:href="../technology/packages/namespace_terradue_1_1_open_search_1_1_geo_json.html" xlink:title="../technology/packages/namespace_terradue_1_1_open_search_1_1_geo_json.html"><rect fill="#EEEBDC" filter="url(#f1)" height="70.998" style="stroke: #919871; stroke-width: 1.5;" width="85" x="809.75" y="443.5"/><ellipse cx="833.3" cy="459.5" fill="#00FFFF" rx="11" ry="11" style="stroke: #919871; stroke-width: 1.0;"/><path d="M830.1677,465.5 L830.1677,453.1069 L832.6164,453.1069 L832.6164,463.3418 L837.8542,463.3418 L837.8542,465.5 Z "/><text fill="#000000" font-family="Arial" font-size="11" lengthAdjust="spacingAndGlyphs" textLength="34" x="849.2" y="463.4934">Library</text><line style="stroke: #919871; stroke-width: 1.5;" x1="810.75" x2="893.75" y1="475.5" y2="475.5"/><text fill="#000000" font-family="Arial" font-size="10" lengthAdjust="spacingAndGlyphs" textLength="66" x="815.75" y="488.8799">version : 1.2.3</text><text fill="#000000" font-family="Arial" font-size="10" lengthAdjust="spacingAndGlyphs" textLength="73" x="815.75" y="500.3789">license : GPLv3</text><line style="stroke: #919871; stroke-width: 1.5;" x1="810.75" x2="893.75" y1="506.498" y2="506.498"/></a><a target="_top" xlink:href="../technology/packages/namespace_terradue_1_1_open_search.html" xlink:title="../technology/packages/namespace_terradue_1_1_open_search.html"><rect fill="#EEEBDC" filter="url(#f1)" height="70.998" style="stroke: #919871; stroke-width: 1.5;" width="85" x="483.75" y="628.5"/><ellipse cx="507.3" cy="644.5" fill="#00FFFF" rx="11" ry="11" style="stroke: #919871; stroke-width: 1.0;"/><path d="M504.1677,650.5 L504.1677,638.1069 L506.6164,638.1069 L506.6164,648.3418 L511.8542,648.3418 L511.8542,650.5 Z "/><text fill="#000000" font-family="Arial" font-size="11" lengthAdjust="spacingAndGlyphs" textLength="34" x="523.2" y="648.4934">Library</text><line style="stroke: #919871; stroke-width: 1.5;" x1="484.75" x2="567.75" y1="660.5" y2="660.5"/><text fill="#000000" font-family="Arial" font-size="10" lengthAdjust="spacingAndGlyphs" textLength="72" x="489.75" y="673.8799">version : 1.9.11</text><text fill="#000000" font-family="Arial" font-size="10" lengthAdjust="spacingAndGlyphs" textLength="73" x="489.75" y="685.3789">license : GPLv3</text><line style="stroke: #919871; stroke-width: 1.5;" x1="484.75" x2="567.75" y1="691.498" y2="691.498"/></a><a target="_top" xlink:href="../technology/packages/namespace_terradue_1_1_portal.html" xlink:title="../technology/packages/namespace_terradue_1_1_portal.html"><rect fill="#EEEBDC" filter="url(#f1)" height="70.998" style="stroke: #919871; stroke-width: 1.5;" width="101" x="651.75" y="443.5"/><ellipse cx="682.5" cy="459.5" fill="#00FFFF" rx="11" ry="11" style="stroke: #919871; stroke-width: 1.0;"/><path d="M679.3677,465.5 L679.3677,453.1069 L681.8164,453.1069 L681.8164,463.3418 L687.0542,463.3418 L687.0542,465.5 Z "/><text fill="#000000" font-family="Arial" font-size="11" lengthAdjust="spacingAndGlyphs" textLength="34" x="700" y="463.4934">Library</text><line style="stroke: #919871; stroke-width: 1.5;" x1="652.75" x2="751.75" y1="475.5" y2="475.5"/><text fill="#000000" font-family="Arial" font-size="10" lengthAdjust="spacingAndGlyphs" textLength="72" x="657.75" y="488.8799">version : 2.6.26</text><text fill="#000000" font-family="Arial" font-size="10" lengthAdjust="spacingAndGlyphs" textLength="89" x="657.75" y="500.3789">license : incubating</text><line style="stroke: #919871; stroke-width: 1.5;" x1="652.75" x2="751.75" y1="506.498" y2="506.498"/></a><a target="_top" xlink:href="../technology/packages/namespace_terradue_1_1_sandbox.html" xlink:title="../technology/packages/namespace_terradue_1_1_sandbox.html"><rect fill="#EEEBDC" filter="url(#f1)" height="70.998" style="stroke: #919871; stroke-width: 1.5;" width="101" x="1026.75" y="73.5"/><ellipse cx="1057.5" cy="89.5" fill="#00FFFF" rx="11" ry="11" style="stroke: #919871; stroke-width: 1.0;"/><path d="M1054.3677,95.5 L1054.3677,83.1069 L1056.8164,83.1069 L1056.8164,93.3418 L1062.0542,93.3418 L1062.0542,95.5 Z "/><text fill="#000000" font-family="Arial" font-size="11" lengthAdjust="spacingAndGlyphs" textLength="34" x="1075" y="93.4934">Library</text><line style="stroke: #919871; stroke-width: 1.5;" x1="1027.75" x2="1126.75" y1="105.5" y2="105.5"/><text fill="#000000" font-family="Arial" font-size="10" lengthAdjust="spacingAndGlyphs" textLength="66" x="1032.75" y="118.8799">version : 1.3.6</text><text fill="#000000" font-family="Arial" font-size="10" lengthAdjust="spacingAndGlyphs" textLength="89" x="1032.75" y="130.3789">license : incubating</text><line style="stroke: #919871; stroke-width: 1.5;" x1="1027.75" x2="1126.75" y1="136.498" y2="136.498"/></a><a target="_top" xlink:href="../technology/packages/namespace_terradue_1_1_tep_q_w.html" xlink:title="../technology/packages/namespace_terradue_1_1_tep_q_w.html"><rect fill="#EEEBDC" filter="url(#f1)" height="70.998" style="stroke: #919871; stroke-width: 1.5;" width="66" x="2145" y="73.5"/><ellipse cx="2160" cy="89.5" fill="#00FFFF" rx="11" ry="11" style="stroke: #919871; stroke-width: 1.0;"/><path d="M2156.8677,95.5 L2156.8677,83.1069 L2159.3164,83.1069 L2159.3164,93.3418 L2164.5542,93.3418 L2164.5542,95.5 Z "/><text fill="#000000" font-family="Arial" font-size="11" lengthAdjust="spacingAndGlyphs" textLength="34" x="2174" y="93.4934">Library</text><line style="stroke: #919871; stroke-width: 1.5;" x1="2146" x2="2210" y1="105.5" y2="105.5"/><text fill="#000000" font-family="Arial" font-size="10" lengthAdjust="spacingAndGlyphs" textLength="39" x="2151" y="118.8799">version :</text><text fill="#000000" font-family="Arial" font-size="10" lengthAdjust="spacingAndGlyphs" textLength="38" x="2151" y="130.3789">license :</text><line style="stroke: #919871; stroke-width: 1.5;" x1="2146" x2="2210" y1="136.498" y2="136.498"/></a><a target="_top" xlink:href="../technology/packages/namespace_terradue_1_1_web_service_1_1_model.html" xlink:title="../technology/packages/namespace_terradue_1_1_web_service_1_1_model.html"><rect fill="#EEEBDC" filter="url(#f1)" height="70.998" style="stroke: #919871; stroke-width: 1.5;" width="101" x="651.75" y="258.5"/><ellipse cx="682.5" cy="274.5" fill="#00FFFF" rx="11" ry="11" style="stroke: #919871; stroke-width: 1.0;"/><path d="M679.3677,280.5 L679.3677,268.1069 L681.8164,268.1069 L681.8164,278.3418 L687.0542,278.3418 L687.0542,280.5 Z "/><text fill="#000000" font-family="Arial" font-size="11" lengthAdjust="spacingAndGlyphs" textLength="34" x="700" y="278.4934">Library</text><line style="stroke: #919871; stroke-width: 1.5;" x1="652.75" x2="751.75" y1="290.5" y2="290.5"/><text fill="#000000" font-family="Arial" font-size="10" lengthAdjust="spacingAndGlyphs" textLength="66" x="657.75" y="303.8799">version : 1.1.3</text><text fill="#000000" font-family="Arial" font-size="10" lengthAdjust="spacingAndGlyphs" textLength="89" x="657.75" y="315.3789">license : incubating</text><line style="stroke: #919871; stroke-width: 1.5;" x1="652.75" x2="751.75" y1="321.498" y2="321.498"/></a><path d="M842.862,329.852 C813.111,361.142 769.504,407.005 738.705,439.397 " fill="none" style="stroke: #000000; stroke-width: 1.0; stroke-dasharray: 7.0,7.0;"/><polygon fill="#000000" points="735.014,443.278,744.1134,439.5096,738.4584,439.6536,738.3144,433.9986,735.014,443.278" style="stroke: #000000; stroke-width: 1.0;"/><text fill="#000000" font-family="Arial" font-size="11" lengthAdjust="spacingAndGlyphs" textLength="40" x="811" y="373.8179">requires</text><path d="M1026.73,318.99 C1001.85,330.384 971.179,343.722 943,354 C907.326,367.012 898.209,370.422 861,378 C831.182,384.073 820.348,372.655 793,386 C768.223,398.091 746.289,419.731 730.167,438.986 " fill="none" style="stroke: #000000; stroke-width: 1.0; stroke-dasharray: 7.0,7.0;"/><polygon fill="#000000" points="726.609,443.309,735.4161,438.9006,729.7858,439.4479,729.2385,433.8176,726.609,443.309" style="stroke: #000000; stroke-width: 1.0;"/><text fill="#000000" font-family="Arial" font-size="11" lengthAdjust="spacingAndGlyphs" textLength="40" x="921" y="373.8179">requires</text><path d="M1069.59,329.617 C1067.7,339.98 1065.94,351.406 1065,362 C1062.76,387.265 1063.44,415.737 1064.72,438.151 " fill="none" style="stroke: #000000; stroke-width: 1.0; stroke-dasharray: 7.0,7.0;"/><polygon fill="#000000" points="1065.04,443.42,1068.4912,434.1956,1064.7391,438.4291,1060.5057,434.677,1065.04,443.42" style="stroke: #000000; stroke-width: 1.0;"/><text fill="#000000" font-family="Arial" font-size="11" lengthAdjust="spacingAndGlyphs" textLength="40" x="1066" y="373.8179">requires</text><path d="M1103.85,329.852 C1127.86,361.015 1163.01,406.632 1187.95,439.001 " fill="none" style="stroke: #000000; stroke-width: 1.0; stroke-dasharray: 7.0,7.0;"/><polygon fill="#000000" points="1191.25,443.278,1188.9218,433.7083,1188.1968,439.3185,1182.5865,438.5935,1191.25,443.278" style="stroke: #000000; stroke-width: 1.0;"/><text fill="#000000" font-family="Arial" font-size="11" lengthAdjust="spacingAndGlyphs" textLength="40" x="1141" y="373.8179">requires</text><path d="M207.473,501.531 C275.5,536.015 408.406,603.389 479.122,639.2365 " fill="none" style="stroke: #000000; stroke-width: 1.0; stroke-dasharray: 7.0,7.0;"/><polygon fill="#000000" points="483.689,641.5514,477.4691,633.9151,479.229,639.2912,473.8529,641.0511,483.689,641.5514" style="stroke: #000000; stroke-width: 1.0;"/><text fill="#000000" font-family="Arial" font-size="11" lengthAdjust="spacingAndGlyphs" textLength="40" x="325" y="558.8179">requires</text><path d="M165,514.852 C165,545.761 165,590.888 165,623.206 " fill="none" style="stroke: #000000; stroke-width: 1.0; stroke-dasharray: 7.0,7.0;"/><polygon fill="#000000" points="165,628.278,169,619.278,165,623.278,161,619.278,165,628.278" style="stroke: #000000; stroke-width: 1.0;"/><text fill="#000000" font-family="Arial" font-size="11" lengthAdjust="spacingAndGlyphs" textLength="40" x="166" y="558.8179">requires</text><path d="M809.727,511.847 C796.905,521.012 782.607,530.753 769,539 C703.081,578.955 622.764,618.225 572.998,641.5319 " fill="none" style="stroke: #000000; stroke-width: 1.0; stroke-dasharray: 7.0,7.0;"/><polygon fill="#000000" points="568.279,643.7371,578.1261,643.5501,572.8087,641.62,574.7388,636.3026,568.279,643.7371" style="stroke: #000000; stroke-width: 1.0;"/><text fill="#000000" font-family="Arial" font-size="11" lengthAdjust="spacingAndGlyphs" textLength="40" x="751" y="558.8179">requires</text><path d="M852,514.852 C852,545.761 852,590.888 852,623.206 " fill="none" style="stroke: #000000; stroke-width: 1.0; stroke-dasharray: 7.0,7.0;"/><polygon fill="#000000" points="852,628.278,856,619.278,852,623.278,848,619.278,852,628.278" style="stroke: #000000; stroke-width: 1.0;"/><text fill="#000000" font-family="Arial" font-size="11" lengthAdjust="spacingAndGlyphs" textLength="40" x="853" y="558.8179">requires</text><path d="M526,514.852 C526,545.761 526,590.888 526,623.206 " fill="none" style="stroke: #000000; stroke-width: 1.0; stroke-dasharray: 7.0,7.0;"/><polygon fill="#000000" points="526,628.278,530,619.278,526,623.278,522,619.278,526,628.278" style="stroke: #000000; stroke-width: 1.0;"/><text fill="#000000" font-family="Arial" font-size="11" lengthAdjust="spacingAndGlyphs" textLength="40" x="527" y="558.8179">requires</text><path d="M389.995,514.852 C418.721,546.142 460.824,592.005 490.561,624.397 " fill="none" style="stroke: #000000; stroke-width: 1.0; stroke-dasharray: 7.0,7.0;"/><polygon fill="#000000" points="494.124,628.278,490.9836,618.9432,490.7424,624.595,485.0907,624.3538,494.124,628.278" style="stroke: #000000; stroke-width: 1.0;"/><text fill="#000000" font-family="Arial" font-size="11" lengthAdjust="spacingAndGlyphs" textLength="40" x="433" y="558.8179">requires</text><path d="M668.481,514.852 C638.388,546.142 594.28,592.005 563.127,624.397 " fill="none" style="stroke: #000000; stroke-width: 1.0; stroke-dasharray: 7.0,7.0;"/><polygon fill="#000000" points="559.394,628.278,568.5153,624.563,562.8596,624.6739,562.7487,619.0181,559.394,628.278" style="stroke: #000000; stroke-width: 1.0;"/><text fill="#000000" font-family="Arial" font-size="11" lengthAdjust="spacingAndGlyphs" textLength="40" x="636" y="558.8179">requires</text><path d="M1026.65,111.639 C913.948,116.477 646.913,134.825 592,201 C548.576,253.329 567.866,290.427 592,354 C604.7,387.455 631.016,417.665 654.723,439.89 " fill="none" style="stroke: #000000; stroke-width: 1.0; stroke-dasharray: 7.0,7.0;"/><polygon fill="#000000" points="658.503,443.388,654.6136,434.3397,654.833,439.9923,649.1804,440.2117,658.503,443.388" style="stroke: #000000; stroke-width: 1.0;"/><text fill="#000000" font-family="Arial" font-size="11" lengthAdjust="spacingAndGlyphs" textLength="40" x="593" y="297.8179">requires</text><path d="M1077,144.852 C1077,175.761 1077,220.888 1077,253.206 " fill="none" style="stroke: #000000; stroke-width: 1.0; stroke-dasharray: 7.0,7.0;"/><polygon fill="#000000" points="1077,258.278,1081,249.278,1077,253.278,1073,249.278,1077,258.278" style="stroke: #000000; stroke-width: 1.0;"/><text fill="#000000" font-family="Arial" font-size="11" lengthAdjust="spacingAndGlyphs" textLength="40" x="1078" y="188.8179">requires</text><path d="M1107.6,144.651 C1120.49,160.82 1134.64,180.905 1144,201 C1181.27,280.989 1202.41,383.031 1211.88,438.223 " fill="none" style="stroke: #000000; stroke-width: 1.0; stroke-dasharray: 7.0,7.0;"/><polygon fill="#000000" points="1212.76,443.416,1215.1991,433.8739,1211.9241,438.4864,1207.3117,435.2114,1212.76,443.416" style="stroke: #000000; stroke-width: 1.0;"/><text fill="#000000" font-family="Arial" font-size="11" lengthAdjust="spacingAndGlyphs" textLength="40" x="1196" y="297.8179">requires</text><path d="M702,329.852 C702,360.761 702,405.888 702,438.206 " fill="none" style="stroke: #000000; stroke-width: 1.0; stroke-dasharray: 7.0,7.0;"/><polygon fill="#000000" points="702,443.278,706,434.278,702,438.278,698,434.278,702,443.278" style="stroke: #000000; stroke-width: 1.0;"/><text fill="#000000" font-family="Arial" font-size="11" lengthAdjust="spacingAndGlyphs" textLength="40" x="703" y="373.8179">requires</text><text fill="#888888" font-family="sans-serif" font-size="10" lengthAdjust="spacingAndGlyphs" textLength="136" x="1064.5" y="751.668">Software Packages Diagram</text></g></svg>