<?xml version="1.0" encoding="UTF-8" standalone="yes"?><svg xmlns="http://www.w3.org/2000/svg" xmlns:xlink="http://www.w3.org/1999/xlink" height="228pt" style="width:257px;height:228px;" version="1.1" viewBox="0 0 257 228" width="257pt"><defs><filter height="300%" id="f1" width="300%" x="-1" y="-1"><feGaussianBlur result="blurOut" stdDeviation="2.0"/><feColorMatrix in="blurOut" result="blurOut2" type="matrix" values="0 0 0 0 0 0 0 0 0 0 0 0 0 0 0 0 0 0 .4 0"/><feOffset dx="4.0" dy="4.0" in="blurOut2" result="blurOut3"/><feBlend in="SourceGraphic" in2="blurOut3" mode="normal"/></filter></defs><g><polygon fill="#FFFFFF" filter="url(#f1)" points="22,24,107,24,114,43.6179,250,43.6179,250,221,22,221,22,24" style="stroke: #000000; stroke-width: 2.0;"/><line style="stroke: #000000; stroke-width: 2.0;" x1="22" x2="114" y1="43.6179" y2="43.6179"/><text fill="#000000" font-family="Arial" font-size="11" lengthAdjust="spacingAndGlyphs" textLength="79" x="25" y="37.4829">Terradue::Portal</text><a xlink:href="../information/classes/class_terradue_1_1_portal_1_1_entity.html" xlink:title="../information/classes/class_terradue_1_1_portal_1_1_entity.html"><rect fill="#EEEBDC" filter="url(#f1)" height="147.0399" style="stroke: #919871; stroke-width: 1.5;" width="196" x="38" y="57.5"/><ellipse cx="118.25" cy="73.5" fill="#ADD1B2" rx="11" ry="11" style="stroke: #919871; stroke-width: 1.0;"/><path d="M120.5938,69.1719 C119.6563,68.7344 119.0625,68.5938 118.1875,68.5938 C115.5625,68.5938 113.5625,70.6719 113.5625,73.3906 L113.5625,74.5156 C113.5625,77.0938 115.6719,78.9844 118.5625,78.9844 C119.7813,78.9844 120.9375,78.6875 121.6875,78.1406 C122.2656,77.7344 122.5938,77.2813 122.5938,76.8906 C122.5938,76.4375 122.2031,76.0469 121.7344,76.0469 C121.5156,76.0469 121.3125,76.125 121.125,76.3125 C120.6719,76.7969 120.6719,76.7969 120.4844,76.8906 C120.0625,77.1563 119.375,77.2813 118.6094,77.2813 C116.5625,77.2813 115.2656,76.1875 115.2656,74.4844 L115.2656,73.3906 C115.2656,71.6094 116.5156,70.2969 118.25,70.2969 C118.8281,70.2969 119.4375,70.4531 119.9063,70.7031 C120.3906,70.9844 120.5625,71.2031 120.6563,71.6094 C120.7188,72.0156 120.75,72.1406 120.8906,72.2656 C121.0313,72.4063 121.2656,72.5156 121.4844,72.5156 C121.75,72.5156 122.0156,72.375 122.1875,72.1563 C122.2969,72 122.3281,71.8125 122.3281,71.3906 L122.3281,69.9688 C122.3281,69.5313 122.3125,69.4063 122.2188,69.25 C122.0625,68.9844 121.7813,68.8438 121.4844,68.8438 C121.1875,68.8438 120.9844,68.9375 120.7656,69.25 L120.5938,69.1719 Z "/><text fill="#000000" font-family="Arial" font-size="11" lengthAdjust="spacingAndGlyphs" textLength="27" x="138.75" y="77.174">Entity</text><line style="stroke: #919871; stroke-width: 1.5;" x1="39" x2="233" y1="89.5" y2="89.5"/><ellipse cx="49" cy="100.69" fill="none" rx="3" ry="3" style="stroke: #038048; stroke-width: 1.0;"/><text fill="#000000" font-family="Arial" font-size="10" lengthAdjust="spacingAndGlyphs" textLength="68" x="58" y="103.03">Identifier:string</text><ellipse cx="49" cy="113.07" fill="none" rx="3" ry="3" style="stroke: #038048; stroke-width: 1.0;"/><text fill="#000000" font-family="Arial" font-size="10" lengthAdjust="spacingAndGlyphs" textLength="55" x="58" y="115.41">Name:string</text><line style="stroke: #919871; stroke-width: 1.5;" x1="39" x2="233" y1="122.26" y2="122.26"/><ellipse cx="49" cy="133.45" fill="#84BE84" rx="3" ry="3" style="stroke: #038048; stroke-width: 1.0;"/><text fill="#000000" font-family="Arial" font-size="10" lengthAdjust="spacingAndGlyphs" textLength="30" x="58" y="135.79">Load()</text><ellipse cx="49" cy="145.83" fill="#84BE84" rx="3" ry="3" style="stroke: #038048; stroke-width: 1.0;"/><text fill="#000000" font-family="Arial" font-size="10" lengthAdjust="spacingAndGlyphs" textLength="31" x="58" y="148.17">Store()</text><ellipse cx="49" cy="158.2099" fill="#84BE84" rx="3" ry="3" style="stroke: #038048; stroke-width: 1.0;"/><text fill="#000000" font-family="Arial" font-size="10" lengthAdjust="spacingAndGlyphs" textLength="105" x="58" y="160.5499">StoreGlobalPrivileges()</text><ellipse cx="49" cy="170.5899" fill="#84BE84" rx="3" ry="3" style="stroke: #038048; stroke-width: 1.0;"/><text fill="#000000" font-family="Arial" font-size="10" lengthAdjust="spacingAndGlyphs" textLength="118" x="58" y="172.9299">RemoveGlobalPrivileges()</text><ellipse cx="49" cy="182.9699" fill="#84BE84" rx="3" ry="3" style="stroke: #038048; stroke-width: 1.0;"/><text fill="#000000" font-family="Arial" font-size="10" lengthAdjust="spacingAndGlyphs" textLength="36" x="58" y="185.3099">Delete()</text><ellipse cx="49" cy="195.3499" fill="#84BE84" rx="3" ry="3" style="stroke: #038048; stroke-width: 1.0;"/><text fill="#000000" font-family="Arial" font-size="10" lengthAdjust="spacingAndGlyphs" textLength="170" x="58" y="197.6899">GetAllowedAdministratorOperations()</text></a></g></svg>