<?xml version="1.0" encoding="UTF-8" standalone="yes"?><svg xmlns="http://www.w3.org/2000/svg" xmlns:xlink="http://www.w3.org/1999/xlink" height="140pt" style="width:169px;height:140px;" version="1.1" viewBox="0 0 169 140" width="169pt"><defs><filter height="300%" id="f1" width="300%" x="-1" y="-1"><feGaussianBlur result="blurOut" stdDeviation="2.0"/><feColorMatrix in="blurOut" result="blurOut2" type="matrix" values="0 0 0 0 0 0 0 0 0 0 0 0 0 0 0 0 0 0 .4 0"/><feOffset dx="4.0" dy="4.0" in="blurOut2" result="blurOut3"/><feBlend in="SourceGraphic" in2="blurOut3" mode="normal"/></filter></defs><g><polygon fill="#FFFFFF" filter="url(#f1)" points="22,24,107,24,114,43.6179,162,43.6179,162,133,22,133,22,24" style="stroke: #000000; stroke-width: 2.0;"/><line style="stroke: #000000; stroke-width: 2.0;" x1="22" x2="114" y1="43.6179" y2="43.6179"/><text fill="#000000" font-family="Arial" font-size="11" lengthAdjust="spacingAndGlyphs" textLength="79" x="25" y="37.4829">Terradue::Portal</text><a target="_top" xlink:href="../information/classes/class_terradue_1_1_portal_1_1_user.html" xlink:title="../information/classes/class_terradue_1_1_portal_1_1_user.html"><rect fill="#EEEBDC" filter="url(#f1)" height="60.38" style="stroke: #919871; stroke-width: 1.5;" width="108" x="38" y="57"/><ellipse cx="76.4" cy="73" fill="#ADD1B2" rx="11" ry="11" style="stroke: #919871; stroke-width: 1.0;"/><path d="M78.7438,68.6719 C77.8063,68.2344 77.2125,68.0938 76.3375,68.0938 C73.7125,68.0938 71.7125,70.1719 71.7125,72.8906 L71.7125,74.0156 C71.7125,76.5938 73.8219,78.4844 76.7125,78.4844 C77.9313,78.4844 79.0875,78.1875 79.8375,77.6406 C80.4156,77.2344 80.7438,76.7813 80.7438,76.3906 C80.7438,75.9375 80.3531,75.5469 79.8844,75.5469 C79.6656,75.5469 79.4625,75.625 79.275,75.8125 C78.8219,76.2969 78.8219,76.2969 78.6344,76.3906 C78.2125,76.6563 77.525,76.7813 76.7594,76.7813 C74.7125,76.7813 73.4156,75.6875 73.4156,73.9844 L73.4156,72.8906 C73.4156,71.1094 74.6656,69.7969 76.4,69.7969 C76.9781,69.7969 77.5875,69.9531 78.0563,70.2031 C78.5406,70.4844 78.7125,70.7031 78.8063,71.1094 C78.8688,71.5156 78.9,71.6406 79.0406,71.7656 C79.1813,71.9063 79.4156,72.0156 79.6344,72.0156 C79.9,72.0156 80.1656,71.875 80.3375,71.6563 C80.4469,71.5 80.4781,71.3125 80.4781,70.8906 L80.4781,69.4688 C80.4781,69.0313 80.4625,68.9063 80.3688,68.75 C80.2125,68.4844 79.9313,68.3438 79.6344,68.3438 C79.3375,68.3438 79.1344,68.4375 78.9156,68.75 L78.7438,68.6719 Z "/><text fill="#000000" font-family="Arial" font-size="11" lengthAdjust="spacingAndGlyphs" textLength="24" x="95.6" y="76.674">User</text><line style="stroke: #919871; stroke-width: 1.5;" x1="39" x2="145" y1="89" y2="89"/><ellipse cx="49" cy="100.19" fill="none" rx="3" ry="3" style="stroke: #038048; stroke-width: 1.0;"/><text fill="#000000" font-family="Arial" font-size="10" lengthAdjust="spacingAndGlyphs" textLength="82" x="58" y="102.53">AccountStatus:int</text><line style="stroke: #919871; stroke-width: 1.5;" x1="39" x2="145" y1="109.38" y2="109.38"/></a></g></svg>