<?xml version="1.0" encoding="UTF-8" standalone="yes"?><svg xmlns="http://www.w3.org/2000/svg" xmlns:xlink="http://www.w3.org/1999/xlink" height="231pt" style="width:418px;height:231px;" version="1.1" viewBox="0 0 418 231" width="418pt"><defs><filter height="300%" id="f1" width="300%" x="-1" y="-1"><feGaussianBlur result="blurOut" stdDeviation="2.0"/><feColorMatrix in="blurOut" result="blurOut2" type="matrix" values="0 0 0 0 0 0 0 0 0 0 0 0 0 0 0 0 0 0 .4 0"/><feOffset dx="4.0" dy="4.0" in="blurOut2" result="blurOut3"/><feBlend in="SourceGraphic" in2="blurOut3" mode="normal"/></filter></defs><g><polygon fill="#FFFFFF" filter="url(#f1)" points="22,24,70,24,77,46.4883,411,46.4883,411,224,22,224,22,24" style="stroke: #000000; stroke-width: 2.0;"/><line style="stroke: #000000; stroke-width: 2.0;" x1="22" x2="77" y1="46.4883" y2="46.4883"/><text fill="#000000" font-family="sans-serif" font-size="14" font-weight="bold" lengthAdjust="spacingAndGlyphs" textLength="42" x="26" y="39.5352">Cloud</text><rect fill="#EEEBDC" filter="url(#f1)" height="42.6489" style="stroke: #919871; stroke-width: 1.5;" width="164" x="38" y="60.5"/><rect fill="#EEEBDC" height="10" style="stroke: #919871; stroke-width: 1.5;" width="15" x="182" y="65.5"/><rect fill="#EEEBDC" height="2" style="stroke: #919871; stroke-width: 1.5;" width="4" x="180" y="67.5"/><rect fill="#EEEBDC" height="2" style="stroke: #919871; stroke-width: 1.5;" width="4" x="180" y="71.5"/><text fill="#000000" font-family="Arial" font-size="11" lengthAdjust="spacingAndGlyphs" textLength="124" x="53" y="90.8179">group___cloud_appliance</text><rect fill="#EEEBDC" filter="url(#f1)" height="42.6489" style="stroke: #919871; stroke-width: 1.5;" width="158" x="237" y="60.5"/><rect fill="#EEEBDC" height="10" style="stroke: #919871; stroke-width: 1.5;" width="15" x="375" y="65.5"/><rect fill="#EEEBDC" height="2" style="stroke: #919871; stroke-width: 1.5;" width="4" x="373" y="67.5"/><rect fill="#EEEBDC" height="2" style="stroke: #919871; stroke-width: 1.5;" width="4" x="373" y="71.5"/><text fill="#000000" font-family="Arial" font-size="11" lengthAdjust="spacingAndGlyphs" textLength="118" x="252" y="90.8179">group___cloud_provider</text><rect fill="#EEEBDC" filter="url(#f1)" height="42.6489" style="stroke: #919871; stroke-width: 1.5;" width="135" x="52.75" y="164.5"/><rect fill="#EEEBDC" height="10" style="stroke: #919871; stroke-width: 1.5;" width="15" x="167.75" y="169.5"/><rect fill="#EEEBDC" height="2" style="stroke: #919871; stroke-width: 1.5;" width="4" x="165.75" y="171.5"/><rect fill="#EEEBDC" height="2" style="stroke: #919871; stroke-width: 1.5;" width="4" x="165.75" y="175.5"/><text fill="#000000" font-family="Arial" font-size="11" lengthAdjust="spacingAndGlyphs" textLength="95" x="67.75" y="194.8179">group___one_client</text></g></svg>