<?xml version="1.0" encoding="UTF-8" standalone="yes"?><svg xmlns="http://www.w3.org/2000/svg" xmlns:xlink="http://www.w3.org/1999/xlink" height="810pt" style="width:934px;height:810px;" version="1.1" viewBox="0 0 934 810" width="934pt"><defs><filter height="300%" id="f1" width="300%" x="-1" y="-1"><feGaussianBlur result="blurOut" stdDeviation="2.0"/><feColorMatrix in="blurOut" result="blurOut2" type="matrix" values="0 0 0 0 0 0 0 0 0 0 0 0 0 0 0 0 0 0 .4 0"/><feOffset dx="4.0" dy="4.0" in="blurOut2" result="blurOut3"/><feBlend in="SourceGraphic" in2="blurOut3" mode="normal"/></filter></defs><g><ellipse cx="401" cy="20" fill="#000000" filter="url(#f1)" rx="10" ry="10" style="stroke: none; stroke-width: 1.0;"/><rect fill="#FEFECE" filter="url(#f1)" height="34.1328" rx="12.5" ry="12.5" style="stroke: #A80036; stroke-width: 1.5;" width="425" x="188.5" y="50"/><text fill="#000000" font-family="sans-serif" font-size="12" lengthAdjust="spacingAndGlyphs" textLength="405" x="198.5" y="71.6016">Load entity item considering access policies and user/group privileges</text><polygon fill="#FEFECE" filter="url(#f1)" points="277.5,104.1328,524.5,104.1328,536.5,116.1328,524.5,128.1328,277.5,128.1328,265.5,116.1328,277.5,104.1328" style="stroke: #A80036; stroke-width: 1.5;"/><text fill="#000000" font-family="sans-serif" font-size="11" lengthAdjust="spacingAndGlyphs" textLength="247" x="277.5" y="120.29">Are view privileges for current user sufficient?</text><text fill="#000000" font-family="sans-serif" font-size="11" lengthAdjust="spacingAndGlyphs" textLength="18" x="247.5" y="113.8125">yes</text><text fill="#000000" font-family="sans-serif" font-size="11" lengthAdjust="spacingAndGlyphs" textLength="14" x="536.5" y="113.8125">no</text><rect fill="#FEFECE" filter="url(#f1)" height="34.1328" rx="12.5" ry="12.5" style="stroke: #A80036; stroke-width: 1.5;" width="108" x="166.625" y="148.1328"/><text fill="#000000" font-family="sans-serif" font-size="12" lengthAdjust="spacingAndGlyphs" textLength="88" x="176.625" y="169.7344">Access granted</text><polygon fill="#FEFECE" filter="url(#f1)" points="470.375,148.1328,692.375,148.1328,704.375,160.1328,692.375,172.1328,470.375,172.1328,458.375,160.1328,470.375,148.1328" style="stroke: #A80036; stroke-width: 1.5;"/><text fill="#000000" font-family="sans-serif" font-size="11" lengthAdjust="spacingAndGlyphs" textLength="222" x="470.375" y="164.29">Is current context set to restricted mode?</text><text fill="#000000" font-family="sans-serif" font-size="11" lengthAdjust="spacingAndGlyphs" textLength="18" x="440.375" y="157.8125">yes</text><text fill="#000000" font-family="sans-serif" font-size="11" lengthAdjust="spacingAndGlyphs" textLength="14" x="704.375" y="157.8125">no</text><rect fill="#FEFECE" filter="url(#f1)" height="34.1328" rx="12.5" ry="12.5" style="stroke: #A80036; stroke-width: 1.5;" width="207" x="314.625" y="193.7328"/><text fill="#000000" font-family="sans-serif" font-size="12" lengthAdjust="spacingAndGlyphs" textLength="187" x="324.625" y="215.3344">Access denied (throw exception)</text><ellipse cx="418.125" cy="257.8656" fill="none" filter="url(#f1)" rx="10" ry="10" style="stroke: #000000; stroke-width: 1.0;"/><ellipse cx="418.625" cy="258.3656" fill="#000000" filter="url(#f1)" rx="6" ry="6" style="stroke: none; stroke-width: 1.0;"/><rect fill="#FEFECE" filter="url(#f1)" height="34.1328" rx="12.5" ry="12.5" style="stroke: #A80036; stroke-width: 1.5;" width="366" x="561.625" y="193.7328"/><text fill="#000000" font-family="sans-serif" font-size="12" lengthAdjust="spacingAndGlyphs" textLength="346" x="571.625" y="215.3344">Item flagged as unaccessible for current user (no exception)</text><rect fill="#FEFECE" filter="url(#f1)" height="34.1328" rx="12.5" ry="12.5" style="stroke: #A80036; stroke-width: 1.5;" width="108" x="527.375" y="287.8656"/><text fill="#000000" font-family="sans-serif" font-size="12" lengthAdjust="spacingAndGlyphs" textLength="88" x="537.375" y="309.4672">Access granted</text><polygon fill="#FEFECE" filter="url(#f1)" points="401,331.9984,413,343.9984,401,355.9984,389,343.9984,401,331.9984" style="stroke: #A80036; stroke-width: 1.5;"/><rect fill="#FEFECE" filter="url(#f1)" height="34.1328" rx="12.5" ry="12.5" style="stroke: #A80036; stroke-width: 1.5;" width="244" x="279" y="375.9984"/><text fill="#000000" font-family="sans-serif" font-size="12" lengthAdjust="spacingAndGlyphs" textLength="224" x="289" y="397.6">Generic authorisation check completed</text><rect fill="#FEFECE" filter="url(#f1)" height="34.1328" rx="12.5" ry="12.5" style="stroke: #A80036; stroke-width: 1.5;" width="443" x="179.5" y="430.1313"/><text fill="#000000" font-family="sans-serif" font-size="12" lengthAdjust="spacingAndGlyphs" textLength="423" x="189.5" y="451.7328">Speficic authorisation checks for operation (performed by entity subclass)</text><polygon fill="#FEFECE" filter="url(#f1)" points="260,484.2641,542,484.2641,554,496.2641,542,508.2641,260,508.2641,248,496.2641,260,484.2641" style="stroke: #A80036; stroke-width: 1.5;"/><text fill="#000000" font-family="sans-serif" font-size="11" lengthAdjust="spacingAndGlyphs" textLength="282" x="260" y="500.4213">Is specific privilege required for requested operation</text><text fill="#000000" font-family="sans-serif" font-size="11" lengthAdjust="spacingAndGlyphs" textLength="18" x="230" y="493.9438">yes</text><text fill="#000000" font-family="sans-serif" font-size="11" lengthAdjust="spacingAndGlyphs" textLength="14" x="554" y="493.9438">no</text><polygon fill="#FEFECE" filter="url(#f1)" points="153.5,528.2641,312.5,528.2641,324.5,540.2641,312.5,552.2641,153.5,552.2641,141.5,540.2641,153.5,528.2641" style="stroke: #A80036; stroke-width: 1.5;"/><text fill="#000000" font-family="sans-serif" font-size="11" lengthAdjust="spacingAndGlyphs" textLength="159" x="153.5" y="544.4213">Does user have this privilege?</text><text fill="#000000" font-family="sans-serif" font-size="11" lengthAdjust="spacingAndGlyphs" textLength="14" x="127.5" y="537.9438">no</text><text fill="#000000" font-family="sans-serif" font-size="11" lengthAdjust="spacingAndGlyphs" textLength="18" x="324.5" y="537.9438">yes</text><rect fill="#FEFECE" filter="url(#f1)" height="34.1328" rx="12.5" ry="12.5" style="stroke: #A80036; stroke-width: 1.5;" width="233" x="10" y="572.2641"/><text fill="#000000" font-family="sans-serif" font-size="12" lengthAdjust="spacingAndGlyphs" textLength="213" x="20" y="593.8656">Operation rejected (throw exception)</text><ellipse cx="126.5" cy="650.1633" fill="none" filter="url(#f1)" rx="10" ry="10" style="stroke: #000000; stroke-width: 1.0;"/><ellipse cx="127" cy="650.6633" fill="#000000" filter="url(#f1)" rx="6" ry="6" style="stroke: none; stroke-width: 1.0;"/><polygon fill="#FEFECE" filter="url(#f1)" points="401,670.1633,413,682.1633,401,694.1633,389,682.1633,401,670.1633" style="stroke: #A80036; stroke-width: 1.5;"/><rect fill="#FEFECE" filter="url(#f1)" height="34.1328" rx="12.5" ry="12.5" style="stroke: #A80036; stroke-width: 1.5;" width="125" x="338.5" y="714.1633"/><text fill="#000000" font-family="sans-serif" font-size="12" lengthAdjust="spacingAndGlyphs" textLength="105" x="348.5" y="735.7648">Operation allowed</text><ellipse cx="401" cy="778.2961" fill="none" filter="url(#f1)" rx="10" ry="10" style="stroke: #000000; stroke-width: 1.0;"/><ellipse cx="401.5" cy="778.7961" fill="#000000" filter="url(#f1)" rx="6" ry="6" style="stroke: none; stroke-width: 1.0;"/><line style="stroke: #A80036; stroke-width: 1.5;" x1="401" x2="401" y1="30" y2="50"/><polygon fill="#A80036" points="397,40,401,50,405,40,401,44" style="stroke: #A80036; stroke-width: 1.0;"/><line style="stroke: #A80036; stroke-width: 1.5;" x1="418.125" x2="418.125" y1="227.8656" y2="247.8656"/><polygon fill="#A80036" points="414.125,237.8656,418.125,247.8656,422.125,237.8656,418.125,241.8656" style="stroke: #A80036; stroke-width: 1.0;"/><line style="stroke: #A80036; stroke-width: 1.5;" x1="418.125" x2="458.375" y1="160.1328" y2="160.1328"/><line style="stroke: #A80036; stroke-width: 1.5;" x1="418.125" x2="418.125" y1="160.1328" y2="193.7328"/><polygon fill="#A80036" points="414.125,183.7328,418.125,193.7328,422.125,183.7328,418.125,187.7328" style="stroke: #A80036; stroke-width: 1.0;"/><line style="stroke: #A80036; stroke-width: 1.5;" x1="704.375" x2="744.625" y1="160.1328" y2="160.1328"/><line style="stroke: #A80036; stroke-width: 1.5;" x1="744.625" x2="744.625" y1="160.1328" y2="193.7328"/><polygon fill="#A80036" points="740.625,183.7328,744.625,193.7328,748.625,183.7328,744.625,187.7328" style="stroke: #A80036; stroke-width: 1.0;"/><line style="stroke: #A80036; stroke-width: 1.5;" x1="744.625" x2="744.625" y1="227.8656" y2="272.8656"/><line style="stroke: #A80036; stroke-width: 1.5;" x1="581.375" x2="744.625" y1="272.8656" y2="272.8656"/><line style="stroke: #A80036; stroke-width: 1.5;" x1="581.375" x2="581.375" y1="272.8656" y2="287.8656"/><polygon fill="#A80036" points="577.375,277.8656,581.375,287.8656,585.375,277.8656,581.375,281.8656" style="stroke: #A80036; stroke-width: 1.0;"/><line style="stroke: #A80036; stroke-width: 1.5;" x1="220.625" x2="265.5" y1="116.1328" y2="116.1328"/><line style="stroke: #A80036; stroke-width: 1.5;" x1="220.625" x2="220.625" y1="116.1328" y2="148.1328"/><polygon fill="#A80036" points="216.625,138.1328,220.625,148.1328,224.625,138.1328,220.625,142.1328" style="stroke: #A80036; stroke-width: 1.0;"/><line style="stroke: #A80036; stroke-width: 1.5;" x1="536.5" x2="581.375" y1="116.1328" y2="116.1328"/><line style="stroke: #A80036; stroke-width: 1.5;" x1="581.375" x2="581.375" y1="116.1328" y2="148.1328"/><polygon fill="#A80036" points="577.375,138.1328,581.375,148.1328,585.375,138.1328,581.375,142.1328" style="stroke: #A80036; stroke-width: 1.0;"/><line style="stroke: #A80036; stroke-width: 1.5;" x1="220.625" x2="220.625" y1="182.2656" y2="343.9984"/><line style="stroke: #A80036; stroke-width: 1.5;" x1="220.625" x2="389" y1="343.9984" y2="343.9984"/><polygon fill="#A80036" points="379,339.9984,389,343.9984,379,347.9984,383,343.9984" style="stroke: #A80036; stroke-width: 1.0;"/><line style="stroke: #A80036; stroke-width: 1.5;" x1="581.375" x2="581.375" y1="321.9984" y2="343.9984"/><line style="stroke: #A80036; stroke-width: 1.5;" x1="413" x2="581.375" y1="343.9984" y2="343.9984"/><polygon fill="#A80036" points="423,339.9984,413,343.9984,423,347.9984,419,343.9984" style="stroke: #A80036; stroke-width: 1.0;"/><line style="stroke: #A80036; stroke-width: 1.5;" x1="401" x2="401" y1="84.1328" y2="104.1328"/><polygon fill="#A80036" points="397,94.1328,401,104.1328,405,94.1328,401,98.1328" style="stroke: #A80036; stroke-width: 1.0;"/><line style="stroke: #A80036; stroke-width: 1.5;" x1="401" x2="401" y1="355.9984" y2="375.9984"/><polygon fill="#A80036" points="397,365.9984,401,375.9984,405,365.9984,401,369.9984" style="stroke: #A80036; stroke-width: 1.0;"/><line style="stroke: #A80036; stroke-width: 1.5;" x1="401" x2="401" y1="410.1313" y2="430.1313"/><polygon fill="#A80036" points="397,420.1313,401,430.1313,405,420.1313,401,424.1313" style="stroke: #A80036; stroke-width: 1.0;"/><line style="stroke: #A80036; stroke-width: 1.5;" x1="126.5" x2="126.5" y1="606.3969" y2="640.1633"/><polygon fill="#A80036" points="122.5,630.1633,126.5,640.1633,130.5,630.1633,126.5,634.1633" style="stroke: #A80036; stroke-width: 1.0;"/><line style="stroke: #A80036; stroke-width: 1.5;" x1="126.5" x2="141.5" y1="540.2641" y2="540.2641"/><line style="stroke: #A80036; stroke-width: 1.5;" x1="126.5" x2="126.5" y1="540.2641" y2="572.2641"/><polygon fill="#A80036" points="122.5,562.2641,126.5,572.2641,130.5,562.2641,126.5,566.2641" style="stroke: #A80036; stroke-width: 1.0;"/><line style="stroke: #A80036; stroke-width: 1.5;" x1="324.5" x2="339.5" y1="540.2641" y2="540.2641"/><polygon fill="#A80036" points="335.5,639.1969,339.5,649.1969,343.5,639.1969,339.5,643.1969" style="stroke: #A80036; stroke-width: 1.5;"/><line style="stroke: #A80036; stroke-width: 1.5;" x1="339.5" x2="339.5" y1="540.2641" y2="682.1633"/><line style="stroke: #A80036; stroke-width: 1.5;" x1="339.5" x2="389" y1="682.1633" y2="682.1633"/><polygon fill="#A80036" points="379,678.1633,389,682.1633,379,686.1633,383,682.1633" style="stroke: #A80036; stroke-width: 1.0;"/><line style="stroke: #A80036; stroke-width: 1.5;" x1="233" x2="248" y1="496.2641" y2="496.2641"/><line style="stroke: #A80036; stroke-width: 1.5;" x1="233" x2="233" y1="496.2641" y2="528.2641"/><polygon fill="#A80036" points="229,518.2641,233,528.2641,237,518.2641,233,522.2641" style="stroke: #A80036; stroke-width: 1.0;"/><line style="stroke: #A80036; stroke-width: 1.5;" x1="554" x2="569" y1="496.2641" y2="496.2641"/><polygon fill="#A80036" points="565,616.3969,569,626.3969,573,616.3969,569,620.3969" style="stroke: #A80036; stroke-width: 1.5;"/><line style="stroke: #A80036; stroke-width: 1.5;" x1="569" x2="569" y1="496.2641" y2="682.1633"/><line style="stroke: #A80036; stroke-width: 1.5;" x1="413" x2="569" y1="682.1633" y2="682.1633"/><polygon fill="#A80036" points="423,678.1633,413,682.1633,423,686.1633,419,682.1633" style="stroke: #A80036; stroke-width: 1.0;"/><line style="stroke: #A80036; stroke-width: 1.5;" x1="401" x2="401" y1="464.2641" y2="484.2641"/><polygon fill="#A80036" points="397,474.2641,401,484.2641,405,474.2641,401,478.2641" style="stroke: #A80036; stroke-width: 1.0;"/><line style="stroke: #A80036; stroke-width: 1.5;" x1="401" x2="401" y1="694.1633" y2="714.1633"/><polygon fill="#A80036" points="397,704.1633,401,714.1633,405,704.1633,401,708.1633" style="stroke: #A80036; stroke-width: 1.0;"/><line style="stroke: #A80036; stroke-width: 1.5;" x1="401" x2="401" y1="748.2961" y2="768.2961"/><polygon fill="#A80036" points="397,758.2961,401,768.2961,405,758.2961,401,762.2961" style="stroke: #A80036; stroke-width: 1.0;"/><text fill="#888888" font-family="sans-serif" font-size="10" lengthAdjust="spacingAndGlyphs" textLength="207" x="365.3125" y="797.9641">Authorisation mechanism Activity Diagram</text><text fill="#888888" font-family="sans-serif" font-size="10" lengthAdjust="spacingAndGlyphs" textLength="73" x="432.3125" y="809.7414">(c) Terradue Srl</text></g></svg>