<?xml version="1.0" encoding="UTF-8" standalone="yes"?><svg xmlns="http://www.w3.org/2000/svg" xmlns:xlink="http://www.w3.org/1999/xlink" height="253pt" style="width:179px;height:253px;" version="1.1" viewBox="0 0 179 253" width="179pt"><defs><filter height="300%" id="f1" width="300%" x="-1" y="-1"><feGaussianBlur result="blurOut" stdDeviation="2.0"/><feColorMatrix in="blurOut" result="blurOut2" type="matrix" values="0 0 0 0 0 0 0 0 0 0 0 0 0 0 0 0 0 0 .4 0"/><feOffset dx="4.0" dy="4.0" in="blurOut2" result="blurOut3"/><feBlend in="SourceGraphic" in2="blurOut3" mode="normal"/></filter></defs><g><polygon fill="#FFFFFF" filter="url(#f1)" points="22,24,107,24,114,42.6489,172,42.6489,172,246,22,246,22,24" style="stroke: #000000; stroke-width: 2.0;"/><line style="stroke: #000000; stroke-width: 2.0;" x1="22" x2="114" y1="42.6489" y2="42.6489"/><text fill="#000000" font-family="Arial" font-size="11" lengthAdjust="spacingAndGlyphs" textLength="79" x="25" y="37.3179">Terradue::Cloud</text><a target="_top" xlink:href="../information/classes/class_terradue_1_1_cloud_1_1_cloud_appliance.html" xlink:title="../information/classes/class_terradue_1_1_cloud_1_1_cloud_appliance.html"><rect fill="#EEEBDC" filter="url(#f1)" height="174.4893" style="stroke: #919871; stroke-width: 1.5;" width="118" x="38" y="56"/><ellipse cx="57.95" cy="72" fill="#ADD1B2" rx="11" ry="11" style="stroke: #919871; stroke-width: 1.0;"/><path d="M60.9231,77.6431 Q60.3421,77.9419 59.7029,78.0913 Q59.0638,78.2407 58.3582,78.2407 Q55.8514,78.2407 54.5315,76.5889 Q53.2117,74.937 53.2117,71.8159 Q53.2117,68.6865 54.5315,67.0347 Q55.8514,65.3828 58.3582,65.3828 Q59.0638,65.3828 59.7112,65.5322 Q60.3587,65.6816 60.9231,65.9805 L60.9231,68.7031 Q60.2923,68.1221 59.6988,67.8523 Q59.1053,67.5825 58.4744,67.5825 Q57.1297,67.5825 56.4449,68.6492 Q55.7601,69.7158 55.7601,71.8159 Q55.7601,73.9077 56.4449,74.9744 Q57.1297,76.041 58.4744,76.041 Q59.1053,76.041 59.6988,75.7712 Q60.2923,75.5015 60.9231,74.9204 Z "/><text fill="#000000" font-family="Arial" font-size="11" lengthAdjust="spacingAndGlyphs" textLength="75" x="73.05" y="75.9934">CloudAppliance</text><line style="stroke: #919871; stroke-width: 1.5;" x1="39" x2="155" y1="88" y2="88"/><ellipse cx="49" cy="99" fill="none" rx="3" ry="3" style="stroke: #038048; stroke-width: 1.0;"/><text fill="#000000" font-family="Arial" font-size="10" lengthAdjust="spacingAndGlyphs" textLength="73" x="58" y="101.6304">RemoteId:string</text><ellipse cx="49" cy="111" fill="none" rx="3" ry="3" style="stroke: #038048; stroke-width: 1.0;"/><text fill="#000000" font-family="Arial" font-size="10" lengthAdjust="spacingAndGlyphs" textLength="75" x="58" y="113.6304">Hostname:string</text><ellipse cx="49" cy="123" fill="none" rx="3" ry="3" style="stroke: #038048; stroke-width: 1.0;"/><text fill="#000000" font-family="Arial" font-size="10" lengthAdjust="spacingAndGlyphs" textLength="58" x="58" y="125.6304">Owner:string</text><ellipse cx="49" cy="135" fill="none" rx="3" ry="3" style="stroke: #038048; stroke-width: 1.0;"/><text fill="#000000" font-family="Arial" font-size="10" lengthAdjust="spacingAndGlyphs" textLength="41" x="58" y="137.6304">Cores:int</text><ellipse cx="49" cy="147" fill="none" rx="3" ry="3" style="stroke: #038048; stroke-width: 1.0;"/><text fill="#000000" font-family="Arial" font-size="10" lengthAdjust="spacingAndGlyphs" textLength="59" x="58" y="149.6304">Memory:float</text><ellipse cx="49" cy="159" fill="none" rx="3" ry="3" style="stroke: #038048; stroke-width: 1.0;"/><text fill="#000000" font-family="Arial" font-size="10" lengthAdjust="spacingAndGlyphs" textLength="92" x="58" y="161.6304">State:MachineState</text><line style="stroke: #919871; stroke-width: 1.5;" x1="39" x2="155" y1="164.9941" y2="164.9941"/><ellipse cx="49" cy="175.9941" fill="#84BE84" rx="3" ry="3" style="stroke: #038048; stroke-width: 1.0;"/><text fill="#000000" font-family="Arial" font-size="10" lengthAdjust="spacingAndGlyphs" textLength="28" x="58" y="178.6245">Start()</text><ellipse cx="49" cy="187.9941" fill="#84BE84" rx="3" ry="3" style="stroke: #038048; stroke-width: 1.0;"/><text fill="#000000" font-family="Arial" font-size="10" lengthAdjust="spacingAndGlyphs" textLength="28" x="58" y="190.6245">Stop()</text><ellipse cx="49" cy="199.9941" fill="#84BE84" rx="3" ry="3" style="stroke: #038048; stroke-width: 1.0;"/><text fill="#000000" font-family="Arial" font-size="10" lengthAdjust="spacingAndGlyphs" textLength="48" x="58" y="202.6245">Suspend()</text><ellipse cx="49" cy="211.9941" fill="#84BE84" rx="3" ry="3" style="stroke: #038048; stroke-width: 1.0;"/><text fill="#000000" font-family="Arial" font-size="10" lengthAdjust="spacingAndGlyphs" textLength="44" x="58" y="214.6245">Resume()</text><ellipse cx="49" cy="223.9941" fill="#84BE84" rx="3" ry="3" style="stroke: #038048; stroke-width: 1.0;"/><text fill="#000000" font-family="Arial" font-size="10" lengthAdjust="spacingAndGlyphs" textLength="53" x="58" y="226.6245">Shutdown()</text></a></g></svg>