<?xml version="1.0" encoding="UTF-8" standalone="yes"?><svg xmlns="http://www.w3.org/2000/svg" xmlns:xlink="http://www.w3.org/1999/xlink" height="332pt" style="width:245px;height:332px;" version="1.1" viewBox="0 0 245 332" width="245pt"><defs><filter height="300%" id="f1" width="300%" x="-1" y="-1"><feGaussianBlur result="blurOut" stdDeviation="2.0"/><feColorMatrix in="blurOut" result="blurOut2" type="matrix" values="0 0 0 0 0 0 0 0 0 0 0 0 0 0 0 0 0 0 .4 0"/><feOffset dx="4.0" dy="4.0" in="blurOut2" result="blurOut3"/><feBlend in="SourceGraphic" in2="blurOut3" mode="normal"/></filter></defs><g><polygon fill="#FFFFFF" filter="url(#f1)" points="22,24,107,24,114,43.6179,238,43.6179,238,325,22,325,22,24" style="stroke: #000000; stroke-width: 2.0;"/><line style="stroke: #000000; stroke-width: 2.0;" x1="22" x2="114" y1="43.6179" y2="43.6179"/><text fill="#000000" font-family="Arial" font-size="11" lengthAdjust="spacingAndGlyphs" textLength="79" x="25" y="37.4829">Terradue::Portal</text><a xlink:href="../information/classes/class_terradue_1_1_portal_1_1_series.html" xlink:title="../information/classes/class_terradue_1_1_portal_1_1_series.html"><rect fill="#EEEBDC" filter="url(#f1)" height="85.14" style="stroke: #919871; stroke-width: 1.5;" width="184" x="38" y="57.5"/><ellipse cx="110.25" cy="73.5" fill="#ADD1B2" rx="11" ry="11" style="stroke: #919871; stroke-width: 1.0;"/><path d="M112.5938,69.1719 C111.6563,68.7344 111.0625,68.5938 110.1875,68.5938 C107.5625,68.5938 105.5625,70.6719 105.5625,73.3906 L105.5625,74.5156 C105.5625,77.0938 107.6719,78.9844 110.5625,78.9844 C111.7813,78.9844 112.9375,78.6875 113.6875,78.1406 C114.2656,77.7344 114.5938,77.2813 114.5938,76.8906 C114.5938,76.4375 114.2031,76.0469 113.7344,76.0469 C113.5156,76.0469 113.3125,76.125 113.125,76.3125 C112.6719,76.7969 112.6719,76.7969 112.4844,76.8906 C112.0625,77.1563 111.375,77.2813 110.6094,77.2813 C108.5625,77.2813 107.2656,76.1875 107.2656,74.4844 L107.2656,73.3906 C107.2656,71.6094 108.5156,70.2969 110.25,70.2969 C110.8281,70.2969 111.4375,70.4531 111.9063,70.7031 C112.3906,70.9844 112.5625,71.2031 112.6563,71.6094 C112.7188,72.0156 112.75,72.1406 112.8906,72.2656 C113.0313,72.4063 113.2656,72.5156 113.4844,72.5156 C113.75,72.5156 114.0156,72.375 114.1875,72.1563 C114.2969,72 114.3281,71.8125 114.3281,71.3906 L114.3281,69.9688 C114.3281,69.5313 114.3125,69.4063 114.2188,69.25 C114.0625,68.9844 113.7813,68.8438 113.4844,68.8438 C113.1875,68.8438 112.9844,68.9375 112.7656,69.25 L112.5938,69.1719 Z "/><text fill="#000000" font-family="Arial" font-size="11" lengthAdjust="spacingAndGlyphs" textLength="31" x="130.75" y="77.174">Series</text><line style="stroke: #919871; stroke-width: 1.5;" x1="39" x2="221" y1="89.5" y2="89.5"/><ellipse cx="49" cy="100.69" fill="none" rx="3" ry="3" style="stroke: #038048; stroke-width: 1.0;"/><text fill="#000000" font-family="Arial" font-size="10" lengthAdjust="spacingAndGlyphs" textLength="79" x="58" y="103.03">Description:string</text><ellipse cx="49" cy="113.07" fill="none" rx="3" ry="3" style="stroke: #038048; stroke-width: 1.0;"/><text fill="#000000" font-family="Arial" font-size="10" lengthAdjust="spacingAndGlyphs" textLength="139" x="58" y="115.41">CatalogueDescriptionUrl:string</text><line style="stroke: #919871; stroke-width: 1.5;" x1="39" x2="221" y1="122.26" y2="122.26"/><ellipse cx="49" cy="133.45" fill="#84BE84" rx="3" ry="3" style="stroke: #038048; stroke-width: 1.0;"/><text fill="#000000" font-family="Arial" font-size="10" lengthAdjust="spacingAndGlyphs" textLength="158" x="58" y="135.79">GetLocalOpenSearchDescription()</text></a><rect fill="#EEEBDC" filter="url(#f1)" height="48" style="stroke: #919871; stroke-width: 1.5;" width="81" x="89" y="241"/><ellipse cx="104" cy="257" fill="#ADD1B2" rx="11" ry="11" style="stroke: #919871; stroke-width: 1.0;"/><path d="M106.3438,252.6719 C105.4063,252.2344 104.8125,252.0938 103.9375,252.0938 C101.3125,252.0938 99.3125,254.1719 99.3125,256.8906 L99.3125,258.0156 C99.3125,260.5938 101.4219,262.4844 104.3125,262.4844 C105.5313,262.4844 106.6875,262.1875 107.4375,261.6406 C108.0156,261.2344 108.3438,260.7813 108.3438,260.3906 C108.3438,259.9375 107.9531,259.5469 107.4844,259.5469 C107.2656,259.5469 107.0625,259.625 106.875,259.8125 C106.4219,260.2969 106.4219,260.2969 106.2344,260.3906 C105.8125,260.6563 105.125,260.7813 104.3594,260.7813 C102.3125,260.7813 101.0156,259.6875 101.0156,257.9844 L101.0156,256.8906 C101.0156,255.1094 102.2656,253.7969 104,253.7969 C104.5781,253.7969 105.1875,253.9531 105.6563,254.2031 C106.1406,254.4844 106.3125,254.7031 106.4063,255.1094 C106.4688,255.5156 106.5,255.6406 106.6406,255.7656 C106.7813,255.9063 107.0156,256.0156 107.2344,256.0156 C107.5,256.0156 107.7656,255.875 107.9375,255.6563 C108.0469,255.5 108.0781,255.3125 108.0781,254.8906 L108.0781,253.4688 C108.0781,253.0313 108.0625,252.9063 107.9688,252.75 C107.8125,252.4844 107.5313,252.3438 107.2344,252.3438 C106.9375,252.3438 106.7344,252.4375 106.5156,252.75 L106.3438,252.6719 Z "/><text fill="#000000" font-family="Arial" font-size="11" lengthAdjust="spacingAndGlyphs" textLength="49" x="118" y="260.674">Catalogue</text><line style="stroke: #919871; stroke-width: 1.5;" x1="90" x2="169" y1="273" y2="273"/><line style="stroke: #919871; stroke-width: 1.5;" x1="90" x2="169" y1="281" y2="281"/><path d="M130,156.177 C130,184.969 130,218.539 130,240.697 " fill="none" style="stroke: #000000; stroke-width: 1.0;"/><polygon fill="#000000" points="130,142.921,126,148.921,130,154.921,134,148.921,130,142.921" style="stroke: #000000; stroke-width: 1.0;"/><text fill="#000000" font-family="Arial" font-size="11" lengthAdjust="spacingAndGlyphs" textLength="18" x="131" y="184.4829">has</text><text fill="#000000" font-family="Arial" font-size="11" lengthAdjust="spacingAndGlyphs" textLength="6" x="131.3995" y="229.7688">1</text></g></svg>