<?xml version="1.0" encoding="UTF-8" standalone="yes"?><svg xmlns="http://www.w3.org/2000/svg" xmlns:xlink="http://www.w3.org/1999/xlink" height="661pt" style="width:1014px;height:661px;" version="1.1" viewBox="0 0 1014 661" width="1014pt"><defs><filter height="300%" id="f1" width="300%" x="-1" y="-1"><feGaussianBlur result="blurOut" stdDeviation="2.0"/><feColorMatrix in="blurOut" result="blurOut2" type="matrix" values="0 0 0 0 0 0 0 0 0 0 0 0 0 0 0 0 0 0 .4 0"/><feOffset dx="4.0" dy="4.0" in="blurOut2" result="blurOut3"/><feBlend in="SourceGraphic" in2="blurOut3" mode="normal"/></filter></defs><g><text fill="#000000" font-family="sans-serif" font-size="14" font-weight="bold" lengthAdjust="spacingAndGlyphs" textLength="299" x="359.25" y="23.5352">runJob - On-demand computing element</text><rect fill="#FFFFFF" filter="url(#f1)" height="29.3105" style="stroke: #A80036; stroke-width: 1.0;" width="10" x="406.5" y="177.2871"/><rect fill="#FFFFFF" filter="url(#f1)" height="29.3105" style="stroke: #A80036; stroke-width: 1.0;" width="10" x="539" y="235.9082"/><rect fill="#FFFFFF" filter="url(#f1)" height="146.5527" style="stroke: #A80036; stroke-width: 1.0;" width="10" x="688.5" y="353.1504"/><line style="stroke: #A80036; stroke-width: 1.0; stroke-dasharray: 5.0,5.0;" x1="39" x2="39" y1="116.9766" y2="576.6348"/><line style="stroke: #A80036; stroke-width: 1.0; stroke-dasharray: 5.0,5.0;" x1="289" x2="289" y1="116.9766" y2="576.6348"/><line style="stroke: #A80036; stroke-width: 1.0; stroke-dasharray: 5.0,5.0;" x1="411.5" x2="411.5" y1="116.9766" y2="576.6348"/><line style="stroke: #A80036; stroke-width: 1.0; stroke-dasharray: 5.0,5.0;" x1="543.5" x2="543.5" y1="116.9766" y2="576.6348"/><line style="stroke: #A80036; stroke-width: 1.0; stroke-dasharray: 5.0,5.0;" x1="693.5" x2="693.5" y1="116.9766" y2="576.6348"/><line style="stroke: #A80036; stroke-width: 1.0; stroke-dasharray: 5.0,5.0;" x1="938.5" x2="938.5" y1="116.9766" y2="576.6348"/><text fill="#000000" font-family="sans-serif" font-size="14" lengthAdjust="spacingAndGlyphs" textLength="57" x="8" y="114.0234">endUser</text><ellipse cx="39.5" cy="43.4883" fill="#FEFECE" filter="url(#f1)" rx="8" ry="8" style="stroke: #A80036; stroke-width: 2.0;"/><path d="M39.5,51.4883 L39.5,78.4883 M26.5,59.4883 L52.5,59.4883 M39.5,78.4883 L26.5,93.4883 M39.5,78.4883 L52.5,93.4883 " fill="#FEFECE" filter="url(#f1)" style="stroke: #A80036; stroke-width: 2.0;"/><text fill="#000000" font-family="sans-serif" font-size="14" lengthAdjust="spacingAndGlyphs" textLength="57" x="8" y="589.1699">endUser</text><ellipse cx="39.5" cy="602.123" fill="#FEFECE" filter="url(#f1)" rx="8" ry="8" style="stroke: #A80036; stroke-width: 2.0;"/><path d="M39.5,610.123 L39.5,637.123 M26.5,618.123 L52.5,618.123 M39.5,637.123 L26.5,652.123 M39.5,637.123 L52.5,652.123 " fill="#FEFECE" filter="url(#f1)" style="stroke: #A80036; stroke-width: 2.0;"/><text fill="#000000" font-family="sans-serif" font-size="14" lengthAdjust="spacingAndGlyphs" textLength="81" x="246" y="114.0234">geoBrowser</text><path d="M269,72.4883 L269,96.4883 M269,84.4883 L286,84.4883 " fill="#FEFECE" filter="url(#f1)" style="stroke: #A80036; stroke-width: 2.0;"/><ellipse cx="298" cy="84.4883" fill="#FEFECE" filter="url(#f1)" rx="12" ry="12" style="stroke: #A80036; stroke-width: 2.0;"/><text fill="#000000" font-family="sans-serif" font-size="14" lengthAdjust="spacingAndGlyphs" textLength="81" x="246" y="589.1699">geoBrowser</text><path d="M269,596.123 L269,620.123 M269,608.123 L286,608.123 " fill="#FEFECE" filter="url(#f1)" style="stroke: #A80036; stroke-width: 2.0;"/><ellipse cx="298" cy="608.123" fill="#FEFECE" filter="url(#f1)" rx="12" ry="12" style="stroke: #A80036; stroke-width: 2.0;"/><text fill="#000000" font-family="sans-serif" font-size="14" lengthAdjust="spacingAndGlyphs" textLength="130" x="343.5" y="114.0234">processingServices</text><ellipse cx="411.5" cy="84.4883" fill="#FEFECE" filter="url(#f1)" rx="12" ry="12" style="stroke: #A80036; stroke-width: 2.0;"/><polygon fill="#A80036" points="407.5,72.4883,413.5,67.4883,411.5,72.4883,413.5,77.4883,407.5,72.4883" style="stroke: #A80036; stroke-width: 1.0;"/><text fill="#000000" font-family="sans-serif" font-size="14" lengthAdjust="spacingAndGlyphs" textLength="130" x="343.5" y="589.1699">processingServices</text><ellipse cx="411.5" cy="608.123" fill="#FEFECE" filter="url(#f1)" rx="12" ry="12" style="stroke: #A80036; stroke-width: 2.0;"/><polygon fill="#A80036" points="407.5,596.123,413.5,591.123,411.5,596.123,413.5,601.123,407.5,596.123" style="stroke: #A80036; stroke-width: 1.0;"/><text fill="#000000" font-family="sans-serif" font-size="14" lengthAdjust="spacingAndGlyphs" textLength="103" x="489.5" y="114.0234">eoDataContext</text><ellipse cx="544" cy="84.4883" fill="#FEFECE" filter="url(#f1)" rx="12" ry="12" style="stroke: #A80036; stroke-width: 2.0;"/><polygon fill="#A80036" points="540,72.4883,546,67.4883,544,72.4883,546,77.4883,540,72.4883" style="stroke: #A80036; stroke-width: 1.0;"/><text fill="#000000" font-family="sans-serif" font-size="14" lengthAdjust="spacingAndGlyphs" textLength="103" x="489.5" y="589.1699">eoDataContext</text><ellipse cx="544" cy="608.123" fill="#FEFECE" filter="url(#f1)" rx="12" ry="12" style="stroke: #A80036; stroke-width: 2.0;"/><polygon fill="#A80036" points="540,596.123,546,591.123,544,596.123,546,601.123,540,596.123" style="stroke: #A80036; stroke-width: 1.0;"/><text fill="#000000" font-family="sans-serif" font-size="14" lengthAdjust="spacingAndGlyphs" textLength="104" x="638.5" y="114.0234">cloudControler</text><ellipse cx="693.5" cy="84.4883" fill="#FEFECE" filter="url(#f1)" rx="12" ry="12" style="stroke: #A80036; stroke-width: 2.0;"/><polygon fill="#A80036" points="689.5,72.4883,695.5,67.4883,693.5,72.4883,695.5,77.4883,689.5,72.4883" style="stroke: #A80036; stroke-width: 1.0;"/><text fill="#000000" font-family="sans-serif" font-size="14" lengthAdjust="spacingAndGlyphs" textLength="104" x="638.5" y="589.1699">cloudControler</text><ellipse cx="693.5" cy="608.123" fill="#FEFECE" filter="url(#f1)" rx="12" ry="12" style="stroke: #A80036; stroke-width: 2.0;"/><polygon fill="#A80036" points="689.5,596.123,695.5,591.123,693.5,596.123,695.5,601.123,689.5,596.123" style="stroke: #A80036; stroke-width: 1.0;"/><rect fill="#FEFECE" filter="url(#f1)" height="30.4883" style="stroke: #A80036; stroke-width: 1.5;" width="138" x="867.5" y="81.4883"/><text fill="#000000" font-family="sans-serif" font-size="14" lengthAdjust="spacingAndGlyphs" textLength="124" x="874.5" y="102.0234">userCloudStorage</text><rect fill="#FEFECE" filter="url(#f1)" height="30.4883" style="stroke: #A80036; stroke-width: 1.5;" width="138" x="867.5" y="575.6348"/><text fill="#000000" font-family="sans-serif" font-size="14" lengthAdjust="spacingAndGlyphs" textLength="124" x="874.5" y="596.1699">userCloudStorage</text><rect fill="#FFFFFF" filter="url(#f1)" height="29.3105" style="stroke: #A80036; stroke-width: 1.0;" width="10" x="406.5" y="177.2871"/><rect fill="#FFFFFF" filter="url(#f1)" height="29.3105" style="stroke: #A80036; stroke-width: 1.0;" width="10" x="539" y="235.9082"/><rect fill="#FFFFFF" filter="url(#f1)" height="146.5527" style="stroke: #A80036; stroke-width: 1.0;" width="10" x="688.5" y="353.1504"/><polygon fill="#A80036" points="50.5,143.9766,40.5,147.9766,50.5,151.9766,46.5,147.9766" style="stroke: #A80036; stroke-width: 1.0;"/><polygon fill="#A80036" points="277.5,143.9766,287.5,147.9766,277.5,151.9766,281.5,147.9766" style="stroke: #A80036; stroke-width: 1.0;"/><line style="stroke: #A80036; stroke-width: 1.0;" x1="44.5" x2="283.5" y1="147.9766" y2="147.9766"/><text fill="#000000" font-family="sans-serif" font-size="13" lengthAdjust="spacingAndGlyphs" textLength="48" x="56.5" y="143.5449">interact</text><polygon fill="#A80036" points="394.5,173.2871,404.5,177.2871,394.5,181.2871,398.5,177.2871" style="stroke: #A80036; stroke-width: 1.0;"/><line style="stroke: #A80036; stroke-width: 1.0;" x1="289.5" x2="400.5" y1="177.2871" y2="177.2871"/><text fill="#000000" font-family="sans-serif" font-size="13" lengthAdjust="spacingAndGlyphs" textLength="98" x="296.5" y="172.8555">selectProcessor</text><polygon fill="#A80036" points="300.5,202.5977,290.5,206.5977,300.5,210.5977,296.5,206.5977" style="stroke: #A80036; stroke-width: 1.0;"/><line style="stroke: #A80036; stroke-width: 1.0; stroke-dasharray: 2.0,2.0;" x1="294.5" x2="410.5" y1="206.5977" y2="206.5977"/><text fill="#000000" font-family="sans-serif" font-size="13" lengthAdjust="spacingAndGlyphs" textLength="52" x="306.5" y="202.166">selected</text><polygon fill="#A80036" points="527,231.9082,537,235.9082,527,239.9082,531,235.9082" style="stroke: #A80036; stroke-width: 1.0;"/><line style="stroke: #A80036; stroke-width: 1.0;" x1="289.5" x2="533" y1="235.9082" y2="235.9082"/><text fill="#000000" font-family="sans-serif" font-size="13" lengthAdjust="spacingAndGlyphs" textLength="92" x="296.5" y="231.4766">selectDatasets</text><polygon fill="#A80036" points="300.5,261.2188,290.5,265.2188,300.5,269.2188,296.5,265.2188" style="stroke: #A80036; stroke-width: 1.0;"/><line style="stroke: #A80036; stroke-width: 1.0; stroke-dasharray: 2.0,2.0;" x1="294.5" x2="543" y1="265.2188" y2="265.2188"/><text fill="#000000" font-family="sans-serif" font-size="13" lengthAdjust="spacingAndGlyphs" textLength="52" x="306.5" y="260.7871">selected</text><polygon fill="#A80036" points="277.5,290.5293,287.5,294.5293,277.5,298.5293,281.5,294.5293" style="stroke: #A80036; stroke-width: 1.0;"/><line style="stroke: #A80036; stroke-width: 1.0;" x1="39.5" x2="283.5" y1="294.5293" y2="294.5293"/><text fill="#000000" font-family="sans-serif" font-size="13" lengthAdjust="spacingAndGlyphs" textLength="175" x="46.5" y="290.0977">Allocate selected input data</text><polygon fill="#A80036" points="277.5,319.8398,287.5,323.8398,277.5,327.8398,281.5,323.8398" style="stroke: #A80036; stroke-width: 1.0;"/><line style="stroke: #A80036; stroke-width: 1.0;" x1="39.5" x2="283.5" y1="323.8398" y2="323.8398"/><text fill="#000000" font-family="sans-serif" font-size="13" lengthAdjust="spacingAndGlyphs" textLength="41" x="46.5" y="319.4082">runJob</text><polygon fill="#A80036" points="676.5,349.1504,686.5,353.1504,676.5,357.1504,680.5,353.1504" style="stroke: #A80036; stroke-width: 1.0;"/><line style="stroke: #A80036; stroke-width: 1.0;" x1="289.5" x2="682.5" y1="353.1504" y2="353.1504"/><text fill="#000000" font-family="sans-serif" font-size="13" lengthAdjust="spacingAndGlyphs" textLength="380" x="296.5" y="348.7188">provision grid computing element with input data parameter</text><line style="stroke: #A80036; stroke-width: 1.0;" x1="698.5" x2="740.5" y1="382.7715" y2="382.7715"/><line style="stroke: #A80036; stroke-width: 1.0;" x1="740.5" x2="740.5" y1="382.7715" y2="395.7715"/><line style="stroke: #A80036; stroke-width: 1.0;" x1="699.5" x2="740.5" y1="395.7715" y2="395.7715"/><polygon fill="#A80036" points="709.5,391.7715,699.5,395.7715,709.5,399.7715,705.5,395.7715" style="stroke: #A80036; stroke-width: 1.0;"/><text fill="#000000" font-family="sans-serif" font-size="13" lengthAdjust="spacingAndGlyphs" textLength="221" x="705.5" y="378.0293">validate request against user quota</text><rect fill="#FFFFFF" filter="url(#f1)" height="40.6211" style="stroke: #000000; stroke-width: 2.0;" width="174" x="635.5" y="403.7715"/><polygon fill="#EEEEEE" points="635.5,403.7715,699.5,403.7715,699.5,410.7715,689.5,420.7715,635.5,420.7715,635.5,403.7715" style="stroke: #000000; stroke-width: 2.0;"/><text fill="#000000" font-family="sans-serif" font-size="13" font-weight="bold" lengthAdjust="spacingAndGlyphs" textLength="19" x="648.5" y="418.3398">ref</text><text fill="#000000" font-family="sans-serif" font-size="13" lengthAdjust="spacingAndGlyphs" textLength="166" x="641.5" y="437.3398">warning if quota exceeded</text><polygon fill="#A80036" points="926.5,466.3926,936.5,470.3926,926.5,474.3926,930.5,470.3926" style="stroke: #A80036; stroke-width: 1.0;"/><line style="stroke: #A80036; stroke-width: 1.0; stroke-dasharray: 2.0,2.0;" x1="698.5" x2="932.5" y1="470.3926" y2="470.3926"/><text fill="#000000" font-family="sans-serif" font-size="13" lengthAdjust="spacingAndGlyphs" textLength="91" x="705.5" y="465.9609">Deliver results</text><polygon fill="#A80036" points="300.5,495.7031,290.5,499.7031,300.5,503.7031,296.5,499.7031" style="stroke: #A80036; stroke-width: 1.0;"/><line style="stroke: #A80036; stroke-width: 1.0; stroke-dasharray: 2.0,2.0;" x1="294.5" x2="692.5" y1="499.7031" y2="499.7031"/><text fill="#000000" font-family="sans-serif" font-size="13" lengthAdjust="spacingAndGlyphs" textLength="125" x="306.5" y="495.2715">Reference to results</text><polygon fill="#A80036" points="926.5,525.0137,936.5,529.0137,926.5,533.0137,930.5,529.0137" style="stroke: #A80036; stroke-width: 1.0;"/><line style="stroke: #A80036; stroke-width: 1.0;" x1="39.5" x2="932.5" y1="529.0137" y2="529.0137"/><text fill="#000000" font-family="sans-serif" font-size="13" lengthAdjust="spacingAndGlyphs" textLength="234" x="46.5" y="524.582">access generated EO-based products</text><polygon fill="#A80036" points="277.5,554.3242,287.5,558.3242,277.5,562.3242,281.5,558.3242" style="stroke: #A80036; stroke-width: 1.0;"/><line style="stroke: #A80036; stroke-width: 1.0;" x1="39.5" x2="283.5" y1="558.3242" y2="558.3242"/><text fill="#000000" font-family="sans-serif" font-size="13" lengthAdjust="spacingAndGlyphs" textLength="226" x="46.5" y="553.8926">share generated EO-based products</text></g></svg>