<?xml version="1.0" encoding="UTF-8" standalone="yes"?><svg xmlns="http://www.w3.org/2000/svg" xmlns:xlink="http://www.w3.org/1999/xlink" height="161pt" style="width:183px;height:161px;" version="1.1" viewBox="0 0 183 161" width="183pt"><defs><filter height="300%" id="f1" width="300%" x="-1" y="-1"><feGaussianBlur result="blurOut" stdDeviation="2.0"/><feColorMatrix in="blurOut" result="blurOut2" type="matrix" values="0 0 0 0 0 0 0 0 0 0 0 0 0 0 0 0 0 0 .4 0"/><feOffset dx="4.0" dy="4.0" in="blurOut2" result="blurOut3"/><feBlend in="SourceGraphic" in2="blurOut3" mode="normal"/></filter></defs><g><polygon fill="#FFFFFF" filter="url(#f1)" points="22,24,107,24,114,42.6489,176,42.6489,176,154,22,154,22,24" style="stroke: #000000; stroke-width: 2.0;"/><line style="stroke: #000000; stroke-width: 2.0;" x1="22" x2="114" y1="42.6489" y2="42.6489"/><text fill="#000000" font-family="Arial" font-size="11" lengthAdjust="spacingAndGlyphs" textLength="79" x="25" y="37.3179">Terradue::Portal</text><a target="_top" xlink:href="../information/classes/class_terradue_1_1_portal_1_1_group.html" xlink:title="../information/classes/class_terradue_1_1_portal_1_1_group.html"><rect fill="#EEEBDC" filter="url(#f1)" height="82.4971" style="stroke: #919871; stroke-width: 1.5;" width="121" x="38.75" y="56"/><ellipse cx="79.85" cy="72" fill="#ADD1B2" rx="11" ry="11" style="stroke: #919871; stroke-width: 1.0;"/><path d="M82.8231,77.6431 Q82.2421,77.9419 81.6029,78.0913 Q80.9638,78.2407 80.2582,78.2407 Q77.7514,78.2407 76.4315,76.5889 Q75.1117,74.937 75.1117,71.8159 Q75.1117,68.6865 76.4315,67.0347 Q77.7514,65.3828 80.2582,65.3828 Q80.9638,65.3828 81.6112,65.5322 Q82.2587,65.6816 82.8231,65.9805 L82.8231,68.7031 Q82.1923,68.1221 81.5988,67.8523 Q81.0053,67.5825 80.3744,67.5825 Q79.0297,67.5825 78.3449,68.6492 Q77.6601,69.7158 77.6601,71.8159 Q77.6601,73.9077 78.3449,74.9744 Q79.0297,76.041 80.3744,76.041 Q81.0053,76.041 81.5988,75.7712 Q82.1923,75.5015 82.8231,74.9204 Z "/><text fill="#000000" font-family="Arial" font-size="11" lengthAdjust="spacingAndGlyphs" textLength="31" x="99.65" y="75.9934">Group</text><line style="stroke: #919871; stroke-width: 1.5;" x1="39.75" x2="158.75" y1="88" y2="88"/><ellipse cx="49.75" cy="99" fill="none" rx="3" ry="3" style="stroke: #038048; stroke-width: 1.0;"/><text fill="#000000" font-family="Arial" font-size="10" lengthAdjust="spacingAndGlyphs" textLength="95" x="58.75" y="101.6304">Name:override string</text><ellipse cx="49.75" cy="111" fill="none" rx="3" ry="3" style="stroke: #038048; stroke-width: 1.0;"/><text fill="#000000" font-family="Arial" font-size="10" lengthAdjust="spacingAndGlyphs" textLength="79" x="58.75" y="113.6304">Description:string</text><ellipse cx="49.75" cy="123" fill="none" rx="3" ry="3" style="stroke: #038048; stroke-width: 1.0;"/><text fill="#000000" font-family="Arial" font-size="10" lengthAdjust="spacingAndGlyphs" textLength="45" x="58.75" y="125.6304">Priority:int</text><line style="stroke: #919871; stroke-width: 1.5;" x1="39.75" x2="158.75" y1="130.4971" y2="130.4971"/></a></g></svg>