<?xml version="1.0" encoding="UTF-8" standalone="yes"?><svg xmlns="http://www.w3.org/2000/svg" xmlns:xlink="http://www.w3.org/1999/xlink" height="768pt" style="width:2975px;height:768px;" version="1.1" viewBox="0 0 2975 768" width="2975pt"><defs><filter height="300%" id="f1" width="300%" x="-1" y="-1"><feGaussianBlur result="blurOut" stdDeviation="2.0"/><feColorMatrix in="blurOut" result="blurOut2" type="matrix" values="0 0 0 0 0 0 0 0 0 0 0 0 0 0 0 0 0 0 .4 0"/><feOffset dx="4.0" dy="4.0" in="blurOut2" result="blurOut3"/><feBlend in="SourceGraphic" in2="blurOut3" mode="normal"/></filter></defs><g><polygon fill="#FFFFFF" filter="url(#f1)" points="1151,168,1190,168,1197,190.4883,1565,190.4883,1565,652,1151,652,1151,168" style="stroke: #000000; stroke-width: 2.0;"/><line style="stroke: #000000; stroke-width: 2.0;" x1="1151" x2="1197" y1="190.4883" y2="190.4883"/><text fill="#000000" font-family="sans-serif" font-size="14" font-weight="bold" lengthAdjust="spacingAndGlyphs" textLength="33" x="1155" y="183.5352">Core</text><polygon fill="#FFFFFF" filter="url(#f1)" points="2605,168,2695,168,2702,190.4883,2968,190.4883,2968,264,2605,264,2605,168" style="stroke: #000000; stroke-width: 2.0;"/><line style="stroke: #000000; stroke-width: 2.0;" x1="2605" x2="2702" y1="190.4883" y2="190.4883"/><text fill="#000000" font-family="sans-serif" font-size="14" font-weight="bold" lengthAdjust="spacingAndGlyphs" textLength="84" x="2609" y="183.5352">Community</text><polygon fill="#FFFFFF" filter="url(#f1)" points="1857,168,1905,168,1912,190.4883,2381,190.4883,2381,408,1857,408,1857,168" style="stroke: #000000; stroke-width: 2.0;"/><line style="stroke: #000000; stroke-width: 2.0;" x1="1857" x2="1912" y1="190.4883" y2="190.4883"/><text fill="#000000" font-family="sans-serif" font-size="14" font-weight="bold" lengthAdjust="spacingAndGlyphs" textLength="42" x="1861" y="183.5352">Cloud</text><polygon fill="#FFFFFF" filter="url(#f1)" points="22,312,85,312,92,334.4883,170,334.4883,170,530,22,530,22,312" style="stroke: #000000; stroke-width: 2.0;"/><line style="stroke: #000000; stroke-width: 2.0;" x1="22" x2="92" y1="334.4883" y2="334.4883"/><text fill="#000000" font-family="sans-serif" font-size="14" font-weight="bold" lengthAdjust="spacingAndGlyphs" textLength="57" x="26" y="327.5352">Security</text><polygon fill="#FFFFFF" filter="url(#f1)" points="248,168,338,168,345,190.4883,418,190.4883,418,403,248,403,248,168" style="stroke: #000000; stroke-width: 2.0;"/><line style="stroke: #000000; stroke-width: 2.0;" x1="248" x2="345" y1="190.4883" y2="190.4883"/><text fill="#000000" font-family="sans-serif" font-size="14" font-weight="bold" lengthAdjust="spacingAndGlyphs" textLength="84" x="252" y="183.5352">OpenSearch</text><polygon fill="#FFFFFF" filter="url(#f1)" points="683,312,733,312,740,334.4883,1127,334.4883,1127,408,683,408,683,312" style="stroke: #000000; stroke-width: 2.0;"/><line style="stroke: #000000; stroke-width: 2.0;" x1="683" x2="740" y1="334.4883" y2="334.4883"/><text fill="#000000" font-family="sans-serif" font-size="14" font-weight="bold" lengthAdjust="spacingAndGlyphs" textLength="44" x="687" y="327.5352">Model</text><polygon fill="#FFFFFF" filter="url(#f1)" points="1498,24,1531,24,1538,46.4883,1924,46.4883,1924,120,1498,120,1498,24" style="stroke: #000000; stroke-width: 2.0;"/><line style="stroke: #000000; stroke-width: 2.0;" x1="1498" x2="1538" y1="46.4883" y2="46.4883"/><text fill="#000000" font-family="sans-serif" font-size="14" font-weight="bold" lengthAdjust="spacingAndGlyphs" textLength="27" x="1502" y="39.5352">Tep</text><a target="_top" xlink:href="../computational/components/group___authorisation.html" xlink:title="../computational/components/group___authorisation.html"><rect fill="#EEEBDC" filter="url(#f1)" height="42.6489" style="stroke: #919871; stroke-width: 1.5;" width="103" x="1445.75" y="470.5"/><rect fill="#EEEBDC" height="10" style="stroke: #919871; stroke-width: 1.5;" width="15" x="1528.75" y="475.5"/><rect fill="#EEEBDC" height="2" style="stroke: #919871; stroke-width: 1.5;" width="4" x="1526.75" y="477.5"/><rect fill="#EEEBDC" height="2" style="stroke: #919871; stroke-width: 1.5;" width="4" x="1526.75" y="481.5"/><text fill="#000000" font-family="Arial" font-size="11" lengthAdjust="spacingAndGlyphs" textLength="63" x="1460.75" y="500.8179">Authorisation</text></a><a target="_top" xlink:href="../computational/components/group___persistence.html" xlink:title="../computational/components/group___persistence.html"><rect fill="#EEEBDC" filter="url(#f1)" height="42.6489" style="stroke: #919871; stroke-width: 1.5;" width="136" x="1374" y="592.5"/><rect fill="#EEEBDC" height="10" style="stroke: #919871; stroke-width: 1.5;" width="15" x="1490" y="597.5"/><rect fill="#EEEBDC" height="2" style="stroke: #919871; stroke-width: 1.5;" width="4" x="1488" y="599.5"/><rect fill="#EEEBDC" height="2" style="stroke: #919871; stroke-width: 1.5;" width="4" x="1488" y="603.5"/><text fill="#000000" font-family="Arial" font-size="11" lengthAdjust="spacingAndGlyphs" textLength="96" x="1389" y="622.8179">Persistence of Data</text></a><a target="_top" xlink:href="../computational/components/group___context.html" xlink:title="../computational/components/group___context.html"><rect fill="#EEEBDC" filter="url(#f1)" height="42.6489" style="stroke: #919871; stroke-width: 1.5;" width="78" x="1364" y="348.5"/><rect fill="#EEEBDC" height="10" style="stroke: #919871; stroke-width: 1.5;" width="15" x="1422" y="353.5"/><rect fill="#EEEBDC" height="2" style="stroke: #919871; stroke-width: 1.5;" width="4" x="1420" y="355.5"/><rect fill="#EEEBDC" height="2" style="stroke: #919871; stroke-width: 1.5;" width="4" x="1420" y="359.5"/><text fill="#000000" font-family="Arial" font-size="11" lengthAdjust="spacingAndGlyphs" textLength="38" x="1379" y="378.8179">Context</text></a><a target="_top" xlink:href="../computational/components/group___web_context.html" xlink:title="../computational/components/group___web_context.html"><rect fill="#EEEBDC" filter="url(#f1)" height="42.6489" style="stroke: #919871; stroke-width: 1.5;" width="100" x="1449" y="204.5"/><rect fill="#EEEBDC" height="10" style="stroke: #919871; stroke-width: 1.5;" width="15" x="1529" y="209.5"/><rect fill="#EEEBDC" height="2" style="stroke: #919871; stroke-width: 1.5;" width="4" x="1527" y="211.5"/><rect fill="#EEEBDC" height="2" style="stroke: #919871; stroke-width: 1.5;" width="4" x="1527" y="215.5"/><text fill="#000000" font-family="Arial" font-size="11" lengthAdjust="spacingAndGlyphs" textLength="60" x="1464" y="234.8179">WebContext</text></a><a target="_top" xlink:href="../computational/components/group___series.html" xlink:title="../computational/components/group___series.html"><rect fill="#EEEBDC" filter="url(#f1)" height="42.6489" style="stroke: #919871; stroke-width: 1.5;" width="71" x="1477.75" y="348.5"/><rect fill="#EEEBDC" height="10" style="stroke: #919871; stroke-width: 1.5;" width="15" x="1528.75" y="353.5"/><rect fill="#EEEBDC" height="2" style="stroke: #919871; stroke-width: 1.5;" width="4" x="1526.75" y="355.5"/><rect fill="#EEEBDC" height="2" style="stroke: #919871; stroke-width: 1.5;" width="4" x="1526.75" y="359.5"/><text fill="#000000" font-family="Arial" font-size="11" lengthAdjust="spacingAndGlyphs" textLength="31" x="1492.75" y="378.8179">Series</text></a><a target="_top" xlink:href="../computational/components/group___service.html" xlink:title="../computational/components/group___service.html"><rect fill="#EEEBDC" filter="url(#f1)" height="42.6489" style="stroke: #919871; stroke-width: 1.5;" width="77" x="1251.75" y="348.5"/><rect fill="#EEEBDC" height="10" style="stroke: #919871; stroke-width: 1.5;" width="15" x="1308.75" y="353.5"/><rect fill="#EEEBDC" height="2" style="stroke: #919871; stroke-width: 1.5;" width="4" x="1306.75" y="355.5"/><rect fill="#EEEBDC" height="2" style="stroke: #919871; stroke-width: 1.5;" width="4" x="1306.75" y="359.5"/><text fill="#000000" font-family="Arial" font-size="11" lengthAdjust="spacingAndGlyphs" textLength="37" x="1266.75" y="378.8179">Service</text></a><a target="_top" xlink:href="../computational/components/group___wps_service.html" xlink:title="../computational/components/group___wps_service.html"><rect fill="#EEEBDC" filter="url(#f1)" height="42.6489" style="stroke: #919871; stroke-width: 1.5;" width="104" x="1310" y="204.5"/><rect fill="#EEEBDC" height="10" style="stroke: #919871; stroke-width: 1.5;" width="15" x="1394" y="209.5"/><rect fill="#EEEBDC" height="2" style="stroke: #919871; stroke-width: 1.5;" width="4" x="1392" y="211.5"/><rect fill="#EEEBDC" height="2" style="stroke: #919871; stroke-width: 1.5;" width="4" x="1392" y="215.5"/><text fill="#000000" font-family="Arial" font-size="11" lengthAdjust="spacingAndGlyphs" textLength="64" x="1325" y="234.8179">WPS Service</text></a><a target="_top" xlink:href="../computational/components/group___wps_provider.html" xlink:title="../computational/components/group___wps_provider.html"><rect fill="#EEEBDC" filter="url(#f1)" height="42.6489" style="stroke: #919871; stroke-width: 1.5;" width="108" x="1167" y="204.5"/><rect fill="#EEEBDC" height="10" style="stroke: #919871; stroke-width: 1.5;" width="15" x="1255" y="209.5"/><rect fill="#EEEBDC" height="2" style="stroke: #919871; stroke-width: 1.5;" width="4" x="1253" y="211.5"/><rect fill="#EEEBDC" height="2" style="stroke: #919871; stroke-width: 1.5;" width="4" x="1253" y="215.5"/><text fill="#000000" font-family="Arial" font-size="11" lengthAdjust="spacingAndGlyphs" textLength="68" x="1182" y="234.8179">WPS Provider</text></a><rect fill="#EEEBDC" filter="url(#f1)" height="42.6489" style="stroke: #919871; stroke-width: 1.5;" width="146" x="2621" y="204.5"/><rect fill="#EEEBDC" height="10" style="stroke: #919871; stroke-width: 1.5;" width="15" x="2747" y="209.5"/><rect fill="#EEEBDC" height="2" style="stroke: #919871; stroke-width: 1.5;" width="4" x="2745" y="211.5"/><rect fill="#EEEBDC" height="2" style="stroke: #919871; stroke-width: 1.5;" width="4" x="2745" y="215.5"/><text fill="#000000" font-family="Arial" font-size="11" lengthAdjust="spacingAndGlyphs" textLength="106" x="2636" y="234.8179">group___github_client</text><rect fill="#EEEBDC" filter="url(#f1)" height="42.6489" style="stroke: #919871; stroke-width: 1.5;" width="150" x="2802" y="204.5"/><rect fill="#EEEBDC" height="10" style="stroke: #919871; stroke-width: 1.5;" width="15" x="2932" y="209.5"/><rect fill="#EEEBDC" height="2" style="stroke: #919871; stroke-width: 1.5;" width="4" x="2930" y="211.5"/><rect fill="#EEEBDC" height="2" style="stroke: #919871; stroke-width: 1.5;" width="4" x="2930" y="215.5"/><text fill="#000000" font-family="Arial" font-size="11" lengthAdjust="spacingAndGlyphs" textLength="110" x="2817" y="234.8179">group___github_profile</text><a target="_top" xlink:href="../computational/components/group___cloud_appliance.html" xlink:title="../computational/components/group___cloud_appliance.html"><rect fill="#EEEBDC" filter="url(#f1)" height="42.6489" style="stroke: #919871; stroke-width: 1.5;" width="124" x="2118" y="204.5"/><rect fill="#EEEBDC" height="10" style="stroke: #919871; stroke-width: 1.5;" width="15" x="2222" y="209.5"/><rect fill="#EEEBDC" height="2" style="stroke: #919871; stroke-width: 1.5;" width="4" x="2220" y="211.5"/><rect fill="#EEEBDC" height="2" style="stroke: #919871; stroke-width: 1.5;" width="4" x="2220" y="215.5"/><text fill="#000000" font-family="Arial" font-size="11" lengthAdjust="spacingAndGlyphs" textLength="84" x="2133" y="234.8179">Cloud Applicance</text></a><a target="_top" xlink:href="../computational/components/group___cloud_provider.html" xlink:title="../computational/components/group___cloud_provider.html"><rect fill="#EEEBDC" filter="url(#f1)" height="42.6489" style="stroke: #919871; stroke-width: 1.5;" width="112" x="1911" y="348.5"/><rect fill="#EEEBDC" height="10" style="stroke: #919871; stroke-width: 1.5;" width="15" x="2003" y="353.5"/><rect fill="#EEEBDC" height="2" style="stroke: #919871; stroke-width: 1.5;" width="4" x="2001" y="355.5"/><rect fill="#EEEBDC" height="2" style="stroke: #919871; stroke-width: 1.5;" width="4" x="2001" y="359.5"/><text fill="#000000" font-family="Arial" font-size="11" lengthAdjust="spacingAndGlyphs" textLength="72" x="1926" y="378.8179">Cloud Provider</text></a><rect fill="#EEEBDC" filter="url(#f1)" height="42.6489" style="stroke: #919871; stroke-width: 1.5;" width="209" x="1873.75" y="204.5"/><rect fill="#EEEBDC" height="10" style="stroke: #919871; stroke-width: 1.5;" width="15" x="2062.75" y="209.5"/><rect fill="#EEEBDC" height="2" style="stroke: #919871; stroke-width: 1.5;" width="4" x="2060.75" y="211.5"/><rect fill="#EEEBDC" height="2" style="stroke: #919871; stroke-width: 1.5;" width="4" x="2060.75" y="215.5"/><text fill="#000000" font-family="Arial" font-size="11" lengthAdjust="spacingAndGlyphs" textLength="169" x="1888.75" y="234.8179">group___virtual_machine_template</text><a target="_top" xlink:href="../computational/components/group___one_client.html" xlink:title="../computational/components/group___one_client.html"><rect fill="#EEEBDC" filter="url(#f1)" height="42.6489" style="stroke: #919871; stroke-width: 1.5;" width="88" x="2277" y="204.5"/><rect fill="#EEEBDC" height="10" style="stroke: #919871; stroke-width: 1.5;" width="15" x="2345" y="209.5"/><rect fill="#EEEBDC" height="2" style="stroke: #919871; stroke-width: 1.5;" width="4" x="2343" y="211.5"/><rect fill="#EEEBDC" height="2" style="stroke: #919871; stroke-width: 1.5;" width="4" x="2343" y="215.5"/><text fill="#000000" font-family="Arial" font-size="11" lengthAdjust="spacingAndGlyphs" textLength="48" x="2292" y="234.8179">OneClient</text></a><a target="_top" xlink:href="../computational/components/group___auth___umsso.html" xlink:title="../computational/components/group___auth___umsso.html"><rect fill="#EEEBDC" filter="url(#f1)" height="42.6489" style="stroke: #919871; stroke-width: 1.5;" width="115" x="38.75" y="348.5"/><rect fill="#EEEBDC" height="10" style="stroke: #919871; stroke-width: 1.5;" width="15" x="133.75" y="353.5"/><rect fill="#EEEBDC" height="2" style="stroke: #919871; stroke-width: 1.5;" width="4" x="131.75" y="355.5"/><rect fill="#EEEBDC" height="2" style="stroke: #919871; stroke-width: 1.5;" width="4" x="131.75" y="359.5"/><text fill="#000000" font-family="Arial" font-size="11" lengthAdjust="spacingAndGlyphs" textLength="75" x="53.75" y="378.8179">UM-SSO plugin</text></a><a target="_top" xlink:href="../computational/components/group___authentication.html" xlink:title="../computational/components/group___authentication.html"><rect fill="#EEEBDC" filter="url(#f1)" height="42.6489" style="stroke: #919871; stroke-width: 1.5;" width="108" x="46" y="470.5"/><rect fill="#EEEBDC" height="10" style="stroke: #919871; stroke-width: 1.5;" width="15" x="134" y="475.5"/><rect fill="#EEEBDC" height="2" style="stroke: #919871; stroke-width: 1.5;" width="4" x="132" y="477.5"/><rect fill="#EEEBDC" height="2" style="stroke: #919871; stroke-width: 1.5;" width="4" x="132" y="481.5"/><text fill="#000000" font-family="Arial" font-size="11" lengthAdjust="spacingAndGlyphs" textLength="68" x="61" y="500.8179">Authentication</text></a><a target="_top" xlink:href="../computational/components/group___open_search_engine.html" xlink:title="../computational/components/group___open_search_engine.html"><rect fill="#EEEBDC" filter="url(#f1)" height="42.6489" style="stroke: #919871; stroke-width: 1.5;" width="138" x="264" y="204.5"/><rect fill="#EEEBDC" height="10" style="stroke: #919871; stroke-width: 1.5;" width="15" x="382" y="209.5"/><rect fill="#EEEBDC" height="2" style="stroke: #919871; stroke-width: 1.5;" width="4" x="380" y="211.5"/><rect fill="#EEEBDC" height="2" style="stroke: #919871; stroke-width: 1.5;" width="4" x="380" y="215.5"/><text fill="#000000" font-family="Arial" font-size="11" lengthAdjust="spacingAndGlyphs" textLength="98" x="279" y="234.8179">OpenSearch Engine</text></a><a target="_top" xlink:href="../computational/components/group___open_searchable.html" xlink:title="../computational/components/group___open_searchable.html"><ellipse cx="343" cy="362" fill="#FEFECE" filter="url(#f1)" rx="8" ry="8" style="stroke: #A80036; stroke-width: 2.0;"/><text fill="#000000" font-family="sans-serif" font-size="14" lengthAdjust="spacingAndGlyphs" textLength="112" x="287" y="384.5352">OpenSearchable</text></a><rect fill="#EEEBDC" filter="url(#f1)" height="42.6489" style="stroke: #919871; stroke-width: 1.5;" width="110" x="699" y="348.5"/><rect fill="#EEEBDC" height="10" style="stroke: #919871; stroke-width: 1.5;" width="15" x="789" y="353.5"/><rect fill="#EEEBDC" height="2" style="stroke: #919871; stroke-width: 1.5;" width="4" x="787" y="355.5"/><rect fill="#EEEBDC" height="2" style="stroke: #919871; stroke-width: 1.5;" width="4" x="787" y="359.5"/><text fill="#000000" font-family="Arial" font-size="11" lengthAdjust="spacingAndGlyphs" textLength="70" x="714" y="378.8179">group___atom</text><a target="_top" xlink:href="../computational/components/group___o_w_s_context.html" xlink:title="../computational/components/group___o_w_s_context.html"><rect fill="#EEEBDC" filter="url(#f1)" height="42.6489" style="stroke: #919871; stroke-width: 1.5;" width="107" x="1003.75" y="348.5"/><rect fill="#EEEBDC" height="10" style="stroke: #919871; stroke-width: 1.5;" width="15" x="1090.75" y="353.5"/><rect fill="#EEEBDC" height="2" style="stroke: #919871; stroke-width: 1.5;" width="4" x="1088.75" y="355.5"/><rect fill="#EEEBDC" height="2" style="stroke: #919871; stroke-width: 1.5;" width="4" x="1088.75" y="359.5"/><text fill="#000000" font-family="Arial" font-size="11" lengthAdjust="spacingAndGlyphs" textLength="67" x="1018.75" y="378.8179">OWS Context</text></a><a target="_top" xlink:href="../computational/components/group___syndication.html" xlink:title="../computational/components/group___syndication.html"><rect fill="#EEEBDC" filter="url(#f1)" height="42.6489" style="stroke: #919871; stroke-width: 1.5;" width="124" x="844" y="348.5"/><rect fill="#EEEBDC" height="10" style="stroke: #919871; stroke-width: 1.5;" width="15" x="948" y="353.5"/><rect fill="#EEEBDC" height="2" style="stroke: #919871; stroke-width: 1.5;" width="4" x="946" y="355.5"/><rect fill="#EEEBDC" height="2" style="stroke: #919871; stroke-width: 1.5;" width="4" x="946" y="359.5"/><text fill="#000000" font-family="Arial" font-size="11" lengthAdjust="spacingAndGlyphs" textLength="84" x="859" y="378.8179">Syndication Feed</text></a><a target="_top" xlink:href="../computational/components/group___data_package.html" xlink:title="../computational/components/group___data_package.html"><rect fill="#EEEBDC" filter="url(#f1)" height="42.6489" style="stroke: #919871; stroke-width: 1.5;" width="109" x="1677.75" y="60.5"/><rect fill="#EEEBDC" height="10" style="stroke: #919871; stroke-width: 1.5;" width="15" x="1766.75" y="65.5"/><rect fill="#EEEBDC" height="2" style="stroke: #919871; stroke-width: 1.5;" width="4" x="1764.75" y="67.5"/><rect fill="#EEEBDC" height="2" style="stroke: #919871; stroke-width: 1.5;" width="4" x="1764.75" y="71.5"/><text fill="#000000" font-family="Arial" font-size="11" lengthAdjust="spacingAndGlyphs" textLength="69" x="1692.75" y="90.8179">Data Package</text></a><a target="_top" xlink:href="../computational/components/group___cloud_wps_factory.html" xlink:title="../computational/components/group___cloud_wps_factory.html"><rect fill="#EEEBDC" filter="url(#f1)" height="42.6489" style="stroke: #919871; stroke-width: 1.5;" width="128" x="1514" y="60.5"/><rect fill="#EEEBDC" height="10" style="stroke: #919871; stroke-width: 1.5;" width="15" x="1622" y="65.5"/><rect fill="#EEEBDC" height="2" style="stroke: #919871; stroke-width: 1.5;" width="4" x="1620" y="67.5"/><rect fill="#EEEBDC" height="2" style="stroke: #919871; stroke-width: 1.5;" width="4" x="1620" y="71.5"/><text fill="#000000" font-family="Arial" font-size="11" lengthAdjust="spacingAndGlyphs" textLength="88" x="1529" y="90.8179">CloudWpsFactory</text></a><a target="_top" xlink:href="../computational/components/group___tep_user.html" xlink:title="../computational/components/group___tep_user.html"><rect fill="#EEEBDC" filter="url(#f1)" height="42.6489" style="stroke: #919871; stroke-width: 1.5;" width="86" x="1822" y="60.5"/><rect fill="#EEEBDC" height="10" style="stroke: #919871; stroke-width: 1.5;" width="15" x="1888" y="65.5"/><rect fill="#EEEBDC" height="2" style="stroke: #919871; stroke-width: 1.5;" width="4" x="1886" y="67.5"/><rect fill="#EEEBDC" height="2" style="stroke: #919871; stroke-width: 1.5;" width="4" x="1886" y="71.5"/><text fill="#000000" font-family="Arial" font-size="11" lengthAdjust="spacingAndGlyphs" textLength="46" x="1837" y="90.8179">Tep User</text></a><a target="_top" xlink:href="../computational/components/group___open_nebula_x_m_l_r_p_c.html" xlink:title="../computational/components/group___open_nebula_x_m_l_r_p_c.html"><ellipse cx="2505" cy="362" fill="#FEFECE" filter="url(#f1)" rx="8" ry="8" style="stroke: #A80036; stroke-width: 2.0;"/><text fill="#000000" font-family="sans-serif" font-size="14" lengthAdjust="spacingAndGlyphs" textLength="216" x="2397" y="384.5352">OpenNebula XML-RPC Interface</text></a><a target="_top" xlink:href="../computational/components/group___s_q_l_connector.html" xlink:title="../computational/components/group___s_q_l_connector.html"><ellipse cx="1442.25" cy="723" fill="#FEFECE" filter="url(#f1)" rx="8" ry="8" style="stroke: #A80036; stroke-width: 2.0;"/><text fill="#000000" font-family="sans-serif" font-size="14" lengthAdjust="spacingAndGlyphs" textLength="159" x="1362.75" y="745.5352">SQL interface to RDBMS</text></a><a target="_top" xlink:href="../computational/components/group___w_p_s.html" xlink:title="../computational/components/group___w_p_s.html"><ellipse cx="549" cy="362" fill="#FEFECE" filter="url(#f1)" rx="8" ry="8" style="stroke: #A80036; stroke-width: 2.0;"/><text fill="#000000" font-family="sans-serif" font-size="14" lengthAdjust="spacingAndGlyphs" textLength="230" x="434" y="384.5352">Web Processing Services Interface</text></a><polygon fill="#FBFB77" filter="url(#f1)" points="955,479.5,955,504.8105,1135,504.8105,1135,489.5,1125,479.5,955,479.5" style="stroke: #A80036; stroke-width: 1.0;"/><polygon fill="#FBFB77" points="955,479.5,955,504.8105,1135,504.8105,1135,489.5,1125,479.5,1050.17,479.5,1054.94,391.629,1042.17,479.5,955,479.5" style="stroke: #A80036; stroke-width: 1.0;"/><line style="stroke: #A80036; stroke-width: 1.0;" x1="1125" x2="1125" y1="479.5" y2="489.5"/><line style="stroke: #A80036; stroke-width: 1.0;" x1="1135" x2="1125" y1="489.5" y2="489.5"/><a target="_top" xlink:href="../computational/components/group___o_w_s_context_atom_feed.html" xlink:title="../computational/components/group___o_w_s_context_atom_feed.html"><text fill="#0000FF" font-family="sans-serif" font-size="13" lengthAdjust="spacingAndGlyphs" text-decoration="underline" textLength="159" x="961" y="497.0684">(OWS Context Document)</text><line style="stroke: #0000FF; stroke-width: 1.0;" x1="961" x2="1120" y1="499.0684" y2="499.0684"/></a><polygon fill="#FBFB77" filter="url(#f1)" points="824,479.5,824,504.8105,920,504.8105,920,489.5,910,479.5,824,479.5" style="stroke: #A80036; stroke-width: 1.0;"/><polygon fill="#FBFB77" points="824,479.5,824,504.8105,920,504.8105,920,489.5,910,479.5,879.301,479.5,900.155,391.629,871.301,479.5,824,479.5" style="stroke: #A80036; stroke-width: 1.0;"/><line style="stroke: #A80036; stroke-width: 1.0;" x1="910" x2="910" y1="479.5" y2="489.5"/><line style="stroke: #A80036; stroke-width: 1.0;" x1="920" x2="910" y1="489.5" y2="489.5"/><a target="_top" xlink:href="../computational/components/group___atom.html" xlink:title="../computational/components/group___atom.html"><text fill="#0000FF" font-family="sans-serif" font-size="13" lengthAdjust="spacingAndGlyphs" text-decoration="underline" textLength="75" x="830" y="497.0684">(Atom Feed)</text><line style="stroke: #0000FF; stroke-width: 1.0;" x1="830" x2="905" y1="499.0684" y2="499.0684"/></a><rect fill="#EEEBDC" filter="url(#f1)" height="42.6489" style="stroke: #919871; stroke-width: 1.5;" width="150" x="2085" y="470.5"/><rect fill="#EEEBDC" height="10" style="stroke: #919871; stroke-width: 1.5;" width="15" x="2215" y="475.5"/><rect fill="#EEEBDC" height="2" style="stroke: #919871; stroke-width: 1.5;" width="4" x="2213" y="477.5"/><rect fill="#EEEBDC" height="2" style="stroke: #919871; stroke-width: 1.5;" width="4" x="2213" y="481.5"/><text fill="#000000" font-family="Arial" font-size="11" lengthAdjust="spacingAndGlyphs" textLength="110" x="2100" y="500.8179">group___open_search</text><path d="M96.6876,391.629 C97.4203,413.608 98.5736,448.209 99.308,470.239 " fill="none" style="stroke: #000000; stroke-width: 1.0;"/><text fill="#000000" font-family="Arial" font-size="11" lengthAdjust="spacingAndGlyphs" textLength="55" x="100" y="435.8179">implements</text><path d="M120.117,513.524 C130.498,522.741 143.92,532.715 158,538 C271.285,580.524 1113.26,604.806 1368.72,611.251 " fill="none" style="stroke: #000000; stroke-width: 1.0; stroke-dasharray: 7.0,7.0;"/><polygon fill="#000000" points="1373.91,611.382,1365.0158,607.1519,1368.9117,611.2534,1364.8101,615.1493,1373.91,611.382" style="stroke: #000000; stroke-width: 1.0;"/><text fill="#000000" font-family="Arial" font-size="11" lengthAdjust="spacingAndGlyphs" textLength="0" x="296" y="557.8179"/><path d="M1487.55,513.629 C1478.14,534.149 1463.69,565.669 1453.6,587.691 " fill="none" style="stroke: #000000; stroke-width: 1.0; stroke-dasharray: 7.0,7.0;"/><polygon fill="#000000" points="1451.52,592.239,1458.9087,585.7269,1453.605,587.6945,1451.6375,582.3908,1451.52,592.239" style="stroke: #000000; stroke-width: 1.0;"/><text fill="#000000" font-family="Arial" font-size="11" lengthAdjust="spacingAndGlyphs" textLength="0" x="1476" y="557.8179"/><path d="M2203.6,247.651 C2262.36,301.443 2404.71,447.945 2322,538 C2267.9,596.908 1717.41,609.613 1515.63,612.298 " fill="none" style="stroke: #000000; stroke-width: 1.0; stroke-dasharray: 7.0,7.0;"/><polygon fill="#000000" points="1510.34,612.367,1519.3851,616.2639,1515.3397,612.3099,1519.2937,608.2644,1510.34,612.367" style="stroke: #000000; stroke-width: 1.0;"/><text fill="#000000" font-family="Arial" font-size="11" lengthAdjust="spacingAndGlyphs" textLength="0" x="2346" y="435.8179"/><path d="M2149.03,247.648 C2110.06,273.624 2043.31,318.125 2002.38,345.414 " fill="none" style="stroke: #000000; stroke-width: 1.0; stroke-dasharray: 7.0,7.0;"/><polygon fill="#000000" points="1998.01,348.327,2007.718,346.6675,2002.1716,345.5555,2003.2836,340.009,1998.01,348.327" style="stroke: #000000; stroke-width: 1.0;"/><text fill="#000000" font-family="Arial" font-size="11" lengthAdjust="spacingAndGlyphs" textLength="0" x="2103" y="291.8179"/><path d="M2150.65,247.505 C2135.86,256.717 2117.23,266.693 2099,272 C2041.72,288.681 2023.71,269.374 1965,280 C1792.16,311.284 1608.09,419.446 1532.5,467.581 " fill="none" style="stroke: #000000; stroke-width: 1.0; stroke-dasharray: 7.0,7.0;"/><polygon fill="#000000" points="1528.11,470.385,1537.8457,468.8964,1532.3196,467.6871,1533.529,462.161,1528.11,470.385" style="stroke: #000000; stroke-width: 1.0;"/><text fill="#000000" font-family="Arial" font-size="11" lengthAdjust="spacingAndGlyphs" textLength="0" x="1872" y="373.8179"/><path d="M1957.97,391.727 C1950.37,406.986 1938.15,427.221 1922,440 C1798.87,537.432 1616.12,582.88 1515.35,601.62 " fill="none" style="stroke: #000000; stroke-width: 1.0; stroke-dasharray: 7.0,7.0;"/><polygon fill="#000000" points="1510.32,602.547,1519.8994,604.8348,1515.2358,601.6332,1518.4374,596.9696,1510.32,602.547" style="stroke: #000000; stroke-width: 1.0;"/><text fill="#000000" font-family="Arial" font-size="11" lengthAdjust="spacingAndGlyphs" textLength="0" x="1883" y="495.8179"/><path d="M1947.9,391.532 C1931.72,407.54 1907.05,428.861 1881,440 C1823.27,464.687 1645.47,480.493 1553.46,487.24 " fill="none" style="stroke: #000000; stroke-width: 1.0; stroke-dasharray: 7.0,7.0;"/><polygon fill="#000000" points="1548.34,487.613,1557.6027,490.9599,1553.3272,487.2559,1557.0313,482.9803,1548.34,487.613" style="stroke: #000000; stroke-width: 1.0;"/><text fill="#000000" font-family="Arial" font-size="11" lengthAdjust="spacingAndGlyphs" textLength="0" x="1912" y="435.8179"/><path d="M2000.18,391.629 C2035.64,413.675 2091.52,448.42 2126.93,470.44 " fill="none" style="stroke: #000000; stroke-width: 1.0;"/><text fill="#000000" font-family="Arial" font-size="11" lengthAdjust="spacingAndGlyphs" textLength="28" x="2077" y="435.8179">proxy</text><path d="M1610.44,103.548 C1631.12,117.717 1657.59,137.922 1677,160 C1715.15,203.395 1696.75,237.377 1743,272 C1789.6,306.881 1816.82,280.339 1870,304 C1894.28,314.802 1919.13,331.584 1937.6,345.39 " fill="none" style="stroke: #000000; stroke-width: 1.0; stroke-dasharray: 7.0,7.0;"/><polygon fill="#000000" points="1941.67,348.468,1936.8985,339.8521,1937.68,345.4548,1932.0773,346.2362,1941.67,348.468" style="stroke: #000000; stroke-width: 1.0;"/><text fill="#000000" font-family="Arial" font-size="11" lengthAdjust="spacingAndGlyphs" textLength="22" x="1744" y="229.8179">calls</text><path d="M1607.73,103.553 C1622.71,112.777 1641.57,122.748 1660,128 C1676.02,132.567 2243.86,153.036 2259,160 C2277.62,168.565 2293.46,185.464 2304.47,199.883 " fill="none" style="stroke: #000000; stroke-width: 1.0; stroke-dasharray: 7.0,7.0;"/><polygon fill="#000000" points="2307.73,204.267,2305.5706,194.6578,2304.7469,200.2544,2299.1504,199.4307,2307.73,204.267" style="stroke: #000000; stroke-width: 1.0;"/><text fill="#000000" font-family="Arial" font-size="11" lengthAdjust="spacingAndGlyphs" textLength="22" x="2142" y="147.8179">calls</text><path d="M1513.94,91.3 C1453.72,101.115 1362.54,121.267 1292,160 C1273.12,170.367 1255.25,186.77 1242.17,200.504 " fill="none" style="stroke: #000000; stroke-width: 1.0; stroke-dasharray: 7.0,7.0;"/><polygon fill="#000000" points="1238.61,204.3,1247.6871,200.4782,1242.033,200.6554,1241.8558,195.0014,1238.61,204.3" style="stroke: #000000; stroke-width: 1.0;"/><text fill="#000000" font-family="Arial" font-size="11" lengthAdjust="spacingAndGlyphs" textLength="37" x="1345" y="147.8179">creates</text><path d="M1531.09,103.533 C1501.24,117.552 1462.44,137.599 1431,160 C1414.22,171.958 1397.34,187.771 1384.48,200.806 " fill="none" style="stroke: #000000; stroke-width: 1.0; stroke-dasharray: 7.0,7.0;"/><polygon fill="#000000" points="1380.96,204.403,1390.114,200.7692,1384.4575,200.8298,1384.3969,195.1733,1380.96,204.403" style="stroke: #000000; stroke-width: 1.0;"/><text fill="#000000" font-family="Arial" font-size="11" lengthAdjust="spacingAndGlyphs" textLength="37" x="1467" y="147.8179">creates</text><path d="M1377.23,391.525 C1368.07,400.418 1358.84,411.631 1354,424 C1344.89,447.275 1300.6,420.863 1355,538 C1364.76,559.009 1383.57,576.393 1401.21,589.117 " fill="none" style="stroke: #000000; stroke-width: 1.0; stroke-dasharray: 7.0,7.0;"/><polygon fill="#000000" points="1405.67,592.251,1400.6236,583.7933,1401.585,589.3678,1396.0105,590.3293,1405.67,592.251" style="stroke: #000000; stroke-width: 1.0;"/><text fill="#000000" font-family="Arial" font-size="11" lengthAdjust="spacingAndGlyphs" textLength="0" x="1359" y="495.8179"/><path d="M1419.16,391.629 C1435.37,412.321 1460.34,444.197 1477.61,466.242 " fill="none" style="stroke: #000000; stroke-width: 1.0; stroke-dasharray: 7.0,7.0;"/><polygon fill="#000000" points="1480.74,470.239,1478.3307,460.6894,1477.6533,466.3055,1472.0371,465.6281,1480.74,470.239" style="stroke: #000000; stroke-width: 1.0;"/><text fill="#000000" font-family="Arial" font-size="11" lengthAdjust="spacingAndGlyphs" textLength="0" x="1460" y="435.8179"/><path d="M1382.91,391.603 C1372.54,400.839 1359.11,410.806 1345,416 C1222.55,461.066 309.257,444.632 159.208,469.901 " fill="none" style="stroke: #000000; stroke-width: 1.0; stroke-dasharray: 7.0,7.0;"/><polygon fill="#000000" points="154.195,470.818,163.768,473.1327,159.1133,469.918,162.328,465.2634,154.195,470.818" style="stroke: #000000; stroke-width: 1.0;"/><text fill="#000000" font-family="Arial" font-size="11" lengthAdjust="spacingAndGlyphs" textLength="0" x="1305" y="435.8179"/><path d="M1705.43,103.557 C1687.49,118.185 1663.89,138.913 1646,160 C1594.53,220.662 1548,302.781 1526.14,343.675 " fill="none" style="stroke: #000000; stroke-width: 1.0; stroke-dasharray: 7.0,7.0;"/><polygon fill="#000000" points="1523.6,348.454,1531.3571,342.3854,1525.9474,344.0393,1524.2935,338.6296,1523.6,348.454" style="stroke: #000000; stroke-width: 1.0;"/><text fill="#000000" font-family="Arial" font-size="11" lengthAdjust="spacingAndGlyphs" textLength="24" x="1647" y="229.8179">uses</text><path d="M1757.34,103.591 C1770.44,112.947 1787.18,123.021 1804,128 C1853.97,142.795 2221.24,129.871 2273,136 C2321.83,141.782 2335.18,142.151 2381,160 C2440.56,183.204 2598.06,248.632 2630,304 C2654.87,347.118 2664.76,380.367 2630,416 C2617.5,428.809 2325.44,420.008 2308,424 C2269.24,432.869 2228.3,452.284 2199.32,467.943 " fill="none" style="stroke: #000000; stroke-width: 1.0; stroke-dasharray: 7.0,7.0;"/><polygon fill="#000000" points="2194.78,470.422,2204.5977,469.6391,2199.1732,468.0346,2200.7778,462.61,2194.78,470.422" style="stroke: #000000; stroke-width: 1.0;"/><text fill="#000000" font-family="Arial" font-size="11" lengthAdjust="spacingAndGlyphs" textLength="55" x="2625" y="291.8179">implements</text><path d="M2867.58,247.555 C2848.9,286.121 2803.48,369.614 2741,416 C2580.3,535.303 2511.38,523.363 2315,562 C2162.62,591.98 1696.25,606.614 1515.06,611.283 " fill="none" style="stroke: #000000; stroke-width: 1.0; stroke-dasharray: 7.0,7.0;"/><polygon fill="#000000" points="1510.04,611.411,1519.1399,615.1782,1515.0383,611.2824,1518.9341,607.1808,1510.04,611.411" style="stroke: #000000; stroke-width: 1.0;"/><text fill="#000000" font-family="Arial" font-size="11" lengthAdjust="spacingAndGlyphs" textLength="22" x="2731" y="435.8179">calls</text><path d="M2341.95,247.792 C2350.17,255.633 2359.81,264.472 2369,272 C2406.35,302.601 2452.65,334.428 2480.45,352.943 " fill="none" style="stroke: #000000; stroke-width: 1.0;"/><text fill="#000000" font-family="Arial" font-size="11" lengthAdjust="spacingAndGlyphs" textLength="22" x="2399" y="291.8179">calls</text><path d="M334.454,247.648 C336.458,276.109 340.029,326.809 341.855,352.742 " fill="none" style="stroke: #000000; stroke-width: 1.0;"/><text fill="#000000" font-family="Arial" font-size="11" lengthAdjust="spacingAndGlyphs" textLength="40" x="339" y="291.8179">process</text><path d="M402.293,233.089 C519.626,244.181 751.893,269.732 826,304 C847.413,313.902 867.986,330.842 882.907,344.946 " fill="none" style="stroke: #000000; stroke-width: 1.0; stroke-dasharray: 7.0,7.0;"/><polygon fill="#000000" points="886.576,348.465,882.85,339.3482,882.9677,345.0038,877.312,345.1215,886.576,348.465" style="stroke: #000000; stroke-width: 1.0;"/><text fill="#000000" font-family="Arial" font-size="11" lengthAdjust="spacingAndGlyphs" textLength="24" x="806" y="291.8179">uses</text><path d="M1442,635.56 C1442,657.9132 1442,693.1836 1442,713.7045 " fill="none" style="stroke: #000000; stroke-width: 1.0;"/><text fill="#000000" font-family="Arial" font-size="11" lengthAdjust="spacingAndGlyphs" textLength="45" x="1443" y="679.8179">connects</text><path d="M1491.27,391.633 C1481.84,399.901 1470.36,409.086 1459,416 C1451.17,420.763 1446.4,417.439 1440,424 C1424.68,439.721 1426.07,448.427 1422,470 C1416.4,499.698 1418.07,508.034 1422,538 C1424.18,554.66 1428.98,572.884 1433.34,587.195 " fill="none" style="stroke: #000000; stroke-width: 1.0; stroke-dasharray: 7.0,7.0;"/><polygon fill="#000000" points="1434.91,592.28,1436.0615,582.4987,1433.4274,587.5049,1428.4212,584.8708,1434.91,592.28" style="stroke: #000000; stroke-width: 1.0;"/><text fill="#000000" font-family="Arial" font-size="11" lengthAdjust="spacingAndGlyphs" textLength="0" x="1426" y="495.8179"/><path d="M1510.25,391.629 C1507.54,411.977 1503.38,443.142 1500.45,465.136 " fill="none" style="stroke: #000000; stroke-width: 1.0; stroke-dasharray: 7.0,7.0;"/><polygon fill="#000000" points="1499.77,470.239,1504.9252,461.8471,1500.4313,465.2829,1496.9955,460.789,1499.77,470.239" style="stroke: #000000; stroke-width: 1.0;"/><text fill="#000000" font-family="Arial" font-size="11" lengthAdjust="spacingAndGlyphs" textLength="0" x="1510" y="435.8179"/><path d="M1288.16,391.585 C1286.21,425.054 1286.69,492.135 1316,538 C1330.84,561.228 1355.67,578.224 1379.38,590.105 " fill="none" style="stroke: #000000; stroke-width: 1.0; stroke-dasharray: 7.0,7.0;"/><polygon fill="#000000" points="1384.11,592.413,1377.7667,584.8789,1379.6138,590.2257,1374.267,592.0727,1384.11,592.413" style="stroke: #000000; stroke-width: 1.0;"/><text fill="#000000" font-family="Arial" font-size="11" lengthAdjust="spacingAndGlyphs" textLength="0" x="1320" y="495.8179"/><path d="M1313.4,391.681 C1323.13,399.769 1334.76,408.81 1346,416 C1377.25,435.984 1414.56,454.56 1444.28,468.227 " fill="none" style="stroke: #000000; stroke-width: 1.0; stroke-dasharray: 7.0,7.0;"/><polygon fill="#000000" points="1448.98,470.377,1442.4672,462.9889,1444.4353,468.2924,1439.1318,470.2605,1448.98,470.377" style="stroke: #000000; stroke-width: 1.0;"/><text fill="#000000" font-family="Arial" font-size="11" lengthAdjust="spacingAndGlyphs" textLength="0" x="1390" y="435.8179"/><path d="M1855.51,103.621 C1833.37,151.532 1779.6,266.713 1772,272 C1657.58,351.61 1583.86,240.059 1460,304 C1442.6,312.985 1428.12,329.7 1418.12,343.93 " fill="none" style="stroke: #000000; stroke-width: 1.0; stroke-dasharray: 7.0,7.0;"/><polygon fill="#000000" points="1415.16,348.255,1423.5513,343.0988,1417.9897,344.1328,1416.9557,338.5712,1415.16,348.255" style="stroke: #000000; stroke-width: 1.0;"/><text fill="#000000" font-family="Arial" font-size="11" lengthAdjust="spacingAndGlyphs" textLength="24" x="1829" y="229.8179">uses</text><path d="M1908.26,83.56 C2029.73,85.619 2384.05,94.976 2675,136 C2724.55,142.986 2739.21,139.827 2785,160 C2808.43,170.321 2831.95,187.083 2849.35,201 " fill="none" style="stroke: #000000; stroke-width: 1.0; stroke-dasharray: 7.0,7.0;"/><polygon fill="#000000" points="2853.64,204.471,2849.1563,195.7019,2849.7519,201.3274,2844.1265,201.9229,2853.64,204.471" style="stroke: #000000; stroke-width: 1.0;"/><text fill="#000000" font-family="Arial" font-size="11" lengthAdjust="spacingAndGlyphs" textLength="24" x="2766" y="147.8179">uses</text><path d="M1841.35,103.551 C1830.33,112.207 1816.65,121.712 1803,128 C1761.49,147.124 1748.37,146.505 1703,152 C1682.94,154.43 264.16,147.866 248,160 C144.206,237.936 237.95,332.643 165,440 C157.946,450.381 148.121,459.624 138.242,467.293 " fill="none" style="stroke: #000000; stroke-width: 1.0; stroke-dasharray: 7.0,7.0;"/><polygon fill="#000000" points="134.013,470.483,143.6067,468.2556,138.0044,467.4716,138.7884,461.8693,134.013,470.483" style="stroke: #000000; stroke-width: 1.0;"/><text fill="#000000" font-family="Arial" font-size="11" lengthAdjust="spacingAndGlyphs" textLength="22" x="197" y="291.8179">calls</text><path d="M1908.14,84.041 C2059.05,87.953 2557.62,103.253 2621,136 C2648.02,149.96 2668.71,178.772 2681.05,199.846 " fill="none" style="stroke: #000000; stroke-width: 1.0; stroke-dasharray: 7.0,7.0;"/><polygon fill="#000000" points="2683.56,204.217,2682.5584,194.4192,2681.0752,199.8782,2675.6162,198.395,2683.56,204.217" style="stroke: #000000; stroke-width: 1.0;"/><text fill="#000000" font-family="Arial" font-size="11" lengthAdjust="spacingAndGlyphs" textLength="22" x="2643" y="147.8179">calls</text><path d="M1908.09,83.061 C1983.77,84.913 2143.46,96.73 2259,160 C2276.73,169.707 2292.39,186.243 2303.54,200.207 " fill="none" style="stroke: #000000; stroke-width: 1.0; stroke-dasharray: 7.0,7.0;"/><polygon fill="#000000" points="2306.86,204.448,2304.474,194.8925,2303.7829,200.507,2298.1684,199.8159,2306.86,204.448" style="stroke: #000000; stroke-width: 1.0;"/><text fill="#000000" font-family="Arial" font-size="11" lengthAdjust="spacingAndGlyphs" textLength="22" x="2241" y="147.8179">calls</text><path d="M1976.4,247.648 C1974.45,272.888 1971.14,315.618 1969.01,343.053 " fill="none" style="stroke: #000000; stroke-width: 1.0; stroke-dasharray: 7.0,7.0;"/><polygon fill="#000000" points="1968.6,348.327,1973.2823,339.6623,1968.9857,343.3419,1965.3061,339.0453,1968.6,348.327" style="stroke: #000000; stroke-width: 1.0;"/><text fill="#000000" font-family="Arial" font-size="11" lengthAdjust="spacingAndGlyphs" textLength="0" x="1978" y="291.8179"/><path d="M1485.04,247.648 C1467.76,273.203 1438.37,316.688 1419.85,344.075 " fill="none" style="stroke: #000000; stroke-width: 1.0; stroke-dasharray: 7.0,7.0;"/><polygon fill="#000000" points="1416.98,348.327,1425.3337,343.1102,1419.7798,344.1844,1418.7056,338.6305,1416.98,348.327" style="stroke: #000000; stroke-width: 1.0;"/><text fill="#000000" font-family="Arial" font-size="11" lengthAdjust="spacingAndGlyphs" textLength="0" x="1467" y="291.8179"/><path d="M1182.08,247.652 C1166.71,256.639 1149.33,267.886 1135,280 C1112.24,299.236 1090.24,325.241 1075.43,344.172 " fill="none" style="stroke: #000000; stroke-width: 1.0; stroke-dasharray: 7.0,7.0;"/><polygon fill="#000000" points="1072.2,348.34,1080.873,343.6731,1075.2613,344.3867,1074.5477,338.7751,1072.2,348.34" style="stroke: #000000; stroke-width: 1.0;"/><text fill="#000000" font-family="Arial" font-size="11" lengthAdjust="spacingAndGlyphs" textLength="37" x="1136" y="291.8179">exports</text><path d="M1166.85,227.111 C1006.67,228.211 537.95,237.204 403,304 C381.116,314.832 363.27,337.283 352.889,352.741 " fill="none" style="stroke: #000000; stroke-width: 1.0;"/><text fill="#000000" font-family="Arial" font-size="11" lengthAdjust="spacingAndGlyphs" textLength="55" x="507" y="291.8179">implements</text><path d="M1166.73,228.985 C1048.31,233.855 770.302,248.379 682,280 C636.226,296.392 590.883,331.963 566.771,352.831 " fill="none" style="stroke: #000000; stroke-width: 1.0;"/><text fill="#000000" font-family="Arial" font-size="11" lengthAdjust="spacingAndGlyphs" textLength="55" x="683" y="291.8179">implements</text><path d="M1351.53,247.648 C1338.63,273.098 1316.71,316.331 1302.81,343.736 " fill="none" style="stroke: #000000; stroke-width: 1.0; stroke-dasharray: 7.0,7.0;"/><polygon fill="#000000" points="1300.48,348.327,1308.1193,342.1108,1302.7423,343.8681,1300.9851,338.4911,1300.48,348.327" style="stroke: #000000; stroke-width: 1.0;"/><text fill="#000000" font-family="Arial" font-size="11" lengthAdjust="spacingAndGlyphs" textLength="39" x="1336" y="291.8179">extends</text><path d="M1334.97,247.525 C1322.46,256.176 1307.05,265.684 1292,272 C1277.19,278.215 1165.71,297.536 1151,304 C1127.19,314.465 1103.12,331.255 1085.29,345.15 " fill="none" style="stroke: #000000; stroke-width: 1.0; stroke-dasharray: 7.0,7.0;"/><polygon fill="#000000" points="1081.36,348.248,1090.9027,345.8113,1085.2846,345.15,1085.9459,339.5319,1081.36,348.248" style="stroke: #000000; stroke-width: 1.0;"/><text fill="#000000" font-family="Arial" font-size="11" lengthAdjust="spacingAndGlyphs" textLength="37" x="1259" y="291.8179">exports</text><path d="M1337.09,247.705 C1324.42,256.965 1308.27,266.923 1292,272 C1266.64,279.913 1079.53,278.56 1053,280 C958.206,285.145 934.83,291.574 840,296 C815.745,297.132 425.153,294.058 403,304 C380.442,314.124 362.526,337.223 352.336,352.972 " fill="none" style="stroke: #000000; stroke-width: 1.0;"/><text fill="#000000" font-family="Arial" font-size="11" lengthAdjust="spacingAndGlyphs" textLength="55" x="1054" y="291.8179">implements</text><text fill="#888888" font-family="sans-serif" font-size="10" lengthAdjust="spacingAndGlyphs" textLength="100" x="1451" y="767.668">Component Diagram</text></g></svg>