<?xml version="1.0" encoding="UTF-8" standalone="yes"?><svg xmlns="http://www.w3.org/2000/svg" xmlns:xlink="http://www.w3.org/1999/xlink" height="161pt" style="width:245px;height:161px;" version="1.1" viewBox="0 0 245 161" width="245pt"><defs><filter height="300%" id="f1" width="300%" x="-1" y="-1"><feGaussianBlur result="blurOut" stdDeviation="2.0"/><feColorMatrix in="blurOut" result="blurOut2" type="matrix" values="0 0 0 0 0 0 0 0 0 0 0 0 0 0 0 0 0 0 .4 0"/><feOffset dx="4.0" dy="4.0" in="blurOut2" result="blurOut3"/><feBlend in="SourceGraphic" in2="blurOut3" mode="normal"/></filter></defs><g><polygon fill="#FFFFFF" filter="url(#f1)" points="22,24,107,24,114,42.6489,238,42.6489,238,154,22,154,22,24" style="stroke: #000000; stroke-width: 2.0;"/><line style="stroke: #000000; stroke-width: 2.0;" x1="22" x2="114" y1="42.6489" y2="42.6489"/><text fill="#000000" font-family="Arial" font-size="11" lengthAdjust="spacingAndGlyphs" textLength="79" x="25" y="37.3179">Terradue::Portal</text><a target="_top" xlink:href="../information/classes/class_terradue_1_1_portal_1_1_series.html" xlink:title="../information/classes/class_terradue_1_1_portal_1_1_series.html"><rect fill="#EEEBDC" filter="url(#f1)" height="82.4971" style="stroke: #919871; stroke-width: 1.5;" width="184" x="38" y="56"/><ellipse cx="110.25" cy="72" fill="#ADD1B2" rx="11" ry="11" style="stroke: #919871; stroke-width: 1.0;"/><path d="M113.2231,77.6431 Q112.6421,77.9419 112.0029,78.0913 Q111.3638,78.2407 110.6582,78.2407 Q108.1514,78.2407 106.8315,76.5889 Q105.5117,74.937 105.5117,71.8159 Q105.5117,68.6865 106.8315,67.0347 Q108.1514,65.3828 110.6582,65.3828 Q111.3638,65.3828 112.0112,65.5322 Q112.6587,65.6816 113.2231,65.9805 L113.2231,68.7031 Q112.5923,68.1221 111.9988,67.8523 Q111.4053,67.5825 110.7744,67.5825 Q109.4297,67.5825 108.7449,68.6492 Q108.0601,69.7158 108.0601,71.8159 Q108.0601,73.9077 108.7449,74.9744 Q109.4297,76.041 110.7744,76.041 Q111.4053,76.041 111.9988,75.7712 Q112.5923,75.5015 113.2231,74.9204 Z "/><text fill="#000000" font-family="Arial" font-size="11" lengthAdjust="spacingAndGlyphs" textLength="31" x="130.75" y="75.9934">Series</text><line style="stroke: #919871; stroke-width: 1.5;" x1="39" x2="221" y1="88" y2="88"/><ellipse cx="49" cy="99" fill="none" rx="3" ry="3" style="stroke: #038048; stroke-width: 1.0;"/><text fill="#000000" font-family="Arial" font-size="10" lengthAdjust="spacingAndGlyphs" textLength="79" x="58" y="101.6304">Description:string</text><ellipse cx="49" cy="111" fill="none" rx="3" ry="3" style="stroke: #038048; stroke-width: 1.0;"/><text fill="#000000" font-family="Arial" font-size="10" lengthAdjust="spacingAndGlyphs" textLength="139" x="58" y="113.6304">CatalogueDescriptionUrl:string</text><line style="stroke: #919871; stroke-width: 1.5;" x1="39" x2="221" y1="118.998" y2="118.998"/><ellipse cx="49" cy="129.998" fill="#84BE84" rx="3" ry="3" style="stroke: #038048; stroke-width: 1.0;"/><text fill="#000000" font-family="Arial" font-size="10" lengthAdjust="spacingAndGlyphs" textLength="158" x="58" y="132.6284">GetLocalOpenSearchDescription()</text></a></g></svg>