<?xml version="1.0" encoding="UTF-8" standalone="yes"?><svg xmlns="http://www.w3.org/2000/svg" xmlns:xlink="http://www.w3.org/1999/xlink" height="207pt" style="width:167px;height:207px;" version="1.1" viewBox="0 0 167 207" width="167pt"><defs><filter height="300%" id="f1" width="300%" x="-1" y="-1"><feGaussianBlur result="blurOut" stdDeviation="2.0"/><feColorMatrix in="blurOut" result="blurOut2" type="matrix" values="0 0 0 0 0 0 0 0 0 0 0 0 0 0 0 0 0 0 .4 0"/><feOffset dx="4.0" dy="4.0" in="blurOut2" result="blurOut3"/><feBlend in="SourceGraphic" in2="blurOut3" mode="normal"/></filter></defs><g><polygon fill="#FFFFFF" filter="url(#f1)" points="22,24,107,24,114,42.6489,160,42.6489,160,200,22,200,22,24" style="stroke: #000000; stroke-width: 2.0;"/><line style="stroke: #000000; stroke-width: 2.0;" x1="22" x2="114" y1="42.6489" y2="42.6489"/><text fill="#000000" font-family="Arial" font-size="11" lengthAdjust="spacingAndGlyphs" textLength="79" x="25" y="37.3179">Terradue::Portal</text><a target="_top" xlink:href="../information/classes/class_terradue_1_1_portal_1_1_feature.html" xlink:title="../information/classes/class_terradue_1_1_portal_1_1_feature.html"><rect fill="#EEEBDC" filter="url(#f1)" height="128.4932" style="stroke: #919871; stroke-width: 1.5;" width="106" x="38" y="56"/><ellipse cx="69.2" cy="72" fill="#ADD1B2" rx="11" ry="11" style="stroke: #919871; stroke-width: 1.0;"/><path d="M72.1731,77.6431 Q71.5921,77.9419 70.9529,78.0913 Q70.3138,78.2407 69.6082,78.2407 Q67.1014,78.2407 65.7815,76.5889 Q64.4617,74.937 64.4617,71.8159 Q64.4617,68.6865 65.7815,67.0347 Q67.1014,65.3828 69.6082,65.3828 Q70.3138,65.3828 70.9612,65.5322 Q71.6087,65.6816 72.1731,65.9805 L72.1731,68.7031 Q71.5423,68.1221 70.9488,67.8523 Q70.3553,67.5825 69.7244,67.5825 Q68.3797,67.5825 67.6949,68.6492 Q67.0101,69.7158 67.0101,71.8159 Q67.0101,73.9077 67.6949,74.9744 Q68.3797,76.041 69.7244,76.041 Q70.3553,76.041 70.9488,75.7712 Q71.5423,75.5015 72.1731,74.9204 Z "/><text fill="#000000" font-family="Arial" font-size="11" lengthAdjust="spacingAndGlyphs" textLength="38" x="86.8" y="75.9934">Feature</text><line style="stroke: #919871; stroke-width: 1.5;" x1="39" x2="143" y1="88" y2="88"/><ellipse cx="49" cy="99" fill="none" rx="3" ry="3" style="stroke: #038048; stroke-width: 1.0;"/><text fill="#000000" font-family="Arial" font-size="10" lengthAdjust="spacingAndGlyphs" textLength="47" x="58" y="101.6304">Title:string</text><ellipse cx="49" cy="111" fill="none" rx="3" ry="3" style="stroke: #038048; stroke-width: 1.0;"/><text fill="#000000" font-family="Arial" font-size="10" lengthAdjust="spacingAndGlyphs" textLength="79" x="58" y="113.6304">Description:string</text><ellipse cx="49" cy="123" fill="none" rx="3" ry="3" style="stroke: #038048; stroke-width: 1.0;"/><text fill="#000000" font-family="Arial" font-size="10" lengthAdjust="spacingAndGlyphs" textLength="57" x="58" y="125.6304">Image:string</text><ellipse cx="49" cy="135" fill="none" rx="3" ry="3" style="stroke: #038048; stroke-width: 1.0;"/><text fill="#000000" font-family="Arial" font-size="10" lengthAdjust="spacingAndGlyphs" textLength="80" x="58" y="137.6304">ImageStyle:string</text><ellipse cx="49" cy="147" fill="none" rx="3" ry="3" style="stroke: #038048; stroke-width: 1.0;"/><text fill="#000000" font-family="Arial" font-size="10" lengthAdjust="spacingAndGlyphs" textLength="79" x="58" y="149.6304">ButtonText:string</text><ellipse cx="49" cy="159" fill="none" rx="3" ry="3" style="stroke: #038048; stroke-width: 1.0;"/><text fill="#000000" font-family="Arial" font-size="10" lengthAdjust="spacingAndGlyphs" textLength="78" x="58" y="161.6304">ButtonLink:string</text><ellipse cx="49" cy="171" fill="none" rx="3" ry="3" style="stroke: #038048; stroke-width: 1.0;"/><text fill="#000000" font-family="Arial" font-size="10" lengthAdjust="spacingAndGlyphs" textLength="51" x="58" y="173.6304">Position:int</text><line style="stroke: #919871; stroke-width: 1.5;" x1="39" x2="143" y1="176.4932" y2="176.4932"/></a></g></svg>