<?xml version="1.0" encoding="UTF-8" standalone="yes"?><svg xmlns="http://www.w3.org/2000/svg" xmlns:xlink="http://www.w3.org/1999/xlink" height="752pt" style="width:2068px;height:752px;" version="1.1" viewBox="0 0 2068 752" width="2068pt"><defs><filter height="300%" id="f1" width="300%" x="-1" y="-1"><feGaussianBlur result="blurOut" stdDeviation="2.0"/><feColorMatrix in="blurOut" result="blurOut2" type="matrix" values="0 0 0 0 0 0 0 0 0 0 0 0 0 0 0 0 0 0 .4 0"/><feOffset dx="4.0" dy="4.0" in="blurOut2" result="blurOut3"/><feBlend in="SourceGraphic" in2="blurOut3" mode="normal"/></filter></defs><g><rect fill="#FFFFFF" filter="url(#f1)" height="137" style="stroke: #000000; stroke-width: 2.0;" width="177" x="1017" y="209"/><path d="M1187,210 L1187,214.6489 L1177,224.6489 L1017,224.6489 " fill="#FFFFFF" style="stroke: #000000; stroke-width: 2.0;"/><text fill="#000000" font-family="Arial" font-size="11" lengthAdjust="spacingAndGlyphs" textLength="160" x="1020" y="219.3179">Terradue::Authentication::Umsso</text><rect fill="#FFFFFF" filter="url(#f1)" height="137" style="stroke: #000000; stroke-width: 2.0;" width="134" x="1348" y="209"/><path d="M1437,210 L1437,214.6489 L1427,224.6489 L1348,224.6489 " fill="#FFFFFF" style="stroke: #000000; stroke-width: 2.0;"/><text fill="#000000" font-family="Arial" font-size="11" lengthAdjust="spacingAndGlyphs" textLength="79" x="1351" y="219.3179">Terradue::Cloud</text><rect fill="#FFFFFF" filter="url(#f1)" height="137" style="stroke: #000000; stroke-width: 2.0;" width="135" x="935" y="579"/><path d="M1063,580 L1063,584.6489 L1053,594.6489 L935,594.6489 " fill="#FFFFFF" style="stroke: #000000; stroke-width: 2.0;"/><text fill="#000000" font-family="Arial" font-size="11" lengthAdjust="spacingAndGlyphs" textLength="118" x="938" y="589.3179">Terradue::GDAL::Native</text><rect fill="#FFFFFF" filter="url(#f1)" height="137" style="stroke: #000000; stroke-width: 2.0;" width="118" x="1146" y="579"/><path d="M1252,580 L1252,584.6489 L1242,594.6489 L1146,594.6489 " fill="#FFFFFF" style="stroke: #000000; stroke-width: 2.0;"/><text fill="#000000" font-family="Arial" font-size="11" lengthAdjust="spacingAndGlyphs" textLength="96" x="1149" y="589.3179">Terradue::GeoJson</text><rect fill="#FFFFFF" filter="url(#f1)" height="137" style="stroke: #000000; stroke-width: 2.0;" width="134" x="673" y="209"/><path d="M766,210 L766,214.6489 L756,224.6489 L673,224.6489 " fill="#FFFFFF" style="stroke: #000000; stroke-width: 2.0;"/><text fill="#000000" font-family="Arial" font-size="11" lengthAdjust="spacingAndGlyphs" textLength="83" x="676" y="219.3179">Terradue::Github</text><rect fill="#FFFFFF" filter="url(#f1)" height="137" style="stroke: #000000; stroke-width: 2.0;" width="134" x="1504" y="394"/><path d="M1603,395 L1603,399.6489 L1593,409.6489 L1504,409.6489 " fill="#FFFFFF" style="stroke: #000000; stroke-width: 2.0;"/><text fill="#000000" font-family="Arial" font-size="11" lengthAdjust="spacingAndGlyphs" textLength="89" x="1507" y="404.3179">Terradue::Hadoop</text><rect fill="#FFFFFF" filter="url(#f1)" height="137" style="stroke: #000000; stroke-width: 2.0;" width="205" x="1506" y="24"/><path d="M1704,25 L1704,29.6489 L1694,39.6489 L1506,39.6489 " fill="#FFFFFF" style="stroke: #000000; stroke-width: 2.0;"/><text fill="#000000" font-family="Arial" font-size="11" lengthAdjust="spacingAndGlyphs" textLength="188" x="1509" y="34.3179">Terradue::Metadata::EarthObservation</text><rect fill="#FFFFFF" filter="url(#f1)" height="137" style="stroke: #000000; stroke-width: 2.0;" width="228" x="22" y="394"/><path d="M243,395 L243,399.6489 L233,409.6489 L22,409.6489 " fill="#FFFFFF" style="stroke: #000000; stroke-width: 2.0;"/><text fill="#000000" font-family="Arial" font-size="11" lengthAdjust="spacingAndGlyphs" textLength="211" x="25" y="404.3179">Terradue::ServiceModel::Ogc::OwsContext</text><rect fill="#FFFFFF" filter="url(#f1)" height="137" style="stroke: #000000; stroke-width: 2.0;" width="196" x="1735" y="24"/><path d="M1924,25 L1924,29.6489 L1914,39.6489 L1735,39.6489 " fill="#FFFFFF" style="stroke: #000000; stroke-width: 2.0;"/><text fill="#000000" font-family="Arial" font-size="11" lengthAdjust="spacingAndGlyphs" textLength="179" x="1738" y="34.3179">Terradue::ServiceModel::Syndication</text><rect fill="#FFFFFF" filter="url(#f1)" height="137" style="stroke: #000000; stroke-width: 2.0;" width="134" x="484" y="209"/><path d="M573,210 L573,214.6489 L563,224.6489 L484,224.6489 " fill="#FFFFFF" style="stroke: #000000; stroke-width: 2.0;"/><text fill="#000000" font-family="Arial" font-size="11" lengthAdjust="spacingAndGlyphs" textLength="79" x="487" y="219.3179">Terradue::News</text><rect fill="#FFFFFF" filter="url(#f1)" height="137" style="stroke: #000000; stroke-width: 2.0;" width="129" x="1351" y="394"/><path d="M1473,395 L1473,399.6489 L1463,409.6489 L1351,409.6489 " fill="#FFFFFF" style="stroke: #000000; stroke-width: 2.0;"/><text fill="#000000" font-family="Arial" font-size="11" lengthAdjust="spacingAndGlyphs" textLength="112" x="1354" y="404.3179">Terradue::OpenNebula</text><rect fill="#FFFFFF" filter="url(#f1)" height="137" style="stroke: #000000; stroke-width: 2.0;" width="202" x="920" y="394"/><path d="M1115,395 L1115,399.6489 L1105,409.6489 L920,409.6489 " fill="#FFFFFF" style="stroke: #000000; stroke-width: 2.0;"/><text fill="#000000" font-family="Arial" font-size="11" lengthAdjust="spacingAndGlyphs" textLength="185" x="923" y="404.3179">Terradue::OpenSearch::DataAnalyzer</text><rect fill="#FFFFFF" filter="url(#f1)" height="137" style="stroke: #000000; stroke-width: 2.0;" width="170" x="274" y="394"/><path d="M437,395 L437,399.6489 L427,409.6489 L274,409.6489 " fill="#FFFFFF" style="stroke: #000000; stroke-width: 2.0;"/><text fill="#000000" font-family="Arial" font-size="11" lengthAdjust="spacingAndGlyphs" textLength="153" x="277" y="404.3179">Terradue::OpenSearch::Tumblr</text><rect fill="#FFFFFF" filter="url(#f1)" height="137" style="stroke: #000000; stroke-width: 2.0;" width="169" x="468" y="394"/><path d="M630,395 L630,399.6489 L620,409.6489 L468,409.6489 " fill="#FFFFFF" style="stroke: #000000; stroke-width: 2.0;"/><text fill="#000000" font-family="Arial" font-size="11" lengthAdjust="spacingAndGlyphs" textLength="152" x="471" y="404.3179">Terradue::OpenSearch::Twitter</text><rect fill="#FFFFFF" filter="url(#f1)" height="137" style="stroke: #000000; stroke-width: 2.0;" width="181" x="1146" y="394"/><path d="M1320,395 L1320,399.6489 L1310,409.6489 L1146,409.6489 " fill="#FFFFFF" style="stroke: #000000; stroke-width: 2.0;"/><text fill="#000000" font-family="Arial" font-size="11" lengthAdjust="spacingAndGlyphs" textLength="164" x="1149" y="404.3179">Terradue::OpenSearch::GeoJson</text><rect fill="#FFFFFF" filter="url(#f1)" height="137" style="stroke: #000000; stroke-width: 2.0;" width="130" x="772" y="579"/><path d="M895,580 L895,584.6489 L885,594.6489 L772,594.6489 " fill="#FFFFFF" style="stroke: #000000; stroke-width: 2.0;"/><text fill="#000000" font-family="Arial" font-size="11" lengthAdjust="spacingAndGlyphs" textLength="113" x="775" y="589.3179">Terradue::OpenSearch</text><rect fill="#FFFFFF" filter="url(#f1)" height="137" style="stroke: #000000; stroke-width: 2.0;" width="134" x="762" y="394"/><path d="M851,395 L851,399.6489 L841,409.6489 L762,409.6489 " fill="#FFFFFF" style="stroke: #000000; stroke-width: 2.0;"/><text fill="#000000" font-family="Arial" font-size="11" lengthAdjust="spacingAndGlyphs" textLength="79" x="765" y="404.3179">Terradue::Portal</text><rect fill="#FFFFFF" filter="url(#f1)" height="137" style="stroke: #000000; stroke-width: 2.0;" width="134" x="1348" y="24"/><path d="M1452,25 L1452,29.6489 L1442,39.6489 L1348,39.6489 " fill="#FFFFFF" style="stroke: #000000; stroke-width: 2.0;"/><text fill="#000000" font-family="Arial" font-size="11" lengthAdjust="spacingAndGlyphs" textLength="94" x="1351" y="34.3179">Terradue::Sandbox</text><rect fill="#FFFFFF" filter="url(#f1)" height="137" style="stroke: #000000; stroke-width: 2.0;" width="106" x="1955" y="24"/><path d="M2054,25 L2054,29.6489 L2044,39.6489 L1955,39.6489 " fill="#FFFFFF" style="stroke: #000000; stroke-width: 2.0;"/><text fill="#000000" font-family="Arial" font-size="11" lengthAdjust="spacingAndGlyphs" textLength="89" x="1958" y="34.3179">Terradue::TepQW</text><rect fill="#FFFFFF" filter="url(#f1)" height="137" style="stroke: #000000; stroke-width: 2.0;" width="162" x="831" y="209"/><path d="M986,210 L986,214.6489 L976,224.6489 L831,224.6489 " fill="#FFFFFF" style="stroke: #000000; stroke-width: 2.0;"/><text fill="#000000" font-family="Arial" font-size="11" lengthAdjust="spacingAndGlyphs" textLength="145" x="834" y="219.3179">Terradue::WebService::Model</text><a target="_top" xlink:href="../technology/packages/namespace_terradue_1_1_authentication_1_1_umsso.html" xlink:title="../technology/packages/namespace_terradue_1_1_authentication_1_1_umsso.html"><rect fill="#EEEBDC" filter="url(#f1)" height="70.998" style="stroke: #919871; stroke-width: 1.5;" width="101" x="1033.75" y="258.5"/><ellipse cx="1064.5" cy="274.5" fill="#00FFFF" rx="11" ry="11" style="stroke: #919871; stroke-width: 1.0;"/><path d="M1061.3677,280.5 L1061.3677,268.1069 L1063.8164,268.1069 L1063.8164,278.3418 L1069.0542,278.3418 L1069.0542,280.5 Z "/><text fill="#000000" font-family="Arial" font-size="11" lengthAdjust="spacingAndGlyphs" textLength="34" x="1082" y="278.4934">Library</text><line style="stroke: #919871; stroke-width: 1.5;" x1="1034.75" x2="1133.75" y1="290.5" y2="290.5"/><text fill="#000000" font-family="Arial" font-size="10" lengthAdjust="spacingAndGlyphs" textLength="66" x="1039.75" y="303.8799">version : 1.2.3</text><text fill="#000000" font-family="Arial" font-size="10" lengthAdjust="spacingAndGlyphs" textLength="89" x="1039.75" y="315.3789">license : incubating</text><line style="stroke: #919871; stroke-width: 1.5;" x1="1034.75" x2="1133.75" y1="321.498" y2="321.498"/></a><a target="_top" xlink:href="../technology/packages/namespace_terradue_1_1_cloud.html" xlink:title="../technology/packages/namespace_terradue_1_1_cloud.html"><rect fill="#EEEBDC" filter="url(#f1)" height="70.998" style="stroke: #919871; stroke-width: 1.5;" width="101" x="1364.75" y="258.5"/><ellipse cx="1395.5" cy="274.5" fill="#00FFFF" rx="11" ry="11" style="stroke: #919871; stroke-width: 1.0;"/><path d="M1392.3677,280.5 L1392.3677,268.1069 L1394.8164,268.1069 L1394.8164,278.3418 L1400.0542,278.3418 L1400.0542,280.5 Z "/><text fill="#000000" font-family="Arial" font-size="11" lengthAdjust="spacingAndGlyphs" textLength="34" x="1413" y="278.4934">Library</text><line style="stroke: #919871; stroke-width: 1.5;" x1="1365.75" x2="1464.75" y1="290.5" y2="290.5"/><text fill="#000000" font-family="Arial" font-size="10" lengthAdjust="spacingAndGlyphs" textLength="72" x="1370.75" y="303.8799">version : 1.2.14</text><text fill="#000000" font-family="Arial" font-size="10" lengthAdjust="spacingAndGlyphs" textLength="89" x="1370.75" y="315.3789">license : incubating</text><line style="stroke: #919871; stroke-width: 1.5;" x1="1365.75" x2="1464.75" y1="321.498" y2="321.498"/></a><a target="_top" xlink:href="../technology/packages/namespace_terradue_1_1_g_d_a_l_1_1_native.html" xlink:title="../technology/packages/namespace_terradue_1_1_g_d_a_l_1_1_native.html"><rect fill="#EEEBDC" filter="url(#f1)" height="70.998" style="stroke: #919871; stroke-width: 1.5;" width="66" x="962" y="628.5"/><ellipse cx="977" cy="644.5" fill="#00FFFF" rx="11" ry="11" style="stroke: #919871; stroke-width: 1.0;"/><path d="M973.8677,650.5 L973.8677,638.1069 L976.3164,638.1069 L976.3164,648.3418 L981.5542,648.3418 L981.5542,650.5 Z "/><text fill="#000000" font-family="Arial" font-size="11" lengthAdjust="spacingAndGlyphs" textLength="34" x="991" y="648.4934">Library</text><line style="stroke: #919871; stroke-width: 1.5;" x1="963" x2="1027" y1="660.5" y2="660.5"/><text fill="#000000" font-family="Arial" font-size="10" lengthAdjust="spacingAndGlyphs" textLength="39" x="968" y="673.8799">version :</text><text fill="#000000" font-family="Arial" font-size="10" lengthAdjust="spacingAndGlyphs" textLength="38" x="968" y="685.3789">license :</text><line style="stroke: #919871; stroke-width: 1.5;" x1="963" x2="1027" y1="691.498" y2="691.498"/></a><a target="_top" xlink:href="../technology/packages/namespace_terradue_1_1_geo_json.html" xlink:title="../technology/packages/namespace_terradue_1_1_geo_json.html"><rect fill="#EEEBDC" filter="url(#f1)" height="70.998" style="stroke: #919871; stroke-width: 1.5;" width="85" x="1162.75" y="628.5"/><ellipse cx="1186.3" cy="644.5" fill="#00FFFF" rx="11" ry="11" style="stroke: #919871; stroke-width: 1.0;"/><path d="M1183.1677,650.5 L1183.1677,638.1069 L1185.6164,638.1069 L1185.6164,648.3418 L1190.8542,648.3418 L1190.8542,650.5 Z "/><text fill="#000000" font-family="Arial" font-size="11" lengthAdjust="spacingAndGlyphs" textLength="34" x="1202.2" y="648.4934">Library</text><line style="stroke: #919871; stroke-width: 1.5;" x1="1163.75" x2="1246.75" y1="660.5" y2="660.5"/><text fill="#000000" font-family="Arial" font-size="10" lengthAdjust="spacingAndGlyphs" textLength="66" x="1168.75" y="673.8799">version : 1.5.5</text><text fill="#000000" font-family="Arial" font-size="10" lengthAdjust="spacingAndGlyphs" textLength="73" x="1168.75" y="685.3789">license : GPLv3</text><line style="stroke: #919871; stroke-width: 1.5;" x1="1163.75" x2="1246.75" y1="691.498" y2="691.498"/></a><a target="_top" xlink:href="../technology/packages/namespace_terradue_1_1_github.html" xlink:title="../technology/packages/namespace_terradue_1_1_github.html"><rect fill="#EEEBDC" filter="url(#f1)" height="70.998" style="stroke: #919871; stroke-width: 1.5;" width="101" x="689.75" y="258.5"/><ellipse cx="720.5" cy="274.5" fill="#00FFFF" rx="11" ry="11" style="stroke: #919871; stroke-width: 1.0;"/><path d="M717.3677,280.5 L717.3677,268.1069 L719.8164,268.1069 L719.8164,278.3418 L725.0542,278.3418 L725.0542,280.5 Z "/><text fill="#000000" font-family="Arial" font-size="11" lengthAdjust="spacingAndGlyphs" textLength="34" x="738" y="278.4934">Library</text><line style="stroke: #919871; stroke-width: 1.5;" x1="690.75" x2="789.75" y1="290.5" y2="290.5"/><text fill="#000000" font-family="Arial" font-size="10" lengthAdjust="spacingAndGlyphs" textLength="66" x="695.75" y="303.8799">version : 1.0.4</text><text fill="#000000" font-family="Arial" font-size="10" lengthAdjust="spacingAndGlyphs" textLength="89" x="695.75" y="315.3789">license : incubating</text><line style="stroke: #919871; stroke-width: 1.5;" x1="690.75" x2="789.75" y1="321.498" y2="321.498"/></a><a target="_top" xlink:href="../technology/packages/namespace_terradue_1_1_hadoop.html" xlink:title="../technology/packages/namespace_terradue_1_1_hadoop.html"><rect fill="#EEEBDC" filter="url(#f1)" height="70.998" style="stroke: #919871; stroke-width: 1.5;" width="101" x="1520.75" y="443.5"/><ellipse cx="1551.5" cy="459.5" fill="#00FFFF" rx="11" ry="11" style="stroke: #919871; stroke-width: 1.0;"/><path d="M1548.3677,465.5 L1548.3677,453.1069 L1550.8164,453.1069 L1550.8164,463.3418 L1556.0542,463.3418 L1556.0542,465.5 Z "/><text fill="#000000" font-family="Arial" font-size="11" lengthAdjust="spacingAndGlyphs" textLength="34" x="1569" y="463.4934">Library</text><line style="stroke: #919871; stroke-width: 1.5;" x1="1521.75" x2="1620.75" y1="475.5" y2="475.5"/><text fill="#000000" font-family="Arial" font-size="10" lengthAdjust="spacingAndGlyphs" textLength="66" x="1526.75" y="488.8799">version : 1.3.2</text><text fill="#000000" font-family="Arial" font-size="10" lengthAdjust="spacingAndGlyphs" textLength="89" x="1526.75" y="500.3789">license : incubating</text><line style="stroke: #919871; stroke-width: 1.5;" x1="1521.75" x2="1620.75" y1="506.498" y2="506.498"/></a><a target="_top" xlink:href="../technology/packages/namespace_terradue_1_1_metadata_1_1_earth_observation.html" xlink:title="../technology/packages/namespace_terradue_1_1_metadata_1_1_earth_observation.html"><rect fill="#EEEBDC" filter="url(#f1)" height="70.998" style="stroke: #919871; stroke-width: 1.5;" width="85" x="1565.75" y="73.5"/><ellipse cx="1589.3" cy="89.5" fill="#00FFFF" rx="11" ry="11" style="stroke: #919871; stroke-width: 1.0;"/><path d="M1586.1677,95.5 L1586.1677,83.1069 L1588.6164,83.1069 L1588.6164,93.3418 L1593.8542,93.3418 L1593.8542,95.5 Z "/><text fill="#000000" font-family="Arial" font-size="11" lengthAdjust="spacingAndGlyphs" textLength="34" x="1605.2" y="93.4934">Library</text><line style="stroke: #919871; stroke-width: 1.5;" x1="1566.75" x2="1649.75" y1="105.5" y2="105.5"/><text fill="#000000" font-family="Arial" font-size="10" lengthAdjust="spacingAndGlyphs" textLength="66" x="1571.75" y="118.8799">version : 1.3.1</text><text fill="#000000" font-family="Arial" font-size="10" lengthAdjust="spacingAndGlyphs" textLength="73" x="1571.75" y="130.3789">license : GPLv3</text><line style="stroke: #919871; stroke-width: 1.5;" x1="1566.75" x2="1649.75" y1="136.498" y2="136.498"/></a><a target="_top" xlink:href="../technology/packages/namespace_terradue_1_1_service_model_1_1_ogc_1_1_ows_context.html" xlink:title="../technology/packages/namespace_terradue_1_1_service_model_1_1_ogc_1_1_ows_context.html"><rect fill="#EEEBDC" filter="url(#f1)" height="70.998" style="stroke: #919871; stroke-width: 1.5;" width="85" x="148.75" y="443.5"/><ellipse cx="172.3" cy="459.5" fill="#00FFFF" rx="11" ry="11" style="stroke: #919871; stroke-width: 1.0;"/><path d="M169.1677,465.5 L169.1677,453.1069 L171.6164,453.1069 L171.6164,463.3418 L176.8542,463.3418 L176.8542,465.5 Z "/><text fill="#000000" font-family="Arial" font-size="11" lengthAdjust="spacingAndGlyphs" textLength="34" x="188.2" y="463.4934">Library</text><line style="stroke: #919871; stroke-width: 1.5;" x1="149.75" x2="232.75" y1="475.5" y2="475.5"/><text fill="#000000" font-family="Arial" font-size="10" lengthAdjust="spacingAndGlyphs" textLength="66" x="154.75" y="488.8799">version : 1.0.6</text><text fill="#000000" font-family="Arial" font-size="10" lengthAdjust="spacingAndGlyphs" textLength="73" x="154.75" y="500.3789">license : GPLv3</text><line style="stroke: #919871; stroke-width: 1.5;" x1="149.75" x2="232.75" y1="506.498" y2="506.498"/></a><a target="_top" xlink:href="../technology/packages/namespace_terradue_1_1_service_model_1_1_syndication.html" xlink:title="../technology/packages/namespace_terradue_1_1_service_model_1_1_syndication.html"><rect fill="#EEEBDC" filter="url(#f1)" height="70.998" style="stroke: #919871; stroke-width: 1.5;" width="85" x="1790.75" y="73.5"/><ellipse cx="1814.3" cy="89.5" fill="#00FFFF" rx="11" ry="11" style="stroke: #919871; stroke-width: 1.0;"/><path d="M1811.1677,95.5 L1811.1677,83.1069 L1813.6164,83.1069 L1813.6164,93.3418 L1818.8542,93.3418 L1818.8542,95.5 Z "/><text fill="#000000" font-family="Arial" font-size="11" lengthAdjust="spacingAndGlyphs" textLength="34" x="1830.2" y="93.4934">Library</text><line style="stroke: #919871; stroke-width: 1.5;" x1="1791.75" x2="1874.75" y1="105.5" y2="105.5"/><text fill="#000000" font-family="Arial" font-size="10" lengthAdjust="spacingAndGlyphs" textLength="66" x="1796.75" y="118.8799">version : 1.0.0</text><text fill="#000000" font-family="Arial" font-size="10" lengthAdjust="spacingAndGlyphs" textLength="73" x="1796.75" y="130.3789">license : GPLv3</text><line style="stroke: #919871; stroke-width: 1.5;" x1="1791.75" x2="1874.75" y1="136.498" y2="136.498"/></a><a target="_top" xlink:href="../technology/packages/namespace_terradue_1_1_news.html" xlink:title="../technology/packages/namespace_terradue_1_1_news.html"><rect fill="#EEEBDC" filter="url(#f1)" height="70.998" style="stroke: #919871; stroke-width: 1.5;" width="101" x="500.75" y="258.5"/><ellipse cx="531.5" cy="274.5" fill="#00FFFF" rx="11" ry="11" style="stroke: #919871; stroke-width: 1.0;"/><path d="M528.3677,280.5 L528.3677,268.1069 L530.8164,268.1069 L530.8164,278.3418 L536.0542,278.3418 L536.0542,280.5 Z "/><text fill="#000000" font-family="Arial" font-size="11" lengthAdjust="spacingAndGlyphs" textLength="34" x="549" y="278.4934">Library</text><line style="stroke: #919871; stroke-width: 1.5;" x1="501.75" x2="600.75" y1="290.5" y2="290.5"/><text fill="#000000" font-family="Arial" font-size="10" lengthAdjust="spacingAndGlyphs" textLength="72" x="506.75" y="303.8799">version : 1.0.11</text><text fill="#000000" font-family="Arial" font-size="10" lengthAdjust="spacingAndGlyphs" textLength="89" x="506.75" y="315.3789">license : incubating</text><line style="stroke: #919871; stroke-width: 1.5;" x1="501.75" x2="600.75" y1="321.498" y2="321.498"/></a><a target="_top" xlink:href="../technology/packages/namespace_terradue_1_1_open_nebula.html" xlink:title="../technology/packages/namespace_terradue_1_1_open_nebula.html"><rect fill="#EEEBDC" filter="url(#f1)" height="70.998" style="stroke: #919871; stroke-width: 1.5;" width="85" x="1372.75" y="443.5"/><ellipse cx="1396.3" cy="459.5" fill="#00FFFF" rx="11" ry="11" style="stroke: #919871; stroke-width: 1.0;"/><path d="M1393.1677,465.5 L1393.1677,453.1069 L1395.6164,453.1069 L1395.6164,463.3418 L1400.8542,463.3418 L1400.8542,465.5 Z "/><text fill="#000000" font-family="Arial" font-size="11" lengthAdjust="spacingAndGlyphs" textLength="34" x="1412.2" y="463.4934">Library</text><line style="stroke: #919871; stroke-width: 1.5;" x1="1373.75" x2="1456.75" y1="475.5" y2="475.5"/><text fill="#000000" font-family="Arial" font-size="10" lengthAdjust="spacingAndGlyphs" textLength="66" x="1378.75" y="488.8799">version : 1.0.0</text><text fill="#000000" font-family="Arial" font-size="10" lengthAdjust="spacingAndGlyphs" textLength="73" x="1378.75" y="500.3789">license : GPLv3</text><line style="stroke: #919871; stroke-width: 1.5;" x1="1373.75" x2="1456.75" y1="506.498" y2="506.498"/></a><a target="_top" xlink:href="../technology/packages/namespace_terradue_1_1_open_search_1_1_data_analyzer.html" xlink:title="../technology/packages/namespace_terradue_1_1_open_search_1_1_data_analyzer.html"><rect fill="#EEEBDC" filter="url(#f1)" height="70.998" style="stroke: #919871; stroke-width: 1.5;" width="85" x="944.75" y="443.5"/><ellipse cx="968.3" cy="459.5" fill="#00FFFF" rx="11" ry="11" style="stroke: #919871; stroke-width: 1.0;"/><path d="M965.1677,465.5 L965.1677,453.1069 L967.6164,453.1069 L967.6164,463.3418 L972.8542,463.3418 L972.8542,465.5 Z "/><text fill="#000000" font-family="Arial" font-size="11" lengthAdjust="spacingAndGlyphs" textLength="34" x="984.2" y="463.4934">Library</text><line style="stroke: #919871; stroke-width: 1.5;" x1="945.75" x2="1028.75" y1="475.5" y2="475.5"/><text fill="#000000" font-family="Arial" font-size="10" lengthAdjust="spacingAndGlyphs" textLength="72" x="950.75" y="488.8799">version : 1.0.13</text><text fill="#000000" font-family="Arial" font-size="10" lengthAdjust="spacingAndGlyphs" textLength="73" x="950.75" y="500.3789">license : GPLv3</text><line style="stroke: #919871; stroke-width: 1.5;" x1="945.75" x2="1028.75" y1="506.498" y2="506.498"/></a><a target="_top" xlink:href="../technology/packages/namespace_terradue_1_1_open_search_1_1_tumblr.html" xlink:title="../technology/packages/namespace_terradue_1_1_open_search_1_1_tumblr.html"><rect fill="#EEEBDC" filter="url(#f1)" height="70.998" style="stroke: #919871; stroke-width: 1.5;" width="66" x="362" y="443.5"/><ellipse cx="377" cy="459.5" fill="#00FFFF" rx="11" ry="11" style="stroke: #919871; stroke-width: 1.0;"/><path d="M373.8677,465.5 L373.8677,453.1069 L376.3164,453.1069 L376.3164,463.3418 L381.5542,463.3418 L381.5542,465.5 Z "/><text fill="#000000" font-family="Arial" font-size="11" lengthAdjust="spacingAndGlyphs" textLength="34" x="391" y="463.4934">Library</text><line style="stroke: #919871; stroke-width: 1.5;" x1="363" x2="427" y1="475.5" y2="475.5"/><text fill="#000000" font-family="Arial" font-size="10" lengthAdjust="spacingAndGlyphs" textLength="39" x="368" y="488.8799">version :</text><text fill="#000000" font-family="Arial" font-size="10" lengthAdjust="spacingAndGlyphs" textLength="38" x="368" y="500.3789">license :</text><line style="stroke: #919871; stroke-width: 1.5;" x1="363" x2="427" y1="506.498" y2="506.498"/></a><a target="_top" xlink:href="../technology/packages/namespace_terradue_1_1_open_search_1_1_twitter.html" xlink:title="../technology/packages/namespace_terradue_1_1_open_search_1_1_twitter.html"><rect fill="#EEEBDC" filter="url(#f1)" height="70.998" style="stroke: #919871; stroke-width: 1.5;" width="66" x="518" y="443.5"/><ellipse cx="533" cy="459.5" fill="#00FFFF" rx="11" ry="11" style="stroke: #919871; stroke-width: 1.0;"/><path d="M529.8677,465.5 L529.8677,453.1069 L532.3164,453.1069 L532.3164,463.3418 L537.5542,463.3418 L537.5542,465.5 Z "/><text fill="#000000" font-family="Arial" font-size="11" lengthAdjust="spacingAndGlyphs" textLength="34" x="547" y="463.4934">Library</text><line style="stroke: #919871; stroke-width: 1.5;" x1="519" x2="583" y1="475.5" y2="475.5"/><text fill="#000000" font-family="Arial" font-size="10" lengthAdjust="spacingAndGlyphs" textLength="39" x="524" y="488.8799">version :</text><text fill="#000000" font-family="Arial" font-size="10" lengthAdjust="spacingAndGlyphs" textLength="38" x="524" y="500.3789">license :</text><line style="stroke: #919871; stroke-width: 1.5;" x1="519" x2="583" y1="506.498" y2="506.498"/></a><a target="_top" xlink:href="../technology/packages/namespace_terradue_1_1_open_search_1_1_geo_json.html" xlink:title="../technology/packages/namespace_terradue_1_1_open_search_1_1_geo_json.html"><rect fill="#EEEBDC" filter="url(#f1)" height="70.998" style="stroke: #919871; stroke-width: 1.5;" width="85" x="1162.75" y="443.5"/><ellipse cx="1186.3" cy="459.5" fill="#00FFFF" rx="11" ry="11" style="stroke: #919871; stroke-width: 1.0;"/><path d="M1183.1677,465.5 L1183.1677,453.1069 L1185.6164,453.1069 L1185.6164,463.3418 L1190.8542,463.3418 L1190.8542,465.5 Z "/><text fill="#000000" font-family="Arial" font-size="11" lengthAdjust="spacingAndGlyphs" textLength="34" x="1202.2" y="463.4934">Library</text><line style="stroke: #919871; stroke-width: 1.5;" x1="1163.75" x2="1246.75" y1="475.5" y2="475.5"/><text fill="#000000" font-family="Arial" font-size="10" lengthAdjust="spacingAndGlyphs" textLength="66" x="1168.75" y="488.8799">version : 1.3.1</text><text fill="#000000" font-family="Arial" font-size="10" lengthAdjust="spacingAndGlyphs" textLength="73" x="1168.75" y="500.3789">license : GPLv3</text><line style="stroke: #919871; stroke-width: 1.5;" x1="1163.75" x2="1246.75" y1="506.498" y2="506.498"/></a><a target="_top" xlink:href="../technology/packages/namespace_terradue_1_1_open_search.html" xlink:title="../technology/packages/namespace_terradue_1_1_open_search.html"><rect fill="#EEEBDC" filter="url(#f1)" height="70.998" style="stroke: #919871; stroke-width: 1.5;" width="85" x="794.75" y="628.5"/><ellipse cx="818.3" cy="644.5" fill="#00FFFF" rx="11" ry="11" style="stroke: #919871; stroke-width: 1.0;"/><path d="M815.1677,650.5 L815.1677,638.1069 L817.6164,638.1069 L817.6164,648.3418 L822.8542,648.3418 L822.8542,650.5 Z "/><text fill="#000000" font-family="Arial" font-size="11" lengthAdjust="spacingAndGlyphs" textLength="34" x="834.2" y="648.4934">Library</text><line style="stroke: #919871; stroke-width: 1.5;" x1="795.75" x2="878.75" y1="660.5" y2="660.5"/><text fill="#000000" font-family="Arial" font-size="10" lengthAdjust="spacingAndGlyphs" textLength="72" x="800.75" y="673.8799">version : 1.11.5</text><text fill="#000000" font-family="Arial" font-size="10" lengthAdjust="spacingAndGlyphs" textLength="73" x="800.75" y="685.3789">license : GPLv3</text><line style="stroke: #919871; stroke-width: 1.5;" x1="795.75" x2="878.75" y1="691.498" y2="691.498"/></a><a target="_top" xlink:href="../technology/packages/namespace_terradue_1_1_portal.html" xlink:title="../technology/packages/namespace_terradue_1_1_portal.html"><rect fill="#EEEBDC" filter="url(#f1)" height="70.998" style="stroke: #919871; stroke-width: 1.5;" width="101" x="778.75" y="443.5"/><ellipse cx="809.5" cy="459.5" fill="#00FFFF" rx="11" ry="11" style="stroke: #919871; stroke-width: 1.0;"/><path d="M806.3677,465.5 L806.3677,453.1069 L808.8164,453.1069 L808.8164,463.3418 L814.0542,463.3418 L814.0542,465.5 Z "/><text fill="#000000" font-family="Arial" font-size="11" lengthAdjust="spacingAndGlyphs" textLength="34" x="827" y="463.4934">Library</text><line style="stroke: #919871; stroke-width: 1.5;" x1="779.75" x2="878.75" y1="475.5" y2="475.5"/><text fill="#000000" font-family="Arial" font-size="10" lengthAdjust="spacingAndGlyphs" textLength="72" x="784.75" y="488.8799">version : 2.6.41</text><text fill="#000000" font-family="Arial" font-size="10" lengthAdjust="spacingAndGlyphs" textLength="89" x="784.75" y="500.3789">license : incubating</text><line style="stroke: #919871; stroke-width: 1.5;" x1="779.75" x2="878.75" y1="506.498" y2="506.498"/></a><a target="_top" xlink:href="../technology/packages/namespace_terradue_1_1_sandbox.html" xlink:title="../technology/packages/namespace_terradue_1_1_sandbox.html"><rect fill="#EEEBDC" filter="url(#f1)" height="70.998" style="stroke: #919871; stroke-width: 1.5;" width="101" x="1364.75" y="73.5"/><ellipse cx="1395.5" cy="89.5" fill="#00FFFF" rx="11" ry="11" style="stroke: #919871; stroke-width: 1.0;"/><path d="M1392.3677,95.5 L1392.3677,83.1069 L1394.8164,83.1069 L1394.8164,93.3418 L1400.0542,93.3418 L1400.0542,95.5 Z "/><text fill="#000000" font-family="Arial" font-size="11" lengthAdjust="spacingAndGlyphs" textLength="34" x="1413" y="93.4934">Library</text><line style="stroke: #919871; stroke-width: 1.5;" x1="1365.75" x2="1464.75" y1="105.5" y2="105.5"/><text fill="#000000" font-family="Arial" font-size="10" lengthAdjust="spacingAndGlyphs" textLength="66" x="1370.75" y="118.8799">version : 1.3.6</text><text fill="#000000" font-family="Arial" font-size="10" lengthAdjust="spacingAndGlyphs" textLength="89" x="1370.75" y="130.3789">license : incubating</text><line style="stroke: #919871; stroke-width: 1.5;" x1="1365.75" x2="1464.75" y1="136.498" y2="136.498"/></a><a target="_top" xlink:href="../technology/packages/namespace_terradue_1_1_tep_q_w.html" xlink:title="../technology/packages/namespace_terradue_1_1_tep_q_w.html"><rect fill="#EEEBDC" filter="url(#f1)" height="70.998" style="stroke: #919871; stroke-width: 1.5;" width="66" x="1975" y="73.5"/><ellipse cx="1990" cy="89.5" fill="#00FFFF" rx="11" ry="11" style="stroke: #919871; stroke-width: 1.0;"/><path d="M1986.8677,95.5 L1986.8677,83.1069 L1989.3164,83.1069 L1989.3164,93.3418 L1994.5542,93.3418 L1994.5542,95.5 Z "/><text fill="#000000" font-family="Arial" font-size="11" lengthAdjust="spacingAndGlyphs" textLength="34" x="2004" y="93.4934">Library</text><line style="stroke: #919871; stroke-width: 1.5;" x1="1976" x2="2040" y1="105.5" y2="105.5"/><text fill="#000000" font-family="Arial" font-size="10" lengthAdjust="spacingAndGlyphs" textLength="39" x="1981" y="118.8799">version :</text><text fill="#000000" font-family="Arial" font-size="10" lengthAdjust="spacingAndGlyphs" textLength="38" x="1981" y="130.3789">license :</text><line style="stroke: #919871; stroke-width: 1.5;" x1="1976" x2="2040" y1="136.498" y2="136.498"/></a><a target="_top" xlink:href="../technology/packages/namespace_terradue_1_1_web_service_1_1_model.html" xlink:title="../technology/packages/namespace_terradue_1_1_web_service_1_1_model.html"><rect fill="#EEEBDC" filter="url(#f1)" height="70.998" style="stroke: #919871; stroke-width: 1.5;" width="101" x="861.75" y="258.5"/><ellipse cx="892.5" cy="274.5" fill="#00FFFF" rx="11" ry="11" style="stroke: #919871; stroke-width: 1.0;"/><path d="M889.3677,280.5 L889.3677,268.1069 L891.8164,268.1069 L891.8164,278.3418 L897.0542,278.3418 L897.0542,280.5 Z "/><text fill="#000000" font-family="Arial" font-size="11" lengthAdjust="spacingAndGlyphs" textLength="34" x="910" y="278.4934">Library</text><line style="stroke: #919871; stroke-width: 1.5;" x1="862.75" x2="961.75" y1="290.5" y2="290.5"/><text fill="#000000" font-family="Arial" font-size="10" lengthAdjust="spacingAndGlyphs" textLength="66" x="867.75" y="303.8799">version : 1.1.3</text><text fill="#000000" font-family="Arial" font-size="10" lengthAdjust="spacingAndGlyphs" textLength="89" x="867.75" y="315.3789">license : incubating</text><line style="stroke: #919871; stroke-width: 1.5;" x1="862.75" x2="961.75" y1="321.498" y2="321.498"/></a><path d="M1033.65,323.635 C991.824,347.541 937.662,378.83 928,386 C906.454,401.989 884.403,422.051 866.598,439.356 " fill="none" style="stroke: #000000; stroke-width: 1.0; stroke-dasharray: 7.0,7.0;"/><polygon fill="#000000" points="862.633,443.232,871.8641,439.7988,866.2076,439.736,866.2705,434.0795,862.633,443.232" style="stroke: #000000; stroke-width: 1.0;"/><text fill="#000000" font-family="Arial" font-size="11" lengthAdjust="spacingAndGlyphs" textLength="40" x="966" y="373.8179">requires</text><path d="M1375.18,329.656 C1351.77,347.752 1320.63,368.134 1289,378 C1250.7,389.946 965.177,370.915 928,386 C900.687,397.082 876.34,419.442 858.626,439.343 " fill="none" style="stroke: #000000; stroke-width: 1.0; stroke-dasharray: 7.0,7.0;"/><polygon fill="#000000" points="855.172,443.286,864.1107,439.1509,858.4662,439.5246,858.0925,433.8801,855.172,443.286" style="stroke: #000000; stroke-width: 1.0;"/><text fill="#000000" font-family="Arial" font-size="11" lengthAdjust="spacingAndGlyphs" textLength="40" x="1325" y="373.8179">requires</text><path d="M1415,329.852 C1415,360.761 1415,405.888 1415,438.206 " fill="none" style="stroke: #000000; stroke-width: 1.0; stroke-dasharray: 7.0,7.0;"/><polygon fill="#000000" points="1415,443.278,1419,434.278,1415,438.278,1411,434.278,1415,443.278" style="stroke: #000000; stroke-width: 1.0;"/><text fill="#000000" font-family="Arial" font-size="11" lengthAdjust="spacingAndGlyphs" textLength="40" x="1416" y="373.8179">requires</text><path d="M1444.71,329.852 C1471.38,361.142 1510.48,407.005 1538.09,439.397 " fill="none" style="stroke: #000000; stroke-width: 1.0; stroke-dasharray: 7.0,7.0;"/><polygon fill="#000000" points="1541.4,443.278,1538.6004,433.8354,1538.1543,439.4747,1532.5151,439.0286,1541.4,443.278" style="stroke: #000000; stroke-width: 1.0;"/><text fill="#000000" font-family="Arial" font-size="11" lengthAdjust="spacingAndGlyphs" textLength="40" x="1484" y="373.8179">requires</text><path d="M769.198,329.771 C776.662,339.755 784.206,350.944 790,362 C802.706,386.245 812.501,415.467 819.097,438.516 " fill="none" style="stroke: #000000; stroke-width: 1.0; stroke-dasharray: 7.0,7.0;"/><polygon fill="#000000" points="820.456,443.336,821.8652,433.5885,819.1,438.5234,814.165,435.7582,820.456,443.336" style="stroke: #000000; stroke-width: 1.0;"/><text fill="#000000" font-family="Arial" font-size="11" lengthAdjust="spacingAndGlyphs" textLength="40" x="799" y="373.8179">requires</text><path d="M578.179,329.793 C586.01,340.061 594.469,351.391 602,362 C656.588,438.893 660.268,465.223 719,539 C743.157,569.345 773.354,600.98 797.153,624.701 " fill="none" style="stroke: #000000; stroke-width: 1.0; stroke-dasharray: 7.0,7.0;"/><polygon fill="#000000" points="800.915,628.439,797.3479,619.2588,797.3673,624.9156,791.7105,624.9351,800.915,628.439" style="stroke: #000000; stroke-width: 1.0;"/><text fill="#000000" font-family="Arial" font-size="11" lengthAdjust="spacingAndGlyphs" textLength="40" x="720" y="482.8179">requires</text><path d="M521.29,329.852 C494.616,361.142 455.521,407.005 427.908,439.397 " fill="none" style="stroke: #000000; stroke-width: 1.0; stroke-dasharray: 7.0,7.0;"/><polygon fill="#000000" points="424.599,443.278,433.4816,439.0236,427.8426,439.4729,427.3933,433.8339,424.599,443.278" style="stroke: #000000; stroke-width: 1.0;"/><text fill="#000000" font-family="Arial" font-size="11" lengthAdjust="spacingAndGlyphs" textLength="40" x="493" y="373.8179">requires</text><path d="M551,329.852 C551,360.761 551,405.888 551,438.206 " fill="none" style="stroke: #000000; stroke-width: 1.0; stroke-dasharray: 7.0,7.0;"/><polygon fill="#000000" points="551,443.278,555,434.278,551,438.278,547,434.278,551,443.278" style="stroke: #000000; stroke-width: 1.0;"/><text fill="#000000" font-family="Arial" font-size="11" lengthAdjust="spacingAndGlyphs" textLength="40" x="552" y="373.8179">requires</text><path d="M500.516,315.45 C458.539,332.918 397.551,359.377 346,386 C308.767,405.229 268.073,429.515 237.728,448.306 " fill="none" style="stroke: #000000; stroke-width: 1.0; stroke-dasharray: 7.0,7.0;"/><polygon fill="#000000" points="233.328,451.037,243.0842,449.6891,237.5762,448.4001,238.8652,442.8921,233.328,451.037" style="stroke: #000000; stroke-width: 1.0;"/><text fill="#000000" font-family="Arial" font-size="11" lengthAdjust="spacingAndGlyphs" textLength="40" x="392" y="373.8179">requires</text><path d="M601.277,322.392 C622.889,333.351 648.719,345.39 673,354 C687.631,359.188 692.937,355.426 707,362 C723.105,369.529 725.634,374.278 739,386 C757.898,402.573 777.566,422.345 793.678,439.305 " fill="none" style="stroke: #000000; stroke-width: 1.0; stroke-dasharray: 7.0,7.0;"/><polygon fill="#000000" points="797.271,443.102,793.9894,433.8159,793.8339,439.4707,788.1792,439.3152,797.271,443.102" style="stroke: #000000; stroke-width: 1.0;"/><text fill="#000000" font-family="Arial" font-size="11" lengthAdjust="spacingAndGlyphs" textLength="40" x="731" y="373.8179">requires</text><path d="M958.433,514.852 C932.785,546.142 895.193,592.005 868.642,624.397 " fill="none" style="stroke: #000000; stroke-width: 1.0; stroke-dasharray: 7.0,7.0;"/><polygon fill="#000000" points="865.461,628.278,874.2601,623.8535,868.6308,624.4111,868.0731,618.7818,865.461,628.278" style="stroke: #000000; stroke-width: 1.0;"/><text fill="#000000" font-family="Arial" font-size="11" lengthAdjust="spacingAndGlyphs" textLength="40" x="931" y="558.8179">requires</text><path d="M988.524,514.852 C989.875,545.761 991.848,590.888 993.26,623.206 " fill="none" style="stroke: #000000; stroke-width: 1.0; stroke-dasharray: 7.0,7.0;"/><polygon fill="#000000" points="993.482,628.278,997.0848,619.1118,993.2635,623.2828,989.0924,619.4614,993.482,628.278" style="stroke: #000000; stroke-width: 1.0;"/><text fill="#000000" font-family="Arial" font-size="11" lengthAdjust="spacingAndGlyphs" textLength="40" x="992" y="558.8179">requires</text><path d="M1162.62,507.381 C1130.78,526.477 1085.37,550.665 1042,563 C1000.818,574.711 985.566,554.64 946,571 C917.466,582.798 890.87,604.929 871.093,624.527 " fill="none" style="stroke: #000000; stroke-width: 1.0; stroke-dasharray: 7.0,7.0;"/><polygon fill="#000000" points="867.23,628.41,876.4138,624.8522,870.757,624.8659,870.7432,619.2091,867.23,628.41" style="stroke: #000000; stroke-width: 1.0;"/><text fill="#000000" font-family="Arial" font-size="11" lengthAdjust="spacingAndGlyphs" textLength="40" x="1086" y="558.8179">requires</text><path d="M1205,514.852 C1205,545.761 1205,590.888 1205,623.206 " fill="none" style="stroke: #000000; stroke-width: 1.0; stroke-dasharray: 7.0,7.0;"/><polygon fill="#000000" points="1205,628.278,1209,619.278,1205,623.278,1201,619.278,1205,628.278" style="stroke: #000000; stroke-width: 1.0;"/><text fill="#000000" font-family="Arial" font-size="11" lengthAdjust="spacingAndGlyphs" textLength="40" x="1206" y="558.8179">requires</text><path d="M827.147,514.764 C826.675,525.132 826.234,536.523 826,547 C825.841,554.109 825.611,555.9 826,563 C827.093,582.926 829.401,604.986 831.623,623.305 " fill="none" style="stroke: #000000; stroke-width: 1.0; stroke-dasharray: 7.0,7.0;"/><polygon fill="#000000" points="832.246,628.368,835.1155,618.9464,831.6346,623.4055,827.1755,619.9246,832.246,628.368" style="stroke: #000000; stroke-width: 1.0;"/><text fill="#000000" font-family="Arial" font-size="11" lengthAdjust="spacingAndGlyphs" textLength="40" x="827" y="558.8179">requires</text><path d="M1371.4,144.55 C1350.88,161.19 1326.3,181.685 1305,201 C1233.53,265.817 1236.62,309.529 1151,354 C1096.92,382.089 1076.4,369.901 1016,378 C996.538,380.61 945.932,377.998 928,386 C901.484,397.832 877.47,419.723 859.735,439.183 " fill="none" style="stroke: #000000; stroke-width: 1.0; stroke-dasharray: 7.0,7.0;"/><polygon fill="#000000" points="856.273,443.039,865.2622,439.0147,859.6135,439.3186,859.3096,433.6699,856.273,443.039" style="stroke: #000000; stroke-width: 1.0;"/><text fill="#000000" font-family="Arial" font-size="11" lengthAdjust="spacingAndGlyphs" textLength="40" x="1306" y="297.8179">requires</text><path d="M1415,144.852 C1415,175.761 1415,220.888 1415,253.206 " fill="none" style="stroke: #000000; stroke-width: 1.0; stroke-dasharray: 7.0,7.0;"/><polygon fill="#000000" points="1415,258.278,1419,249.278,1415,253.278,1411,249.278,1415,258.278" style="stroke: #000000; stroke-width: 1.0;"/><text fill="#000000" font-family="Arial" font-size="11" lengthAdjust="spacingAndGlyphs" textLength="40" x="1416" y="188.8179">requires</text><path d="M1445.33,144.777 C1458.17,160.97 1472.35,181.04 1482,201 C1520.86,281.405 1548.49,382.866 1561.87,437.952 " fill="none" style="stroke: #000000; stroke-width: 1.0; stroke-dasharray: 7.0,7.0;"/><polygon fill="#000000" points="1563.12,443.136,1564.8984,433.449,1561.9477,438.2754,1557.1214,435.3247,1563.12,443.136" style="stroke: #000000; stroke-width: 1.0;"/><text fill="#000000" font-family="Arial" font-size="11" lengthAdjust="spacingAndGlyphs" textLength="40" x="1539" y="297.8179">requires</text><path d="M896.193,329.852 C882.116,360.888 861.538,406.26 846.868,438.604 " fill="none" style="stroke: #000000; stroke-width: 1.0; stroke-dasharray: 7.0,7.0;"/><polygon fill="#000000" points="844.748,443.278,852.1075,436.7329,846.8127,438.7242,844.8214,433.4294,844.748,443.278" style="stroke: #000000; stroke-width: 1.0;"/><text fill="#000000" font-family="Arial" font-size="11" lengthAdjust="spacingAndGlyphs" textLength="40" x="882" y="373.8179">requires</text><text fill="#888888" font-family="sans-serif" font-size="10" lengthAdjust="spacingAndGlyphs" textLength="136" x="979.5" y="751.668">Software Packages Diagram</text></g></svg>