<?xml version="1.0" encoding="UTF-8" standalone="yes"?><svg xmlns="http://www.w3.org/2000/svg" xmlns:xlink="http://www.w3.org/1999/xlink" height="197pt" style="width:248px;height:197px;" version="1.1" viewBox="0 0 248 197" width="248pt"><defs><filter height="300%" id="f1" width="300%" x="-1" y="-1"><feGaussianBlur result="blurOut" stdDeviation="2.0"/><feColorMatrix in="blurOut" result="blurOut2" type="matrix" values="0 0 0 0 0 0 0 0 0 0 0 0 0 0 0 0 0 0 .4 0"/><feOffset dx="4.0" dy="4.0" in="blurOut2" result="blurOut3"/><feBlend in="SourceGraphic" in2="blurOut3" mode="normal"/></filter></defs><g><polygon fill="#FFFFFF" filter="url(#f1)" points="22,24,230,24,237,42.6489,241,42.6489,241,190,22,190,22,24" style="stroke: #000000; stroke-width: 2.0;"/><line style="stroke: #000000; stroke-width: 2.0;" x1="22" x2="237" y1="42.6489" y2="42.6489"/><text fill="#000000" font-family="Arial" font-size="11" lengthAdjust="spacingAndGlyphs" textLength="202" x="25" y="37.3179">Terradue::ServiceModel::Ogc::OwsModel</text><a target="_top" xlink:href="../information/classes/class_terradue_1_1_service_model_1_1_ogc_1_1_ows_model_1_1_ows_context.html" xlink:title="../information/classes/class_terradue_1_1_service_model_1_1_ogc_1_1_ows_model_1_1_ows_context.html"><rect fill="#EEEBDC" filter="url(#f1)" height="116.9941" style="stroke: #919871; stroke-width: 1.5;" width="157" x="52.75" y="56.5"/><ellipse cx="96.55" cy="72.5" fill="#ADD1B2" rx="11" ry="11" style="stroke: #919871; stroke-width: 1.0;"/><path d="M99.5231,78.1431 Q98.9421,78.4419 98.3029,78.5913 Q97.6638,78.7407 96.9582,78.7407 Q94.4514,78.7407 93.1315,77.0889 Q91.8117,75.437 91.8117,72.3159 Q91.8117,69.1865 93.1315,67.5347 Q94.4514,65.8828 96.9582,65.8828 Q97.6638,65.8828 98.3112,66.0322 Q98.9587,66.1816 99.5231,66.4805 L99.5231,69.2031 Q98.8923,68.6221 98.2988,68.3523 Q97.7053,68.0825 97.0744,68.0825 Q95.7297,68.0825 95.0449,69.1492 Q94.3601,70.2158 94.3601,72.3159 Q94.3601,74.4077 95.0449,75.4744 Q95.7297,76.541 97.0744,76.541 Q97.7053,76.541 98.2988,76.2712 Q98.8923,76.0015 99.5231,75.4204 Z "/><text fill="#000000" font-family="Arial" font-size="11" lengthAdjust="spacingAndGlyphs" textLength="61" x="116.95" y="76.4934">OwsContext</text><line style="stroke: #919871; stroke-width: 1.5;" x1="53.75" x2="208.75" y1="88.5" y2="88.5"/><ellipse cx="63.75" cy="99.5" fill="none" rx="3" ry="3" style="stroke: #038048; stroke-width: 1.0;"/><text fill="#000000" font-family="Arial" font-size="10" lengthAdjust="spacingAndGlyphs" textLength="47" x="72.75" y="102.1304">Title:string</text><ellipse cx="63.75" cy="111.5" fill="none" rx="3" ry="3" style="stroke: #038048; stroke-width: 1.0;"/><text fill="#000000" font-family="Arial" font-size="10" lengthAdjust="spacingAndGlyphs" textLength="66" x="72.75" y="114.1304">Abstract:string</text><ellipse cx="63.75" cy="123.5" fill="none" rx="3" ry="3" style="stroke: #038048; stroke-width: 1.0;"/><text fill="#000000" font-family="Arial" font-size="10" lengthAdjust="spacingAndGlyphs" textLength="131" x="72.75" y="126.1304">UpdateDate:DateTimeOffset</text><ellipse cx="63.75" cy="135.5" fill="none" rx="3" ry="3" style="stroke: #038048; stroke-width: 1.0;"/><text fill="#000000" font-family="Arial" font-size="10" lengthAdjust="spacingAndGlyphs" textLength="98" x="72.75" y="138.1304">Authors:List&lt; string &gt;</text><ellipse cx="63.75" cy="147.5" fill="none" rx="3" ry="3" style="stroke: #038048; stroke-width: 1.0;"/><text fill="#000000" font-family="Arial" font-size="10" lengthAdjust="spacingAndGlyphs" textLength="71" x="72.75" y="150.1304">Publisher:string</text><ellipse cx="63.75" cy="159.5" fill="none" rx="3" ry="3" style="stroke: #038048; stroke-width: 1.0;"/><text fill="#000000" font-family="Arial" font-size="10" lengthAdjust="spacingAndGlyphs" textLength="111" x="72.75" y="162.1304">ContextMetadata:object</text><line style="stroke: #919871; stroke-width: 1.5;" x1="53.75" x2="208.75" y1="165.4941" y2="165.4941"/></a></g></svg>