<?xml version="1.0" encoding="UTF-8" standalone="yes"?><svg xmlns="http://www.w3.org/2000/svg" xmlns:xlink="http://www.w3.org/1999/xlink" height="1604pt" style="width:1155px;height:1604px;" version="1.1" viewBox="0 0 1155 1604" width="1155pt"><defs><filter height="300%" id="f1" width="300%" x="-1" y="-1"><feGaussianBlur result="blurOut" stdDeviation="2.0"/><feColorMatrix in="blurOut" result="blurOut2" type="matrix" values="0 0 0 0 0 0 0 0 0 0 0 0 0 0 0 0 0 0 .4 0"/><feOffset dx="4.0" dy="4.0" in="blurOut2" result="blurOut3"/><feBlend in="SourceGraphic" in2="blurOut3" mode="normal"/></filter></defs><g><rect fill="#FFFFFF" filter="url(#f1)" height="319.7949" style="stroke: #A80036; stroke-width: 1.0;" width="10" x="329.5" y="129.2871"/><rect fill="#FFFFFF" filter="url(#f1)" height="201.8633" style="stroke: #A80036; stroke-width: 1.0;" width="10" x="329.5" y="521.7031"/><rect fill="#FFFFFF" filter="url(#f1)" height="357.3711" style="stroke: #A80036; stroke-width: 1.0;" width="10" x="329.5" y="796.1875"/><rect fill="#FFFFFF" filter="url(#f1)" height="298.7949" style="stroke: #A80036; stroke-width: 1.0;" width="10" x="329.5" y="1217.8691"/><rect fill="#FFFFFF" filter="url(#f1)" height="162.5527" style="stroke: #000000; stroke-width: 2.0;" width="660" x="269.5" y="216.2188"/><rect fill="#FFFFFF" filter="url(#f1)" height="59.6211" style="stroke: #000000; stroke-width: 2.0;" width="350" x="279.5" y="312.1504"/><rect fill="#FFFFFF" filter="url(#f1)" height="162.5078" style="stroke: #000000; stroke-width: 2.0;" width="1127.5" x="13" y="984.0508"/><rect fill="#FFFFFF" height="115.8867" style="stroke: none; stroke-width: 1.0;" width="1127.5" x="13" y="1030.6719"/><rect fill="#FFFFFF" filter="url(#f1)" height="247.1738" style="stroke: #000000; stroke-width: 2.0;" width="660" x="269.5" y="1262.4902"/><rect fill="#FFFFFF" filter="url(#f1)" height="144.2422" style="stroke: #000000; stroke-width: 2.0;" width="410" x="279.5" y="1358.4219"/><line style="stroke: #A80036; stroke-width: 1.0; stroke-dasharray: 5.0,5.0;" x1="66" x2="66" y1="54.9766" y2="1526.6641"/><line style="stroke: #A80036; stroke-width: 1.0; stroke-dasharray: 5.0,5.0;" x1="334.5" x2="334.5" y1="54.9766" y2="1526.6641"/><line style="stroke: #A80036; stroke-width: 1.0; stroke-dasharray: 5.0,5.0;" x1="831.5" x2="831.5" y1="54.9766" y2="1526.6641"/><line style="stroke: #A80036; stroke-width: 1.0; stroke-dasharray: 5.0,5.0;" x1="1006.5" x2="1006.5" y1="54.9766" y2="1526.6641"/><line style="stroke: #A80036; stroke-width: 1.0; stroke-dasharray: 5.0,5.0;" x1="1112.5" x2="1112.5" y1="54.9766" y2="1526.6641"/><rect fill="#FEFECE" filter="url(#f1)" height="30.4883" style="stroke: #A80036; stroke-width: 1.5;" width="83" x="23" y="19.4883"/><text fill="#000000" font-family="sans-serif" font-size="14" lengthAdjust="spacingAndGlyphs" textLength="69" x="30" y="40.0234">WebClient</text><rect fill="#FEFECE" filter="url(#f1)" height="30.4883" style="stroke: #A80036; stroke-width: 1.5;" width="83" x="23" y="1525.6641"/><text fill="#000000" font-family="sans-serif" font-size="14" lengthAdjust="spacingAndGlyphs" textLength="69" x="30" y="1546.1992">WebClient</text><rect fill="#FEFECE" filter="url(#f1)" height="30.4883" style="stroke: #A80036; stroke-width: 1.5;" width="86" x="289.5" y="19.4883"/><text fill="#000000" font-family="sans-serif" font-size="14" lengthAdjust="spacingAndGlyphs" textLength="72" x="296.5" y="40.0234">WebServer</text><rect fill="#FEFECE" filter="url(#f1)" height="30.4883" style="stroke: #A80036; stroke-width: 1.5;" width="86" x="289.5" y="1525.6641"/><text fill="#000000" font-family="sans-serif" font-size="14" lengthAdjust="spacingAndGlyphs" textLength="72" x="296.5" y="1546.1992">WebServer</text><rect fill="#FEFECE" filter="url(#f1)" height="46.9766" style="stroke: #A80036; stroke-width: 1.5;" width="172" x="743.5" y="3"/><text fill="#000000" font-family="sans-serif" font-size="14" font-style="italic" lengthAdjust="spacingAndGlyphs" textLength="158" x="750.5" y="24">&lt;&lt; Virtual Machine &gt;&gt;</text><text fill="#000000" font-family="sans-serif" font-size="14" lengthAdjust="spacingAndGlyphs" textLength="57" x="801" y="40.4883">Provider</text><rect fill="#FEFECE" filter="url(#f1)" height="46.9766" style="stroke: #A80036; stroke-width: 1.5;" width="172" x="743.5" y="1525.6641"/><text fill="#000000" font-family="sans-serif" font-size="14" font-style="italic" lengthAdjust="spacingAndGlyphs" textLength="158" x="750.5" y="1546.6641">&lt;&lt; Virtual Machine &gt;&gt;</text><text fill="#000000" font-family="sans-serif" font-size="14" lengthAdjust="spacingAndGlyphs" textLength="57" x="801" y="1563.1523">Provider</text><rect fill="#FEFECE" filter="url(#f1)" height="46.9766" style="stroke: #A80036; stroke-width: 1.5;" width="151" x="929.5" y="3"/><text fill="#000000" font-family="sans-serif" font-size="14" font-style="italic" lengthAdjust="spacingAndGlyphs" textLength="137" x="936.5" y="24">&lt;&lt; OpenNebula &gt;&gt;</text><text fill="#000000" font-family="sans-serif" font-size="14" lengthAdjust="spacingAndGlyphs" textLength="102" x="954" y="40.4883">Cloud Provider</text><rect fill="#FEFECE" filter="url(#f1)" height="46.9766" style="stroke: #A80036; stroke-width: 1.5;" width="151" x="929.5" y="1525.6641"/><text fill="#000000" font-family="sans-serif" font-size="14" font-style="italic" lengthAdjust="spacingAndGlyphs" textLength="137" x="936.5" y="1546.6641">&lt;&lt; OpenNebula &gt;&gt;</text><text fill="#000000" font-family="sans-serif" font-size="14" lengthAdjust="spacingAndGlyphs" textLength="102" x="954" y="1563.1523">Cloud Provider</text><rect fill="#FEFECE" filter="url(#f1)" height="30.4883" style="stroke: #A80036; stroke-width: 1.5;" width="32" x="1094.5" y="19.4883"/><text fill="#000000" font-family="sans-serif" font-size="14" lengthAdjust="spacingAndGlyphs" textLength="18" x="1101.5" y="40.0234">DB</text><rect fill="#FEFECE" filter="url(#f1)" height="30.4883" style="stroke: #A80036; stroke-width: 1.5;" width="32" x="1094.5" y="1525.6641"/><text fill="#000000" font-family="sans-serif" font-size="14" lengthAdjust="spacingAndGlyphs" textLength="18" x="1101.5" y="1546.1992">DB</text><rect fill="#FFFFFF" filter="url(#f1)" height="319.7949" style="stroke: #A80036; stroke-width: 1.0;" width="10" x="329.5" y="129.2871"/><rect fill="#FFFFFF" filter="url(#f1)" height="201.8633" style="stroke: #A80036; stroke-width: 1.0;" width="10" x="329.5" y="521.7031"/><rect fill="#FFFFFF" filter="url(#f1)" height="357.3711" style="stroke: #A80036; stroke-width: 1.0;" width="10" x="329.5" y="796.1875"/><rect fill="#FFFFFF" filter="url(#f1)" height="298.7949" style="stroke: #A80036; stroke-width: 1.0;" width="10" x="329.5" y="1217.8691"/><rect fill="#EEEEEE" filter="url(#f1)" height="3" style="stroke: #EEEEEE; stroke-width: 1.0;" width="1147.5" x="3" y="85.6318"/><line style="stroke: #000000; stroke-width: 1.0;" x1="3" x2="1150.5" y1="85.6318" y2="85.6318"/><line style="stroke: #000000; stroke-width: 1.0;" x1="3" x2="1150.5" y1="88.6318" y2="88.6318"/><rect fill="#EEEEEE" filter="url(#f1)" height="23.3105" style="stroke: #000000; stroke-width: 2.0;" width="124" x="514.75" y="74.9766"/><text fill="#000000" font-family="sans-serif" font-size="13" font-weight="bold" lengthAdjust="spacingAndGlyphs" textLength="106" x="520.75" y="91.5449">Get Capabilities</text><polygon fill="#A80036" points="317.5,125.2871,327.5,129.2871,317.5,133.2871,321.5,129.2871" style="stroke: #A80036; stroke-width: 1.0;"/><line style="stroke: #A80036; stroke-width: 1.0;" x1="66.5" x2="323.5" y1="129.2871" y2="129.2871"/><text fill="#000000" font-family="sans-serif" font-size="13" font-weight="bold" lengthAdjust="spacingAndGlyphs" textLength="9" x="73.5" y="124.8555">1</text><text fill="#000000" font-family="sans-serif" font-size="13" lengthAdjust="spacingAndGlyphs" textLength="146" x="86.5" y="124.8555">GetCapabilities request</text><polygon fill="#A80036" points="995,154.5977,1005,158.5977,995,162.5977,999,158.5977" style="stroke: #A80036; stroke-width: 1.0;"/><line style="stroke: #A80036; stroke-width: 1.0;" x1="339.5" x2="1001" y1="158.5977" y2="158.5977"/><text fill="#000000" font-family="sans-serif" font-size="13" font-weight="bold" lengthAdjust="spacingAndGlyphs" textLength="9" x="346.5" y="154.166">2</text><text fill="#000000" font-family="sans-serif" font-size="13" lengthAdjust="spacingAndGlyphs" textLength="274" x="359.5" y="154.166">List all VMs that are tagged as WPS provider</text><line style="stroke: #A80036; stroke-width: 1.0;" x1="339.5" x2="381.5" y1="188.2188" y2="188.2188"/><line style="stroke: #A80036; stroke-width: 1.0;" x1="381.5" x2="381.5" y1="188.2188" y2="201.2188"/><line style="stroke: #A80036; stroke-width: 1.0;" x1="340.5" x2="381.5" y1="201.2188" y2="201.2188"/><polygon fill="#A80036" points="350.5,197.2188,340.5,201.2188,350.5,205.2188,346.5,201.2188" style="stroke: #A80036; stroke-width: 1.0;"/><text fill="#000000" font-family="sans-serif" font-size="13" font-weight="bold" lengthAdjust="spacingAndGlyphs" textLength="9" x="346.5" y="183.4766">3</text><text fill="#000000" font-family="sans-serif" font-size="13" lengthAdjust="spacingAndGlyphs" textLength="198" x="359.5" y="183.4766">create temporary WPS providers</text><rect fill="none" height="162.5527" style="stroke: #000000; stroke-width: 2.0;" width="660" x="269.5" y="216.2188"/><polygon fill="#EEEEEE" points="269.5,216.2188,343.5,216.2188,343.5,223.2188,333.5,233.2188,269.5,233.2188,269.5,216.2188" style="stroke: #000000; stroke-width: 2.0;"/><text fill="#000000" font-family="sans-serif" font-size="13" font-weight="bold" lengthAdjust="spacingAndGlyphs" textLength="29" x="284.5" y="229.7871">loop</text><text fill="#000000" font-family="sans-serif" font-size="11" font-weight="bold" lengthAdjust="spacingAndGlyphs" textLength="103" x="358.5" y="228.8535">[on each provider]</text><polygon fill="#A80036" points="819.5,250.5293,829.5,254.5293,819.5,258.5293,823.5,254.5293" style="stroke: #A80036; stroke-width: 1.0;"/><line style="stroke: #A80036; stroke-width: 1.0;" x1="339.5" x2="825.5" y1="254.5293" y2="254.5293"/><text fill="#000000" font-family="sans-serif" font-size="13" font-weight="bold" lengthAdjust="spacingAndGlyphs" textLength="9" x="346.5" y="250.0977">4</text><text fill="#000000" font-family="sans-serif" font-size="13" lengthAdjust="spacingAndGlyphs" textLength="95" x="359.5" y="250.0977">GetCapabilities</text><line style="stroke: #A80036; stroke-width: 1.0;" x1="339.5" x2="381.5" y1="284.1504" y2="284.1504"/><line style="stroke: #A80036; stroke-width: 1.0;" x1="381.5" x2="381.5" y1="284.1504" y2="297.1504"/><line style="stroke: #A80036; stroke-width: 1.0;" x1="340.5" x2="381.5" y1="297.1504" y2="297.1504"/><polygon fill="#A80036" points="350.5,293.1504,340.5,297.1504,350.5,301.1504,346.5,297.1504" style="stroke: #A80036; stroke-width: 1.0;"/><text fill="#000000" font-family="sans-serif" font-size="13" font-weight="bold" lengthAdjust="spacingAndGlyphs" textLength="9" x="346.5" y="279.4082">5</text><text fill="#000000" font-family="sans-serif" font-size="13" lengthAdjust="spacingAndGlyphs" textLength="380" x="359.5" y="279.4082">extract services from GetCapabilities using remote identifier</text><rect fill="none" height="59.6211" style="stroke: #000000; stroke-width: 2.0;" width="350" x="279.5" y="312.1504"/><polygon fill="#EEEEEE" points="279.5,312.1504,353.5,312.1504,353.5,319.1504,343.5,329.1504,279.5,329.1504,279.5,312.1504" style="stroke: #000000; stroke-width: 2.0;"/><text fill="#000000" font-family="sans-serif" font-size="13" font-weight="bold" lengthAdjust="spacingAndGlyphs" textLength="29" x="294.5" y="325.7188">loop</text><text fill="#000000" font-family="sans-serif" font-size="11" font-weight="bold" lengthAdjust="spacingAndGlyphs" textLength="95" x="368.5" y="324.7852">[on each service]</text><line style="stroke: #A80036; stroke-width: 1.0;" x1="339.5" x2="381.5" y1="350.7715" y2="350.7715"/><line style="stroke: #A80036; stroke-width: 1.0;" x1="381.5" x2="381.5" y1="350.7715" y2="363.7715"/><line style="stroke: #A80036; stroke-width: 1.0;" x1="340.5" x2="381.5" y1="363.7715" y2="363.7715"/><polygon fill="#A80036" points="350.5,359.7715,340.5,363.7715,350.5,367.7715,346.5,363.7715" style="stroke: #A80036; stroke-width: 1.0;"/><text fill="#000000" font-family="sans-serif" font-size="13" font-weight="bold" lengthAdjust="spacingAndGlyphs" textLength="9" x="346.5" y="346.0293">6</text><text fill="#000000" font-family="sans-serif" font-size="13" lengthAdjust="spacingAndGlyphs" textLength="258" x="359.5" y="346.0293">get service info (identifier, title, abstract)</text><line style="stroke: #A80036; stroke-width: 1.0;" x1="339.5" x2="381.5" y1="407.082" y2="407.082"/><line style="stroke: #A80036; stroke-width: 1.0;" x1="381.5" x2="381.5" y1="407.082" y2="420.082"/><line style="stroke: #A80036; stroke-width: 1.0;" x1="340.5" x2="381.5" y1="420.082" y2="420.082"/><polygon fill="#A80036" points="350.5,416.082,340.5,420.082,350.5,424.082,346.5,420.082" style="stroke: #A80036; stroke-width: 1.0;"/><text fill="#000000" font-family="sans-serif" font-size="13" font-weight="bold" lengthAdjust="spacingAndGlyphs" textLength="9" x="346.5" y="402.3398">7</text><text fill="#000000" font-family="sans-serif" font-size="13" lengthAdjust="spacingAndGlyphs" textLength="309" x="359.5" y="402.3398">aggregate all services info into response offering</text><polygon fill="#A80036" points="77.5,445.082,67.5,449.082,77.5,453.082,73.5,449.082" style="stroke: #A80036; stroke-width: 1.0;"/><line style="stroke: #A80036; stroke-width: 1.0;" x1="71.5" x2="333.5" y1="449.082" y2="449.082"/><text fill="#000000" font-family="sans-serif" font-size="13" font-weight="bold" lengthAdjust="spacingAndGlyphs" textLength="9" x="83.5" y="444.6504">8</text><text fill="#000000" font-family="sans-serif" font-size="13" lengthAdjust="spacingAndGlyphs" textLength="211" x="96.5" y="444.6504">return aggregated GetCapabilities</text><rect fill="#EEEEEE" filter="url(#f1)" height="3" style="stroke: #EEEEEE; stroke-width: 1.0;" width="1147.5" x="3" y="478.0479"/><line style="stroke: #000000; stroke-width: 1.0;" x1="3" x2="1150.5" y1="478.0479" y2="478.0479"/><line style="stroke: #000000; stroke-width: 1.0;" x1="3" x2="1150.5" y1="481.0479" y2="481.0479"/><rect fill="#EEEEEE" filter="url(#f1)" height="23.3105" style="stroke: #000000; stroke-width: 2.0;" width="132" x="510.75" y="467.3926"/><text fill="#000000" font-family="sans-serif" font-size="13" font-weight="bold" lengthAdjust="spacingAndGlyphs" textLength="114" x="516.75" y="483.9609">Describe Process</text><polygon fill="#A80036" points="317.5,517.7031,327.5,521.7031,317.5,525.7031,321.5,521.7031" style="stroke: #A80036; stroke-width: 1.0;"/><line style="stroke: #A80036; stroke-width: 1.0;" x1="66.5" x2="323.5" y1="521.7031" y2="521.7031"/><text fill="#000000" font-family="sans-serif" font-size="13" font-weight="bold" lengthAdjust="spacingAndGlyphs" textLength="9" x="73.5" y="517.2715">9</text><text fill="#000000" font-family="sans-serif" font-size="13" lengthAdjust="spacingAndGlyphs" textLength="154" x="86.5" y="517.2715">DescribeProcess request</text><polygon fill="#A80036" points="995,547.0137,1005,551.0137,995,555.0137,999,551.0137" style="stroke: #A80036; stroke-width: 1.0;"/><line style="stroke: #A80036; stroke-width: 1.0;" x1="339.5" x2="1001" y1="551.0137" y2="551.0137"/><text fill="#000000" font-family="sans-serif" font-size="13" font-weight="bold" lengthAdjust="spacingAndGlyphs" textLength="18" x="346.5" y="546.582">10</text><text fill="#000000" font-family="sans-serif" font-size="13" lengthAdjust="spacingAndGlyphs" textLength="124" x="368.5" y="546.582">get service provider</text><polygon fill="#A80036" points="819.5,576.3242,829.5,580.3242,819.5,584.3242,823.5,580.3242" style="stroke: #A80036; stroke-width: 1.0;"/><line style="stroke: #A80036; stroke-width: 1.0;" x1="339.5" x2="825.5" y1="580.3242" y2="580.3242"/><text fill="#000000" font-family="sans-serif" font-size="13" font-weight="bold" lengthAdjust="spacingAndGlyphs" textLength="18" x="346.5" y="575.8926">11</text><text fill="#000000" font-family="sans-serif" font-size="13" lengthAdjust="spacingAndGlyphs" textLength="95" x="368.5" y="575.8926">GetCapabilities</text><line style="stroke: #A80036; stroke-width: 1.0;" x1="339.5" x2="381.5" y1="609.9453" y2="609.9453"/><line style="stroke: #A80036; stroke-width: 1.0;" x1="381.5" x2="381.5" y1="609.9453" y2="622.9453"/><line style="stroke: #A80036; stroke-width: 1.0;" x1="340.5" x2="381.5" y1="622.9453" y2="622.9453"/><polygon fill="#A80036" points="350.5,618.9453,340.5,622.9453,350.5,626.9453,346.5,622.9453" style="stroke: #A80036; stroke-width: 1.0;"/><text fill="#000000" font-family="sans-serif" font-size="13" font-weight="bold" lengthAdjust="spacingAndGlyphs" textLength="18" x="346.5" y="605.2031">12</text><text fill="#000000" font-family="sans-serif" font-size="13" lengthAdjust="spacingAndGlyphs" textLength="451" x="368.5" y="605.2031">extract describeProcess url from GetCapabilities using remote identifier</text><line style="stroke: #A80036; stroke-width: 1.0;" x1="339.5" x2="381.5" y1="652.2559" y2="652.2559"/><line style="stroke: #A80036; stroke-width: 1.0;" x1="381.5" x2="381.5" y1="652.2559" y2="665.2559"/><line style="stroke: #A80036; stroke-width: 1.0;" x1="340.5" x2="381.5" y1="665.2559" y2="665.2559"/><polygon fill="#A80036" points="350.5,661.2559,340.5,665.2559,350.5,669.2559,346.5,665.2559" style="stroke: #A80036; stroke-width: 1.0;"/><text fill="#000000" font-family="sans-serif" font-size="13" font-weight="bold" lengthAdjust="spacingAndGlyphs" textLength="18" x="346.5" y="647.5137">13</text><text fill="#000000" font-family="sans-serif" font-size="13" lengthAdjust="spacingAndGlyphs" textLength="188" x="368.5" y="647.5137">build describeProcess request</text><polygon fill="#A80036" points="819.5,690.2559,829.5,694.2559,819.5,698.2559,823.5,694.2559" style="stroke: #A80036; stroke-width: 1.0;"/><line style="stroke: #A80036; stroke-width: 1.0;" x1="339.5" x2="825.5" y1="694.2559" y2="694.2559"/><text fill="#000000" font-family="sans-serif" font-size="13" font-weight="bold" lengthAdjust="spacingAndGlyphs" textLength="18" x="346.5" y="689.8242">14</text><text fill="#000000" font-family="sans-serif" font-size="13" lengthAdjust="spacingAndGlyphs" textLength="103" x="368.5" y="689.8242">DescribeProcess</text><polygon fill="#A80036" points="77.5,719.5664,67.5,723.5664,77.5,727.5664,73.5,723.5664" style="stroke: #A80036; stroke-width: 1.0;"/><line style="stroke: #A80036; stroke-width: 1.0;" x1="71.5" x2="333.5" y1="723.5664" y2="723.5664"/><text fill="#000000" font-family="sans-serif" font-size="13" font-weight="bold" lengthAdjust="spacingAndGlyphs" textLength="18" x="83.5" y="719.1348">15</text><text fill="#000000" font-family="sans-serif" font-size="13" lengthAdjust="spacingAndGlyphs" textLength="217" x="105.5" y="719.1348">return result from describeProcess</text><rect fill="#EEEEEE" filter="url(#f1)" height="3" style="stroke: #EEEEEE; stroke-width: 1.0;" width="1147.5" x="3" y="752.5322"/><line style="stroke: #000000; stroke-width: 1.0;" x1="3" x2="1150.5" y1="752.5322" y2="752.5322"/><line style="stroke: #000000; stroke-width: 1.0;" x1="3" x2="1150.5" y1="755.5322" y2="755.5322"/><rect fill="#EEEEEE" filter="url(#f1)" height="23.3105" style="stroke: #000000; stroke-width: 2.0;" width="71" x="541.25" y="741.877"/><text fill="#000000" font-family="sans-serif" font-size="13" font-weight="bold" lengthAdjust="spacingAndGlyphs" textLength="53" x="547.25" y="758.4453">Execute</text><polygon fill="#A80036" points="317.5,792.1875,327.5,796.1875,317.5,800.1875,321.5,796.1875" style="stroke: #A80036; stroke-width: 1.0;"/><line style="stroke: #A80036; stroke-width: 1.0;" x1="66.5" x2="323.5" y1="796.1875" y2="796.1875"/><text fill="#000000" font-family="sans-serif" font-size="13" font-weight="bold" lengthAdjust="spacingAndGlyphs" textLength="18" x="73.5" y="791.7559">16</text><text fill="#000000" font-family="sans-serif" font-size="13" lengthAdjust="spacingAndGlyphs" textLength="100" x="95.5" y="791.7559">Execute request</text><polygon fill="#A80036" points="995,821.498,1005,825.498,995,829.498,999,825.498" style="stroke: #A80036; stroke-width: 1.0;"/><line style="stroke: #A80036; stroke-width: 1.0;" x1="339.5" x2="1001" y1="825.498" y2="825.498"/><text fill="#000000" font-family="sans-serif" font-size="13" font-weight="bold" lengthAdjust="spacingAndGlyphs" textLength="18" x="346.5" y="821.0664">17</text><text fill="#000000" font-family="sans-serif" font-size="13" lengthAdjust="spacingAndGlyphs" textLength="124" x="368.5" y="821.0664">get service provider</text><polygon fill="#A80036" points="819.5,850.8086,829.5,854.8086,819.5,858.8086,823.5,854.8086" style="stroke: #A80036; stroke-width: 1.0;"/><line style="stroke: #A80036; stroke-width: 1.0;" x1="339.5" x2="825.5" y1="854.8086" y2="854.8086"/><text fill="#000000" font-family="sans-serif" font-size="13" font-weight="bold" lengthAdjust="spacingAndGlyphs" textLength="18" x="346.5" y="850.377">18</text><text fill="#000000" font-family="sans-serif" font-size="13" lengthAdjust="spacingAndGlyphs" textLength="95" x="368.5" y="850.377">GetCapabilities</text><line style="stroke: #A80036; stroke-width: 1.0;" x1="339.5" x2="381.5" y1="884.4297" y2="884.4297"/><line style="stroke: #A80036; stroke-width: 1.0;" x1="381.5" x2="381.5" y1="884.4297" y2="897.4297"/><line style="stroke: #A80036; stroke-width: 1.0;" x1="340.5" x2="381.5" y1="897.4297" y2="897.4297"/><polygon fill="#A80036" points="350.5,893.4297,340.5,897.4297,350.5,901.4297,346.5,897.4297" style="stroke: #A80036; stroke-width: 1.0;"/><text fill="#000000" font-family="sans-serif" font-size="13" font-weight="bold" lengthAdjust="spacingAndGlyphs" textLength="18" x="346.5" y="879.6875">19</text><text fill="#000000" font-family="sans-serif" font-size="13" lengthAdjust="spacingAndGlyphs" textLength="399" x="368.5" y="879.6875">extract execute url from GetCapabilities using remote identifier</text><line style="stroke: #A80036; stroke-width: 1.0;" x1="339.5" x2="381.5" y1="926.7402" y2="926.7402"/><line style="stroke: #A80036; stroke-width: 1.0;" x1="381.5" x2="381.5" y1="926.7402" y2="939.7402"/><line style="stroke: #A80036; stroke-width: 1.0;" x1="340.5" x2="381.5" y1="939.7402" y2="939.7402"/><polygon fill="#A80036" points="350.5,935.7402,340.5,939.7402,350.5,943.7402,346.5,939.7402" style="stroke: #A80036; stroke-width: 1.0;"/><text fill="#000000" font-family="sans-serif" font-size="13" font-weight="bold" lengthAdjust="spacingAndGlyphs" textLength="18" x="346.5" y="921.998">20</text><text fill="#000000" font-family="sans-serif" font-size="13" lengthAdjust="spacingAndGlyphs" textLength="136" x="368.5" y="921.998">build execute request</text><polygon fill="#A80036" points="819.5,964.7402,829.5,968.7402,819.5,972.7402,823.5,968.7402" style="stroke: #A80036; stroke-width: 1.0;"/><line style="stroke: #A80036; stroke-width: 1.0;" x1="339.5" x2="825.5" y1="968.7402" y2="968.7402"/><text fill="#000000" font-family="sans-serif" font-size="13" font-weight="bold" lengthAdjust="spacingAndGlyphs" textLength="18" x="346.5" y="964.3086">21</text><text fill="#000000" font-family="sans-serif" font-size="13" lengthAdjust="spacingAndGlyphs" textLength="49" x="368.5" y="964.3086">Execute</text><rect fill="none" height="162.5078" style="stroke: #000000; stroke-width: 2.0;" width="1127.5" x="13" y="984.0508"/><polygon fill="#EEEEEE" points="13,984.0508,75,984.0508,75,991.0508,65,1001.0508,13,1001.0508,13,984.0508" style="stroke: #000000; stroke-width: 2.0;"/><text fill="#000000" font-family="sans-serif" font-size="13" font-weight="bold" lengthAdjust="spacingAndGlyphs" textLength="17" x="28" y="997.6191">alt</text><text fill="#000000" font-family="sans-serif" font-size="11" font-weight="bold" lengthAdjust="spacingAndGlyphs" textLength="64" x="90" y="996.6855">[case error]</text><polygon fill="#A80036" points="77.5,1018.3613,67.5,1022.3613,77.5,1026.3613,73.5,1022.3613" style="stroke: #A80036; stroke-width: 1.0;"/><line style="stroke: #A80036; stroke-width: 1.0;" x1="71.5" x2="328.5" y1="1022.3613" y2="1022.3613"/><text fill="#000000" font-family="sans-serif" font-size="13" font-weight="bold" lengthAdjust="spacingAndGlyphs" textLength="18" x="83.5" y="1017.9297">22</text><text fill="#000000" font-family="sans-serif" font-size="13" lengthAdjust="spacingAndGlyphs" textLength="72" x="105.5" y="1017.9297">return error</text><line style="stroke: #000000; stroke-width: 1.0; stroke-dasharray: 2.0,2.0;" x1="13" x2="1140.5" y1="1031.6719" y2="1031.6719"/><text fill="#000000" font-family="sans-serif" font-size="11" font-weight="bold" lengthAdjust="spacingAndGlyphs" textLength="79" x="18" y="1042.3066">[case success]</text><polygon fill="#A80036" points="1100.5,1062.627,1110.5,1066.627,1100.5,1070.627,1104.5,1066.627" style="stroke: #A80036; stroke-width: 1.0;"/><line style="stroke: #A80036; stroke-width: 1.0;" x1="339.5" x2="1106.5" y1="1066.627" y2="1066.627"/><text fill="#000000" font-family="sans-serif" font-size="13" font-weight="bold" lengthAdjust="spacingAndGlyphs" textLength="18" x="346.5" y="1062.1953">23</text><text fill="#000000" font-family="sans-serif" font-size="13" lengthAdjust="spacingAndGlyphs" textLength="56" x="368.5" y="1062.1953">store job</text><line style="stroke: #A80036; stroke-width: 1.0;" x1="339.5" x2="381.5" y1="1096.248" y2="1096.248"/><line style="stroke: #A80036; stroke-width: 1.0;" x1="381.5" x2="381.5" y1="1096.248" y2="1109.248"/><line style="stroke: #A80036; stroke-width: 1.0;" x1="340.5" x2="381.5" y1="1109.248" y2="1109.248"/><polygon fill="#A80036" points="350.5,1105.248,340.5,1109.248,350.5,1113.248,346.5,1109.248" style="stroke: #A80036; stroke-width: 1.0;"/><text fill="#000000" font-family="sans-serif" font-size="13" font-weight="bold" lengthAdjust="spacingAndGlyphs" textLength="18" x="346.5" y="1091.5059">24</text><text fill="#000000" font-family="sans-serif" font-size="13" lengthAdjust="spacingAndGlyphs" textLength="223" x="368.5" y="1091.5059">update job RetrieveResultServlet url</text><polygon fill="#A80036" points="77.5,1134.248,67.5,1138.248,77.5,1142.248,73.5,1138.248" style="stroke: #A80036; stroke-width: 1.0;"/><line style="stroke: #A80036; stroke-width: 1.0;" x1="71.5" x2="328.5" y1="1138.248" y2="1138.248"/><text fill="#000000" font-family="sans-serif" font-size="13" font-weight="bold" lengthAdjust="spacingAndGlyphs" textLength="18" x="83.5" y="1133.8164">25</text><text fill="#000000" font-family="sans-serif" font-size="13" lengthAdjust="spacingAndGlyphs" textLength="112" x="105.5" y="1133.8164">return created job</text><rect fill="#EEEEEE" filter="url(#f1)" height="3" style="stroke: #EEEEEE; stroke-width: 1.0;" width="1147.5" x="3" y="1174.2139"/><line style="stroke: #000000; stroke-width: 1.0;" x1="3" x2="1150.5" y1="1174.2139" y2="1174.2139"/><line style="stroke: #000000; stroke-width: 1.0;" x1="3" x2="1150.5" y1="1177.2139" y2="1177.2139"/><rect fill="#EEEEEE" filter="url(#f1)" height="23.3105" style="stroke: #000000; stroke-width: 2.0;" width="150" x="501.75" y="1163.5586"/><text fill="#000000" font-family="sans-serif" font-size="13" font-weight="bold" lengthAdjust="spacingAndGlyphs" textLength="132" x="507.75" y="1180.127">Search WPS process</text><polygon fill="#A80036" points="317.5,1213.8691,327.5,1217.8691,317.5,1221.8691,321.5,1217.8691" style="stroke: #A80036; stroke-width: 1.0;"/><line style="stroke: #A80036; stroke-width: 1.0;" x1="66.5" x2="323.5" y1="1217.8691" y2="1217.8691"/><text fill="#000000" font-family="sans-serif" font-size="13" font-weight="bold" lengthAdjust="spacingAndGlyphs" textLength="18" x="73.5" y="1213.4375">26</text><text fill="#000000" font-family="sans-serif" font-size="13" lengthAdjust="spacingAndGlyphs" textLength="121" x="95.5" y="1213.4375">WPS search request</text><polygon fill="#A80036" points="995,1243.1797,1005,1247.1797,995,1251.1797,999,1247.1797" style="stroke: #A80036; stroke-width: 1.0;"/><line style="stroke: #A80036; stroke-width: 1.0;" x1="339.5" x2="1001" y1="1247.1797" y2="1247.1797"/><text fill="#000000" font-family="sans-serif" font-size="13" font-weight="bold" lengthAdjust="spacingAndGlyphs" textLength="18" x="346.5" y="1242.748">27</text><text fill="#000000" font-family="sans-serif" font-size="13" lengthAdjust="spacingAndGlyphs" textLength="111" x="368.5" y="1242.748">Load all Providers</text><rect fill="none" height="247.1738" style="stroke: #000000; stroke-width: 2.0;" width="660" x="269.5" y="1262.4902"/><polygon fill="#EEEEEE" points="269.5,1262.4902,343.5,1262.4902,343.5,1269.4902,333.5,1279.4902,269.5,1279.4902,269.5,1262.4902" style="stroke: #000000; stroke-width: 2.0;"/><text fill="#000000" font-family="sans-serif" font-size="13" font-weight="bold" lengthAdjust="spacingAndGlyphs" textLength="29" x="284.5" y="1276.0586">loop</text><text fill="#000000" font-family="sans-serif" font-size="11" font-weight="bold" lengthAdjust="spacingAndGlyphs" textLength="103" x="358.5" y="1275.125">[on each provider]</text><polygon fill="#A80036" points="819.5,1296.8008,829.5,1300.8008,819.5,1304.8008,823.5,1300.8008" style="stroke: #A80036; stroke-width: 1.0;"/><line style="stroke: #A80036; stroke-width: 1.0;" x1="339.5" x2="825.5" y1="1300.8008" y2="1300.8008"/><text fill="#000000" font-family="sans-serif" font-size="13" font-weight="bold" lengthAdjust="spacingAndGlyphs" textLength="18" x="346.5" y="1296.3691">28</text><text fill="#000000" font-family="sans-serif" font-size="13" lengthAdjust="spacingAndGlyphs" textLength="95" x="368.5" y="1296.3691">GetCapabilities</text><line style="stroke: #A80036; stroke-width: 1.0;" x1="339.5" x2="381.5" y1="1330.4219" y2="1330.4219"/><line style="stroke: #A80036; stroke-width: 1.0;" x1="381.5" x2="381.5" y1="1330.4219" y2="1343.4219"/><line style="stroke: #A80036; stroke-width: 1.0;" x1="340.5" x2="381.5" y1="1343.4219" y2="1343.4219"/><polygon fill="#A80036" points="350.5,1339.4219,340.5,1343.4219,350.5,1347.4219,346.5,1343.4219" style="stroke: #A80036; stroke-width: 1.0;"/><text fill="#000000" font-family="sans-serif" font-size="13" font-weight="bold" lengthAdjust="spacingAndGlyphs" textLength="18" x="346.5" y="1325.6797">29</text><text fill="#000000" font-family="sans-serif" font-size="13" lengthAdjust="spacingAndGlyphs" textLength="104" x="368.5" y="1325.6797">get services info</text><rect fill="none" height="144.2422" style="stroke: #000000; stroke-width: 2.0;" width="410" x="279.5" y="1358.4219"/><polygon fill="#EEEEEE" points="279.5,1358.4219,353.5,1358.4219,353.5,1365.4219,343.5,1375.4219,279.5,1375.4219,279.5,1358.4219" style="stroke: #000000; stroke-width: 2.0;"/><text fill="#000000" font-family="sans-serif" font-size="13" font-weight="bold" lengthAdjust="spacingAndGlyphs" textLength="29" x="294.5" y="1371.9902">loop</text><text fill="#000000" font-family="sans-serif" font-size="11" font-weight="bold" lengthAdjust="spacingAndGlyphs" textLength="95" x="368.5" y="1371.0566">[on each service]</text><line style="stroke: #A80036; stroke-width: 1.0;" x1="339.5" x2="381.5" y1="1397.043" y2="1397.043"/><line style="stroke: #A80036; stroke-width: 1.0;" x1="381.5" x2="381.5" y1="1397.043" y2="1410.043"/><line style="stroke: #A80036; stroke-width: 1.0;" x1="340.5" x2="381.5" y1="1410.043" y2="1410.043"/><polygon fill="#A80036" points="350.5,1406.043,340.5,1410.043,350.5,1414.043,346.5,1410.043" style="stroke: #A80036; stroke-width: 1.0;"/><text fill="#000000" font-family="sans-serif" font-size="13" font-weight="bold" lengthAdjust="spacingAndGlyphs" textLength="18" x="346.5" y="1392.3008">30</text><text fill="#000000" font-family="sans-serif" font-size="13" lengthAdjust="spacingAndGlyphs" textLength="309" x="368.5" y="1392.3008">create local identifier and cache remote identifier</text><line style="stroke: #A80036; stroke-width: 1.0;" x1="339.5" x2="381.5" y1="1439.3535" y2="1439.3535"/><line style="stroke: #A80036; stroke-width: 1.0;" x1="381.5" x2="381.5" y1="1439.3535" y2="1452.3535"/><line style="stroke: #A80036; stroke-width: 1.0;" x1="340.5" x2="381.5" y1="1452.3535" y2="1452.3535"/><polygon fill="#A80036" points="350.5,1448.3535,340.5,1452.3535,350.5,1456.3535,346.5,1452.3535" style="stroke: #A80036; stroke-width: 1.0;"/><text fill="#000000" font-family="sans-serif" font-size="13" font-weight="bold" lengthAdjust="spacingAndGlyphs" textLength="18" x="346.5" y="1434.6113">31</text><text fill="#000000" font-family="sans-serif" font-size="13" lengthAdjust="spacingAndGlyphs" textLength="187" x="368.5" y="1434.6113">use local server url as baseurl</text><line style="stroke: #A80036; stroke-width: 1.0;" x1="339.5" x2="381.5" y1="1481.6641" y2="1481.6641"/><line style="stroke: #A80036; stroke-width: 1.0;" x1="381.5" x2="381.5" y1="1481.6641" y2="1494.6641"/><line style="stroke: #A80036; stroke-width: 1.0;" x1="340.5" x2="381.5" y1="1494.6641" y2="1494.6641"/><polygon fill="#A80036" points="350.5,1490.6641,340.5,1494.6641,350.5,1498.6641,346.5,1494.6641" style="stroke: #A80036; stroke-width: 1.0;"/><text fill="#000000" font-family="sans-serif" font-size="13" font-weight="bold" lengthAdjust="spacingAndGlyphs" textLength="18" x="346.5" y="1476.9219">32</text><text fill="#000000" font-family="sans-serif" font-size="13" lengthAdjust="spacingAndGlyphs" textLength="202" x="368.5" y="1476.9219">add service info to the response</text><text fill="#888888" font-family="sans-serif" font-size="10" lengthAdjust="spacingAndGlyphs" textLength="230" x="461.75" y="1591.3086">WPS Service Cloud Discovery Sequence Diagram</text><text fill="#888888" font-family="sans-serif" font-size="10" lengthAdjust="spacingAndGlyphs" textLength="73" x="540.25" y="1603.0859">(c) Terradue Srl</text></g></svg>