<?xml version="1.0" encoding="UTF-8" standalone="yes"?><svg xmlns="http://www.w3.org/2000/svg" xmlns:xlink="http://www.w3.org/1999/xlink" height="139pt" style="width:195px;height:139px;" version="1.1" viewBox="0 0 195 139" width="195pt"><defs><filter height="300%" id="f1" width="300%" x="-1" y="-1"><feGaussianBlur result="blurOut" stdDeviation="2.0"/><feColorMatrix in="blurOut" result="blurOut2" type="matrix" values="0 0 0 0 0 0 0 0 0 0 0 0 0 0 0 0 0 0 .4 0"/><feOffset dx="4.0" dy="4.0" in="blurOut2" result="blurOut3"/><feBlend in="SourceGraphic" in2="blurOut3" mode="normal"/></filter></defs><g><polygon fill="#FFFFFF" filter="url(#f1)" points="22,24,107,24,114,42.6489,188,42.6489,188,132,22,132,22,24" style="stroke: #000000; stroke-width: 2.0;"/><line style="stroke: #000000; stroke-width: 2.0;" x1="22" x2="114" y1="42.6489" y2="42.6489"/><text fill="#000000" font-family="Arial" font-size="11" lengthAdjust="spacingAndGlyphs" textLength="79" x="25" y="37.3179">Terradue::Portal</text><a target="_top" xlink:href="../information/classes/class_terradue_1_1_portal_1_1_wps_process_offering.html" xlink:title="../information/classes/class_terradue_1_1_portal_1_1_wps_process_offering.html"><rect fill="#EEEBDC" filter="url(#f1)" height="59.499" style="stroke: #919871; stroke-width: 1.5;" width="134" x="38" y="56.5"/><ellipse cx="53" cy="72.5" fill="#ADD1B2" rx="11" ry="11" style="stroke: #919871; stroke-width: 1.0;"/><path d="M55.9731,78.1431 Q55.3921,78.4419 54.7529,78.5913 Q54.1138,78.7407 53.4082,78.7407 Q50.9014,78.7407 49.5815,77.0889 Q48.2617,75.437 48.2617,72.3159 Q48.2617,69.1865 49.5815,67.5347 Q50.9014,65.8828 53.4082,65.8828 Q54.1138,65.8828 54.7612,66.0322 Q55.4087,66.1816 55.9731,66.4805 L55.9731,69.2031 Q55.3423,68.6221 54.7488,68.3523 Q54.1553,68.0825 53.5244,68.0825 Q52.1797,68.0825 51.4949,69.1492 Q50.8101,70.2158 50.8101,72.3159 Q50.8101,74.4077 51.4949,75.4744 Q52.1797,76.541 53.5244,76.541 Q54.1553,76.541 54.7488,76.2712 Q55.3423,76.0015 55.9731,75.4204 Z "/><text fill="#000000" font-family="Arial" font-size="11" lengthAdjust="spacingAndGlyphs" textLength="102" x="67" y="76.4934">WpsProcessOffering</text><line style="stroke: #919871; stroke-width: 1.5;" x1="39" x2="171" y1="88.5" y2="88.5"/><ellipse cx="49" cy="99.5" fill="none" rx="3" ry="3" style="stroke: #038048; stroke-width: 1.0;"/><text fill="#000000" font-family="Arial" font-size="10" lengthAdjust="spacingAndGlyphs" textLength="104" x="58" y="102.1304">RemoteIdentifier:string</text><line style="stroke: #919871; stroke-width: 1.5;" x1="39" x2="171" y1="107.999" y2="107.999"/></a></g></svg>