<?xml version="1.0" encoding="UTF-8" standalone="yes"?><svg xmlns="http://www.w3.org/2000/svg" xmlns:xlink="http://www.w3.org/1999/xlink" height="290pt" style="width:235px;height:290px;" version="1.1" viewBox="0 0 235 290" width="235pt"><defs><filter height="300%" id="f1" width="300%" x="-1" y="-1"><feGaussianBlur result="blurOut" stdDeviation="2.0"/><feColorMatrix in="blurOut" result="blurOut2" type="matrix" values="0 0 0 0 0 0 0 0 0 0 0 0 0 0 0 0 0 0 .4 0"/><feOffset dx="4.0" dy="4.0" in="blurOut2" result="blurOut3"/><feBlend in="SourceGraphic" in2="blurOut3" mode="normal"/></filter></defs><g><polygon fill="#FFFFFF" filter="url(#f1)" points="22,24,107,24,114,43.6179,228,43.6179,228,283,22,283,22,24" style="stroke: #000000; stroke-width: 2.0;"/><line style="stroke: #000000; stroke-width: 2.0;" x1="22" x2="114" y1="43.6179" y2="43.6179"/><text fill="#000000" font-family="Arial" font-size="11" lengthAdjust="spacingAndGlyphs" textLength="79" x="25" y="37.4829">Terradue::Portal</text><a target="_top" xlink:href="../information/classes/class_terradue_1_1_portal_1_1_password_authentication_type.html" xlink:title="../information/classes/class_terradue_1_1_portal_1_1_password_authentication_type.html"><rect fill="#EEEBDC" filter="url(#f1)" height="85.14" style="stroke: #919871; stroke-width: 1.5;" width="174" x="38" y="57.5"/><ellipse cx="53" cy="73.5" fill="#ADD1B2" rx="11" ry="11" style="stroke: #919871; stroke-width: 1.0;"/><path d="M55.3438,69.1719 C54.4063,68.7344 53.8125,68.5938 52.9375,68.5938 C50.3125,68.5938 48.3125,70.6719 48.3125,73.3906 L48.3125,74.5156 C48.3125,77.0938 50.4219,78.9844 53.3125,78.9844 C54.5313,78.9844 55.6875,78.6875 56.4375,78.1406 C57.0156,77.7344 57.3438,77.2813 57.3438,76.8906 C57.3438,76.4375 56.9531,76.0469 56.4844,76.0469 C56.2656,76.0469 56.0625,76.125 55.875,76.3125 C55.4219,76.7969 55.4219,76.7969 55.2344,76.8906 C54.8125,77.1563 54.125,77.2813 53.3594,77.2813 C51.3125,77.2813 50.0156,76.1875 50.0156,74.4844 L50.0156,73.3906 C50.0156,71.6094 51.2656,70.2969 53,70.2969 C53.5781,70.2969 54.1875,70.4531 54.6563,70.7031 C55.1406,70.9844 55.3125,71.2031 55.4063,71.6094 C55.4688,72.0156 55.5,72.1406 55.6406,72.2656 C55.7813,72.4063 56.0156,72.5156 56.2344,72.5156 C56.5,72.5156 56.7656,72.375 56.9375,72.1563 C57.0469,72 57.0781,71.8125 57.0781,71.3906 L57.0781,69.9688 C57.0781,69.5313 57.0625,69.4063 56.9688,69.25 C56.8125,68.9844 56.5313,68.8438 56.2344,68.8438 C55.9375,68.8438 55.7344,68.9375 55.5156,69.25 L55.3438,69.1719 Z "/><text fill="#000000" font-family="Arial" font-size="11" lengthAdjust="spacingAndGlyphs" textLength="142" x="67" y="77.174">PasswordAuthenticationType</text><line style="stroke: #919871; stroke-width: 1.5;" x1="39" x2="211" y1="89.5" y2="89.5"/><ellipse cx="49" cy="100.69" fill="none" rx="3" ry="3" style="stroke: #038048; stroke-width: 1.0;"/><text fill="#000000" font-family="Arial" font-size="10" lengthAdjust="spacingAndGlyphs" textLength="130" x="58" y="103.03">ForceStrongPasswords:bool</text><ellipse cx="49" cy="113.07" fill="none" rx="3" ry="3" style="stroke: #038048; stroke-width: 1.0;"/><text fill="#000000" font-family="Arial" font-size="10" lengthAdjust="spacingAndGlyphs" textLength="110" x="58" y="115.41">PasswordExpireTime:int</text><ellipse cx="49" cy="125.45" fill="none" rx="3" ry="3" style="stroke: #038048; stroke-width: 1.0;"/><text fill="#000000" font-family="Arial" font-size="10" lengthAdjust="spacingAndGlyphs" textLength="92" x="58" y="127.79">MaxFailedLogins:int</text><line style="stroke: #919871; stroke-width: 1.5;" x1="39" x2="211" y1="134.64" y2="134.64"/></a><rect fill="#EEEBDC" filter="url(#f1)" height="48" style="stroke: #919871; stroke-width: 1.5;" width="125" x="63" y="219"/><ellipse cx="78" cy="235" fill="#ADD1B2" rx="11" ry="11" style="stroke: #919871; stroke-width: 1.0;"/><path d="M80.3438,230.6719 C79.4063,230.2344 78.8125,230.0938 77.9375,230.0938 C75.3125,230.0938 73.3125,232.1719 73.3125,234.8906 L73.3125,236.0156 C73.3125,238.5938 75.4219,240.4844 78.3125,240.4844 C79.5313,240.4844 80.6875,240.1875 81.4375,239.6406 C82.0156,239.2344 82.3438,238.7813 82.3438,238.3906 C82.3438,237.9375 81.9531,237.5469 81.4844,237.5469 C81.2656,237.5469 81.0625,237.625 80.875,237.8125 C80.4219,238.2969 80.4219,238.2969 80.2344,238.3906 C79.8125,238.6563 79.125,238.7813 78.3594,238.7813 C76.3125,238.7813 75.0156,237.6875 75.0156,235.9844 L75.0156,234.8906 C75.0156,233.1094 76.2656,231.7969 78,231.7969 C78.5781,231.7969 79.1875,231.9531 79.6563,232.2031 C80.1406,232.4844 80.3125,232.7031 80.4063,233.1094 C80.4688,233.5156 80.5,233.6406 80.6406,233.7656 C80.7813,233.9063 81.0156,234.0156 81.2344,234.0156 C81.5,234.0156 81.7656,233.875 81.9375,233.6563 C82.0469,233.5 82.0781,233.3125 82.0781,232.8906 L82.0781,231.4688 C82.0781,231.0313 82.0625,230.9063 81.9688,230.75 C81.8125,230.4844 81.5313,230.3438 81.2344,230.3438 C80.9375,230.3438 80.7344,230.4375 80.5156,230.75 L80.3438,230.6719 Z "/><text fill="#000000" font-family="Arial" font-size="11" lengthAdjust="spacingAndGlyphs" textLength="93" x="92" y="238.674">AuthenticationType</text><line style="stroke: #919871; stroke-width: 1.5;" x1="64" x2="187" y1="251" y2="251"/><line style="stroke: #919871; stroke-width: 1.5;" x1="64" x2="187" y1="259" y2="259"/><path d="M125,142.518 C125,160.194 125,180.715 125,198.587 " fill="none" style="stroke: #000000; stroke-width: 1.0;"/><polygon fill="none" points="132,198.703,125,218.7028,118,198.703,132,198.703" style="stroke: #000000; stroke-width: 1.0;"/><text fill="#000000" font-family="Arial" font-size="11" lengthAdjust="spacingAndGlyphs" textLength="55" x="126" y="184.4829">implements</text></g></svg>