<?xml version="1.0" encoding="UTF-8" standalone="yes"?><svg xmlns="http://www.w3.org/2000/svg" xmlns:xlink="http://www.w3.org/1999/xlink" height="166pt" style="width:181px;height:166px;" version="1.1" viewBox="0 0 181 166" width="181pt"><defs><filter height="300%" id="f1" width="300%" x="-1" y="-1"><feGaussianBlur result="blurOut" stdDeviation="2.0"/><feColorMatrix in="blurOut" result="blurOut2" type="matrix" values="0 0 0 0 0 0 0 0 0 0 0 0 0 0 0 0 0 0 .4 0"/><feOffset dx="4.0" dy="4.0" in="blurOut2" result="blurOut3"/><feBlend in="SourceGraphic" in2="blurOut3" mode="normal"/></filter></defs><g><polygon fill="#FFFFFF" filter="url(#f1)" points="22,24,107,24,114,43.6179,174,43.6179,174,159,22,159,22,24" style="stroke: #000000; stroke-width: 2.0;"/><line style="stroke: #000000; stroke-width: 2.0;" x1="22" x2="114" y1="43.6179" y2="43.6179"/><text fill="#000000" font-family="Arial" font-size="11" lengthAdjust="spacingAndGlyphs" textLength="79" x="25" y="37.4829">Terradue::Portal</text><a target="_top" xlink:href="../information/classes/class_terradue_1_1_portal_1_1_group.html" xlink:title="../information/classes/class_terradue_1_1_portal_1_1_group.html"><rect fill="#EEEBDC" filter="url(#f1)" height="85.14" style="stroke: #919871; stroke-width: 1.5;" width="121" x="38" y="57.5"/><ellipse cx="79.1" cy="73.5" fill="#ADD1B2" rx="11" ry="11" style="stroke: #919871; stroke-width: 1.0;"/><path d="M81.4438,69.1719 C80.5063,68.7344 79.9125,68.5938 79.0375,68.5938 C76.4125,68.5938 74.4125,70.6719 74.4125,73.3906 L74.4125,74.5156 C74.4125,77.0938 76.5219,78.9844 79.4125,78.9844 C80.6313,78.9844 81.7875,78.6875 82.5375,78.1406 C83.1156,77.7344 83.4438,77.2813 83.4438,76.8906 C83.4438,76.4375 83.0531,76.0469 82.5844,76.0469 C82.3656,76.0469 82.1625,76.125 81.975,76.3125 C81.5219,76.7969 81.5219,76.7969 81.3344,76.8906 C80.9125,77.1563 80.225,77.2813 79.4594,77.2813 C77.4125,77.2813 76.1156,76.1875 76.1156,74.4844 L76.1156,73.3906 C76.1156,71.6094 77.3656,70.2969 79.1,70.2969 C79.6781,70.2969 80.2875,70.4531 80.7563,70.7031 C81.2406,70.9844 81.4125,71.2031 81.5063,71.6094 C81.5688,72.0156 81.6,72.1406 81.7406,72.2656 C81.8813,72.4063 82.1156,72.5156 82.3344,72.5156 C82.6,72.5156 82.8656,72.375 83.0375,72.1563 C83.1469,72 83.1781,71.8125 83.1781,71.3906 L83.1781,69.9688 C83.1781,69.5313 83.1625,69.4063 83.0688,69.25 C82.9125,68.9844 82.6313,68.8438 82.3344,68.8438 C82.0375,68.8438 81.8344,68.9375 81.6156,69.25 L81.4438,69.1719 Z "/><text fill="#000000" font-family="Arial" font-size="11" lengthAdjust="spacingAndGlyphs" textLength="31" x="98.9" y="77.174">Group</text><line style="stroke: #919871; stroke-width: 1.5;" x1="39" x2="158" y1="89.5" y2="89.5"/><ellipse cx="49" cy="100.69" fill="none" rx="3" ry="3" style="stroke: #038048; stroke-width: 1.0;"/><text fill="#000000" font-family="Arial" font-size="10" lengthAdjust="spacingAndGlyphs" textLength="95" x="58" y="103.03">Name:override string</text><ellipse cx="49" cy="113.07" fill="none" rx="3" ry="3" style="stroke: #038048; stroke-width: 1.0;"/><text fill="#000000" font-family="Arial" font-size="10" lengthAdjust="spacingAndGlyphs" textLength="79" x="58" y="115.41">Description:string</text><ellipse cx="49" cy="125.45" fill="none" rx="3" ry="3" style="stroke: #038048; stroke-width: 1.0;"/><text fill="#000000" font-family="Arial" font-size="10" lengthAdjust="spacingAndGlyphs" textLength="45" x="58" y="127.79">Priority:int</text><line style="stroke: #919871; stroke-width: 1.5;" x1="39" x2="158" y1="134.64" y2="134.64"/></a></g></svg>