<?xml version="1.0" encoding="UTF-8" standalone="yes"?><svg xmlns="http://www.w3.org/2000/svg" xmlns:xlink="http://www.w3.org/1999/xlink" height="166pt" style="width:273px;height:166px;" version="1.1" viewBox="0 0 273 166" width="273pt"><defs><filter height="300%" id="f1" width="300%" x="-1" y="-1"><feGaussianBlur result="blurOut" stdDeviation="2.0"/><feColorMatrix in="blurOut" result="blurOut2" type="matrix" values="0 0 0 0 0 0 0 0 0 0 0 0 0 0 0 0 0 0 .4 0"/><feOffset dx="4.0" dy="4.0" in="blurOut2" result="blurOut3"/><feBlend in="SourceGraphic" in2="blurOut3" mode="normal"/></filter></defs><g><polygon fill="#FFFFFF" filter="url(#f1)" points="22,24,107,24,114,43.6179,266,43.6179,266,159,22,159,22,24" style="stroke: #000000; stroke-width: 2.0;"/><line style="stroke: #000000; stroke-width: 2.0;" x1="22" x2="114" y1="43.6179" y2="43.6179"/><text fill="#000000" font-family="Arial" font-size="11" lengthAdjust="spacingAndGlyphs" textLength="79" x="25" y="37.4829">Terradue::Portal</text><a target="_top" xlink:href="../information/classes/class_terradue_1_1_portal_1_1_remote_resource_set.html" xlink:title="../information/classes/class_terradue_1_1_portal_1_1_remote_resource_set.html"><rect fill="#EEEBDC" filter="url(#f1)" height="85.14" style="stroke: #919871; stroke-width: 1.5;" width="213" x="38" y="57.5"/><ellipse cx="89.25" cy="73.5" fill="#ADD1B2" rx="11" ry="11" style="stroke: #919871; stroke-width: 1.0;"/><path d="M91.5938,69.1719 C90.6563,68.7344 90.0625,68.5938 89.1875,68.5938 C86.5625,68.5938 84.5625,70.6719 84.5625,73.3906 L84.5625,74.5156 C84.5625,77.0938 86.6719,78.9844 89.5625,78.9844 C90.7813,78.9844 91.9375,78.6875 92.6875,78.1406 C93.2656,77.7344 93.5938,77.2813 93.5938,76.8906 C93.5938,76.4375 93.2031,76.0469 92.7344,76.0469 C92.5156,76.0469 92.3125,76.125 92.125,76.3125 C91.6719,76.7969 91.6719,76.7969 91.4844,76.8906 C91.0625,77.1563 90.375,77.2813 89.6094,77.2813 C87.5625,77.2813 86.2656,76.1875 86.2656,74.4844 L86.2656,73.3906 C86.2656,71.6094 87.5156,70.2969 89.25,70.2969 C89.8281,70.2969 90.4375,70.4531 90.9063,70.7031 C91.3906,70.9844 91.5625,71.2031 91.6563,71.6094 C91.7188,72.0156 91.75,72.1406 91.8906,72.2656 C92.0313,72.4063 92.2656,72.5156 92.4844,72.5156 C92.75,72.5156 93.0156,72.375 93.1875,72.1563 C93.2969,72 93.3281,71.8125 93.3281,71.3906 L93.3281,69.9688 C93.3281,69.5313 93.3125,69.4063 93.2188,69.25 C93.0625,68.9844 92.7813,68.8438 92.4844,68.8438 C92.1875,68.8438 91.9844,68.9375 91.7656,69.25 L91.5938,69.1719 Z "/><text fill="#000000" font-family="Arial" font-size="11" lengthAdjust="spacingAndGlyphs" textLength="102" x="109.75" y="77.174">RemoteResourceSet</text><line style="stroke: #919871; stroke-width: 1.5;" x1="39" x2="250" y1="89.5" y2="89.5"/><ellipse cx="49" cy="100.69" fill="none" rx="3" ry="3" style="stroke: #038048; stroke-width: 1.0;"/><text fill="#000000" font-family="Arial" font-size="10" lengthAdjust="spacingAndGlyphs" textLength="79" x="58" y="103.03">AccessKey:string</text><ellipse cx="49" cy="113.07" fill="none" rx="3" ry="3" style="stroke: #038048; stroke-width: 1.0;"/><text fill="#000000" font-family="Arial" font-size="10" lengthAdjust="spacingAndGlyphs" textLength="100" x="58" y="115.41">Resources:EntityList&lt;</text><ellipse cx="49" cy="125.45" fill="none" rx="3" ry="3" style="stroke: #038048; stroke-width: 1.0;"/><text fill="#000000" font-family="Arial" font-size="10" lengthAdjust="spacingAndGlyphs" textLength="187" x="58" y="127.79">OpenSearchEngine:OpenSearchEngine</text><line style="stroke: #919871; stroke-width: 1.5;" x1="39" x2="250" y1="134.64" y2="134.64"/></a></g></svg>