<?xml version="1.0" encoding="UTF-8" standalone="yes"?><svg xmlns="http://www.w3.org/2000/svg" xmlns:xlink="http://www.w3.org/1999/xlink" height="231pt" style="width:430px;height:231px;" version="1.1" viewBox="0 0 430 231" width="430pt"><defs><filter height="300%" id="f1" width="300%" x="-1" y="-1"><feGaussianBlur result="blurOut" stdDeviation="2.0"/><feColorMatrix in="blurOut" result="blurOut2" type="matrix" values="0 0 0 0 0 0 0 0 0 0 0 0 0 0 0 0 0 0 .4 0"/><feOffset dx="4.0" dy="4.0" in="blurOut2" result="blurOut3"/><feBlend in="SourceGraphic" in2="blurOut3" mode="normal"/></filter></defs><g><polygon fill="#FFFFFF" filter="url(#f1)" points="22,24,55,24,62,46.4883,423,46.4883,423,224,22,224,22,24" style="stroke: #000000; stroke-width: 2.0;"/><line style="stroke: #000000; stroke-width: 2.0;" x1="22" x2="62" y1="46.4883" y2="46.4883"/><text fill="#000000" font-family="sans-serif" font-size="14" font-weight="bold" lengthAdjust="spacingAndGlyphs" textLength="27" x="26" y="39.5352">Tep</text><rect fill="#EEEBDC" filter="url(#f1)" height="42.6489" style="stroke: #919871; stroke-width: 1.5;" width="155" x="38.75" y="60.5"/><rect fill="#EEEBDC" height="10" style="stroke: #919871; stroke-width: 1.5;" width="15" x="173.75" y="65.5"/><rect fill="#EEEBDC" height="2" style="stroke: #919871; stroke-width: 1.5;" width="4" x="171.75" y="67.5"/><rect fill="#EEEBDC" height="2" style="stroke: #919871; stroke-width: 1.5;" width="4" x="171.75" y="71.5"/><text fill="#000000" font-family="Arial" font-size="11" lengthAdjust="spacingAndGlyphs" textLength="115" x="53.75" y="90.8179">group___data_package</text><rect fill="#EEEBDC" filter="url(#f1)" height="42.6489" style="stroke: #919871; stroke-width: 1.5;" width="178" x="229" y="60.5"/><rect fill="#EEEBDC" height="10" style="stroke: #919871; stroke-width: 1.5;" width="15" x="387" y="65.5"/><rect fill="#EEEBDC" height="2" style="stroke: #919871; stroke-width: 1.5;" width="4" x="385" y="67.5"/><rect fill="#EEEBDC" height="2" style="stroke: #919871; stroke-width: 1.5;" width="4" x="385" y="71.5"/><text fill="#000000" font-family="Arial" font-size="11" lengthAdjust="spacingAndGlyphs" textLength="138" x="244" y="90.8179">group___cloud_wps_factory</text><rect fill="#EEEBDC" filter="url(#f1)" height="42.6489" style="stroke: #919871; stroke-width: 1.5;" width="129" x="51.75" y="164.5"/><rect fill="#EEEBDC" height="10" style="stroke: #919871; stroke-width: 1.5;" width="15" x="160.75" y="169.5"/><rect fill="#EEEBDC" height="2" style="stroke: #919871; stroke-width: 1.5;" width="4" x="158.75" y="171.5"/><rect fill="#EEEBDC" height="2" style="stroke: #919871; stroke-width: 1.5;" width="4" x="158.75" y="175.5"/><text fill="#000000" font-family="Arial" font-size="11" lengthAdjust="spacingAndGlyphs" textLength="89" x="66.75" y="194.8179">group___tep_user</text></g></svg>