<?xml version="1.0" encoding="UTF-8" standalone="yes"?><svg xmlns="http://www.w3.org/2000/svg" xmlns:xlink="http://www.w3.org/1999/xlink" height="600pt" style="width:885px;height:600px;" version="1.1" viewBox="0 0 885 600" width="885pt"><defs><filter height="300%" id="f1" width="300%" x="-1" y="-1"><feGaussianBlur result="blurOut" stdDeviation="2.0"/><feColorMatrix in="blurOut" result="blurOut2" type="matrix" values="0 0 0 0 0 0 0 0 0 0 0 0 0 0 0 0 0 0 .4 0"/><feOffset dx="4.0" dy="4.0" in="blurOut2" result="blurOut3"/><feBlend in="SourceGraphic" in2="blurOut3" mode="normal"/></filter></defs><g><ellipse cx="707.25" cy="20" fill="#000000" filter="url(#f1)" rx="10" ry="10" style="stroke: none; stroke-width: 1.0;"/><polygon fill="#FEFECE" filter="url(#f1)" points="662.75,50,751.75,50,763.75,62,751.75,74,662.75,74,650.75,62,662.75,50" style="stroke: #A80036; stroke-width: 1.5;"/><text fill="#000000" font-family="sans-serif" font-size="11" lengthAdjust="spacingAndGlyphs" textLength="89" x="662.75" y="66.1572">secured service?</text><text fill="#000000" font-family="sans-serif" font-size="11" lengthAdjust="spacingAndGlyphs" textLength="18" x="632.75" y="59.6797">yes</text><polygon fill="#FEFECE" filter="url(#f1)" points="490,94,579,94,591,106,579,118,490,118,478,106,490,94" style="stroke: #A80036; stroke-width: 1.5;"/><text fill="#000000" font-family="sans-serif" font-size="11" lengthAdjust="spacingAndGlyphs" textLength="89" x="490" y="110.1572">UM-SSO logged?</text><text fill="#000000" font-family="sans-serif" font-size="11" lengthAdjust="spacingAndGlyphs" textLength="18" x="460" y="103.6797">yes</text><text fill="#000000" font-family="sans-serif" font-size="11" lengthAdjust="spacingAndGlyphs" textLength="14" x="591" y="103.6797">no</text><polygon fill="#FEFECE" filter="url(#f1)" points="305.5,138,364.5,138,376.5,150,364.5,162,305.5,162,293.5,150,305.5,138" style="stroke: #A80036; stroke-width: 1.5;"/><text fill="#000000" font-family="sans-serif" font-size="11" lengthAdjust="spacingAndGlyphs" textLength="59" x="305.5" y="154.1572">user in DB?</text><text fill="#000000" font-family="sans-serif" font-size="11" lengthAdjust="spacingAndGlyphs" textLength="18" x="275.5" y="147.6797">yes</text><text fill="#000000" font-family="sans-serif" font-size="11" lengthAdjust="spacingAndGlyphs" textLength="14" x="376.5" y="147.6797">no</text><polygon fill="#FEFECE" filter="url(#f1)" points="131,183.6,262,183.6,274,195.6,262,207.6,131,207.6,119,195.6,131,183.6" style="stroke: #A80036; stroke-width: 1.5;"/><text fill="#000000" font-family="sans-serif" font-size="11" lengthAdjust="spacingAndGlyphs" textLength="131" x="131" y="199.7572">user pending activation?</text><text fill="#000000" font-family="sans-serif" font-size="11" lengthAdjust="spacingAndGlyphs" textLength="18" x="101" y="193.2797">yes</text><rect fill="#FEFECE" filter="url(#f1)" height="34.1328" rx="12.5" ry="12.5" style="stroke: #A80036; stroke-width: 1.5;" width="188" x="10" y="229.2"/><text fill="#000000" font-family="sans-serif" font-size="12" lengthAdjust="spacingAndGlyphs" textLength="168" x="20" y="250.8016">reinvite user to confirm email</text><ellipse cx="104" cy="308.3328" fill="none" filter="url(#f1)" rx="10" ry="10" style="stroke: #000000; stroke-width: 1.0;"/><ellipse cx="104.5" cy="308.8328" fill="#000000" filter="url(#f1)" rx="6" ry="6" style="stroke: none; stroke-width: 1.0;"/><rect fill="#FEFECE" filter="url(#f1)" height="34.1328" rx="12.5" ry="12.5" style="stroke: #A80036; stroke-width: 1.5;" width="167" x="390" y="183.6"/><text fill="#000000" font-family="sans-serif" font-size="12" lengthAdjust="spacingAndGlyphs" textLength="147" x="400" y="205.2016">create user account in db</text><rect fill="#FEFECE" filter="url(#f1)" height="34.1328" rx="12.5" ry="12.5" style="stroke: #A80036; stroke-width: 1.5;" width="259" x="344" y="252.7328"/><text fill="#000000" font-family="sans-serif" font-size="12" lengthAdjust="spacingAndGlyphs" textLength="118" x="354" y="274.3344">set account status to</text><text fill="#000000" font-family="sans-serif" font-size="12" font-weight="bold" lengthAdjust="spacingAndGlyphs" textLength="117" x="476" y="274.3344">Pending Activation</text><rect fill="#FEFECE" filter="url(#f1)" height="34.1328" rx="12.5" ry="12.5" style="stroke: #A80036; stroke-width: 1.5;" width="202" x="372.5" y="321.8656"/><text fill="#000000" font-family="sans-serif" font-size="12" lengthAdjust="spacingAndGlyphs" textLength="182" x="382.5" y="343.4672">send confirmation email to user</text><rect fill="#FEFECE" filter="url(#f1)" height="34.1328" rx="12.5" ry="12.5" style="stroke: #A80036; stroke-width: 1.5;" width="176" x="385.5" y="375.9984"/><text fill="#000000" font-family="sans-serif" font-size="12" lengthAdjust="spacingAndGlyphs" textLength="156" x="395.5" y="397.6">invite user to confirm email</text><ellipse cx="473.5" cy="440.1312" fill="none" filter="url(#f1)" rx="10" ry="10" style="stroke: #000000; stroke-width: 1.0;"/><ellipse cx="474" cy="440.6312" fill="#000000" filter="url(#f1)" rx="6" ry="6" style="stroke: none; stroke-width: 1.0;"/><rect fill="#FEFECE" filter="url(#f1)" height="34.1328" rx="12.5" ry="12.5" style="stroke: #A80036; stroke-width: 1.5;" width="182" x="643" y="138"/><text fill="#000000" font-family="sans-serif" font-size="12" lengthAdjust="spacingAndGlyphs" textLength="162" x="653" y="159.6016">redirect user to UM-SSO IDP</text><ellipse cx="734" cy="217.1328" fill="none" filter="url(#f1)" rx="10" ry="10" style="stroke: #000000; stroke-width: 1.0;"/><ellipse cx="734.5" cy="217.6328" fill="#000000" filter="url(#f1)" rx="6" ry="6" style="stroke: none; stroke-width: 1.0;"/><polygon fill="#FEFECE" filter="url(#f1)" points="707.25,460.1312,719.25,472.1312,707.25,484.1312,695.25,472.1312,707.25,460.1312" style="stroke: #A80036; stroke-width: 1.5;"/><rect fill="#FEFECE" filter="url(#f1)" height="34.1328" rx="12.5" ry="12.5" style="stroke: #A80036; stroke-width: 1.5;" width="109" x="652.75" y="504.1312"/><text fill="#000000" font-family="sans-serif" font-size="12" lengthAdjust="spacingAndGlyphs" textLength="89" x="662.75" y="525.7328">process service</text><ellipse cx="707.25" cy="568.2641" fill="none" filter="url(#f1)" rx="10" ry="10" style="stroke: #000000; stroke-width: 1.0;"/><ellipse cx="707.75" cy="568.7641" fill="#000000" filter="url(#f1)" rx="6" ry="6" style="stroke: none; stroke-width: 1.0;"/><line style="stroke: #A80036; stroke-width: 1.5;" x1="104" x2="104" y1="263.3328" y2="298.3328"/><polygon fill="#A80036" points="100,288.3328,104,298.3328,108,288.3328,104,292.3328" style="stroke: #A80036; stroke-width: 1.0;"/><line style="stroke: #A80036; stroke-width: 1.5;" x1="104" x2="119" y1="195.6" y2="195.6"/><line style="stroke: #A80036; stroke-width: 1.5;" x1="104" x2="104" y1="195.6" y2="229.2"/><polygon fill="#A80036" points="100,219.2,104,229.2,108,219.2,104,223.2" style="stroke: #A80036; stroke-width: 1.0;"/><line style="stroke: #A80036; stroke-width: 1.5;" x1="274" x2="289" y1="195.6" y2="195.6"/><polygon fill="#A80036" points="285,391.4656,289,401.4656,293,391.4656,289,395.4656" style="stroke: #A80036; stroke-width: 1.5;"/><line style="stroke: #A80036; stroke-width: 1.5;" x1="289" x2="289" y1="195.6" y2="472.1313"/><line style="stroke: #A80036; stroke-width: 1.5;" x1="289" x2="695.25" y1="472.1312" y2="472.1312"/><polygon fill="#A80036" points="685.25,468.1312,695.25,472.1312,685.25,476.1312,689.25,472.1312" style="stroke: #A80036; stroke-width: 1.0;"/><line style="stroke: #A80036; stroke-width: 1.5;" x1="473.5" x2="473.5" y1="217.7328" y2="252.7328"/><polygon fill="#A80036" points="469.5,242.7328,473.5,252.7328,477.5,242.7328,473.5,246.7328" style="stroke: #A80036; stroke-width: 1.0;"/><line style="stroke: #A80036; stroke-width: 1.5;" x1="473.5" x2="473.5" y1="286.8656" y2="321.8656"/><polygon fill="#A80036" points="469.5,311.8656,473.5,321.8656,477.5,311.8656,473.5,315.8656" style="stroke: #A80036; stroke-width: 1.0;"/><line style="stroke: #A80036; stroke-width: 1.5;" x1="473.5" x2="473.5" y1="355.9984" y2="375.9984"/><polygon fill="#A80036" points="469.5,365.9984,473.5,375.9984,477.5,365.9984,473.5,369.9984" style="stroke: #A80036; stroke-width: 1.0;"/><line style="stroke: #A80036; stroke-width: 1.5;" x1="473.5" x2="473.5" y1="410.1312" y2="430.1312"/><polygon fill="#A80036" points="469.5,420.1312,473.5,430.1312,477.5,420.1312,473.5,424.1312" style="stroke: #A80036; stroke-width: 1.0;"/><line style="stroke: #A80036; stroke-width: 1.5;" x1="196.5" x2="293.5" y1="150" y2="150"/><line style="stroke: #A80036; stroke-width: 1.5;" x1="196.5" x2="196.5" y1="150" y2="183.6"/><polygon fill="#A80036" points="192.5,173.6,196.5,183.6,200.5,173.6,196.5,177.6" style="stroke: #A80036; stroke-width: 1.0;"/><line style="stroke: #A80036; stroke-width: 1.5;" x1="376.5" x2="473.5" y1="150" y2="150"/><line style="stroke: #A80036; stroke-width: 1.5;" x1="473.5" x2="473.5" y1="150" y2="183.6"/><polygon fill="#A80036" points="469.5,173.6,473.5,183.6,477.5,173.6,473.5,177.6" style="stroke: #A80036; stroke-width: 1.0;"/><line style="stroke: #A80036; stroke-width: 1.5;" x1="734" x2="734" y1="172.1328" y2="207.1328"/><polygon fill="#A80036" points="730,197.1328,734,207.1328,738,197.1328,734,201.1328" style="stroke: #A80036; stroke-width: 1.0;"/><line style="stroke: #A80036; stroke-width: 1.5;" x1="335" x2="478" y1="106" y2="106"/><line style="stroke: #A80036; stroke-width: 1.5;" x1="335" x2="335" y1="106" y2="138"/><polygon fill="#A80036" points="331,128,335,138,339,128,335,132" style="stroke: #A80036; stroke-width: 1.0;"/><line style="stroke: #A80036; stroke-width: 1.5;" x1="591" x2="734" y1="106" y2="106"/><line style="stroke: #A80036; stroke-width: 1.5;" x1="734" x2="734" y1="106" y2="138"/><polygon fill="#A80036" points="730,128,734,138,738,128,734,132" style="stroke: #A80036; stroke-width: 1.0;"/><line style="stroke: #A80036; stroke-width: 1.5;" x1="534.5" x2="650.75" y1="62" y2="62"/><line style="stroke: #A80036; stroke-width: 1.5;" x1="534.5" x2="534.5" y1="62" y2="94"/><polygon fill="#A80036" points="530.5,84,534.5,94,538.5,84,534.5,88" style="stroke: #A80036; stroke-width: 1.0;"/><line style="stroke: #A80036; stroke-width: 1.5;" x1="763.75" x2="880" y1="62" y2="62"/><polygon fill="#A80036" points="876,338.0656,880,348.0656,884,338.0656,880,342.0656" style="stroke: #A80036; stroke-width: 1.5;"/><line style="stroke: #A80036; stroke-width: 1.5;" x1="880" x2="880" y1="62" y2="472.1312"/><line style="stroke: #A80036; stroke-width: 1.5;" x1="719.25" x2="880" y1="472.1312" y2="472.1312"/><polygon fill="#A80036" points="729.25,468.1312,719.25,472.1312,729.25,476.1312,725.25,472.1312" style="stroke: #A80036; stroke-width: 1.0;"/><line style="stroke: #A80036; stroke-width: 1.5;" x1="707.25" x2="707.25" y1="30" y2="50"/><polygon fill="#A80036" points="703.25,40,707.25,50,711.25,40,707.25,44" style="stroke: #A80036; stroke-width: 1.0;"/><line style="stroke: #A80036; stroke-width: 1.5;" x1="707.25" x2="707.25" y1="484.1312" y2="504.1312"/><polygon fill="#A80036" points="703.25,494.1312,707.25,504.1312,711.25,494.1312,707.25,498.1312" style="stroke: #A80036; stroke-width: 1.0;"/><line style="stroke: #A80036; stroke-width: 1.5;" x1="707.25" x2="707.25" y1="538.2641" y2="558.2641"/><polygon fill="#A80036" points="703.25,548.2641,707.25,558.2641,711.25,548.2641,707.25,552.2641" style="stroke: #A80036; stroke-width: 1.0;"/><text fill="#888888" font-family="sans-serif" font-size="10" lengthAdjust="spacingAndGlyphs" textLength="226" x="334" y="587.932">GeoHazards TEP User account activity diagram</text><text fill="#888888" font-family="sans-serif" font-size="10" lengthAdjust="spacingAndGlyphs" textLength="73" x="410.5" y="599.7094">(c) Terradue Srl</text></g></svg>