<?xml version="1.0" encoding="UTF-8" standalone="yes"?><svg xmlns="http://www.w3.org/2000/svg" xmlns:xlink="http://www.w3.org/1999/xlink" height="290pt" style="width:181px;height:290px;" version="1.1" viewBox="0 0 181 290" width="181pt"><defs><filter height="300%" id="f1" width="300%" x="-1" y="-1"><feGaussianBlur result="blurOut" stdDeviation="2.0"/><feColorMatrix in="blurOut" result="blurOut2" type="matrix" values="0 0 0 0 0 0 0 0 0 0 0 0 0 0 0 0 0 0 .4 0"/><feOffset dx="4.0" dy="4.0" in="blurOut2" result="blurOut3"/><feBlend in="SourceGraphic" in2="blurOut3" mode="normal"/></filter></defs><g><polygon fill="#FFFFFF" filter="url(#f1)" points="22,24,107,24,114,43.6179,174,43.6179,174,283,22,283,22,24" style="stroke: #000000; stroke-width: 2.0;"/><line style="stroke: #000000; stroke-width: 2.0;" x1="22" x2="114" y1="43.6179" y2="43.6179"/><text fill="#000000" font-family="Arial" font-size="11" lengthAdjust="spacingAndGlyphs" textLength="79" x="25" y="37.4829">Terradue::Portal</text><a target="_top" xlink:href="../information/classes/class_terradue_1_1_portal_1_1_group.html" xlink:title="../information/classes/class_terradue_1_1_portal_1_1_group.html"><rect fill="#EEEBDC" filter="url(#f1)" height="85.14" style="stroke: #919871; stroke-width: 1.5;" width="121" x="38" y="57.5"/><ellipse cx="79.1" cy="73.5" fill="#ADD1B2" rx="11" ry="11" style="stroke: #919871; stroke-width: 1.0;"/><path d="M81.4438,69.1719 C80.5063,68.7344 79.9125,68.5938 79.0375,68.5938 C76.4125,68.5938 74.4125,70.6719 74.4125,73.3906 L74.4125,74.5156 C74.4125,77.0938 76.5219,78.9844 79.4125,78.9844 C80.6313,78.9844 81.7875,78.6875 82.5375,78.1406 C83.1156,77.7344 83.4438,77.2813 83.4438,76.8906 C83.4438,76.4375 83.0531,76.0469 82.5844,76.0469 C82.3656,76.0469 82.1625,76.125 81.975,76.3125 C81.5219,76.7969 81.5219,76.7969 81.3344,76.8906 C80.9125,77.1563 80.225,77.2813 79.4594,77.2813 C77.4125,77.2813 76.1156,76.1875 76.1156,74.4844 L76.1156,73.3906 C76.1156,71.6094 77.3656,70.2969 79.1,70.2969 C79.6781,70.2969 80.2875,70.4531 80.7563,70.7031 C81.2406,70.9844 81.4125,71.2031 81.5063,71.6094 C81.5688,72.0156 81.6,72.1406 81.7406,72.2656 C81.8813,72.4063 82.1156,72.5156 82.3344,72.5156 C82.6,72.5156 82.8656,72.375 83.0375,72.1563 C83.1469,72 83.1781,71.8125 83.1781,71.3906 L83.1781,69.9688 C83.1781,69.5313 83.1625,69.4063 83.0688,69.25 C82.9125,68.9844 82.6313,68.8438 82.3344,68.8438 C82.0375,68.8438 81.8344,68.9375 81.6156,69.25 L81.4438,69.1719 Z "/><text fill="#000000" font-family="Arial" font-size="11" lengthAdjust="spacingAndGlyphs" textLength="31" x="98.9" y="77.174">Group</text><line style="stroke: #919871; stroke-width: 1.5;" x1="39" x2="158" y1="89.5" y2="89.5"/><ellipse cx="49" cy="100.69" fill="none" rx="3" ry="3" style="stroke: #038048; stroke-width: 1.0;"/><text fill="#000000" font-family="Arial" font-size="10" lengthAdjust="spacingAndGlyphs" textLength="95" x="58" y="103.03">Name:override string</text><ellipse cx="49" cy="113.07" fill="none" rx="3" ry="3" style="stroke: #038048; stroke-width: 1.0;"/><text fill="#000000" font-family="Arial" font-size="10" lengthAdjust="spacingAndGlyphs" textLength="79" x="58" y="115.41">Description:string</text><ellipse cx="49" cy="125.45" fill="none" rx="3" ry="3" style="stroke: #038048; stroke-width: 1.0;"/><text fill="#000000" font-family="Arial" font-size="10" lengthAdjust="spacingAndGlyphs" textLength="45" x="58" y="127.79">Priority:int</text><line style="stroke: #919871; stroke-width: 1.5;" x1="39" x2="158" y1="134.64" y2="134.64"/></a><rect fill="#EEEBDC" filter="url(#f1)" height="48" style="stroke: #919871; stroke-width: 1.5;" width="59" x="69" y="219"/><ellipse cx="84" cy="235" fill="#ADD1B2" rx="11" ry="11" style="stroke: #919871; stroke-width: 1.0;"/><path d="M86.3438,230.6719 C85.4063,230.2344 84.8125,230.0938 83.9375,230.0938 C81.3125,230.0938 79.3125,232.1719 79.3125,234.8906 L79.3125,236.0156 C79.3125,238.5938 81.4219,240.4844 84.3125,240.4844 C85.5313,240.4844 86.6875,240.1875 87.4375,239.6406 C88.0156,239.2344 88.3438,238.7813 88.3438,238.3906 C88.3438,237.9375 87.9531,237.5469 87.4844,237.5469 C87.2656,237.5469 87.0625,237.625 86.875,237.8125 C86.4219,238.2969 86.4219,238.2969 86.2344,238.3906 C85.8125,238.6563 85.125,238.7813 84.3594,238.7813 C82.3125,238.7813 81.0156,237.6875 81.0156,235.9844 L81.0156,234.8906 C81.0156,233.1094 82.2656,231.7969 84,231.7969 C84.5781,231.7969 85.1875,231.9531 85.6563,232.2031 C86.1406,232.4844 86.3125,232.7031 86.4063,233.1094 C86.4688,233.5156 86.5,233.6406 86.6406,233.7656 C86.7813,233.9063 87.0156,234.0156 87.2344,234.0156 C87.5,234.0156 87.7656,233.875 87.9375,233.6563 C88.0469,233.5 88.0781,233.3125 88.0781,232.8906 L88.0781,231.4688 C88.0781,231.0313 88.0625,230.9063 87.9688,230.75 C87.8125,230.4844 87.5313,230.3438 87.2344,230.3438 C86.9375,230.3438 86.7344,230.4375 86.5156,230.75 L86.3438,230.6719 Z "/><text fill="#000000" font-family="Arial" font-size="11" lengthAdjust="spacingAndGlyphs" textLength="27" x="98" y="238.674">Entity</text><line style="stroke: #919871; stroke-width: 1.5;" x1="70" x2="127" y1="251" y2="251"/><line style="stroke: #919871; stroke-width: 1.5;" x1="70" x2="127" y1="259" y2="259"/><path d="M98,142.518 C98,160.194 98,180.715 98,198.587 " fill="none" style="stroke: #000000; stroke-width: 1.0;"/><polygon fill="none" points="105.0001,198.703,98,218.7028,91.0001,198.703,105.0001,198.703" style="stroke: #000000; stroke-width: 1.0;"/><text fill="#000000" font-family="Arial" font-size="11" lengthAdjust="spacingAndGlyphs" textLength="55" x="99" y="184.4829">implements</text></g></svg>