<?xml version="1.0" encoding="UTF-8" standalone="yes"?><svg xmlns="http://www.w3.org/2000/svg" xmlns:xlink="http://www.w3.org/1999/xlink" height="117pt" style="width:334px;height:117px;" version="1.1" viewBox="0 0 334 117" width="334pt"><defs><filter height="300%" id="f1" width="300%" x="-1" y="-1"><feGaussianBlur result="blurOut" stdDeviation="2.0"/><feColorMatrix in="blurOut" result="blurOut2" type="matrix" values="0 0 0 0 0 0 0 0 0 0 0 0 0 0 0 0 0 0 .4 0"/><feOffset dx="4.0" dy="4.0" in="blurOut2" result="blurOut3"/><feBlend in="SourceGraphic" in2="blurOut3" mode="normal"/></filter></defs><g><polygon fill="#FFFFFF" filter="url(#f1)" points="22,24,72,24,79,46.4883,327,46.4883,327,110,22,110,22,24" style="stroke: #000000; stroke-width: 2.0;"/><line style="stroke: #000000; stroke-width: 2.0;" x1="22" x2="79" y1="46.4883" y2="46.4883"/><text fill="#000000" font-family="sans-serif" font-size="14" font-weight="bold" lengthAdjust="spacingAndGlyphs" textLength="44" x="26" y="39.5352">Model</text><ellipse cx="109.25" cy="69" fill="#FEFECE" filter="url(#f1)" rx="8" ry="8" style="stroke: #A80036; stroke-width: 2.0;"/><text fill="#000000" font-family="sans-serif" font-size="14" lengthAdjust="spacingAndGlyphs" textLength="141" x="38.75" y="91.5352">group___syndication</text><polygon fill="#FBFB77" filter="url(#f1)" points="215,64.5,215,89.8105,311,89.8105,311,74.5,301,64.5,215,64.5" style="stroke: #A80036; stroke-width: 1.0;"/><polygon fill="#FBFB77" points="215,64.5,215,73,179.383,77,215,81,215,89.8105,311,89.8105,311,74.5,301,64.5,215,64.5" style="stroke: #A80036; stroke-width: 1.0;"/><line style="stroke: #A80036; stroke-width: 1.0;" x1="301" x2="301" y1="64.5" y2="74.5"/><line style="stroke: #A80036; stroke-width: 1.0;" x1="311" x2="301" y1="74.5" y2="74.5"/><a target="_top" xlink:href="../computational/components/group___atom.html" xlink:title="../computational/components/group___atom.html"><text fill="#0000FF" font-family="sans-serif" font-size="13" lengthAdjust="spacingAndGlyphs" text-decoration="underline" textLength="75" x="221" y="82.0684">(Atom Feed)</text><line style="stroke: #0000FF; stroke-width: 1.0;" x1="221" x2="296" y1="84.0684" y2="84.0684"/></a></g></svg>