<?xml version="1.0" encoding="UTF-8" standalone="yes"?><svg xmlns="http://www.w3.org/2000/svg" xmlns:xlink="http://www.w3.org/1999/xlink" height="128pt" style="width:125px;height:128px;" version="1.1" viewBox="0 0 125 128" width="125pt"><defs><filter height="300%" id="f1" width="300%" x="-1" y="-1"><feGaussianBlur result="blurOut" stdDeviation="2.0"/><feColorMatrix in="blurOut" result="blurOut2" type="matrix" values="0 0 0 0 0 0 0 0 0 0 0 0 0 0 0 0 0 0 .4 0"/><feOffset dx="4.0" dy="4.0" in="blurOut2" result="blurOut3"/><feBlend in="SourceGraphic" in2="blurOut3" mode="normal"/></filter></defs><g><polygon fill="#FFFFFF" filter="url(#f1)" points="22,24,107,24,114,43.6179,118,43.6179,118,121,22,121,22,24" style="stroke: #000000; stroke-width: 2.0;"/><line style="stroke: #000000; stroke-width: 2.0;" x1="22" x2="114" y1="43.6179" y2="43.6179"/><text fill="#000000" font-family="Arial" font-size="11" lengthAdjust="spacingAndGlyphs" textLength="79" x="25" y="37.4829">Terradue::Portal</text><a target="_top" xlink:href="../information/classes/class_terradue_1_1_portal_1_1_action.html" xlink:title="../information/classes/class_terradue_1_1_portal_1_1_action.html"><rect fill="#EEEBDC" filter="url(#f1)" height="48" style="stroke: #919871; stroke-width: 1.5;" width="62" x="39" y="57"/><ellipse cx="54" cy="73" fill="#ADD1B2" rx="11" ry="11" style="stroke: #919871; stroke-width: 1.0;"/><path d="M56.3438,68.6719 C55.4063,68.2344 54.8125,68.0938 53.9375,68.0938 C51.3125,68.0938 49.3125,70.1719 49.3125,72.8906 L49.3125,74.0156 C49.3125,76.5938 51.4219,78.4844 54.3125,78.4844 C55.5313,78.4844 56.6875,78.1875 57.4375,77.6406 C58.0156,77.2344 58.3438,76.7813 58.3438,76.3906 C58.3438,75.9375 57.9531,75.5469 57.4844,75.5469 C57.2656,75.5469 57.0625,75.625 56.875,75.8125 C56.4219,76.2969 56.4219,76.2969 56.2344,76.3906 C55.8125,76.6563 55.125,76.7813 54.3594,76.7813 C52.3125,76.7813 51.0156,75.6875 51.0156,73.9844 L51.0156,72.8906 C51.0156,71.1094 52.2656,69.7969 54,69.7969 C54.5781,69.7969 55.1875,69.9531 55.6563,70.2031 C56.1406,70.4844 56.3125,70.7031 56.4063,71.1094 C56.4688,71.5156 56.5,71.6406 56.6406,71.7656 C56.7813,71.9063 57.0156,72.0156 57.2344,72.0156 C57.5,72.0156 57.7656,71.875 57.9375,71.6563 C58.0469,71.5 58.0781,71.3125 58.0781,70.8906 L58.0781,69.4688 C58.0781,69.0313 58.0625,68.9063 57.9688,68.75 C57.8125,68.4844 57.5313,68.3438 57.2344,68.3438 C56.9375,68.3438 56.7344,68.4375 56.5156,68.75 L56.3438,68.6719 Z "/><text fill="#000000" font-family="Arial" font-size="11" lengthAdjust="spacingAndGlyphs" textLength="30" x="68" y="76.674">Action</text><line style="stroke: #919871; stroke-width: 1.5;" x1="40" x2="100" y1="89" y2="89"/><line style="stroke: #919871; stroke-width: 1.5;" x1="40" x2="100" y1="97" y2="97"/></a></g></svg>