<?xml version="1.0" encoding="UTF-8" standalone="yes"?><svg xmlns="http://www.w3.org/2000/svg" xmlns:xlink="http://www.w3.org/1999/xlink" height="447pt" style="width:339px;height:447px;" version="1.1" viewBox="0 0 339 447" width="339pt"><defs><filter height="300%" id="f1" width="300%" x="-1" y="-1"><feGaussianBlur result="blurOut" stdDeviation="2.0"/><feColorMatrix in="blurOut" result="blurOut2" type="matrix" values="0 0 0 0 0 0 0 0 0 0 0 0 0 0 0 0 0 0 .4 0"/><feOffset dx="4.0" dy="4.0" in="blurOut2" result="blurOut3"/><feBlend in="SourceGraphic" in2="blurOut3" mode="normal"/></filter></defs><g><rect fill="#FFFFFF" filter="url(#f1)" height="416" style="stroke: #000000; stroke-width: 2.0;" width="244" x="88" y="24"/><text fill="#000000" font-family="sans-serif" font-size="14" font-weight="bold" lengthAdjust="spacingAndGlyphs" textLength="57" x="181.5" y="39.7059">Platform</text><ellipse cx="210.517" cy="83.9034" fill="#FEFECE" filter="url(#f1)" rx="97.517" ry="21.9034" style="stroke: #A80036; stroke-width: 1.5;"/><text fill="#000000" font-family="sans-serif" font-size="14" lengthAdjust="spacingAndGlyphs" textLength="168" x="126.517" y="89.0694">interact with websitePages</text><ellipse cx="210.2271" cy="161.8454" fill="#FEFECE" filter="url(#f1)" rx="92.2271" ry="20.8454" style="stroke: #A80036; stroke-width: 1.5;"/><text fill="#000000" font-family="sans-serif" font-size="14" lengthAdjust="spacingAndGlyphs" textLength="156" x="132.2271" y="167.0114">interact with geoBrowser</text><ellipse cx="210.693" cy="240.8386" fill="#FEFECE" filter="url(#f1)" rx="104.693" ry="23.3386" style="stroke: #A80036; stroke-width: 1.5;"/><text fill="#000000" font-family="sans-serif" font-size="14" lengthAdjust="spacingAndGlyphs" textLength="184" x="118.693" y="246.0046">interact with cloudDashboard</text><ellipse cx="210.4069" cy="321.0814" fill="#FEFECE" filter="url(#f1)" rx="98.4069" ry="22.0814" style="stroke: #A80036; stroke-width: 1.5;"/><text fill="#000000" font-family="sans-serif" font-size="14" lengthAdjust="spacingAndGlyphs" textLength="170" x="125.4069" y="326.2473">interact with cloudSandbox</text><ellipse cx="210.052" cy="401.1104" fill="#FEFECE" filter="url(#f1)" rx="106.052" ry="23.6104" style="stroke: #A80036; stroke-width: 1.5;"/><text fill="#000000" font-family="sans-serif" font-size="14" lengthAdjust="spacingAndGlyphs" textLength="187" x="116.552" y="406.2764">interact with socialwebHandle</text><ellipse cx="25.5" cy="209" fill="#FEFECE" filter="url(#f1)" rx="8" ry="8" style="stroke: #A80036; stroke-width: 2.0;"/><path d="M25.5,217 L25.5,244 M12.5,225 L38.5,225 M25.5,244 L12.5,259 M25.5,244 L38.5,259 " fill="#FEFECE" filter="url(#f1)" style="stroke: #A80036; stroke-width: 2.0;"/><text fill="#000000" font-family="sans-serif" font-size="14" lengthAdjust="spacingAndGlyphs" textLength="37" x="7" y="279.3419">Users</text><path d="M35.2351,198.788 C43.4108,173.512 57.3483,142.59 80,123 C94.0798,110.823 111.85,102.448 129.691,96.687 " fill="none" style="stroke: #A80036; stroke-width: 1.0;"/><path d="M43.7438,224.388 C53.8958,216.098 66.9965,206.483 80,200 C99.7811,190.138 122.563,182.395 143.475,176.545 " fill="none" style="stroke: #A80036; stroke-width: 1.0;"/><path d="M43.7569,241 C58.9138,241 81.5668,241 105.3103,241 " fill="none" style="stroke: #A80036; stroke-width: 1.0;"/><path d="M43.8423,257.11 C54.0213,265.172 67.1164,274.558 80,281 C99.5367,290.768 121.928,298.7 142.559,304.847 " fill="none" style="stroke: #A80036; stroke-width: 1.0;"/><path d="M35.1521,283.166 C43.3187,308.664 57.2763,340.002 80,360 C93.5905,371.9604 110.667,380.4338 127.933,386.4362 " fill="none" style="stroke: #A80036; stroke-width: 1.0;"/></g></svg>