<?xml version="1.0" encoding="UTF-8" standalone="yes"?><svg xmlns="http://www.w3.org/2000/svg" xmlns:xlink="http://www.w3.org/1999/xlink" height="352pt" style="width:193px;height:352px;" version="1.1" viewBox="0 0 193 352" width="193pt"><defs><filter height="300%" id="f1" width="300%" x="-1" y="-1"><feGaussianBlur result="blurOut" stdDeviation="2.0"/><feColorMatrix in="blurOut" result="blurOut2" type="matrix" values="0 0 0 0 0 0 0 0 0 0 0 0 0 0 0 0 0 0 .4 0"/><feOffset dx="4.0" dy="4.0" in="blurOut2" result="blurOut3"/><feBlend in="SourceGraphic" in2="blurOut3" mode="normal"/></filter></defs><g><polygon fill="#FFFFFF" filter="url(#f1)" points="22,24,107,24,114,43.6179,186,43.6179,186,345,22,345,22,24" style="stroke: #000000; stroke-width: 2.0;"/><line style="stroke: #000000; stroke-width: 2.0;" x1="22" x2="114" y1="43.6179" y2="43.6179"/><text fill="#000000" font-family="Arial" font-size="11" lengthAdjust="spacingAndGlyphs" textLength="79" x="25" y="37.4829">Terradue::Portal</text><a target="_top" xlink:href="../information/classes/class_terradue_1_1_portal_1_1_computing_resource.html" xlink:title="../information/classes/class_terradue_1_1_portal_1_1_computing_resource.html"><rect fill="#EEEBDC" filter="url(#f1)" height="147.0399" style="stroke: #919871; stroke-width: 1.5;" width="132" x="38" y="57.5"/><ellipse cx="53" cy="73.5" fill="#ADD1B2" rx="11" ry="11" style="stroke: #919871; stroke-width: 1.0;"/><path d="M55.3438,69.1719 C54.4063,68.7344 53.8125,68.5938 52.9375,68.5938 C50.3125,68.5938 48.3125,70.6719 48.3125,73.3906 L48.3125,74.5156 C48.3125,77.0938 50.4219,78.9844 53.3125,78.9844 C54.5313,78.9844 55.6875,78.6875 56.4375,78.1406 C57.0156,77.7344 57.3438,77.2813 57.3438,76.8906 C57.3438,76.4375 56.9531,76.0469 56.4844,76.0469 C56.2656,76.0469 56.0625,76.125 55.875,76.3125 C55.4219,76.7969 55.4219,76.7969 55.2344,76.8906 C54.8125,77.1563 54.125,77.2813 53.3594,77.2813 C51.3125,77.2813 50.0156,76.1875 50.0156,74.4844 L50.0156,73.3906 C50.0156,71.6094 51.2656,70.2969 53,70.2969 C53.5781,70.2969 54.1875,70.4531 54.6563,70.7031 C55.1406,70.9844 55.3125,71.2031 55.4063,71.6094 C55.4688,72.0156 55.5,72.1406 55.6406,72.2656 C55.7813,72.4063 56.0156,72.5156 56.2344,72.5156 C56.5,72.5156 56.7656,72.375 56.9375,72.1563 C57.0469,72 57.0781,71.8125 57.0781,71.3906 L57.0781,69.9688 C57.0781,69.5313 57.0625,69.4063 56.9688,69.25 C56.8125,68.9844 56.5313,68.8438 56.2344,68.8438 C55.9375,68.8438 55.7344,68.9375 55.5156,69.25 L55.3438,69.1719 Z "/><text fill="#000000" font-family="Arial" font-size="11" lengthAdjust="spacingAndGlyphs" textLength="100" x="67" y="77.174">ComputingResource</text><line style="stroke: #919871; stroke-width: 1.5;" x1="39" x2="169" y1="89.5" y2="89.5"/><ellipse cx="49" cy="100.69" fill="none" rx="3" ry="3" style="stroke: #038048; stroke-width: 1.0;"/><text fill="#000000" font-family="Arial" font-size="10" lengthAdjust="spacingAndGlyphs" textLength="73" x="58" y="103.03">IsAvailable:bool</text><ellipse cx="49" cy="113.07" fill="none" rx="3" ry="3" style="stroke: #038048; stroke-width: 1.0;"/><text fill="#000000" font-family="Arial" font-size="10" lengthAdjust="spacingAndGlyphs" textLength="79" x="58" y="115.41">Description:string</text><ellipse cx="49" cy="125.45" fill="none" rx="3" ry="3" style="stroke: #038048; stroke-width: 1.0;"/><text fill="#000000" font-family="Arial" font-size="10" lengthAdjust="spacingAndGlyphs" textLength="75" x="58" y="127.79">Hostname:string</text><ellipse cx="49" cy="137.83" fill="none" rx="3" ry="3" style="stroke: #038048; stroke-width: 1.0;"/><text fill="#000000" font-family="Arial" font-size="10" lengthAdjust="spacingAndGlyphs" textLength="73" x="58" y="140.17">MaxCapacity:int</text><ellipse cx="49" cy="150.2099" fill="none" rx="3" ry="3" style="stroke: #038048; stroke-width: 1.0;"/><text fill="#000000" font-family="Arial" font-size="10" lengthAdjust="spacingAndGlyphs" textLength="77" x="58" y="152.5499">TotalCapacity:int</text><ellipse cx="49" cy="162.5899" fill="none" rx="3" ry="3" style="stroke: #038048; stroke-width: 1.0;"/><text fill="#000000" font-family="Arial" font-size="10" lengthAdjust="spacingAndGlyphs" textLength="75" x="58" y="164.9299">FreeCapacity:int</text><ellipse cx="49" cy="174.9699" fill="none" rx="3" ry="3" style="stroke: #038048; stroke-width: 1.0;"/><text fill="#000000" font-family="Arial" font-size="10" lengthAdjust="spacingAndGlyphs" textLength="104" x="58" y="177.3099">UserCreditControl:bool</text><line style="stroke: #919871; stroke-width: 1.5;" x1="39" x2="169" y1="184.1599" y2="184.1599"/><ellipse cx="49" cy="195.3499" fill="#84BE84" rx="3" ry="3" style="stroke: #038048; stroke-width: 1.0;"/><text fill="#000000" font-family="Arial" font-size="10" lengthAdjust="spacingAndGlyphs" textLength="53" x="58" y="197.6899">GetStatus()</text></a><rect fill="#EEEBDC" filter="url(#f1)" height="48" style="stroke: #919871; stroke-width: 1.5;" width="59" x="75" y="281"/><ellipse cx="90" cy="297" fill="#ADD1B2" rx="11" ry="11" style="stroke: #919871; stroke-width: 1.0;"/><path d="M92.3438,292.6719 C91.4063,292.2344 90.8125,292.0938 89.9375,292.0938 C87.3125,292.0938 85.3125,294.1719 85.3125,296.8906 L85.3125,298.0156 C85.3125,300.5938 87.4219,302.4844 90.3125,302.4844 C91.5313,302.4844 92.6875,302.1875 93.4375,301.6406 C94.0156,301.2344 94.3438,300.7813 94.3438,300.3906 C94.3438,299.9375 93.9531,299.5469 93.4844,299.5469 C93.2656,299.5469 93.0625,299.625 92.875,299.8125 C92.4219,300.2969 92.4219,300.2969 92.2344,300.3906 C91.8125,300.6563 91.125,300.7813 90.3594,300.7813 C88.3125,300.7813 87.0156,299.6875 87.0156,297.9844 L87.0156,296.8906 C87.0156,295.1094 88.2656,293.7969 90,293.7969 C90.5781,293.7969 91.1875,293.9531 91.6563,294.2031 C92.1406,294.4844 92.3125,294.7031 92.4063,295.1094 C92.4688,295.5156 92.5,295.6406 92.6406,295.7656 C92.7813,295.9063 93.0156,296.0156 93.2344,296.0156 C93.5,296.0156 93.7656,295.875 93.9375,295.6563 C94.0469,295.5 94.0781,295.3125 94.0781,294.8906 L94.0781,293.4688 C94.0781,293.0313 94.0625,292.9063 93.9688,292.75 C93.8125,292.4844 93.5313,292.3438 93.2344,292.3438 C92.9375,292.3438 92.7344,292.4375 92.5156,292.75 L92.3438,292.6719 Z "/><text fill="#000000" font-family="Arial" font-size="11" lengthAdjust="spacingAndGlyphs" textLength="27" x="104" y="300.674">Entity</text><line style="stroke: #919871; stroke-width: 1.5;" x1="76" x2="133" y1="313" y2="313"/><line style="stroke: #919871; stroke-width: 1.5;" x1="76" x2="133" y1="321" y2="321"/><path d="M104,204.539 C104,223.606 104,243.557 104,260.608 " fill="none" style="stroke: #000000; stroke-width: 1.0;"/><polygon fill="none" points="111,260.702,104,280.7023,97.0001,260.702,111,260.702" style="stroke: #000000; stroke-width: 1.0;"/><text fill="#000000" font-family="Arial" font-size="11" lengthAdjust="spacingAndGlyphs" textLength="55" x="105" y="246.4829">implements</text></g></svg>