<?xml version="1.0" encoding="UTF-8" standalone="yes"?><svg xmlns="http://www.w3.org/2000/svg" xmlns:xlink="http://www.w3.org/1999/xlink" height="1075pt" style="width:2460px;height:1075px;" version="1.1" viewBox="0 0 2460 1075" width="2460pt"><defs><filter height="300%" id="f1" width="300%" x="-1" y="-1"><feGaussianBlur result="blurOut" stdDeviation="2.0"/><feColorMatrix in="blurOut" result="blurOut2" type="matrix" values="0 0 0 0 0 0 0 0 0 0 0 0 0 0 0 0 0 0 .4 0"/><feOffset dx="4.0" dy="4.0" in="blurOut2" result="blurOut3"/><feBlend in="SourceGraphic" in2="blurOut3" mode="normal"/></filter></defs><g><path d="M25,113 C25,110 27,108 30,108 C33,108 35,110 35,113 C35,110 37,108 40,108 C43,108 45,110 45,113 C45,110 47,108 50,108 C53,108 55,110 55,113 C55,110 57,108 60,108 C63,108 65,110 65,113 C65,110 67,108 70,108 C73,108 75,110 75,113 C75,110 77,108 80,108 C83,108 85,110 85,113 C85,110 87,108 90,108 C93,108 95,110 95,113 C95,110 97,108 100,108 C103,108 105,110 105,113 C105,110 107,108 110,108 C113,108 115,110 115,113 C115,110 117,108 120,108 C123,108 125,110 125,113 C125,110 127,108 130,108 C133,108 135,110 135,113 C135,110 137,108 140,108 C143,108 145,110 145,113 C145,110 147,108 150,108 C153,108 155,110 155,113 C155,110 157,108 160,108 C163,108 165,110 165,113 C165,110 167,108 170,108 C173,108 175,110 175,113 C175,110 177,108 180,108 C183,108 185,110 185,113 C185,110 187,108 190,108 C193,108 195,110 195,113 C195,110 197,108 200,108 C203,108 205,110 205,113 C205,110 207,108 210,108 C213,108 215,110 215,113 C215,110 217,108 220,108 C223,108 225,110 225,113 C225,110 227,108 230,108 C233,108 235,110 235,113 C235,110 237,108 240,108 C243,108 245,110 245,113 C245,110 247,108 250,108 C253,108 255,110 255,113 C255,110 257,108 260,108 C263,108 265,110 265,113 C265,110 267,108 270,108 C273,108 275,110 275,113 C275,110 277,108 280,108 C283,108 285,110 285,113 C285,110 287,108 290,108 C293,108 295,110 295,113 C295,110 297,108 300,108 C303,108 305,110 305,113 C305,110 307,108 310,108 C313,108 315,110 315,113 C315,110 317,108 320,108 C323,108 325,110 325,113 C325,110 327,108 330,108 C333,108 335,110 335,113 C335,110 337,108 340,108 C343,108 345,110 345,113 C345,110 347,108 350,108 C353,108 355,110 355,113 C355,110 357,108 360,108 C363,108 365,110 365,113 C365,110 367,108 370,108 C373,108 375,110 375,113 C375,110 377,108 380,108 C383,108 385,110 385,113 C385,110 387,108 390,108 C393,108 395,110 395,113 C395,110 397,108 400,108 C403,108 405,110 405,113 C405,110 407,108 410,108 C413,108 415,110 415,113 C415,110 417,108 420,108 C423,108 425,110 425,113 C425,110 427,108 430,108 C433,108 435,110 435,113 C435,110 437,108 440,108 C443,108 445,110 445,113 C445,110 447,108 450,108 C453,108 455,110 455,113 C455,110 457,108 460,108 C463,108 465,110 465,113 C465,110 467,108 470,108 C473,108 475,110 475,113 C475,110 477,108 480,108 C483,108 485,110 485,113 C485,110 487,108 490,108 C493,108 495,110 495,113 C495,110 497,108 500,108 C503,108 505,110 505,113 C505,110 507,108 510,108 C513,108 515,110 515,113 C515,110 517,108 520,108 C523,108 525,110 525,113 C525,110 527,108 530,108 C533,108 535,110 535,113 C535,110 537,108 540,108 C543,108 545,110 545,113 C545,110 547,108 550,108 C553,108 555,110 555,113 C555,110 557,108 560,108 C563,108 565,110 565,113 C565,110 567,108 570,108 C573,108 575,110 575,113 C575,110 577,108 580,108 C583,108 585,110 585,113 C585,110 587,108 590,108 C593,108 595,110 595,113 C595,110 597,108 600,108 C603,108 605,110 605,113 C605,110 607,108 610,108 C613,108 615,110 615,113 C615,110 617,108 620,108 C623,108 625,110 625,113 C625,110 627,108 630,108 C633,108 635,110 635,113 C635,110 637,108 640,108 C643,108 645,110 645,113 C645,110 647,108 650,108 C653,108 655,110 655,113 C655,110 657,108 660,108 C663,108 665,110 665,113 C665,110 667,108 670,108 C673,108 675,110 675,113 C675,110 677,108 680,108 C683,108 685,110 685,113 C685,110 687,108 690,108 C693,108 695,110 695,113 C695,110 697,108 700,108 C703,108 705,110 705,113 C705,110 707,108 710,108 C713,108 715,110 715,113 C715,110 717,108 720,108 C723,108 725,110 725,113 C725,110 727,108 730,108 C733,108 735,110 735,113 C735,110 737,108 740,108 C743,108 745,110 745,113 C745,110 747,108 750,108 C753,108 755,110 755,113 C755,110 757,108 760,108 C763,108 765,110 765,113 C765,110 767,108 770,108 C773,108 775,110 775,113 C775,110 777,108 780,108 C783,108 785,110 785,113 C785,110 787,108 790,108 C793,108 795,110 795,113 C795,110 797,108 800,108 C803,108 805,110 805,113 C805,110 807,108 810,108 C813,108 815,110 815,113 C815,110 817,108 820,108 C823,108 825,110 825,113 C825,110 827,108 830,108 C833,108 835,110 835,113 C835,110 837,108 840,108 C843,108 845,110 845,113 C845,110 847,108 850,108 C853,108 855,110 855,113 C855,110 857,108 860,108 C863,108 865,110 865,113 C865,110 867,108 870,108 C873,108 875,110 875,113 C875,110 877,108 880,108 C883,108 885,110 885,113 C885,110 887,108 890,108 C893,108 895,110 895,113 C895,110 897,108 900,108 C903,108 905,110 905,113 C905,110 907,108 910,108 C913,108 915,110 915,113 C915,110 917,108 920,108 C923,108 925,110 925,113 C925,110 927,108 930,108 C933,108 935,110 935,113 C935,110 937,108 940,108 C943,108 945,110 945,113 C945,110 947,108 950,108 C953,108 955,110 955,113 C955,110 957,108 960,108 C963,108 965,110 965,113 C965,110 967,108 970,108 C973,108 975,110 975,113 C975,110 977,108 980,108 C983,108 985,110 985,113 C985,110 987,108 990,108 C993,108 995,110 995,113 C995,110 997,108 1000,108 C1003,108 1005,110 1005,113 C1005,110 1007,108 1010,108 C1013,108 1015,110 1015,113 C1015,110 1017,108 1020,108 C1023,108 1025,110 1025,113 C1025,110 1027,108 1030,108 C1033,108 1035,110 1035,113 C1035,110 1037,108 1040,108 C1043,108 1045,110 1045,113 C1045,110 1047,108 1050,108 C1053,108 1055,110 1055,113 C1055,110 1057,108 1060,108 C1063,108 1065,110 1065,113 C1065,110 1067,108 1070,108 C1073,108 1075,110 1075,113 C1075,110 1077,108 1080,108 C1083,108 1085,110 1085,113 C1085,110 1087,108 1090,108 C1093,108 1095,110 1095,113 C1095,110 1097,108 1100,108 C1103,108 1105,110 1105,113 C1105,110 1107,108 1110,108 C1113,108 1115,110 1115,113 C1115,110 1117,108 1120,108 C1123,108 1125,110 1125,113 C1125,110 1127,108 1130,108 C1133,108 1135,110 1135,113 C1135,110 1137,108 1140,108 C1143,108 1145,110 1145,113 C1145,110 1147,108 1150,108 C1153,108 1155,110 1155,113 C1155,110 1157,108 1160,108 C1163,108 1165,110 1165,113 C1165,110 1167,108 1170,108 C1173,108 1175,110 1175,113 C1175,110 1177,108 1180,108 C1183,108 1185,110 1185,113 C1185,110 1187,108 1190,108 C1193,108 1195,110 1195,113 C1195,110 1197,108 1200,108 C1203,108 1205,110 1205,113 C1205,110 1207,108 1210,108 C1213,108 1215,110 1215,113 C1215,110 1217,108 1220,108 C1223,108 1225,110 1225,113 C1225,110 1227,108 1230,108 C1233,108 1235,110 1235,113 C1235,110 1237,108 1240,108 C1243,108 1245,110 1245,113 C1245,110 1247,108 1250,108 C1253,108 1255,110 1255,113 C1255,110 1257,108 1260,108 C1263,108 1265,110 1265,113 C1265,110 1267,108 1270,108 C1273,108 1275,110 1275,113 C1275,110 1277,108 1280,108 C1283,108 1285,110 1285,113 C1285,110 1287,108 1290,108 C1293,108 1295,110 1295,113 C1295,110 1297,108 1300,108 C1303,108 1305,110 1305,113 C1305,110 1307,108 1310,108 C1313,108 1315,110 1315,113 C1315,110 1317,108 1320,108 C1323,108 1325,110 1325,113 C1325,110 1327,108 1330,108 C1333,108 1335,110 1335,113 C1335,110 1337,108 1340,108 C1343,108 1345,110 1345,113 C1345,110 1347,108 1350,108 C1353,108 1355,110 1355,113 C1355,110 1357,108 1360,108 C1363,108 1365,110 1365,113 C1365,110 1367,108 1370,108 C1373,108 1375,110 1375,113 C1375,110 1377,108 1380,108 C1383,108 1385,110 1385,113 C1385,110 1387,108 1390,108 C1393,108 1395,110 1395,113 C1395,110 1397,108 1400,108 C1403,108 1405,110 1405,113 C1405,110 1407,108 1410,108 C1413,108 1415,110 1415,113 C1415,110 1417,108 1420,108 C1423,108 1425,110 1425,113 C1425,110 1427,108 1430,108 C1433,108 1435,110 1435,113 C1435,110 1437,108 1440,108 C1443,108 1445,110 1445,113 C1445,110 1447,108 1450,108 C1453,108 1455,110 1455,113 C1455,110 1457,108 1460,108 C1463,108 1465,110 1465,113 C1465,110 1467,108 1470,108 C1473,108 1475,110 1475,113 C1475,110 1477,108 1480,108 C1483,108 1485,110 1485,113 C1485,110 1487,108 1490,108 C1493,108 1495,110 1495,113 C1495,110 1497,108 1500,108 C1503,108 1505,110 1505,113 C1505,110 1507,108 1510,108 C1513,108 1515,110 1515,113 C1515,110 1517,108 1520,108 C1523,108 1525,110 1525,113 C1525,110 1527,108 1530,108 C1533,108 1535,110 1535,113 C1535,110 1537,108 1540,108 C1543,108 1545,110 1545,113 C1545,110 1547,108 1550,108 C1553,108 1555,110 1555,113 C1555,110 1557,108 1560,108 C1563,108 1565,110 1565,113 C1565,110 1567,108 1570,108 C1573,108 1575,110 1575,113 C1575,110 1577,108 1580,108 C1583,108 1585,110 1585,113 C1585,110 1587,108 1590,108 C1593,108 1595,110 1595,113 C1595,110 1597,108 1600,108 C1603,108 1605,110 1605,113 C1605,110 1607,108 1610,108 C1613,108 1615,110 1615,113 C1615,110 1617,108 1620,108 C1623,108 1625,110 1625,113 C1625,110 1627,108 1630,108 C1633,108 1635,110 1635,113 C1635,110 1637,108 1640,108 C1643,108 1645,110 1645,113 C1645,110 1647,108 1650,108 C1653,108 1655,110 1655,113 C1655,110 1657,108 1660,108 C1663,108 1665,110 1665,113 C1665,110 1667,108 1670,108 C1673,108 1675,110 1675,113 C1675,110 1677,108 1680,108 C1683,108 1685,110 1685,113 C1685,110 1687,108 1690,108 C1693,108 1695,110 1695,113 C1695,110 1697,108 1700,108 C1703,108 1705,110 1705,113 C1705,110 1707,108 1710,108 C1713,108 1715,110 1715,113 C1715,110 1717,108 1720,108 C1723,108 1725,110 1725,113 C1725,110 1727,108 1730,108 C1733,108 1735,110 1735,113 C1735,110 1737,108 1740,108 C1743,108 1745,110 1745,113 C1745,110 1747,108 1750,108 C1753,108 1755,110 1755,113 C1755,110 1757,108 1760,108 C1763,108 1765,110 1765,113 C1765,110 1767,108 1770,108 C1773,108 1775,110 1775,113 C1775,110 1777,108 1780,108 C1783,108 1785,110 1785,113 C1785,110 1787,108 1790,108 C1793,108 1795,110 1795,113 C1795,110 1797,108 1800,108 C1803,108 1805,110 1805,113 C1805,110 1807,108 1810,108 C1813,108 1815,110 1815,113 C1815,110 1817,108 1820,108 C1823,108 1825,110 1825,113 C1825,110 1827,108 1830,108 C1833,108 1835,110 1835,113 C1835,110 1837,108 1840,108 C1843,108 1845,110 1845,113 C1845,110 1847,108 1850,108 C1853,108 1855,110 1855,113 C1855,110 1857,108 1860,108 C1863,108 1865,110 1865,113 C1865,110 1867,108 1870,108 C1873,108 1875,110 1875,113 C1875,110 1877,108 1880,108 C1883,108 1885,110 1885,113 C1885,110 1887,108 1890,108 C1893,108 1895,110 1895,113 C1895,110 1897,108 1900,108 C1903,108 1905,110 1905,113 C1905,110 1907,108 1910,108 C1913,108 1915,110 1915,113 C1915,110 1917,108 1920,108 C1923,108 1925,110 1925,113 C1925,110 1927,108 1930,108 C1933,108 1935,110 1935,113 C1935,110 1937,108 1940,108 C1943,108 1945,110 1945,113 C1945,110 1947,108 1950,108 C1953,108 1955,110 1955,113 C1955,110 1957,108 1960,108 C1963,108 1965,110 1965,113 C1965,110 1967,108 1970,108 C1973,108 1975,110 1975,113 C1975,110 1977,108 1980,108 C1983,108 1985,110 1985,113 C1985,110 1987,108 1990,108 C1993,108 1995,110 1995,113 C1995,110 1997,108 2000,108 C2003,108 2005,110 2005,113 C2005,110 2007,108 2010,108 C2013,108 2015,110 2015,113 C2015,110 2017,108 2020,108 C2023,108 2025,110 2025,113 C2025,110 2027,108 2030,108 C2033,108 2035,110 2035,113 C2035,110 2037,108 2040,108 C2043,108 2045,110 2045,113 C2045,110 2047,108 2050,108 C2053,108 2055,110 2055,113 C2055,110 2057,108 2060,108 C2063,108 2065,110 2065,113 C2065,110 2067,108 2070,108 C2073,108 2075,110 2075,113 C2075,110 2077,108 2080,108 C2083,108 2085,110 2085,113 C2085,110 2087,108 2090,108 C2093,108 2095,110 2095,113 C2095,110 2097,108 2100,108 C2103,108 2105,110 2105,113 C2105,110 2107,108 2110,108 C2113,108 2115,110 2115,113 C2115,110 2117,108 2120,108 C2123,108 2125,110 2125,113 C2125,110 2127,108 2130,108 C2133,108 2135,110 2135,113 C2135,110 2137,108 2140,108 C2143,108 2145,110 2145,113 C2145,110 2147,108 2150,108 C2153,108 2155,110 2155,113 C2155,110 2157,108 2160,108 C2163,108 2165,110 2165,113 C2165,110 2167,108 2170,108 C2173,108 2175,110 2175,113 C2175,110 2177,108 2180,108 C2183,108 2185,110 2185,113 C2185,110 2187,108 2190,108 C2193,108 2195,110 2195,113 C2195,110 2197,108 2200,108 C2203,108 2205,110 2205,113 C2205,110 2207,108 2210,108 C2213,108 2215,110 2215,113 C2215,110 2217,108 2220,108 C2223,108 2225,110 2225,113 C2225,110 2227,108 2230,108 C2233,108 2235,110 2235,113 C2235,110 2237,108 2240,108 C2243,108 2245,110 2245,113 C2248,113 2250,115 2250,118 C2250,121 2248,123 2245,123 C2248,123 2250,125 2250,128 C2250,131 2248,133 2245,133 C2248,133 2250,135 2250,138 C2250,141 2248,143 2245,143 C2248,143 2250,145 2250,148 C2250,151 2248,153 2245,153 C2248,153 2250,155 2250,158 C2250,161 2248,163 2245,163 C2248,163 2250,165 2250,168 C2250,171 2248,173 2245,173 C2248,173 2250,175 2250,178 C2250,181 2248,183 2245,183 C2248,183 2250,185 2250,188 C2250,191 2248,193 2245,193 C2248,193 2250,195 2250,198 C2250,201 2248,203 2245,203 C2248,203 2250,205 2250,208 C2250,211 2248,213 2245,213 C2248,213 2250,215 2250,218 C2250,221 2248,223 2245,223 C2248,223 2250,225 2250,228 C2250,231 2248,233 2245,233 C2248,233 2250,235 2250,238 C2250,241 2248,243 2245,243 C2248,243 2250,245 2250,248 C2250,251 2248,253 2245,253 C2248,253 2250,255 2250,258 C2250,261 2248,263 2245,263 C2248,263 2250,265 2250,268 C2250,271 2248,273 2245,273 C2248,273 2250,275 2250,278 C2250,281 2248,283 2245,283 C2248,283 2250,285 2250,288 C2250,291 2248,293 2245,293 C2248,293 2250,295 2250,298 C2250,301 2248,303 2245,303 C2248,303 2250,305 2250,308 C2250,311 2248,313 2245,313 C2248,313 2250,315 2250,318 C2250,321 2248,323 2245,323 C2248,323 2250,325 2250,328 C2250,331 2248,333 2245,333 C2248,333 2250,335 2250,338 C2250,341 2248,343 2245,343 C2248,343 2250,345 2250,348 C2250,351 2248,353 2245,353 C2248,353 2250,355 2250,358 C2250,361 2248,363 2245,363 C2248,363 2250,365 2250,368 C2250,371 2248,373 2245,373 C2248,373 2250,375 2250,378 C2250,381 2248,383 2245,383 C2248,383 2250,385 2250,388 C2250,391 2248,393 2245,393 C2248,393 2250,395 2250,398 C2250,401 2248,403 2245,403 C2248,403 2250,405 2250,408 C2250,411 2248,413 2245,413 C2248,413 2250,415 2250,418 C2250,421 2248,423 2245,423 C2248,423 2250,425 2250,428 C2250,431 2248,433 2245,433 C2248,433 2250,435 2250,438 C2250,441 2248,443 2245,443 C2248,443 2250,445 2250,448 C2250,451 2248,453 2245,453 C2248,453 2250,455 2250,458 C2250,461 2248,463 2245,463 C2248,463 2250,465 2250,468 C2250,471 2248,473 2245,473 C2248,473 2250,475 2250,478 C2250,481 2248,483 2245,483 C2248,483 2250,485 2250,488 C2250,491 2248,493 2245,493 C2248,493 2250,495 2250,498 C2250,501 2248,503 2245,503 C2248,503 2250,505 2250,508 C2250,511 2248,513 2245,513 C2248,513 2250,515 2250,518 C2250,521 2248,523 2245,523 C2248,523 2250,525 2250,528 C2250,531 2248,533 2245,533 C2248,533 2250,535 2250,538 C2250,541 2248,543 2245,543 C2248,543 2250,545 2250,548 C2250,551 2248,553 2245,553 C2248,553 2250,555 2250,558 C2250,561 2248,563 2245,563 C2248,563 2250,565 2250,568 C2250,571 2248,573 2245,573 C2248,573 2250,575 2250,578 C2250,581 2248,583 2245,583 C2248,583 2250,585 2250,588 C2250,591 2248,593 2245,593 C2248,593 2250,595 2250,598 C2250,601 2248,603 2245,603 C2248,603 2250,605 2250,608 C2250,611 2248,613 2245,613 C2248,613 2250,615 2250,618 C2250,621 2248,623 2245,623 C2248,623 2250,625 2250,628 C2250,631 2248,633 2245,633 C2248,633 2250,635 2250,638 C2250,641 2248,643 2245,643 C2248,643 2250,645 2250,648 C2250,651 2248,653 2245,653 C2248,653 2250,655 2250,658 C2250,661 2248,663 2245,663 C2248,663 2250,665 2250,668 C2250,671 2248,673 2245,673 C2248,673 2250,675 2250,678 C2250,681 2248,683 2245,683 C2248,683 2250,685 2250,688 C2250,691 2248,693 2245,693 C2248,693 2250,695 2250,698 C2250,701 2248,703 2245,703 C2248,703 2250,705 2250,708 C2250,711 2248,713 2245,713 C2248,713 2250,715 2250,718 C2250,721 2248,723 2245,723 C2248,723 2250,725 2250,728 C2250,731 2248,733 2245,733 C2248,733 2250,735 2250,738 C2250,741 2248,743 2245,743 C2248,743 2250,745 2250,748 C2250,751 2248,753 2245,753 C2248,753 2250,755 2250,758 C2250,761 2248,763 2245,763 C2248,763 2250,765 2250,768 C2250,771 2248,773 2245,773 C2248,773 2250,775 2250,778 C2250,781 2248,783 2245,783 C2248,783 2250,785 2250,788 C2250,791 2248,793 2245,793 C2248,793 2250,795 2250,798 C2250,801 2248,803 2245,803 C2248,803 2250,805 2250,808 C2250,811 2248,813 2245,813 C2248,813 2250,815 2250,818 C2250,821 2248,823 2245,823 C2248,823 2250,825 2250,828 C2250,831 2248,833 2245,833 C2248,833 2250,835 2250,838 C2250,841 2248,843 2245,843 C2248,843 2250,845 2250,848 C2250,851 2248,853 2245,853 C2248,853 2250,855 2250,858 C2250,861 2248,863 2245,863 C2248,863 2250,865 2250,868 C2250,871 2248,873 2245,873 C2248,873 2250,875 2250,878 C2250,881 2248,883 2245,883 C2248,883 2250,885 2250,888 C2250,891 2248,893 2245,893 C2248,893 2250,895 2250,898 C2250,901 2248,903 2245,903 C2248,903 2250,905 2250,908 C2250,911 2248,913 2245,913 C2248,913 2250,915 2250,918 C2250,921 2248,923 2245,923 C2248,923 2250,925 2250,928 C2250,931 2248,933 2245,933 C2248,933 2250,935 2250,938 C2250,941 2248,943 2245,943 C2248,943 2250,945 2250,948 C2250,951 2248,953 2245,953 C2248,953 2250,955 2250,958 C2250,961 2248,963 2245,963 C2248,963 2250,965 2250,968 C2250,971 2248,973 2245,973 C2248,973 2250,975 2250,978 C2250,981 2248,983 2245,983 C2248,983 2250,985 2250,988 C2250,991 2248,993 2245,993 C2248,993 2250,995 2250,998 C2250,1001 2248,1003 2245,1003 C2248,1003 2250,1005 2250,1008 C2250,1011 2248,1013 2245,1013 C2248,1013 2250,1015 2250,1018 C2250,1021 2248,1023 2245,1023 C2248,1023 2250,1025 2250,1028 C2250,1031 2248,1033 2245,1033 C2248,1033 2250,1035 2250,1038 C2250,1041 2248,1043 2245,1043 C2248,1043 2250,1045 2250,1048 C2250,1051 2248,1053 2245,1053 C2248,1053 2250,1055 2250,1058 C2250,1061 2248,1063 2245,1063 C2245,1066 2242,1068 2240,1068 C2237,1068 2235,1066 2235,1063 C2235,1066 2232,1068 2230,1068 C2227,1068 2225,1066 2225,1063 C2225,1066 2222,1068 2220,1068 C2217,1068 2215,1066 2215,1063 C2215,1066 2212,1068 2210,1068 C2207,1068 2205,1066 2205,1063 C2205,1066 2202,1068 2200,1068 C2197,1068 2195,1066 2195,1063 C2195,1066 2192,1068 2190,1068 C2187,1068 2185,1066 2185,1063 C2185,1066 2182,1068 2180,1068 C2177,1068 2175,1066 2175,1063 C2175,1066 2172,1068 2170,1068 C2167,1068 2165,1066 2165,1063 C2165,1066 2162,1068 2160,1068 C2157,1068 2155,1066 2155,1063 C2155,1066 2152,1068 2150,1068 C2147,1068 2145,1066 2145,1063 C2145,1066 2142,1068 2140,1068 C2137,1068 2135,1066 2135,1063 C2135,1066 2132,1068 2130,1068 C2127,1068 2125,1066 2125,1063 C2125,1066 2122,1068 2120,1068 C2117,1068 2115,1066 2115,1063 C2115,1066 2112,1068 2110,1068 C2107,1068 2105,1066 2105,1063 C2105,1066 2102,1068 2100,1068 C2097,1068 2095,1066 2095,1063 C2095,1066 2092,1068 2090,1068 C2087,1068 2085,1066 2085,1063 C2085,1066 2082,1068 2080,1068 C2077,1068 2075,1066 2075,1063 C2075,1066 2072,1068 2070,1068 C2067,1068 2065,1066 2065,1063 C2065,1066 2062,1068 2060,1068 C2057,1068 2055,1066 2055,1063 C2055,1066 2052,1068 2050,1068 C2047,1068 2045,1066 2045,1063 C2045,1066 2042,1068 2040,1068 C2037,1068 2035,1066 2035,1063 C2035,1066 2032,1068 2030,1068 C2027,1068 2025,1066 2025,1063 C2025,1066 2022,1068 2020,1068 C2017,1068 2015,1066 2015,1063 C2015,1066 2012,1068 2010,1068 C2007,1068 2005,1066 2005,1063 C2005,1066 2002,1068 2000,1068 C1997,1068 1995,1066 1995,1063 C1995,1066 1992,1068 1990,1068 C1987,1068 1985,1066 1985,1063 C1985,1066 1982,1068 1980,1068 C1977,1068 1975,1066 1975,1063 C1975,1066 1972,1068 1970,1068 C1967,1068 1965,1066 1965,1063 C1965,1066 1962,1068 1960,1068 C1957,1068 1955,1066 1955,1063 C1955,1066 1952,1068 1950,1068 C1947,1068 1945,1066 1945,1063 C1945,1066 1942,1068 1940,1068 C1937,1068 1935,1066 1935,1063 C1935,1066 1932,1068 1930,1068 C1927,1068 1925,1066 1925,1063 C1925,1066 1922,1068 1920,1068 C1917,1068 1915,1066 1915,1063 C1915,1066 1912,1068 1910,1068 C1907,1068 1905,1066 1905,1063 C1905,1066 1902,1068 1900,1068 C1897,1068 1895,1066 1895,1063 C1895,1066 1892,1068 1890,1068 C1887,1068 1885,1066 1885,1063 C1885,1066 1882,1068 1880,1068 C1877,1068 1875,1066 1875,1063 C1875,1066 1872,1068 1870,1068 C1867,1068 1865,1066 1865,1063 C1865,1066 1862,1068 1860,1068 C1857,1068 1855,1066 1855,1063 C1855,1066 1852,1068 1850,1068 C1847,1068 1845,1066 1845,1063 C1845,1066 1842,1068 1840,1068 C1837,1068 1835,1066 1835,1063 C1835,1066 1832,1068 1830,1068 C1827,1068 1825,1066 1825,1063 C1825,1066 1822,1068 1820,1068 C1817,1068 1815,1066 1815,1063 C1815,1066 1812,1068 1810,1068 C1807,1068 1805,1066 1805,1063 C1805,1066 1802,1068 1800,1068 C1797,1068 1795,1066 1795,1063 C1795,1066 1792,1068 1790,1068 C1787,1068 1785,1066 1785,1063 C1785,1066 1782,1068 1780,1068 C1777,1068 1775,1066 1775,1063 C1775,1066 1772,1068 1770,1068 C1767,1068 1765,1066 1765,1063 C1765,1066 1762,1068 1760,1068 C1757,1068 1755,1066 1755,1063 C1755,1066 1752,1068 1750,1068 C1747,1068 1745,1066 1745,1063 C1745,1066 1742,1068 1740,1068 C1737,1068 1735,1066 1735,1063 C1735,1066 1732,1068 1730,1068 C1727,1068 1725,1066 1725,1063 C1725,1066 1722,1068 1720,1068 C1717,1068 1715,1066 1715,1063 C1715,1066 1712,1068 1710,1068 C1707,1068 1705,1066 1705,1063 C1705,1066 1702,1068 1700,1068 C1697,1068 1695,1066 1695,1063 C1695,1066 1692,1068 1690,1068 C1687,1068 1685,1066 1685,1063 C1685,1066 1682,1068 1680,1068 C1677,1068 1675,1066 1675,1063 C1675,1066 1672,1068 1670,1068 C1667,1068 1665,1066 1665,1063 C1665,1066 1662,1068 1660,1068 C1657,1068 1655,1066 1655,1063 C1655,1066 1652,1068 1650,1068 C1647,1068 1645,1066 1645,1063 C1645,1066 1642,1068 1640,1068 C1637,1068 1635,1066 1635,1063 C1635,1066 1632,1068 1630,1068 C1627,1068 1625,1066 1625,1063 C1625,1066 1622,1068 1620,1068 C1617,1068 1615,1066 1615,1063 C1615,1066 1612,1068 1610,1068 C1607,1068 1605,1066 1605,1063 C1605,1066 1602,1068 1600,1068 C1597,1068 1595,1066 1595,1063 C1595,1066 1592,1068 1590,1068 C1587,1068 1585,1066 1585,1063 C1585,1066 1582,1068 1580,1068 C1577,1068 1575,1066 1575,1063 C1575,1066 1572,1068 1570,1068 C1567,1068 1565,1066 1565,1063 C1565,1066 1562,1068 1560,1068 C1557,1068 1555,1066 1555,1063 C1555,1066 1552,1068 1550,1068 C1547,1068 1545,1066 1545,1063 C1545,1066 1542,1068 1540,1068 C1537,1068 1535,1066 1535,1063 C1535,1066 1532,1068 1530,1068 C1527,1068 1525,1066 1525,1063 C1525,1066 1522,1068 1520,1068 C1517,1068 1515,1066 1515,1063 C1515,1066 1512,1068 1510,1068 C1507,1068 1505,1066 1505,1063 C1505,1066 1502,1068 1500,1068 C1497,1068 1495,1066 1495,1063 C1495,1066 1492,1068 1490,1068 C1487,1068 1485,1066 1485,1063 C1485,1066 1482,1068 1480,1068 C1477,1068 1475,1066 1475,1063 C1475,1066 1472,1068 1470,1068 C1467,1068 1465,1066 1465,1063 C1465,1066 1462,1068 1460,1068 C1457,1068 1455,1066 1455,1063 C1455,1066 1452,1068 1450,1068 C1447,1068 1445,1066 1445,1063 C1445,1066 1442,1068 1440,1068 C1437,1068 1435,1066 1435,1063 C1435,1066 1432,1068 1430,1068 C1427,1068 1425,1066 1425,1063 C1425,1066 1422,1068 1420,1068 C1417,1068 1415,1066 1415,1063 C1415,1066 1412,1068 1410,1068 C1407,1068 1405,1066 1405,1063 C1405,1066 1402,1068 1400,1068 C1397,1068 1395,1066 1395,1063 C1395,1066 1392,1068 1390,1068 C1387,1068 1385,1066 1385,1063 C1385,1066 1382,1068 1380,1068 C1377,1068 1375,1066 1375,1063 C1375,1066 1372,1068 1370,1068 C1367,1068 1365,1066 1365,1063 C1365,1066 1362,1068 1360,1068 C1357,1068 1355,1066 1355,1063 C1355,1066 1352,1068 1350,1068 C1347,1068 1345,1066 1345,1063 C1345,1066 1342,1068 1340,1068 C1337,1068 1335,1066 1335,1063 C1335,1066 1332,1068 1330,1068 C1327,1068 1325,1066 1325,1063 C1325,1066 1322,1068 1320,1068 C1317,1068 1315,1066 1315,1063 C1315,1066 1312,1068 1310,1068 C1307,1068 1305,1066 1305,1063 C1305,1066 1302,1068 1300,1068 C1297,1068 1295,1066 1295,1063 C1295,1066 1292,1068 1290,1068 C1287,1068 1285,1066 1285,1063 C1285,1066 1282,1068 1280,1068 C1277,1068 1275,1066 1275,1063 C1275,1066 1272,1068 1270,1068 C1267,1068 1265,1066 1265,1063 C1265,1066 1262,1068 1260,1068 C1257,1068 1255,1066 1255,1063 C1255,1066 1252,1068 1250,1068 C1247,1068 1245,1066 1245,1063 C1245,1066 1242,1068 1240,1068 C1237,1068 1235,1066 1235,1063 C1235,1066 1232,1068 1230,1068 C1227,1068 1225,1066 1225,1063 C1225,1066 1222,1068 1220,1068 C1217,1068 1215,1066 1215,1063 C1215,1066 1212,1068 1210,1068 C1207,1068 1205,1066 1205,1063 C1205,1066 1202,1068 1200,1068 C1197,1068 1195,1066 1195,1063 C1195,1066 1192,1068 1190,1068 C1187,1068 1185,1066 1185,1063 C1185,1066 1182,1068 1180,1068 C1177,1068 1175,1066 1175,1063 C1175,1066 1172,1068 1170,1068 C1167,1068 1165,1066 1165,1063 C1165,1066 1162,1068 1160,1068 C1157,1068 1155,1066 1155,1063 C1155,1066 1152,1068 1150,1068 C1147,1068 1145,1066 1145,1063 C1145,1066 1142,1068 1140,1068 C1137,1068 1135,1066 1135,1063 C1135,1066 1132,1068 1130,1068 C1127,1068 1125,1066 1125,1063 C1125,1066 1122,1068 1120,1068 C1117,1068 1115,1066 1115,1063 C1115,1066 1112,1068 1110,1068 C1107,1068 1105,1066 1105,1063 C1105,1066 1102,1068 1100,1068 C1097,1068 1095,1066 1095,1063 C1095,1066 1092,1068 1090,1068 C1087,1068 1085,1066 1085,1063 C1085,1066 1082,1068 1080,1068 C1077,1068 1075,1066 1075,1063 C1075,1066 1072,1068 1070,1068 C1067,1068 1065,1066 1065,1063 C1065,1066 1062,1068 1060,1068 C1057,1068 1055,1066 1055,1063 C1055,1066 1052,1068 1050,1068 C1047,1068 1045,1066 1045,1063 C1045,1066 1042,1068 1040,1068 C1037,1068 1035,1066 1035,1063 C1035,1066 1032,1068 1030,1068 C1027,1068 1025,1066 1025,1063 C1025,1066 1022,1068 1020,1068 C1017,1068 1015,1066 1015,1063 C1015,1066 1012,1068 1010,1068 C1007,1068 1005,1066 1005,1063 C1005,1066 1002,1068 1000,1068 C997,1068 995,1066 995,1063 C995,1066 992,1068 990,1068 C987,1068 985,1066 985,1063 C985,1066 982,1068 980,1068 C977,1068 975,1066 975,1063 C975,1066 972,1068 970,1068 C967,1068 965,1066 965,1063 C965,1066 962,1068 960,1068 C957,1068 955,1066 955,1063 C955,1066 952,1068 950,1068 C947,1068 945,1066 945,1063 C945,1066 942,1068 940,1068 C937,1068 935,1066 935,1063 C935,1066 932,1068 930,1068 C927,1068 925,1066 925,1063 C925,1066 922,1068 920,1068 C917,1068 915,1066 915,1063 C915,1066 912,1068 910,1068 C907,1068 905,1066 905,1063 C905,1066 902,1068 900,1068 C897,1068 895,1066 895,1063 C895,1066 892,1068 890,1068 C887,1068 885,1066 885,1063 C885,1066 882,1068 880,1068 C877,1068 875,1066 875,1063 C875,1066 872,1068 870,1068 C867,1068 865,1066 865,1063 C865,1066 862,1068 860,1068 C857,1068 855,1066 855,1063 C855,1066 852,1068 850,1068 C847,1068 845,1066 845,1063 C845,1066 842,1068 840,1068 C837,1068 835,1066 835,1063 C835,1066 832,1068 830,1068 C827,1068 825,1066 825,1063 C825,1066 822,1068 820,1068 C817,1068 815,1066 815,1063 C815,1066 812,1068 810,1068 C807,1068 805,1066 805,1063 C805,1066 802,1068 800,1068 C797,1068 795,1066 795,1063 C795,1066 792,1068 790,1068 C787,1068 785,1066 785,1063 C785,1066 782,1068 780,1068 C777,1068 775,1066 775,1063 C775,1066 772,1068 770,1068 C767,1068 765,1066 765,1063 C765,1066 762,1068 760,1068 C757,1068 755,1066 755,1063 C755,1066 752,1068 750,1068 C747,1068 745,1066 745,1063 C745,1066 742,1068 740,1068 C737,1068 735,1066 735,1063 C735,1066 732,1068 730,1068 C727,1068 725,1066 725,1063 C725,1066 722,1068 720,1068 C717,1068 715,1066 715,1063 C715,1066 712,1068 710,1068 C707,1068 705,1066 705,1063 C705,1066 702,1068 700,1068 C697,1068 695,1066 695,1063 C695,1066 692,1068 690,1068 C687,1068 685,1066 685,1063 C685,1066 682,1068 680,1068 C677,1068 675,1066 675,1063 C675,1066 672,1068 670,1068 C667,1068 665,1066 665,1063 C665,1066 662,1068 660,1068 C657,1068 655,1066 655,1063 C655,1066 652,1068 650,1068 C647,1068 645,1066 645,1063 C645,1066 642,1068 640,1068 C637,1068 635,1066 635,1063 C635,1066 632,1068 630,1068 C627,1068 625,1066 625,1063 C625,1066 622,1068 620,1068 C617,1068 615,1066 615,1063 C615,1066 612,1068 610,1068 C607,1068 605,1066 605,1063 C605,1066 602,1068 600,1068 C597,1068 595,1066 595,1063 C595,1066 592,1068 590,1068 C587,1068 585,1066 585,1063 C585,1066 582,1068 580,1068 C577,1068 575,1066 575,1063 C575,1066 572,1068 570,1068 C567,1068 565,1066 565,1063 C565,1066 562,1068 560,1068 C557,1068 555,1066 555,1063 C555,1066 552,1068 550,1068 C547,1068 545,1066 545,1063 C545,1066 542,1068 540,1068 C537,1068 535,1066 535,1063 C535,1066 532,1068 530,1068 C527,1068 525,1066 525,1063 C525,1066 522,1068 520,1068 C517,1068 515,1066 515,1063 C515,1066 512,1068 510,1068 C507,1068 505,1066 505,1063 C505,1066 502,1068 500,1068 C497,1068 495,1066 495,1063 C495,1066 492,1068 490,1068 C487,1068 485,1066 485,1063 C485,1066 482,1068 480,1068 C477,1068 475,1066 475,1063 C475,1066 472,1068 470,1068 C467,1068 465,1066 465,1063 C465,1066 462,1068 460,1068 C457,1068 455,1066 455,1063 C455,1066 452,1068 450,1068 C447,1068 445,1066 445,1063 C445,1066 442,1068 440,1068 C437,1068 435,1066 435,1063 C435,1066 432,1068 430,1068 C427,1068 425,1066 425,1063 C425,1066 422,1068 420,1068 C417,1068 415,1066 415,1063 C415,1066 412,1068 410,1068 C407,1068 405,1066 405,1063 C405,1066 402,1068 400,1068 C397,1068 395,1066 395,1063 C395,1066 392,1068 390,1068 C387,1068 385,1066 385,1063 C385,1066 382,1068 380,1068 C377,1068 375,1066 375,1063 C375,1066 372,1068 370,1068 C367,1068 365,1066 365,1063 C365,1066 362,1068 360,1068 C357,1068 355,1066 355,1063 C355,1066 352,1068 350,1068 C347,1068 345,1066 345,1063 C345,1066 342,1068 340,1068 C337,1068 335,1066 335,1063 C335,1066 332,1068 330,1068 C327,1068 325,1066 325,1063 C325,1066 322,1068 320,1068 C317,1068 315,1066 315,1063 C315,1066 312,1068 310,1068 C307,1068 305,1066 305,1063 C305,1066 302,1068 300,1068 C297,1068 295,1066 295,1063 C295,1066 292,1068 290,1068 C287,1068 285,1066 285,1063 C285,1066 282,1068 280,1068 C277,1068 275,1066 275,1063 C275,1066 272,1068 270,1068 C267,1068 265,1066 265,1063 C265,1066 262,1068 260,1068 C257,1068 255,1066 255,1063 C255,1066 252,1068 250,1068 C247,1068 245,1066 245,1063 C245,1066 242,1068 240,1068 C237,1068 235,1066 235,1063 C235,1066 232,1068 230,1068 C227,1068 225,1066 225,1063 C225,1066 222,1068 220,1068 C217,1068 215,1066 215,1063 C215,1066 212,1068 210,1068 C207,1068 205,1066 205,1063 C205,1066 202,1068 200,1068 C197,1068 195,1066 195,1063 C195,1066 192,1068 190,1068 C187,1068 185,1066 185,1063 C185,1066 182,1068 180,1068 C177,1068 175,1066 175,1063 C175,1066 172,1068 170,1068 C167,1068 165,1066 165,1063 C165,1066 162,1068 160,1068 C157,1068 155,1066 155,1063 C155,1066 152,1068 150,1068 C147,1068 145,1066 145,1063 C145,1066 142,1068 140,1068 C137,1068 135,1066 135,1063 C135,1066 132,1068 130,1068 C127,1068 125,1066 125,1063 C125,1066 122,1068 120,1068 C117,1068 115,1066 115,1063 C115,1066 112,1068 110,1068 C107,1068 105,1066 105,1063 C105,1066 102,1068 100,1068 C97,1068 95,1066 95,1063 C95,1066 92,1068 90,1068 C87,1068 85,1066 85,1063 C85,1066 82,1068 80,1068 C77,1068 75,1066 75,1063 C75,1066 72,1068 70,1068 C67,1068 65,1066 65,1063 C65,1066 62,1068 60,1068 C57,1068 55,1066 55,1063 C55,1066 52,1068 50,1068 C47,1068 45,1066 45,1063 C45,1066 42,1068 40,1068 C37,1068 35,1066 35,1063 C35,1066 32,1068 30,1068 C27,1068 25,1066 25,1063 C22,1063 20,1061 20,1058 C20,1055 22,1053 25,1053 C22,1053 20,1051 20,1048 C20,1045 22,1043 25,1043 C22,1043 20,1041 20,1038 C20,1035 22,1033 25,1033 C22,1033 20,1031 20,1028 C20,1025 22,1023 25,1023 C22,1023 20,1021 20,1018 C20,1015 22,1013 25,1013 C22,1013 20,1011 20,1008 C20,1005 22,1003 25,1003 C22,1003 20,1001 20,998 C20,995 22,993 25,993 C22,993 20,991 20,988 C20,985 22,983 25,983 C22,983 20,981 20,978 C20,975 22,973 25,973 C22,973 20,971 20,968 C20,965 22,963 25,963 C22,963 20,961 20,958 C20,955 22,953 25,953 C22,953 20,951 20,948 C20,945 22,943 25,943 C22,943 20,941 20,938 C20,935 22,933 25,933 C22,933 20,931 20,928 C20,925 22,923 25,923 C22,923 20,921 20,918 C20,915 22,913 25,913 C22,913 20,911 20,908 C20,905 22,903 25,903 C22,903 20,901 20,898 C20,895 22,893 25,893 C22,893 20,891 20,888 C20,885 22,883 25,883 C22,883 20,881 20,878 C20,875 22,873 25,873 C22,873 20,871 20,868 C20,865 22,863 25,863 C22,863 20,861 20,858 C20,855 22,853 25,853 C22,853 20,851 20,848 C20,845 22,843 25,843 C22,843 20,841 20,838 C20,835 22,833 25,833 C22,833 20,831 20,828 C20,825 22,823 25,823 C22,823 20,821 20,818 C20,815 22,813 25,813 C22,813 20,811 20,808 C20,805 22,803 25,803 C22,803 20,801 20,798 C20,795 22,793 25,793 C22,793 20,791 20,788 C20,785 22,783 25,783 C22,783 20,781 20,778 C20,775 22,773 25,773 C22,773 20,771 20,768 C20,765 22,763 25,763 C22,763 20,761 20,758 C20,755 22,753 25,753 C22,753 20,751 20,748 C20,745 22,743 25,743 C22,743 20,741 20,738 C20,735 22,733 25,733 C22,733 20,731 20,728 C20,725 22,723 25,723 C22,723 20,721 20,718 C20,715 22,713 25,713 C22,713 20,711 20,708 C20,705 22,703 25,703 C22,703 20,701 20,698 C20,695 22,693 25,693 C22,693 20,691 20,688 C20,685 22,683 25,683 C22,683 20,681 20,678 C20,675 22,673 25,673 C22,673 20,671 20,668 C20,665 22,663 25,663 C22,663 20,661 20,658 C20,655 22,653 25,653 C22,653 20,651 20,648 C20,645 22,643 25,643 C22,643 20,641 20,638 C20,635 22,633 25,633 C22,633 20,631 20,628 C20,625 22,623 25,623 C22,623 20,621 20,618 C20,615 22,613 25,613 C22,613 20,611 20,608 C20,605 22,603 25,603 C22,603 20,601 20,598 C20,595 22,593 25,593 C22,593 20,591 20,588 C20,585 22,583 25,583 C22,583 20,581 20,578 C20,575 22,573 25,573 C22,573 20,571 20,568 C20,565 22,563 25,563 C22,563 20,561 20,558 C20,555 22,553 25,553 C22,553 20,551 20,548 C20,545 22,543 25,543 C22,543 20,541 20,538 C20,535 22,533 25,533 C22,533 20,531 20,528 C20,525 22,523 25,523 C22,523 20,521 20,518 C20,515 22,513 25,513 C22,513 20,511 20,508 C20,505 22,503 25,503 C22,503 20,501 20,498 C20,495 22,493 25,493 C22,493 20,491 20,488 C20,485 22,483 25,483 C22,483 20,481 20,478 C20,475 22,473 25,473 C22,473 20,471 20,468 C20,465 22,463 25,463 C22,463 20,461 20,458 C20,455 22,453 25,453 C22,453 20,451 20,448 C20,445 22,443 25,443 C22,443 20,441 20,438 C20,435 22,433 25,433 C22,433 20,431 20,428 C20,425 22,423 25,423 C22,423 20,421 20,418 C20,415 22,413 25,413 C22,413 20,411 20,408 C20,405 22,403 25,403 C22,403 20,401 20,398 C20,395 22,393 25,393 C22,393 20,391 20,388 C20,385 22,383 25,383 C22,383 20,381 20,378 C20,375 22,373 25,373 C22,373 20,371 20,368 C20,365 22,363 25,363 C22,363 20,361 20,358 C20,355 22,353 25,353 C22,353 20,351 20,348 C20,345 22,343 25,343 C22,343 20,341 20,338 C20,335 22,333 25,333 C22,333 20,331 20,328 C20,325 22,323 25,323 C22,323 20,321 20,318 C20,315 22,313 25,313 C22,313 20,311 20,308 C20,305 22,303 25,303 C22,303 20,301 20,298 C20,295 22,293 25,293 C22,293 20,291 20,288 C20,285 22,283 25,283 C22,283 20,281 20,278 C20,275 22,273 25,273 C22,273 20,271 20,268 C20,265 22,263 25,263 C22,263 20,261 20,258 C20,255 22,253 25,253 C22,253 20,251 20,248 C20,245 22,243 25,243 C22,243 20,241 20,238 C20,235 22,233 25,233 C22,233 20,231 20,228 C20,225 22,223 25,223 C22,223 20,221 20,218 C20,215 22,213 25,213 C22,213 20,211 20,208 C20,205 22,203 25,203 C22,203 20,201 20,198 C20,195 22,193 25,193 C22,193 20,191 20,188 C20,185 22,183 25,183 C22,183 20,181 20,178 C20,175 22,173 25,173 C22,173 20,171 20,168 C20,165 22,163 25,163 C22,163 20,161 20,158 C20,155 22,153 25,153 C22,153 20,151 20,148 C20,145 22,143 25,143 C22,143 20,141 20,138 C20,135 22,133 25,133 C22,133 20,131 20,128 C20,125 22,123 25,123 C22,123 20,121 20,118 C20,115 22,113 25,113 " fill="#FFFFFF" filter="url(#f1)" style="stroke: #000000; stroke-width: 2.0;"/><text fill="#000000" font-family="sans-serif" font-size="14" font-weight="bold" lengthAdjust="spacingAndGlyphs" textLength="166" x="1049.5" y="132.5352">Terradue Private Cloud</text><polygon fill="#FFFFFF" filter="url(#f1)" points="365,160,375,150,555,150,555,374,545,384,365,384,365,160" style="stroke: #000000; stroke-width: 2.0;"/><line style="stroke: #000000; stroke-width: 2.0;" x1="545" x2="554" y1="160" y2="151"/><line style="stroke: #000000; stroke-width: 2.0;" x1="365" x2="545" y1="160" y2="160"/><line style="stroke: #000000; stroke-width: 2.0;" x1="545" x2="545" y1="160" y2="384"/><text fill="#000000" font-family="sans-serif" font-size="14" font-weight="bold" lengthAdjust="spacingAndGlyphs" textLength="40" x="436" y="176.5352">Proxy</text><polygon fill="#FFFFFF" filter="url(#f1)" points="2047,301,2057,291,2219,291,2219,630,2209,640,2047,640,2047,301" style="stroke: #000000; stroke-width: 2.0;"/><line style="stroke: #000000; stroke-width: 2.0;" x1="2209" x2="2218" y1="301" y2="292"/><line style="stroke: #000000; stroke-width: 2.0;" x1="2047" x2="2209" y1="301" y2="301"/><line style="stroke: #000000; stroke-width: 2.0;" x1="2209" x2="2209" y1="301" y2="640"/><text fill="#000000" font-family="sans-serif" font-size="14" font-weight="bold" lengthAdjust="spacingAndGlyphs" textLength="95" x="2081.5" y="317.5352">VPN Gateway</text><polygon fill="#FFFFFF" filter="url(#f1)" points="46,557,56,547,282,547,282,840,272,850,46,850,46,557" style="stroke: #000000; stroke-width: 2.0;"/><line style="stroke: #000000; stroke-width: 2.0;" x1="272" x2="281" y1="557" y2="548"/><line style="stroke: #000000; stroke-width: 2.0;" x1="46" x2="272" y1="557" y2="557"/><line style="stroke: #000000; stroke-width: 2.0;" x1="272" x2="272" y1="557" y2="850"/><text fill="#000000" font-family="sans-serif" font-size="14" font-weight="bold" lengthAdjust="spacingAndGlyphs" textLength="120" x="100" y="573.5352">Cloud Controller</text><rect fill="#FFFFFF" filter="url(#f1)" height="612" style="stroke: #000000; stroke-width: 2.0;" width="1717" x="306" y="434"/><path d="M412,435 L412,443.4883 L402,453.4883 L306,453.4883 " fill="#FFFFFF" style="stroke: #000000; stroke-width: 2.0;"/><text fill="#000000" font-family="sans-serif" font-size="14" font-weight="bold" lengthAdjust="spacingAndGlyphs" textLength="96" x="309" y="448.5352">Virtual Hosts</text><polygon fill="#FFFFFF" filter="url(#f1)" points="330,478,455,478,462,500.4883,864,500.4883,864,898,330,898,330,478" style="stroke: #000000; stroke-width: 2.0;"/><line style="stroke: #000000; stroke-width: 2.0;" x1="330" x2="462" y1="500.4883" y2="500.4883"/><text fill="#000000" font-family="sans-serif" font-size="14" font-weight="bold" lengthAdjust="spacingAndGlyphs" textLength="119" x="334" y="493.5352">Terradue Service</text><polygon fill="#FFFFFF" filter="url(#f1)" points="354,532,364,522,566,522,566,864,556,874,354,874,354,532" style="stroke: #000000; stroke-width: 2.0;"/><line style="stroke: #000000; stroke-width: 2.0;" x1="556" x2="565" y1="532" y2="523"/><line style="stroke: #000000; stroke-width: 2.0;" x1="354" x2="556" y1="532" y2="532"/><line style="stroke: #000000; stroke-width: 2.0;" x1="556" x2="556" y1="532" y2="874"/><text fill="#000000" font-family="sans-serif" font-size="14" font-style="italic" lengthAdjust="spacingAndGlyphs" textLength="73" x="419.5" y="548.5352">&lt;&lt; VM &gt;&gt;</text><text fill="#000000" font-family="sans-serif" font-size="14" font-weight="bold" lengthAdjust="spacingAndGlyphs" textLength="78" x="417" y="565.0234">Web Portal</text><path d="M410,757 C410,747 460,747 460,747 C460,747 510,747 510,757 L510,840 C510,850 460,850 460,850 C460,850 410,850 410,840 L410,757 " fill="#FFFFFF" filter="url(#f1)" style="stroke: #000000; stroke-width: 2.0;"/><path d="M410,757 C410,767 460,767 460,767 C460,767 510,767 510,757 " fill="none" style="stroke: #000000; stroke-width: 2.0;"/><text fill="#000000" font-family="sans-serif" font-size="14" font-weight="bold" lengthAdjust="spacingAndGlyphs" textLength="43" x="438.5" y="781.5352">MySql</text><polygon fill="#FFFFFF" filter="url(#f1)" points="590,532,600,522,840,522,840,864,830,874,590,874,590,532" style="stroke: #000000; stroke-width: 2.0;"/><line style="stroke: #000000; stroke-width: 2.0;" x1="830" x2="839" y1="532" y2="523"/><line style="stroke: #000000; stroke-width: 2.0;" x1="590" x2="830" y1="532" y2="532"/><line style="stroke: #000000; stroke-width: 2.0;" x1="830" x2="830" y1="532" y2="874"/><text fill="#000000" font-family="sans-serif" font-size="14" font-style="italic" lengthAdjust="spacingAndGlyphs" textLength="73" x="674.5" y="548.5352">&lt;&lt; VM &gt;&gt;</text><text fill="#000000" font-family="sans-serif" font-size="14" font-weight="bold" lengthAdjust="spacingAndGlyphs" textLength="72" x="675" y="565.0234">Catalogue</text><path d="M658,757 C658,747 715,747 715,747 C715,747 772,747 772,757 L772,840 C772,850 715,850 715,850 C715,850 658,850 658,840 L658,757 " fill="#FFFFFF" filter="url(#f1)" style="stroke: #000000; stroke-width: 2.0;"/><path d="M658,757 C658,767 715,767 715,767 C715,767 772,767 772,757 " fill="none" style="stroke: #000000; stroke-width: 2.0;"/><text fill="#000000" font-family="sans-serif" font-size="14" font-weight="bold" lengthAdjust="spacingAndGlyphs" textLength="93" x="668.5" y="781.5352">ElasticSearch</text><polygon fill="#FFFFFF" filter="url(#f1)" points="888,697,934,697,941,719.4883,1999,719.4883,1999,1022,888,1022,888,697" style="stroke: #000000; stroke-width: 2.0;"/><line style="stroke: #000000; stroke-width: 2.0;" x1="888" x2="941" y1="719.4883" y2="719.4883"/><text fill="#000000" font-family="sans-serif" font-size="14" font-weight="bold" lengthAdjust="spacingAndGlyphs" textLength="40" x="892" y="712.5352">Users</text><polygon fill="#FFFFFF" filter="url(#f1)" points="912,751,922,741,1468,741,1468,988,1458,998,912,998,912,751" style="stroke: #000000; stroke-width: 2.0;"/><line style="stroke: #000000; stroke-width: 2.0;" x1="1458" x2="1467" y1="751" y2="742"/><line style="stroke: #000000; stroke-width: 2.0;" x1="912" x2="1458" y1="751" y2="751"/><line style="stroke: #000000; stroke-width: 2.0;" x1="1458" x2="1458" y1="751" y2="998"/><text fill="#000000" font-family="sans-serif" font-size="14" font-style="italic" lengthAdjust="spacingAndGlyphs" textLength="73" x="1149.5" y="767.5352">&lt;&lt; VM &gt;&gt;</text><text fill="#000000" font-family="sans-serif" font-size="14" font-weight="bold" lengthAdjust="spacingAndGlyphs" textLength="184" x="1094" y="784.0234">Developer Cloud Sandbox</text><polygon fill="#FFFFFF" filter="url(#f1)" points="1492,751,1502,741,1975,741,1975,988,1965,998,1492,998,1492,751" style="stroke: #000000; stroke-width: 2.0;"/><line style="stroke: #000000; stroke-width: 2.0;" x1="1965" x2="1974" y1="751" y2="742"/><line style="stroke: #000000; stroke-width: 2.0;" x1="1492" x2="1965" y1="751" y2="751"/><line style="stroke: #000000; stroke-width: 2.0;" x1="1965" x2="1965" y1="751" y2="998"/><text fill="#000000" font-family="sans-serif" font-size="14" font-style="italic" lengthAdjust="spacingAndGlyphs" textLength="73" x="1693" y="767.5352">&lt;&lt; VM &gt;&gt;</text><text fill="#000000" font-family="sans-serif" font-size="14" font-weight="bold" lengthAdjust="spacingAndGlyphs" textLength="132" x="1663.5" y="784.0234">ESA CloudToolbox</text><rect fill="#FEFECE" filter="url(#f1)" height="36.4883" style="stroke: #A80036; stroke-width: 1.5;" width="146" x="387" y="191"/><rect fill="#FEFECE" height="5" style="stroke: #A80036; stroke-width: 1.5;" width="10" x="382" y="196"/><rect fill="#FEFECE" height="5" style="stroke: #A80036; stroke-width: 1.5;" width="10" x="382" y="217.4883"/><text fill="#000000" font-family="sans-serif" font-size="14" lengthAdjust="spacingAndGlyphs" textLength="126" x="397" y="214.5352">HTTP Proxy Server</text><rect fill="#FEFECE" filter="url(#f1)" height="36.4883" style="stroke: #A80036; stroke-width: 1.5;" width="158" x="381" y="332"/><rect fill="#FEFECE" height="5" style="stroke: #A80036; stroke-width: 1.5;" width="10" x="376" y="337"/><rect fill="#FEFECE" height="5" style="stroke: #A80036; stroke-width: 1.5;" width="10" x="376" y="358.4883"/><text fill="#000000" font-family="sans-serif" font-size="14" lengthAdjust="spacingAndGlyphs" textLength="138" x="391" y="355.5352">Web Service Firewall</text><rect fill="#FEFECE" filter="url(#f1)" height="36.4883" style="stroke: #A80036; stroke-width: 1.5;" width="131" x="2064.75" y="332"/><rect fill="#FEFECE" height="5" style="stroke: #A80036; stroke-width: 1.5;" width="10" x="2059.75" y="337"/><rect fill="#FEFECE" height="5" style="stroke: #A80036; stroke-width: 1.5;" width="10" x="2059.75" y="358.4883"/><text fill="#000000" font-family="sans-serif" font-size="14" lengthAdjust="spacingAndGlyphs" textLength="111" x="2074.75" y="355.5352">OpenVPN Server</text><rect fill="#FEFECE" filter="url(#f1)" height="36.4883" style="stroke: #A80036; stroke-width: 1.5;" width="118" x="2063" y="588"/><rect fill="#FEFECE" height="5" style="stroke: #A80036; stroke-width: 1.5;" width="10" x="2058" y="593"/><rect fill="#FEFECE" height="5" style="stroke: #A80036; stroke-width: 1.5;" width="10" x="2058" y="614.4883"/><text fill="#000000" font-family="sans-serif" font-size="14" lengthAdjust="spacingAndGlyphs" textLength="98" x="2073" y="611.5352">Cloud Firewall</text><rect fill="#FEFECE" filter="url(#f1)" height="36.4883" style="stroke: #A80036; stroke-width: 1.5;" width="203" x="62.75" y="588"/><rect fill="#FEFECE" height="5" style="stroke: #A80036; stroke-width: 1.5;" width="10" x="57.75" y="593"/><rect fill="#FEFECE" height="5" style="stroke: #A80036; stroke-width: 1.5;" width="10" x="57.75" y="614.4883"/><text fill="#000000" font-family="sans-serif" font-size="14" lengthAdjust="spacingAndGlyphs" textLength="183" x="72.75" y="611.5352">HTTP Sunstone Dashboard</text><rect fill="#FEFECE" filter="url(#f1)" height="36.4883" style="stroke: #A80036; stroke-width: 1.5;" width="105" x="147.75" y="798"/><rect fill="#FEFECE" height="5" style="stroke: #A80036; stroke-width: 1.5;" width="10" x="142.75" y="803"/><rect fill="#FEFECE" height="5" style="stroke: #A80036; stroke-width: 1.5;" width="10" x="142.75" y="824.4883"/><text fill="#000000" font-family="sans-serif" font-size="14" lengthAdjust="spacingAndGlyphs" textLength="85" x="157.75" y="821.5352">OpenNebula</text><rect fill="#BC8F8F" filter="url(#f1)" height="52.9766" style="stroke: #000000; stroke-width: 1.5;" width="180" x="370" y="579.5"/><rect fill="#BC8F8F" height="5" style="stroke: #000000; stroke-width: 1.5;" width="10" x="365" y="584.5"/><rect fill="#BC8F8F" height="5" style="stroke: #000000; stroke-width: 1.5;" width="10" x="365" y="622.4766"/><text fill="#000000" font-family="sans-serif" font-size="14" font-style="italic" lengthAdjust="spacingAndGlyphs" textLength="74" x="423" y="603.0352">&lt;&lt; tep &gt;&gt;</text><text fill="#000000" font-family="sans-serif" font-size="14" lengthAdjust="spacingAndGlyphs" textLength="160" x="380" y="619.5234">HTTP Web Portal Server</text><rect fill="#FEFECE" filter="url(#f1)" height="36.4883" style="stroke: #A80036; stroke-width: 1.5;" width="68" x="426" y="798"/><rect fill="#FEFECE" height="5" style="stroke: #A80036; stroke-width: 1.5;" width="10" x="421" y="803"/><rect fill="#FEFECE" height="5" style="stroke: #A80036; stroke-width: 1.5;" width="10" x="421" y="824.4883"/><text fill="#000000" font-family="sans-serif" font-size="14" lengthAdjust="spacingAndGlyphs" textLength="48" x="436" y="821.5352">DB Tep</text><rect fill="#BC8F8F" filter="url(#f1)" height="52.9766" style="stroke: #000000; stroke-width: 1.5;" width="217" x="606.75" y="579.5"/><rect fill="#BC8F8F" height="5" style="stroke: #000000; stroke-width: 1.5;" width="10" x="601.75" y="584.5"/><rect fill="#BC8F8F" height="5" style="stroke: #000000; stroke-width: 1.5;" width="10" x="601.75" y="622.4766"/><text fill="#000000" font-family="sans-serif" font-size="14" font-style="italic" lengthAdjust="spacingAndGlyphs" textLength="74" x="678.25" y="603.0352">&lt;&lt; tep &gt;&gt;</text><text fill="#000000" font-family="sans-serif" font-size="14" lengthAdjust="spacingAndGlyphs" textLength="197" x="616.75" y="619.5234">HTTP OpenSearch Catalogue</text><rect fill="#FEFECE" filter="url(#f1)" height="36.4883" style="stroke: #A80036; stroke-width: 1.5;" width="82" x="674" y="798"/><rect fill="#FEFECE" height="5" style="stroke: #A80036; stroke-width: 1.5;" width="10" x="669" y="803"/><rect fill="#FEFECE" height="5" style="stroke: #A80036; stroke-width: 1.5;" width="10" x="669" y="824.4883"/><text fill="#000000" font-family="sans-serif" font-size="14" lengthAdjust="spacingAndGlyphs" textLength="62" x="684" y="821.5352">Index EO</text><rect fill="#FEFECE" filter="url(#f1)" height="36.4883" style="stroke: #A80036; stroke-width: 1.5;" width="200" x="1123" y="798"/><rect fill="#FEFECE" height="5" style="stroke: #A80036; stroke-width: 1.5;" width="10" x="1118" y="803"/><rect fill="#FEFECE" height="5" style="stroke: #A80036; stroke-width: 1.5;" width="10" x="1118" y="824.4883"/><text fill="#000000" font-family="sans-serif" font-size="14" lengthAdjust="spacingAndGlyphs" textLength="180" x="1133" y="821.5352">HTTP Sandbox Dashboard</text><rect fill="#FEFECE" filter="url(#f1)" height="36.4883" style="stroke: #A80036; stroke-width: 1.5;" width="83" x="1181.75" y="946"/><rect fill="#FEFECE" height="5" style="stroke: #A80036; stroke-width: 1.5;" width="10" x="1176.75" y="951"/><rect fill="#FEFECE" height="5" style="stroke: #A80036; stroke-width: 1.5;" width="10" x="1176.75" y="972.4883"/><text fill="#000000" font-family="sans-serif" font-size="14" lengthAdjust="spacingAndGlyphs" textLength="63" x="1191.75" y="969.5352">User App</text><rect fill="#FEFECE" filter="url(#f1)" height="36.4883" style="stroke: #A80036; stroke-width: 1.5;" width="160" x="928" y="798"/><rect fill="#FEFECE" height="5" style="stroke: #A80036; stroke-width: 1.5;" width="10" x="923" y="803"/><rect fill="#FEFECE" height="5" style="stroke: #A80036; stroke-width: 1.5;" width="10" x="923" y="824.4883"/><text fill="#000000" font-family="sans-serif" font-size="14" lengthAdjust="spacingAndGlyphs" textLength="140" x="938" y="821.5352">Sandbox WPS Server</text><rect fill="#FEFECE" filter="url(#f1)" height="36.4883" style="stroke: #A80036; stroke-width: 1.5;" width="93" x="1358.75" y="798"/><rect fill="#FEFECE" height="5" style="stroke: #A80036; stroke-width: 1.5;" width="10" x="1353.75" y="803"/><rect fill="#FEFECE" height="5" style="stroke: #A80036; stroke-width: 1.5;" width="10" x="1353.75" y="824.4883"/><text fill="#000000" font-family="sans-serif" font-size="14" lengthAdjust="spacingAndGlyphs" textLength="73" x="1368.75" y="821.5352">SSH Server</text><rect fill="#FEFECE" filter="url(#f1)" height="36.4883" style="stroke: #A80036; stroke-width: 1.5;" width="96" x="1745" y="798"/><rect fill="#FEFECE" height="5" style="stroke: #A80036; stroke-width: 1.5;" width="10" x="1740" y="803"/><rect fill="#FEFECE" height="5" style="stroke: #A80036; stroke-width: 1.5;" width="10" x="1740" y="824.4883"/><text fill="#000000" font-family="sans-serif" font-size="14" lengthAdjust="spacingAndGlyphs" textLength="76" x="1755" y="821.5352">VNC Server</text><rect fill="#FEFECE" filter="url(#f1)" height="36.4883" style="stroke: #A80036; stroke-width: 1.5;" width="150" x="1718" y="946"/><rect fill="#FEFECE" height="5" style="stroke: #A80036; stroke-width: 1.5;" width="10" x="1713" y="951"/><rect fill="#FEFECE" height="5" style="stroke: #A80036; stroke-width: 1.5;" width="10" x="1713" y="972.4883"/><text fill="#000000" font-family="sans-serif" font-size="14" lengthAdjust="spacingAndGlyphs" textLength="130" x="1728" y="969.5352">Sentinel-1 toolbox</text><rect fill="#FEFECE" filter="url(#f1)" height="36.4883" style="stroke: #A80036; stroke-width: 1.5;" width="55" x="1903.75" y="946"/><rect fill="#FEFECE" height="5" style="stroke: #A80036; stroke-width: 1.5;" width="10" x="1898.75" y="951"/><rect fill="#FEFECE" height="5" style="stroke: #A80036; stroke-width: 1.5;" width="10" x="1898.75" y="972.4883"/><text fill="#000000" font-family="sans-serif" font-size="14" lengthAdjust="spacingAndGlyphs" textLength="35" x="1913.75" y="969.5352">NEST</text><rect fill="#FEFECE" filter="url(#f1)" height="36.4883" style="stroke: #A80036; stroke-width: 1.5;" width="74" x="1508" y="946"/><rect fill="#FEFECE" height="5" style="stroke: #A80036; stroke-width: 1.5;" width="10" x="1503" y="951"/><rect fill="#FEFECE" height="5" style="stroke: #A80036; stroke-width: 1.5;" width="10" x="1503" y="972.4883"/><text fill="#000000" font-family="sans-serif" font-size="14" lengthAdjust="spacingAndGlyphs" textLength="54" x="1518" y="969.5352">GAMMA</text><rect fill="#FEFECE" filter="url(#f1)" height="36.4883" style="stroke: #A80036; stroke-width: 1.5;" width="66" x="1617" y="946"/><rect fill="#FEFECE" height="5" style="stroke: #A80036; stroke-width: 1.5;" width="10" x="1612" y="951"/><rect fill="#FEFECE" height="5" style="stroke: #A80036; stroke-width: 1.5;" width="10" x="1612" y="972.4883"/><text fill="#000000" font-family="sans-serif" font-size="14" lengthAdjust="spacingAndGlyphs" textLength="46" x="1627" y="969.5352">Matlab</text><ellipse cx="334.25" cy="17" fill="#FEFECE" filter="url(#f1)" rx="8" ry="8" style="stroke: #A80036; stroke-width: 2.0;"/><text fill="#000000" font-family="sans-serif" font-size="14" lengthAdjust="spacingAndGlyphs" textLength="241" x="213.75" y="39.5352">https://geohazards-tep.eo.esa.int/</text><ellipse cx="2359" cy="201" fill="#FEFECE" filter="url(#f1)" rx="8" ry="8" style="stroke: #A80036; stroke-width: 2.0;"/><text fill="#000000" font-family="sans-serif" font-size="14" lengthAdjust="spacingAndGlyphs" textLength="200" x="2259" y="223.5352">https://access.terradue.com/</text><ellipse cx="587" cy="17" fill="#FEFECE" filter="url(#f1)" rx="8" ry="8" style="stroke: #A80036; stroke-width: 2.0;"/><text fill="#000000" font-family="sans-serif" font-size="14" lengthAdjust="spacingAndGlyphs" textLength="194" x="490" y="39.5352">https://cloud.terradue.com/</text><path d="M460,227.044 C460,253.722 460,305.053 460,331.816 " fill="none" style="stroke: #A80036; stroke-width: 1.0;"/><path d="M2113.74,368.124 C2106.49,376.924 2098.76,388.253 2095,400 C2073.47,467.174 2100.9,552.006 2114.81,587.812 " fill="none" style="stroke: #A80036; stroke-width: 1.0; stroke-dasharray: 7.0,7.0;"/><text fill="#000000" font-family="sans-serif" font-size="13" lengthAdjust="spacingAndGlyphs" textLength="88" x="2096" y="413.5684">dynamic rules</text><path d="M2160.73,368.037 C2172.12,376.106 2183.77,386.877 2190,400 C2193.43,407.228 2191.39,410.121 2190,418 C2178.52,483.151 2146.17,555.47 2130.59,587.777 " fill="none" style="stroke: #A80036; stroke-width: 1.0;"/><path d="M166.946,624.022 C173.697,663.025 190.223,758.514 197.013,797.743 " fill="none" style="stroke: #A80036; stroke-width: 1.0;"/><text fill="#000000" font-family="sans-serif" font-size="13" lengthAdjust="spacingAndGlyphs" textLength="58" x="178" y="676.5684">XML-RPC</text><path d="M460,632.505 C460,675.463 460,761.14 460,797.757 " fill="none" style="stroke: #A80036; stroke-width: 1.0;"/><path d="M715,632.505 C715,675.463 715,761.14 715,797.757 " fill="none" style="stroke: #A80036; stroke-width: 1.0;"/><path d="M1223,834.034 C1223,862.016 1223,917.417 1223,945.622 " fill="none" style="stroke: #A80036; stroke-width: 1.0;"/><path d="M1023.57,834.021 C1041.76,853.224 1073.42,884.569 1105,906 C1128.91,922.224 1158.14,936.379 1181.52,946.525 " fill="none" style="stroke: #A80036; stroke-width: 1.0;"/><path d="M1395.98,834.008 C1384.94,853.491 1364.65,885.374 1340,906 C1317.64,924.703 1288.11,939.03 1264.31,948.643 " fill="none" style="stroke: #A80036; stroke-width: 1.0;"/><path d="M1793,834.034 C1793,862.016 1793,917.417 1793,945.622 " fill="none" style="stroke: #A80036; stroke-width: 1.0;"/><path d="M1809.1,834.034 C1835.55,862.016 1887.91,917.417 1914.57,945.622 " fill="none" style="stroke: #A80036; stroke-width: 1.0;"/><path d="M1764.07,834.034 C1716.41,862.091 1621.92,917.715 1574.13,945.849 " fill="none" style="stroke: #A80036; stroke-width: 1.0;"/><path d="M1776.32,834.034 C1748.91,862.016 1694.65,917.417 1667.02,945.622 " fill="none" style="stroke: #A80036; stroke-width: 1.0;"/><path d="M537.365,632.571 C554.61,637.943 572.864,643.376 590,648 C670.053,669.6 694.283,660.103 772,689 C852.32,718.865 939.448,771.129 981.851,797.993 " fill="none" style="stroke: #A80036; stroke-width: 1.0;"/><text fill="#000000" font-family="sans-serif" font-size="13" lengthAdjust="spacingAndGlyphs" textLength="33" x="748" y="676.5684">HTTP</text><path d="M428.119,632.505 C374.421,675.463 267.325,761.14 221.554,797.757 " fill="none" style="stroke: #A80036; stroke-width: 1.0;"/><text fill="#000000" font-family="sans-serif" font-size="13" lengthAdjust="spacingAndGlyphs" textLength="58" x="385" y="676.5684">XML-RPC</text><path d="M460,368.06 C460,411.662 460,527.388 460,579.24 " fill="none" style="stroke: #A80036; stroke-width: 1.0;"/><text fill="#000000" font-family="sans-serif" font-size="13" lengthAdjust="spacingAndGlyphs" textLength="33" x="461" y="413.5684">HTTP</text><path d="M488.508,368.266 C510.754,382.405 541.832,403.657 566,426 C619.145,475.133 670.817,543.071 697.093,579.495 " fill="none" style="stroke: #A80036; stroke-width: 1.0;"/><text fill="#000000" font-family="sans-serif" font-size="13" lengthAdjust="spacingAndGlyphs" textLength="33" x="557" y="413.5684">HTTP</text><path d="M433.551,368.207 C411.641,382.813 379.998,404.731 354,426 C286.303,481.384 212.689,554.998 180.557,587.876 " fill="none" style="stroke: #A80036; stroke-width: 1.0;"/><text fill="#000000" font-family="sans-serif" font-size="13" lengthAdjust="spacingAndGlyphs" textLength="33" x="387" y="413.5684">HTTP</text><path d="M2095.08,624.022 C2033.38,663.025 1882.35,758.514 1820.3,797.743 " fill="none" style="stroke: #A80036; stroke-width: 1.0;"/><path d="M2062.94,608.642 C1925.2,613.419 1587.21,630.894 1492,689 C1449.79,714.758 1422.99,769.601 1411.49,797.667 " fill="none" style="stroke: #A80036; stroke-width: 1.0;"/><text fill="#000000" font-family="sans-serif" font-size="13" lengthAdjust="spacingAndGlyphs" textLength="24" x="1552" y="676.5684">SSH</text><path d="M2062.96,607.235 C1902.92,608.798 1464.58,619.482 1341,689 C1292.68,716.184 1252.57,769.88 1234.04,797.573 " fill="none" style="stroke: #A80036; stroke-width: 1.0;"/><text fill="#000000" font-family="sans-serif" font-size="13" lengthAdjust="spacingAndGlyphs" textLength="33" x="1401" y="676.5684">HTTP</text><path d="M345.182,42.15 C368.851,76.34 423.833,155.758 448.112,190.828 " fill="none" style="stroke: #A80036; stroke-width: 1.0;"/><text fill="#000000" font-family="sans-serif" font-size="13" lengthAdjust="spacingAndGlyphs" textLength="40" x="376" y="85.5684">HTTPS</text><path d="M2332.28,226.217 C2288.75,252.643 2202.9,304.753 2158.34,331.801 " fill="none" style="stroke: #A80036; stroke-width: 1.0;"/><text fill="#000000" font-family="sans-serif" font-size="13" lengthAdjust="spacingAndGlyphs" textLength="40" x="2279" y="270.5684">HTTPS</text><path d="M575.73,42.15 C551.872,76.34 496.454,155.758 471.983,190.828 " fill="none" style="stroke: #A80036; stroke-width: 1.0;"/><text fill="#000000" font-family="sans-serif" font-size="13" lengthAdjust="spacingAndGlyphs" textLength="40" x="554" y="85.5684">HTTPS</text></g></svg>