<?xml version="1.0" encoding="UTF-8" standalone="yes"?><svg xmlns="http://www.w3.org/2000/svg" xmlns:xlink="http://www.w3.org/1999/xlink" height="332pt" style="width:521px;height:332px;" version="1.1" viewBox="0 0 521 332" width="521pt"><defs><filter height="300%" id="f1" width="300%" x="-1" y="-1"><feGaussianBlur result="blurOut" stdDeviation="2.0"/><feColorMatrix in="blurOut" result="blurOut2" type="matrix" values="0 0 0 0 0 0 0 0 0 0 0 0 0 0 0 0 0 0 .4 0"/><feOffset dx="4.0" dy="4.0" in="blurOut2" result="blurOut3"/><feBlend in="SourceGraphic" in2="blurOut3" mode="normal"/></filter></defs><g><polygon fill="#FFFFFF" filter="url(#f1)" points="22,24,107,24,114,43.6179,514,43.6179,514,325,22,325,22,24" style="stroke: #000000; stroke-width: 2.0;"/><line style="stroke: #000000; stroke-width: 2.0;" x1="22" x2="114" y1="43.6179" y2="43.6179"/><text fill="#000000" font-family="Arial" font-size="11" lengthAdjust="spacingAndGlyphs" textLength="79" x="25" y="37.4829">Terradue::Portal</text><a target="_top" xlink:href="../information/classes/class_terradue_1_1_portal_1_1_scheduler.html" xlink:title="../information/classes/class_terradue_1_1_portal_1_1_scheduler.html"><rect fill="#EEEBDC" filter="url(#f1)" height="85.14" style="stroke: #919871; stroke-width: 1.5;" width="141" x="272" y="57.5"/><ellipse cx="314" cy="73.5" fill="#ADD1B2" rx="11" ry="11" style="stroke: #919871; stroke-width: 1.0;"/><path d="M316.3438,69.1719 C315.4063,68.7344 314.8125,68.5938 313.9375,68.5938 C311.3125,68.5938 309.3125,70.6719 309.3125,73.3906 L309.3125,74.5156 C309.3125,77.0938 311.4219,78.9844 314.3125,78.9844 C315.5313,78.9844 316.6875,78.6875 317.4375,78.1406 C318.0156,77.7344 318.3438,77.2813 318.3438,76.8906 C318.3438,76.4375 317.9531,76.0469 317.4844,76.0469 C317.2656,76.0469 317.0625,76.125 316.875,76.3125 C316.4219,76.7969 316.4219,76.7969 316.2344,76.8906 C315.8125,77.1563 315.125,77.2813 314.3594,77.2813 C312.3125,77.2813 311.0156,76.1875 311.0156,74.4844 L311.0156,73.3906 C311.0156,71.6094 312.2656,70.2969 314,70.2969 C314.5781,70.2969 315.1875,70.4531 315.6563,70.7031 C316.1406,70.9844 316.3125,71.2031 316.4063,71.6094 C316.4688,72.0156 316.5,72.1406 316.6406,72.2656 C316.7813,72.4063 317.0156,72.5156 317.2344,72.5156 C317.5,72.5156 317.7656,72.375 317.9375,72.1563 C318.0469,72 318.0781,71.8125 318.0781,71.3906 L318.0781,69.9688 C318.0781,69.5313 318.0625,69.4063 317.9688,69.25 C317.8125,68.9844 317.5313,68.8438 317.2344,68.8438 C316.9375,68.8438 316.7344,68.9375 316.5156,69.25 L316.3438,69.1719 Z "/><text fill="#000000" font-family="Arial" font-size="11" lengthAdjust="spacingAndGlyphs" textLength="49" x="334" y="77.174">Scheduler</text><line style="stroke: #919871; stroke-width: 1.5;" x1="273" x2="412" y1="89.5" y2="89.5"/><ellipse cx="283" cy="100.69" fill="none" rx="3" ry="3" style="stroke: #038048; stroke-width: 1.0;"/><text fill="#000000" font-family="Arial" font-size="10" lengthAdjust="spacingAndGlyphs" textLength="115" x="292" y="103.03">Status:SchedulingStatus</text><ellipse cx="283" cy="113.07" fill="none" rx="3" ry="3" style="stroke: #038048; stroke-width: 1.0;"/><text fill="#000000" font-family="Arial" font-size="10" lengthAdjust="spacingAndGlyphs" textLength="91" x="292" y="115.41">MaxSubmissions:int</text><ellipse cx="283" cy="125.45" fill="none" rx="3" ry="3" style="stroke: #038048; stroke-width: 1.0;"/><text fill="#000000" font-family="Arial" font-size="10" lengthAdjust="spacingAndGlyphs" textLength="54" x="292" y="127.79">Inputs:List&lt;</text><line style="stroke: #919871; stroke-width: 1.5;" x1="273" x2="412" y1="134.64" y2="134.64"/></a><rect fill="#EEEBDC" filter="url(#f1)" height="48" style="stroke: #919871; stroke-width: 1.5;" width="165" x="63" y="241"/><ellipse cx="78" cy="257" fill="#ADD1B2" rx="11" ry="11" style="stroke: #919871; stroke-width: 1.0;"/><path d="M80.3438,252.6719 C79.4063,252.2344 78.8125,252.0938 77.9375,252.0938 C75.3125,252.0938 73.3125,254.1719 73.3125,256.8906 L73.3125,258.0156 C73.3125,260.5938 75.4219,262.4844 78.3125,262.4844 C79.5313,262.4844 80.6875,262.1875 81.4375,261.6406 C82.0156,261.2344 82.3438,260.7813 82.3438,260.3906 C82.3438,259.9375 81.9531,259.5469 81.4844,259.5469 C81.2656,259.5469 81.0625,259.625 80.875,259.8125 C80.4219,260.2969 80.4219,260.2969 80.2344,260.3906 C79.8125,260.6563 79.125,260.7813 78.3594,260.7813 C76.3125,260.7813 75.0156,259.6875 75.0156,257.9844 L75.0156,256.8906 C75.0156,255.1094 76.2656,253.7969 78,253.7969 C78.5781,253.7969 79.1875,253.9531 79.6563,254.2031 C80.1406,254.4844 80.3125,254.7031 80.4063,255.1094 C80.4688,255.5156 80.5,255.6406 80.6406,255.7656 C80.7813,255.9063 81.0156,256.0156 81.2344,256.0156 C81.5,256.0156 81.7656,255.875 81.9375,255.6563 C82.0469,255.5 82.0781,255.3125 82.0781,254.8906 L82.0781,253.4688 C82.0781,253.0313 82.0625,252.9063 81.9688,252.75 C81.8125,252.4844 81.5313,252.3438 81.2344,252.3438 C80.9375,252.3438 80.7344,252.4375 80.5156,252.75 L80.3438,252.6719 Z "/><text fill="#000000" font-family="Arial" font-size="11" lengthAdjust="spacingAndGlyphs" textLength="133" x="92" y="260.674">SchedulerRunConfiguration</text><line style="stroke: #919871; stroke-width: 1.5;" x1="64" x2="227" y1="273" y2="273"/><line style="stroke: #919871; stroke-width: 1.5;" x1="64" x2="227" y1="281" y2="281"/><rect fill="#EEEBDC" filter="url(#f1)" height="48" style="stroke: #919871; stroke-width: 1.5;" width="119" x="287" y="240"/><ellipse cx="302" cy="256" fill="#ADD1B2" rx="11" ry="11" style="stroke: #919871; stroke-width: 1.0;"/><path d="M304.3438,251.6719 C303.4063,251.2344 302.8125,251.0938 301.9375,251.0938 C299.3125,251.0938 297.3125,253.1719 297.3125,255.8906 L297.3125,257.0156 C297.3125,259.5938 299.4219,261.4844 302.3125,261.4844 C303.5313,261.4844 304.6875,261.1875 305.4375,260.6406 C306.0156,260.2344 306.3438,259.7813 306.3438,259.3906 C306.3438,258.9375 305.9531,258.5469 305.4844,258.5469 C305.2656,258.5469 305.0625,258.625 304.875,258.8125 C304.4219,259.2969 304.4219,259.2969 304.2344,259.3906 C303.8125,259.6563 303.125,259.7813 302.3594,259.7813 C300.3125,259.7813 299.0156,258.6875 299.0156,256.9844 L299.0156,255.8906 C299.0156,254.1094 300.2656,252.7969 302,252.7969 C302.5781,252.7969 303.1875,252.9531 303.6563,253.2031 C304.1406,253.4844 304.3125,253.7031 304.4063,254.1094 C304.4688,254.5156 304.5,254.6406 304.6406,254.7656 C304.7813,254.9063 305.0156,255.0156 305.2344,255.0156 C305.5,255.0156 305.7656,254.875 305.9375,254.6563 C306.0469,254.5 306.0781,254.3125 306.0781,253.8906 L306.0781,252.4688 C306.0781,252.0313 306.0625,251.9063 305.9688,251.75 C305.8125,251.4844 305.5313,251.3438 305.2344,251.3438 C304.9375,251.3438 304.7344,251.4375 304.5156,251.75 L304.3438,251.6719 Z "/><text fill="#000000" font-family="Arial" font-size="11" lengthAdjust="spacingAndGlyphs" textLength="87" x="316" y="259.674">CustomScheduler</text><line style="stroke: #919871; stroke-width: 1.5;" x1="288" x2="405" y1="272" y2="272"/><line style="stroke: #919871; stroke-width: 1.5;" x1="288" x2="405" y1="280" y2="280"/><rect fill="#EEEBDC" filter="url(#f1)" height="48" style="stroke: #919871; stroke-width: 1.5;" width="59" x="440" y="240"/><ellipse cx="455" cy="256" fill="#ADD1B2" rx="11" ry="11" style="stroke: #919871; stroke-width: 1.0;"/><path d="M457.3438,251.6719 C456.4063,251.2344 455.8125,251.0938 454.9375,251.0938 C452.3125,251.0938 450.3125,253.1719 450.3125,255.8906 L450.3125,257.0156 C450.3125,259.5938 452.4219,261.4844 455.3125,261.4844 C456.5313,261.4844 457.6875,261.1875 458.4375,260.6406 C459.0156,260.2344 459.3438,259.7813 459.3438,259.3906 C459.3438,258.9375 458.9531,258.5469 458.4844,258.5469 C458.2656,258.5469 458.0625,258.625 457.875,258.8125 C457.4219,259.2969 457.4219,259.2969 457.2344,259.3906 C456.8125,259.6563 456.125,259.7813 455.3594,259.7813 C453.3125,259.7813 452.0156,258.6875 452.0156,256.9844 L452.0156,255.8906 C452.0156,254.1094 453.2656,252.7969 455,252.7969 C455.5781,252.7969 456.1875,252.9531 456.6563,253.2031 C457.1406,253.4844 457.3125,253.7031 457.4063,254.1094 C457.4688,254.5156 457.5,254.6406 457.6406,254.7656 C457.7813,254.9063 458.0156,255.0156 458.2344,255.0156 C458.5,255.0156 458.7656,254.875 458.9375,254.6563 C459.0469,254.5 459.0781,254.3125 459.0781,253.8906 L459.0781,252.4688 C459.0781,252.0313 459.0625,251.9063 458.9688,251.75 C458.8125,251.4844 458.5313,251.3438 458.2344,251.3438 C457.9375,251.3438 457.7344,251.4375 457.5156,251.75 L457.3438,251.6719 Z "/><text fill="#000000" font-family="Arial" font-size="11" lengthAdjust="spacingAndGlyphs" textLength="27" x="469" y="259.674">Entity</text><line style="stroke: #919871; stroke-width: 1.5;" x1="441" x2="498" y1="272" y2="272"/><line style="stroke: #919871; stroke-width: 1.5;" x1="441" x2="498" y1="280" y2="280"/><path d="M281.008,151.346 C245.53,181.212 202.466,217.464 174.665,240.869 " fill="none" style="stroke: #000000; stroke-width: 1.0;"/><polygon fill="#000000" points="291.27,142.706,284.1039,143.51,282.0898,150.4342,289.256,149.6301,291.27,142.706" style="stroke: #000000; stroke-width: 1.0;"/><text fill="#000000" font-family="Arial" font-size="11" lengthAdjust="spacingAndGlyphs" textLength="18" x="250" y="184.4829">has</text><text fill="#000000" font-family="Arial" font-size="11" lengthAdjust="spacingAndGlyphs" textLength="6" x="197.585" y="229.9678">1</text><path d="M339.945,142.838 C339.552,152.74 339.201,163.235 339,173 C338.854,180.11 338.669,181.897 339,189 C339.463,198.951 340.271,209.62 341.176,219.699 " fill="none" style="stroke: #000000; stroke-width: 1.0;"/><polygon fill="none" points="348.154,219.129,343.157,239.721,334.222,220.507,348.154,219.129" style="stroke: #000000; stroke-width: 1.0;"/><text fill="#000000" font-family="Arial" font-size="11" lengthAdjust="spacingAndGlyphs" textLength="55" x="340" y="184.4829">implements</text><path d="M376.904,142.63 C384.894,152.542 393.3,163.093 401,173 C413.799,189.467 427.628,207.858 439.451,223.773 " fill="none" style="stroke: #000000; stroke-width: 1.0;"/><polygon fill="none" points="445.086,219.62,451.35,239.863,433.83,227.944,445.086,219.62" style="stroke: #000000; stroke-width: 1.0;"/><text fill="#000000" font-family="Arial" font-size="11" lengthAdjust="spacingAndGlyphs" textLength="55" x="413" y="184.4829">implements</text></g></svg>