<?xml version="1.0" encoding="UTF-8" standalone="yes"?><svg xmlns="http://www.w3.org/2000/svg" xmlns:xlink="http://www.w3.org/1999/xlink" height="151pt" style="width:197px;height:151px;" version="1.1" viewBox="0 0 197 151" width="197pt"><defs><filter height="300%" id="f1" width="300%" x="-1" y="-1"><feGaussianBlur result="blurOut" stdDeviation="2.0"/><feColorMatrix in="blurOut" result="blurOut2" type="matrix" values="0 0 0 0 0 0 0 0 0 0 0 0 0 0 0 0 0 0 .4 0"/><feOffset dx="4.0" dy="4.0" in="blurOut2" result="blurOut3"/><feBlend in="SourceGraphic" in2="blurOut3" mode="normal"/></filter></defs><g><polygon fill="#FFFFFF" filter="url(#f1)" points="22,24,107,24,114,42.6489,190,42.6489,190,144,22,144,22,24" style="stroke: #000000; stroke-width: 2.0;"/><line style="stroke: #000000; stroke-width: 2.0;" x1="22" x2="114" y1="42.6489" y2="42.6489"/><text fill="#000000" font-family="Arial" font-size="11" lengthAdjust="spacingAndGlyphs" textLength="79" x="25" y="37.3179">Terradue::Portal</text><a target="_top" xlink:href="../information/classes/class_terradue_1_1_portal_1_1_wps_provider.html" xlink:title="../information/classes/class_terradue_1_1_portal_1_1_wps_provider.html"><rect fill="#EEEBDC" filter="url(#f1)" height="70.998" style="stroke: #919871; stroke-width: 1.5;" width="136" x="38" y="56.5"/><ellipse cx="71.45" cy="72.5" fill="#ADD1B2" rx="11" ry="11" style="stroke: #919871; stroke-width: 1.0;"/><path d="M74.4231,78.1431 Q73.8421,78.4419 73.2029,78.5913 Q72.5638,78.7407 71.8582,78.7407 Q69.3514,78.7407 68.0315,77.0889 Q66.7117,75.437 66.7117,72.3159 Q66.7117,69.1865 68.0315,67.5347 Q69.3514,65.8828 71.8582,65.8828 Q72.5638,65.8828 73.2112,66.0322 Q73.8587,66.1816 74.4231,66.4805 L74.4231,69.2031 Q73.7923,68.6221 73.1988,68.3523 Q72.6053,68.0825 71.9744,68.0825 Q70.6297,68.0825 69.9449,69.1492 Q69.2601,70.2158 69.2601,72.3159 Q69.2601,74.4077 69.9449,75.4744 Q70.6297,76.541 71.9744,76.541 Q72.6053,76.541 73.1988,76.2712 Q73.7923,76.0015 74.4231,75.4204 Z "/><text fill="#000000" font-family="Arial" font-size="11" lengthAdjust="spacingAndGlyphs" textLength="63" x="89.55" y="76.4934">WpsProvider</text><line style="stroke: #919871; stroke-width: 1.5;" x1="39" x2="173" y1="88.5" y2="88.5"/><ellipse cx="49" cy="99.5" fill="none" rx="3" ry="3" style="stroke: #038048; stroke-width: 1.0;"/><text fill="#000000" font-family="Arial" font-size="10" lengthAdjust="spacingAndGlyphs" textLength="49" x="58" y="102.1304">Proxy:bool</text><line style="stroke: #919871; stroke-width: 1.5;" x1="39" x2="173" y1="107.999" y2="107.999"/><ellipse cx="49" cy="118.999" fill="#84BE84" rx="3" ry="3" style="stroke: #038048; stroke-width: 1.0;"/><text fill="#000000" font-family="Arial" font-size="10" lengthAdjust="spacingAndGlyphs" textLength="110" x="58" y="121.6294">StoreProcessOfferings()</text></a></g></svg>