<?xml version="1.0" encoding="UTF-8" standalone="yes"?><svg xmlns="http://www.w3.org/2000/svg" xmlns:xlink="http://www.w3.org/1999/xlink" height="278pt" style="width:197px;height:278px;" version="1.1" viewBox="0 0 197 278" width="197pt"><defs><filter height="300%" id="f1" width="300%" x="-1" y="-1"><feGaussianBlur result="blurOut" stdDeviation="2.0"/><feColorMatrix in="blurOut" result="blurOut2" type="matrix" values="0 0 0 0 0 0 0 0 0 0 0 0 0 0 0 0 0 0 .4 0"/><feOffset dx="4.0" dy="4.0" in="blurOut2" result="blurOut3"/><feBlend in="SourceGraphic" in2="blurOut3" mode="normal"/></filter></defs><g><polygon fill="#FFFFFF" filter="url(#f1)" points="22,24,107,24,114,43.6179,190,43.6179,190,271,22,271,22,24" style="stroke: #000000; stroke-width: 2.0;"/><line style="stroke: #000000; stroke-width: 2.0;" x1="22" x2="114" y1="43.6179" y2="43.6179"/><text fill="#000000" font-family="Arial" font-size="11" lengthAdjust="spacingAndGlyphs" textLength="79" x="25" y="37.4829">Terradue::Portal</text><a target="_top" xlink:href="../information/classes/class_terradue_1_1_portal_1_1_wps_provider.html" xlink:title="../information/classes/class_terradue_1_1_portal_1_1_wps_provider.html"><rect fill="#EEEBDC" filter="url(#f1)" height="72.76" style="stroke: #919871; stroke-width: 1.5;" width="136" x="38" y="57.5"/><ellipse cx="71.45" cy="73.5" fill="#ADD1B2" rx="11" ry="11" style="stroke: #919871; stroke-width: 1.0;"/><path d="M73.7938,69.1719 C72.8563,68.7344 72.2625,68.5938 71.3875,68.5938 C68.7625,68.5938 66.7625,70.6719 66.7625,73.3906 L66.7625,74.5156 C66.7625,77.0938 68.8719,78.9844 71.7625,78.9844 C72.9813,78.9844 74.1375,78.6875 74.8875,78.1406 C75.4656,77.7344 75.7938,77.2813 75.7938,76.8906 C75.7938,76.4375 75.4031,76.0469 74.9344,76.0469 C74.7156,76.0469 74.5125,76.125 74.325,76.3125 C73.8719,76.7969 73.8719,76.7969 73.6844,76.8906 C73.2625,77.1563 72.575,77.2813 71.8094,77.2813 C69.7625,77.2813 68.4656,76.1875 68.4656,74.4844 L68.4656,73.3906 C68.4656,71.6094 69.7156,70.2969 71.45,70.2969 C72.0281,70.2969 72.6375,70.4531 73.1063,70.7031 C73.5906,70.9844 73.7625,71.2031 73.8563,71.6094 C73.9188,72.0156 73.95,72.1406 74.0906,72.2656 C74.2313,72.4063 74.4656,72.5156 74.6844,72.5156 C74.95,72.5156 75.2156,72.375 75.3875,72.1563 C75.4969,72 75.5281,71.8125 75.5281,71.3906 L75.5281,69.9688 C75.5281,69.5313 75.5125,69.4063 75.4188,69.25 C75.2625,68.9844 74.9813,68.8438 74.6844,68.8438 C74.3875,68.8438 74.1844,68.9375 73.9656,69.25 L73.7938,69.1719 Z "/><text fill="#000000" font-family="Arial" font-size="11" lengthAdjust="spacingAndGlyphs" textLength="63" x="89.55" y="77.174">WpsProvider</text><line style="stroke: #919871; stroke-width: 1.5;" x1="39" x2="173" y1="89.5" y2="89.5"/><ellipse cx="49" cy="100.69" fill="none" rx="3" ry="3" style="stroke: #038048; stroke-width: 1.0;"/><text fill="#000000" font-family="Arial" font-size="10" lengthAdjust="spacingAndGlyphs" textLength="49" x="58" y="103.03">Proxy:bool</text><line style="stroke: #919871; stroke-width: 1.5;" x1="39" x2="173" y1="109.88" y2="109.88"/><ellipse cx="49" cy="121.07" fill="#84BE84" rx="3" ry="3" style="stroke: #038048; stroke-width: 1.0;"/><text fill="#000000" font-family="Arial" font-size="10" lengthAdjust="spacingAndGlyphs" textLength="110" x="58" y="123.41">StoreProcessOfferings()</text></a><rect fill="#EEEBDC" filter="url(#f1)" height="48" style="stroke: #919871; stroke-width: 1.5;" width="132" x="40" y="207"/><ellipse cx="55" cy="223" fill="#ADD1B2" rx="11" ry="11" style="stroke: #919871; stroke-width: 1.0;"/><path d="M57.3438,218.6719 C56.4063,218.2344 55.8125,218.0938 54.9375,218.0938 C52.3125,218.0938 50.3125,220.1719 50.3125,222.8906 L50.3125,224.0156 C50.3125,226.5938 52.4219,228.4844 55.3125,228.4844 C56.5313,228.4844 57.6875,228.1875 58.4375,227.6406 C59.0156,227.2344 59.3438,226.7813 59.3438,226.3906 C59.3438,225.9375 58.9531,225.5469 58.4844,225.5469 C58.2656,225.5469 58.0625,225.625 57.875,225.8125 C57.4219,226.2969 57.4219,226.2969 57.2344,226.3906 C56.8125,226.6563 56.125,226.7813 55.3594,226.7813 C53.3125,226.7813 52.0156,225.6875 52.0156,223.9844 L52.0156,222.8906 C52.0156,221.1094 53.2656,219.7969 55,219.7969 C55.5781,219.7969 56.1875,219.9531 56.6563,220.2031 C57.1406,220.4844 57.3125,220.7031 57.4063,221.1094 C57.4688,221.5156 57.5,221.6406 57.6406,221.7656 C57.7813,221.9063 58.0156,222.0156 58.2344,222.0156 C58.5,222.0156 58.7656,221.875 58.9375,221.6563 C59.0469,221.5 59.0781,221.3125 59.0781,220.8906 L59.0781,219.4688 C59.0781,219.0313 59.0625,218.9063 58.9688,218.75 C58.8125,218.4844 58.5313,218.3438 58.2344,218.3438 C57.9375,218.3438 57.7344,218.4375 57.5156,218.75 L57.3438,218.6719 Z "/><text fill="#000000" font-family="Arial" font-size="11" lengthAdjust="spacingAndGlyphs" textLength="100" x="69" y="226.674">ComputingResource</text><line style="stroke: #919871; stroke-width: 1.5;" x1="41" x2="171" y1="239" y2="239"/><line style="stroke: #919871; stroke-width: 1.5;" x1="41" x2="171" y1="247" y2="247"/><path d="M106,130.713 C106,147.938 106,168.607 106,186.694 " fill="none" style="stroke: #000000; stroke-width: 1.0;"/><polygon fill="none" points="113,186.724,106,206.7241,99.0001,186.724,113,186.724" style="stroke: #000000; stroke-width: 1.0;"/><text fill="#000000" font-family="Arial" font-size="11" lengthAdjust="spacingAndGlyphs" textLength="55" x="107" y="172.4829">implements</text></g></svg>