<?xml version="1.0" encoding="UTF-8" standalone="yes"?><svg xmlns="http://www.w3.org/2000/svg" xmlns:xlink="http://www.w3.org/1999/xlink" height="622pt" style="width:1626px;height:622px;" version="1.1" viewBox="0 0 1626 622" width="1626pt"><defs><filter height="300%" id="f1" width="300%" x="-1" y="-1"><feGaussianBlur result="blurOut" stdDeviation="2.0"/><feColorMatrix in="blurOut" result="blurOut2" type="matrix" values="0 0 0 0 0 0 0 0 0 0 0 0 0 0 0 0 0 0 .4 0"/><feOffset dx="4.0" dy="4.0" in="blurOut2" result="blurOut3"/><feBlend in="SourceGraphic" in2="blurOut3" mode="normal"/></filter></defs><g><polygon fill="#FFFFFF" filter="url(#f1)" points="858,24,897,24,904,46.4883,1379,46.4883,1379,506,858,506,858,24" style="stroke: #000000; stroke-width: 2.0;"/><line style="stroke: #000000; stroke-width: 2.0;" x1="858" x2="904" y1="46.4883" y2="46.4883"/><text fill="#000000" font-family="sans-serif" font-size="14" font-weight="bold" lengthAdjust="spacingAndGlyphs" textLength="33" x="862" y="39.5352">Core</text><polygon fill="#FFFFFF" filter="url(#f1)" points="137,168,187,168,194,190.4883,834,190.4883,834,264,137,264,137,168" style="stroke: #000000; stroke-width: 2.0;"/><line style="stroke: #000000; stroke-width: 2.0;" x1="137" x2="194" y1="190.4883" y2="190.4883"/><text fill="#000000" font-family="sans-serif" font-size="14" font-weight="bold" lengthAdjust="spacingAndGlyphs" textLength="44" x="141" y="183.5352">Model</text><polygon fill="#FFFFFF" filter="url(#f1)" points="54,24,144,24,151,46.4883,224,46.4883,224,120,54,120,54,24" style="stroke: #000000; stroke-width: 2.0;"/><line style="stroke: #000000; stroke-width: 2.0;" x1="54" x2="151" y1="46.4883" y2="46.4883"/><text fill="#000000" font-family="sans-serif" font-size="14" font-weight="bold" lengthAdjust="spacingAndGlyphs" textLength="84" x="58" y="39.5352">OpenSearch</text><a target="_top" xlink:href="../computational/components/group___authentication.html" xlink:title="../computational/components/group___authentication.html"><rect fill="#EEEBDC" filter="url(#f1)" height="42.6489" style="stroke: #919871; stroke-width: 1.5;" width="108" x="995" y="326.5"/><rect fill="#EEEBDC" height="10" style="stroke: #919871; stroke-width: 1.5;" width="15" x="1083" y="331.5"/><rect fill="#EEEBDC" height="2" style="stroke: #919871; stroke-width: 1.5;" width="4" x="1081" y="333.5"/><rect fill="#EEEBDC" height="2" style="stroke: #919871; stroke-width: 1.5;" width="4" x="1081" y="337.5"/><text fill="#000000" font-family="Arial" font-size="11" lengthAdjust="spacingAndGlyphs" textLength="68" x="1010" y="356.8179">Authentication</text></a><a target="_top" xlink:href="../computational/components/group___authorisation.html" xlink:title="../computational/components/group___authorisation.html"><rect fill="#EEEBDC" filter="url(#f1)" height="42.6489" style="stroke: #919871; stroke-width: 1.5;" width="103" x="1138.75" y="326.5"/><rect fill="#EEEBDC" height="10" style="stroke: #919871; stroke-width: 1.5;" width="15" x="1221.75" y="331.5"/><rect fill="#EEEBDC" height="2" style="stroke: #919871; stroke-width: 1.5;" width="4" x="1219.75" y="333.5"/><rect fill="#EEEBDC" height="2" style="stroke: #919871; stroke-width: 1.5;" width="4" x="1219.75" y="337.5"/><text fill="#000000" font-family="Arial" font-size="11" lengthAdjust="spacingAndGlyphs" textLength="63" x="1153.75" y="356.8179">Authorisation</text></a><a target="_top" xlink:href="../computational/components/group___context.html" xlink:title="../computational/components/group___context.html"><rect fill="#EEEBDC" filter="url(#f1)" height="42.6489" style="stroke: #919871; stroke-width: 1.5;" width="78" x="1156" y="204.5"/><rect fill="#EEEBDC" height="10" style="stroke: #919871; stroke-width: 1.5;" width="15" x="1214" y="209.5"/><rect fill="#EEEBDC" height="2" style="stroke: #919871; stroke-width: 1.5;" width="4" x="1212" y="211.5"/><rect fill="#EEEBDC" height="2" style="stroke: #919871; stroke-width: 1.5;" width="4" x="1212" y="215.5"/><text fill="#000000" font-family="Arial" font-size="11" lengthAdjust="spacingAndGlyphs" textLength="38" x="1171" y="234.8179">Context</text></a><a target="_top" xlink:href="../computational/components/group___persistence.html" xlink:title="../computational/components/group___persistence.html"><rect fill="#EEEBDC" filter="url(#f1)" height="42.6489" style="stroke: #919871; stroke-width: 1.5;" width="136" x="1069" y="446.5"/><rect fill="#EEEBDC" height="10" style="stroke: #919871; stroke-width: 1.5;" width="15" x="1185" y="451.5"/><rect fill="#EEEBDC" height="2" style="stroke: #919871; stroke-width: 1.5;" width="4" x="1183" y="453.5"/><rect fill="#EEEBDC" height="2" style="stroke: #919871; stroke-width: 1.5;" width="4" x="1183" y="457.5"/><text fill="#000000" font-family="Arial" font-size="11" lengthAdjust="spacingAndGlyphs" textLength="96" x="1084" y="476.8179">Persistence of Data</text></a><a target="_top" xlink:href="../computational/components/group___series.html" xlink:title="../computational/components/group___series.html"><rect fill="#EEEBDC" filter="url(#f1)" height="42.6489" style="stroke: #919871; stroke-width: 1.5;" width="71" x="1291.75" y="60.5"/><rect fill="#EEEBDC" height="10" style="stroke: #919871; stroke-width: 1.5;" width="15" x="1342.75" y="65.5"/><rect fill="#EEEBDC" height="2" style="stroke: #919871; stroke-width: 1.5;" width="4" x="1340.75" y="67.5"/><rect fill="#EEEBDC" height="2" style="stroke: #919871; stroke-width: 1.5;" width="4" x="1340.75" y="71.5"/><text fill="#000000" font-family="Arial" font-size="11" lengthAdjust="spacingAndGlyphs" textLength="31" x="1306.75" y="90.8179">Series</text></a><a target="_top" xlink:href="../computational/components/group___service.html" xlink:title="../computational/components/group___service.html"><rect fill="#EEEBDC" filter="url(#f1)" height="42.6489" style="stroke: #919871; stroke-width: 1.5;" width="77" x="912.75" y="204.5"/><rect fill="#EEEBDC" height="10" style="stroke: #919871; stroke-width: 1.5;" width="15" x="969.75" y="209.5"/><rect fill="#EEEBDC" height="2" style="stroke: #919871; stroke-width: 1.5;" width="4" x="967.75" y="211.5"/><rect fill="#EEEBDC" height="2" style="stroke: #919871; stroke-width: 1.5;" width="4" x="967.75" y="215.5"/><text fill="#000000" font-family="Arial" font-size="11" lengthAdjust="spacingAndGlyphs" textLength="37" x="927.75" y="234.8179">Service</text></a><a target="_top" xlink:href="../computational/components/group___web_context.html" xlink:title="../computational/components/group___web_context.html"><rect fill="#EEEBDC" filter="url(#f1)" height="42.6489" style="stroke: #919871; stroke-width: 1.5;" width="100" x="1156" y="60.5"/><rect fill="#EEEBDC" height="10" style="stroke: #919871; stroke-width: 1.5;" width="15" x="1236" y="65.5"/><rect fill="#EEEBDC" height="2" style="stroke: #919871; stroke-width: 1.5;" width="4" x="1234" y="67.5"/><rect fill="#EEEBDC" height="2" style="stroke: #919871; stroke-width: 1.5;" width="4" x="1234" y="71.5"/><text fill="#000000" font-family="Arial" font-size="11" lengthAdjust="spacingAndGlyphs" textLength="60" x="1171" y="90.8179">WebContext</text></a><a target="_top" xlink:href="../computational/components/group___wps_provider.html" xlink:title="../computational/components/group___wps_provider.html"><rect fill="#EEEBDC" filter="url(#f1)" height="42.6489" style="stroke: #919871; stroke-width: 1.5;" width="108" x="1013" y="60.5"/><rect fill="#EEEBDC" height="10" style="stroke: #919871; stroke-width: 1.5;" width="15" x="1101" y="65.5"/><rect fill="#EEEBDC" height="2" style="stroke: #919871; stroke-width: 1.5;" width="4" x="1099" y="67.5"/><rect fill="#EEEBDC" height="2" style="stroke: #919871; stroke-width: 1.5;" width="4" x="1099" y="71.5"/><text fill="#000000" font-family="Arial" font-size="11" lengthAdjust="spacingAndGlyphs" textLength="68" x="1028" y="90.8179">WPS Provider</text></a><a target="_top" xlink:href="../computational/components/group___wps_service.html" xlink:title="../computational/components/group___wps_service.html"><rect fill="#EEEBDC" filter="url(#f1)" height="42.6489" style="stroke: #919871; stroke-width: 1.5;" width="104" x="874" y="60.5"/><rect fill="#EEEBDC" height="10" style="stroke: #919871; stroke-width: 1.5;" width="15" x="958" y="65.5"/><rect fill="#EEEBDC" height="2" style="stroke: #919871; stroke-width: 1.5;" width="4" x="956" y="67.5"/><rect fill="#EEEBDC" height="2" style="stroke: #919871; stroke-width: 1.5;" width="4" x="956" y="71.5"/><text fill="#000000" font-family="Arial" font-size="11" lengthAdjust="spacingAndGlyphs" textLength="64" x="889" y="90.8179">WPS Service</text></a><a target="_top" xlink:href="../computational/components/group___o_w_s_context.html" xlink:title="../computational/components/group___o_w_s_context.html"><ellipse cx="523" cy="218" fill="#FEFECE" filter="url(#f1)" rx="8" ry="8" style="stroke: #A80036; stroke-width: 2.0;"/><text fill="#000000" font-family="sans-serif" font-size="14" lengthAdjust="spacingAndGlyphs" textLength="90" x="478" y="240.5352">OWS Context</text></a><polygon fill="#FBFB77" filter="url(#f1)" points="638,213.5,638,238.8105,818,238.8105,818,223.5,808,213.5,638,213.5" style="stroke: #A80036; stroke-width: 1.0;"/><polygon fill="#FBFB77" points="638,213.5,638,222,568.244,226,638,230,638,238.8105,818,238.8105,818,223.5,808,213.5,638,213.5" style="stroke: #A80036; stroke-width: 1.0;"/><line style="stroke: #A80036; stroke-width: 1.0;" x1="808" x2="808" y1="213.5" y2="223.5"/><line style="stroke: #A80036; stroke-width: 1.0;" x1="818" x2="808" y1="223.5" y2="223.5"/><a target="_top" xlink:href="../computational/components/group___o_w_s_context_atom_feed.html" xlink:title="../computational/components/group___o_w_s_context_atom_feed.html"><text fill="#0000FF" font-family="sans-serif" font-size="13" lengthAdjust="spacingAndGlyphs" text-decoration="underline" textLength="159" x="644" y="231.0684">(OWS Context Document)</text><line style="stroke: #0000FF; stroke-width: 1.0;" x1="644" x2="803" y1="233.0684" y2="233.0684"/></a><a target="_top" xlink:href="../computational/components/group___syndication.html" xlink:title="../computational/components/group___syndication.html"><rect fill="#EEEBDC" filter="url(#f1)" height="42.6489" style="stroke: #919871; stroke-width: 1.5;" width="124" x="153" y="204.5"/><rect fill="#EEEBDC" height="10" style="stroke: #919871; stroke-width: 1.5;" width="15" x="257" y="209.5"/><rect fill="#EEEBDC" height="2" style="stroke: #919871; stroke-width: 1.5;" width="4" x="255" y="211.5"/><rect fill="#EEEBDC" height="2" style="stroke: #919871; stroke-width: 1.5;" width="4" x="255" y="215.5"/><text fill="#000000" font-family="Arial" font-size="11" lengthAdjust="spacingAndGlyphs" textLength="84" x="168" y="234.8179">Syndication Feed</text></a><polygon fill="#FBFB77" filter="url(#f1)" points="347,213.5,347,238.8105,443,238.8105,443,223.5,433,213.5,347,213.5" style="stroke: #A80036; stroke-width: 1.0;"/><polygon fill="#FBFB77" points="347,213.5,347,222,277.227,226,347,230,347,238.8105,443,238.8105,443,223.5,433,213.5,347,213.5" style="stroke: #A80036; stroke-width: 1.0;"/><line style="stroke: #A80036; stroke-width: 1.0;" x1="433" x2="433" y1="213.5" y2="223.5"/><line style="stroke: #A80036; stroke-width: 1.0;" x1="443" x2="433" y1="223.5" y2="223.5"/><a target="_top" xlink:href="../computational/components/group___atom.html" xlink:title="../computational/components/group___atom.html"><text fill="#0000FF" font-family="sans-serif" font-size="13" lengthAdjust="spacingAndGlyphs" text-decoration="underline" textLength="75" x="353" y="231.0684">(Atom Feed)</text><line style="stroke: #0000FF; stroke-width: 1.0;" x1="353" x2="428" y1="233.0684" y2="233.0684"/></a><a target="_top" xlink:href="../computational/components/group___open_search_engine.html" xlink:title="../computational/components/group___open_search_engine.html"><rect fill="#EEEBDC" filter="url(#f1)" height="42.6489" style="stroke: #919871; stroke-width: 1.5;" width="138" x="70" y="60.5"/><rect fill="#EEEBDC" height="10" style="stroke: #919871; stroke-width: 1.5;" width="15" x="188" y="65.5"/><rect fill="#EEEBDC" height="2" style="stroke: #919871; stroke-width: 1.5;" width="4" x="186" y="67.5"/><rect fill="#EEEBDC" height="2" style="stroke: #919871; stroke-width: 1.5;" width="4" x="186" y="71.5"/><text fill="#000000" font-family="Arial" font-size="11" lengthAdjust="spacingAndGlyphs" textLength="98" x="85" y="90.8179">OpenSearch Engine</text></a><a target="_top" xlink:href="../computational/components/group___s_q_l_connector.html" xlink:title="../computational/components/group___s_q_l_connector.html"><ellipse cx="1137.25" cy="577" fill="#FEFECE" filter="url(#f1)" rx="8" ry="8" style="stroke: #A80036; stroke-width: 2.0;"/><text fill="#000000" font-family="sans-serif" font-size="14" lengthAdjust="spacingAndGlyphs" textLength="159" x="1057.75" y="599.5352">SQL interface to RDBMS</text></a><a target="_top" xlink:href="../computational/components/group___w_p_s.html" xlink:title="../computational/components/group___w_p_s.html"><ellipse cx="1510" cy="218" fill="#FEFECE" filter="url(#f1)" rx="8" ry="8" style="stroke: #A80036; stroke-width: 2.0;"/><text fill="#000000" font-family="sans-serif" font-size="14" lengthAdjust="spacingAndGlyphs" textLength="230" x="1395" y="240.5352">Web Processing Services Interface</text></a><a target="_top" xlink:href="../computational/components/group___open_searchable.html" xlink:title="../computational/components/group___open_searchable.html"><ellipse cx="62" cy="218" fill="#FEFECE" filter="url(#f1)" rx="8" ry="8" style="stroke: #A80036; stroke-width: 2.0;"/><text fill="#000000" font-family="sans-serif" font-size="14" lengthAdjust="spacingAndGlyphs" textLength="112" x="6" y="240.5352">OpenSearchable</text></a><path d="M1064.33,369.554 C1079.38,389.735 1102.36,420.544 1118.43,442.103 " fill="none" style="stroke: #000000; stroke-width: 1.0; stroke-dasharray: 7.0,7.0;"/><polygon fill="#000000" points="1121.55,446.286,1119.3818,436.6788,1118.5633,442.2761,1112.9659,441.4576,1121.55,446.286" style="stroke: #000000; stroke-width: 1.0;"/><text fill="#000000" font-family="Arial" font-size="11" lengthAdjust="spacingAndGlyphs" textLength="6" x="1099" y="411.8179">][</text><path d="M1180.77,369.554 C1171.78,389.567 1158.1,420.032 1148.43,441.562 " fill="none" style="stroke: #000000; stroke-width: 1.0; stroke-dasharray: 7.0,7.0;"/><polygon fill="#000000" points="1146.3,446.286,1153.6401,439.7192,1148.3512,441.7261,1146.3443,436.4372,1146.3,446.286" style="stroke: #000000; stroke-width: 1.0;"/><text fill="#000000" font-family="Arial" font-size="11" lengthAdjust="spacingAndGlyphs" textLength="6" x="1167" y="411.8179">][</text><path d="M1215.94,247.535 C1241.75,275.463 1279.8,326.885 1259,370 C1243.32,402.503 1210.87,427.466 1183.37,443.924 " fill="none" style="stroke: #000000; stroke-width: 1.0; stroke-dasharray: 7.0,7.0;"/><polygon fill="#000000" points="1179,446.492,1188.7868,445.3879,1183.3126,443.9619,1184.7386,438.4877,1179,446.492" style="stroke: #000000; stroke-width: 1.0;"/><text fill="#000000" font-family="Arial" font-size="11" lengthAdjust="spacingAndGlyphs" textLength="6" x="1265" y="351.8179">][</text><path d="M1194.14,247.629 C1193.29,267.977 1191.99,299.142 1191.08,321.136 " fill="none" style="stroke: #000000; stroke-width: 1.0; stroke-dasharray: 7.0,7.0;"/><polygon fill="#000000" points="1190.87,326.239,1195.2416,317.4135,1191.0784,321.2433,1187.2486,317.0801,1190.87,326.239" style="stroke: #000000; stroke-width: 1.0;"/><text fill="#000000" font-family="Arial" font-size="11" lengthAdjust="spacingAndGlyphs" textLength="6" x="1193" y="291.8179">][</text><path d="M1169.9,247.629 C1144.41,268.578 1104.98,300.993 1078.13,323.061 " fill="none" style="stroke: #000000; stroke-width: 1.0; stroke-dasharray: 7.0,7.0;"/><polygon fill="#000000" points="1074.26,326.239,1083.7542,323.6196,1078.1244,323.0663,1078.6778,317.4366,1074.26,326.239" style="stroke: #000000; stroke-width: 1.0;"/><text fill="#000000" font-family="Arial" font-size="11" lengthAdjust="spacingAndGlyphs" textLength="6" x="1127" y="291.8179">][</text><path d="M127.804,103.648 C112.371,132.109 84.8784,182.809 70.8159,208.742 " fill="none" style="stroke: #000000; stroke-width: 1.0;"/><text fill="#000000" font-family="Arial" font-size="11" lengthAdjust="spacingAndGlyphs" textLength="40" x="111" y="147.8179">process</text><path d="M150.051,103.648 C163.672,129.098 186.811,172.331 201.479,199.736 " fill="none" style="stroke: #000000; stroke-width: 1.0; stroke-dasharray: 7.0,7.0;"/><polygon fill="#000000" points="203.936,204.327,203.2149,194.5046,201.5762,199.9189,196.1619,198.2802,203.936,204.327" style="stroke: #000000; stroke-width: 1.0;"/><text fill="#000000" font-family="Arial" font-size="11" lengthAdjust="spacingAndGlyphs" textLength="24" x="176" y="147.8179">uses</text><path d="M1137,489.56 C1137,511.9132 1137,547.1836 1137,567.7045 " fill="none" style="stroke: #000000; stroke-width: 1.0;"/><text fill="#000000" font-family="Arial" font-size="11" lengthAdjust="spacingAndGlyphs" textLength="45" x="1138" y="533.8179">connects</text><path d="M948.018,247.647 C944.853,277.32 943.255,332.561 968,370 C991.297,405.248 1032.09,429.19 1067.75,444.469 " fill="none" style="stroke: #000000; stroke-width: 1.0; stroke-dasharray: 7.0,7.0;"/><polygon fill="#000000" points="1072.53,446.475,1065.7907,439.293,1067.9227,444.5327,1062.683,446.6647,1072.53,446.475" style="stroke: #000000; stroke-width: 1.0;"/><text fill="#000000" font-family="Arial" font-size="11" lengthAdjust="spacingAndGlyphs" textLength="6" x="969" y="351.8179">][</text><path d="M989.399,246.28 C1031.63,267.481 1099.43,301.526 1144.35,324.078 " fill="none" style="stroke: #000000; stroke-width: 1.0; stroke-dasharray: 7.0,7.0;"/><polygon fill="#000000" points="1148.89,326.36,1142.6407,318.7478,1144.4213,324.1171,1139.052,325.8977,1148.89,326.36" style="stroke: #000000; stroke-width: 1.0;"/><text fill="#000000" font-family="Arial" font-size="11" lengthAdjust="spacingAndGlyphs" textLength="6" x="1085" y="291.8179">][</text><path d="M1204.4,103.648 C1202.45,128.888 1199.14,171.618 1197.01,199.053 " fill="none" style="stroke: #000000; stroke-width: 1.0; stroke-dasharray: 7.0,7.0;"/><polygon fill="#000000" points="1196.6,204.327,1201.2823,195.6623,1196.9857,199.3419,1193.3061,195.0453,1196.6,204.327" style="stroke: #000000; stroke-width: 1.0;"/><text fill="#000000" font-family="Arial" font-size="11" lengthAdjust="spacingAndGlyphs" textLength="6" x="1202" y="147.8179">][</text><path d="M1040.87,103.644 C1027.84,112.769 1011.39,122.63 995,128 C949.682,142.848 935.341,130.256 888,136 C845.495,141.157 835.574,147.447 793,152 C754.733,156.092 656.552,147.956 620,160 C591.361,169.437 563.254,189.852 544.73,205.302 " fill="none" style="stroke: #000000; stroke-width: 1.0; stroke-dasharray: 7.0,7.0;"/><polygon fill="#000000" points="540.695,208.716,550.1492,205.9559,544.5119,205.4862,544.9816,199.8489,540.695,208.716" style="stroke: #000000; stroke-width: 1.0;"/><text fill="#000000" font-family="Arial" font-size="11" lengthAdjust="spacingAndGlyphs" textLength="37" x="889" y="147.8179">exports</text><path d="M1041.3,103.734 C1028.24,113.001 1011.65,122.956 995,128 C966.489,136.639 756.733,134.134 727,136 C652.584,140.67 634.44,147.736 560,152 C536.534,153.344 158.943,151.577 137,160 C111.101,169.941 88.1141,193.087 74.6198,208.897 " fill="none" style="stroke: #000000; stroke-width: 1.0;"/><text fill="#000000" font-family="Arial" font-size="11" lengthAdjust="spacingAndGlyphs" textLength="55" x="728" y="147.8179">implements</text><path d="M1093.53,103.687 C1106.52,112.704 1122.82,122.463 1139,128 C1172.39,139.428 1182.98,131.619 1218,136 C1289.79,144.98 1309.98,138.324 1379,160 C1417.03,171.943 1457.68,193.684 1483.44,208.714 " fill="none" style="stroke: #000000; stroke-width: 1.0;"/><text fill="#000000" font-family="Arial" font-size="11" lengthAdjust="spacingAndGlyphs" textLength="55" x="1350" y="147.8179">implements</text><path d="M929.635,103.648 C934.097,128.993 941.664,171.974 946.492,199.396 " fill="none" style="stroke: #000000; stroke-width: 1.0; stroke-dasharray: 7.0,7.0;"/><polygon fill="#000000" points="947.36,204.327,949.7385,194.7697,946.4929,199.4028,941.8598,196.1571,947.36,204.327" style="stroke: #000000; stroke-width: 1.0;"/><text fill="#000000" font-family="Arial" font-size="11" lengthAdjust="spacingAndGlyphs" textLength="39" x="939" y="147.8179">extends</text><path d="M873.923,85.879 C768.03,92.266 535.578,109.211 512,136 C495.716,154.502 503.778,184.155 512.303,204.093 " fill="none" style="stroke: #000000; stroke-width: 1.0; stroke-dasharray: 7.0,7.0;"/><polygon fill="#000000" points="514.35,208.69,514.3431,198.8411,512.3161,204.1224,507.0349,202.0953,514.35,208.69" style="stroke: #000000; stroke-width: 1.0;"/><text fill="#000000" font-family="Arial" font-size="11" lengthAdjust="spacingAndGlyphs" textLength="37" x="513" y="147.8179">exports</text><path d="M873.937,87.976 C698.741,104.734 141.263,158.169 137,160 C111.827,170.812 88.9921,193.268 75.3012,208.733 " fill="none" style="stroke: #000000; stroke-width: 1.0;"/><text fill="#000000" font-family="Arial" font-size="11" lengthAdjust="spacingAndGlyphs" textLength="55" x="374" y="147.8179">implements</text><text fill="#888888" font-family="sans-serif" font-size="10" lengthAdjust="spacingAndGlyphs" textLength="100" x="771.5" y="621.668">Component Diagram</text></g></svg>