<?xml version="1.0" encoding="UTF-8" standalone="yes"?><svg xmlns="http://www.w3.org/2000/svg" xmlns:xlink="http://www.w3.org/1999/xlink" height="265pt" style="width:257px;height:265px;" version="1.1" viewBox="0 0 257 265" width="257pt"><defs><filter height="300%" id="f1" width="300%" x="-1" y="-1"><feGaussianBlur result="blurOut" stdDeviation="2.0"/><feColorMatrix in="blurOut" result="blurOut2" type="matrix" values="0 0 0 0 0 0 0 0 0 0 0 0 0 0 0 0 0 0 .4 0"/><feOffset dx="4.0" dy="4.0" in="blurOut2" result="blurOut3"/><feBlend in="SourceGraphic" in2="blurOut3" mode="normal"/></filter></defs><g><polygon fill="#FFFFFF" filter="url(#f1)" points="22,24,107,24,114,42.6489,250,42.6489,250,258,22,258,22,24" style="stroke: #000000; stroke-width: 2.0;"/><line style="stroke: #000000; stroke-width: 2.0;" x1="22" x2="114" y1="42.6489" y2="42.6489"/><text fill="#000000" font-family="Arial" font-size="11" lengthAdjust="spacingAndGlyphs" textLength="79" x="25" y="37.3179">Terradue::Portal</text><a target="_top" xlink:href="../information/classes/class_terradue_1_1_portal_1_1_entity.html" xlink:title="../information/classes/class_terradue_1_1_portal_1_1_entity.html"><rect fill="#EEEBDC" filter="url(#f1)" height="185.9883" style="stroke: #919871; stroke-width: 1.5;" width="196" x="38" y="56"/><ellipse cx="118.25" cy="72" fill="#ADD1B2" rx="11" ry="11" style="stroke: #919871; stroke-width: 1.0;"/><path d="M121.2231,77.6431 Q120.6421,77.9419 120.0029,78.0913 Q119.3638,78.2407 118.6582,78.2407 Q116.1514,78.2407 114.8315,76.5889 Q113.5117,74.937 113.5117,71.8159 Q113.5117,68.6865 114.8315,67.0347 Q116.1514,65.3828 118.6582,65.3828 Q119.3638,65.3828 120.0112,65.5322 Q120.6587,65.6816 121.2231,65.9805 L121.2231,68.7031 Q120.5923,68.1221 119.9988,67.8523 Q119.4053,67.5825 118.7744,67.5825 Q117.4297,67.5825 116.7449,68.6492 Q116.0601,69.7158 116.0601,71.8159 Q116.0601,73.9077 116.7449,74.9744 Q117.4297,76.041 118.7744,76.041 Q119.4053,76.041 119.9988,75.7712 Q120.5923,75.5015 121.2231,74.9204 Z "/><text fill="#000000" font-family="Arial" font-size="11" lengthAdjust="spacingAndGlyphs" textLength="27" x="138.75" y="75.9934">Entity</text><line style="stroke: #919871; stroke-width: 1.5;" x1="39" x2="233" y1="88" y2="88"/><ellipse cx="49" cy="99" fill="none" rx="3" ry="3" style="stroke: #038048; stroke-width: 1.0;"/><text fill="#000000" font-family="Arial" font-size="10" lengthAdjust="spacingAndGlyphs" textLength="23" x="58" y="101.6304">Id:int</text><ellipse cx="49" cy="111" fill="none" rx="3" ry="3" style="stroke: #038048; stroke-width: 1.0;"/><text fill="#000000" font-family="Arial" font-size="10" lengthAdjust="spacingAndGlyphs" textLength="68" x="58" y="113.6304">Identifier:string</text><ellipse cx="49" cy="123" fill="none" rx="3" ry="3" style="stroke: #038048; stroke-width: 1.0;"/><text fill="#000000" font-family="Arial" font-size="10" lengthAdjust="spacingAndGlyphs" textLength="55" x="58" y="125.6304">Name:string</text><line style="stroke: #919871; stroke-width: 1.5;" x1="39" x2="233" y1="130.4971" y2="130.4971"/><ellipse cx="49" cy="141.4971" fill="#84BE84" rx="3" ry="3" style="stroke: #038048; stroke-width: 1.0;"/><text fill="#000000" font-family="Arial" font-size="10" lengthAdjust="spacingAndGlyphs" textLength="30" x="58" y="144.1274">Load()</text><ellipse cx="49" cy="153.4971" fill="#84BE84" rx="3" ry="3" style="stroke: #038048; stroke-width: 1.0;"/><text fill="#000000" font-family="Arial" font-size="10" lengthAdjust="spacingAndGlyphs" textLength="30" x="58" y="156.1274">Load()</text><ellipse cx="49" cy="165.4971" fill="#84BE84" rx="3" ry="3" style="stroke: #038048; stroke-width: 1.0;"/><text fill="#000000" font-family="Arial" font-size="10" lengthAdjust="spacingAndGlyphs" textLength="31" x="58" y="168.1274">Store()</text><ellipse cx="49" cy="177.4971" fill="#84BE84" rx="3" ry="3" style="stroke: #038048; stroke-width: 1.0;"/><text fill="#000000" font-family="Arial" font-size="10" lengthAdjust="spacingAndGlyphs" textLength="116" x="58" y="180.1274">StorePrivilegesForUsers()</text><ellipse cx="49" cy="189.4971" fill="#84BE84" rx="3" ry="3" style="stroke: #038048; stroke-width: 1.0;"/><text fill="#000000" font-family="Arial" font-size="10" lengthAdjust="spacingAndGlyphs" textLength="124" x="58" y="192.1274">StorePrivilegesForGroups()</text><ellipse cx="49" cy="201.4971" fill="#84BE84" rx="3" ry="3" style="stroke: #038048; stroke-width: 1.0;"/><text fill="#000000" font-family="Arial" font-size="10" lengthAdjust="spacingAndGlyphs" textLength="105" x="58" y="204.1274">StoreGlobalPrivileges()</text><ellipse cx="49" cy="213.4971" fill="#84BE84" rx="3" ry="3" style="stroke: #038048; stroke-width: 1.0;"/><text fill="#000000" font-family="Arial" font-size="10" lengthAdjust="spacingAndGlyphs" textLength="118" x="58" y="216.1274">RemoveGlobalPrivileges()</text><ellipse cx="49" cy="225.4971" fill="#84BE84" rx="3" ry="3" style="stroke: #038048; stroke-width: 1.0;"/><text fill="#000000" font-family="Arial" font-size="10" lengthAdjust="spacingAndGlyphs" textLength="36" x="58" y="228.1274">Delete()</text><ellipse cx="49" cy="237.4971" fill="#84BE84" rx="3" ry="3" style="stroke: #038048; stroke-width: 1.0;"/><text fill="#000000" font-family="Arial" font-size="10" lengthAdjust="spacingAndGlyphs" textLength="170" x="58" y="240.1274">GetAllowedAdministratorOperations()</text></a></g></svg>