<?xml version="1.0" encoding="UTF-8" standalone="yes"?><svg xmlns="http://www.w3.org/2000/svg" xmlns:xlink="http://www.w3.org/1999/xlink" height="461pt" style="width:353px;height:461px;" version="1.1" viewBox="0 0 353 461" width="353pt"><defs><filter height="300%" id="f1" width="300%" x="-1" y="-1"><feGaussianBlur result="blurOut" stdDeviation="2.0"/><feColorMatrix in="blurOut" result="blurOut2" type="matrix" values="0 0 0 0 0 0 0 0 0 0 0 0 0 0 0 0 0 0 .4 0"/><feOffset dx="4.0" dy="4.0" in="blurOut2" result="blurOut3"/><feBlend in="SourceGraphic" in2="blurOut3" mode="normal"/></filter></defs><g><rect fill="#FFFFFF" filter="url(#f1)" height="430" style="stroke: #000000; stroke-width: 2.0;" width="258" x="88" y="24"/><text fill="#000000" font-family="sans-serif" font-size="14" font-weight="bold" lengthAdjust="spacingAndGlyphs" textLength="63" x="185.5" y="39.5352">Platform</text><ellipse cx="216.9454" cy="82.8891" fill="#FEFECE" filter="url(#f1)" rx="102.4454" ry="22.8891" style="stroke: #A80036; stroke-width: 1.5;"/><text fill="#000000" font-family="sans-serif" font-size="14" lengthAdjust="spacingAndGlyphs" textLength="181" x="126.4454" y="87.6332">interact with websitePages</text><ellipse cx="216.9677" cy="162.8935" fill="#FEFECE" filter="url(#f1)" rx="97.4677" ry="21.8935" style="stroke: #A80036; stroke-width: 1.5;"/><text fill="#000000" font-family="sans-serif" font-size="14" lengthAdjust="spacingAndGlyphs" textLength="170" x="131.9677" y="167.6377">interact with geoBrowser</text><ellipse cx="217.0878" cy="244.8176" fill="#FEFECE" filter="url(#f1)" rx="112.0878" ry="24.8176" style="stroke: #A80036; stroke-width: 1.5;"/><text fill="#000000" font-family="sans-serif" font-size="14" lengthAdjust="spacingAndGlyphs" textLength="202" x="116.0878" y="249.5617">interact with cloudDashboard</text><ellipse cx="217.1409" cy="329.0282" fill="#FEFECE" filter="url(#f1)" rx="105.6409" ry="23.5282" style="stroke: #A80036; stroke-width: 1.5;"/><text fill="#000000" font-family="sans-serif" font-size="14" lengthAdjust="spacingAndGlyphs" textLength="188" x="123.1409" y="333.7723">interact with cloudSandbox</text><ellipse cx="217.0143" cy="413.0029" fill="#FEFECE" filter="url(#f1)" rx="113.0143" ry="25.0029" style="stroke: #A80036; stroke-width: 1.5;"/><text fill="#000000" font-family="sans-serif" font-size="14" lengthAdjust="spacingAndGlyphs" textLength="204" x="115.0143" y="417.747">interact with socialwebHandle</text><ellipse cx="25" cy="213.5" fill="#FEFECE" filter="url(#f1)" rx="8" ry="8" style="stroke: #A80036; stroke-width: 2.0;"/><path d="M25,221.5 L25,248.5 M12,229.5 L38,229.5 M25,248.5 L12,263.5 M25,248.5 L38,263.5 " fill="#FEFECE" filter="url(#f1)" style="stroke: #A80036; stroke-width: 2.0;"/><text fill="#000000" font-family="sans-serif" font-size="14" lengthAdjust="spacingAndGlyphs" textLength="38" x="6" y="284.0352">Users</text><path d="M34.7772,203.696 C42.4576,177.15 56.2317,143.849 80,123 C94.4313,110.341 112.694,101.683 131.114,95.762 " fill="none" style="stroke: #A80036; stroke-width: 1.0;"/><path d="M44.2146,227.495 C54.1305,218.778 67.0038,208.698 80,202 C99.9778,191.704 123.049,183.786 144.449,177.861 " fill="none" style="stroke: #A80036; stroke-width: 1.0;"/><path d="M44.218,245 C58.9862,245 81.1485,245 104.6883,245 " fill="none" style="stroke: #A80036; stroke-width: 1.0;"/><path d="M44.3345,261.973 C54.2832,270.453 67.1496,280.305 80,287 C99.9432,297.39 122.893,305.7 144.191,312.097 " fill="none" style="stroke: #A80036; stroke-width: 1.0;"/><path d="M34.4118,286.253 C41.9906,313.517 55.791,348.133 80,370 C93.6904,382.3662 110.93,391.1765 128.495,397.4534 " fill="none" style="stroke: #A80036; stroke-width: 1.0;"/></g></svg>