<?xml version="1.0" encoding="UTF-8" standalone="yes"?><svg xmlns="http://www.w3.org/2000/svg" xmlns:xlink="http://www.w3.org/1999/xlink" height="219pt" style="width:245px;height:219px;" version="1.1" viewBox="0 0 245 219" width="245pt"><defs><filter height="300%" id="f1" width="300%" x="-1" y="-1"><feGaussianBlur result="blurOut" stdDeviation="2.0"/><feColorMatrix in="blurOut" result="blurOut2" type="matrix" values="0 0 0 0 0 0 0 0 0 0 0 0 0 0 0 0 0 0 .4 0"/><feOffset dx="4.0" dy="4.0" in="blurOut2" result="blurOut3"/><feBlend in="SourceGraphic" in2="blurOut3" mode="normal"/></filter></defs><g><polygon fill="#FFFFFF" filter="url(#f1)" points="22,24,107,24,114,42.6489,238,42.6489,238,212,22,212,22,24" style="stroke: #000000; stroke-width: 2.0;"/><line style="stroke: #000000; stroke-width: 2.0;" x1="22" x2="114" y1="42.6489" y2="42.6489"/><text fill="#000000" font-family="Arial" font-size="11" lengthAdjust="spacingAndGlyphs" textLength="79" x="25" y="37.3179">Terradue::Portal</text><a target="_top" xlink:href="../information/classes/class_terradue_1_1_portal_1_1_wps_provider.html" xlink:title="../information/classes/class_terradue_1_1_portal_1_1_wps_provider.html"><rect fill="#EEEBDC" filter="url(#f1)" height="139.9922" style="stroke: #919871; stroke-width: 1.5;" width="184" x="38" y="56"/><ellipse cx="94.25" cy="72" fill="#ADD1B2" rx="11" ry="11" style="stroke: #919871; stroke-width: 1.0;"/><path d="M97.2231,77.6431 Q96.6421,77.9419 96.0029,78.0913 Q95.3638,78.2407 94.6582,78.2407 Q92.1514,78.2407 90.8315,76.5889 Q89.5117,74.937 89.5117,71.8159 Q89.5117,68.6865 90.8315,67.0347 Q92.1514,65.3828 94.6582,65.3828 Q95.3638,65.3828 96.0112,65.5322 Q96.6587,65.6816 97.2231,65.9805 L97.2231,68.7031 Q96.5923,68.1221 95.9988,67.8523 Q95.4053,67.5825 94.7744,67.5825 Q93.4297,67.5825 92.7449,68.6492 Q92.0601,69.7158 92.0601,71.8159 Q92.0601,73.9077 92.7449,74.9744 Q93.4297,76.041 94.7744,76.041 Q95.4053,76.041 95.9988,75.7712 Q96.5923,75.5015 97.2231,74.9204 Z "/><text fill="#000000" font-family="Arial" font-size="11" lengthAdjust="spacingAndGlyphs" textLength="63" x="114.75" y="75.9934">WpsProvider</text><line style="stroke: #919871; stroke-width: 1.5;" x1="39" x2="221" y1="88" y2="88"/><ellipse cx="49" cy="99" fill="none" rx="3" ry="3" style="stroke: #038048; stroke-width: 1.0;"/><text fill="#000000" font-family="Arial" font-size="10" lengthAdjust="spacingAndGlyphs" textLength="49" x="58" y="101.6304">Proxy:bool</text><line style="stroke: #919871; stroke-width: 1.5;" x1="39" x2="221" y1="107.499" y2="107.499"/><ellipse cx="49" cy="118.499" fill="#84BE84" rx="3" ry="3" style="stroke: #038048; stroke-width: 1.0;"/><text fill="#000000" font-family="Arial" font-size="10" lengthAdjust="spacingAndGlyphs" textLength="110" x="58" y="121.1294">StoreProcessOfferings()</text><ellipse cx="49" cy="130.499" fill="#84BE84" rx="3" ry="3" style="stroke: #038048; stroke-width: 1.0;"/><text fill="#000000" font-family="Arial" font-size="10" lengthAdjust="spacingAndGlyphs" textLength="157" x="58" y="133.1294">GetWpsProcessOfferingsFromUrl()</text><ellipse cx="49" cy="142.499" fill="#84BE84" rx="3" ry="3" style="stroke: #038048; stroke-width: 1.0;"/><text fill="#000000" font-family="Arial" font-size="10" lengthAdjust="spacingAndGlyphs" textLength="66" x="58" y="145.1294">ExecuteTask()</text><ellipse cx="49" cy="154.499" fill="#84BE84" rx="3" ry="3" style="stroke: #038048; stroke-width: 1.0;"/><text fill="#000000" font-family="Arial" font-size="10" lengthAdjust="spacingAndGlyphs" textLength="134" x="58" y="157.1294">GetWPSCapabilitiesFromUrl()</text><ellipse cx="49" cy="166.499" fill="#84BE84" rx="3" ry="3" style="stroke: #038048; stroke-width: 1.0;"/><text fill="#000000" font-family="Arial" font-size="10" lengthAdjust="spacingAndGlyphs" textLength="158" x="58" y="169.1294">GetWPSDescribeProcessFromUrl()</text><polygon fill="#FFFF44" points="49,173.499,53,177.499,49,181.499,45,177.499" style="stroke: #B38D22; stroke-width: 1.0;"/><text fill="#000000" font-family="Arial" font-size="10" lengthAdjust="spacingAndGlyphs" textLength="74" x="58" y="181.1294">GetTaskResult()</text><rect fill="#F24D5C" height="6" style="stroke: #C82930; stroke-width: 1.0;" width="6" x="46" y="187.499"/><text fill="#000000" font-family="Arial" font-size="10" lengthAdjust="spacingAndGlyphs" textLength="97" x="58" y="193.1294">GetProcessOffering()</text></a></g></svg>