<?xml version="1.0" encoding="UTF-8" standalone="yes"?><svg xmlns="http://www.w3.org/2000/svg" xmlns:xlink="http://www.w3.org/1999/xlink" height="127pt" style="width:209px;height:127px;" version="1.1" viewBox="0 0 209 127" width="209pt"><defs><filter height="300%" id="f1" width="300%" x="-1" y="-1"><feGaussianBlur result="blurOut" stdDeviation="2.0"/><feColorMatrix in="blurOut" result="blurOut2" type="matrix" values="0 0 0 0 0 0 0 0 0 0 0 0 0 0 0 0 0 0 .4 0"/><feOffset dx="4.0" dy="4.0" in="blurOut2" result="blurOut3"/><feBlend in="SourceGraphic" in2="blurOut3" mode="normal"/></filter></defs><g><polygon fill="#FFFFFF" filter="url(#f1)" points="22,24,107,24,114,42.6489,202,42.6489,202,120,22,120,22,24" style="stroke: #000000; stroke-width: 2.0;"/><line style="stroke: #000000; stroke-width: 2.0;" x1="22" x2="114" y1="42.6489" y2="42.6489"/><text fill="#000000" font-family="Arial" font-size="11" lengthAdjust="spacingAndGlyphs" textLength="79" x="25" y="37.3179">Terradue::Cloud</text><a target="_top" xlink:href="../information/classes/class_terradue_1_1_cloud_1_1_virtual_machine_template.html" xlink:title="../information/classes/class_terradue_1_1_cloud_1_1_virtual_machine_template.html"><rect fill="#EEEBDC" filter="url(#f1)" height="48" style="stroke: #919871; stroke-width: 1.5;" width="148" x="38" y="56"/><ellipse cx="53" cy="72" fill="#ADD1B2" rx="11" ry="11" style="stroke: #919871; stroke-width: 1.0;"/><path d="M55.9731,77.6431 Q55.3921,77.9419 54.7529,78.0913 Q54.1138,78.2407 53.4082,78.2407 Q50.9014,78.2407 49.5815,76.5889 Q48.2617,74.937 48.2617,71.8159 Q48.2617,68.6865 49.5815,67.0347 Q50.9014,65.3828 53.4082,65.3828 Q54.1138,65.3828 54.7612,65.5322 Q55.4087,65.6816 55.9731,65.9805 L55.9731,68.7031 Q55.3423,68.1221 54.7488,67.8523 Q54.1553,67.5825 53.5244,67.5825 Q52.1797,67.5825 51.4949,68.6492 Q50.8101,69.7158 50.8101,71.8159 Q50.8101,73.9077 51.4949,74.9744 Q52.1797,76.041 53.5244,76.041 Q54.1553,76.041 54.7488,75.7712 Q55.3423,75.5015 55.9731,74.9204 Z "/><text fill="#000000" font-family="Arial" font-size="11" lengthAdjust="spacingAndGlyphs" textLength="116" x="67" y="75.9934">VirtualMachineTemplate</text><line style="stroke: #919871; stroke-width: 1.5;" x1="39" x2="185" y1="88" y2="88"/><line style="stroke: #919871; stroke-width: 1.5;" x1="39" x2="185" y1="96" y2="96"/></a></g></svg>