<?xml version="1.0" encoding="UTF-8" standalone="yes"?><svg xmlns="http://www.w3.org/2000/svg" xmlns:xlink="http://www.w3.org/1999/xlink" height="127pt" style="width:248px;height:127px;" version="1.1" viewBox="0 0 248 127" width="248pt"><defs><filter height="300%" id="f1" width="300%" x="-1" y="-1"><feGaussianBlur result="blurOut" stdDeviation="2.0"/><feColorMatrix in="blurOut" result="blurOut2" type="matrix" values="0 0 0 0 0 0 0 0 0 0 0 0 0 0 0 0 0 0 .4 0"/><feOffset dx="4.0" dy="4.0" in="blurOut2" result="blurOut3"/><feBlend in="SourceGraphic" in2="blurOut3" mode="normal"/></filter></defs><g><polygon fill="#FFFFFF" filter="url(#f1)" points="22,24,230,24,237,42.6489,241,42.6489,241,120,22,120,22,24" style="stroke: #000000; stroke-width: 2.0;"/><line style="stroke: #000000; stroke-width: 2.0;" x1="22" x2="237" y1="42.6489" y2="42.6489"/><text fill="#000000" font-family="Arial" font-size="11" lengthAdjust="spacingAndGlyphs" textLength="202" x="25" y="37.3179">Terradue::ServiceModel::Ogc::OwsModel</text><a target="_top" xlink:href="../information/classes/class_terradue_1_1_service_model_1_1_ogc_1_1_ows_model_1_1_owc_content.html" xlink:title="../information/classes/class_terradue_1_1_service_model_1_1_ogc_1_1_ows_model_1_1_owc_content.html"><rect fill="#EEEBDC" filter="url(#f1)" height="48" style="stroke: #919871; stroke-width: 1.5;" width="93" x="84.75" y="56"/><ellipse cx="99.75" cy="72" fill="#ADD1B2" rx="11" ry="11" style="stroke: #919871; stroke-width: 1.0;"/><path d="M102.7231,77.6431 Q102.1421,77.9419 101.5029,78.0913 Q100.8638,78.2407 100.1582,78.2407 Q97.6514,78.2407 96.3315,76.5889 Q95.0117,74.937 95.0117,71.8159 Q95.0117,68.6865 96.3315,67.0347 Q97.6514,65.3828 100.1582,65.3828 Q100.8638,65.3828 101.5112,65.5322 Q102.1587,65.6816 102.7231,65.9805 L102.7231,68.7031 Q102.0923,68.1221 101.4988,67.8523 Q100.9053,67.5825 100.2744,67.5825 Q98.9297,67.5825 98.2449,68.6492 Q97.5601,69.7158 97.5601,71.8159 Q97.5601,73.9077 98.2449,74.9744 Q98.9297,76.041 100.2744,76.041 Q100.9053,76.041 101.4988,75.7712 Q102.0923,75.5015 102.7231,74.9204 Z "/><text fill="#000000" font-family="Arial" font-size="11" lengthAdjust="spacingAndGlyphs" textLength="61" x="113.75" y="75.9934">OwcContent</text><line style="stroke: #919871; stroke-width: 1.5;" x1="85.75" x2="176.75" y1="88" y2="88"/><line style="stroke: #919871; stroke-width: 1.5;" x1="85.75" x2="176.75" y1="96" y2="96"/></a></g></svg>