<?xml version="1.0" encoding="UTF-8" standalone="yes"?><svg xmlns="http://www.w3.org/2000/svg" xmlns:xlink="http://www.w3.org/1999/xlink" height="243pt" style="width:257px;height:243px;" version="1.1" viewBox="0 0 257 243" width="257pt"><defs><filter height="300%" id="f1" width="300%" x="-1" y="-1"><feGaussianBlur result="blurOut" stdDeviation="2.0"/><feColorMatrix in="blurOut" result="blurOut2" type="matrix" values="0 0 0 0 0 0 0 0 0 0 0 0 0 0 0 0 0 0 .4 0"/><feOffset dx="4.0" dy="4.0" in="blurOut2" result="blurOut3"/><feBlend in="SourceGraphic" in2="blurOut3" mode="normal"/></filter></defs><g><polygon fill="#FFFFFF" filter="url(#f1)" points="22,24,107,24,114,42.6489,250,42.6489,250,236,22,236,22,24" style="stroke: #000000; stroke-width: 2.0;"/><line style="stroke: #000000; stroke-width: 2.0;" x1="22" x2="114" y1="42.6489" y2="42.6489"/><text fill="#000000" font-family="Arial" font-size="11" lengthAdjust="spacingAndGlyphs" textLength="79" x="25" y="37.3179">Terradue::Portal</text><a target="_top" xlink:href="../information/classes/class_terradue_1_1_portal_1_1_service.html" xlink:title="../information/classes/class_terradue_1_1_portal_1_1_service.html"><rect fill="#EEEBDC" filter="url(#f1)" height="162.9902" style="stroke: #919871; stroke-width: 1.5;" width="195" x="38.75" y="56.5"/><ellipse cx="113.5" cy="72.5" fill="#ADD1B2" rx="11" ry="11" style="stroke: #919871; stroke-width: 1.0;"/><path d="M116.4731,78.1431 Q115.8921,78.4419 115.2529,78.5913 Q114.6138,78.7407 113.9082,78.7407 Q111.4014,78.7407 110.0815,77.0889 Q108.7617,75.437 108.7617,72.3159 Q108.7617,69.1865 110.0815,67.5347 Q111.4014,65.8828 113.9082,65.8828 Q114.6138,65.8828 115.2612,66.0322 Q115.9087,66.1816 116.4731,66.4805 L116.4731,69.2031 Q115.8423,68.6221 115.2488,68.3523 Q114.6553,68.0825 114.0244,68.0825 Q112.6797,68.0825 111.9949,69.1492 Q111.3101,70.2158 111.3101,72.3159 Q111.3101,74.4077 111.9949,75.4744 Q112.6797,76.541 114.0244,76.541 Q114.6553,76.541 115.2488,76.2712 Q115.8423,76.0015 116.4731,75.4204 Z "/><text fill="#000000" font-family="Arial" font-size="11" lengthAdjust="spacingAndGlyphs" textLength="37" x="134" y="76.4934">Service</text><line style="stroke: #919871; stroke-width: 1.5;" x1="39.75" x2="232.75" y1="88.5" y2="88.5"/><ellipse cx="49.75" cy="99.5" fill="none" rx="3" ry="3" style="stroke: #038048; stroke-width: 1.0;"/><text fill="#000000" font-family="Arial" font-size="10" lengthAdjust="spacingAndGlyphs" textLength="79" x="58.75" y="102.1304">Description:string</text><ellipse cx="49.75" cy="111.5" fill="none" rx="3" ry="3" style="stroke: #038048; stroke-width: 1.0;"/><text fill="#000000" font-family="Arial" font-size="10" lengthAdjust="spacingAndGlyphs" textLength="63" x="58.75" y="114.1304">Version:string</text><ellipse cx="49.75" cy="123.5" fill="none" rx="3" ry="3" style="stroke: #038048; stroke-width: 1.0;"/><text fill="#000000" font-family="Arial" font-size="10" lengthAdjust="spacingAndGlyphs" textLength="40" x="58.75" y="126.1304">Url:string</text><ellipse cx="49.75" cy="135.5" fill="none" rx="3" ry="3" style="stroke: #038048; stroke-width: 1.0;"/><text fill="#000000" font-family="Arial" font-size="10" lengthAdjust="spacingAndGlyphs" textLength="60" x="58.75" y="138.1304">IconUrl:string</text><ellipse cx="49.75" cy="147.5" fill="none" rx="3" ry="3" style="stroke: #038048; stroke-width: 1.0;"/><text fill="#000000" font-family="Arial" font-size="10" lengthAdjust="spacingAndGlyphs" textLength="44" x="58.75" y="150.1304">Rating:int</text><ellipse cx="49.75" cy="159.5" fill="none" rx="3" ry="3" style="stroke: #038048; stroke-width: 1.0;"/><text fill="#000000" font-family="Arial" font-size="10" lengthAdjust="spacingAndGlyphs" textLength="48" x="58.75" y="162.1304">ClassId:int</text><ellipse cx="49.75" cy="171.5" fill="none" rx="3" ry="3" style="stroke: #038048; stroke-width: 1.0;"/><text fill="#000000" font-family="Arial" font-size="10" lengthAdjust="spacingAndGlyphs" textLength="169" x="58.75" y="174.1304">OnBuildTask:BuildTaskCallbackType</text><line style="stroke: #919871; stroke-width: 1.5;" x1="39.75" x2="232.75" y1="176.9932" y2="176.9932"/><ellipse cx="49.75" cy="187.9932" fill="#84BE84" rx="3" ry="3" style="stroke: #038048; stroke-width: 1.0;"/><text fill="#000000" font-family="Arial" font-size="10" lengthAdjust="spacingAndGlyphs" textLength="76" x="58.75" y="190.6235">GetParameters()</text><ellipse cx="49.75" cy="199.9932" fill="#84BE84" rx="3" ry="3" style="stroke: #038048; stroke-width: 1.0;"/><text fill="#000000" font-family="Arial" font-size="10" lengthAdjust="spacingAndGlyphs" textLength="88" x="58.75" y="202.6235">CheckParameters()</text><ellipse cx="49.75" cy="211.9932" fill="#84BE84" rx="3" ry="3" style="stroke: #038048; stroke-width: 1.0;"/><text fill="#000000" font-family="Arial" font-size="10" lengthAdjust="spacingAndGlyphs" textLength="51" x="58.75" y="214.6235">BuildTask()</text></a></g></svg>