<?xml version="1.0" encoding="UTF-8" standalone="yes"?><svg xmlns="http://www.w3.org/2000/svg" xmlns:xlink="http://www.w3.org/1999/xlink" height="294pt" style="width:696px;height:294px;" version="1.1" viewBox="0 0 696 294" width="696pt"><defs><filter height="300%" id="f1" width="300%" x="-1" y="-1"><feGaussianBlur result="blurOut" stdDeviation="2.0"/><feColorMatrix in="blurOut" result="blurOut2" type="matrix" values="0 0 0 0 0 0 0 0 0 0 0 0 0 0 0 0 0 0 .4 0"/><feOffset dx="4.0" dy="4.0" in="blurOut2" result="blurOut3"/><feBlend in="SourceGraphic" in2="blurOut3" mode="normal"/></filter></defs><g><polygon fill="#FFFFFF" filter="url(#f1)" points="22,24,107,24,114,43.6179,689,43.6179,689,287,22,287,22,24" style="stroke: #000000; stroke-width: 2.0;"/><line style="stroke: #000000; stroke-width: 2.0;" x1="22" x2="114" y1="43.6179" y2="43.6179"/><text fill="#000000" font-family="Arial" font-size="11" lengthAdjust="spacingAndGlyphs" textLength="79" x="25" y="37.4829">Terradue::Portal</text><a target="_top" xlink:href="../information/classes/class_terradue_1_1_portal_1_1_scheduler_run_configuration.html" xlink:title="../information/classes/class_terradue_1_1_portal_1_1_scheduler_run_configuration.html"><rect fill="#EEEBDC" filter="url(#f1)" height="48" style="stroke: #919871; stroke-width: 1.5;" width="165" x="275" y="57"/><ellipse cx="290" cy="73" fill="#ADD1B2" rx="11" ry="11" style="stroke: #919871; stroke-width: 1.0;"/><path d="M292.3438,68.6719 C291.4063,68.2344 290.8125,68.0938 289.9375,68.0938 C287.3125,68.0938 285.3125,70.1719 285.3125,72.8906 L285.3125,74.0156 C285.3125,76.5938 287.4219,78.4844 290.3125,78.4844 C291.5313,78.4844 292.6875,78.1875 293.4375,77.6406 C294.0156,77.2344 294.3438,76.7813 294.3438,76.3906 C294.3438,75.9375 293.9531,75.5469 293.4844,75.5469 C293.2656,75.5469 293.0625,75.625 292.875,75.8125 C292.4219,76.2969 292.4219,76.2969 292.2344,76.3906 C291.8125,76.6563 291.125,76.7813 290.3594,76.7813 C288.3125,76.7813 287.0156,75.6875 287.0156,73.9844 L287.0156,72.8906 C287.0156,71.1094 288.2656,69.7969 290,69.7969 C290.5781,69.7969 291.1875,69.9531 291.6563,70.2031 C292.1406,70.4844 292.3125,70.7031 292.4063,71.1094 C292.4688,71.5156 292.5,71.6406 292.6406,71.7656 C292.7813,71.9063 293.0156,72.0156 293.2344,72.0156 C293.5,72.0156 293.7656,71.875 293.9375,71.6563 C294.0469,71.5 294.0781,71.3125 294.0781,70.8906 L294.0781,69.4688 C294.0781,69.0313 294.0625,68.9063 293.9688,68.75 C293.8125,68.4844 293.5313,68.3438 293.2344,68.3438 C292.9375,68.3438 292.7344,68.4375 292.5156,68.75 L292.3438,68.6719 Z "/><text fill="#000000" font-family="Arial" font-size="11" lengthAdjust="spacingAndGlyphs" textLength="133" x="304" y="76.674">SchedulerRunConfiguration</text><line style="stroke: #919871; stroke-width: 1.5;" x1="276" x2="439" y1="89" y2="89"/><line style="stroke: #919871; stroke-width: 1.5;" x1="276" x2="439" y1="97" y2="97"/></a><rect fill="#EEEBDC" filter="url(#f1)" height="48" style="stroke: #919871; stroke-width: 1.5;" width="81" x="63" y="203"/><ellipse cx="78" cy="219" fill="#ADD1B2" rx="11" ry="11" style="stroke: #919871; stroke-width: 1.0;"/><path d="M80.3438,214.6719 C79.4063,214.2344 78.8125,214.0938 77.9375,214.0938 C75.3125,214.0938 73.3125,216.1719 73.3125,218.8906 L73.3125,220.0156 C73.3125,222.5938 75.4219,224.4844 78.3125,224.4844 C79.5313,224.4844 80.6875,224.1875 81.4375,223.6406 C82.0156,223.2344 82.3438,222.7813 82.3438,222.3906 C82.3438,221.9375 81.9531,221.5469 81.4844,221.5469 C81.2656,221.5469 81.0625,221.625 80.875,221.8125 C80.4219,222.2969 80.4219,222.2969 80.2344,222.3906 C79.8125,222.6563 79.125,222.7813 78.3594,222.7813 C76.3125,222.7813 75.0156,221.6875 75.0156,219.9844 L75.0156,218.8906 C75.0156,217.1094 76.2656,215.7969 78,215.7969 C78.5781,215.7969 79.1875,215.9531 79.6563,216.2031 C80.1406,216.4844 80.3125,216.7031 80.4063,217.1094 C80.4688,217.5156 80.5,217.6406 80.6406,217.7656 C80.7813,217.9063 81.0156,218.0156 81.2344,218.0156 C81.5,218.0156 81.7656,217.875 81.9375,217.6563 C82.0469,217.5 82.0781,217.3125 82.0781,216.8906 L82.0781,215.4688 C82.0781,215.0313 82.0625,214.9063 81.9688,214.75 C81.8125,214.4844 81.5313,214.3438 81.2344,214.3438 C80.9375,214.3438 80.7344,214.4375 80.5156,214.75 L80.3438,214.6719 Z "/><text fill="#000000" font-family="Arial" font-size="11" lengthAdjust="spacingAndGlyphs" textLength="49" x="92" y="222.674">Scheduler</text><line style="stroke: #919871; stroke-width: 1.5;" x1="64" x2="143" y1="235" y2="235"/><line style="stroke: #919871; stroke-width: 1.5;" x1="64" x2="143" y1="243" y2="243"/><rect fill="#EEEBDC" filter="url(#f1)" height="48" style="stroke: #919871; stroke-width: 1.5;" width="172" x="203" y="202"/><ellipse cx="218" cy="218" fill="#ADD1B2" rx="11" ry="11" style="stroke: #919871; stroke-width: 1.0;"/><path d="M220.3438,213.6719 C219.4063,213.2344 218.8125,213.0938 217.9375,213.0938 C215.3125,213.0938 213.3125,215.1719 213.3125,217.8906 L213.3125,219.0156 C213.3125,221.5938 215.4219,223.4844 218.3125,223.4844 C219.5313,223.4844 220.6875,223.1875 221.4375,222.6406 C222.0156,222.2344 222.3438,221.7813 222.3438,221.3906 C222.3438,220.9375 221.9531,220.5469 221.4844,220.5469 C221.2656,220.5469 221.0625,220.625 220.875,220.8125 C220.4219,221.2969 220.4219,221.2969 220.2344,221.3906 C219.8125,221.6563 219.125,221.7813 218.3594,221.7813 C216.3125,221.7813 215.0156,220.6875 215.0156,218.9844 L215.0156,217.8906 C215.0156,216.1094 216.2656,214.7969 218,214.7969 C218.5781,214.7969 219.1875,214.9531 219.6563,215.2031 C220.1406,215.4844 220.3125,215.7031 220.4063,216.1094 C220.4688,216.5156 220.5,216.6406 220.6406,216.7656 C220.7813,216.9063 221.0156,217.0156 221.2344,217.0156 C221.5,217.0156 221.7656,216.875 221.9375,216.6563 C222.0469,216.5 222.0781,216.3125 222.0781,215.8906 L222.0781,214.4688 C222.0781,214.0313 222.0625,213.9063 221.9688,213.75 C221.8125,213.4844 221.5313,213.3438 221.2344,213.3438 C220.9375,213.3438 220.7344,213.4375 220.5156,213.75 L220.3438,213.6719 Z "/><text fill="#000000" font-family="Arial" font-size="11" lengthAdjust="spacingAndGlyphs" textLength="140" x="232" y="221.674">TimeDrivenRunConfiguration</text><line style="stroke: #919871; stroke-width: 1.5;" x1="204" x2="374" y1="234" y2="234"/><line style="stroke: #919871; stroke-width: 1.5;" x1="204" x2="374" y1="242" y2="242"/><rect fill="#EEEBDC" filter="url(#f1)" height="48" style="stroke: #919871; stroke-width: 1.5;" width="171" x="410" y="202"/><ellipse cx="425" cy="218" fill="#ADD1B2" rx="11" ry="11" style="stroke: #919871; stroke-width: 1.0;"/><path d="M427.3438,213.6719 C426.4063,213.2344 425.8125,213.0938 424.9375,213.0938 C422.3125,213.0938 420.3125,215.1719 420.3125,217.8906 L420.3125,219.0156 C420.3125,221.5938 422.4219,223.4844 425.3125,223.4844 C426.5313,223.4844 427.6875,223.1875 428.4375,222.6406 C429.0156,222.2344 429.3438,221.7813 429.3438,221.3906 C429.3438,220.9375 428.9531,220.5469 428.4844,220.5469 C428.2656,220.5469 428.0625,220.625 427.875,220.8125 C427.4219,221.2969 427.4219,221.2969 427.2344,221.3906 C426.8125,221.6563 426.125,221.7813 425.3594,221.7813 C423.3125,221.7813 422.0156,220.6875 422.0156,218.9844 L422.0156,217.8906 C422.0156,216.1094 423.2656,214.7969 425,214.7969 C425.5781,214.7969 426.1875,214.9531 426.6563,215.2031 C427.1406,215.4844 427.3125,215.7031 427.4063,216.1094 C427.4688,216.5156 427.5,216.6406 427.6406,216.7656 C427.7813,216.9063 428.0156,217.0156 428.2344,217.0156 C428.5,217.0156 428.7656,216.875 428.9375,216.6563 C429.0469,216.5 429.0781,216.3125 429.0781,215.8906 L429.0781,214.4688 C429.0781,214.0313 429.0625,213.9063 428.9688,213.75 C428.8125,213.4844 428.5313,213.3438 428.2344,213.3438 C427.9375,213.3438 427.7344,213.4375 427.5156,213.75 L427.3438,213.6719 Z "/><text fill="#000000" font-family="Arial" font-size="11" lengthAdjust="spacingAndGlyphs" textLength="139" x="439" y="221.674">DataDrivenRunConfiguration</text><line style="stroke: #919871; stroke-width: 1.5;" x1="411" x2="580" y1="234" y2="234"/><line style="stroke: #919871; stroke-width: 1.5;" x1="411" x2="580" y1="242" y2="242"/><rect fill="#EEEBDC" filter="url(#f1)" height="48" style="stroke: #919871; stroke-width: 1.5;" width="59" x="615" y="202"/><ellipse cx="630" cy="218" fill="#ADD1B2" rx="11" ry="11" style="stroke: #919871; stroke-width: 1.0;"/><path d="M632.3438,213.6719 C631.4063,213.2344 630.8125,213.0938 629.9375,213.0938 C627.3125,213.0938 625.3125,215.1719 625.3125,217.8906 L625.3125,219.0156 C625.3125,221.5938 627.4219,223.4844 630.3125,223.4844 C631.5313,223.4844 632.6875,223.1875 633.4375,222.6406 C634.0156,222.2344 634.3438,221.7813 634.3438,221.3906 C634.3438,220.9375 633.9531,220.5469 633.4844,220.5469 C633.2656,220.5469 633.0625,220.625 632.875,220.8125 C632.4219,221.2969 632.4219,221.2969 632.2344,221.3906 C631.8125,221.6563 631.125,221.7813 630.3594,221.7813 C628.3125,221.7813 627.0156,220.6875 627.0156,218.9844 L627.0156,217.8906 C627.0156,216.1094 628.2656,214.7969 630,214.7969 C630.5781,214.7969 631.1875,214.9531 631.6563,215.2031 C632.1406,215.4844 632.3125,215.7031 632.4063,216.1094 C632.4688,216.5156 632.5,216.6406 632.6406,216.7656 C632.7813,216.9063 633.0156,217.0156 633.2344,217.0156 C633.5,217.0156 633.7656,216.875 633.9375,216.6563 C634.0469,216.5 634.0781,216.3125 634.0781,215.8906 L634.0781,214.4688 C634.0781,214.0313 634.0625,213.9063 633.9688,213.75 C633.8125,213.4844 633.5313,213.3438 633.2344,213.3438 C632.9375,213.3438 632.7344,213.4375 632.5156,213.75 L632.3438,213.6719 Z "/><text fill="#000000" font-family="Arial" font-size="11" lengthAdjust="spacingAndGlyphs" textLength="27" x="644" y="221.674">Entity</text><line style="stroke: #919871; stroke-width: 1.5;" x1="616" x2="673" y1="234" y2="234"/><line style="stroke: #919871; stroke-width: 1.5;" x1="616" x2="673" y1="242" y2="242"/><path d="M303.896,111.645 C256.25,139.14 187.365,178.892 144.167,203.8205 " fill="none" style="stroke: #000000; stroke-width: 1.0;"/><polygon fill="#000000" points="315.222,105.109,308.0259,104.6438,304.8287,111.1073,312.0248,111.5726,315.222,105.109" style="stroke: #000000; stroke-width: 1.0;"/><text fill="#000000" font-family="Arial" font-size="11" lengthAdjust="spacingAndGlyphs" textLength="18" x="262" y="146.4829">has</text><text fill="#000000" font-family="Arial" font-size="11" lengthAdjust="spacingAndGlyphs" textLength="6" x="151.9606" y="205.79">1</text><path d="M345.618,105.27 C335.665,126.494 320.978,157.812 309.057,183.232 " fill="none" style="stroke: #000000; stroke-width: 1.0;"/><polygon fill="none" points="315.248,186.516,300.419,201.651,302.573,180.571,315.248,186.516" style="stroke: #000000; stroke-width: 1.0;"/><text fill="#000000" font-family="Arial" font-size="11" lengthAdjust="spacingAndGlyphs" textLength="55" x="332" y="146.4829">implements</text><path d="M380.098,105.27 C401.293,127.54 433.064,160.922 457.829,186.944 " fill="none" style="stroke: #000000; stroke-width: 1.0;"/><polygon fill="none" points="463.109,182.338,471.827,201.651,452.968,191.989,463.109,182.338" style="stroke: #000000; stroke-width: 1.0;"/><text fill="#000000" font-family="Arial" font-size="11" lengthAdjust="spacingAndGlyphs" textLength="55" x="422" y="146.4829">implements</text><path d="M435.63,105.071 C484.647,122.094 547.733,147.788 598,181 C601.286,183.171 604.539,185.597 607.706,188.167 " fill="none" style="stroke: #000000; stroke-width: 1.0;"/><polygon fill="none" points="612.497,183.063,622.578,201.701,603.074,193.417,612.497,183.063" style="stroke: #000000; stroke-width: 1.0;"/><text fill="#000000" font-family="Arial" font-size="11" lengthAdjust="spacingAndGlyphs" textLength="55" x="543" y="146.4829">implements</text></g></svg>