<?xml version="1.0" encoding="UTF-8" standalone="yes"?><svg xmlns="http://www.w3.org/2000/svg" xmlns:xlink="http://www.w3.org/1999/xlink" height="294pt" style="width:225px;height:294px;" version="1.1" viewBox="0 0 225 294" width="225pt"><defs><filter height="300%" id="f1" width="300%" x="-1" y="-1"><feGaussianBlur result="blurOut" stdDeviation="2.0"/><feColorMatrix in="blurOut" result="blurOut2" type="matrix" values="0 0 0 0 0 0 0 0 0 0 0 0 0 0 0 0 0 0 .4 0"/><feOffset dx="4.0" dy="4.0" in="blurOut2" result="blurOut3"/><feBlend in="SourceGraphic" in2="blurOut3" mode="normal"/></filter></defs><g><polygon fill="#FFFFFF" filter="url(#f1)" points="22,24,107,24,114,43.6179,218,43.6179,218,287,22,287,22,24" style="stroke: #000000; stroke-width: 2.0;"/><line style="stroke: #000000; stroke-width: 2.0;" x1="22" x2="114" y1="43.6179" y2="43.6179"/><text fill="#000000" font-family="Arial" font-size="11" lengthAdjust="spacingAndGlyphs" textLength="79" x="25" y="37.4829">Terradue::Portal</text><a target="_top" xlink:href="../information/classes/class_terradue_1_1_portal_1_1_scheduler_run_configuration.html" xlink:title="../information/classes/class_terradue_1_1_portal_1_1_scheduler_run_configuration.html"><rect fill="#EEEBDC" filter="url(#f1)" height="48" style="stroke: #919871; stroke-width: 1.5;" width="165" x="38" y="57"/><ellipse cx="53" cy="73" fill="#ADD1B2" rx="11" ry="11" style="stroke: #919871; stroke-width: 1.0;"/><path d="M55.3438,68.6719 C54.4063,68.2344 53.8125,68.0938 52.9375,68.0938 C50.3125,68.0938 48.3125,70.1719 48.3125,72.8906 L48.3125,74.0156 C48.3125,76.5938 50.4219,78.4844 53.3125,78.4844 C54.5313,78.4844 55.6875,78.1875 56.4375,77.6406 C57.0156,77.2344 57.3438,76.7813 57.3438,76.3906 C57.3438,75.9375 56.9531,75.5469 56.4844,75.5469 C56.2656,75.5469 56.0625,75.625 55.875,75.8125 C55.4219,76.2969 55.4219,76.2969 55.2344,76.3906 C54.8125,76.6563 54.125,76.7813 53.3594,76.7813 C51.3125,76.7813 50.0156,75.6875 50.0156,73.9844 L50.0156,72.8906 C50.0156,71.1094 51.2656,69.7969 53,69.7969 C53.5781,69.7969 54.1875,69.9531 54.6563,70.2031 C55.1406,70.4844 55.3125,70.7031 55.4063,71.1094 C55.4688,71.5156 55.5,71.6406 55.6406,71.7656 C55.7813,71.9063 56.0156,72.0156 56.2344,72.0156 C56.5,72.0156 56.7656,71.875 56.9375,71.6563 C57.0469,71.5 57.0781,71.3125 57.0781,70.8906 L57.0781,69.4688 C57.0781,69.0313 57.0625,68.9063 56.9688,68.75 C56.8125,68.4844 56.5313,68.3438 56.2344,68.3438 C55.9375,68.3438 55.7344,68.4375 55.5156,68.75 L55.3438,68.6719 Z "/><text fill="#000000" font-family="Arial" font-size="11" lengthAdjust="spacingAndGlyphs" textLength="133" x="67" y="76.674">SchedulerRunConfiguration</text><line style="stroke: #919871; stroke-width: 1.5;" x1="39" x2="202" y1="89" y2="89"/><line style="stroke: #919871; stroke-width: 1.5;" x1="39" x2="202" y1="97" y2="97"/></a><rect fill="#EEEBDC" filter="url(#f1)" height="48" style="stroke: #919871; stroke-width: 1.5;" width="81" x="79" y="203"/><ellipse cx="94" cy="219" fill="#ADD1B2" rx="11" ry="11" style="stroke: #919871; stroke-width: 1.0;"/><path d="M96.3438,214.6719 C95.4063,214.2344 94.8125,214.0938 93.9375,214.0938 C91.3125,214.0938 89.3125,216.1719 89.3125,218.8906 L89.3125,220.0156 C89.3125,222.5938 91.4219,224.4844 94.3125,224.4844 C95.5313,224.4844 96.6875,224.1875 97.4375,223.6406 C98.0156,223.2344 98.3438,222.7813 98.3438,222.3906 C98.3438,221.9375 97.9531,221.5469 97.4844,221.5469 C97.2656,221.5469 97.0625,221.625 96.875,221.8125 C96.4219,222.2969 96.4219,222.2969 96.2344,222.3906 C95.8125,222.6563 95.125,222.7813 94.3594,222.7813 C92.3125,222.7813 91.0156,221.6875 91.0156,219.9844 L91.0156,218.8906 C91.0156,217.1094 92.2656,215.7969 94,215.7969 C94.5781,215.7969 95.1875,215.9531 95.6563,216.2031 C96.1406,216.4844 96.3125,216.7031 96.4063,217.1094 C96.4688,217.5156 96.5,217.6406 96.6406,217.7656 C96.7813,217.9063 97.0156,218.0156 97.2344,218.0156 C97.5,218.0156 97.7656,217.875 97.9375,217.6563 C98.0469,217.5 98.0781,217.3125 98.0781,216.8906 L98.0781,215.4688 C98.0781,215.0313 98.0625,214.9063 97.9688,214.75 C97.8125,214.4844 97.5313,214.3438 97.2344,214.3438 C96.9375,214.3438 96.7344,214.4375 96.5156,214.75 L96.3438,214.6719 Z "/><text fill="#000000" font-family="Arial" font-size="11" lengthAdjust="spacingAndGlyphs" textLength="49" x="108" y="222.674">Scheduler</text><line style="stroke: #919871; stroke-width: 1.5;" x1="80" x2="159" y1="235" y2="235"/><line style="stroke: #919871; stroke-width: 1.5;" x1="80" x2="159" y1="243" y2="243"/><path d="M120,118.143 C120,144.748 120,179.807 120,202.855 " fill="none" style="stroke: #000000; stroke-width: 1.0;"/><polygon fill="#000000" points="120,105.109,116,111.109,120,117.109,124,111.109,120,105.109" style="stroke: #000000; stroke-width: 1.0;"/><text fill="#000000" font-family="Arial" font-size="11" lengthAdjust="spacingAndGlyphs" textLength="18" x="121" y="146.4829">has</text><text fill="#000000" font-family="Arial" font-size="11" lengthAdjust="spacingAndGlyphs" textLength="6" x="121.3995" y="191.9519">1</text></g></svg>