<?xml version="1.0" encoding="UTF-8" standalone="yes"?><svg xmlns="http://www.w3.org/2000/svg" xmlns:xlink="http://www.w3.org/1999/xlink" height="139pt" style="width:169px;height:139px;" version="1.1" viewBox="0 0 169 139" width="169pt"><defs><filter height="300%" id="f1" width="300%" x="-1" y="-1"><feGaussianBlur result="blurOut" stdDeviation="2.0"/><feColorMatrix in="blurOut" result="blurOut2" type="matrix" values="0 0 0 0 0 0 0 0 0 0 0 0 0 0 0 0 0 0 .4 0"/><feOffset dx="4.0" dy="4.0" in="blurOut2" result="blurOut3"/><feBlend in="SourceGraphic" in2="blurOut3" mode="normal"/></filter></defs><g><polygon fill="#FFFFFF" filter="url(#f1)" points="22,24,107,24,114,42.6489,162,42.6489,162,132,22,132,22,24" style="stroke: #000000; stroke-width: 2.0;"/><line style="stroke: #000000; stroke-width: 2.0;" x1="22" x2="114" y1="42.6489" y2="42.6489"/><text fill="#000000" font-family="Arial" font-size="11" lengthAdjust="spacingAndGlyphs" textLength="79" x="25" y="37.3179">Terradue::Portal</text><a target="_top" xlink:href="../information/classes/class_terradue_1_1_portal_1_1_user.html" xlink:title="../information/classes/class_terradue_1_1_portal_1_1_user.html"><rect fill="#EEEBDC" filter="url(#f1)" height="59.499" style="stroke: #919871; stroke-width: 1.5;" width="108" x="38" y="56.5"/><ellipse cx="76.4" cy="72.5" fill="#ADD1B2" rx="11" ry="11" style="stroke: #919871; stroke-width: 1.0;"/><path d="M79.3731,78.1431 Q78.7921,78.4419 78.1529,78.5913 Q77.5138,78.7407 76.8082,78.7407 Q74.3014,78.7407 72.9815,77.0889 Q71.6617,75.437 71.6617,72.3159 Q71.6617,69.1865 72.9815,67.5347 Q74.3014,65.8828 76.8082,65.8828 Q77.5138,65.8828 78.1612,66.0322 Q78.8087,66.1816 79.3731,66.4805 L79.3731,69.2031 Q78.7423,68.6221 78.1488,68.3523 Q77.5553,68.0825 76.9244,68.0825 Q75.5797,68.0825 74.8949,69.1492 Q74.2101,70.2158 74.2101,72.3159 Q74.2101,74.4077 74.8949,75.4744 Q75.5797,76.541 76.9244,76.541 Q77.5553,76.541 78.1488,76.2712 Q78.7423,76.0015 79.3731,75.4204 Z "/><text fill="#000000" font-family="Arial" font-size="11" lengthAdjust="spacingAndGlyphs" textLength="24" x="95.6" y="76.4934">User</text><line style="stroke: #919871; stroke-width: 1.5;" x1="39" x2="145" y1="88.5" y2="88.5"/><ellipse cx="49" cy="99.5" fill="none" rx="3" ry="3" style="stroke: #038048; stroke-width: 1.0;"/><text fill="#000000" font-family="Arial" font-size="10" lengthAdjust="spacingAndGlyphs" textLength="82" x="58" y="102.1304">AccountStatus:int</text><line style="stroke: #919871; stroke-width: 1.5;" x1="39" x2="145" y1="107.999" y2="107.999"/></a></g></svg>