<?xml version="1.0" encoding="UTF-8" standalone="yes"?><svg xmlns="http://www.w3.org/2000/svg" xmlns:xlink="http://www.w3.org/1999/xlink" height="326pt" style="width:167px;height:326px;" version="1.1" viewBox="0 0 167 326" width="167pt"><defs><filter height="300%" id="f1" width="300%" x="-1" y="-1"><feGaussianBlur result="blurOut" stdDeviation="2.0"/><feColorMatrix in="blurOut" result="blurOut2" type="matrix" values="0 0 0 0 0 0 0 0 0 0 0 0 0 0 0 0 0 0 .4 0"/><feOffset dx="4.0" dy="4.0" in="blurOut2" result="blurOut3"/><feBlend in="SourceGraphic" in2="blurOut3" mode="normal"/></filter></defs><g><polygon fill="#FFFFFF" filter="url(#f1)" points="22,24,107,24,114,43.6179,160,43.6179,160,319,22,319,22,24" style="stroke: #000000; stroke-width: 2.0;"/><line style="stroke: #000000; stroke-width: 2.0;" x1="22" x2="114" y1="43.6179" y2="43.6179"/><text fill="#000000" font-family="Arial" font-size="11" lengthAdjust="spacingAndGlyphs" textLength="79" x="25" y="37.4829">Terradue::Portal</text><a target="_top" xlink:href="../information/classes/class_terradue_1_1_portal_1_1_feature.html" xlink:title="../information/classes/class_terradue_1_1_portal_1_1_feature.html"><rect fill="#EEEBDC" filter="url(#f1)" height="122.2799" style="stroke: #919871; stroke-width: 1.5;" width="106" x="38" y="57"/><ellipse cx="69.2" cy="73" fill="#ADD1B2" rx="11" ry="11" style="stroke: #919871; stroke-width: 1.0;"/><path d="M71.5438,68.6719 C70.6063,68.2344 70.0125,68.0938 69.1375,68.0938 C66.5125,68.0938 64.5125,70.1719 64.5125,72.8906 L64.5125,74.0156 C64.5125,76.5938 66.6219,78.4844 69.5125,78.4844 C70.7313,78.4844 71.8875,78.1875 72.6375,77.6406 C73.2156,77.2344 73.5438,76.7813 73.5438,76.3906 C73.5438,75.9375 73.1531,75.5469 72.6844,75.5469 C72.4656,75.5469 72.2625,75.625 72.075,75.8125 C71.6219,76.2969 71.6219,76.2969 71.4344,76.3906 C71.0125,76.6563 70.325,76.7813 69.5594,76.7813 C67.5125,76.7813 66.2156,75.6875 66.2156,73.9844 L66.2156,72.8906 C66.2156,71.1094 67.4656,69.7969 69.2,69.7969 C69.7781,69.7969 70.3875,69.9531 70.8563,70.2031 C71.3406,70.4844 71.5125,70.7031 71.6063,71.1094 C71.6688,71.5156 71.7,71.6406 71.8406,71.7656 C71.9813,71.9063 72.2156,72.0156 72.4344,72.0156 C72.7,72.0156 72.9656,71.875 73.1375,71.6563 C73.2469,71.5 73.2781,71.3125 73.2781,70.8906 L73.2781,69.4688 C73.2781,69.0313 73.2625,68.9063 73.1688,68.75 C73.0125,68.4844 72.7313,68.3438 72.4344,68.3438 C72.1375,68.3438 71.9344,68.4375 71.7156,68.75 L71.5438,68.6719 Z "/><text fill="#000000" font-family="Arial" font-size="11" lengthAdjust="spacingAndGlyphs" textLength="38" x="86.8" y="76.674">Feature</text><line style="stroke: #919871; stroke-width: 1.5;" x1="39" x2="143" y1="89" y2="89"/><ellipse cx="49" cy="100.19" fill="none" rx="3" ry="3" style="stroke: #038048; stroke-width: 1.0;"/><text fill="#000000" font-family="Arial" font-size="10" lengthAdjust="spacingAndGlyphs" textLength="47" x="58" y="102.53">Title:string</text><ellipse cx="49" cy="112.57" fill="none" rx="3" ry="3" style="stroke: #038048; stroke-width: 1.0;"/><text fill="#000000" font-family="Arial" font-size="10" lengthAdjust="spacingAndGlyphs" textLength="79" x="58" y="114.91">Description:string</text><ellipse cx="49" cy="124.95" fill="none" rx="3" ry="3" style="stroke: #038048; stroke-width: 1.0;"/><text fill="#000000" font-family="Arial" font-size="10" lengthAdjust="spacingAndGlyphs" textLength="57" x="58" y="127.29">Image:string</text><ellipse cx="49" cy="137.33" fill="none" rx="3" ry="3" style="stroke: #038048; stroke-width: 1.0;"/><text fill="#000000" font-family="Arial" font-size="10" lengthAdjust="spacingAndGlyphs" textLength="80" x="58" y="139.67">ImageStyle:string</text><ellipse cx="49" cy="149.7099" fill="none" rx="3" ry="3" style="stroke: #038048; stroke-width: 1.0;"/><text fill="#000000" font-family="Arial" font-size="10" lengthAdjust="spacingAndGlyphs" textLength="79" x="58" y="152.0499">ButtonText:string</text><ellipse cx="49" cy="162.0899" fill="none" rx="3" ry="3" style="stroke: #038048; stroke-width: 1.0;"/><text fill="#000000" font-family="Arial" font-size="10" lengthAdjust="spacingAndGlyphs" textLength="78" x="58" y="164.4299">ButtonLink:string</text><line style="stroke: #919871; stroke-width: 1.5;" x1="39" x2="143" y1="171.2799" y2="171.2799"/></a><rect fill="#EEEBDC" filter="url(#f1)" height="48" style="stroke: #919871; stroke-width: 1.5;" width="59" x="57" y="255"/><ellipse cx="72" cy="271" fill="#ADD1B2" rx="11" ry="11" style="stroke: #919871; stroke-width: 1.0;"/><path d="M74.3438,266.6719 C73.4063,266.2344 72.8125,266.0938 71.9375,266.0938 C69.3125,266.0938 67.3125,268.1719 67.3125,270.8906 L67.3125,272.0156 C67.3125,274.5938 69.4219,276.4844 72.3125,276.4844 C73.5313,276.4844 74.6875,276.1875 75.4375,275.6406 C76.0156,275.2344 76.3438,274.7813 76.3438,274.3906 C76.3438,273.9375 75.9531,273.5469 75.4844,273.5469 C75.2656,273.5469 75.0625,273.625 74.875,273.8125 C74.4219,274.2969 74.4219,274.2969 74.2344,274.3906 C73.8125,274.6563 73.125,274.7813 72.3594,274.7813 C70.3125,274.7813 69.0156,273.6875 69.0156,271.9844 L69.0156,270.8906 C69.0156,269.1094 70.2656,267.7969 72,267.7969 C72.5781,267.7969 73.1875,267.9531 73.6563,268.2031 C74.1406,268.4844 74.3125,268.7031 74.4063,269.1094 C74.4688,269.5156 74.5,269.6406 74.6406,269.7656 C74.7813,269.9063 75.0156,270.0156 75.2344,270.0156 C75.5,270.0156 75.7656,269.875 75.9375,269.6563 C76.0469,269.5 76.0781,269.3125 76.0781,268.8906 L76.0781,267.4688 C76.0781,267.0313 76.0625,266.9063 75.9688,266.75 C75.8125,266.4844 75.5313,266.3438 75.2344,266.3438 C74.9375,266.3438 74.7344,266.4375 74.5156,266.75 L74.3438,266.6719 Z "/><text fill="#000000" font-family="Arial" font-size="11" lengthAdjust="spacingAndGlyphs" textLength="27" x="86" y="274.674">Entity</text><line style="stroke: #919871; stroke-width: 1.5;" x1="58" x2="115" y1="287" y2="287"/><line style="stroke: #919871; stroke-width: 1.5;" x1="58" x2="115" y1="295" y2="295"/><path d="M89.0955,179.326 C88.5243,197.719 87.9091,217.529 87.3787,234.605 " fill="none" style="stroke: #000000; stroke-width: 1.0;"/><polygon fill="none" points="94.3693,235.0202,86.7518,254.7932,80.3761,234.586,94.3693,235.0202" style="stroke: #000000; stroke-width: 1.0;"/><text fill="#000000" font-family="Arial" font-size="11" lengthAdjust="spacingAndGlyphs" textLength="55" x="89" y="220.4829">implements</text></g></svg>