<?xml version="1.0" encoding="UTF-8" standalone="yes"?><svg xmlns="http://www.w3.org/2000/svg" xmlns:xlink="http://www.w3.org/1999/xlink" height="178pt" style="width:165px;height:178px;" version="1.1" viewBox="0 0 165 178" width="165pt"><defs><filter height="300%" id="f1" width="300%" x="-1" y="-1"><feGaussianBlur result="blurOut" stdDeviation="2.0"/><feColorMatrix in="blurOut" result="blurOut2" type="matrix" values="0 0 0 0 0 0 0 0 0 0 0 0 0 0 0 0 0 0 .4 0"/><feOffset dx="4.0" dy="4.0" in="blurOut2" result="blurOut3"/><feBlend in="SourceGraphic" in2="blurOut3" mode="normal"/></filter></defs><g><polygon fill="#FFFFFF" filter="url(#f1)" points="22,24,107,24,114,43.6179,158,43.6179,158,171,22,171,22,24" style="stroke: #000000; stroke-width: 2.0;"/><line style="stroke: #000000; stroke-width: 2.0;" x1="22" x2="114" y1="43.6179" y2="43.6179"/><text fill="#000000" font-family="Arial" font-size="11" lengthAdjust="spacingAndGlyphs" textLength="79" x="25" y="37.4829">Terradue::Portal</text><a xlink:href="../information/classes/class_terradue_1_1_portal_1_1_image.html" xlink:title="../information/classes/class_terradue_1_1_portal_1_1_image.html"><rect fill="#EEEBDC" filter="url(#f1)" height="97.52" style="stroke: #919871; stroke-width: 1.5;" width="105" x="38" y="57"/><ellipse cx="72.35" cy="73" fill="#ADD1B2" rx="11" ry="11" style="stroke: #919871; stroke-width: 1.0;"/><path d="M74.6938,68.6719 C73.7563,68.2344 73.1625,68.0938 72.2875,68.0938 C69.6625,68.0938 67.6625,70.1719 67.6625,72.8906 L67.6625,74.0156 C67.6625,76.5938 69.7719,78.4844 72.6625,78.4844 C73.8813,78.4844 75.0375,78.1875 75.7875,77.6406 C76.3656,77.2344 76.6938,76.7813 76.6938,76.3906 C76.6938,75.9375 76.3031,75.5469 75.8344,75.5469 C75.6156,75.5469 75.4125,75.625 75.225,75.8125 C74.7719,76.2969 74.7719,76.2969 74.5844,76.3906 C74.1625,76.6563 73.475,76.7813 72.7094,76.7813 C70.6625,76.7813 69.3656,75.6875 69.3656,73.9844 L69.3656,72.8906 C69.3656,71.1094 70.6156,69.7969 72.35,69.7969 C72.9281,69.7969 73.5375,69.9531 74.0063,70.2031 C74.4906,70.4844 74.6625,70.7031 74.7563,71.1094 C74.8188,71.5156 74.85,71.6406 74.9906,71.7656 C75.1313,71.9063 75.3656,72.0156 75.5844,72.0156 C75.85,72.0156 76.1156,71.875 76.2875,71.6563 C76.3969,71.5 76.4281,71.3125 76.4281,70.8906 L76.4281,69.4688 C76.4281,69.0313 76.4125,68.9063 76.3188,68.75 C76.1625,68.4844 75.8813,68.3438 75.5844,68.3438 C75.2875,68.3438 75.0844,68.4375 74.8656,68.75 L74.6938,68.6719 Z "/><text fill="#000000" font-family="Arial" font-size="11" lengthAdjust="spacingAndGlyphs" textLength="30" x="90.65" y="76.674">Image</text><line style="stroke: #919871; stroke-width: 1.5;" x1="39" x2="142" y1="89" y2="89"/><ellipse cx="49" cy="100.19" fill="none" rx="3" ry="3" style="stroke: #038048; stroke-width: 1.0;"/><text fill="#000000" font-family="Arial" font-size="10" lengthAdjust="spacingAndGlyphs" textLength="64" x="58" y="102.53">Caption:string</text><ellipse cx="49" cy="112.57" fill="none" rx="3" ry="3" style="stroke: #038048; stroke-width: 1.0;"/><text fill="#000000" font-family="Arial" font-size="10" lengthAdjust="spacingAndGlyphs" textLength="79" x="58" y="114.91">Description:string</text><ellipse cx="49" cy="124.95" fill="none" rx="3" ry="3" style="stroke: #038048; stroke-width: 1.0;"/><text fill="#000000" font-family="Arial" font-size="10" lengthAdjust="spacingAndGlyphs" textLength="40" x="58" y="127.29">Url:string</text><ellipse cx="49" cy="137.33" fill="none" rx="3" ry="3" style="stroke: #038048; stroke-width: 1.0;"/><text fill="#000000" font-family="Arial" font-size="10" lengthAdjust="spacingAndGlyphs" textLength="65" x="58" y="139.67">SmallUrl:string</text><line style="stroke: #919871; stroke-width: 1.5;" x1="39" x2="142" y1="146.52" y2="146.52"/></a></g></svg>