<?xml version="1.0" encoding="UTF-8" standalone="yes"?><svg xmlns="http://www.w3.org/2000/svg" xmlns:xlink="http://www.w3.org/1999/xlink" height="127pt" style="width:248px;height:127px;" version="1.1" viewBox="0 0 248 127" width="248pt"><defs><filter height="300%" id="f1" width="300%" x="-1" y="-1"><feGaussianBlur result="blurOut" stdDeviation="2.0"/><feColorMatrix in="blurOut" result="blurOut2" type="matrix" values="0 0 0 0 0 0 0 0 0 0 0 0 0 0 0 0 0 0 .4 0"/><feOffset dx="4.0" dy="4.0" in="blurOut2" result="blurOut3"/><feBlend in="SourceGraphic" in2="blurOut3" mode="normal"/></filter></defs><g><polygon fill="#FFFFFF" filter="url(#f1)" points="22,24,230,24,237,42.6489,241,42.6489,241,120,22,120,22,24" style="stroke: #000000; stroke-width: 2.0;"/><line style="stroke: #000000; stroke-width: 2.0;" x1="22" x2="237" y1="42.6489" y2="42.6489"/><text fill="#000000" font-family="Arial" font-size="11" lengthAdjust="spacingAndGlyphs" textLength="202" x="25" y="37.3179">Terradue::ServiceModel::Ogc::OwsModel</text><a target="_top" xlink:href="../information/classes/class_terradue_1_1_service_model_1_1_ogc_1_1_ows_model_1_1_owc_resource.html" xlink:title="../information/classes/class_terradue_1_1_service_model_1_1_ogc_1_1_ows_model_1_1_owc_resource.html"><rect fill="#EEEBDC" filter="url(#f1)" height="48" style="stroke: #919871; stroke-width: 1.5;" width="103" x="79.75" y="56"/><ellipse cx="94.75" cy="72" fill="#ADD1B2" rx="11" ry="11" style="stroke: #919871; stroke-width: 1.0;"/><path d="M97.7231,77.6431 Q97.1421,77.9419 96.5029,78.0913 Q95.8638,78.2407 95.1582,78.2407 Q92.6514,78.2407 91.3315,76.5889 Q90.0117,74.937 90.0117,71.8159 Q90.0117,68.6865 91.3315,67.0347 Q92.6514,65.3828 95.1582,65.3828 Q95.8638,65.3828 96.5112,65.5322 Q97.1587,65.6816 97.7231,65.9805 L97.7231,68.7031 Q97.0923,68.1221 96.4988,67.8523 Q95.9053,67.5825 95.2744,67.5825 Q93.9297,67.5825 93.2449,68.6492 Q92.5601,69.7158 92.5601,71.8159 Q92.5601,73.9077 93.2449,74.9744 Q93.9297,76.041 95.2744,76.041 Q95.9053,76.041 96.4988,75.7712 Q97.0923,75.5015 97.7231,74.9204 Z "/><text fill="#000000" font-family="Arial" font-size="11" lengthAdjust="spacingAndGlyphs" textLength="71" x="108.75" y="75.9934">OwcResource</text><line style="stroke: #919871; stroke-width: 1.5;" x1="80.75" x2="181.75" y1="88" y2="88"/><line style="stroke: #919871; stroke-width: 1.5;" x1="80.75" x2="181.75" y1="96" y2="96"/></a></g></svg>