<?xml version="1.0" encoding="UTF-8" standalone="yes"?><svg xmlns="http://www.w3.org/2000/svg" xmlns:xlink="http://www.w3.org/1999/xlink" height="127pt" style="width:248px;height:127px;" version="1.1" viewBox="0 0 248 127" width="248pt"><defs><filter height="300%" id="f1" width="300%" x="-1" y="-1"><feGaussianBlur result="blurOut" stdDeviation="2.0"/><feColorMatrix in="blurOut" result="blurOut2" type="matrix" values="0 0 0 0 0 0 0 0 0 0 0 0 0 0 0 0 0 0 .4 0"/><feOffset dx="4.0" dy="4.0" in="blurOut2" result="blurOut3"/><feBlend in="SourceGraphic" in2="blurOut3" mode="normal"/></filter></defs><g><polygon fill="#FFFFFF" filter="url(#f1)" points="22,24,230,24,237,42.6489,241,42.6489,241,120,22,120,22,24" style="stroke: #000000; stroke-width: 2.0;"/><line style="stroke: #000000; stroke-width: 2.0;" x1="22" x2="237" y1="42.6489" y2="42.6489"/><text fill="#000000" font-family="Arial" font-size="11" lengthAdjust="spacingAndGlyphs" textLength="202" x="25" y="37.3179">Terradue::ServiceModel::Ogc::OwsModel</text><a target="_top" xlink:href="../information/classes/class_terradue_1_1_service_model_1_1_ogc_1_1_ows_model_1_1_owc_offering.html" xlink:title="../information/classes/class_terradue_1_1_service_model_1_1_ogc_1_1_ows_model_1_1_owc_offering.html"><rect fill="#EEEBDC" filter="url(#f1)" height="48" style="stroke: #919871; stroke-width: 1.5;" width="94" x="84" y="56"/><ellipse cx="99" cy="72" fill="#ADD1B2" rx="11" ry="11" style="stroke: #919871; stroke-width: 1.0;"/><path d="M101.9731,77.6431 Q101.3921,77.9419 100.7529,78.0913 Q100.1138,78.2407 99.4082,78.2407 Q96.9014,78.2407 95.5815,76.5889 Q94.2617,74.937 94.2617,71.8159 Q94.2617,68.6865 95.5815,67.0347 Q96.9014,65.3828 99.4082,65.3828 Q100.1138,65.3828 100.7612,65.5322 Q101.4087,65.6816 101.9731,65.9805 L101.9731,68.7031 Q101.3423,68.1221 100.7488,67.8523 Q100.1553,67.5825 99.5244,67.5825 Q98.1797,67.5825 97.4949,68.6492 Q96.8101,69.7158 96.8101,71.8159 Q96.8101,73.9077 97.4949,74.9744 Q98.1797,76.041 99.5244,76.041 Q100.1553,76.041 100.7488,75.7712 Q101.3423,75.5015 101.9731,74.9204 Z "/><text fill="#000000" font-family="Arial" font-size="11" lengthAdjust="spacingAndGlyphs" textLength="62" x="113" y="75.9934">OwcOffering</text><line style="stroke: #919871; stroke-width: 1.5;" x1="85" x2="177" y1="88" y2="88"/><line style="stroke: #919871; stroke-width: 1.5;" x1="85" x2="177" y1="96" y2="96"/></a></g></svg>