<?xml version="1.0" encoding="UTF-8" standalone="yes"?><svg xmlns="http://www.w3.org/2000/svg" xmlns:xlink="http://www.w3.org/1999/xlink" height="673pt" style="width:922px;height:673px;" version="1.1" viewBox="0 0 922 673" width="922pt"><defs><filter height="300%" id="f1" width="300%" x="-1" y="-1"><feGaussianBlur result="blurOut" stdDeviation="2.0"/><feColorMatrix in="blurOut" result="blurOut2" type="matrix" values="0 0 0 0 0 0 0 0 0 0 0 0 0 0 0 0 0 0 .4 0"/><feOffset dx="4.0" dy="4.0" in="blurOut2" result="blurOut3"/><feBlend in="SourceGraphic" in2="blurOut3" mode="normal"/></filter></defs><g><text fill="#000000" font-family="sans-serif" font-size="14" font-weight="bold" lengthAdjust="spacingAndGlyphs" textLength="256" x="333" y="20.7059">runJob - On-demand cloud appliance</text><rect fill="#FFFFFF" filter="url(#f1)" height="30.094" style="stroke: #A80036; stroke-width: 1.0;" width="10" x="384" y="178.4299"/><rect fill="#FFFFFF" filter="url(#f1)" height="30.094" style="stroke: #A80036; stroke-width: 1.0;" width="10" x="509" y="238.6179"/><rect fill="#FFFFFF" filter="url(#f1)" height="151.0941" style="stroke: #A80036; stroke-width: 1.0;" width="10" x="619" y="358.9939"/><line style="stroke: #A80036; stroke-width: 1.0; stroke-dasharray: 5.0,5.0;" x1="35" x2="35" y1="116.3358" y2="588.37"/><line style="stroke: #A80036; stroke-width: 1.0; stroke-dasharray: 5.0,5.0;" x1="266" x2="266" y1="116.3358" y2="588.37"/><line style="stroke: #A80036; stroke-width: 1.0; stroke-dasharray: 5.0,5.0;" x1="388.5" x2="388.5" y1="116.3358" y2="588.37"/><line style="stroke: #A80036; stroke-width: 1.0; stroke-dasharray: 5.0,5.0;" x1="513.5" x2="513.5" y1="116.3358" y2="588.37"/><line style="stroke: #A80036; stroke-width: 1.0; stroke-dasharray: 5.0,5.0;" x1="623.5" x2="623.5" y1="116.3358" y2="588.37"/><line style="stroke: #A80036; stroke-width: 1.0; stroke-dasharray: 5.0,5.0;" x1="850.5" x2="850.5" y1="116.3358" y2="588.37"/><text fill="#000000" font-family="sans-serif" font-size="14" lengthAdjust="spacingAndGlyphs" textLength="54" x="5" y="112.3459">endUser</text><ellipse cx="35" cy="42.0039" fill="#FEFECE" filter="url(#f1)" rx="8" ry="8" style="stroke: #A80036; stroke-width: 2.0;"/><path d="M35,50.0039 L35,77.0039 M22,58.0039 L48,58.0039 M35,77.0039 L22,92.0039 M35,77.0039 L48,92.0039 " fill="#FEFECE" filter="url(#f1)" style="stroke: #A80036; stroke-width: 2.0;"/><text fill="#000000" font-family="sans-serif" font-size="14" lengthAdjust="spacingAndGlyphs" textLength="54" x="5" y="600.0139">endUser</text><ellipse cx="35" cy="614.0039" fill="#FEFECE" filter="url(#f1)" rx="8" ry="8" style="stroke: #A80036; stroke-width: 2.0;"/><path d="M35,622.0039 L35,649.0039 M22,630.0039 L48,630.0039 M35,649.0039 L22,664.0039 M35,649.0039 L48,664.0039 " fill="#FEFECE" filter="url(#f1)" style="stroke: #A80036; stroke-width: 2.0;"/><text fill="#000000" font-family="sans-serif" font-size="14" lengthAdjust="spacingAndGlyphs" textLength="76" x="225" y="112.3459">geoBrowser</text><path d="M245.5,71.0039 L245.5,95.0039 M245.5,83.0039 L262.5,83.0039 " fill="#FEFECE" filter="url(#f1)" style="stroke: #A80036; stroke-width: 2.0;"/><ellipse cx="274.5" cy="83.0039" fill="#FEFECE" filter="url(#f1)" rx="12" ry="12" style="stroke: #A80036; stroke-width: 2.0;"/><text fill="#000000" font-family="sans-serif" font-size="14" lengthAdjust="spacingAndGlyphs" textLength="76" x="225" y="600.0139">geoBrowser</text><path d="M245.5,608.0039 L245.5,632.0039 M245.5,620.0039 L262.5,620.0039 " fill="#FEFECE" filter="url(#f1)" style="stroke: #A80036; stroke-width: 2.0;"/><ellipse cx="274.5" cy="620.0039" fill="#FEFECE" filter="url(#f1)" rx="12" ry="12" style="stroke: #A80036; stroke-width: 2.0;"/><text fill="#000000" font-family="sans-serif" font-size="14" lengthAdjust="spacingAndGlyphs" textLength="123" x="324.5" y="112.3459">processingServices</text><ellipse cx="389" cy="83.0039" fill="#FEFECE" filter="url(#f1)" rx="12" ry="12" style="stroke: #A80036; stroke-width: 2.0;"/><polygon fill="#A80036" points="385,71.0039,391,66.0039,389,71.0039,391,76.0039,385,71.0039" style="stroke: #A80036; stroke-width: 1.0;"/><text fill="#000000" font-family="sans-serif" font-size="14" lengthAdjust="spacingAndGlyphs" textLength="123" x="324.5" y="600.0139">processingServices</text><ellipse cx="389" cy="620.0039" fill="#FEFECE" filter="url(#f1)" rx="12" ry="12" style="stroke: #A80036; stroke-width: 2.0;"/><polygon fill="#A80036" points="385,608.0039,391,603.0039,389,608.0039,391,613.0039,385,608.0039" style="stroke: #A80036; stroke-width: 1.0;"/><text fill="#000000" font-family="sans-serif" font-size="14" lengthAdjust="spacingAndGlyphs" textLength="95" x="463.5" y="112.3459">eoDataContext</text><ellipse cx="514" cy="83.0039" fill="#FEFECE" filter="url(#f1)" rx="12" ry="12" style="stroke: #A80036; stroke-width: 2.0;"/><polygon fill="#A80036" points="510,71.0039,516,66.0039,514,71.0039,516,76.0039,510,71.0039" style="stroke: #A80036; stroke-width: 1.0;"/><text fill="#000000" font-family="sans-serif" font-size="14" lengthAdjust="spacingAndGlyphs" textLength="95" x="463.5" y="600.0139">eoDataContext</text><ellipse cx="514" cy="620.0039" fill="#FEFECE" filter="url(#f1)" rx="12" ry="12" style="stroke: #A80036; stroke-width: 2.0;"/><polygon fill="#A80036" points="510,608.0039,516,603.0039,514,608.0039,516,613.0039,510,608.0039" style="stroke: #A80036; stroke-width: 1.0;"/><text fill="#000000" font-family="sans-serif" font-size="14" lengthAdjust="spacingAndGlyphs" textLength="93" x="574.5" y="112.3459">cloudControler</text><ellipse cx="624" cy="83.0039" fill="#FEFECE" filter="url(#f1)" rx="12" ry="12" style="stroke: #A80036; stroke-width: 2.0;"/><polygon fill="#A80036" points="620,71.0039,626,66.0039,624,71.0039,626,76.0039,620,71.0039" style="stroke: #A80036; stroke-width: 1.0;"/><text fill="#000000" font-family="sans-serif" font-size="14" lengthAdjust="spacingAndGlyphs" textLength="93" x="574.5" y="600.0139">cloudControler</text><ellipse cx="624" cy="620.0039" fill="#FEFECE" filter="url(#f1)" rx="12" ry="12" style="stroke: #A80036; stroke-width: 2.0;"/><polygon fill="#A80036" points="620,608.0039,626,603.0039,624,608.0039,626,613.0039,620,608.0039" style="stroke: #A80036; stroke-width: 1.0;"/><rect fill="#FEFECE" filter="url(#f1)" height="31.3319" style="stroke: #A80036; stroke-width: 1.5;" width="129" x="784.5" y="80.0039"/><text fill="#000000" font-family="sans-serif" font-size="14" lengthAdjust="spacingAndGlyphs" textLength="115" x="791.5" y="100.3459">userCloudStorage</text><rect fill="#FEFECE" filter="url(#f1)" height="31.3319" style="stroke: #A80036; stroke-width: 1.5;" width="129" x="784.5" y="586.672"/><text fill="#000000" font-family="sans-serif" font-size="14" lengthAdjust="spacingAndGlyphs" textLength="115" x="791.5" y="607.0139">userCloudStorage</text><rect fill="#FFFFFF" filter="url(#f1)" height="30.094" style="stroke: #A80036; stroke-width: 1.0;" width="10" x="384" y="178.4299"/><rect fill="#FFFFFF" filter="url(#f1)" height="30.094" style="stroke: #A80036; stroke-width: 1.0;" width="10" x="509" y="238.6179"/><rect fill="#FFFFFF" filter="url(#f1)" height="151.0941" style="stroke: #A80036; stroke-width: 1.0;" width="10" x="619" y="358.9939"/><polygon fill="#A80036" points="46,144.3358,36,148.3358,46,152.3358,42,148.3358" style="stroke: #A80036; stroke-width: 1.0;"/><polygon fill="#A80036" points="254,144.3358,264,148.3358,254,152.3358,258,148.3358" style="stroke: #A80036; stroke-width: 1.0;"/><line style="stroke: #A80036; stroke-width: 1.0;" x1="40" x2="260" y1="148.3358" y2="148.3358"/><text fill="#000000" font-family="sans-serif" font-size="13" lengthAdjust="spacingAndGlyphs" textLength="43" x="52" y="142.7249">interact</text><polygon fill="#A80036" points="372,174.4299,382,178.4299,372,182.4299,376,178.4299" style="stroke: #A80036; stroke-width: 1.0;"/><line style="stroke: #A80036; stroke-width: 1.0;" x1="266" x2="378" y1="178.4299" y2="178.4299"/><text fill="#000000" font-family="sans-serif" font-size="13" lengthAdjust="spacingAndGlyphs" textLength="94" x="273" y="172.8189">selectProcessor</text><polygon fill="#A80036" points="277,204.5239,267,208.5239,277,212.5239,273,208.5239" style="stroke: #A80036; stroke-width: 1.0;"/><line style="stroke: #A80036; stroke-width: 1.0; stroke-dasharray: 2.0,2.0;" x1="271" x2="388" y1="208.5239" y2="208.5239"/><text fill="#000000" font-family="sans-serif" font-size="13" lengthAdjust="spacingAndGlyphs" textLength="49" x="283" y="202.9129">selected</text><polygon fill="#A80036" points="497,234.6179,507,238.6179,497,242.6179,501,238.6179" style="stroke: #A80036; stroke-width: 1.0;"/><line style="stroke: #A80036; stroke-width: 1.0;" x1="266" x2="503" y1="238.6179" y2="238.6179"/><text fill="#000000" font-family="sans-serif" font-size="13" lengthAdjust="spacingAndGlyphs" textLength="87" x="273" y="233.0069">selectDatasets</text><polygon fill="#A80036" points="277,264.7119,267,268.7119,277,272.7119,273,268.7119" style="stroke: #A80036; stroke-width: 1.0;"/><line style="stroke: #A80036; stroke-width: 1.0; stroke-dasharray: 2.0,2.0;" x1="271" x2="513" y1="268.7119" y2="268.7119"/><text fill="#000000" font-family="sans-serif" font-size="13" lengthAdjust="spacingAndGlyphs" textLength="49" x="283" y="263.1009">selected</text><polygon fill="#A80036" points="254,294.8059,264,298.8059,254,302.8059,258,298.8059" style="stroke: #A80036; stroke-width: 1.0;"/><line style="stroke: #A80036; stroke-width: 1.0;" x1="35" x2="260" y1="298.8059" y2="298.8059"/><text fill="#000000" font-family="sans-serif" font-size="13" lengthAdjust="spacingAndGlyphs" textLength="161" x="42" y="293.1949">Allocate selected input data</text><polygon fill="#A80036" points="254,324.8999,264,328.8999,254,332.8999,258,328.8999" style="stroke: #A80036; stroke-width: 1.0;"/><line style="stroke: #A80036; stroke-width: 1.0;" x1="35" x2="260" y1="328.8999" y2="328.8999"/><text fill="#000000" font-family="sans-serif" font-size="13" lengthAdjust="spacingAndGlyphs" textLength="39" x="42" y="323.2889">runJob</text><polygon fill="#A80036" points="607,354.9939,617,358.9939,607,362.9939,611,358.9939" style="stroke: #A80036; stroke-width: 1.0;"/><line style="stroke: #A80036; stroke-width: 1.0;" x1="266" x2="613" y1="358.9939" y2="358.9939"/><text fill="#000000" font-family="sans-serif" font-size="13" lengthAdjust="spacingAndGlyphs" textLength="322" x="273" y="353.3829">provision Cloud appliance with processor and input data</text><line style="stroke: #A80036; stroke-width: 1.0;" x1="629" x2="671" y1="389.182" y2="389.182"/><line style="stroke: #A80036; stroke-width: 1.0;" x1="671" x2="671" y1="389.182" y2="402.182"/><line style="stroke: #A80036; stroke-width: 1.0;" x1="630" x2="671" y1="402.182" y2="402.182"/><polygon fill="#A80036" points="640,398.182,630,402.182,640,406.182,636,402.182" style="stroke: #A80036; stroke-width: 1.0;"/><text fill="#000000" font-family="sans-serif" font-size="13" lengthAdjust="spacingAndGlyphs" textLength="203" x="636" y="383.477">validate request against user quota</text><rect fill="#FFFFFF" filter="url(#f1)" height="42.812" style="stroke: #000000; stroke-width: 2.0;" width="159" x="571.5" y="410.182"/><polygon fill="#EEEEEE" points="571.5,410.182,632.5,410.182,632.5,418.182,622.5,428.182,571.5,428.182,571.5,410.182" style="stroke: #000000; stroke-width: 2.0;"/><text fill="#000000" font-family="sans-serif" font-size="13" font-weight="bold" lengthAdjust="spacingAndGlyphs" textLength="16" x="584.5" y="424.909">ref</text><text fill="#000000" font-family="sans-serif" font-size="13" lengthAdjust="spacingAndGlyphs" textLength="151" x="577.5" y="444.571">warning if quota exceeded</text><polygon fill="#A80036" points="839,475.994,849,479.994,839,483.994,843,479.994" style="stroke: #A80036; stroke-width: 1.0;"/><line style="stroke: #A80036; stroke-width: 1.0; stroke-dasharray: 2.0,2.0;" x1="629" x2="845" y1="479.994" y2="479.994"/><text fill="#000000" font-family="sans-serif" font-size="13" lengthAdjust="spacingAndGlyphs" textLength="83" x="636" y="474.383">Deliver results</text><polygon fill="#A80036" points="277,506.088,267,510.088,277,514.088,273,510.088" style="stroke: #A80036; stroke-width: 1.0;"/><line style="stroke: #A80036; stroke-width: 1.0; stroke-dasharray: 2.0,2.0;" x1="271" x2="623" y1="510.088" y2="510.088"/><text fill="#000000" font-family="sans-serif" font-size="13" lengthAdjust="spacingAndGlyphs" textLength="117" x="283" y="504.477">Reference to results</text><polygon fill="#A80036" points="839,536.182,849,540.182,839,544.182,843,540.182" style="stroke: #A80036; stroke-width: 1.0;"/><line style="stroke: #A80036; stroke-width: 1.0;" x1="35" x2="845" y1="540.182" y2="540.182"/><text fill="#000000" font-family="sans-serif" font-size="13" lengthAdjust="spacingAndGlyphs" textLength="219" x="42" y="534.571">access generated EO-based products</text><polygon fill="#A80036" points="254,566.276,264,570.276,254,574.276,258,570.276" style="stroke: #A80036; stroke-width: 1.0;"/><line style="stroke: #A80036; stroke-width: 1.0;" x1="35" x2="260" y1="570.276" y2="570.276"/><text fill="#000000" font-family="sans-serif" font-size="13" lengthAdjust="spacingAndGlyphs" textLength="207" x="42" y="564.665">share generated eO-based products</text></g></svg>