<?xml version="1.0" encoding="UTF-8" standalone="yes"?><svg xmlns="http://www.w3.org/2000/svg" xmlns:xlink="http://www.w3.org/1999/xlink" height="306pt" style="width:336px;height:306px;" version="1.1" viewBox="0 0 336 306" width="336pt"><defs><filter height="300%" id="f1" width="300%" x="-1" y="-1"><feGaussianBlur result="blurOut" stdDeviation="2.0"/><feColorMatrix in="blurOut" result="blurOut2" type="matrix" values="0 0 0 0 0 0 0 0 0 0 0 0 0 0 0 0 0 0 .4 0"/><feOffset dx="4.0" dy="4.0" in="blurOut2" result="blurOut3"/><feBlend in="SourceGraphic" in2="blurOut3" mode="normal"/></filter></defs><g><polygon fill="#FFFFFF" filter="url(#f1)" points="22,24,107,24,114,43.6179,329,43.6179,329,299,22,299,22,24" style="stroke: #000000; stroke-width: 2.0;"/><line style="stroke: #000000; stroke-width: 2.0;" x1="22" x2="114" y1="43.6179" y2="43.6179"/><text fill="#000000" font-family="Arial" font-size="11" lengthAdjust="spacingAndGlyphs" textLength="79" x="25" y="37.4829">Terradue::Portal</text><a target="_top" xlink:href="../information/classes/class_terradue_1_1_portal_1_1_remote_resource.html" xlink:title="../information/classes/class_terradue_1_1_portal_1_1_remote_resource.html"><rect fill="#EEEBDC" filter="url(#f1)" height="60.38" style="stroke: #919871; stroke-width: 1.5;" width="118" x="117" y="57"/><ellipse cx="132" cy="73" fill="#ADD1B2" rx="11" ry="11" style="stroke: #919871; stroke-width: 1.0;"/><path d="M134.3438,68.6719 C133.4063,68.2344 132.8125,68.0938 131.9375,68.0938 C129.3125,68.0938 127.3125,70.1719 127.3125,72.8906 L127.3125,74.0156 C127.3125,76.5938 129.4219,78.4844 132.3125,78.4844 C133.5313,78.4844 134.6875,78.1875 135.4375,77.6406 C136.0156,77.2344 136.3438,76.7813 136.3438,76.3906 C136.3438,75.9375 135.9531,75.5469 135.4844,75.5469 C135.2656,75.5469 135.0625,75.625 134.875,75.8125 C134.4219,76.2969 134.4219,76.2969 134.2344,76.3906 C133.8125,76.6563 133.125,76.7813 132.3594,76.7813 C130.3125,76.7813 129.0156,75.6875 129.0156,73.9844 L129.0156,72.8906 C129.0156,71.1094 130.2656,69.7969 132,69.7969 C132.5781,69.7969 133.1875,69.9531 133.6563,70.2031 C134.1406,70.4844 134.3125,70.7031 134.4063,71.1094 C134.4688,71.5156 134.5,71.6406 134.6406,71.7656 C134.7813,71.9063 135.0156,72.0156 135.2344,72.0156 C135.5,72.0156 135.7656,71.875 135.9375,71.6563 C136.0469,71.5 136.0781,71.3125 136.0781,70.8906 L136.0781,69.4688 C136.0781,69.0313 136.0625,68.9063 135.9688,68.75 C135.8125,68.4844 135.5313,68.3438 135.2344,68.3438 C134.9375,68.3438 134.7344,68.4375 134.5156,68.75 L134.3438,68.6719 Z "/><text fill="#000000" font-family="Arial" font-size="11" lengthAdjust="spacingAndGlyphs" textLength="86" x="146" y="76.674">RemoteResource</text><line style="stroke: #919871; stroke-width: 1.5;" x1="118" x2="234" y1="89" y2="89"/><ellipse cx="128" cy="100.19" fill="none" rx="3" ry="3" style="stroke: #038048; stroke-width: 1.0;"/><text fill="#000000" font-family="Arial" font-size="10" lengthAdjust="spacingAndGlyphs" textLength="68" x="137" y="102.53">Location:string</text><line style="stroke: #919871; stroke-width: 1.5;" x1="118" x2="234" y1="109.38" y2="109.38"/></a><rect fill="#EEEBDC" filter="url(#f1)" height="48" style="stroke: #919871; stroke-width: 1.5;" width="134" x="63" y="215"/><ellipse cx="78" cy="231" fill="#ADD1B2" rx="11" ry="11" style="stroke: #919871; stroke-width: 1.0;"/><path d="M80.3438,226.6719 C79.4063,226.2344 78.8125,226.0938 77.9375,226.0938 C75.3125,226.0938 73.3125,228.1719 73.3125,230.8906 L73.3125,232.0156 C73.3125,234.5938 75.4219,236.4844 78.3125,236.4844 C79.5313,236.4844 80.6875,236.1875 81.4375,235.6406 C82.0156,235.2344 82.3438,234.7813 82.3438,234.3906 C82.3438,233.9375 81.9531,233.5469 81.4844,233.5469 C81.2656,233.5469 81.0625,233.625 80.875,233.8125 C80.4219,234.2969 80.4219,234.2969 80.2344,234.3906 C79.8125,234.6563 79.125,234.7813 78.3594,234.7813 C76.3125,234.7813 75.0156,233.6875 75.0156,231.9844 L75.0156,230.8906 C75.0156,229.1094 76.2656,227.7969 78,227.7969 C78.5781,227.7969 79.1875,227.9531 79.6563,228.2031 C80.1406,228.4844 80.3125,228.7031 80.4063,229.1094 C80.4688,229.5156 80.5,229.6406 80.6406,229.7656 C80.7813,229.9063 81.0156,230.0156 81.2344,230.0156 C81.5,230.0156 81.7656,229.875 81.9375,229.6563 C82.0469,229.5 82.0781,229.3125 82.0781,228.8906 L82.0781,227.4688 C82.0781,227.0313 82.0625,226.9063 81.9688,226.75 C81.8125,226.4844 81.5313,226.3438 81.2344,226.3438 C80.9375,226.3438 80.7344,226.4375 80.5156,226.75 L80.3438,226.6719 Z "/><text fill="#000000" font-family="Arial" font-size="11" lengthAdjust="spacingAndGlyphs" textLength="102" x="92" y="234.674">RemoteResourceSet</text><line style="stroke: #919871; stroke-width: 1.5;" x1="64" x2="196" y1="247" y2="247"/><line style="stroke: #919871; stroke-width: 1.5;" x1="64" x2="196" y1="255" y2="255"/><rect fill="#EEEBDC" filter="url(#f1)" height="48" style="stroke: #919871; stroke-width: 1.5;" width="59" x="255" y="214"/><ellipse cx="270" cy="230" fill="#ADD1B2" rx="11" ry="11" style="stroke: #919871; stroke-width: 1.0;"/><path d="M272.3438,225.6719 C271.4063,225.2344 270.8125,225.0938 269.9375,225.0938 C267.3125,225.0938 265.3125,227.1719 265.3125,229.8906 L265.3125,231.0156 C265.3125,233.5938 267.4219,235.4844 270.3125,235.4844 C271.5313,235.4844 272.6875,235.1875 273.4375,234.6406 C274.0156,234.2344 274.3438,233.7813 274.3438,233.3906 C274.3438,232.9375 273.9531,232.5469 273.4844,232.5469 C273.2656,232.5469 273.0625,232.625 272.875,232.8125 C272.4219,233.2969 272.4219,233.2969 272.2344,233.3906 C271.8125,233.6563 271.125,233.7813 270.3594,233.7813 C268.3125,233.7813 267.0156,232.6875 267.0156,230.9844 L267.0156,229.8906 C267.0156,228.1094 268.2656,226.7969 270,226.7969 C270.5781,226.7969 271.1875,226.9531 271.6563,227.2031 C272.1406,227.4844 272.3125,227.7031 272.4063,228.1094 C272.4688,228.5156 272.5,228.6406 272.6406,228.7656 C272.7813,228.9063 273.0156,229.0156 273.2344,229.0156 C273.5,229.0156 273.7656,228.875 273.9375,228.6563 C274.0469,228.5 274.0781,228.3125 274.0781,227.8906 L274.0781,226.4688 C274.0781,226.0313 274.0625,225.9063 273.9688,225.75 C273.8125,225.4844 273.5313,225.3438 273.2344,225.3438 C272.9375,225.3438 272.7344,225.4375 272.5156,225.75 L272.3438,225.6719 Z "/><text fill="#000000" font-family="Arial" font-size="11" lengthAdjust="spacingAndGlyphs" textLength="27" x="284" y="233.674">Entity</text><line style="stroke: #919871; stroke-width: 1.5;" x1="256" x2="313" y1="246" y2="246"/><line style="stroke: #919871; stroke-width: 1.5;" x1="256" x2="313" y1="254" y2="254"/><path d="M163.043,129.815 C154.756,157.197 144.305,191.73 137.401,214.544 " fill="none" style="stroke: #000000; stroke-width: 1.0;"/><polygon fill="#000000" points="166.912,117.03,161.3455,121.6141,163.436,128.5155,169.0025,123.9314,166.912,117.03" style="stroke: #000000; stroke-width: 1.0;"/><text fill="#000000" font-family="Arial" font-size="11" lengthAdjust="spacingAndGlyphs" textLength="18" x="158" y="158.4829">has</text><text fill="#000000" font-family="Arial" font-size="11" lengthAdjust="spacingAndGlyphs" textLength="6" x="143.37" y="203.9569">1</text><path d="M197.596,117.194 C214.021,140.16 236.795,172 254.838,197.227 " fill="none" style="stroke: #000000; stroke-width: 1.0;"/><polygon fill="none" points="260.767,193.485,266.709,213.824,249.38,201.629,260.767,193.485" style="stroke: #000000; stroke-width: 1.0;"/><text fill="#000000" font-family="Arial" font-size="11" lengthAdjust="spacingAndGlyphs" textLength="55" x="231" y="158.4829">implements</text></g></svg>