<?xml version="1.0" encoding="UTF-8" standalone="yes"?><svg xmlns="http://www.w3.org/2000/svg" xmlns:xlink="http://www.w3.org/1999/xlink" height="462pt" style="width:293px;height:462px;" version="1.1" viewBox="0 0 293 462" width="293pt"><defs><filter height="300%" id="f1" width="300%" x="-1" y="-1"><feGaussianBlur result="blurOut" stdDeviation="2.0"/><feColorMatrix in="blurOut" result="blurOut2" type="matrix" values="0 0 0 0 0 0 0 0 0 0 0 0 0 0 0 0 0 0 .4 0"/><feOffset dx="4.0" dy="4.0" in="blurOut2" result="blurOut3"/><feBlend in="SourceGraphic" in2="blurOut3" mode="normal"/></filter></defs><g><polygon fill="#FFFFFF" filter="url(#f1)" points="22,24,107,24,114,43.6179,286,43.6179,286,455,22,455,22,24" style="stroke: #000000; stroke-width: 2.0;"/><line style="stroke: #000000; stroke-width: 2.0;" x1="22" x2="114" y1="43.6179" y2="43.6179"/><text fill="#000000" font-family="Arial" font-size="11" lengthAdjust="spacingAndGlyphs" textLength="79" x="25" y="37.4829">Terradue::Portal</text><a target="_top" xlink:href="../information/classes/class_terradue_1_1_portal_1_1_ify_context.html" xlink:title="../information/classes/class_terradue_1_1_portal_1_1_ify_context.html"><rect fill="#EEEBDC" filter="url(#f1)" height="382.2597" style="stroke: #919871; stroke-width: 1.5;" width="233" x="38" y="57"/><ellipse cx="125.25" cy="73" fill="#ADD1B2" rx="11" ry="11" style="stroke: #919871; stroke-width: 1.0;"/><path d="M127.5938,68.6719 C126.6563,68.2344 126.0625,68.0938 125.1875,68.0938 C122.5625,68.0938 120.5625,70.1719 120.5625,72.8906 L120.5625,74.0156 C120.5625,76.5938 122.6719,78.4844 125.5625,78.4844 C126.7813,78.4844 127.9375,78.1875 128.6875,77.6406 C129.2656,77.2344 129.5938,76.7813 129.5938,76.3906 C129.5938,75.9375 129.2031,75.5469 128.7344,75.5469 C128.5156,75.5469 128.3125,75.625 128.125,75.8125 C127.6719,76.2969 127.6719,76.2969 127.4844,76.3906 C127.0625,76.6563 126.375,76.7813 125.6094,76.7813 C123.5625,76.7813 122.2656,75.6875 122.2656,73.9844 L122.2656,72.8906 C122.2656,71.1094 123.5156,69.7969 125.25,69.7969 C125.8281,69.7969 126.4375,69.9531 126.9063,70.2031 C127.3906,70.4844 127.5625,70.7031 127.6563,71.1094 C127.7188,71.5156 127.75,71.6406 127.8906,71.7656 C128.0313,71.9063 128.2656,72.0156 128.4844,72.0156 C128.75,72.0156 129.0156,71.875 129.1875,71.6563 C129.2969,71.5 129.3281,71.3125 129.3281,70.8906 L129.3281,69.4688 C129.3281,69.0313 129.3125,68.9063 129.2188,68.75 C129.0625,68.4844 128.7813,68.3438 128.4844,68.3438 C128.1875,68.3438 127.9844,68.4375 127.7656,68.75 L127.5938,68.6719 Z "/><text fill="#000000" font-family="Arial" font-size="11" lengthAdjust="spacingAndGlyphs" textLength="50" x="145.75" y="76.674">IfyContext</text><line style="stroke: #919871; stroke-width: 1.5;" x1="39" x2="270" y1="89" y2="89"/><ellipse cx="49" cy="100.19" fill="none" rx="3" ry="3" style="stroke: #038048; stroke-width: 1.0;"/><text fill="#000000" font-family="Arial" font-size="10" lengthAdjust="spacingAndGlyphs" textLength="79" x="58" y="102.53">IsInteractive:bool</text><ellipse cx="49" cy="112.57" fill="none" rx="3" ry="3" style="stroke: #038048; stroke-width: 1.0;"/><text fill="#000000" font-family="Arial" font-size="10" lengthAdjust="spacingAndGlyphs" textLength="57" x="58" y="114.91">LogLevel:int</text><ellipse cx="49" cy="124.95" fill="none" rx="3" ry="3" style="stroke: #038048; stroke-width: 1.0;"/><text fill="#000000" font-family="Arial" font-size="10" lengthAdjust="spacingAndGlyphs" textLength="70" x="58" y="127.29">DebugLevel:int</text><ellipse cx="49" cy="137.33" fill="none" rx="3" ry="3" style="stroke: #038048; stroke-width: 1.0;"/><text fill="#000000" font-family="Arial" font-size="10" lengthAdjust="spacingAndGlyphs" textLength="44" x="58" y="139.67">UserId:int</text><ellipse cx="49" cy="149.7099" fill="none" rx="3" ry="3" style="stroke: #038048; stroke-width: 1.0;"/><text fill="#000000" font-family="Arial" font-size="10" lengthAdjust="spacingAndGlyphs" textLength="53" x="58" y="152.0499">OwnerId:int</text><ellipse cx="49" cy="162.0899" fill="none" rx="3" ry="3" style="stroke: #038048; stroke-width: 1.0;"/><text fill="#000000" font-family="Arial" font-size="10" lengthAdjust="spacingAndGlyphs" textLength="95" x="58" y="164.4299">IsUserIdentified:bool</text><ellipse cx="49" cy="174.4699" fill="none" rx="3" ry="3" style="stroke: #038048; stroke-width: 1.0;"/><text fill="#000000" font-family="Arial" font-size="10" lengthAdjust="spacingAndGlyphs" textLength="117" x="58" y="176.8099">IsUserAuthenticated:bool</text><ellipse cx="49" cy="186.8499" fill="none" rx="3" ry="3" style="stroke: #038048; stroke-width: 1.0;"/><text fill="#000000" font-family="Arial" font-size="10" lengthAdjust="spacingAndGlyphs" textLength="207" x="58" y="189.1899">AuthenticationMethod:AuthenticationMethod</text><ellipse cx="49" cy="199.2299" fill="none" rx="3" ry="3" style="stroke: #038048; stroke-width: 1.0;"/><text fill="#000000" font-family="Arial" font-size="10" lengthAdjust="spacingAndGlyphs" textLength="60" x="58" y="201.5699">UserLevel:int</text><ellipse cx="49" cy="211.6099" fill="none" rx="3" ry="3" style="stroke: #038048; stroke-width: 1.0;"/><text fill="#000000" font-family="Arial" font-size="10" lengthAdjust="spacingAndGlyphs" textLength="85" x="58" y="213.9499">UserCaption:string</text><ellipse cx="49" cy="223.9899" fill="none" rx="3" ry="3" style="stroke: #038048; stroke-width: 1.0;"/><text fill="#000000" font-family="Arial" font-size="10" lengthAdjust="spacingAndGlyphs" textLength="75" x="58" y="226.3299">Username:string</text><line style="stroke: #919871; stroke-width: 1.5;" x1="39" x2="270" y1="233.1799" y2="233.1799"/><ellipse cx="49" cy="244.3699" fill="#84BE84" rx="3" ry="3" style="stroke: #038048; stroke-width: 1.0;"/><text fill="#000000" font-family="Arial" font-size="10" lengthAdjust="spacingAndGlyphs" textLength="32" x="58" y="246.7099">Open()</text><ellipse cx="49" cy="256.7498" fill="#84BE84" rx="3" ry="3" style="stroke: #038048; stroke-width: 1.0;"/><text fill="#000000" font-family="Arial" font-size="10" lengthAdjust="spacingAndGlyphs" textLength="32" x="58" y="259.0898">Close()</text><ellipse cx="49" cy="269.1298" fill="#84BE84" rx="3" ry="3" style="stroke: #038048; stroke-width: 1.0;"/><text fill="#000000" font-family="Arial" font-size="10" lengthAdjust="spacingAndGlyphs" textLength="92" x="58" y="271.4698">LoadConfiguration()</text><ellipse cx="49" cy="281.5098" fill="#84BE84" rx="3" ry="3" style="stroke: #038048; stroke-width: 1.0;"/><text fill="#000000" font-family="Arial" font-size="10" lengthAdjust="spacingAndGlyphs" textLength="82" x="58" y="283.8498">StartTransaction()</text><ellipse cx="49" cy="293.8898" fill="#84BE84" rx="3" ry="3" style="stroke: #038048; stroke-width: 1.0;"/><text fill="#000000" font-family="Arial" font-size="10" lengthAdjust="spacingAndGlyphs" textLength="80" x="58" y="296.2298">GetConfigValue()</text><ellipse cx="49" cy="306.2698" fill="#84BE84" rx="3" ry="3" style="stroke: #038048; stroke-width: 1.0;"/><text fill="#000000" font-family="Arial" font-size="10" lengthAdjust="spacingAndGlyphs" textLength="91" x="58" y="308.6098">EndImpersonation()</text><ellipse cx="49" cy="318.6498" fill="#84BE84" rx="3" ry="3" style="stroke: #038048; stroke-width: 1.0;"/><text fill="#000000" font-family="Arial" font-size="10" lengthAdjust="spacingAndGlyphs" textLength="70" x="58" y="320.9898">SendMailAlert()</text><ellipse cx="49" cy="331.0298" fill="#84BE84" rx="3" ry="3" style="stroke: #038048; stroke-width: 1.0;"/><text fill="#000000" font-family="Arial" font-size="10" lengthAdjust="spacingAndGlyphs" textLength="70" x="58" y="333.3698">CreateLogger()</text><ellipse cx="49" cy="343.4098" fill="#84BE84" rx="3" ry="3" style="stroke: #038048; stroke-width: 1.0;"/><text fill="#000000" font-family="Arial" font-size="10" lengthAdjust="spacingAndGlyphs" textLength="55" x="58" y="345.7498">LogDebug()</text><ellipse cx="49" cy="355.7897" fill="#84BE84" rx="3" ry="3" style="stroke: #038048; stroke-width: 1.0;"/><text fill="#000000" font-family="Arial" font-size="10" lengthAdjust="spacingAndGlyphs" textLength="46" x="58" y="358.1297">LogError()</text><ellipse cx="49" cy="368.1697" fill="#84BE84" rx="3" ry="3" style="stroke: #038048; stroke-width: 1.0;"/><text fill="#000000" font-family="Arial" font-size="10" lengthAdjust="spacingAndGlyphs" textLength="69" x="58" y="370.5097">LogFatalError()</text><ellipse cx="49" cy="380.5497" fill="#84BE84" rx="3" ry="3" style="stroke: #038048; stroke-width: 1.0;"/><text fill="#000000" font-family="Arial" font-size="10" lengthAdjust="spacingAndGlyphs" textLength="42" x="58" y="382.8897">LogInfo()</text><ellipse cx="49" cy="392.9297" fill="#84BE84" rx="3" ry="3" style="stroke: #038048; stroke-width: 1.0;"/><text fill="#000000" font-family="Arial" font-size="10" lengthAdjust="spacingAndGlyphs" textLength="62" x="58" y="395.2697">LogWarning()</text><ellipse cx="49" cy="405.3097" fill="#84BE84" rx="3" ry="3" style="stroke: #038048; stroke-width: 1.0;"/><text fill="#000000" font-family="Arial" font-size="10" lengthAdjust="spacingAndGlyphs" textLength="43" x="58" y="407.6497">LogStat()</text><rect fill="#F24D5C" height="6" style="stroke: #C82930; stroke-width: 1.0;" width="6" x="46" y="414.6897"/><text fill="#000000" font-family="Arial" font-size="10" lengthAdjust="spacingAndGlyphs" textLength="62" x="58" y="420.0297">SetReporter()</text><rect fill="#F24D5C" height="6" style="stroke: #C82930; stroke-width: 1.0;" width="6" x="46" y="427.0697"/><text fill="#000000" font-family="Arial" font-size="10" lengthAdjust="spacingAndGlyphs" textLength="67" x="58" y="432.4097">SetOriginator()</text></a></g></svg>