<?xml version="1.0" encoding="UTF-8" standalone="yes"?><svg xmlns="http://www.w3.org/2000/svg" xmlns:xlink="http://www.w3.org/1999/xlink" height="290pt" style="width:947px;height:290px;" version="1.1" viewBox="0 0 947 290" width="947pt"><defs><filter height="300%" id="f1" width="300%" x="-1" y="-1"><feGaussianBlur result="blurOut" stdDeviation="2.0"/><feColorMatrix in="blurOut" result="blurOut2" type="matrix" values="0 0 0 0 0 0 0 0 0 0 0 0 0 0 0 0 0 0 .4 0"/><feOffset dx="4.0" dy="4.0" in="blurOut2" result="blurOut3"/><feBlend in="SourceGraphic" in2="blurOut3" mode="normal"/></filter></defs><g><polygon fill="#FFFFFF" filter="url(#f1)" points="22,24,107,24,114,43.6179,940,43.6179,940,283,22,283,22,24" style="stroke: #000000; stroke-width: 2.0;"/><line style="stroke: #000000; stroke-width: 2.0;" x1="22" x2="114" y1="43.6179" y2="43.6179"/><text fill="#000000" font-family="Arial" font-size="11" lengthAdjust="spacingAndGlyphs" textLength="79" x="25" y="37.4829">Terradue::Portal</text><a target="_top" xlink:href="../information/classes/class_terradue_1_1_portal_1_1_authentication_type.html" xlink:title="../information/classes/class_terradue_1_1_portal_1_1_authentication_type.html"><rect fill="#EEEBDC" filter="url(#f1)" height="85.14" style="stroke: #919871; stroke-width: 1.5;" width="222" x="442" y="57.5"/><ellipse cx="502.25" cy="73.5" fill="#ADD1B2" rx="11" ry="11" style="stroke: #919871; stroke-width: 1.0;"/><path d="M504.5938,69.1719 C503.6563,68.7344 503.0625,68.5938 502.1875,68.5938 C499.5625,68.5938 497.5625,70.6719 497.5625,73.3906 L497.5625,74.5156 C497.5625,77.0938 499.6719,78.9844 502.5625,78.9844 C503.7813,78.9844 504.9375,78.6875 505.6875,78.1406 C506.2656,77.7344 506.5938,77.2813 506.5938,76.8906 C506.5938,76.4375 506.2031,76.0469 505.7344,76.0469 C505.5156,76.0469 505.3125,76.125 505.125,76.3125 C504.6719,76.7969 504.6719,76.7969 504.4844,76.8906 C504.0625,77.1563 503.375,77.2813 502.6094,77.2813 C500.5625,77.2813 499.2656,76.1875 499.2656,74.4844 L499.2656,73.3906 C499.2656,71.6094 500.5156,70.2969 502.25,70.2969 C502.8281,70.2969 503.4375,70.4531 503.9063,70.7031 C504.3906,70.9844 504.5625,71.2031 504.6563,71.6094 C504.7188,72.0156 504.75,72.1406 504.8906,72.2656 C505.0313,72.4063 505.2656,72.5156 505.4844,72.5156 C505.75,72.5156 506.0156,72.375 506.1875,72.1563 C506.2969,72 506.3281,71.8125 506.3281,71.3906 L506.3281,69.9688 C506.3281,69.5313 506.3125,69.4063 506.2188,69.25 C506.0625,68.9844 505.7813,68.8438 505.4844,68.8438 C505.1875,68.8438 504.9844,68.9375 504.7656,69.25 L504.5938,69.1719 Z "/><text fill="#000000" font-family="Arial" font-size="11" lengthAdjust="spacingAndGlyphs" textLength="93" x="522.75" y="77.174">AuthenticationType</text><line style="stroke: #919871; stroke-width: 1.5;" x1="443" x2="663" y1="89.5" y2="89.5"/><ellipse cx="453" cy="100.69" fill="none" rx="3" ry="3" style="stroke: #038048; stroke-width: 1.0;"/><text fill="#000000" font-family="Arial" font-size="10" lengthAdjust="spacingAndGlyphs" textLength="189" x="462" y="103.03">NormalAccountRule:RuleApplicationType</text><ellipse cx="453" cy="113.07" fill="none" rx="3" ry="3" style="stroke: #038048; stroke-width: 1.0;"/><text fill="#000000" font-family="Arial" font-size="10" lengthAdjust="spacingAndGlyphs" textLength="155" x="462" y="115.41">ExternalSessionRefreshPeriod:int</text><ellipse cx="453" cy="125.45" fill="none" rx="3" ry="3" style="stroke: #038048; stroke-width: 1.0;"/><text fill="#000000" font-family="Arial" font-size="10" lengthAdjust="spacingAndGlyphs" textLength="196" x="462" y="127.79">UsesExternalIdentityProvider:abstract bool</text><line style="stroke: #919871; stroke-width: 1.5;" x1="443" x2="663" y1="134.64" y2="134.64"/></a><rect fill="#EEEBDC" filter="url(#f1)" height="48" style="stroke: #919871; stroke-width: 1.5;" width="184" x="38" y="219"/><ellipse cx="53" cy="235" fill="#ADD1B2" rx="11" ry="11" style="stroke: #919871; stroke-width: 1.0;"/><path d="M55.3438,230.6719 C54.4063,230.2344 53.8125,230.0938 52.9375,230.0938 C50.3125,230.0938 48.3125,232.1719 48.3125,234.8906 L48.3125,236.0156 C48.3125,238.5938 50.4219,240.4844 53.3125,240.4844 C54.5313,240.4844 55.6875,240.1875 56.4375,239.6406 C57.0156,239.2344 57.3438,238.7813 57.3438,238.3906 C57.3438,237.9375 56.9531,237.5469 56.4844,237.5469 C56.2656,237.5469 56.0625,237.625 55.875,237.8125 C55.4219,238.2969 55.4219,238.2969 55.2344,238.3906 C54.8125,238.6563 54.125,238.7813 53.3594,238.7813 C51.3125,238.7813 50.0156,237.6875 50.0156,235.9844 L50.0156,234.8906 C50.0156,233.1094 51.2656,231.7969 53,231.7969 C53.5781,231.7969 54.1875,231.9531 54.6563,232.2031 C55.1406,232.4844 55.3125,232.7031 55.4063,233.1094 C55.4688,233.5156 55.5,233.6406 55.6406,233.7656 C55.7813,233.9063 56.0156,234.0156 56.2344,234.0156 C56.5,234.0156 56.7656,233.875 56.9375,233.6563 C57.0469,233.5 57.0781,233.3125 57.0781,232.8906 L57.0781,231.4688 C57.0781,231.0313 57.0625,230.9063 56.9688,230.75 C56.8125,230.4844 56.5313,230.3438 56.2344,230.3438 C55.9375,230.3438 55.7344,230.4375 55.5156,230.75 L55.3438,230.6719 Z "/><text fill="#000000" font-family="Arial" font-size="11" lengthAdjust="spacingAndGlyphs" textLength="152" x="67" y="238.674">SessionlessAuthenticationType</text><line style="stroke: #919871; stroke-width: 1.5;" x1="39" x2="221" y1="251" y2="251"/><line style="stroke: #919871; stroke-width: 1.5;" x1="39" x2="221" y1="259" y2="259"/><rect fill="#EEEBDC" filter="url(#f1)" height="48" style="stroke: #919871; stroke-width: 1.5;" width="174" x="257" y="219"/><ellipse cx="272" cy="235" fill="#ADD1B2" rx="11" ry="11" style="stroke: #919871; stroke-width: 1.0;"/><path d="M274.3438,230.6719 C273.4063,230.2344 272.8125,230.0938 271.9375,230.0938 C269.3125,230.0938 267.3125,232.1719 267.3125,234.8906 L267.3125,236.0156 C267.3125,238.5938 269.4219,240.4844 272.3125,240.4844 C273.5313,240.4844 274.6875,240.1875 275.4375,239.6406 C276.0156,239.2344 276.3438,238.7813 276.3438,238.3906 C276.3438,237.9375 275.9531,237.5469 275.4844,237.5469 C275.2656,237.5469 275.0625,237.625 274.875,237.8125 C274.4219,238.2969 274.4219,238.2969 274.2344,238.3906 C273.8125,238.6563 273.125,238.7813 272.3594,238.7813 C270.3125,238.7813 269.0156,237.6875 269.0156,235.9844 L269.0156,234.8906 C269.0156,233.1094 270.2656,231.7969 272,231.7969 C272.5781,231.7969 273.1875,231.9531 273.6563,232.2031 C274.1406,232.4844 274.3125,232.7031 274.4063,233.1094 C274.4688,233.5156 274.5,233.6406 274.6406,233.7656 C274.7813,233.9063 275.0156,234.0156 275.2344,234.0156 C275.5,234.0156 275.7656,233.875 275.9375,233.6563 C276.0469,233.5 276.0781,233.3125 276.0781,232.8906 L276.0781,231.4688 C276.0781,231.0313 276.0625,230.9063 275.9688,230.75 C275.8125,230.4844 275.5313,230.3438 275.2344,230.3438 C274.9375,230.3438 274.7344,230.4375 274.5156,230.75 L274.3438,230.6719 Z "/><text fill="#000000" font-family="Arial" font-size="11" lengthAdjust="spacingAndGlyphs" textLength="142" x="286" y="238.674">PasswordAuthenticationType</text><line style="stroke: #919871; stroke-width: 1.5;" x1="258" x2="430" y1="251" y2="251"/><line style="stroke: #919871; stroke-width: 1.5;" x1="258" x2="430" y1="259" y2="259"/><rect fill="#EEEBDC" filter="url(#f1)" height="48" style="stroke: #919871; stroke-width: 1.5;" width="174" x="466" y="219"/><ellipse cx="481" cy="235" fill="#ADD1B2" rx="11" ry="11" style="stroke: #919871; stroke-width: 1.0;"/><path d="M483.3438,230.6719 C482.4063,230.2344 481.8125,230.0938 480.9375,230.0938 C478.3125,230.0938 476.3125,232.1719 476.3125,234.8906 L476.3125,236.0156 C476.3125,238.5938 478.4219,240.4844 481.3125,240.4844 C482.5313,240.4844 483.6875,240.1875 484.4375,239.6406 C485.0156,239.2344 485.3438,238.7813 485.3438,238.3906 C485.3438,237.9375 484.9531,237.5469 484.4844,237.5469 C484.2656,237.5469 484.0625,237.625 483.875,237.8125 C483.4219,238.2969 483.4219,238.2969 483.2344,238.3906 C482.8125,238.6563 482.125,238.7813 481.3594,238.7813 C479.3125,238.7813 478.0156,237.6875 478.0156,235.9844 L478.0156,234.8906 C478.0156,233.1094 479.2656,231.7969 481,231.7969 C481.5781,231.7969 482.1875,231.9531 482.6563,232.2031 C483.1406,232.4844 483.3125,232.7031 483.4063,233.1094 C483.4688,233.5156 483.5,233.6406 483.6406,233.7656 C483.7813,233.9063 484.0156,234.0156 484.2344,234.0156 C484.5,234.0156 484.7656,233.875 484.9375,233.6563 C485.0469,233.5 485.0781,233.3125 485.0781,232.8906 L485.0781,231.4688 C485.0781,231.0313 485.0625,230.9063 484.9688,230.75 C484.8125,230.4844 484.5313,230.3438 484.2344,230.3438 C483.9375,230.3438 483.7344,230.4375 483.5156,230.75 L483.3438,230.6719 Z "/><text fill="#000000" font-family="Arial" font-size="11" lengthAdjust="spacingAndGlyphs" textLength="142" x="495" y="238.674">CertificateAuthenticationType</text><line style="stroke: #919871; stroke-width: 1.5;" x1="467" x2="639" y1="251" y2="251"/><line style="stroke: #919871; stroke-width: 1.5;" x1="467" x2="639" y1="259" y2="259"/><rect fill="#EEEBDC" filter="url(#f1)" height="48" style="stroke: #919871; stroke-width: 1.5;" width="59" x="675" y="219"/><ellipse cx="690" cy="235" fill="#ADD1B2" rx="11" ry="11" style="stroke: #919871; stroke-width: 1.0;"/><path d="M692.3438,230.6719 C691.4063,230.2344 690.8125,230.0938 689.9375,230.0938 C687.3125,230.0938 685.3125,232.1719 685.3125,234.8906 L685.3125,236.0156 C685.3125,238.5938 687.4219,240.4844 690.3125,240.4844 C691.5313,240.4844 692.6875,240.1875 693.4375,239.6406 C694.0156,239.2344 694.3438,238.7813 694.3438,238.3906 C694.3438,237.9375 693.9531,237.5469 693.4844,237.5469 C693.2656,237.5469 693.0625,237.625 692.875,237.8125 C692.4219,238.2969 692.4219,238.2969 692.2344,238.3906 C691.8125,238.6563 691.125,238.7813 690.3594,238.7813 C688.3125,238.7813 687.0156,237.6875 687.0156,235.9844 L687.0156,234.8906 C687.0156,233.1094 688.2656,231.7969 690,231.7969 C690.5781,231.7969 691.1875,231.9531 691.6563,232.2031 C692.1406,232.4844 692.3125,232.7031 692.4063,233.1094 C692.4688,233.5156 692.5,233.6406 692.6406,233.7656 C692.7813,233.9063 693.0156,234.0156 693.2344,234.0156 C693.5,234.0156 693.7656,233.875 693.9375,233.6563 C694.0469,233.5 694.0781,233.3125 694.0781,232.8906 L694.0781,231.4688 C694.0781,231.0313 694.0625,230.9063 693.9688,230.75 C693.8125,230.4844 693.5313,230.3438 693.2344,230.3438 C692.9375,230.3438 692.7344,230.4375 692.5156,230.75 L692.3438,230.6719 Z "/><text fill="#000000" font-family="Arial" font-size="11" lengthAdjust="spacingAndGlyphs" textLength="27" x="704" y="238.674">Entity</text><line style="stroke: #919871; stroke-width: 1.5;" x1="676" x2="733" y1="251" y2="251"/><line style="stroke: #919871; stroke-width: 1.5;" x1="676" x2="733" y1="259" y2="259"/><rect fill="#EEEBDC" filter="url(#f1)" height="48" style="stroke: #919871; stroke-width: 1.5;" width="156" x="768" y="219"/><ellipse cx="783" cy="235" fill="#ADD1B2" rx="11" ry="11" style="stroke: #919871; stroke-width: 1.0;"/><path d="M785.3438,230.6719 C784.4063,230.2344 783.8125,230.0938 782.9375,230.0938 C780.3125,230.0938 778.3125,232.1719 778.3125,234.8906 L778.3125,236.0156 C778.3125,238.5938 780.4219,240.4844 783.3125,240.4844 C784.5313,240.4844 785.6875,240.1875 786.4375,239.6406 C787.0156,239.2344 787.3438,238.7813 787.3438,238.3906 C787.3438,237.9375 786.9531,237.5469 786.4844,237.5469 C786.2656,237.5469 786.0625,237.625 785.875,237.8125 C785.4219,238.2969 785.4219,238.2969 785.2344,238.3906 C784.8125,238.6563 784.125,238.7813 783.3594,238.7813 C781.3125,238.7813 780.0156,237.6875 780.0156,235.9844 L780.0156,234.8906 C780.0156,233.1094 781.2656,231.7969 783,231.7969 C783.5781,231.7969 784.1875,231.9531 784.6563,232.2031 C785.1406,232.4844 785.3125,232.7031 785.4063,233.1094 C785.4688,233.5156 785.5,233.6406 785.6406,233.7656 C785.7813,233.9063 786.0156,234.0156 786.2344,234.0156 C786.5,234.0156 786.7656,233.875 786.9375,233.6563 C787.0469,233.5 787.0781,233.3125 787.0781,232.8906 L787.0781,231.4688 C787.0781,231.0313 787.0625,230.9063 786.9688,230.75 C786.8125,230.4844 786.5313,230.3438 786.2344,230.3438 C785.9375,230.3438 785.7344,230.4375 785.5156,230.75 L785.3438,230.6719 Z "/><text fill="#000000" font-family="Arial" font-size="11" lengthAdjust="spacingAndGlyphs" textLength="124" x="797" y="238.674">TokenAuthenticationType</text><line style="stroke: #919871; stroke-width: 1.5;" x1="769" x2="923" y1="251" y2="251"/><line style="stroke: #919871; stroke-width: 1.5;" x1="769" x2="923" y1="259" y2="259"/><path d="M441.862,137.572 C372.872,160.894 285.335,190.487 220.576,212.3797 " fill="none" style="stroke: #000000; stroke-width: 1.0;"/><polygon fill="none" points="222.444,219.1374,201.255,218.9113,217.96,205.8748,222.444,219.1374" style="stroke: #000000; stroke-width: 1.0;"/><text fill="#000000" font-family="Arial" font-size="11" lengthAdjust="spacingAndGlyphs" textLength="55" x="330" y="184.4829">implements</text><path d="M490.859,142.518 C460.666,163.176 424.795,187.719 396.062,207.3785 " fill="none" style="stroke: #000000; stroke-width: 1.0;"/><polygon fill="none" points="399.668,213.3928,379.209,218.9094,391.763,201.8385,399.668,213.3928" style="stroke: #000000; stroke-width: 1.0;"/><text fill="#000000" font-family="Arial" font-size="11" lengthAdjust="spacingAndGlyphs" textLength="55" x="444" y="184.4829">implements</text><path d="M553,142.518 C553,160.194 553,180.715 553,198.587 " fill="none" style="stroke: #000000; stroke-width: 1.0;"/><polygon fill="none" points="560,198.703,553,218.7028,546,198.703,560,198.703" style="stroke: #000000; stroke-width: 1.0;"/><text fill="#000000" font-family="Arial" font-size="11" lengthAdjust="spacingAndGlyphs" textLength="55" x="554" y="184.4829">implements</text><path d="M597.896,142.518 C618.818,162.331 643.513,185.718 663.813,204.9417 " fill="none" style="stroke: #000000; stroke-width: 1.0;"/><polygon fill="none" points="668.635,199.868,678.343,218.7028,659.009,210.0331,668.635,199.868" style="stroke: #000000; stroke-width: 1.0;"/><text fill="#000000" font-family="Arial" font-size="11" lengthAdjust="spacingAndGlyphs" textLength="55" x="647" y="184.4829">implements</text><path d="M647.96,142.639 C669.135,152.413 691.41,162.903 712,173 C735.474,184.511 760.968,197.662 783.356,209.4337 " fill="none" style="stroke: #000000; stroke-width: 1.0;"/><polygon fill="none" points="786.91,203.3948,801.319,218.9317,780.366,215.7712,786.91,203.3948" style="stroke: #000000; stroke-width: 1.0;"/><text fill="#000000" font-family="Arial" font-size="11" lengthAdjust="spacingAndGlyphs" textLength="55" x="742" y="184.4829">implements</text></g></svg>