<?xml version="1.0" encoding="UTF-8" standalone="yes"?><svg xmlns="http://www.w3.org/2000/svg" xmlns:xlink="http://www.w3.org/1999/xlink" height="352pt" style="width:255px;height:352px;" version="1.1" viewBox="0 0 255 352" width="255pt"><defs><filter height="300%" id="f1" width="300%" x="-1" y="-1"><feGaussianBlur result="blurOut" stdDeviation="2.0"/><feColorMatrix in="blurOut" result="blurOut2" type="matrix" values="0 0 0 0 0 0 0 0 0 0 0 0 0 0 0 0 0 0 .4 0"/><feOffset dx="4.0" dy="4.0" in="blurOut2" result="blurOut3"/><feBlend in="SourceGraphic" in2="blurOut3" mode="normal"/></filter></defs><g><polygon fill="#FFFFFF" filter="url(#f1)" points="22,24,107,24,114,43.6179,248,43.6179,248,345,22,345,22,24" style="stroke: #000000; stroke-width: 2.0;"/><line style="stroke: #000000; stroke-width: 2.0;" x1="22" x2="114" y1="43.6179" y2="43.6179"/><text fill="#000000" font-family="Arial" font-size="11" lengthAdjust="spacingAndGlyphs" textLength="79" x="25" y="37.4829">Terradue::Portal</text><a target="_top" xlink:href="../information/classes/class_terradue_1_1_portal_1_1_service.html" xlink:title="../information/classes/class_terradue_1_1_portal_1_1_service.html"><rect fill="#EEEBDC" filter="url(#f1)" height="147.0399" style="stroke: #919871; stroke-width: 1.5;" width="195" x="38" y="57.5"/><ellipse cx="112.75" cy="73.5" fill="#ADD1B2" rx="11" ry="11" style="stroke: #919871; stroke-width: 1.0;"/><path d="M115.0938,69.1719 C114.1563,68.7344 113.5625,68.5938 112.6875,68.5938 C110.0625,68.5938 108.0625,70.6719 108.0625,73.3906 L108.0625,74.5156 C108.0625,77.0938 110.1719,78.9844 113.0625,78.9844 C114.2813,78.9844 115.4375,78.6875 116.1875,78.1406 C116.7656,77.7344 117.0938,77.2813 117.0938,76.8906 C117.0938,76.4375 116.7031,76.0469 116.2344,76.0469 C116.0156,76.0469 115.8125,76.125 115.625,76.3125 C115.1719,76.7969 115.1719,76.7969 114.9844,76.8906 C114.5625,77.1563 113.875,77.2813 113.1094,77.2813 C111.0625,77.2813 109.7656,76.1875 109.7656,74.4844 L109.7656,73.3906 C109.7656,71.6094 111.0156,70.2969 112.75,70.2969 C113.3281,70.2969 113.9375,70.4531 114.4063,70.7031 C114.8906,70.9844 115.0625,71.2031 115.1563,71.6094 C115.2188,72.0156 115.25,72.1406 115.3906,72.2656 C115.5313,72.4063 115.7656,72.5156 115.9844,72.5156 C116.25,72.5156 116.5156,72.375 116.6875,72.1563 C116.7969,72 116.8281,71.8125 116.8281,71.3906 L116.8281,69.9688 C116.8281,69.5313 116.8125,69.4063 116.7188,69.25 C116.5625,68.9844 116.2813,68.8438 115.9844,68.8438 C115.6875,68.8438 115.4844,68.9375 115.2656,69.25 L115.0938,69.1719 Z "/><text fill="#000000" font-family="Arial" font-size="11" lengthAdjust="spacingAndGlyphs" textLength="37" x="133.25" y="77.174">Service</text><line style="stroke: #919871; stroke-width: 1.5;" x1="39" x2="232" y1="89.5" y2="89.5"/><ellipse cx="49" cy="100.69" fill="none" rx="3" ry="3" style="stroke: #038048; stroke-width: 1.0;"/><text fill="#000000" font-family="Arial" font-size="10" lengthAdjust="spacingAndGlyphs" textLength="79" x="58" y="103.03">Description:string</text><ellipse cx="49" cy="113.07" fill="none" rx="3" ry="3" style="stroke: #038048; stroke-width: 1.0;"/><text fill="#000000" font-family="Arial" font-size="10" lengthAdjust="spacingAndGlyphs" textLength="63" x="58" y="115.41">Version:string</text><ellipse cx="49" cy="125.45" fill="none" rx="3" ry="3" style="stroke: #038048; stroke-width: 1.0;"/><text fill="#000000" font-family="Arial" font-size="10" lengthAdjust="spacingAndGlyphs" textLength="40" x="58" y="127.79">Url:string</text><ellipse cx="49" cy="137.83" fill="none" rx="3" ry="3" style="stroke: #038048; stroke-width: 1.0;"/><text fill="#000000" font-family="Arial" font-size="10" lengthAdjust="spacingAndGlyphs" textLength="60" x="58" y="140.17">IconUrl:string</text><ellipse cx="49" cy="150.2099" fill="none" rx="3" ry="3" style="stroke: #038048; stroke-width: 1.0;"/><text fill="#000000" font-family="Arial" font-size="10" lengthAdjust="spacingAndGlyphs" textLength="44" x="58" y="152.5499">Rating:int</text><ellipse cx="49" cy="162.5899" fill="none" rx="3" ry="3" style="stroke: #038048; stroke-width: 1.0;"/><text fill="#000000" font-family="Arial" font-size="10" lengthAdjust="spacingAndGlyphs" textLength="48" x="58" y="164.9299">ClassId:int</text><ellipse cx="49" cy="174.9699" fill="none" rx="3" ry="3" style="stroke: #038048; stroke-width: 1.0;"/><text fill="#000000" font-family="Arial" font-size="10" lengthAdjust="spacingAndGlyphs" textLength="59" x="58" y="177.3099">Categories:[]</text><ellipse cx="49" cy="187.3499" fill="none" rx="3" ry="3" style="stroke: #038048; stroke-width: 1.0;"/><text fill="#000000" font-family="Arial" font-size="10" lengthAdjust="spacingAndGlyphs" textLength="169" x="58" y="189.6899">OnBuildTask:BuildTaskCallbackType</text><line style="stroke: #919871; stroke-width: 1.5;" x1="39" x2="232" y1="196.5399" y2="196.5399"/></a><rect fill="#EEEBDC" filter="url(#f1)" height="48" style="stroke: #919871; stroke-width: 1.5;" width="59" x="106" y="281"/><ellipse cx="121" cy="297" fill="#ADD1B2" rx="11" ry="11" style="stroke: #919871; stroke-width: 1.0;"/><path d="M123.3438,292.6719 C122.4063,292.2344 121.8125,292.0938 120.9375,292.0938 C118.3125,292.0938 116.3125,294.1719 116.3125,296.8906 L116.3125,298.0156 C116.3125,300.5938 118.4219,302.4844 121.3125,302.4844 C122.5313,302.4844 123.6875,302.1875 124.4375,301.6406 C125.0156,301.2344 125.3438,300.7813 125.3438,300.3906 C125.3438,299.9375 124.9531,299.5469 124.4844,299.5469 C124.2656,299.5469 124.0625,299.625 123.875,299.8125 C123.4219,300.2969 123.4219,300.2969 123.2344,300.3906 C122.8125,300.6563 122.125,300.7813 121.3594,300.7813 C119.3125,300.7813 118.0156,299.6875 118.0156,297.9844 L118.0156,296.8906 C118.0156,295.1094 119.2656,293.7969 121,293.7969 C121.5781,293.7969 122.1875,293.9531 122.6563,294.2031 C123.1406,294.4844 123.3125,294.7031 123.4063,295.1094 C123.4688,295.5156 123.5,295.6406 123.6406,295.7656 C123.7813,295.9063 124.0156,296.0156 124.2344,296.0156 C124.5,296.0156 124.7656,295.875 124.9375,295.6563 C125.0469,295.5 125.0781,295.3125 125.0781,294.8906 L125.0781,293.4688 C125.0781,293.0313 125.0625,292.9063 124.9688,292.75 C124.8125,292.4844 124.5313,292.3438 124.2344,292.3438 C123.9375,292.3438 123.7344,292.4375 123.5156,292.75 L123.3438,292.6719 Z "/><text fill="#000000" font-family="Arial" font-size="11" lengthAdjust="spacingAndGlyphs" textLength="27" x="135" y="300.674">Entity</text><line style="stroke: #919871; stroke-width: 1.5;" x1="107" x2="164" y1="313" y2="313"/><line style="stroke: #919871; stroke-width: 1.5;" x1="107" x2="164" y1="321" y2="321"/><path d="M135,204.539 C135,223.606 135,243.557 135,260.608 " fill="none" style="stroke: #000000; stroke-width: 1.0;"/><polygon fill="none" points="142,260.702,135,280.7023,128,260.702,142,260.702" style="stroke: #000000; stroke-width: 1.0;"/><text fill="#000000" font-family="Arial" font-size="11" lengthAdjust="spacingAndGlyphs" textLength="55" x="136" y="246.4829">implements</text></g></svg>